<?xml version="1.0" standalone="no"?>
<!DOCTYPE svg PUBLIC "-//W3C//DTD SVG 20010904//EN"
 "http://www.w3.org/TR/2001/REC-SVG-20010904/DTD/svg10.dtd">
<svg version="1.0" xmlns="http://www.w3.org/2000/svg"
 width="67.000000pt" height="83.000000pt" viewBox="0 0 67.000000 83.000000"
 preserveAspectRatio="xMidYMid meet">
<metadata>
Created by potrace 1.15, written by Peter Selinger 2001-2017
</metadata>
<g transform="translate(0.000000,83.000000) scale(0.100000,-0.100000)"
fill="#000000" stroke="none">
<path d="M202 564 c-111 -169 -142 -224 -142 -250 l0 -33 143 -3 142 -3 -4
-93 -3 -92 77 0 78 0 -7 95 -7 95 45 0 46 0 0 50 0 50 -45 0 -45 0 -2 198 -3
197 -66 3 -65 3 -142 -217z m150 -51 l-5 -133 -84 0 c-65 0 -82 3 -77 13 5 6
31 48 59 92 29 44 64 100 79 123 15 24 29 42 30 40 2 -1 1 -63 -2 -135z"/>
</g>
</svg>
