<?xml version="1.0" standalone="no"?>
<!DOCTYPE svg PUBLIC "-//W3C//DTD SVG 1.1//EN" "http://www.w3.org/Graphics/SVG/1.1/DTD/svg11.dtd" >
<svg xmlns="http://www.w3.org/2000/svg" xmlns:xlink="http://www.w3.org/1999/xlink" version="1.1">
<metadata>
Created by FontForge 20170924 at Mon Sep 16 10:16:23 2019
 By www-data
Copyright \(c\) 2019 by Abbie Gonzalez. All rights reserved.
</metadata>
<defs>
<font id="OpenDyslexic-Italic" horiz-adv-x="0" >
  <font-face 
    font-family="OpenDyslexic"
    font-weight="400"
    font-style="italic"
    font-stretch="normal"
    units-per-em="1000"
    panose-1="0 0 5 0 0 0 0 0 0 0"
    ascent="800"
    descent="-200"
    x-height="528"
    cap-height="750"
    bbox="-1093 -409 2312 1250"
    underline-thickness="50"
    underline-position="-100"
    slope="-15"
    stemh="94"
    stemv="95"
    unicode-range="U+0020-FB02"
  />
<missing-glyph horiz-adv-x="615" 
d="M504 960v-1230h-390v1230h390zM410 878h-203v-41h80v-46h-82v-40h205v40h-82v46h82v41zM328 719h-123v-128h205v42h-82v86zM287 677v-44h-41v44h41zM410 558h-205v-41h82v-45h-82v-41h123v86h82v41zM410 484h-41v-81h-164v-42h205v123zM410 334h-123v-69h41v28h41v-57
h-123v98h-41v-139h205v139zM410 121h-205v-139h205v139zM369 81v-58h-123v58h123zM410 -46h-205v-41h87l-87 -58v-40h205v40h-126l86 58h40v41z" />
    <glyph glyph-name="f_f" unicode="ff" horiz-adv-x="978" 
d="M531 795l81 7l-20 -82h-70c-64 0 -123 -122 -124 -161l157 2l-24 -89h-145l-107 -473h-132l138 473l-81 -1l23 89l82 1c58 214 127 226 222 234zM1020 795l81 7l-20 -82h-70c-64 0 -123 -122 -124 -161l157 2l-24 -89h-145l-107 -473h-132l138 473l-81 -1l23 89l82 1
c58 214 127 226 222 234z" />
    <glyph glyph-name="f_f_i" unicode="ffi" horiz-adv-x="1263" 
d="M531 795l81 7l-20 -82h-70c-64 0 -123 -122 -124 -161l157 2l-24 -89h-145l-107 -473h-132l138 473l-81 -1l23 89l82 1c58 214 127 226 222 234zM1020 795l81 7l-20 -82h-70c-64 0 -123 -122 -124 -161l157 2l-24 -89h-145l-107 -473h-132l138 473l-81 -1l23 89l82 1
c58 214 127 226 222 234zM1246 646l36 114h80l-25 -114h-91zM1049 0c64 182 95 285 155 506h90c-51 -165 -91 -324 -112 -506h-133z" />
    <glyph glyph-name="f_f_l" unicode="ffl" horiz-adv-x="1372" 
d="M531 795l81 7l-20 -82h-70c-64 0 -123 -122 -124 -161l157 2l-24 -89h-145l-107 -473h-132l138 473l-81 -1l23 89l82 1c58 214 127 226 222 234zM1020 795l81 7l-20 -82h-70c-64 0 -123 -122 -124 -161l157 2l-24 -89h-145l-107 -473h-132l138 473l-81 -1l23 89l82 1
c58 214 127 226 222 234zM1038 0c28 105 129 506 253 784h106c-91 -240 -240 -673 -213 -673h131l-24 -111h-253z" />
    <glyph glyph-name="fi" unicode="fi" horiz-adv-x="774" 
d="M531 795l81 7l-20 -82h-70c-64 0 -123 -122 -124 -161l157 2l-24 -89h-145l-107 -473h-132l138 473l-81 -1l23 89l82 1c58 214 127 226 222 234zM757 646l36 114h80l-25 -114h-91zM560 0c64 182 95 285 155 506h90c-51 -165 -91 -324 -112 -506h-133z" />
    <glyph glyph-name="fl" unicode="fl" horiz-adv-x="883" 
d="M531 795l81 7l-20 -82h-70c-64 0 -123 -122 -124 -161l157 2l-24 -89h-145l-107 -473h-132l138 473l-81 -1l23 89l82 1c58 214 127 226 222 234zM549 0c28 105 129 506 253 784h106c-91 -240 -240 -673 -213 -673h131l-24 -111h-253z" />
    <glyph glyph-name=".notdef" horiz-adv-x="615" 
d="M504 960v-1230h-390v1230h390zM410 878h-203v-41h80v-46h-82v-40h205v40h-82v46h82v41zM328 719h-123v-128h205v42h-82v86zM287 677v-44h-41v44h41zM410 558h-205v-41h82v-45h-82v-41h123v86h82v41zM410 484h-41v-81h-164v-42h205v123zM410 334h-123v-69h41v28h41v-57
h-123v98h-41v-139h205v139zM410 121h-205v-139h205v139zM369 81v-58h-123v58h123zM410 -46h-205v-41h87l-87 -58v-40h205v40h-126l86 58h40v41z" />
    <glyph glyph-name="space" unicode=" " horiz-adv-x="836" 
 />
    <glyph glyph-name="A" unicode="A" horiz-adv-x="836" 
d="M751 -1h-147v117l-304 20l-69 -137h-130l478 751l91 -1zM621 237v449l-261 -449h261z" />
    <glyph glyph-name="Aacute" unicode="&#xc1;" horiz-adv-x="836" 
d="M751 -1h-147v117l-304 20l-69 -137h-130l478 751l91 -1zM621 237v449l-261 -449h261zM390 -11h52l-93 -154h-77z" />
    <glyph glyph-name="Abreve" unicode="&#x102;" horiz-adv-x="836" 
d="M807 988h65c-33 -123 -148 -197 -256 -197s-174 74 -141 197h66c-24 -88 21 -102 101 -102c94 0 141 15 165 102zM751 -1h-147v117l-304 20l-69 -137h-130l478 751l91 -1zM621 237v449l-261 -449h261z" />
    <glyph glyph-name="uni1EAE" unicode="&#x1eae;" horiz-adv-x="836" 
d="M750 1201h52l-93 -154h-77zM807 988h65c-33 -123 -148 -197 -256 -197s-174 74 -141 197h66c-24 -88 21 -102 101 -102c94 0 141 15 165 102zM751 -1h-147v117l-304 20l-69 -137h-130l478 751l91 -1zM621 237v449l-261 -449h261z" />
    <glyph glyph-name="uni1EB6" unicode="&#x1eb6;" horiz-adv-x="836" 
d="M807 988h65c-33 -123 -148 -197 -256 -197s-174 74 -141 197h66c-24 -88 21 -102 101 -102c94 0 141 15 165 102zM751 -1h-147v117l-304 20l-69 -137h-130l478 751l91 -1zM621 237v449l-261 -449h261zM368 -35h102l-27 -101h-102z" />
    <glyph glyph-name="uni1EB0" unicode="&#x1eb0;" horiz-adv-x="836" 
d="M612 1019l-87 112h79l139 -127zM807 988h65c-33 -123 -148 -197 -256 -197s-174 74 -141 197h66c-24 -88 21 -102 101 -102c94 0 141 15 165 102zM751 -1h-147v117l-304 20l-69 -137h-130l478 751l91 -1zM621 237v449l-261 -449h261z" />
    <glyph glyph-name="uni1EB2" unicode="&#x1eb2;" horiz-adv-x="836" 
d="M646 1103l-6 -21c19 8 34 13 49 13c23 0 31 -8 29 -14s-8 -11 -16 -17l-13 -9c-10 -7 -17 -9 -21 -15c-3 -4 -5 -10 -7 -16l-1 -3h29c1 5 3 9 5 12c1 1 4 4 11 8l13 7c18 10 28 21 30 31s-1 20 -10 26c-8 6 -20 10 -37 10c-16 0 -35 -4 -55 -12zM807 988h65
c-33 -123 -148 -197 -256 -197s-174 74 -141 197h66c-24 -88 21 -102 101 -102c94 0 141 15 165 102zM751 -1h-147v117l-304 20l-69 -137h-130l478 751l91 -1zM621 237v449l-261 -449h261z" />
    <glyph glyph-name="uni1EB4" unicode="&#x1eb4;" horiz-adv-x="836" 
d="M488 1026c39 117 63 150 135 150c67 0 57 -100 102 -100c50 0 53 51 68 100h46c-41 -146 -73 -151 -127 -150c-72 1 -64 104 -101 105c-39 1 -56 -62 -68 -105h-55zM807 988h65c-33 -123 -148 -197 -256 -197s-174 74 -141 197h66c-24 -88 21 -102 101 -102
c94 0 141 15 165 102zM751 -1h-147v117l-304 20l-69 -137h-130l478 751l91 -1zM621 237v449l-261 -449h261z" />
    <glyph glyph-name="uni01CD" unicode="&#x1cd;" horiz-adv-x="836" 
d="M615 901l-28 64l-99 131h55l117 -99l173 99h55l-168 -131l-57 -64h-48zM751 -1h-147v117l-304 20l-69 -137h-130l478 751l91 -1zM621 237v449l-261 -449h261z" />
    <glyph glyph-name="Acircumflex" unicode="&#xc2;" horiz-adv-x="836" 
d="M661 1033h48l23 -64l98 -131h-55l-120 99l-170 -99h-55l169 131zM751 -1h-147v117l-304 20l-69 -137h-130l478 751l91 -1zM621 237v449l-261 -449h261z" />
    <glyph glyph-name="uni1EA4" unicode="&#x1ea4;" horiz-adv-x="836" 
d="M649 1054h48l23 -64l98 -131h-55l-120 99l-170 -99h-55l169 131zM1036 1053h52l-93 -154h-77zM751 -1h-147v117l-304 20l-69 -137h-130l478 751l91 -1zM621 237v449l-261 -449h261z" />
    <glyph glyph-name="uni1EAC" unicode="&#x1eac;" horiz-adv-x="836" 
d="M649 1054h48l23 -64l98 -131h-55l-120 99l-170 -99h-55l169 131zM751 -1h-147v117l-304 20l-69 -137h-130l478 751l91 -1zM621 237v449l-261 -449h261zM368 -35h102l-27 -101h-102z" />
    <glyph glyph-name="uni1EA6" unicode="&#x1ea6;" horiz-adv-x="836" 
d="M1000 946l-87 112h79l139 -127zM649 1054h48l23 -64l98 -131h-55l-120 99l-170 -99h-55l169 131zM751 -1h-147v117l-304 20l-69 -137h-130l478 751l91 -1zM621 237v449l-261 -449h261z" />
    <glyph glyph-name="uni1EA8" unicode="&#x1ea8;" horiz-adv-x="836" 
d="M649 1054h48l23 -64l98 -131h-55l-120 99l-170 -99h-55l169 131zM759 1042l-6 -21c19 8 34 13 49 13c23 0 31 -8 29 -14s-8 -11 -16 -17l-13 -9c-10 -7 -17 -9 -21 -15c-3 -4 -5 -10 -7 -16l-1 -3h29c1 5 3 9 5 12c1 1 4 4 11 8l13 7c18 10 28 21 30 31s-1 20 -10 26
c-8 6 -20 10 -37 10c-16 0 -35 -4 -55 -12zM751 -1h-147v117l-304 20l-69 -137h-130l478 751l91 -1zM621 237v449l-261 -449h261z" />
    <glyph glyph-name="uni1EAA" unicode="&#x1eaa;" horiz-adv-x="836" 
d="M587 1100c39 117 63 150 135 150c67 0 57 -100 102 -100c50 0 53 51 68 100h46c-41 -146 -73 -151 -127 -150c-72 1 -64 104 -101 105c-39 1 -56 -62 -68 -105h-55zM716 1065h48l23 -64l98 -131h-55l-120 99l-170 -99h-55l169 131zM751 -1h-147v117l-304 20l-69 -137
h-130l478 751l91 -1zM621 237v449l-261 -449h261z" />
    <glyph glyph-name="Adieresis" unicode="&#xc4;" horiz-adv-x="836" 
d="M503 987h102l-27 -101h-102zM778 987h102l-27 -101h-102zM751 -1h-147v117l-304 20l-69 -137h-130l478 751l91 -1zM621 237v449l-261 -449h261z" />
    <glyph glyph-name="uni01DE" unicode="&#x1de;" horiz-adv-x="836" 
d="M520 1069l396 24l9 -77l-455 -17zM484 917h102l-27 -101h-102zM759 917h102l-27 -101h-102zM751 -1h-147v117l-304 20l-69 -137h-130l478 751l91 -1zM621 237v449l-261 -449h261z" />
    <glyph glyph-name="uni1EA0" unicode="&#x1ea0;" horiz-adv-x="836" 
d="M751 -1h-147v117l-304 20l-69 -137h-130l478 751l91 -1zM621 237v449l-261 -449h261zM368 -35h102l-27 -101h-102z" />
    <glyph glyph-name="Agrave" unicode="&#xc0;" horiz-adv-x="836" 
d="M614 902l-87 112h79l139 -127zM751 -1h-147v117l-304 20l-69 -137h-130l478 751l91 -1zM621 237v449l-261 -449h261z" />
    <glyph glyph-name="uni1EA2" unicode="&#x1ea2;" horiz-adv-x="836" 
d="M625 960l-6 -21c19 8 34 13 49 13c23 0 31 -8 29 -14s-8 -11 -16 -17l-13 -9c-10 -7 -17 -9 -21 -15c-3 -4 -5 -10 -7 -16l-1 -3h29c1 5 3 9 5 12c1 1 4 4 11 8l13 7c18 10 28 21 30 31s-1 20 -10 26c-8 6 -20 10 -37 10c-16 0 -35 -4 -55 -12zM751 -1h-147v117l-304 20
l-69 -137h-130l478 751l91 -1zM621 237v449l-261 -449h261z" />
    <glyph glyph-name="uni2C6D" unicode="&#x2c6d;" horiz-adv-x="769" 
d="M670 602l43 71h96c-19 -73 -51 -68 -125 -344c-72 -269 -48 -254 -68 -329h-109l22 82c-56 -65 -137 -96 -218 -96c-128 0 -289 27 -233 228c13 47 37 104 77 173c93 160 250 271 351 287c13 2 24 3 35 3c53 0 88 -22 129 -75zM201 352c-11 -19 -19 -38 -24 -56
c-25 -91 37 -158 163 -158c182 0 184 34 230 161c13 36 25 69 32 97c46 186 -19 217 -79 217c-13 0 -24 -1 -35 -3c-64 -12 -209 -125 -287 -258z" />
    <glyph glyph-name="Amacron" unicode="&#x100;" horiz-adv-x="836" 
d="M494 977l396 24l9 -77l-455 -17zM751 -1h-147v117l-304 20l-69 -137h-130l478 751l91 -1zM621 237v449l-261 -449h261z" />
    <glyph glyph-name="Aogonek" unicode="&#x104;" horiz-adv-x="836" 
d="M562 -119c-5 -20 12 -31 54 -31c15 0 35 2 57 5c-3 -20 -6 -53 -8 -70c-117 -2 -177 30 -162 86c9 35 48 78 120 128h-19v117l-304 20l-69 -137h-130l478 751l91 -1l81 -750h-68c-74 -55 -114 -94 -121 -118zM621 237v449l-261 -449h261z" />
    <glyph glyph-name="Aring" unicode="&#xc5;" horiz-adv-x="836" 
d="M667 896c-50 0 -79 43 -65 96c14 52 66 95 116 95c51 0 80 -43 66 -95c-14 -53 -66 -96 -117 -96zM682 951c28 0 52 1 66 54c8 29 -9 53 -37 53c-29 0 -58 -24 -66 -53c-14 -53 9 -54 37 -54zM751 -1h-147v117l-304 20l-69 -137h-130l478 751l91 -1zM621 237v449
l-261 -449h261z" />
    <glyph glyph-name="Atilde" unicode="&#xc3;" horiz-adv-x="836" 
d="M457 895c39 117 63 150 135 150c67 0 57 -100 102 -100c50 0 53 51 68 100h46c-41 -146 -73 -151 -127 -150c-72 1 -64 104 -101 105c-39 1 -56 -62 -68 -105h-55zM751 -1h-147v117l-304 20l-69 -137h-130l478 751l91 -1zM621 237v449l-261 -449h261z" />
    <glyph glyph-name="AE" unicode="&#xc6;" horiz-adv-x="1181" 
d="M1199 664l-298 -19l-59 -206l251 11l-23 -83l-251 -16l-44 -180l-3 -20h335l-7 -151h-349v-1h-147l28 115l-299 19l-102 -134h-130l661 735l61 -1l5 17l412 14zM418 232h261l1 5l109 435z" />
    <glyph glyph-name="B" unicode="B" horiz-adv-x="694" 
d="M81 0l195 751h230c102 0 200 22 180 -148c-14 -118 -63 -167 -156 -180c124 -21 170 -91 138 -219c-45 -179 -157 -204 -323 -204h-264zM506 685h-148l-63 -227h148c97 0 157 28 174 150c11 78 -14 77 -111 77zM434 378h-160l-54 -233h159c107 0 173 14 190 114
c8 50 -5 64 -25 87c-19 22 -57 32 -110 32z" />
    <glyph glyph-name="uni1E04" unicode="&#x1e04;" horiz-adv-x="694" 
d="M81 0l195 751h230c102 0 200 22 180 -148c-14 -118 -63 -167 -156 -180c124 -21 170 -91 138 -219c-45 -179 -157 -204 -323 -204h-264zM506 685h-148l-63 -227h148c97 0 157 28 174 150c11 78 -14 77 -111 77zM434 378h-160l-54 -233h159c107 0 173 14 190 114
c8 50 -5 64 -25 87c-19 22 -57 32 -110 32zM280 -59h102l-27 -101h-102z" />
    <glyph glyph-name="uni0181" unicode="&#x181;" horiz-adv-x="694" 
d="M686 603c-14 -118 -63 -167 -156 -180c124 -21 170 -91 138 -219c-45 -179 -157 -204 -323 -204h-264l156 599c-63 -5 -104 -49 -126 -99c-16 -36 -34 -106 -44 -142l-39 99c7 28 13 48 18 67c23 85 105 191 224 204l6 23h230c102 0 200 22 180 -148zM617 608
c11 78 -14 77 -111 77h-148l-63 -227h148c97 0 157 28 174 150zM544 346c-19 22 -57 32 -110 32h-160l-54 -233h159c107 0 173 14 190 114c8 50 -5 64 -25 87z" />
    <glyph glyph-name="uni0243" unicode="&#x243;" horiz-adv-x="694" 
d="M686 603c-14 -118 -63 -167 -156 -180c124 -21 170 -91 138 -219c-45 -179 -157 -204 -323 -204h-264l50 193h-89l25 91h88l121 467h230c102 0 200 22 180 -148zM617 608c11 78 -14 77 -111 77h-148l-63 -227h148c97 0 157 28 174 150zM544 346c-19 22 -57 32 -110 32
h-160l-22 -94h209l-24 -91h-206l-11 -48h159c107 0 173 14 190 114c8 50 -5 64 -25 87z" />
    <glyph glyph-name="C" unicode="C" horiz-adv-x="724" 
d="M840 742l-35 -90c-59 19 -99 33 -179 16c-90 -19 -274 -88 -328 -300c-52 -204 59 -229 186 -229c57 0 127 5 181 20l-46 -172h-314c-63 0 -189 133 -126 381c59 234 238 384 461 391c32 1 127 1 200 -17z" />
    <glyph glyph-name="Cacute" unicode="&#x106;" horiz-adv-x="724" 
d="M664 942h52l-93 -154h-77zM840 742l-35 -90c-59 19 -99 33 -179 16c-90 -19 -274 -88 -328 -300c-52 -204 59 -229 186 -229c57 0 127 5 181 20l-46 -172h-314c-63 0 -189 133 -126 381c59 234 238 384 461 391c32 1 127 1 200 -17z" />
    <glyph glyph-name="Ccaron" unicode="&#x10c;" horiz-adv-x="724" 
d="M550 785l-28 64l-99 131h55l117 -99l173 99h55l-168 -131l-57 -64h-48zM840 742l-35 -90c-59 19 -99 33 -179 16c-90 -19 -274 -88 -328 -300c-52 -204 59 -229 186 -229c57 0 127 5 181 20l-46 -172h-314c-63 0 -189 133 -126 381c59 234 238 384 461 391
c32 1 127 1 200 -17z" />
    <glyph glyph-name="Ccedilla" unicode="&#xc7;" horiz-adv-x="724" 
d="M640 759c32 1 127 1 200 -17l-35 -90c-59 19 -99 33 -179 16c-90 -19 -274 -88 -328 -300c-52 -204 59 -229 186 -229c57 0 127 5 181 20l-46 -172h-216l-36 -57h31c40 0 97 -16 71 -76c-22 -49 -69 -78 -126 -78h-63l25 53c22 -5 30 -5 53 -5c36 0 70 19 75 35
c11 44 -26 46 -52 46c-17 0 -38 -2 -63 -5l53 87h-66c-63 0 -189 133 -126 381c59 234 238 384 461 391z" />
    <glyph glyph-name="Cdotaccent" unicode="&#x10a;" horiz-adv-x="724" 
d="M582 911h102l-27 -101h-102zM840 742l-35 -90c-59 19 -99 33 -179 16c-90 -19 -274 -88 -328 -300c-52 -204 59 -229 186 -229c57 0 127 5 181 20l-46 -172h-314c-63 0 -189 133 -126 381c59 234 238 384 461 391c32 1 127 1 200 -17z" />
    <glyph glyph-name="uni0187" unicode="&#x187;" horiz-adv-x="724" 
d="M835 831c17 43 29 46 91 45l-11 -33c-33 0 -35 -1 -42 -20c-1 -4 -2 -8 -4 -12h1l-52 -153h-11l-2 -6l-19 6h-9l1 3c-46 14 -85 21 -152 7c-90 -19 -274 -88 -328 -300c-52 -204 59 -229 186 -229c57 0 127 5 181 20l-46 -172h-314c-63 0 -189 133 -126 381
c59 234 238 384 461 391c27 1 101 1 167 -10l14 41v1l7 20z" />
    <glyph glyph-name="D" unicode="D" horiz-adv-x="781" 
d="M81 0l205 749h205c286 0 381 -114 317 -364c-94 -365 -237 -385 -522 -385h-205zM237 190h120c254 0 344 101 377 223c49 180 -38 266 -241 266h-121z" />
    <glyph glyph-name="uni01F1" unicode="&#x1f1;" horiz-adv-x="1594" 
d="M81 0l205 749h205c286 0 381 -114 317 -364c-94 -365 -237 -385 -522 -385h-205zM1142 604l407 -6l-650 -459l-37 -139l631 6l-10 140h-458l651 460l20 75h-579zM237 190h120c254 0 344 101 377 223c49 180 -38 266 -241 266h-121z" />
    <glyph glyph-name="uni01C4" unicode="&#x1c4;" horiz-adv-x="1594" 
d="M1341 785l-28 64l-99 131h55l117 -99l173 99h55l-168 -131l-57 -64h-48zM81 0l205 749h205c286 0 381 -114 317 -364c-94 -365 -237 -385 -522 -385h-205zM1142 604l407 -6l-650 -459l-37 -139l631 6l-10 140h-458l651 460l20 75h-579zM237 190h120
c254 0 344 101 377 223c49 180 -38 266 -241 266h-121z" />
    <glyph glyph-name="uni0189" unicode="&#x189;" horiz-adv-x="781" 
d="M491 749c286 0 381 -114 317 -364c-94 -365 -237 -385 -522 -385h-205l95 348h-111l25 91h111l85 310h205zM734 413c49 180 -38 266 -241 266h-121l-66 -240h178l-24 -91h-179l-44 -158h120c254 0 344 101 377 223z" />
    <glyph glyph-name="Eth" unicode="&#xd0;" horiz-adv-x="781" 
d="M491 749c286 0 381 -114 317 -364c-94 -365 -237 -385 -522 -385h-205l98 358h-96l25 91h96l82 300h205zM734 413c49 180 -38 266 -241 266h-121l-63 -230h193l-24 -91h-195l-46 -168h120c254 0 344 101 377 223z" />
    <glyph glyph-name="Dcaron" unicode="&#x10e;" horiz-adv-x="781" 
d="M522 785l-28 64l-99 131h55l117 -99l173 99h55l-168 -131l-57 -64h-48zM81 0l205 749h205c286 0 381 -114 317 -364c-94 -365 -237 -385 -522 -385h-205zM237 190h120c254 0 344 101 377 223c49 180 -38 266 -241 266h-121z" />
    <glyph glyph-name="uni1E12" unicode="&#x1e12;" horiz-adv-x="781" 
d="M81 0l205 749h205c286 0 381 -114 317 -364c-94 -365 -237 -385 -522 -385h-205zM237 190h120c254 0 344 101 377 223c49 180 -38 266 -241 266h-121zM412 -31h48l23 -64l98 -131h-55l-120 99l-170 -99h-55l169 131z" />
    <glyph glyph-name="Dcroat" unicode="&#x110;" horiz-adv-x="781" 
d="M491 749c286 0 381 -114 317 -364c-94 -365 -237 -385 -522 -385h-205l98 358h-96l25 91h96l82 300h205zM734 413c49 180 -38 266 -241 266h-121l-63 -230h193l-24 -91h-195l-46 -168h120c254 0 344 101 377 223z" />
    <glyph glyph-name="uni1E0A" unicode="&#x1e0a;" horiz-adv-x="781" 
d="M554 911h102l-27 -101h-102zM81 0l205 749h205c286 0 381 -114 317 -364c-94 -365 -237 -385 -522 -385h-205zM237 190h120c254 0 344 101 377 223c49 180 -38 266 -241 266h-121z" />
    <glyph glyph-name="uni1E0C" unicode="&#x1e0c;" horiz-adv-x="781" 
d="M81 0l205 749h205c286 0 381 -114 317 -364c-94 -365 -237 -385 -522 -385h-205zM237 190h120c254 0 344 101 377 223c49 180 -38 266 -241 266h-121zM324 -59h102l-27 -101h-102z" />
    <glyph glyph-name="uni018A" unicode="&#x18a;" horiz-adv-x="781" 
d="M491 749c286 0 381 -114 317 -364c-94 -365 -237 -385 -522 -385h-205l177 646c-5 -13 -10 -28 -17 -45c-70 0 -115 -46 -139 -100c-16 -36 -34 -106 -44 -142l-39 99c7 28 13 48 18 67c24 90 114 203 244 205l5 19h205zM734 413c49 180 -38 266 -241 266h-121l-135 -489
h120c254 0 344 101 377 223z" />
    <glyph glyph-name="uni1E0E" unicode="&#x1e0e;" horiz-adv-x="781" 
d="M81 0l205 749h205c286 0 381 -114 317 -364c-94 -365 -237 -385 -522 -385h-205zM237 190h120c254 0 344 101 377 223c49 180 -38 266 -241 266h-121zM225 -56l315 18l7 -57l-361 -13z" />
    <glyph glyph-name="uni01F2" unicode="&#x1f2;" horiz-adv-x="1459" 
d="M81 0l205 749h205c286 0 381 -114 317 -364c-94 -365 -237 -385 -522 -385h-205zM237 190h120c254 0 344 101 377 223c49 180 -38 266 -241 266h-121zM1081 482l18 67h413l-5 -67l-452 -361h288l25 -121h-506l59 131l476 351h-316z" />
    <glyph glyph-name="uni01C5" unicode="&#x1c5;" horiz-adv-x="1459" 
d="M1242 603l-28 64l-99 131h55l117 -99l173 99h55l-168 -131l-57 -64h-48zM81 0l205 749h205c286 0 381 -114 317 -364c-94 -365 -237 -385 -522 -385h-205zM237 190h120c254 0 344 101 377 223c49 180 -38 266 -241 266h-121zM1081 482l18 67h413l-5 -67l-452 -361h288
l25 -121h-506l59 131l476 351h-316z" />
    <glyph glyph-name="E" unicode="E" horiz-adv-x="649" 
d="M81 0l216 750l412 14l-41 -100l-298 -19l-59 -206l251 11l-23 -83l-251 -16l-49 -200h337l-7 -151h-488z" />
    <glyph glyph-name="Eacute" unicode="&#xc9;" horiz-adv-x="649" 
d="M580 1000h52l-93 -154h-77zM81 0l216 750l412 14l-41 -100l-298 -19l-59 -206l251 11l-23 -83l-251 -16l-49 -200h337l-7 -151h-488z" />
    <glyph glyph-name="Ebreve" unicode="&#x114;" horiz-adv-x="649" 
d="M697 992h65c-33 -123 -148 -197 -256 -197s-174 74 -141 197h66c-24 -88 21 -102 101 -102c94 0 141 15 165 102zM81 0l216 750l412 14l-41 -100l-298 -19l-59 -206l251 11l-23 -83l-251 -16l-49 -200h337l-7 -151h-488z" />
    <glyph glyph-name="Ecaron" unicode="&#x11a;" horiz-adv-x="649" 
d="M466 822l-28 64l-99 131h55l117 -99l173 99h55l-168 -131l-57 -64h-48zM81 0l216 750l412 14l-41 -100l-298 -19l-59 -206l251 11l-23 -83l-251 -16l-49 -200h337l-7 -151h-488z" />
    <glyph glyph-name="uni0228" unicode="&#x228;" horiz-adv-x="649" 
d="M668 664l-298 -19l-59 -206l251 11l-23 -83l-251 -16l-49 -200h337l-7 -151h-225l-51 -80h31c40 0 97 -16 71 -76c-22 -49 -69 -78 -126 -78h-63l25 53c22 -5 30 -5 53 -5c36 0 70 19 75 35c11 44 -26 46 -52 46c-17 0 -38 -2 -63 -5l67 110h-230l216 750l412 14z" />
    <glyph glyph-name="Ecircumflex" unicode="&#xca;" horiz-adv-x="649" 
d="M668 664l-298 -19l-59 -206l251 11l-23 -83l-251 -16l-49 -200h337l-7 -151h-488l216 750l326 11l-117 97l-170 -99h-55l169 131l62 64h48l23 -64l95 -127l31 1z" />
    <glyph glyph-name="uni1EBE" unicode="&#x1ebe;" horiz-adv-x="649" 
d="M500 975h48l23 -64l98 -131h-55l-120 99l-170 -99h-55l169 131zM887 974h52l-93 -154h-77zM81 0l216 750l412 14l-41 -100l-298 -19l-59 -206l251 11l-23 -83l-251 -16l-49 -200h337l-7 -151h-488z" />
    <glyph glyph-name="uni1EC6" unicode="&#x1ec6;" horiz-adv-x="649" 
d="M412 969h48l23 -64l98 -131h-55l-120 99l-170 -99h-55l169 131zM81 0l216 750l412 14l-41 -100l-298 -19l-59 -206l251 11l-23 -83l-251 -16l-49 -200h337l-7 -151h-488zM267 -59h102l-27 -101h-102z" />
    <glyph glyph-name="uni1EC0" unicode="&#x1ec0;" horiz-adv-x="649" 
d="M851 867l-87 112h79l139 -127zM500 975h48l23 -64l98 -131h-55l-120 99l-170 -99h-55l169 131zM81 0l216 750l412 14l-41 -100l-298 -19l-59 -206l251 11l-23 -83l-251 -16l-49 -200h337l-7 -151h-488z" />
    <glyph glyph-name="uni1EC2" unicode="&#x1ec2;" horiz-adv-x="649" 
d="M500 975h48l23 -64l98 -131h-55l-120 99l-170 -99h-55l169 131zM610 963l-6 -21c19 8 34 13 49 13c23 0 31 -8 29 -14s-8 -11 -16 -17l-13 -9c-10 -7 -17 -9 -21 -15c-3 -4 -5 -10 -7 -16l-1 -3h29c1 5 3 9 5 12c1 1 4 4 11 8l13 7c18 10 28 21 30 31s-1 20 -10 26
c-8 6 -20 10 -37 10c-16 0 -35 -4 -55 -12zM81 0l216 750l412 14l-41 -100l-298 -19l-59 -206l251 11l-23 -83l-251 -16l-49 -200h337l-7 -151h-488z" />
    <glyph glyph-name="uni1EC4" unicode="&#x1ec4;" horiz-adv-x="649" 
d="M438 1021c39 117 63 150 135 150c67 0 57 -100 102 -100c50 0 53 51 68 100h46c-41 -146 -73 -151 -127 -150c-72 1 -64 104 -101 105c-39 1 -56 -62 -68 -105h-55zM567 986h48l23 -64l98 -131h-55l-120 99l-170 -99h-55l169 131zM81 0l216 750l412 14l-41 -100l-298 -19
l-59 -206l251 11l-23 -83l-251 -16l-49 -200h337l-7 -151h-488z" />
    <glyph glyph-name="Edieresis" unicode="&#xcb;" horiz-adv-x="649" 
d="M354 908h102l-27 -101h-102zM629 908h102l-27 -101h-102zM81 0l216 750l412 14l-41 -100l-298 -19l-59 -206l251 11l-23 -83l-251 -16l-49 -200h337l-7 -151h-488z" />
    <glyph glyph-name="Edotaccent" unicode="&#x116;" horiz-adv-x="649" 
d="M498 948h102l-27 -101h-102zM81 0l216 750l412 14l-41 -100l-298 -19l-59 -206l251 11l-23 -83l-251 -16l-49 -200h337l-7 -151h-488z" />
    <glyph glyph-name="uni1EB8" unicode="&#x1eb8;" horiz-adv-x="649" 
d="M81 0l216 750l412 14l-41 -100l-298 -19l-59 -206l251 11l-23 -83l-251 -16l-49 -200h337l-7 -151h-488zM267 -59h102l-27 -101h-102z" />
    <glyph glyph-name="Egrave" unicode="&#xc8;" horiz-adv-x="649" 
d="M465 823l-87 112h79l139 -127zM81 0l216 750l412 14l-41 -100l-298 -19l-59 -206l251 11l-23 -83l-251 -16l-49 -200h337l-7 -151h-488z" />
    <glyph glyph-name="uni1EBA" unicode="&#x1eba;" horiz-adv-x="649" 
d="M476 881l-6 -21c19 8 34 13 49 13c23 0 31 -8 29 -14s-8 -11 -16 -17l-13 -9c-10 -7 -17 -9 -21 -15c-3 -4 -5 -10 -7 -16l-1 -3h29c1 5 3 9 5 12c1 1 4 4 11 8l13 7c18 10 28 21 30 31s-1 20 -10 26c-8 6 -20 10 -37 10c-16 0 -35 -4 -55 -12zM81 0l216 750l412 14
l-41 -100l-298 -19l-59 -206l251 11l-23 -83l-251 -16l-49 -200h337l-7 -151h-488z" />
    <glyph glyph-name="Emacron" unicode="&#x112;" horiz-adv-x="649" 
d="M316 832l411 24l-38 -77l-466 -17zM249 710l487 26l-77 -155l-337 -18l-63 -204l242 -3l-23 -84l-245 -2l-56 -209l287 -4l-15 -101l-404 -7z" />
    <glyph glyph-name="Eogonek" unicode="&#x118;" horiz-adv-x="649" 
d="M668 664l-298 -19l-59 -206l251 11l-23 -83l-251 -16l-49 -200h337l-7 -151h-198c-67 -51 -104 -87 -110 -110c-5 -20 12 -31 54 -31c15 0 35 2 57 5c-3 -20 -6 -53 -8 -70c-117 -2 -177 30 -162 86c9 33 44 74 109 120h-230l216 750l412 14z" />
    <glyph glyph-name="uni0190" unicode="&#x190;" horiz-adv-x="704" 
d="M357 -17c-132 0 -227 74 -187 225c24 89 74 149 190 165c-82 32 -109 77 -88 154c30 112 139 181 285 181c56 0 171 -34 138 -158l-68 -13c25 83 -26 109 -77 109c-98 0 -187 -36 -209 -112c-22 -89 37 -116 132 -116h33l-3 -75h-33c-105 1 -173 -46 -190 -109
c-17 -64 5 -121 102 -122c70 -2 143 0 145 146l117 10c17 -244 -226 -285 -287 -285z" />
    <glyph glyph-name="uni018E" unicode="&#x18e;" horiz-adv-x="649" 
d="M568 0h-488l74 151h337l58 200l-242 16l21 83l245 -11l52 206l-288 19l12 100l405 -14z" />
    <glyph glyph-name="uni01A9" unicode="&#x1a9;" horiz-adv-x="605" 
d="M693 629h-375l173 -246l1 -2l-19 -72l-1 2l-257 -208h337l-29 -109h-443l-1 -1v1l29 109l337 246l-195 278l1 2h-2l19 71h444z" />
    <glyph glyph-name="uni1EBC" unicode="&#x1ebc;" horiz-adv-x="649" 
d="M318 804c39 117 63 150 135 150c67 0 57 -100 102 -100c50 0 53 51 68 100h46c-41 -146 -73 -151 -127 -150c-72 1 -64 104 -101 105c-39 1 -56 -62 -68 -105h-55zM81 0l216 750l412 14l-41 -100l-298 -19l-59 -206l251 11l-23 -83l-251 -16l-49 -200h337l-7 -151h-488z
" />
    <glyph glyph-name="uni01B7" unicode="&#x1b7;" horiz-adv-x="693" 
d="M457 314c119 -9 198 -111 181 -207c-30 -164 -107 -307 -323 -307c-33 0 -160 -2 -255 123l156 104c106 -138 264 -50 301 99c14 79 -91 119 -236 106l25 93c142 105 207 143 330 248c-114 -1 -250 -1 -399 0l26 94c99 0 400 4 479 0c-6 -69 -8 -69 -19 -140
c-118 -100 -149 -121 -266 -213z" />
    <glyph glyph-name="uni01EE" unicode="&#x1ee;" horiz-adv-x="693" 
d="M488 749l-28 64l-99 131h55l117 -99l173 99h55l-168 -131l-57 -64h-48zM457 314c119 -9 198 -111 181 -207c-30 -164 -107 -307 -323 -307c-33 0 -160 -2 -255 123l156 104c106 -138 264 -50 301 99c14 79 -91 119 -236 106l25 93c142 105 207 143 330 248
c-114 -1 -250 -1 -399 0l26 94c99 0 400 4 479 0c-6 -69 -8 -69 -19 -140c-118 -100 -149 -121 -266 -213z" />
    <glyph glyph-name="F" unicode="F" horiz-adv-x="589" 
d="M81 0l231 750l391 12l-17 -66l-298 -17l-77 -196l276 18l-27 -102l-271 -18l-76 -381h-132z" />
    <glyph glyph-name="uni1E1E" unicode="&#x1e1e;" horiz-adv-x="589" 
d="M476 882h102l-27 -101h-102zM81 0l231 750l391 12l-17 -66l-298 -17l-77 -196l276 18l-27 -102l-271 -18l-76 -381h-132z" />
    <glyph glyph-name="uni0191" unicode="&#x191;" horiz-adv-x="589" 
d="M686 696l-298 -17l-77 -196l276 18l-27 -102l-271 -18l-70 -351c6 -20 12 -38 9 -49c-22 -80 -179 -161 -310 -161c15 53 24 77 44 129c59 0 101 33 127 77l223 724l391 12z" />
    <glyph glyph-name="G" unicode="G" horiz-adv-x="847" 
d="M445 -14c-241 0 -313 140 -267 378c62 321 237 372 468 372c96 0 174 -10 197 -14l-10 -98c-72 19 -149 21 -198 21c-180 0 -254 -11 -329 -271c-41 -180 10 -229 189 -229c71 0 134 12 165 37l23 89l-130 23l12 79l276 -32l-9 -96l-67 12l-45 -207
c-98 -43 -180 -64 -275 -64z" />
    <glyph glyph-name="uni01F4" unicode="&#x1f4;" horiz-adv-x="847" 
d="M722 979h52l-93 -154h-77zM445 -14c-241 0 -313 140 -267 378c62 321 237 372 468 372c96 0 174 -10 197 -14l-10 -98c-72 19 -149 21 -198 21c-180 0 -254 -11 -329 -271c-41 -180 10 -229 189 -229c71 0 134 12 165 37l23 89l-130 23l12 79l276 -32l-9 -96l-67 12
l-45 -207c-98 -43 -180 -64 -275 -64z" />
    <glyph glyph-name="Gbreve" unicode="&#x11e;" horiz-adv-x="847" 
d="M839 992h65c-33 -123 -148 -197 -256 -197s-174 74 -141 197h66c-24 -88 21 -102 101 -102c94 0 141 15 165 102zM445 -14c-241 0 -313 140 -267 378c62 321 237 372 468 372c96 0 174 -10 197 -14l-10 -98c-72 19 -149 21 -198 21c-180 0 -254 -11 -329 -271
c-41 -180 10 -229 189 -229c71 0 134 12 165 37l23 89l-130 23l12 79l276 -32l-9 -96l-67 12l-45 -207c-98 -43 -180 -64 -275 -64z" />
    <glyph glyph-name="Gcaron" unicode="&#x1e6;" horiz-adv-x="847" 
d="M608 822l-28 64l-99 131h55l117 -99l173 99h55l-168 -131l-57 -64h-48zM445 -14c-241 0 -313 140 -267 378c62 321 237 372 468 372c96 0 174 -10 197 -14l-10 -98c-72 19 -149 21 -198 21c-180 0 -254 -11 -329 -271c-41 -180 10 -229 189 -229c71 0 134 12 165 37
l23 89l-130 23l12 79l276 -32l-9 -96l-67 12l-45 -207c-98 -43 -180 -64 -275 -64z" />
    <glyph glyph-name="uni0122" unicode="&#x122;" horiz-adv-x="847" 
d="M685 811h-96l93 146h-4l25 87h111zM553 294l12 79l276 -32l-9 -96l-67 12l-45 -207c-98 -43 -180 -64 -275 -64c-241 0 -313 140 -267 378c62 321 237 372 468 372c96 0 174 -10 197 -14l-10 -98c-72 19 -149 21 -198 21c-180 0 -254 -11 -329 -271
c-41 -180 10 -229 189 -229c71 0 134 12 165 37l23 89z" />
    <glyph glyph-name="Gdotaccent" unicode="&#x120;" horiz-adv-x="847" 
d="M640 948h102l-27 -101h-102zM445 -14c-241 0 -313 140 -267 378c62 321 237 372 468 372c96 0 174 -10 197 -14l-10 -98c-72 19 -149 21 -198 21c-180 0 -254 -11 -329 -271c-41 -180 10 -229 189 -229c71 0 134 12 165 37l23 89l-130 23l12 79l276 -32l-9 -96l-67 12
l-45 -207c-98 -43 -180 -64 -275 -64z" />
    <glyph glyph-name="uni0193" unicode="&#x193;" horiz-adv-x="847" 
d="M861 911c28 61 49 65 152 64l-19 -47c-55 0 -58 -1 -69 -28c-2 -6 -4 -12 -7 -17h1l-80 -202l-6 -57c-72 19 -149 21 -198 21c-180 0 -254 -11 -329 -271c-41 -180 10 -229 189 -229c71 0 134 12 165 37l23 89l-130 23l12 79l276 -32l-9 -96l-67 12l-45 -207
c-98 -43 -180 -64 -275 -64c-241 0 -313 140 -267 378c62 321 237 372 468 372c56 0 106 -3 142 -7l50 125h-1c15 38 12 29 24 57z" />
    <glyph glyph-name="H" unicode="H" horiz-adv-x="893" 
d="M757 750h105l-164 -750h-161l55 187h-316l-42 -187h-153l215 750h105l-93 -418h326z" />
    <glyph glyph-name="Hbar" unicode="&#x126;" horiz-adv-x="936" 
d="M916 567l-28 -91h-86l-104 -476h-161l55 187h-316l-42 -187h-153l137 478h-97l27 91h96l52 181h105l-40 -182h342l54 182h105l-40 -183h94zM634 332l43 145h-337l-32 -145h326z" />
    <glyph glyph-name="uni1E24" unicode="&#x1e24;" horiz-adv-x="893" 
d="M757 750h105l-164 -750h-161l55 187h-316l-42 -187h-153l215 750h105l-93 -418h326zM296 -160l27 101h102l-27 -101h-102z" />
    <glyph glyph-name="uniA7AA" unicode="&#xa7aa;" horiz-adv-x="893" 
d="M757 750h105l-164 -750h-161l55 187h-316l-42 -187h-153l172 598c-54 -10 -90 -50 -111 -96c-16 -35 -34 -105 -44 -140l-39 98c7 27 13 47 18 66c22 82 99 182 212 200l7 24h105l-93 -418h326z" />
    <glyph glyph-name="uniA78D" unicode="&#xa78d;" horiz-adv-x="670" 
d="M196 430l85 300h81l-67 -271c-15 -57 -11 -97 10 -120c17 -18 48 -27 91 -27c48 0 90 14 126 42c37 29 63 70 78 123l80 253h84l-175 -730h-126l81 278c-50 -55 -120 -82 -210 -82c-64 0 -108 20 -132 60c-24 41 -26 99 -6 174z" />
    <glyph glyph-name="I" unicode="I" horiz-adv-x="303" 
d="M81 0c109 292 195 653 211 750h110c-73 -237 -141 -507 -180 -750h-141z" />
    <glyph glyph-name="Iacute" unicode="&#xcd;" horiz-adv-x="303" 
d="M430 1013h52l-93 -154h-77zM81 0c109 292 195 653 211 750h110c-73 -237 -141 -507 -180 -750h-141z" />
    <glyph glyph-name="uni01CF" unicode="&#x1cf;" horiz-adv-x="303" 
d="M316 835l-28 64l-99 131h55l117 -99l173 99h55l-168 -131l-57 -64h-48zM81 0c109 292 195 653 211 750h110c-73 -237 -141 -507 -180 -750h-141z" />
    <glyph glyph-name="Icircumflex" unicode="&#xce;" horiz-adv-x="303" 
d="M362 967h48l23 -64l98 -131h-55l-120 99l-170 -99h-55l169 131zM81 0c109 292 195 653 211 750h110c-73 -237 -141 -507 -180 -750h-141z" />
    <glyph glyph-name="Idieresis" unicode="&#xcf;" horiz-adv-x="303" 
d="M204 921h102l-27 -101h-102zM479 921h102l-27 -101h-102zM81 0c109 292 195 653 211 750h110c-73 -237 -141 -507 -180 -750h-141z" />
    <glyph glyph-name="uni1E2E" unicode="&#x1e2e;" horiz-adv-x="303" 
d="M456 1084h52l-93 -154h-77zM185 851h102l-27 -101h-102zM460 851h102l-27 -101h-102zM81 0c109 292 195 653 211 750h110c-73 -237 -141 -507 -180 -750h-141z" />
    <glyph glyph-name="Idotaccent" unicode="&#x130;" horiz-adv-x="303" 
d="M348 961h102l-27 -101h-102zM81 0c109 292 195 653 211 750h110c-73 -237 -141 -507 -180 -750h-141z" />
    <glyph glyph-name="uni1ECA" unicode="&#x1eca;" horiz-adv-x="303" 
d="M81 0c109 292 195 653 211 750h110c-73 -237 -141 -507 -180 -750h-141zM91 -55h102l-27 -101h-102z" />
    <glyph glyph-name="Igrave" unicode="&#xcc;" horiz-adv-x="303" 
d="M315 836l-87 112h79l139 -127zM81 0c109 292 195 653 211 750h110c-73 -237 -141 -507 -180 -750h-141z" />
    <glyph glyph-name="uni1EC8" unicode="&#x1ec8;" horiz-adv-x="303" 
d="M326 894l-6 -21c19 8 34 13 49 13c23 0 31 -8 29 -14s-8 -11 -16 -17l-13 -9c-10 -7 -17 -9 -21 -15c-3 -4 -5 -10 -7 -16l-1 -3h29c1 5 3 9 5 12c1 1 4 4 11 8l13 7c18 10 28 21 30 31s-1 20 -10 26c-8 6 -20 10 -37 10c-16 0 -35 -4 -55 -12zM81 0
c109 292 195 653 211 750h110c-73 -237 -141 -507 -180 -750h-141z" />
    <glyph glyph-name="Imacron" unicode="&#x12a;" horiz-adv-x="303" 
d="M195 911l396 24l9 -77l-455 -17zM81 0c109 292 195 653 211 750h110c-73 -237 -141 -507 -180 -750h-141z" />
    <glyph glyph-name="Iogonek" unicode="&#x12e;" horiz-adv-x="606" 
d="M327 0c-69 -52 -108 -89 -114 -113c-5 -20 12 -31 54 -31c15 0 35 2 57 5c-3 -20 -6 -53 -8 -70c-117 -2 -177 30 -162 86c9 34 45 75 113 123h-34c109 292 195 653 211 750h110c-73 -237 -141 -507 -180 -750h-47z" />
    <glyph glyph-name="uni0196" unicode="&#x196;" horiz-adv-x="362" 
d="M239 137c-7 -69 31 -64 65 -60c-15 -67 -11 -50 -19 -84h-135c-55 0 -53 51 -40 111l9 38c63 225 94 335 154 595h80c-51 -196 -91 -372 -112 -600h-2z" />
    <glyph glyph-name="uni0197" unicode="&#x197;" horiz-adv-x="402" 
d="M460 750c-35 -112 -68 -232 -98 -353h37l-14 -91h-45c-23 -104 -44 -207 -60 -306h-141c37 98 71 205 101 306h-96l15 91h106c45 161 76 299 85 353h110z" />
    <glyph glyph-name="Itilde" unicode="&#x128;" horiz-adv-x="303" 
d="M168 817c39 117 63 150 135 150c67 0 57 -100 102 -100c50 0 53 51 68 100h46c-41 -146 -73 -151 -127 -150c-72 1 -64 104 -101 105c-39 1 -56 -62 -68 -105h-55zM81 0c109 292 195 653 211 750h110c-73 -237 -141 -507 -180 -750h-141z" />
    <glyph glyph-name="J" unicode="J" horiz-adv-x="486" 
d="M286 57c-15 -53 -68 -131 -137 -87l-46 18l-75 -151l93 -20c179 -39 236 37 288 214l211 719h-140z" />
    <glyph glyph-name="K" unicode="K" horiz-adv-x="737" 
d="M81 0l257 750h93l-93 -351l290 351h139l-344 -403l234 -347l-236 -10l-111 309l-100 -299h-129z" />
    <glyph glyph-name="uni0136" unicode="&#x136;" horiz-adv-x="737" 
d="M608 774h-96l93 146h-4l25 87h111zM767 750l-344 -403l234 -347l-236 -10l-111 309l-100 -299h-129l257 750h93l-93 -351l290 351h139z" />
    <glyph glyph-name="uni0198" unicode="&#x198;" horiz-adv-x="737" 
d="M828 802c3 -13 7 -27 12 -47l-50 -162c-7 25 -19 76 -33 93c-8 11 -21 14 -38 8l-296 -347l234 -347l-236 -10l-111 309l-100 -299h-129l257 750h93l-93 -351l290 351h19c103 112 167 107 181 52z" />
    <glyph glyph-name="L" unicode="L" horiz-adv-x="635" 
d="M61 0l221 750h99l-147 -604l350 6l-30 -152h-493z" />
    <glyph glyph-name="uni01C7" unicode="&#x1c7;" horiz-adv-x="1121" 
d="M61 0l221 750h99l-147 -604l350 6l-30 -152h-493zM921 57c-15 -53 -68 -131 -137 -87l-46 18l-75 -151l93 -20c179 -39 236 37 288 214l211 719h-140z" />
    <glyph glyph-name="Lacute" unicode="&#x139;" horiz-adv-x="635" 
d="M416 942h52l-93 -154h-77zM61 0l221 750h99l-147 -604l350 6l-30 -152h-493z" />
    <glyph glyph-name="Lcaron" unicode="&#x13d;" horiz-adv-x="635" 
d="M61 0l221 750h99l-147 -604l350 6l-30 -152h-493zM606 526h-96l85 213h80z" />
    <glyph glyph-name="uni1E3C" unicode="&#x1e3c;" horiz-adv-x="635" 
d="M61 0l221 750h99l-147 -604l350 6l-30 -152h-493zM343 -26h48l23 -64l98 -131h-55l-120 99l-170 -99h-55l169 131z" />
    <glyph glyph-name="uni013B" unicode="&#x13b;" horiz-adv-x="635" 
d="M379 774h-96l93 146h-4l25 87h111zM234 146l350 6l-30 -152h-493l221 750h99z" />
    <glyph glyph-name="Ldot" unicode="&#x13f;" horiz-adv-x="635" 
d="M61 0l221 750h99l-147 -604l350 6l-30 -152h-493zM563 698h102l-27 -101h-102z" />
    <glyph glyph-name="uni1E36" unicode="&#x1e36;" horiz-adv-x="635" 
d="M61 0l221 750h99l-147 -604l350 6l-30 -152h-493zM255 -54h102l-27 -101h-102z" />
    <glyph glyph-name="uni01C8" unicode="&#x1c8;" horiz-adv-x="635" 
d="M61 0l221 750h99l-147 -604l350 6l-30 -152h-493zM896 708h102l-27 -101h-102zM646 -114c34 64 94 209 213 611h95l-179 -551c-34 -106 -92 -174 -111 -186c-40 -25 -165 -45 -208 -13l42 115c85 -29 126 3 148 24z" />
    <glyph glyph-name="uni2C62" unicode="&#x2c62;" horiz-adv-x="635" 
d="M291 381l-57 -235l350 6l-30 -152h-493l221 750h99l-79 -323h16c86 0 73 -100 131 -100c65 0 69 51 88 100h59c-53 -146 -94 -151 -163 -150c-93 1 -83 104 -130 105c-4 0 -8 0 -12 -1z" />
    <glyph glyph-name="Lslash" unicode="&#x141;" horiz-adv-x="629" 
d="M234 146l350 6l-30 -152h-493l70 237l-53 -22l-113 39l192 71l125 425h99l-91 -375l199 74l63 -34l-281 -119z" />
    <glyph glyph-name="M" unicode="M" horiz-adv-x="883" 
d="M81 0l221 729h149l73 -440l304 440h138l-164 -729h-163l241 621l-354 -558h-110l-47 558l-144 -621h-144z" />
    <glyph glyph-name="uni1E3E" unicode="&#x1e3e;" horiz-adv-x="883" 
d="M705 913h52l-93 -154h-77zM81 0l221 729h149l73 -440l304 440h138l-164 -729h-163l241 621l-354 -558h-110l-47 558l-144 -621h-144z" />
    <glyph glyph-name="uni1E40" unicode="&#x1e40;" horiz-adv-x="883" 
d="M623 882h102l-27 -101h-102zM81 0l221 729h149l73 -440l304 440h138l-164 -729h-163l241 621l-354 -558h-110l-47 558l-144 -621h-144z" />
    <glyph glyph-name="N" unicode="N" horiz-adv-x="765" 
d="M81 0l246 700h124l129 -561l207 588h92l-236 -727h-162l-93 616l-145 -616h-162z" />
    <glyph glyph-name="uni01CA" unicode="&#x1ca;" horiz-adv-x="1251" 
d="M857 57c-15 -53 -68 -131 -137 -87l-46 18l-75 -151l93 -20c179 -39 236 37 288 214l211 719h-140zM81 0l246 700h124l129 -561l207 588h92l-236 -727h-162l-93 616l-145 -616h-162z" />
    <glyph glyph-name="Nacute" unicode="&#x143;" horiz-adv-x="765" 
d="M660 942h52l-93 -154h-77zM81 0l246 700h124l129 -561l207 588h92l-236 -727h-162l-93 616l-145 -616h-162z" />
    <glyph glyph-name="Ncaron" unicode="&#x147;" horiz-adv-x="765" 
d="M546 785l-28 64l-99 131h55l117 -99l173 99h55l-168 -131l-57 -64h-48zM81 0l246 700h124l129 -561l207 588h92l-236 -727h-162l-93 616l-145 -616h-162z" />
    <glyph glyph-name="uni1E4A" unicode="&#x1e4a;" horiz-adv-x="765" 
d="M81 0l246 700h124l129 -561l207 588h92l-236 -727h-162l-93 616l-145 -616h-162zM422 -31h48l23 -64l98 -131h-55l-120 99l-170 -99h-55l169 131z" />
    <glyph glyph-name="uni0145" unicode="&#x145;" horiz-adv-x="765" 
d="M787 727h92l-236 -727h-162l-93 616l-145 -616h-162l246 700h124l129 -561zM461 -49l-129 -233h-96l93 146h-4l25 87h111z" />
    <glyph glyph-name="uni1E44" unicode="&#x1e44;" horiz-adv-x="765" 
d="M578 911h102l-27 -101h-102zM81 0l246 700h124l129 -561l207 588h92l-236 -727h-162l-93 616l-145 -616h-162z" />
    <glyph glyph-name="uni1E46" unicode="&#x1e46;" horiz-adv-x="765" 
d="M81 0l246 700h124l129 -561l207 588h92l-236 -727h-162l-93 616l-145 -616h-162zM334 -59h102l-27 -101h-102z" />
    <glyph glyph-name="uni01F8" unicode="&#x1f8;" horiz-adv-x="765" 
d="M522 760l-87 112h79l139 -127zM81 0l246 700h124l129 -561l207 588h92l-236 -727h-162l-93 616l-145 -616h-162z" />
    <glyph glyph-name="Eng" unicode="&#x14a;" horiz-adv-x="765" 
d="M879 727l-236 -727c-27 -88 -56 -124 -80 -139c-37 -24 -241 -36 -284 -22c6 9 38 62 46 73h55c71 0 79 19 101 90l-93 614l-145 -616h-162l246 700h124l129 -561l207 588h92z" />
    <glyph glyph-name="uni019D" unicode="&#x19d;" horiz-adv-x="765" 
d="M787 727h92l-236 -727h-162l-93 616l-133 -566c3 -13 5 -25 4 -32c-15 -85 -152 -146 -271 -122c11 57 17 82 32 136c33 -7 59 2 79 20l66 188c2 11 4 20 5 28l3 -6l154 438h124l129 -561z" />
    <glyph glyph-name="uni01CB" unicode="&#x1cb;" horiz-adv-x="867" 
d="M1050 729h102l-27 -101h-102zM81 0l246 700h124l129 -561l207 588h92l-236 -727h-162l-93 616l-145 -616h-162zM800 -93c34 64 94 209 213 611h95l-179 -551c-34 -106 -92 -174 -111 -186c-40 -25 -165 -45 -208 -13l42 115c85 -29 126 3 148 24z" />
    <glyph glyph-name="Ntilde" unicode="&#xd1;" horiz-adv-x="765" 
d="M388 779c39 117 63 150 135 150c67 0 57 -100 102 -100c50 0 53 51 68 100h46c-41 -146 -73 -151 -127 -150c-72 1 -64 104 -101 105c-39 1 -56 -62 -68 -105h-55zM81 0l246 700h124l129 -561l207 588h92l-236 -727h-162l-93 616l-145 -616h-162z" />
    <glyph glyph-name="O" unicode="O" horiz-adv-x="843" 
d="M418 -14c-234 2 -323 68 -240 378c62 230 236 378 443 378s306 -148 239 -378c-90 -310 -186 -380 -442 -378zM469 173c144 0 246 40 286 191c49 184 -8 308 -153 308c-144 0 -269 -124 -319 -308c-40 -151 41 -191 186 -191z" />
    <glyph glyph-name="Oacute" unicode="&#xd3;" horiz-adv-x="843" 
d="M229 832h52l-93 -154h-77zM418 -14c-234 2 -323 68 -240 378c62 230 236 378 443 378s306 -148 239 -378c-90 -310 -186 -380 -442 -378zM469 173c144 0 246 40 286 191c49 184 -8 308 -153 308c-144 0 -269 -124 -319 -308c-40 -151 41 -191 186 -191z" />
    <glyph glyph-name="Obreve" unicode="&#x14e;" horiz-adv-x="843" 
d="M825 1033h65c-33 -123 -148 -197 -256 -197s-174 74 -141 197h66c-24 -88 21 -102 101 -102c94 0 141 15 165 102zM418 -14c-234 2 -323 68 -240 378c62 230 236 378 443 378s306 -148 239 -378c-90 -310 -186 -380 -442 -378zM469 173c144 0 246 40 286 191
c49 184 -8 308 -153 308c-144 0 -269 -124 -319 -308c-40 -151 41 -191 186 -191z" />
    <glyph glyph-name="uni01D1" unicode="&#x1d1;" horiz-adv-x="843" 
d="M599 871l-28 64l-99 131h55l117 -99l173 99h55l-168 -131l-57 -64h-48zM418 -14c-234 2 -323 68 -240 378c62 230 236 378 443 378s306 -148 239 -378c-90 -310 -186 -380 -442 -378zM469 173c144 0 246 40 286 191c49 184 -8 308 -153 308c-144 0 -269 -124 -319 -308
c-40 -151 41 -191 186 -191z" />
    <glyph glyph-name="Ocircumflex" unicode="&#xd4;" horiz-adv-x="843" 
d="M645 1003h48l23 -64l98 -131h-55l-120 99l-170 -99h-55l169 131zM418 -14c-234 2 -323 68 -240 378c62 230 236 378 443 378s306 -148 239 -378c-90 -310 -186 -380 -442 -378zM469 173c144 0 246 40 286 191c49 184 -8 308 -153 308c-144 0 -269 -124 -319 -308
c-40 -151 41 -191 186 -191z" />
    <glyph glyph-name="uni1ED0" unicode="&#x1ed0;" horiz-adv-x="843" 
d="M633 1024h48l23 -64l98 -131h-55l-120 99l-170 -99h-55l169 131zM1020 1023h52l-93 -154h-77zM418 -14c-234 2 -323 68 -240 378c62 230 236 378 443 378s306 -148 239 -378c-90 -310 -186 -380 -442 -378zM469 173c144 0 246 40 286 191c49 184 -8 308 -153 308
c-144 0 -269 -124 -319 -308c-40 -151 41 -191 186 -191z" />
    <glyph glyph-name="uni1ED8" unicode="&#x1ed8;" horiz-adv-x="843" 
d="M528 1046h48l23 -64l98 -131h-55l-120 99l-170 -99h-55l169 131zM418 -14c-234 2 -323 68 -240 378c62 230 236 378 443 378s306 -148 239 -378c-90 -310 -186 -380 -442 -378zM469 173c144 0 246 40 286 191c49 184 -8 308 -153 308c-144 0 -269 -124 -319 -308
c-40 -151 41 -191 186 -191zM341 -113h102l-27 -101h-102z" />
    <glyph glyph-name="uni1ED2" unicode="&#x1ed2;" horiz-adv-x="843" 
d="M984 916l-87 112h79l139 -127zM633 1024h48l23 -64l98 -131h-55l-120 99l-170 -99h-55l169 131zM418 -14c-234 2 -323 68 -240 378c62 230 236 378 443 378s306 -148 239 -378c-90 -310 -186 -380 -442 -378zM469 173c144 0 246 40 286 191c49 184 -8 308 -153 308
c-144 0 -269 -124 -319 -308c-40 -151 41 -191 186 -191z" />
    <glyph glyph-name="uni1ED4" unicode="&#x1ed4;" horiz-adv-x="843" 
d="M633 1024h48l23 -64l98 -131h-55l-120 99l-170 -99h-55l169 131zM743 1012l-6 -21c19 8 34 13 49 13c23 0 31 -8 29 -14s-8 -11 -16 -17l-13 -9c-10 -7 -17 -9 -21 -15c-3 -4 -5 -10 -7 -16l-1 -3h29c1 5 3 9 5 12c1 1 4 4 11 8l13 7c18 10 28 21 30 31s-1 20 -10 26
c-8 6 -20 10 -37 10c-16 0 -35 -4 -55 -12zM418 -14c-234 2 -323 68 -240 378c62 230 236 378 443 378s306 -148 239 -378c-90 -310 -186 -380 -442 -378zM469 173c144 0 246 40 286 191c49 184 -8 308 -153 308c-144 0 -269 -124 -319 -308c-40 -151 41 -191 186 -191z" />
    <glyph glyph-name="uni1ED6" unicode="&#x1ed6;" horiz-adv-x="843" 
d="M571 1070c39 117 63 150 135 150c67 0 57 -100 102 -100c50 0 53 51 68 100h46c-41 -146 -73 -151 -127 -150c-72 1 -64 104 -101 105c-39 1 -56 -62 -68 -105h-55zM700 1035h48l23 -64l98 -131h-55l-120 99l-170 -99h-55l169 131zM418 -14c-234 2 -323 68 -240 378
c62 230 236 378 443 378s306 -148 239 -378c-90 -310 -186 -380 -442 -378zM469 173c144 0 246 40 286 191c49 184 -8 308 -153 308c-144 0 -269 -124 -319 -308c-40 -151 41 -191 186 -191z" />
    <glyph glyph-name="Odieresis" unicode="&#xd6;" horiz-adv-x="843" 
d="M487 957h102l-27 -101h-102zM762 957h102l-27 -101h-102zM418 -14c-234 2 -323 68 -240 378c62 230 236 378 443 378s306 -148 239 -378c-90 -310 -186 -380 -442 -378zM469 173c144 0 246 40 286 191c49 184 -8 308 -153 308c-144 0 -269 -124 -319 -308
c-40 -151 41 -191 186 -191z" />
    <glyph glyph-name="uni022A" unicode="&#x22a;" horiz-adv-x="843" 
d="M504 1039l396 24l9 -77l-455 -17zM468 887h102l-27 -101h-102zM743 887h102l-27 -101h-102zM418 -14c-234 2 -323 68 -240 378c62 230 236 378 443 378s306 -148 239 -378c-90 -310 -186 -380 -442 -378zM469 173c144 0 246 40 286 191c49 184 -8 308 -153 308
c-144 0 -269 -124 -319 -308c-40 -151 41 -191 186 -191z" />
    <glyph glyph-name="uni1ECC" unicode="&#x1ecc;" horiz-adv-x="843" 
d="M418 -14c-234 2 -323 68 -240 378c62 230 236 378 443 378s306 -148 239 -378c-90 -310 -186 -380 -442 -378zM469 173c144 0 246 40 286 191c49 184 -8 308 -153 308c-144 0 -269 -124 -319 -308c-40 -151 41 -191 186 -191zM341 -113h102l-27 -101h-102z" />
    <glyph glyph-name="Ograve" unicode="&#xd2;" horiz-adv-x="843" 
d="M598 872l-87 112h79l139 -127zM418 -14c-234 2 -323 68 -240 378c62 230 236 378 443 378s306 -148 239 -378c-90 -310 -186 -380 -442 -378zM469 173c144 0 246 40 286 191c49 184 -8 308 -153 308c-144 0 -269 -124 -319 -308c-40 -151 41 -191 186 -191z" />
    <glyph glyph-name="uni1ECE" unicode="&#x1ece;" horiz-adv-x="843" 
d="M609 930l-6 -21c19 8 34 13 49 13c23 0 31 -8 29 -14s-8 -11 -16 -17l-13 -9c-10 -7 -17 -9 -21 -15c-3 -4 -5 -10 -7 -16l-1 -3h29c1 5 3 9 5 12c1 1 4 4 11 8l13 7c18 10 28 21 30 31s-1 20 -10 26c-8 6 -20 10 -37 10c-16 0 -35 -4 -55 -12zM418 -14
c-234 2 -323 68 -240 378c62 230 236 378 443 378s306 -148 239 -378c-90 -310 -186 -380 -442 -378zM469 173c144 0 246 40 286 191c49 184 -8 308 -153 308c-144 0 -269 -124 -319 -308c-40 -151 41 -191 186 -191z" />
    <glyph glyph-name="Ohorn" unicode="&#x1a0;" horiz-adv-x="843" 
d="M917 748c-10 -39 -34 -86 -71 -113c40 -66 47 -159 14 -271c-90 -310 -186 -380 -442 -378c-234 2 -323 68 -240 378c62 230 236 378 443 378c88 0 156 -26 200 -74c3 1 6 3 9 5c28 20 38 66 43 83c3 11 2 20 1 30l47 -6c-1 -12 -1 -23 -4 -32zM755 364
c49 184 -8 308 -153 308c-144 0 -269 -124 -319 -308c-40 -151 41 -191 186 -191c144 0 246 40 286 191z" />
    <glyph glyph-name="uni1EDA" unicode="&#x1eda;" horiz-adv-x="843" 
d="M765 1028l-93 -154h-77l118 154h52zM917 748c-10 -39 -34 -86 -71 -113c40 -66 47 -159 14 -271c-90 -310 -186 -380 -442 -378c-234 2 -323 68 -240 378c62 230 236 378 443 378c88 0 156 -26 200 -74c3 1 6 3 9 5c28 20 38 66 43 83c3 11 2 20 1 30l47 -6
c-1 -12 -1 -23 -4 -32zM755 364c49 184 -8 308 -153 308c-144 0 -269 -124 -319 -308c-40 -151 41 -191 186 -191c144 0 246 40 286 191z" />
    <glyph glyph-name="uni1EE2" unicode="&#x1ee2;" horiz-adv-x="843" 
d="M917 748c-10 -39 -34 -86 -71 -113c40 -66 47 -159 14 -271c-90 -310 -186 -380 -442 -378c-234 2 -323 68 -240 378c62 230 236 378 443 378c88 0 156 -26 200 -74c3 1 6 3 9 5c28 20 38 66 43 83c3 11 2 20 1 30l47 -6c-1 -12 -1 -23 -4 -32zM755 364
c49 184 -8 308 -153 308c-144 0 -269 -124 -319 -308c-40 -151 41 -191 186 -191c144 0 246 40 286 191zM314 -214l27 101h102l-27 -101h-102z" />
    <glyph glyph-name="uni1EDC" unicode="&#x1edc;" horiz-adv-x="843" 
d="M706 831l-131 15l-87 112h79zM917 748c-10 -39 -34 -86 -71 -113c40 -66 47 -159 14 -271c-90 -310 -186 -380 -442 -378c-234 2 -323 68 -240 378c62 230 236 378 443 378c88 0 156 -26 200 -74c3 1 6 3 9 5c28 20 38 66 43 83c3 11 2 20 1 30l47 -6
c-1 -12 -1 -23 -4 -32zM755 364c49 184 -8 308 -153 308c-144 0 -269 -124 -319 -308c-40 -151 41 -191 186 -191c144 0 246 40 286 191z" />
    <glyph glyph-name="uni1EDE" unicode="&#x1ede;" horiz-adv-x="843" 
d="M681 908c2 6 -6 14 -29 14c-15 0 -30 -5 -49 -13l6 21c20 8 39 12 55 12c17 0 29 -4 37 -10c9 -6 12 -16 10 -26s-12 -21 -30 -31l-13 -7c-7 -4 -10 -7 -11 -8c-2 -3 -4 -7 -5 -12h-29l1 3c2 6 4 12 7 16c4 6 11 8 21 15l13 9c8 6 14 11 16 17zM917 748
c-10 -39 -34 -86 -71 -113c40 -66 47 -159 14 -271c-90 -310 -186 -380 -442 -378c-234 2 -323 68 -240 378c62 230 236 378 443 378c88 0 156 -26 200 -74c3 1 6 3 9 5c28 20 38 66 43 83c3 11 2 20 1 30l47 -6c-1 -12 -1 -23 -4 -32zM755 364c49 184 -8 308 -153 308
c-144 0 -269 -124 -319 -308c-40 -151 41 -191 186 -191c144 0 246 40 286 191z" />
    <glyph glyph-name="uni1EE0" unicode="&#x1ee0;" horiz-adv-x="843" 
d="M574 958c-39 1 -56 -62 -68 -105h-55c39 117 63 150 135 150c67 0 57 -100 102 -100c50 0 53 51 68 100h46c-41 -146 -73 -151 -127 -150c-72 1 -64 104 -101 105zM917 748c-10 -39 -34 -86 -71 -113c40 -66 47 -159 14 -271c-90 -310 -186 -380 -442 -378
c-234 2 -323 68 -240 378c62 230 236 378 443 378c88 0 156 -26 200 -74c3 1 6 3 9 5c28 20 38 66 43 83c3 11 2 20 1 30l47 -6c-1 -12 -1 -23 -4 -32zM755 364c49 184 -8 308 -153 308c-144 0 -269 -124 -319 -308c-40 -151 41 -191 186 -191c144 0 246 40 286 191z" />
    <glyph glyph-name="Ohungarumlaut" unicode="&#x150;" horiz-adv-x="843" 
d="M617 847l-131 -15l139 127h79zM802 847l-131 -15l139 127h79zM418 -14c-234 2 -323 68 -240 378c62 230 236 378 443 378s306 -148 239 -378c-90 -310 -186 -380 -442 -378zM469 173c144 0 246 40 286 191c49 184 -8 308 -153 308c-144 0 -269 -124 -319 -308
c-40 -151 41 -191 186 -191z" />
    <glyph glyph-name="Omacron" unicode="&#x14c;" horiz-adv-x="843" 
d="M478 947l396 24l9 -77l-455 -17zM418 -14c-234 2 -323 68 -240 378c62 230 236 378 443 378s306 -148 239 -378c-90 -310 -186 -380 -442 -378zM469 173c144 0 246 40 286 191c49 184 -8 308 -153 308c-144 0 -269 -124 -319 -308c-40 -151 41 -191 186 -191z" />
    <glyph glyph-name="uni1E52" unicode="&#x1e52;" horiz-adv-x="843" 
d="M766 1223h52l-93 -154h-77zM478 947l396 24l9 -77l-455 -17zM418 -14c-234 2 -323 68 -240 378c62 230 236 378 443 378s306 -148 239 -378c-90 -310 -186 -380 -442 -378zM469 173c144 0 246 40 286 191c49 184 -8 308 -153 308c-144 0 -269 -124 -319 -308
c-40 -151 41 -191 186 -191z" />
    <glyph glyph-name="uni1E50" unicode="&#x1e50;" horiz-adv-x="843" 
d="M628 1041l-87 112h79l139 -127zM478 947l396 24l9 -77l-455 -17zM418 -14c-234 2 -323 68 -240 378c62 230 236 378 443 378s306 -148 239 -378c-90 -310 -186 -380 -442 -378zM469 173c144 0 246 40 286 191c49 184 -8 308 -153 308c-144 0 -269 -124 -319 -308
c-40 -151 41 -191 186 -191z" />
    <glyph glyph-name="uni0186" unicode="&#x186;" horiz-adv-x="724" 
d="M288 742c82 18 177 18 209 17c219 -7 318 -157 251 -391c-70 -248 -267 -381 -330 -381h-314l46 172c46 -15 113 -20 170 -20c127 0 252 25 309 229c60 212 -87 281 -167 300c-71 17 -118 3 -188 -16z" />
    <glyph glyph-name="Oslash" unicode="&#xd8;" horiz-adv-x="825" 
d="M1069 776l-199 -198c17 -58 14 -131 -10 -214c-90 -310 -186 -380 -442 -378c-51 0 -95 4 -132 12l-14 -14l-256 -68l160 148c-38 57 -38 150 2 300c62 230 236 378 443 378c88 0 157 -27 202 -76l95 89zM283 364c-23 -86 -6 -136 39 -163l425 395c-28 48 -76 76 -145 76
c-144 0 -269 -124 -319 -308zM755 364c11 42 17 82 17 117l-310 -308h7c144 0 246 40 286 191z" />
    <glyph glyph-name="Oslashacute" unicode="&#x1fe;" horiz-adv-x="825" 
d="M765 1028l-93 -154h-77l118 154h52zM1069 776l-199 -198c17 -58 14 -131 -10 -214c-90 -310 -186 -380 -442 -378c-51 0 -95 4 -132 12l-14 -14l-256 -68l160 148c-38 57 -38 150 2 300c62 230 236 378 443 378c88 0 157 -27 202 -76l95 89zM283 364
c-23 -86 -6 -136 39 -163l425 395c-28 48 -76 76 -145 76c-144 0 -269 -124 -319 -308zM755 364c11 42 17 82 17 117l-310 -308h7c144 0 246 40 286 191z" />
    <glyph glyph-name="Otilde" unicode="&#xd5;" horiz-adv-x="843" 
d="M441 865c39 117 63 150 135 150c67 0 57 -100 102 -100c50 0 53 51 68 100h46c-41 -146 -73 -151 -127 -150c-72 1 -64 104 -101 105c-39 1 -56 -62 -68 -105h-55zM418 -14c-234 2 -323 68 -240 378c62 230 236 378 443 378s306 -148 239 -378
c-90 -310 -186 -380 -442 -378zM469 173c144 0 246 40 286 191c49 184 -8 308 -153 308c-144 0 -269 -124 -319 -308c-40 -151 41 -191 186 -191z" />
    <glyph glyph-name="uni1E4C" unicode="&#x1e4c;" horiz-adv-x="843" 
d="M729 1227h52l-93 -154h-77zM451 853c39 117 63 150 135 150c67 0 57 -100 102 -100c50 0 53 51 68 100h46c-41 -146 -73 -151 -127 -150c-72 1 -64 104 -101 105c-39 1 -56 -62 -68 -105h-55zM418 -14c-234 2 -323 68 -240 378c62 230 236 378 443 378s306 -148 239 -378
c-90 -310 -186 -380 -442 -378zM469 173c144 0 246 40 286 191c49 184 -8 308 -153 308c-144 0 -269 -124 -319 -308c-40 -151 41 -191 186 -191z" />
    <glyph glyph-name="OE" unicode="&#x152;" horiz-adv-x="1215" 
d="M933 634l-57 -200c-1 -2 -1 -4 -1 -6l250 11l-23 -83l-249 -16l-9 -28l-42 -172h337l-7 -151h-488l11 38c-61 -31 -136 -42 -237 -41c-234 2 -323 68 -240 378c62 230 236 378 443 378c97 0 170 -32 214 -91l25 88l412 14l-41 -100zM469 173c126 0 220 31 268 140l28 97
c28 159 -31 262 -163 262c-144 0 -269 -124 -319 -308c-40 -151 41 -191 186 -191z" />
    <glyph glyph-name="P" unicode="P" horiz-adv-x="652" 
d="M81 0l233 716h188c186 0 231 -115 205 -211c-39 -144 -134 -217 -302 -225l-122 -6l-53 -274h-149zM489 651h-110l-63 -238l137 6c100 4 150 22 179 130c9 35 -12 102 -143 102z" />
    <glyph glyph-name="uni1E56" unicode="&#x1e56;" horiz-adv-x="652" 
d="M508 882h102l-27 -101h-102zM81 0l233 716h188c186 0 231 -115 205 -211c-39 -144 -134 -217 -302 -225l-122 -6l-53 -274h-149zM489 651h-110l-63 -238l137 6c100 4 150 22 179 130c9 35 -12 102 -143 102z" />
    <glyph glyph-name="uni01A4" unicode="&#x1a4;" horiz-adv-x="652" 
d="M502 716c186 0 231 -115 205 -211c-39 -144 -134 -217 -302 -225l-122 -6l-53 -274h-149l199 610c-3 -7 -6 -16 -10 -25c-70 0 -115 -46 -139 -100c-16 -36 -34 -106 -44 -142l-39 99c7 28 13 48 18 67c24 91 116 205 247 205l1 2h188zM632 549c9 35 -12 102 -143 102
h-110l-63 -238l137 6c100 4 150 22 179 130z" />
    <glyph glyph-name="Thorn" unicode="&#xde;" horiz-adv-x="566" 
d="M329 597c142 -5 288 -104 255 -226s-230 -221 -375 -227l-39 -144h-89l187 700h89zM514 375c12 46 -117 145 -170 145c-12 0 -26 -5 -39 -14l-69 -258c10 -10 22 -17 36 -17c52 0 229 98 242 144z" />
    <glyph glyph-name="Q" unicode="Q" horiz-adv-x="878" 
d="M652 42l110 -171h-234l-73 117c-21 -2 -31 -2 -42 -2c-200 0 -321 54 -235 378c54 201 236 378 443 378s298 -148 236 -378c-45 -170 -130 -258 -205 -322zM600 662c-145 0 -272 -143 -314 -298c-56 -211 57 -210 114 -208l54 2l54 76c46 -28 96 -49 136 -49
c31 0 88 103 108 179c49 184 -8 298 -152 298z" />
    <glyph glyph-name="R" unicode="R" horiz-adv-x="692" 
d="M527 362c37 -22 78 -85 80 -163l4 -199h-182l59 187c34 107 -72 114 -135 104l-55 -9l-59 -282h-158l241 729h179c149 0 217 -69 179 -210c-25 -96 -81 -146 -153 -157zM498 677h-126l-73 -272h126c75 0 168 51 185 114c33 125 -37 158 -112 158z" />
    <glyph glyph-name="Racute" unicode="&#x154;" horiz-adv-x="692" 
d="M595 942h52l-93 -154h-77zM527 362c37 -22 78 -85 80 -163l4 -199h-182l59 187c34 107 -72 114 -135 104l-55 -9l-59 -282h-158l241 729h179c149 0 217 -69 179 -210c-25 -96 -81 -146 -153 -157zM498 677h-126l-73 -272h126c75 0 168 51 185 114
c33 125 -37 158 -112 158z" />
    <glyph glyph-name="Rcaron" unicode="&#x158;" horiz-adv-x="692" 
d="M481 785l-28 64l-99 131h55l117 -99l173 99h55l-168 -131l-57 -64h-48zM527 362c37 -22 78 -85 80 -163l4 -199h-182l59 187c34 107 -72 114 -135 104l-55 -9l-59 -282h-158l241 729h179c149 0 217 -69 179 -210c-25 -96 -81 -146 -153 -157zM498 677h-126l-73 -272h126
c75 0 168 51 185 114c33 125 -37 158 -112 158z" />
    <glyph glyph-name="uni0156" unicode="&#x156;" horiz-adv-x="692" 
d="M558 774h-96l93 146h-4l25 87h111zM501 729c149 0 217 -69 179 -210c-25 -96 -81 -146 -153 -157c37 -22 78 -85 80 -163l4 -199h-182l59 187c34 107 -72 114 -135 104l-55 -9l-59 -282h-158l241 729h179zM610 519c33 125 -37 158 -112 158h-126l-73 -272h126
c75 0 168 51 185 114z" />
    <glyph glyph-name="uni1E5A" unicode="&#x1e5a;" horiz-adv-x="692" 
d="M527 362c37 -22 78 -85 80 -163l4 -199h-182l59 187c34 107 -72 114 -135 104l-55 -9l-59 -282h-158l241 729h179c149 0 217 -69 179 -210c-25 -96 -81 -146 -153 -157zM498 677h-126l-73 -272h126c75 0 168 51 185 114c33 125 -37 158 -112 158zM256 -59h102l-27 -101
h-102z" />
    <glyph glyph-name="uni024C" unicode="&#x24c;" horiz-adv-x="692" 
d="M501 729c149 0 217 -69 179 -210c-16 -63 -46 -107 -86 -132h18l-17 -91h-12c14 -27 23 -60 24 -97l4 -199h-182l59 187c34 107 -72 114 -135 104l-55 -9l-59 -282h-158l98 298h-52l16 91h67l112 340h179zM610 519c33 125 -37 158 -112 158h-126l-73 -272h126
c75 0 168 51 185 114z" />
    <glyph glyph-name="uni2C64" unicode="&#x2c64;" horiz-adv-x="692" 
d="M501 729c149 0 217 -69 179 -210c-25 -96 -81 -146 -153 -157c37 -22 78 -85 80 -163l4 -199h-182l59 187c34 107 -72 114 -135 104l-55 -9l-59 -282h-1c3 -14 6 -27 4 -34c-18 -80 -164 -134 -289 -107c13 53 20 77 37 128c41 -9 72 3 95 25l237 717h179zM610 519
c33 125 -37 158 -112 158h-126l-73 -272h126c75 0 168 51 185 114z" />
    <glyph glyph-name="S" unicode="S" horiz-adv-x="768" 
d="M766 720l-62 -74c-46 13 -58 16 -129 16c-108 0 -204 -36 -225 -113c-17 -64 52 -102 135 -120l56 -12c143 -30 232 -97 200 -216c-58 -215 -143 -215 -380 -215c-130 0 -219 0 -257 99l145 82c30 -29 119 -67 175 -67c101 0 168 10 199 108c19 60 -41 95 -136 115
l-58 12c-141 29 -187 88 -158 199c35 129 153 208 315 208c68 0 109 -5 180 -22z" />
    <glyph glyph-name="Sacute" unicode="&#x15a;" horiz-adv-x="768" 
d="M650 942h52l-93 -154h-77zM766 720l-62 -74c-46 13 -58 16 -129 16c-108 0 -204 -36 -225 -113c-17 -64 52 -102 135 -120l56 -12c143 -30 232 -97 200 -216c-58 -215 -143 -215 -380 -215c-130 0 -219 0 -257 99l145 82c30 -29 119 -67 175 -67c101 0 168 10 199 108
c19 60 -41 95 -136 115l-58 12c-141 29 -187 88 -158 199c35 129 153 208 315 208c68 0 109 -5 180 -22z" />
    <glyph glyph-name="uniA78B" unicode="&#xa78b;" horiz-adv-x="396" 
d="M285 763h235l-224 -643h-104z" />
    <glyph glyph-name="Scaron" unicode="&#x160;" horiz-adv-x="768" 
d="M536 785l-28 64l-99 131h55l117 -99l173 99h55l-168 -131l-57 -64h-48zM766 720l-62 -74c-46 13 -58 16 -129 16c-108 0 -204 -36 -225 -113c-17 -64 52 -102 135 -120l56 -12c143 -30 232 -97 200 -216c-58 -215 -143 -215 -380 -215c-130 0 -219 0 -257 99l145 82
c30 -29 119 -67 175 -67c101 0 168 10 199 108c19 60 -41 95 -136 115l-58 12c-141 29 -187 88 -158 199c35 129 153 208 315 208c68 0 109 -5 180 -22z" />
    <glyph glyph-name="Scedilla" unicode="&#x15e;" horiz-adv-x="768" 
d="M541 417c143 -30 232 -97 200 -216c-57 -211 -140 -215 -366 -215l-34 -53h31c40 0 97 -16 71 -76c-22 -49 -69 -78 -126 -78h-63l25 53c22 -5 30 -5 53 -5c36 0 70 19 75 35c11 44 -26 46 -52 46c-17 0 -38 -2 -63 -5l51 83c-120 0 -203 5 -239 99l145 82
c30 -29 119 -67 175 -67c101 0 168 10 199 108c19 60 -41 95 -136 115l-58 12c-141 29 -187 88 -158 199c35 129 153 208 315 208c68 0 109 -5 180 -22l-62 -74c-46 13 -58 16 -129 16c-108 0 -204 -36 -225 -113c-17 -64 52 -102 135 -120z" />
    <glyph glyph-name="Scircumflex" unicode="&#x15c;" horiz-adv-x="768" 
d="M570 938h48l23 -64l98 -131h-55l-120 99l-170 -99h-55l169 131zM766 720l-62 -74c-46 13 -58 16 -129 16c-108 0 -204 -36 -225 -113c-17 -64 52 -102 135 -120l56 -12c143 -30 232 -97 200 -216c-58 -215 -143 -215 -380 -215c-130 0 -219 0 -257 99l145 82
c30 -29 119 -67 175 -67c101 0 168 10 199 108c19 60 -41 95 -136 115l-58 12c-141 29 -187 88 -158 199c35 129 153 208 315 208c68 0 109 -5 180 -22z" />
    <glyph glyph-name="uni0218" unicode="&#x218;" horiz-adv-x="768" 
d="M613 774h-96l93 146h-4l25 87h111zM541 417c143 -30 232 -97 200 -216c-58 -215 -143 -215 -380 -215c-130 0 -219 0 -257 99l145 82c30 -29 119 -67 175 -67c101 0 168 10 199 108c19 60 -41 95 -136 115l-58 12c-141 29 -187 88 -158 199c35 129 153 208 315 208
c68 0 109 -5 180 -22l-62 -74c-46 13 -58 16 -129 16c-108 0 -204 -36 -225 -113c-17 -64 52 -102 135 -120z" />
    <glyph glyph-name="uni1E60" unicode="&#x1e60;" horiz-adv-x="768" 
d="M568 911h102l-27 -101h-102zM766 720l-62 -74c-46 13 -58 16 -129 16c-108 0 -204 -36 -225 -113c-17 -64 52 -102 135 -120l56 -12c143 -30 232 -97 200 -216c-58 -215 -143 -215 -380 -215c-130 0 -219 0 -257 99l145 82c30 -29 119 -67 175 -67c101 0 168 10 199 108
c19 60 -41 95 -136 115l-58 12c-141 29 -187 88 -158 199c35 129 153 208 315 208c68 0 109 -5 180 -22z" />
    <glyph glyph-name="uni1E62" unicode="&#x1e62;" horiz-adv-x="768" 
d="M766 720l-62 -74c-46 13 -58 16 -129 16c-108 0 -204 -36 -225 -113c-17 -64 52 -102 135 -120l56 -12c143 -30 232 -97 200 -216c-58 -215 -143 -215 -380 -215c-130 0 -219 0 -257 99l145 82c30 -29 119 -67 175 -67c101 0 168 10 199 108c19 60 -41 95 -136 115
l-58 12c-141 29 -187 88 -158 199c35 129 153 208 315 208c68 0 109 -5 180 -22zM315 -46h102l-27 -101h-102z" />
    <glyph glyph-name="uni1E9E" unicode="&#x1e9e;" horiz-adv-x="1536" 
d="M766 720l-62 -74c-46 13 -58 16 -129 16c-108 0 -204 -36 -225 -113c-17 -64 52 -102 135 -120l56 -12c143 -30 232 -97 200 -216c-58 -215 -143 -215 -380 -215c-130 0 -219 0 -257 99l145 82c30 -29 119 -67 175 -67c101 0 168 10 199 108c19 60 -41 95 -136 115
l-58 12c-141 29 -187 88 -158 199c35 129 153 208 315 208c68 0 109 -5 180 -22zM1534 720l-62 -74c-46 13 -58 16 -129 16c-108 0 -204 -36 -225 -113c-17 -64 52 -102 135 -120l56 -12c143 -30 232 -97 200 -216c-58 -215 -143 -215 -380 -215c-130 0 -219 0 -257 99
l145 82c30 -29 119 -67 175 -67c101 0 168 10 199 108c19 60 -41 95 -136 115l-58 12c-141 29 -187 88 -158 199c35 129 153 208 315 208c68 0 109 -5 180 -22z" />
    <glyph glyph-name="uni018F" unicode="&#x18f;" horiz-adv-x="663" 
d="M131 212l425 11c29 94 -15 183 -156 181c-76 -1 -123 -28 -211 -57l39 148c74 25 144 36 216 34c176 -7 253 -120 199 -291c-62 -176 -194 -285 -361 -278c-110 13 -174 72 -151 252zM507 147l-318 -8c-8 -60 19 -113 108 -117c101 -4 189 60 210 125z" />
    <glyph glyph-name="T" unicode="T" horiz-adv-x="785" 
d="M254 646l22 83h623l-22 -83l-259 10l-155 -656h-140l195 656z" />
    <glyph glyph-name="Tbar" unicode="&#x166;" horiz-adv-x="785" 
d="M877 646l-259 10l-58 -246h138l-24 -91h-136l-75 -319h-140l95 319h-139l25 91h141l73 246l-264 -10l22 83h623z" />
    <glyph glyph-name="Tcaron" unicode="&#x164;" horiz-adv-x="785" 
d="M549 785l-28 64l-99 131h55l117 -99l173 99h55l-168 -131l-57 -64h-48zM254 646l22 83h623l-22 -83l-259 10l-155 -656h-140l195 656z" />
    <glyph glyph-name="uni0162" unicode="&#x162;" horiz-adv-x="785" 
d="M276 729h623l-22 -83l-259 10l-155 -656h-61l-51 -80h31c40 0 97 -16 71 -76c-22 -49 -69 -78 -126 -78h-63l25 53c22 -5 30 -5 53 -5c36 0 70 19 75 35c11 44 -26 46 -52 46c-17 0 -38 -2 -63 -5l67 110h-46l195 656l-264 -10z" />
    <glyph glyph-name="uni1E70" unicode="&#x1e70;" horiz-adv-x="785" 
d="M254 646l22 83h623l-22 -83l-259 10l-155 -656h-140l195 656zM413 -31h48l23 -64l98 -131h-55l-120 99l-170 -99h-55l169 131z" />
    <glyph glyph-name="uni021A" unicode="&#x21a;" horiz-adv-x="785" 
d="M626 774h-96l93 146h-4l25 87h111zM276 729h623l-22 -83l-259 10l-155 -656h-140l195 656l-264 -10z" />
    <glyph glyph-name="uni1E6A" unicode="&#x1e6a;" horiz-adv-x="785" 
d="M581 911h102l-27 -101h-102zM254 646l22 83h623l-22 -83l-259 10l-155 -656h-140l195 656z" />
    <glyph glyph-name="uni1E6C" unicode="&#x1e6c;" horiz-adv-x="785" 
d="M254 646l22 83h623l-22 -83l-259 10l-155 -656h-140l195 656zM325 -59h102l-27 -101h-102z" />
    <glyph glyph-name="uni01AC" unicode="&#x1ac;" horiz-adv-x="785" 
d="M276 729h623l-22 -83l-259 10l-155 -656h-140l195 656l-257 -10c-49 -6 -82 -32 -101 -61c-15 -22 -31 -66 -40 -89l-36 62c6 18 12 30 16 42c19 49 82 108 175 124z" />
    <glyph glyph-name="uni1E6E" unicode="&#x1e6e;" horiz-adv-x="785" 
d="M254 646l22 83h623l-22 -83l-259 10l-155 -656h-140l195 656zM226 -56l315 18l7 -57l-361 -13z" />
    <glyph glyph-name="uni01AE" unicode="&#x1ae;" horiz-adv-x="785" 
d="M276 729h623l-22 -83l-259 10l-154 -650c8 -34 33 -58 83 -58c-8 -52 -12 -76 -25 -129c-131 0 -245 81 -224 161c3 10 17 27 33 46l187 630l-264 -10z" />
    <glyph glyph-name="U" unicode="U" horiz-adv-x="764" 
d="M170 274l106 455h125l-114 -375c-65 -212 3 -212 131 -212c127 0 194 0 242 212l87 375h131l-144 -455c-91 -288 -173 -288 -358 -288c-187 0 -273 0 -206 288z" />
    <glyph glyph-name="Uacute" unicode="&#xda;" horiz-adv-x="764" 
d="M661 1034h52l-93 -154h-77zM170 274l106 455h125l-114 -375c-65 -212 3 -212 131 -212c127 0 194 0 242 212l87 375h131l-144 -455c-91 -288 -173 -288 -358 -288c-187 0 -273 0 -206 288z" />
    <glyph glyph-name="uni0244" unicode="&#x244;" horiz-adv-x="1137" 
d="M1207 560l-35 -91h-203l-62 -195c-91 -288 -173 -288 -358 -288c-187 0 -273 0 -206 288l46 197h-183l34 91h170l39 167h125l-51 -168h358l39 168h131l-53 -169h209zM833 354l27 116h-365l-35 -116c-65 -212 3 -212 131 -212c127 0 194 0 242 212z" />
    <glyph glyph-name="uni01D3" unicode="&#x1d3;" horiz-adv-x="764" 
d="M547 856l-28 64l-99 131h55l117 -99l173 99h55l-168 -131l-57 -64h-48zM170 274l106 455h125l-114 -375c-65 -212 3 -212 131 -212c127 0 194 0 242 212l87 375h131l-144 -455c-91 -288 -173 -288 -358 -288c-187 0 -273 0 -206 288z" />
    <glyph glyph-name="Ucircumflex" unicode="&#xdb;" horiz-adv-x="764" 
d="M593 988h48l23 -64l98 -131h-55l-120 99l-170 -99h-55l169 131zM170 274l106 455h125l-114 -375c-65 -212 3 -212 131 -212c127 0 194 0 242 212l87 375h131l-144 -455c-91 -288 -173 -288 -358 -288c-187 0 -273 0 -206 288z" />
    <glyph glyph-name="Udieresis" unicode="&#xdc;" horiz-adv-x="764" 
d="M435 942h102l-27 -101h-102zM710 942h102l-27 -101h-102zM170 274l106 455h125l-114 -375c-65 -212 3 -212 131 -212c127 0 194 0 242 212l87 375h131l-144 -455c-91 -288 -173 -288 -358 -288c-187 0 -273 0 -206 288z" />
    <glyph glyph-name="uni01D7" unicode="&#x1d7;" horiz-adv-x="764" 
d="M687 1105h52l-93 -154h-77zM416 872h102l-27 -101h-102zM691 872h102l-27 -101h-102zM170 274l106 455h125l-114 -375c-65 -212 3 -212 131 -212c127 0 194 0 242 212l87 375h131l-144 -455c-91 -288 -173 -288 -358 -288c-187 0 -273 0 -206 288z" />
    <glyph glyph-name="uni01D9" unicode="&#x1d9;" horiz-adv-x="764" 
d="M573 948l-28 64l-99 131h55l117 -99l173 99h55l-168 -131l-57 -64h-48zM416 872h102l-27 -101h-102zM691 872h102l-27 -101h-102zM170 274l106 455h125l-114 -375c-65 -212 3 -212 131 -212c127 0 194 0 242 212l87 375h131l-144 -455c-91 -288 -173 -288 -358 -288
c-187 0 -273 0 -206 288z" />
    <glyph glyph-name="uni01DB" unicode="&#x1db;" horiz-adv-x="764" 
d="M549 923l-87 112h79l139 -127zM416 872h102l-27 -101h-102zM691 872h102l-27 -101h-102zM170 274l106 455h125l-114 -375c-65 -212 3 -212 131 -212c127 0 194 0 242 212l87 375h131l-144 -455c-91 -288 -173 -288 -358 -288c-187 0 -273 0 -206 288z" />
    <glyph glyph-name="uni01D5" unicode="&#x1d5;" horiz-adv-x="764" 
d="M452 1024l396 24l9 -77l-455 -17zM416 872h102l-27 -101h-102zM691 872h102l-27 -101h-102zM170 274l106 455h125l-114 -375c-65 -212 3 -212 131 -212c127 0 194 0 242 212l87 375h131l-144 -455c-91 -288 -173 -288 -358 -288c-187 0 -273 0 -206 288z" />
    <glyph glyph-name="uni1EE4" unicode="&#x1ee4;" horiz-adv-x="764" 
d="M170 274l106 455h125l-114 -375c-65 -212 3 -212 131 -212c127 0 194 0 242 212l87 375h131l-144 -455c-91 -288 -173 -288 -358 -288c-187 0 -273 0 -206 288zM315 -59h102l-27 -101h-102z" />
    <glyph glyph-name="Ugrave" unicode="&#xd9;" horiz-adv-x="764" 
d="M546 857l-87 112h79l139 -127zM170 274l106 455h125l-114 -375c-65 -212 3 -212 131 -212c127 0 194 0 242 212l87 375h131l-144 -455c-91 -288 -173 -288 -358 -288c-187 0 -273 0 -206 288z" />
    <glyph glyph-name="uni1EE6" unicode="&#x1ee6;" horiz-adv-x="764" 
d="M557 915l-6 -21c19 8 34 13 49 13c23 0 31 -8 29 -14s-8 -11 -16 -17l-13 -9c-10 -7 -17 -9 -21 -15c-3 -4 -5 -10 -7 -16l-1 -3h29c1 5 3 9 5 12c1 1 4 4 11 8l13 7c18 10 28 21 30 31s-1 20 -10 26c-8 6 -20 10 -37 10c-16 0 -35 -4 -55 -12zM170 274l106 455h125
l-114 -375c-65 -212 3 -212 131 -212c127 0 194 0 242 212l87 375h131l-144 -455c-91 -288 -173 -288 -358 -288c-187 0 -273 0 -206 288z" />
    <glyph glyph-name="Uhorn" unicode="&#x1af;" horiz-adv-x="764" 
d="M930 819l47 -6c-1 -12 -1 -23 -4 -32c-10 -39 -34 -87 -72 -114c-25 -17 -29 -21 -53 -32l-114 -361c-91 -288 -173 -288 -358 -288c-187 0 -273 0 -206 288l106 455h125l-114 -375c-65 -212 3 -212 131 -212c127 0 194 0 242 212l87 375h131l-11 -33c7 3 13 6 19 10
c28 20 38 66 43 83c3 11 2 20 1 30z" />
    <glyph glyph-name="uni1EE8" unicode="&#x1ee8;" horiz-adv-x="764" 
d="M713 1013l-93 -154h-77l118 154h52zM930 819l47 -6c-1 -12 -1 -23 -4 -32c-10 -39 -34 -87 -72 -114c-25 -17 -29 -21 -53 -32l-114 -361c-91 -288 -173 -288 -358 -288c-187 0 -273 0 -206 288l106 455h125l-114 -375c-65 -212 3 -212 131 -212c127 0 194 0 242 212
l87 375h131l-11 -33c7 3 13 6 19 10c28 20 38 66 43 83c3 11 2 20 1 30z" />
    <glyph glyph-name="uni1EF0" unicode="&#x1ef0;" horiz-adv-x="764" 
d="M930 819l47 -6c-1 -12 -1 -23 -4 -32c-10 -39 -34 -87 -72 -114c-25 -17 -29 -21 -53 -32l-114 -361c-91 -288 -173 -288 -358 -288c-187 0 -273 0 -206 288l106 455h125l-114 -375c-65 -212 3 -212 131 -212c127 0 194 0 242 212l87 375h131l-11 -33c7 3 13 6 19 10
c28 20 38 66 43 83c3 11 2 20 1 30zM288 -160l27 101h102l-27 -101h-102z" />
    <glyph glyph-name="uni1EEA" unicode="&#x1eea;" horiz-adv-x="764" 
d="M654 816l-131 15l-87 112h79zM930 819l47 -6c-1 -12 -1 -23 -4 -32c-10 -39 -34 -87 -72 -114c-25 -17 -29 -21 -53 -32l-114 -361c-91 -288 -173 -288 -358 -288c-187 0 -273 0 -206 288l106 455h125l-114 -375c-65 -212 3 -212 131 -212c127 0 194 0 242 212l87 375
h131l-11 -33c7 3 13 6 19 10c28 20 38 66 43 83c3 11 2 20 1 30z" />
    <glyph glyph-name="uni1EEC" unicode="&#x1eec;" horiz-adv-x="764" 
d="M629 893c2 6 -6 14 -29 14c-15 0 -30 -5 -49 -13l6 21c20 8 39 12 55 12c17 0 29 -4 37 -10c9 -6 12 -16 10 -26s-12 -21 -30 -31l-13 -7c-7 -4 -10 -7 -11 -8c-2 -3 -4 -7 -5 -12h-29l1 3c2 6 4 12 7 16c4 6 11 8 21 15l13 9c8 6 14 11 16 17zM930 819l47 -6
c-1 -12 -1 -23 -4 -32c-10 -39 -34 -87 -72 -114c-25 -17 -29 -21 -53 -32l-114 -361c-91 -288 -173 -288 -358 -288c-187 0 -273 0 -206 288l106 455h125l-114 -375c-65 -212 3 -212 131 -212c127 0 194 0 242 212l87 375h131l-11 -33c7 3 13 6 19 10c28 20 38 66 43 83
c3 11 2 20 1 30z" />
    <glyph glyph-name="uni1EEE" unicode="&#x1eee;" horiz-adv-x="764" 
d="M522 943c-39 1 -56 -62 -68 -105h-55c39 117 63 150 135 150c67 0 57 -100 102 -100c50 0 53 51 68 100h46c-41 -146 -73 -151 -127 -150c-72 1 -64 104 -101 105zM930 819l47 -6c-1 -12 -1 -23 -4 -32c-10 -39 -34 -87 -72 -114c-25 -17 -29 -21 -53 -32l-114 -361
c-91 -288 -173 -288 -358 -288c-187 0 -273 0 -206 288l106 455h125l-114 -375c-65 -212 3 -212 131 -212c127 0 194 0 242 212l87 375h131l-11 -33c7 3 13 6 19 10c28 20 38 66 43 83c3 11 2 20 1 30z" />
    <glyph glyph-name="Uhungarumlaut" unicode="&#x170;" horiz-adv-x="764" 
d="M565 832l-131 -15l139 127h79zM750 832l-131 -15l139 127h79zM170 274l106 455h125l-114 -375c-65 -212 3 -212 131 -212c127 0 194 0 242 212l87 375h131l-144 -455c-91 -288 -173 -288 -358 -288c-187 0 -273 0 -206 288z" />
    <glyph glyph-name="Umacron" unicode="&#x16a;" horiz-adv-x="764" 
d="M426 932l396 24l9 -77l-455 -17zM170 274l106 455h125l-114 -375c-65 -212 3 -212 131 -212c127 0 194 0 242 212l87 375h131l-144 -455c-91 -288 -173 -288 -358 -288c-187 0 -273 0 -206 288z" />
    <glyph glyph-name="Uogonek" unicode="&#x172;" horiz-adv-x="764" 
d="M747 729h131l-144 -455c-62 -196 -120 -259 -209 -279c-42 -35 -66 -61 -71 -79c-5 -20 12 -31 54 -31c15 0 35 2 57 5c-3 -20 -6 -53 -8 -70c-117 -2 -177 30 -162 86c6 23 26 51 60 81c-24 -1 -50 -1 -79 -1c-187 0 -273 0 -206 288l106 455h125l-114 -375
c-65 -212 3 -212 131 -212c127 0 194 0 242 212z" />
    <glyph glyph-name="uni01B1" unicode="&#x1b1;" horiz-adv-x="867" 
d="M866 712c-11 -41 -15 -54 -25 -95c-39 -5 -45 -5 -140 -19c54 -42 110 -74 59 -262c-61 -230 -235 -378 -442 -378s-301 148 -239 378c49 185 135 220 185 262c-50 6 -94 12 -128 19c8 28 15 59 25 95c25 1 56 0 99 0h179c-10 -42 -16 -61 -41 -123
c-104 10 -187 -153 -214 -253c-50 -184 9 -308 153 -308c145 0 269 124 318 308c27 100 -2 216 -97 248c7 53 12 86 23 128h165c39 0 102 4 120 0z" />
    <glyph glyph-name="Uring" unicode="&#x16e;" horiz-adv-x="764" 
d="M599 854c-50 0 -79 43 -65 96c14 52 66 95 116 95c51 0 80 -43 66 -95c-14 -53 -66 -96 -117 -96zM614 909c28 0 52 1 66 54c8 29 -9 53 -37 53c-29 0 -58 -24 -66 -53c-14 -53 9 -54 37 -54zM170 274l106 455h125l-114 -375c-65 -212 3 -212 131 -212
c127 0 194 0 242 212l87 375h131l-144 -455c-91 -288 -173 -288 -358 -288c-187 0 -273 0 -206 288z" />
    <glyph glyph-name="Utilde" unicode="&#x168;" horiz-adv-x="764" 
d="M399 838c39 117 63 150 135 150c67 0 57 -100 102 -100c50 0 53 51 68 100h46c-41 -146 -73 -151 -127 -150c-72 1 -64 104 -101 105c-39 1 -56 -62 -68 -105h-55zM170 274l106 455h125l-114 -375c-65 -212 3 -212 131 -212c127 0 194 0 242 212l87 375h131l-144 -455
c-91 -288 -173 -288 -358 -288c-187 0 -273 0 -206 288z" />
    <glyph glyph-name="V" unicode="V" horiz-adv-x="836" 
d="M516 0h-206l-34 729h104l62 -515h48l358 515h103z" />
    <glyph glyph-name="uni0194" unicode="&#x194;" horiz-adv-x="972" 
d="M919 800h186c-18 -17 -83 -77 -93 -87c-170 -167 -305 -301 -407 -408c116 -377 147 -509 -186 -505c-389 4 -277 159 46 508c-36 107 -84 244 -143 418c-5 12 -19 54 -27 74h161c10 -25 13 -29 19 -51c32 -124 65 -233 94 -329c97 103 206 220 323 352
c14 17 11 11 27 28zM449 -73c110 -3 125 36 53 267c-177 -198 -185 -263 -53 -267z" />
    <glyph glyph-name="uni01B2" unicode="&#x1b2;" horiz-adv-x="764" 
d="M856 659l3 -9l-14 -25l-111 -351c-91 -288 -173 -288 -358 -288c-187 0 -273 0 -206 288l106 455h125l-114 -375c-65 -212 3 -212 131 -212c127 0 194 0 242 212l80 343c-35 52 -98 96 -195 96c-28 52 -40 76 -62 129c179 0 306 -104 346 -193h49z" />
    <glyph glyph-name="uni1E7C" unicode="&#x1e7c;" horiz-adv-x="836" 
d="M420 738c39 117 63 150 135 150c67 0 57 -100 102 -100c50 0 53 51 68 100h46c-41 -146 -73 -151 -127 -150c-72 1 -64 104 -101 105c-39 1 -56 -62 -68 -105h-55zM516 0h-206l-34 729h104l62 -515h48l358 515h103z" />
    <glyph glyph-name="uni0245" unicode="&#x245;" horiz-adv-x="836" 
d="M570 760l435 -729h-103l-358 515h-48l-62 -515h-104l34 729h206z" />
    <glyph glyph-name="W" unicode="W" horiz-adv-x="1094" 
d="M245 0l31 729h96l9 -523l265 337h87l67 -347l312 533h96l-380 -729h-145l-30 394l-252 -394h-156z" />
    <glyph glyph-name="Wacute" unicode="&#x1e82;" horiz-adv-x="1094" 
d="M245 0l31 729h96l9 -523l265 337h87l67 -347l312 533h96l-380 -729h-145l-30 394l-252 -394h-156zM519 -11h52l-93 -154h-77z" />
    <glyph glyph-name="Wcircumflex" unicode="&#x174;" horiz-adv-x="1094" 
d="M748 917h48l23 -64l98 -131h-55l-120 99l-170 -99h-55l169 131zM245 0l31 729h96l9 -523l265 337h87l67 -347l312 533h96l-380 -729h-145l-30 394l-252 -394h-156z" />
    <glyph glyph-name="Wdieresis" unicode="&#x1e84;" horiz-adv-x="1094" 
d="M590 871h102l-27 -101h-102zM865 871h102l-27 -101h-102zM245 0l31 729h96l9 -523l265 337h87l67 -347l312 533h96l-380 -729h-145l-30 394l-252 -394h-156z" />
    <glyph glyph-name="Wgrave" unicode="&#x1e80;" horiz-adv-x="1094" 
d="M701 786l-87 112h79l139 -127zM245 0l31 729h96l9 -523l265 337h87l67 -347l312 533h96l-380 -729h-145l-30 394l-252 -394h-156z" />
    <glyph glyph-name="uni2C72" unicode="&#x2c72;" horiz-adv-x="1094" 
d="M1231 554c5 -19 11 -39 18 -67l-39 -99c-10 36 -28 106 -44 142c-9 19 -20 38 -34 53l-304 -583h-145l-30 394l-252 -394h-156l31 729h96l9 -523l265 337h87l67 -347l253 432c-8 1 -17 2 -26 2c-20 52 -28 76 -44 129c47 0 89 -15 125 -37l4 7h96l-34 -66
c28 -34 48 -73 57 -109z" />
    <glyph glyph-name="X" unicode="X" horiz-adv-x="797" 
d="M887 730l-326 -369l155 -361h-160l-85 258l-228 -258l-162 2l355 360l-121 367h89l119 -279l276 280h88z" />
    <glyph glyph-name="Y" unicode="Y" horiz-adv-x="772" 
d="M384 250l-108 479h107l99 -373l297 373h107l-368 -479l-67 -250h-134z" />
    <glyph glyph-name="Yacute" unicode="&#xdd;" horiz-adv-x="772" 
d="M229 832h52l-93 -154h-77zM384 250l-108 479h107l99 -373l297 373h107l-368 -479l-67 -250h-134z" />
    <glyph glyph-name="Ycircumflex" unicode="&#x176;" horiz-adv-x="772" 
d="M604 973h48l23 -64l98 -131h-55l-120 99l-170 -99h-55l169 131zM384 250l-108 479h107l99 -373l297 373h107l-368 -479l-67 -250h-134z" />
    <glyph glyph-name="Ydieresis" unicode="&#x178;" horiz-adv-x="772" 
d="M446 927h102l-27 -101h-102zM721 927h102l-27 -101h-102zM384 250l-108 479h107l99 -373l297 373h107l-368 -479l-67 -250h-134z" />
    <glyph glyph-name="uni1EF4" unicode="&#x1ef4;" horiz-adv-x="772" 
d="M384 250l-108 479h107l99 -373l297 373h107l-368 -479l-67 -250h-134zM319 -59h102l-27 -101h-102z" />
    <glyph glyph-name="Ygrave" unicode="&#x1ef2;" horiz-adv-x="772" 
d="M557 842l-87 112h79l139 -127zM384 250l-108 479h107l99 -373l297 373h107l-368 -479l-67 -250h-134z" />
    <glyph glyph-name="uni01B3" unicode="&#x1b3;" horiz-adv-x="772" 
d="M923 763c5 -11 11 -22 18 -40l-39 -157c-10 21 -28 65 -44 77c-9 7 -22 8 -37 1l-303 -394l-67 -250h-134l67 250l-108 479h107l99 -373l194 243c-1 0 -1 1 -1 1c132 196 224 219 248 163z" />
    <glyph glyph-name="uni1EF6" unicode="&#x1ef6;" horiz-adv-x="772" 
d="M568 900l-6 -21c19 8 34 13 49 13c23 0 31 -8 29 -14s-8 -11 -16 -17l-13 -9c-10 -7 -17 -9 -21 -15c-3 -4 -5 -10 -7 -16l-1 -3h29c1 5 3 9 5 12c1 1 4 4 11 8l13 7c18 10 28 21 30 31s-1 20 -10 26c-8 6 -20 10 -37 10c-16 0 -35 -4 -55 -12zM384 250l-108 479h107
l99 -373l297 373h107l-368 -479l-67 -250h-134z" />
    <glyph glyph-name="uni1EF8" unicode="&#x1ef8;" horiz-adv-x="772" 
d="M410 823c39 117 63 150 135 150c67 0 57 -100 102 -100c50 0 53 51 68 100h46c-41 -146 -73 -151 -127 -150c-72 1 -64 104 -101 105c-39 1 -56 -62 -68 -105h-55zM384 250l-108 479h107l99 -373l297 373h107l-368 -479l-67 -250h-134z" />
    <glyph glyph-name="Z" unicode="Z" horiz-adv-x="813" 
d="M361 604l407 -6l-650 -459l-37 -139l631 6l-10 140h-458l651 460l20 75h-579z" />
    <glyph glyph-name="Zacute" unicode="&#x179;" horiz-adv-x="813" 
d="M675 942h52l-93 -154h-77zM361 604l407 -6l-650 -459l-37 -139l631 6l-10 140h-458l651 460l20 75h-579z" />
    <glyph glyph-name="Zcaron" unicode="&#x17d;" horiz-adv-x="813" 
d="M561 785l-28 64l-99 131h55l117 -99l173 99h55l-168 -131l-57 -64h-48zM361 604l407 -6l-650 -459l-37 -139l631 6l-10 140h-458l651 460l20 75h-579z" />
    <glyph glyph-name="uni1E90" unicode="&#x1e90;" horiz-adv-x="813" 
d="M595 938h48l23 -64l98 -131h-55l-120 99l-170 -99h-55l169 131zM361 604l407 -6l-650 -459l-37 -139l631 6l-10 140h-458l651 460l20 75h-579z" />
    <glyph glyph-name="Zdotaccent" unicode="&#x17b;" horiz-adv-x="813" 
d="M593 911h102l-27 -101h-102zM361 604l407 -6l-650 -459l-37 -139l631 6l-10 140h-458l651 460l20 75h-579z" />
    <glyph glyph-name="uni1E92" unicode="&#x1e92;" horiz-adv-x="813" 
d="M361 604l407 -6l-650 -459l-37 -139l631 6l-10 140h-458l651 460l20 75h-579zM340 -59h102l-27 -101h-102z" />
    <glyph glyph-name="A.ss04" horiz-adv-x="836" 
d="M81 0l486 729h94l94 -729h-142l4 119h-332l-69 -119h-135zM346 235h271l-21 433z" />
    <glyph glyph-name="B.ss04" horiz-adv-x="694" 
d="M81 0l195 729h230c152 0 220 -65 190 -180c-25 -90 -82 -143 -166 -156c124 -21 164 -90 138 -189c-55 -204 -157 -204 -323 -204h-264zM295 428h148c97 0 154 36 174 110s-14 125 -111 125h-148zM220 145h159c107 0 167 15 190 103c6 20 -5 45 -25 68
c-19 22 -57 32 -110 32h-160z" />
    <glyph glyph-name="C.ss04" horiz-adv-x="724" 
d="M840 732l-35 -76c-93 16 -93 16 -179 16c-167 0 -308 -111 -360 -304c-46 -171 50 -229 218 -229c86 0 127 5 181 20l-46 -172h-314c-192 0 -224 13 -126 381c63 234 238 378 461 378c89 0 113 -2 200 -14z" />
    <glyph glyph-name="D.ss04" horiz-adv-x="781" 
d="M81 0l195 729h205c286 0 384 -114 317 -364c-98 -365 -227 -365 -512 -365h-205zM237 190h120c254 0 335 81 367 203c49 180 -38 266 -241 266h-121z" />
    <glyph glyph-name="E.ss04" horiz-adv-x="649" 
d="M81 0l216 715l452 14l-41 -73l-338 -19l-59 -218l251 11l-23 -83l-251 -16l-49 -180h337l-7 -151h-488z" />
    <glyph glyph-name="F.ss04" horiz-adv-x="589" 
d="M81 0l231 717l391 12l-17 -66l-298 -17l-77 -196l276 18l-27 -102l-271 -18l-76 -348h-132z" />
    <glyph glyph-name="G.ss04" horiz-adv-x="847" 
d="M445 -14c-231 0 -330 140 -267 378c86 321 237 372 468 372c96 0 174 -10 197 -14l-10 -78c-72 17 -149 21 -198 21c-180 0 -274 -11 -349 -291c-41 -180 30 -229 209 -229c71 0 134 12 165 37l21 79l-132 18l16 94l276 -32l-9 -96l-68 1l-44 -206
c-98 -54 -170 -54 -275 -54z" />
    <glyph glyph-name="H.ss04" horiz-adv-x="779" 
d="M757 729h105l-164 -729h-161l56 187h-316l-43 -187h-153l215 729h105l-91 -397h327z" />
    <glyph glyph-name="I.ss04" horiz-adv-x="303" 
d="M81 0c109 292 184 632 200 729h110c-73 -237 -130 -486 -169 -729h-141z" />
    <glyph glyph-name="J.ss04" horiz-adv-x="486" 
d="M276 37c-17 -53 -72 -111 -152 -92l-48 11l-50 -161l65 -6c158 2 232 66 288 242l221 696h-116z" />
    <glyph glyph-name="K.ss04" horiz-adv-x="737" 
d="M81 0l261 729h89l-113 -370l310 370h128l-353 -402l254 -327h-236l-121 289l-90 -289h-129z" />
    <glyph glyph-name="L.ss04" horiz-adv-x="635" 
d="M81 0l221 729h79l-156 -584l360 6l-31 -151h-473z" />
    <glyph glyph-name="M.ss04" horiz-adv-x="883" 
d="M81 0l221 729h149l73 -440l304 440h138l-164 -729h-163l231 671l-354 -608h-110l-47 608l-134 -671h-144z" />
    <glyph glyph-name="N.ss04" horiz-adv-x="765" 
d="M81 0l246 700h124l129 -561l207 588h92l-236 -727h-162l-93 616l-145 -616h-162z" />
    <glyph glyph-name="O.ss04" horiz-adv-x="843" 
d="M418 -14c-234 2 -323 68 -240 378c62 230 236 378 443 378s306 -148 239 -378c-90 -310 -186 -380 -442 -378zM469 173c144 0 246 40 286 191c49 184 -8 308 -153 308c-144 0 -269 -124 -319 -308c-40 -151 41 -191 186 -191z" />
    <glyph glyph-name="P.ss04" horiz-adv-x="652" 
d="M81 0l233 716h188c186 0 231 -115 205 -211c-39 -144 -134 -217 -302 -225l-122 -6l-53 -274h-149zM316 413l137 6c100 4 150 22 179 130c9 35 -12 102 -143 102h-110z" />
    <glyph glyph-name="Q.ss04" horiz-adv-x="878" 
d="M528 -129l-73 117c-21 -2 -31 -2 -42 -2c-200 0 -321 54 -235 378c54 201 236 378 443 378s298 -148 236 -378c-45 -170 -130 -258 -205 -322l110 -171h-234zM400 156l54 2l54 76c46 -28 96 -49 136 -49c31 0 88 103 108 179c49 184 -8 298 -152 298
c-145 0 -272 -143 -314 -298c-56 -211 57 -210 114 -208z" />
    <glyph glyph-name="R.ss04" horiz-adv-x="692" 
d="M81 0l241 729h179c149 0 217 -69 179 -210c-25 -96 -81 -146 -153 -157c37 -22 78 -85 80 -163l4 -199h-182l59 187c34 107 -72 114 -135 104l-55 -9l-59 -282h-158zM299 405h126c75 0 168 51 185 114c33 125 -37 158 -112 158h-126z" />
    <glyph glyph-name="S.ss04" horiz-adv-x="768" 
d="M766 720l-62 -74c-46 13 -58 16 -129 16c-108 0 -204 -36 -225 -113c-17 -64 52 -102 135 -120l56 -12c143 -30 232 -97 200 -216c-58 -215 -143 -215 -380 -215c-130 0 -219 0 -257 99l145 82c30 -29 119 -67 175 -67c101 0 168 10 199 108c19 60 -41 95 -136 115
l-58 12c-141 29 -187 88 -158 199c35 129 153 208 315 208c68 0 109 -5 180 -22z" />
    <glyph glyph-name="T.ss04" horiz-adv-x="785" 
d="M254 646l22 83h623l-22 -83l-259 10l-155 -656h-140l195 656z" />
    <glyph glyph-name="U.ss04" horiz-adv-x="764" 
d="M170 274l106 455h125l-114 -375c-65 -212 3 -212 131 -212c127 0 194 0 242 212l87 375h131l-144 -455c-91 -288 -173 -288 -358 -288c-187 0 -273 0 -206 288z" />
    <glyph glyph-name="V.ss04" horiz-adv-x="836" 
d="M516 0h-206l-34 729h104l62 -515h48l358 515h103z" />
    <glyph glyph-name="W.ss04" horiz-adv-x="1094" 
d="M245 0l31 729h96l9 -523l265 337h87l67 -347l312 533h96l-380 -729h-145l-30 394l-252 -394h-156z" />
    <glyph glyph-name="X.ss04" horiz-adv-x="797" 
d="M887 730l-326 -369l155 -361h-160l-85 258l-228 -258l-162 2l355 360l-121 367h89l119 -279l276 280h88z" />
    <glyph glyph-name="Y.ss04" horiz-adv-x="772" 
d="M384 250l-108 479h107l99 -373l297 373h107l-368 -479l-67 -250h-134z" />
    <glyph glyph-name="Z.ss04" horiz-adv-x="813" 
d="M361 604l407 -6l-650 -459l-37 -139l631 6l-10 140h-458l651 460l20 75h-579z" />
    <glyph glyph-name="uni0299" unicode="&#x299;" horiz-adv-x="472" 
d="M55 0l133 511h156c69 0 136 14 122 -101c-9 -80 -42 -114 -106 -122c85 -15 116 -62 94 -149c-30 -122 -107 -139 -219 -139h-180zM344 466h-101l-42 -155h100c66 0 107 19 118 102c8 53 -9 53 -75 53zM295 257h-109l-36 -158h108c72 0 117 9 129 77c5 34 -4 44 -17 59
s-39 22 -75 22z" />
    <glyph glyph-name="uni0262" unicode="&#x262;" horiz-adv-x="573" 
d="M301 -9c-163 0 -212 94 -181 255c42 217 161 252 317 252c65 0 118 -7 133 -10l-7 -66c-48 13 -100 14 -134 14c-121 0 -171 -7 -222 -183c-28 -122 7 -155 128 -155c48 0 90 8 111 25l16 60l-88 16l8 53l187 -21l-6 -65l-46 8l-30 -140c-66 -29 -122 -43 -186 -43z" />
    <glyph glyph-name="uni029B" unicode="&#x29b;" horiz-adv-x="625" 
d="M523 565c34 112 60 118 187 117l-23 -85c-68 0 -72 -3 -85 -51c-5 -20 -10 -37 -15 -56c4 -1 7 -2 9 -2l-7 -66c-48 13 -100 14 -134 14c-121 0 -171 -7 -222 -183c-28 -122 7 -155 128 -155c48 0 90 8 111 25l16 60l-88 16l8 53l187 -21l-6 -65l-46 8l-30 -140
c-66 -29 -122 -43 -186 -43c-163 0 -212 94 -181 255c42 217 161 252 317 252c14 0 27 0 40 -1c8 30 8 29 20 68z" />
    <glyph glyph-name="uni029C" unicode="&#x29c;" horiz-adv-x="612" 
d="M519 514h72l-112 -514h-111l38 128h-217l-29 -128h-104l147 514h72l-64 -286h224z" />
    <glyph glyph-name="uni026A" unicode="&#x26a;" horiz-adv-x="208" 
d="M56 0c75 201 134 449 145 516h76c-51 -163 -97 -349 -124 -516h-97z" />
    <glyph glyph-name="uni029F" unicode="&#x29f;" horiz-adv-x="436" 
d="M42 0l151 514h68l-101 -414l241 4l-21 -104h-338z" />
    <glyph glyph-name="uni0274" unicode="&#x274;" horiz-adv-x="528" 
d="M56 0l170 483h85l89 -387l143 406h64l-163 -502h-112l-64 425l-100 -425h-112z" />
    <glyph glyph-name="uni0276" unicode="&#x276;" horiz-adv-x="826" 
d="M634 431l-38 -134c0 -2 -1 -4 -1 -6l170 8l-16 -57l-169 -11c-2 -5 -3 -11 -5 -16l-30 -120h229l-4 -102h-332l7 25c-41 -21 -93 -28 -161 -28c-159 2 -219 47 -163 258c42 156 161 257 301 257c66 0 116 -22 146 -62l17 59l280 10l-28 -68zM319 118c87 0 152 21 184 99
l16 57c22 110 -18 183 -110 183c-98 0 -183 -84 -217 -209c-27 -103 28 -130 127 -130z" />
    <glyph glyph-name="uni0280" unicode="&#x280;" horiz-adv-x="478" 
d="M364 250c25 -15 54 -59 55 -113l3 -137h-126l41 129c23 74 -50 79 -93 72l-38 -6l-41 -195h-109l166 503h124c103 0 149 -48 123 -145c-17 -66 -56 -101 -105 -108zM344 467h-87l-51 -188h87c52 0 116 36 128 79c23 86 -26 109 -77 109z" />
    <glyph glyph-name="uni0281" unicode="&#x281;" horiz-adv-x="478" 
d="M114 310c-25 15 -54 59 -55 113l-3 137h126l-41 -129c-23 -74 50 -79 93 -72l38 6l41 195h109l-166 -503h-124c-103 0 -149 48 -123 145c17 66 56 101 105 108zM134 93h87l51 188h-87c-52 0 -116 -36 -128 -79c-23 -86 26 -109 77 -109z" />
    <glyph glyph-name="uni028F" unicode="&#x28f;" horiz-adv-x="529" 
d="M263 171l-74 328h73l68 -255l203 255h74l-252 -328l-46 -171h-92z" />
    <glyph glyph-name="a" unicode="a" horiz-adv-x="663" 
d="M594 446l9 79h52l-73 -525h-91l22 82c-56 -65 -137 -96 -218 -96c-158 0 -230 115 -161 265c71 153 183 274 275 274c71 0 164 -21 185 -79zM248 290c-63 -107 -72 -158 78 -158c183 0 195 32 230 161c40 149 -61 157 -129 157c-61 0 -137 -89 -179 -160z" />
    <glyph glyph-name="aacute" unicode="&#xe1;" horiz-adv-x="663" 
d="M603 525h52l-73 -525h-91l22 82c-46 -53 -109 -84 -175 -93h2l-93 -154h-77l116 151c-152 5 -220 118 -152 265c71 153 183 274 275 274c71 0 164 -21 185 -79zM556 293c40 149 -61 157 -129 157c-61 0 -137 -89 -179 -160c-63 -107 -72 -158 78 -158
c183 0 195 32 230 161z" />
    <glyph glyph-name="abreve" unicode="&#x103;" horiz-adv-x="663" 
d="M645 871h65c-33 -123 -148 -197 -256 -197s-174 74 -141 197h66c-24 -88 21 -102 101 -102c94 0 141 15 165 102zM594 446l9 79h52l-73 -525h-91l22 82c-56 -65 -137 -96 -218 -96c-158 0 -230 115 -161 265c71 153 183 274 275 274c71 0 164 -21 185 -79zM248 290
c-63 -107 -72 -158 78 -158c183 0 195 32 230 161c40 149 -61 157 -129 157c-61 0 -137 -89 -179 -160z" />
    <glyph glyph-name="uni1EAF" unicode="&#x1eaf;" horiz-adv-x="663" 
d="M588 1084h52l-93 -154h-77zM645 871h65c-33 -123 -148 -197 -256 -197s-174 74 -141 197h66c-24 -88 21 -102 101 -102c94 0 141 15 165 102zM594 446l9 79h52l-73 -525h-91l22 82c-56 -65 -137 -96 -218 -96c-158 0 -230 115 -161 265c71 153 183 274 275 274
c71 0 164 -21 185 -79zM248 290c-63 -107 -72 -158 78 -158c183 0 195 32 230 161c40 149 -61 157 -129 157c-61 0 -137 -89 -179 -160z" />
    <glyph glyph-name="uni1EB7" unicode="&#x1eb7;" horiz-adv-x="663" 
d="M645 871h65c-33 -123 -148 -197 -256 -197s-174 74 -141 197h66c-24 -88 21 -102 101 -102c94 0 141 15 165 102zM594 446l9 79h52l-73 -525h-91l22 82c-56 -65 -137 -96 -218 -96c-158 0 -230 115 -161 265c71 153 183 274 275 274c71 0 164 -21 185 -79zM248 290
c-63 -107 -72 -158 78 -158c183 0 195 32 230 161c40 149 -61 157 -129 157c-61 0 -137 -89 -179 -160zM249 -49h102l-27 -101h-102z" />
    <glyph glyph-name="uni1EB1" unicode="&#x1eb1;" horiz-adv-x="663" 
d="M450 902l-87 112h79l139 -127zM645 871h65c-33 -123 -148 -197 -256 -197s-174 74 -141 197h66c-24 -88 21 -102 101 -102c94 0 141 15 165 102zM594 446l9 79h52l-73 -525h-91l22 82c-56 -65 -137 -96 -218 -96c-158 0 -230 115 -161 265c71 153 183 274 275 274
c71 0 164 -21 185 -79zM248 290c-63 -107 -72 -158 78 -158c183 0 195 32 230 161c40 149 -61 157 -129 157c-61 0 -137 -89 -179 -160z" />
    <glyph glyph-name="uni1EB3" unicode="&#x1eb3;" horiz-adv-x="663" 
d="M552 977l-6 -21c19 8 34 13 49 13c23 0 31 -8 29 -14s-8 -11 -16 -17l-13 -9c-10 -7 -17 -9 -21 -15c-3 -4 -5 -10 -7 -16l-1 -3h29c1 5 3 9 5 12c1 1 4 4 11 8l13 7c18 10 28 21 30 31s-1 20 -10 26c-8 6 -20 10 -37 10c-16 0 -35 -4 -55 -12zM713 862h65
c-33 -123 -148 -197 -256 -197s-174 74 -141 197h66c-24 -88 21 -102 101 -102c94 0 141 15 165 102zM594 446l9 79h52l-73 -525h-91l22 82c-56 -65 -137 -96 -218 -96c-158 0 -230 115 -161 265c71 153 183 274 275 274c71 0 164 -21 185 -79zM248 290
c-63 -107 -72 -158 78 -158c183 0 195 32 230 161c40 149 -61 157 -129 157c-61 0 -137 -89 -179 -160z" />
    <glyph glyph-name="uni1EB5" unicode="&#x1eb5;" horiz-adv-x="663" 
d="M326 909c39 117 63 150 135 150c67 0 57 -100 102 -100c50 0 53 51 68 100h46c-41 -146 -73 -151 -127 -150c-72 1 -64 104 -101 105c-39 1 -56 -62 -68 -105h-55zM645 871h65c-33 -123 -148 -197 -256 -197s-174 74 -141 197h66c-24 -88 21 -102 101 -102
c94 0 141 15 165 102zM594 446l9 79h52l-73 -525h-91l22 82c-56 -65 -137 -96 -218 -96c-158 0 -230 115 -161 265c71 153 183 274 275 274c71 0 164 -21 185 -79zM248 290c-63 -107 -72 -158 78 -158c183 0 195 32 230 161c40 149 -61 157 -129 157
c-61 0 -137 -89 -179 -160z" />
    <glyph glyph-name="uni01CE" unicode="&#x1ce;" horiz-adv-x="663" 
d="M482 692l-28 64l-99 131h55l117 -99l173 99h55l-168 -131l-57 -64h-48zM594 446l9 79h52l-73 -525h-91l22 82c-56 -65 -137 -96 -218 -96c-158 0 -230 115 -161 265c71 153 183 274 275 274c71 0 164 -21 185 -79zM248 290c-63 -107 -72 -158 78 -158
c183 0 195 32 230 161c40 149 -61 157 -129 157c-61 0 -137 -89 -179 -160z" />
    <glyph glyph-name="acircumflex" unicode="&#xe2;" horiz-adv-x="663" 
d="M528 824h48l23 -64l98 -131h-55l-120 99l-170 -99h-55l169 131zM594 446l9 79h52l-73 -525h-91l22 82c-56 -65 -137 -96 -218 -96c-158 0 -230 115 -161 265c71 153 183 274 275 274c71 0 164 -21 185 -79zM248 290c-63 -107 -72 -158 78 -158c183 0 195 32 230 161
c40 149 -61 157 -129 157c-61 0 -137 -89 -179 -160z" />
    <glyph glyph-name="uni1EA5" unicode="&#x1ea5;" horiz-adv-x="663" 
d="M516 845h48l23 -64l98 -131h-55l-120 99l-170 -99h-55l169 131zM903 844h52l-93 -154h-77zM594 446l9 79h52l-73 -525h-91l22 82c-56 -65 -137 -96 -218 -96c-158 0 -230 115 -161 265c71 153 183 274 275 274c71 0 164 -21 185 -79zM248 290c-63 -107 -72 -158 78 -158
c183 0 195 32 230 161c40 149 -61 157 -129 157c-61 0 -137 -89 -179 -160z" />
    <glyph glyph-name="uni1EAD" unicode="&#x1ead;" horiz-adv-x="663" 
d="M516 845h48l23 -64l98 -131h-55l-120 99l-170 -99h-55l169 131zM594 446l9 79h52l-73 -525h-91l22 82c-56 -65 -137 -96 -218 -96c-158 0 -230 115 -161 265c71 153 183 274 275 274c71 0 164 -21 185 -79zM248 290c-63 -107 -72 -158 78 -158c183 0 195 32 230 161
c40 149 -61 157 -129 157c-61 0 -137 -89 -179 -160zM249 -49h102l-27 -101h-102z" />
    <glyph glyph-name="uni1EA7" unicode="&#x1ea7;" horiz-adv-x="663" 
d="M867 737l-87 112h79l139 -127zM516 845h48l23 -64l98 -131h-55l-120 99l-170 -99h-55l169 131zM594 446l9 79h52l-73 -525h-91l22 82c-56 -65 -137 -96 -218 -96c-158 0 -230 115 -161 265c71 153 183 274 275 274c71 0 164 -21 185 -79zM248 290
c-63 -107 -72 -158 78 -158c183 0 195 32 230 161c40 149 -61 157 -129 157c-61 0 -137 -89 -179 -160z" />
    <glyph glyph-name="uni1EA9" unicode="&#x1ea9;" horiz-adv-x="1225" 
d="M762 811l-6 -21c19 8 34 13 49 13c23 0 31 -8 29 -14s-8 -11 -16 -17l-13 -9c-10 -7 -17 -9 -21 -15c-3 -4 -5 -10 -7 -16l-1 -3h29c1 5 3 9 5 12c1 1 4 4 11 8l13 7c18 10 28 21 30 31s-1 20 -10 26c-8 6 -20 10 -37 10c-16 0 -35 -4 -55 -12zM685 752h48l23 -64
l98 -131h-55l-120 99l-170 -99h-55l169 131zM822 446l9 79h52l-73 -525h-91l22 82c-56 -65 -137 -96 -218 -96c-158 0 -230 115 -161 265c71 153 183 274 275 274c71 0 164 -21 185 -79zM476 290c-63 -107 -72 -158 78 -158c183 0 195 32 230 161c40 149 -61 157 -129 157
c-61 0 -137 -89 -179 -160z" />
    <glyph glyph-name="uni1EAB" unicode="&#x1eab;" horiz-adv-x="663" 
d="M454 891c39 117 63 150 135 150c67 0 57 -100 102 -100c50 0 53 51 68 100h46c-41 -146 -73 -151 -127 -150c-72 1 -64 104 -101 105c-39 1 -56 -62 -68 -105h-55zM583 856h48l23 -64l98 -131h-55l-120 99l-170 -99h-55l169 131zM594 446l9 79h52l-73 -525h-91l22 82
c-56 -65 -137 -96 -218 -96c-158 0 -230 115 -161 265c71 153 183 274 275 274c71 0 164 -21 185 -79zM248 290c-63 -107 -72 -158 78 -158c183 0 195 32 230 161c40 149 -61 157 -129 157c-61 0 -137 -89 -179 -160z" />
    <glyph glyph-name="adieresis" unicode="&#xe4;" horiz-adv-x="663" 
d="M370 778h102l-27 -101h-102zM645 778h102l-27 -101h-102zM594 446l9 79h52l-73 -525h-91l22 82c-56 -65 -137 -96 -218 -96c-158 0 -230 115 -161 265c71 153 183 274 275 274c71 0 164 -21 185 -79zM248 290c-63 -107 -72 -158 78 -158c183 0 195 32 230 161
c40 149 -61 157 -129 157c-61 0 -137 -89 -179 -160z" />
    <glyph glyph-name="uni01DF" unicode="&#x1df;" horiz-adv-x="663" 
d="M387 860l396 24l9 -77l-455 -17zM351 708h102l-27 -101h-102zM626 708h102l-27 -101h-102zM594 446l9 79h52l-73 -525h-91l22 82c-56 -65 -137 -96 -218 -96c-158 0 -230 115 -161 265c71 153 183 274 275 274c71 0 164 -21 185 -79zM248 290c-63 -107 -72 -158 78 -158
c183 0 195 32 230 161c40 149 -61 157 -129 157c-61 0 -137 -89 -179 -160z" />
    <glyph glyph-name="uni1EA1" unicode="&#x1ea1;" horiz-adv-x="663" 
d="M594 446l9 79h52l-73 -525h-91l22 82c-56 -65 -137 -96 -218 -96c-158 0 -230 115 -161 265c71 153 183 274 275 274c71 0 164 -21 185 -79zM248 290c-63 -107 -72 -158 78 -158c183 0 195 32 230 161c40 149 -61 157 -129 157c-61 0 -137 -89 -179 -160zM249 -49h102
l-27 -101h-102z" />
    <glyph glyph-name="agrave" unicode="&#xe0;" horiz-adv-x="663" 
d="M481 693l-87 112h79l139 -127zM594 446l9 79h52l-73 -525h-91l22 82c-56 -65 -137 -96 -218 -96c-158 0 -230 115 -161 265c71 153 183 274 275 274c71 0 164 -21 185 -79zM248 290c-63 -107 -72 -158 78 -158c183 0 195 32 230 161c40 149 -61 157 -129 157
c-61 0 -137 -89 -179 -160z" />
    <glyph glyph-name="uni1EA3" unicode="&#x1ea3;" horiz-adv-x="663" 
d="M492 751l-6 -21c19 8 34 13 49 13c23 0 31 -8 29 -14s-8 -11 -16 -17l-13 -9c-10 -7 -17 -9 -21 -15c-3 -4 -5 -10 -7 -16l-1 -3h29c1 5 3 9 5 12c1 1 4 4 11 8l13 7c18 10 28 21 30 31s-1 20 -10 26c-8 6 -20 10 -37 10c-16 0 -35 -4 -55 -12zM594 446l9 79h52l-73 -525
h-91l22 82c-56 -65 -137 -96 -218 -96c-158 0 -230 115 -161 265c71 153 183 274 275 274c71 0 164 -21 185 -79zM248 290c-63 -107 -72 -158 78 -158c183 0 195 32 230 161c40 149 -61 157 -129 157c-61 0 -137 -89 -179 -160z" />
    <glyph glyph-name="uni0251" unicode="&#x251;" horiz-adv-x="663" 
d="M594 446l9 79h52l-73 -525h-91l22 82c-56 -65 -137 -96 -218 -96c-158 0 -230 115 -161 265c71 153 183 274 275 274c71 0 164 -21 185 -79zM248 290c-63 -107 -72 -158 78 -158c183 0 195 32 230 161c40 149 -61 157 -129 157c-61 0 -137 -89 -179 -160z" />
    <glyph glyph-name="uni0252" unicode="&#x252;" horiz-adv-x="663" 
d="M69 114l-9 -79h-52l73 525h91l-22 -82c56 65 137 96 218 96c158 0 230 -115 161 -265c-71 -153 -183 -274 -275 -274c-71 0 -164 21 -185 79zM415 270c63 107 72 158 -78 158c-183 0 -195 -32 -230 -161c-40 -149 61 -157 129 -157c61 0 137 89 179 160z" />
    <glyph glyph-name="amacron" unicode="&#x101;" horiz-adv-x="663" 
d="M361 768l396 24l9 -77l-455 -17zM594 446l9 79h52l-73 -525h-91l22 82c-56 -65 -137 -96 -218 -96c-158 0 -230 115 -161 265c71 153 183 274 275 274c71 0 164 -21 185 -79zM248 290c-63 -107 -72 -158 78 -158c183 0 195 32 230 161c40 149 -61 157 -129 157
c-61 0 -137 -89 -179 -160z" />
    <glyph glyph-name="aogonek" unicode="&#x105;" horiz-adv-x="663" 
d="M519 0c-44 -36 -68 -63 -73 -81c-5 -20 12 -31 54 -31c15 0 35 2 57 5c-3 -20 -6 -53 -8 -70c-117 -2 -177 30 -162 86c9 34 45 75 112 122l14 51c-56 -65 -137 -96 -218 -96c-158 0 -230 115 -161 265c71 153 183 274 275 274c71 0 164 -21 185 -79l9 79h52l-73 -525
h-63zM326 132c183 0 195 32 230 161c40 149 -61 157 -129 157c-61 0 -137 -89 -179 -160c-63 -107 -72 -158 78 -158z" />
    <glyph glyph-name="aring" unicode="&#xe5;" horiz-adv-x="663" 
d="M534 687c-50 0 -79 43 -65 96c14 52 66 95 116 95c51 0 80 -43 66 -95c-14 -53 -66 -96 -117 -96zM549 742c28 0 52 1 66 54c8 29 -9 53 -37 53c-29 0 -58 -24 -66 -53c-14 -53 9 -54 37 -54zM594 446l9 79h52l-73 -525h-91l22 82c-56 -65 -137 -96 -218 -96
c-158 0 -230 115 -161 265c71 153 183 274 275 274c71 0 164 -21 185 -79zM248 290c-63 -107 -72 -158 78 -158c183 0 195 32 230 161c40 149 -61 157 -129 157c-61 0 -137 -89 -179 -160z" />
    <glyph glyph-name="atilde" unicode="&#xe3;" horiz-adv-x="663" 
d="M324 686c39 117 63 150 135 150c67 0 57 -100 102 -100c50 0 53 51 68 100h46c-41 -146 -73 -151 -127 -150c-72 1 -64 104 -101 105c-39 1 -56 -62 -68 -105h-55zM594 446l9 79h52l-73 -525h-91l22 82c-56 -65 -137 -96 -218 -96c-158 0 -230 115 -161 265
c71 153 183 274 275 274c71 0 164 -21 185 -79zM248 290c-63 -107 -72 -158 78 -158c183 0 195 32 230 161c40 149 -61 157 -129 157c-61 0 -137 -89 -179 -160z" />
    <glyph glyph-name="uni0250" unicode="&#x250;" horiz-adv-x="663" 
d="M69 114l-9 -79h-52l73 525h91l-22 -82c56 65 137 96 218 96c158 0 230 -115 161 -265c-71 -153 -183 -274 -275 -274c-71 0 -164 21 -185 79zM415 270c63 107 72 158 -78 158c-183 0 -195 -32 -230 -161c-40 -149 61 -157 129 -157c61 0 137 89 179 160z" />
    <glyph glyph-name="ae" unicode="&#xe6;" horiz-adv-x="1058" 
d="M1062 315l-424 -28c-26 -95 22 -182 163 -175c76 4 122 33 208 66l-33 -150c-73 -28 -142 -42 -214 -42c-77 0 -136 21 -174 59l-6 -45h-91l22 82c-56 -65 -137 -96 -218 -96c-158 0 -230 115 -161 265c71 153 183 274 275 274c71 0 164 -21 185 -79l9 79h52l-12 -84
c66 76 154 120 258 120c110 -9 177 -65 161 -246zM888 498c-101 0 -186 -67 -204 -133l317 20c6 61 -23 113 -113 113zM326 132c183 0 195 32 230 161c40 149 -61 157 -129 157c-61 0 -137 -89 -179 -160c-63 -107 -72 -158 78 -158z" />
    <glyph glyph-name="b" unicode="b" horiz-adv-x="660" 
d="M348 -15c-78 0 -177 42 -184 114c-9 45 62 340 129 703h115l-65 -288c-14 -61 32 34 141 38c133 5 201 -105 158 -279c-40 -164 -160 -288 -294 -288zM412 146c82 6 133 45 167 147c40 119 6 175 -81 175c-96 0 -168 -74 -201 -179c-26 -82 -16 -143 115 -143z" />
    <glyph glyph-name="uni1E03" unicode="&#x1e03;" horiz-adv-x="660" 
d="M539 982h102l-27 -101h-102zM348 -15c-78 0 -177 42 -184 114c-9 45 62 340 129 703h115l-65 -288c-14 -61 32 34 141 38c133 5 201 -105 158 -279c-40 -164 -160 -288 -294 -288zM412 146c82 6 133 45 167 147c40 119 6 175 -81 175c-96 0 -168 -74 -201 -179
c-26 -82 -16 -143 115 -143z" />
    <glyph glyph-name="uni1E05" unicode="&#x1e05;" horiz-adv-x="660" 
d="M348 -15c-78 0 -177 42 -184 114c-9 45 62 340 129 703h115l-65 -288c-14 -61 32 34 141 38c133 5 201 -105 158 -279c-40 -164 -160 -288 -294 -288zM412 146c82 6 133 45 167 147c40 119 6 175 -81 175c-96 0 -168 -74 -201 -179c-26 -82 -16 -143 115 -143zM253 -96
h102l-27 -101h-102z" />
    <glyph glyph-name="uni0253" unicode="&#x253;" horiz-adv-x="643" 
d="M484 552c133 5 201 -105 158 -279c-40 -164 -160 -288 -294 -288c-78 0 -177 42 -184 114c-9 45 62 340 129 703h10c24 88 113 192 252 203c-12 -53 -18 -77 -34 -130c-61 -5 -103 -35 -128 -73h15l-65 -288c-14 -61 32 34 141 38zM579 293c40 119 6 175 -81 175
c-96 0 -168 -74 -201 -179c-26 -82 -16 -143 115 -143c82 6 133 45 167 147z" />
    <glyph glyph-name="uni02AD" unicode="&#x2ad;" horiz-adv-x="448" 
d="M502 504l-41 -154h-70l26 94h-148l-25 -94h-70l41 154h287zM411 162l-41 -154h-70l26 94h-148l-25 -94h-70l41 154h287z" />
    <glyph glyph-name="uni0298" unicode="&#x298;" horiz-adv-x="843" 
d="M418 -14c-234 2 -323 68 -240 378c62 230 236 378 443 378s306 -148 239 -378c-90 -310 -186 -380 -442 -378zM469 173c144 0 246 40 286 191c49 184 -8 308 -153 308c-144 0 -269 -124 -319 -308c-40 -151 41 -191 186 -191zM353 -72h102l-27 -101h-102z" />
    <glyph glyph-name="uni02AC" unicode="&#x2ac;" horiz-adv-x="617" 
d="M272 384l14 344h55v-223l121 139h38l46 -139l127 223h56l-179 -344h-78l-30 116l-95 -116h-75zM169 0l14 344h55v-222l121 138h38l46 -138l127 222h56l-179 -344h-78l-30 116l-95 -116h-75z" />
    <glyph glyph-name="uni1D6C" unicode="&#x1d6c;" horiz-adv-x="660" 
d="M484 552c133 5 201 -105 158 -279c-40 -164 -160 -288 -294 -288c-78 0 -177 42 -184 114c-7 36 36 227 87 485c-9 22 -17 42 -33 42c-39 1 -56 -62 -68 -105h-55c39 117 63 150 135 150c15 0 27 -5 36 -13c9 46 18 94 27 144h115l-51 -225c27 15 31 55 43 94h46
c-34 -121 -62 -145 -101 -149l-2 -8c-14 -61 32 34 141 38zM579 293c40 119 6 175 -81 175c-96 0 -168 -74 -201 -179c-26 -82 -16 -143 115 -143c82 6 133 45 167 147z" />
    <glyph glyph-name="c" unicode="c" horiz-adv-x="599" 
d="M595 548l-19 -71c-29 10 -74 12 -103 12c-118 0 -182 -83 -218 -216c-25 -130 73 -200 195 -138l74 -114c-57 -23 -115 -39 -175 -35c-206 14 -242 111 -195 287c48 178 187 287 359 287c27 0 63 -5 82 -12z" />
    <glyph glyph-name="cacute" unicode="&#x107;" horiz-adv-x="599" 
d="M543 760h52l-93 -154h-77zM595 548l-19 -71c-29 10 -74 12 -103 12c-118 0 -182 -83 -218 -216c-25 -130 73 -200 195 -138l74 -114c-57 -23 -115 -39 -175 -35c-206 14 -242 111 -195 287c48 178 187 287 359 287c27 0 63 -5 82 -12z" />
    <glyph glyph-name="ccaron" unicode="&#x10d;" horiz-adv-x="599" 
d="M429 603l-28 64l-99 131h55l117 -99l173 99h55l-168 -131l-57 -64h-48zM595 548l-19 -71c-29 10 -74 12 -103 12c-118 0 -182 -83 -218 -216c-25 -130 73 -200 195 -138l74 -114c-57 -23 -115 -39 -175 -35c-206 14 -242 111 -195 287c48 178 187 287 359 287
c27 0 63 -5 82 -12z" />
    <glyph glyph-name="ccedilla" unicode="&#xe7;" horiz-adv-x="599" 
d="M473 489c-118 0 -182 -83 -218 -216c-25 -130 73 -200 195 -138l74 -114c-57 -23 -115 -39 -175 -35c-6 0 -12 1 -18 2l-37 -58h31c40 0 97 -16 71 -76c-22 -49 -69 -78 -126 -78h-63l25 53c22 -5 30 -5 53 -5c36 0 70 19 75 35c11 44 -26 46 -52 46c-17 0 -38 -2 -63 -5
l56 91c-163 26 -190 121 -147 282c48 178 187 287 359 287c27 0 63 -5 82 -12l-19 -71c-29 10 -74 12 -103 12z" />
    <glyph glyph-name="uni0255" unicode="&#x255;" horiz-adv-x="693" 
d="M620 298c41 -35 52 -75 41 -115c-23 -84 -140 -167 -251 -190c-1 -1 -1 -2 -1 -3c-13 -65 -26 -127 -42 -190h-112c17 62 34 124 51 188c-170 15 -196 122 -152 285c48 178 187 287 359 287c27 0 63 -5 82 -12l-19 -71c-29 10 -74 12 -103 12c-118 0 -182 -83 -218 -216
c-17 -66 -14 -164 80 -175l21 78c25 93 95 158 171 158c31 0 64 -11 93 -36zM563 197c2 9 1 17 -5 23c-13 12 -27 19 -41 19c-28 0 -56 -26 -72 -87c-4 -15 -8 -30 -11 -44c71 19 121 60 129 89z" />
    <glyph glyph-name="cdotaccent" unicode="&#x10b;" horiz-adv-x="599" 
d="M461 729h102l-27 -101h-102zM595 548l-19 -71c-29 10 -74 12 -103 12c-118 0 -182 -83 -218 -216c-25 -130 73 -200 195 -138l74 -114c-57 -23 -115 -39 -175 -35c-206 14 -242 111 -195 287c48 178 187 287 359 287c27 0 63 -5 82 -12z" />
    <glyph glyph-name="uniAB53" unicode="&#xab53;" horiz-adv-x="764" 
d="M530 6c11 -53 42 -66 144 -66l-33 -123c-163 0 -194 0 -214 101l-29 153l-224 -254l-148 2l352 357l-19 97c-6 29 -32 115 -157 115l28 105c174 0 215 -120 222 -149l17 -75l214 217h81l-273 -310z" />
    <glyph glyph-name="uni0188" unicode="&#x188;" horiz-adv-x="599" 
d="M608 681c34 43 60 46 187 45l-23 -33c-68 0 -72 -1 -85 -19l-9 -12h1l-87 -124l-16 -61c-29 10 -74 12 -103 12c-118 0 -182 -83 -218 -216c-25 -130 73 -200 195 -138l74 -114c-57 -23 -115 -39 -175 -35c-206 14 -242 111 -195 287c48 178 187 287 359 287h9l56 81
c19 27 15 21 30 40z" />
    <glyph glyph-name="d" unicode="d" horiz-adv-x="673" 
d="M602 440l113 362h91l-175 -567l-52 -237l-95 2l22 82c-55 -65 -121 -93 -203 -96c-160 -5 -195 115 -149 287c40 148 163 263 297 263c80 0 131 -31 151 -96zM222 283c-25 -95 20 -134 116 -134s151 20 183 141c29 108 2 181 -94 181c-97 0 -176 -80 -205 -188z" />
    <glyph glyph-name="eth" unicode="&#xf0;" horiz-adv-x="844" 
d="M916 572l-24 -91h-155l-50 -117c-101 -240 -194 -378 -364 -378c-148 0 -220 98 -179 248c40 153 158 248 306 248c70 0 133 -26 147 -146c25 58 47 102 64 145h-164l25 91h171c5 19 9 38 13 60c12 72 -34 88 -108 88l49 67c59 0 173 -19 144 -131
c-9 -36 -16 -62 -23 -84h148zM535 234c11 92 -11 170 -100 170s-163 -65 -192 -170c-17 -66 25 -118 115 -118c89 0 170 54 177 118z" />
    <glyph glyph-name="dcaron" unicode="&#x10f;" horiz-adv-x="673" 
d="M602 440l113 362h91l-175 -567l-52 -237l-95 2l22 82c-55 -65 -121 -93 -203 -96c-160 -5 -195 115 -149 287c40 148 163 263 297 263c80 0 131 -31 151 -96zM926 556h-96l85 213h80zM222 283c-25 -95 20 -134 116 -134s151 20 183 141c29 108 2 181 -94 181
c-97 0 -176 -80 -205 -188z" />
    <glyph glyph-name="uni1E13" unicode="&#x1e13;" horiz-adv-x="673" 
d="M602 440l113 362h91l-175 -567l-52 -237l-95 2l22 82c-55 -65 -121 -93 -203 -96c-160 -5 -195 115 -149 287c40 148 163 263 297 263c80 0 131 -31 151 -96zM222 283c-25 -95 20 -134 116 -134s151 20 183 141c29 108 2 181 -94 181c-97 0 -176 -80 -205 -188zM316 -70
h48l23 -64l98 -131h-55l-120 99l-170 -99h-55l169 131z" />
    <glyph glyph-name="dcroat" unicode="&#x111;" horiz-adv-x="673" 
d="M908 671l-24 -91h-147l-106 -345l-52 -237l-95 2l22 82c-55 -65 -121 -93 -203 -96c-160 -5 -195 115 -149 287c40 148 163 263 297 263c80 0 131 -31 151 -96l44 140h-157l25 91h160l41 131h91l-40 -131h142zM521 290c29 108 2 181 -94 181c-97 0 -176 -80 -205 -188
c-25 -95 20 -134 116 -134s151 20 183 141z" />
    <glyph glyph-name="uni1E0B" unicode="&#x1e0b;" horiz-adv-x="673" 
d="M602 440l113 362h91l-175 -567l-52 -237l-95 2l22 82c-55 -65 -121 -93 -203 -96c-160 -5 -195 115 -149 287c40 148 163 263 297 263c80 0 131 -31 151 -96zM451 742h102l-27 -101h-102zM222 283c-25 -95 20 -134 116 -134s151 20 183 141c29 108 2 181 -94 181
c-97 0 -176 -80 -205 -188z" />
    <glyph glyph-name="uni1E0D" unicode="&#x1e0d;" horiz-adv-x="673" 
d="M602 440l113 362h91l-175 -567l-52 -237l-95 2l22 82c-55 -65 -121 -93 -203 -96c-160 -5 -195 115 -149 287c40 148 163 263 297 263c80 0 131 -31 151 -96zM222 283c-25 -95 20 -134 116 -134s151 20 183 141c29 108 2 181 -94 181c-97 0 -176 -80 -205 -188zM225 -92
h102l-27 -101h-102z" />
    <glyph glyph-name="uni02A4" unicode="&#x2a4;" horiz-adv-x="673" 
d="M1185 645c-6 -69 -8 -69 -19 -140c-118 -100 -149 -121 -266 -213c119 -9 198 -111 181 -207c-30 -164 -107 -307 -323 -307c-33 0 -160 -2 -255 123l156 104c106 -138 264 -50 301 99c14 79 -91 119 -236 106l25 93c142 105 207 143 330 248c-102 -1 -220 -1 -351 0
l-97 -316l-52 -237l-95 2l22 82c-55 -65 -121 -93 -203 -96c-160 -5 -195 115 -149 287c40 148 163 263 297 263c80 0 131 -31 151 -96l113 362h91l-48 -157c126 1 359 3 427 0zM521 290c29 108 2 181 -94 181c-97 0 -176 -80 -205 -188c-25 -95 20 -134 116 -134
s151 20 183 141z" />
    <glyph glyph-name="uni0257" unicode="&#x257;" horiz-adv-x="673" 
d="M716 802c39 79 121 157 230 157c-16 -53 -24 -77 -44 -129c-42 0 -75 -17 -100 -42l-171 -553l-52 -237l-95 2l22 82c-55 -65 -121 -93 -203 -96c-160 -5 -195 115 -149 287c40 148 163 263 297 263c80 0 131 -31 151 -96l82 263c5 20 10 36 14 51c4 13 8 27 15 41l2 7h1
zM521 290c29 108 2 181 -94 181c-97 0 -176 -80 -205 -188c-25 -95 20 -134 116 -134s151 20 183 141z" />
    <glyph glyph-name="uni1E0F" unicode="&#x1e0f;" horiz-adv-x="673" 
d="M602 440l113 362h91l-175 -567l-52 -237l-95 2l22 82c-55 -65 -121 -93 -203 -96c-160 -5 -195 115 -149 287c40 148 163 263 297 263c80 0 131 -31 151 -96zM222 283c-25 -95 20 -134 116 -134s151 20 183 141c29 108 2 181 -94 181c-97 0 -176 -80 -205 -188zM124 -98
l315 18l7 -57l-361 -13z" />
    <glyph glyph-name="uni1D6D" unicode="&#x1d6d;" horiz-adv-x="656" 
d="M602 440l113 362h91l-175 -567l-52 -237l-95 2l22 82c-55 -65 -121 -93 -203 -96c-160 -5 -195 115 -149 287c40 148 163 263 297 263c80 0 131 -31 151 -96zM311 595c39 117 63 150 135 150c67 0 57 -100 102 -100c50 0 53 51 68 100h46c-41 -146 -73 -151 -127 -150
c-72 1 -64 104 -101 105c-39 1 -56 -62 -68 -105h-55zM222 283c-25 -95 20 -134 116 -134s151 20 183 141c29 108 2 181 -94 181c-97 0 -176 -80 -205 -188z" />
    <glyph glyph-name="uni0256" unicode="&#x256;" horiz-adv-x="673" 
d="M583 17c13 -19 36 -31 72 -31c-8 -52 -13 -76 -26 -129c-131 0 -162 114 -138 205c0 1 1 3 1 5c-52 -54 -114 -78 -189 -81c-160 -5 -195 115 -149 287c40 148 163 263 297 263c80 0 131 -31 151 -96l113 362h91l-175 -567zM338 149c96 0 151 20 183 141
c29 108 2 181 -94 181c-97 0 -176 -80 -205 -188c-25 -95 20 -134 116 -134z" />
    <glyph glyph-name="uni01F3" unicode="&#x1f3;" horiz-adv-x="673" 
d="M602 440l113 362h91l-175 -567l-52 -237l-95 2l22 82c-55 -65 -121 -93 -203 -96c-160 -5 -195 115 -149 287c40 148 163 263 297 263c80 0 131 -31 151 -96zM798 469l18 67h413l-5 -67l-452 -361h288l25 -121h-506l59 131l476 351h-316zM222 283
c-25 -95 20 -134 116 -134s151 20 183 141c29 108 2 181 -94 181c-97 0 -176 -80 -205 -188z" />
    <glyph glyph-name="uni02A3" unicode="&#x2a3;" horiz-adv-x="1179" 
d="M1228 536l-5 -67l-452 -361h288l25 -121h-506l59 131l476 351h-410l-72 -234l-52 -237l-95 2l22 82c-55 -65 -121 -93 -203 -96c-160 -5 -195 115 -149 287c40 148 163 263 297 263c80 0 131 -31 151 -96l113 362h91l-82 -266h504zM521 290c29 108 2 181 -94 181
c-97 0 -176 -80 -205 -188c-25 -95 20 -134 116 -134s151 20 183 141z" />
    <glyph glyph-name="uni01C6" unicode="&#x1c6;" horiz-adv-x="673" 
d="M602 440l113 362h91l-175 -567l-52 -237l-95 2l22 82c-55 -65 -121 -93 -203 -96c-160 -5 -195 115 -149 287c40 148 163 263 297 263c80 0 131 -31 151 -96zM959 590l-28 64l-99 131h55l117 -99l173 99h55l-168 -131l-57 -64h-48zM798 469l18 67h413l-5 -67l-452 -361
h288l25 -121h-506l59 131l476 351h-316zM222 283c-25 -95 20 -134 116 -134s151 20 183 141c29 108 2 181 -94 181c-97 0 -176 -80 -205 -188z" />
    <glyph glyph-name="uni02A5" unicode="&#x2a5;" horiz-adv-x="1241" 
d="M1234 481l-452 -361h168c59 122 121 157 201 134c130 -36 4 -255 -129 -255h-23c-16 -50 -35 -113 -56 -193h-100c20 74 39 139 58 193h-312l59 131l476 351h-417l-76 -246l-52 -237l-95 2l22 82c-55 -65 -121 -93 -203 -96c-160 -5 -195 115 -149 287
c40 148 163 263 297 263c80 0 131 -31 151 -96l113 362h91l-78 -254h511zM521 290c29 108 2 181 -94 181c-97 0 -176 -80 -205 -188c-25 -95 20 -134 116 -134s151 20 183 141zM1104 168c-12 12 -29 13 -58 -47c71 5 66 38 58 47z" />
    <glyph glyph-name="e" unicode="e" horiz-adv-x="661" 
d="M664 315l-424 -28c-26 -95 22 -182 163 -175c76 4 122 33 208 66l-33 -150c-73 -28 -142 -42 -214 -42c-176 0 -258 109 -211 282c55 179 183 293 350 293c110 -9 177 -65 161 -246zM286 365l317 20c6 61 -23 113 -113 113c-101 0 -186 -67 -204 -133z" />
    <glyph glyph-name="eacute" unicode="&#xe9;" horiz-adv-x="661" 
d="M664 315l-424 -28c-26 -95 22 -182 163 -175c76 4 122 33 208 66l-33 -150c-66 -25 -128 -39 -193 -42l-91 -151h-77l117 152c-155 12 -225 118 -181 281c55 179 183 293 350 293c110 -9 177 -65 161 -246zM490 498c-101 0 -186 -67 -204 -133l317 20
c6 61 -23 113 -113 113z" />
    <glyph glyph-name="ebreve" unicode="&#x115;" horiz-adv-x="661" 
d="M693 825h65c-33 -123 -148 -197 -256 -197s-174 74 -141 197h66c-24 -88 21 -102 101 -102c94 0 141 15 165 102zM664 315l-424 -28c-26 -95 22 -182 163 -175c76 4 122 33 208 66l-33 -150c-73 -28 -142 -42 -214 -42c-176 0 -258 109 -211 282c55 179 183 293 350 293
c110 -9 177 -65 161 -246zM286 365l317 20c6 61 -23 113 -113 113c-101 0 -186 -67 -204 -133z" />
    <glyph glyph-name="ecaron" unicode="&#x11b;" horiz-adv-x="661" 
d="M462 655l-28 64l-99 131h55l117 -99l173 99h55l-168 -131l-57 -64h-48zM664 315l-424 -28c-26 -95 22 -182 163 -175c76 4 122 33 208 66l-33 -150c-73 -28 -142 -42 -214 -42c-176 0 -258 109 -211 282c55 179 183 293 350 293c110 -9 177 -65 161 -246zM286 365l317 20
c6 61 -23 113 -113 113c-101 0 -186 -67 -204 -133z" />
    <glyph glyph-name="uni0229" unicode="&#x229;" horiz-adv-x="661" 
d="M664 315l-424 -28c-26 -95 22 -182 163 -175c76 4 122 33 208 66l-33 -150c-73 -28 -142 -42 -214 -42l-42 -66h31c40 0 97 -16 71 -76c-22 -49 -69 -78 -126 -78h-63l25 53c22 -5 30 -5 53 -5c36 0 70 19 75 35c11 44 -26 46 -52 46c-17 0 -38 -2 -63 -5l59 97
c-154 13 -223 119 -179 281c55 179 183 293 350 293c110 -9 177 -65 161 -246zM490 498c-101 0 -186 -67 -204 -133l317 20c6 61 -23 113 -113 113z" />
    <glyph glyph-name="ecircumflex" unicode="&#xea;" horiz-adv-x="661" 
d="M508 787h48l23 -64l98 -131h-55l-120 99l-170 -99h-55l169 131zM664 315l-424 -28c-26 -95 22 -182 163 -175c76 4 122 33 208 66l-33 -150c-73 -28 -142 -42 -214 -42c-176 0 -258 109 -211 282c55 179 183 293 350 293c110 -9 177 -65 161 -246zM286 365l317 20
c6 61 -23 113 -113 113c-101 0 -186 -67 -204 -133z" />
    <glyph glyph-name="uni1EBF" unicode="&#x1ebf;" horiz-adv-x="661" 
d="M496 808h48l23 -64l98 -131h-55l-120 99l-170 -99h-55l169 131zM883 807h52l-93 -154h-77zM664 315l-424 -28c-26 -95 22 -182 163 -175c76 4 122 33 208 66l-33 -150c-73 -28 -142 -42 -214 -42c-176 0 -258 109 -211 282c55 179 183 293 350 293
c110 -9 177 -65 161 -246zM286 365l317 20c6 61 -23 113 -113 113c-101 0 -186 -67 -204 -133z" />
    <glyph glyph-name="uni1EC7" unicode="&#x1ec7;" horiz-adv-x="661" 
d="M496 808h48l23 -64l98 -131h-55l-120 99l-170 -99h-55l169 131zM664 315l-424 -28c-26 -95 22 -182 163 -175c76 4 122 33 208 66l-33 -150c-73 -28 -142 -42 -214 -42c-176 0 -258 109 -211 282c55 179 183 293 350 293c110 -9 177 -65 161 -246zM286 365l317 20
c6 61 -23 113 -113 113c-101 0 -186 -67 -204 -133zM307 -48h102l-27 -101h-102z" />
    <glyph glyph-name="uni1EC1" unicode="&#x1ec1;" horiz-adv-x="661" 
d="M847 700l-87 112h79l139 -127zM496 808h48l23 -64l98 -131h-55l-120 99l-170 -99h-55l169 131zM664 315l-424 -28c-26 -95 22 -182 163 -175c76 4 122 33 208 66l-33 -150c-73 -28 -142 -42 -214 -42c-176 0 -258 109 -211 282c55 179 183 293 350 293
c110 -9 177 -65 161 -246zM286 365l317 20c6 61 -23 113 -113 113c-101 0 -186 -67 -204 -133z" />
    <glyph glyph-name="uni1EC3" unicode="&#x1ec3;" horiz-adv-x="661" 
d="M600 852l-6 -21c19 8 34 13 49 13c23 0 31 -8 29 -14s-8 -11 -16 -17l-13 -9c-10 -7 -17 -9 -21 -15c-3 -4 -5 -10 -7 -16l-1 -3h29c1 5 3 9 5 12c1 1 4 4 11 8l13 7c18 10 28 21 30 31s-1 20 -10 26c-8 6 -20 10 -37 10c-16 0 -35 -4 -55 -12zM523 793h48l23 -64
l98 -131h-55l-120 99l-170 -99h-55l169 131zM664 315l-424 -28c-26 -95 22 -182 163 -175c76 4 122 33 208 66l-33 -150c-73 -28 -142 -42 -214 -42c-176 0 -258 109 -211 282c55 179 183 293 350 293c110 -9 177 -65 161 -246zM286 365l317 20c6 61 -23 113 -113 113
c-101 0 -186 -67 -204 -133z" />
    <glyph glyph-name="uni1EC5" unicode="&#x1ec5;" horiz-adv-x="661" 
d="M434 854c39 117 63 150 135 150c67 0 57 -100 102 -100c50 0 53 51 68 100h46c-41 -146 -73 -151 -127 -150c-72 1 -64 104 -101 105c-39 1 -56 -62 -68 -105h-55zM563 819h48l23 -64l98 -131h-55l-120 99l-170 -99h-55l169 131zM664 315l-424 -28
c-26 -95 22 -182 163 -175c76 4 122 33 208 66l-33 -150c-73 -28 -142 -42 -214 -42c-176 0 -258 109 -211 282c55 179 183 293 350 293c110 -9 177 -65 161 -246zM286 365l317 20c6 61 -23 113 -113 113c-101 0 -186 -67 -204 -133z" />
    <glyph glyph-name="edieresis" unicode="&#xeb;" horiz-adv-x="661" 
d="M350 741h102l-27 -101h-102zM625 741h102l-27 -101h-102zM664 315l-424 -28c-26 -95 22 -182 163 -175c76 4 122 33 208 66l-33 -150c-73 -28 -142 -42 -214 -42c-176 0 -258 109 -211 282c55 179 183 293 350 293c110 -9 177 -65 161 -246zM286 365l317 20
c6 61 -23 113 -113 113c-101 0 -186 -67 -204 -133z" />
    <glyph glyph-name="edotaccent" unicode="&#x117;" horiz-adv-x="661" 
d="M494 781h102l-27 -101h-102zM664 315l-424 -28c-26 -95 22 -182 163 -175c76 4 122 33 208 66l-33 -150c-73 -28 -142 -42 -214 -42c-176 0 -258 109 -211 282c55 179 183 293 350 293c110 -9 177 -65 161 -246zM286 365l317 20c6 61 -23 113 -113 113
c-101 0 -186 -67 -204 -133z" />
    <glyph glyph-name="uni1EB9" unicode="&#x1eb9;" horiz-adv-x="661" 
d="M664 315l-424 -28c-26 -95 22 -182 163 -175c76 4 122 33 208 66l-33 -150c-73 -28 -142 -42 -214 -42c-176 0 -258 109 -211 282c55 179 183 293 350 293c110 -9 177 -65 161 -246zM286 365l317 20c6 61 -23 113 -113 113c-101 0 -186 -67 -204 -133zM307 -48h102
l-27 -101h-102z" />
    <glyph glyph-name="egrave" unicode="&#xe8;" horiz-adv-x="661" 
d="M461 656l-87 112h79l139 -127zM664 315l-424 -28c-26 -95 22 -182 163 -175c76 4 122 33 208 66l-33 -150c-73 -28 -142 -42 -214 -42c-176 0 -258 109 -211 282c55 179 183 293 350 293c110 -9 177 -65 161 -246zM286 365l317 20c6 61 -23 113 -113 113
c-101 0 -186 -67 -204 -133z" />
    <glyph glyph-name="uni1EBB" unicode="&#x1ebb;" horiz-adv-x="661" 
d="M472 714l-6 -21c19 8 34 13 49 13c23 0 31 -8 29 -14s-8 -11 -16 -17l-13 -9c-10 -7 -17 -9 -21 -15c-3 -4 -5 -10 -7 -16l-1 -3h29c1 5 3 9 5 12c1 1 4 4 11 8l13 7c18 10 28 21 30 31s-1 20 -10 26c-8 6 -20 10 -37 10c-16 0 -35 -4 -55 -12zM664 315l-424 -28
c-26 -95 22 -182 163 -175c76 4 122 33 208 66l-33 -150c-73 -28 -142 -42 -214 -42c-176 0 -258 109 -211 282c55 179 183 293 350 293c110 -9 177 -65 161 -246zM286 365l317 20c6 61 -23 113 -113 113c-101 0 -186 -67 -204 -133z" />
    <glyph glyph-name="emacron" unicode="&#x113;" horiz-adv-x="661" 
d="M341 731l396 24l9 -77l-455 -17zM664 315l-424 -28c-26 -95 22 -182 163 -175c76 4 122 33 208 66l-33 -150c-73 -28 -142 -42 -214 -42c-176 0 -258 109 -211 282c55 179 183 293 350 293c110 -9 177 -65 161 -246zM286 365l317 20c6 61 -23 113 -113 113
c-101 0 -186 -67 -204 -133z" />
    <glyph glyph-name="eogonek" unicode="&#x119;" horiz-adv-x="661" 
d="M664 315l-424 -28c-26 -95 22 -182 163 -175c76 4 122 33 208 66l-33 -150c-42 -16 -83 -28 -123 -34c-32 -28 -50 -50 -54 -65c-5 -20 12 -31 54 -31c15 0 35 2 57 5c-3 -20 -6 -53 -8 -70c-117 -2 -177 30 -162 86c5 20 20 43 45 67h-23c-176 0 -258 109 -211 282
c55 179 183 293 350 293c110 -9 177 -65 161 -246zM490 498c-101 0 -186 -67 -204 -133l317 20c6 61 -23 113 -113 113z" />
    <glyph glyph-name="uni025B" unicode="&#x25b;" horiz-adv-x="497" 
d="M252 -12c-93 0 -160 52 -132 159c17 63 52 105 134 116c-58 23 -77 55 -62 109c21 79 98 128 201 128c40 0 121 -24 98 -112l-48 -9c17 59 -19 77 -55 77c-69 0 -132 -25 -147 -79c-16 -63 26 -82 93 -82h23l-2 -53h-23c-74 1 -122 -32 -134 -77s3 -85 72 -86
c49 -1 101 0 102 103l83 7c12 -172 -160 -201 -203 -201z" />
    <glyph glyph-name="uni025C" unicode="&#x25c;" horiz-adv-x="497" 
d="M245 -12c-43 0 -215 29 -203 201l83 -7c1 -103 53 -104 102 -103c69 1 84 41 72 86s-60 78 -134 77h-23l-2 53h23c67 0 109 19 93 82c-15 54 -78 79 -147 79c-36 0 -72 -18 -55 -77l-48 9c-23 88 58 112 98 112c103 0 180 -49 201 -128c15 -54 -4 -86 -62 -109
c82 -11 117 -53 134 -116c28 -107 -39 -159 -132 -159z" />
    <glyph glyph-name="uni025E" unicode="&#x25e;" horiz-adv-x="586" 
d="M148 249c32 120 113 251 313 251c103 0 154 -49 133 -128c-15 -54 -26 -82 -122 -109c77 -11 89 -53 72 -116c-28 -107 -125 -163 -217 -159c-178 8 -214 131 -179 261zM211 252c-16 -58 -4 -173 148 -173c68 0 105 41 117 86c13 45 -18 78 -93 77h-22l26 53h23
c67 0 120 19 136 82c15 54 -35 79 -104 79c-127 0 -206 -110 -231 -204z" />
    <glyph glyph-name="uni025D" unicode="&#x25d;" horiz-adv-x="497" 
d="M245 -12c-43 0 -215 29 -203 201l83 -7c1 -103 53 -104 102 -103c69 1 84 41 72 86s-60 78 -134 77h-23l-2 53h23c67 0 109 19 93 82c-15 54 -78 79 -147 79c-36 0 -72 -18 -55 -77l-48 9c-23 88 58 112 98 112c103 0 180 -49 201 -128c15 -54 -4 -86 -62 -109
c82 -11 117 -53 134 -116c28 -107 -39 -159 -132 -159z" />
    <glyph glyph-name="uni0258" unicode="&#x258;" horiz-adv-x="661" 
d="M-3 315c-16 181 51 237 161 246c167 0 295 -114 350 -293c47 -173 -35 -282 -211 -282c-72 0 -141 14 -214 42l-33 150c86 -33 132 -62 208 -66c141 -7 189 80 163 175zM375 365c-18 66 -103 133 -204 133c-90 0 -119 -52 -113 -113z" />
    <glyph glyph-name="uni0283" unicode="&#x283;" horiz-adv-x="868" 
d="M986 742l-19 -70c-20 19 -43 28 -72 28c-64 0 -113 -38 -150 -124l-99 -232l-96 -237c-131 -323 -213 -315 -328 -315c-37 0 -140 28 -167 110l143 65c28 -21 56 -32 88 -32c63 0 106 40 157 148l109 261l101 231c52 119 140 185 239 185c36 0 67 -6 94 -18z" />
    <glyph glyph-name="uni1EBD" unicode="&#x1ebd;" horiz-adv-x="661" 
d="M314 637c39 117 63 150 135 150c67 0 57 -100 102 -100c50 0 53 51 68 100h46c-41 -146 -73 -151 -127 -150c-72 1 -64 104 -101 105c-39 1 -56 -62 -68 -105h-55zM664 315l-424 -28c-26 -95 22 -182 163 -175c76 4 122 33 208 66l-33 -150c-73 -28 -142 -42 -214 -42
c-176 0 -258 109 -211 282c55 179 183 293 350 293c110 -9 177 -65 161 -246zM286 365l317 20c6 61 -23 113 -113 113c-101 0 -186 -67 -204 -133z" />
    <glyph glyph-name="uni01DD" unicode="&#x1dd;" horiz-adv-x="661" 
d="M139 220l424 26c26 95 -21 182 -162 176c-76 -4 -123 -33 -209 -66l34 150c73 28 142 42 214 41c176 0 258 -110 210 -282c-56 -179 -184 -293 -351 -292c-110 9 -177 66 -160 247zM517 168l-318 -19c-6 -61 23 -113 113 -113c101 0 186 66 205 132z" />
    <glyph glyph-name="uni0259" unicode="&#x259;" horiz-adv-x="661" 
d="M-3 245l424 28c26 95 -22 182 -163 175c-76 -4 -122 -33 -208 -66l33 150c73 28 142 42 214 42c176 0 258 -109 211 -282c-55 -179 -183 -293 -350 -293c-110 9 -177 65 -161 246zM375 195l-317 -20c-6 -61 23 -113 113 -113c101 0 186 67 204 133z" />
    <glyph glyph-name="uni025A" unicode="&#x25a;" horiz-adv-x="661" 
d="M596 258c-3 -25 -6 -46 26 -46c-3 -28 -5 -38 -10 -55c-60 0 -63 48 -52 90c2 9 5 18 8 31l-67 -7c-58 -167 -183 -272 -343 -272c-110 9 -177 65 -161 246l424 28c26 95 -22 182 -163 175c-76 -4 -122 -33 -208 -66l33 150c73 28 142 42 214 42c168 0 250 -99 217 -258
l97 8c-5 -17 -13 -49 -15 -66zM171 62c101 0 186 67 204 133l-317 -20c-6 -61 23 -113 113 -113z" />
    <glyph glyph-name="uni0292" unicode="&#x292;" horiz-adv-x="693" 
d="M457 314c119 -9 198 -111 181 -207c-30 -164 -107 -307 -323 -307c-33 0 -160 -2 -255 123l156 104c106 -138 264 -50 301 99c14 79 -91 119 -236 106l25 93c142 105 207 143 330 248c-114 -1 -250 -1 -399 0l26 94c99 0 400 4 479 0c-6 -69 -8 -69 -19 -140
c-118 -100 -149 -121 -266 -213z" />
    <glyph glyph-name="uni01EF" unicode="&#x1ef;" horiz-adv-x="693" 
d="M488 749l-28 64l-99 131h55l117 -99l173 99h55l-168 -131l-57 -64h-48zM457 314c119 -9 198 -111 181 -207c-30 -164 -107 -307 -323 -307c-33 0 -160 -2 -255 123l156 104c106 -138 264 -50 301 99c14 79 -91 119 -236 106l25 93c142 105 207 143 330 248
c-114 -1 -250 -1 -399 0l26 94c99 0 400 4 479 0c-6 -69 -8 -69 -19 -140c-118 -100 -149 -121 -266 -213z" />
    <glyph glyph-name="f" unicode="f" horiz-adv-x="489" 
d="M531 795l81 7l-20 -82h-70c-64 0 -123 -122 -124 -161l157 2l-24 -89h-145l-107 -473h-132l138 473l-81 -1l23 89l82 1c58 214 127 226 222 234z" />
    <glyph glyph-name="uni1E1F" unicode="&#x1e1f;" horiz-adv-x="489" 
d="M453 982h102l-27 -101h-102zM531 795l81 7l-20 -82h-70c-64 0 -123 -122 -124 -161l157 2l-24 -89h-145l-107 -473h-132l138 473l-81 -1l23 89l82 1c58 214 127 226 222 234z" />
    <glyph glyph-name="uni02A9" unicode="&#x2a9;" horiz-adv-x="940" 
d="M779 549c127 0 178 -58 143 -232l-56 -282v-2c-1 -2 -1 -5 -2 -7l-6 -32h-2c-23 -83 -46 -117 -66 -132c-32 -24 -205 -36 -242 -22l39 73h47c61 0 67 19 86 91c0 2 2 4 4 5l116 324c36 100 -10 143 -90 143c-101 0 -187 -63 -207 -168l-60 -314h-139l162 478h-120
l-107 -473h-132l138 473l-81 -1l23 89l82 1c58 214 127 226 222 234l81 7l-20 -82h-70c-64 0 -123 -122 -124 -161l157 2l-3 -11h68l-19 -61c51 29 92 60 178 60z" />
    <glyph glyph-name="uni1D6E" unicode="&#x1d6e;" horiz-adv-x="489" 
d="M522 720c-64 0 -123 -122 -124 -161l157 2l-24 -89h-145l-52 -229c4 -2 8 -3 12 -3c50 0 53 51 68 100h46c-41 -146 -73 -151 -127 -150c-4 0 -7 0 -11 1l-43 -192h-132l86 296h-1c-39 1 -56 -62 -68 -105h-55c39 117 63 150 135 150h2l39 132l-81 -1l23 89l82 1
c58 214 127 226 222 234l81 7l-20 -82h-70z" />
    <glyph glyph-name="g" unicode="g" horiz-adv-x="666" 
d="M254 -261c-64 0 -157 16 -211 47l72 132c46 -29 121 -42 181 -33c35 5 142 65 173 130l26 57c-26 -27 -107 -72 -188 -72c-135 0 -206 121 -161 290s176 282 311 274c66 -4 99 -36 143 -77l40 60h91l-129 -478c-60 -223 -175 -330 -348 -330zM322 146
c98 -1 164 10 199 139c35 131 -16 195 -100 195c-94 0 -154 -84 -189 -195c-39 -125 3 -138 90 -139z" />
    <glyph glyph-name="uni01F5" unicode="&#x1f5;" horiz-adv-x="666" 
d="M566 760h52l-93 -154h-77zM254 -261c-64 0 -157 16 -211 47l72 132c46 -29 121 -42 181 -33c35 5 142 65 173 130l26 57c-26 -27 -107 -72 -188 -72c-135 0 -206 121 -161 290s176 282 311 274c66 -4 99 -36 143 -77l40 60h91l-129 -478c-60 -223 -175 -330 -348 -330z
M322 146c98 -1 164 10 199 139c35 131 -16 195 -100 195c-94 0 -154 -84 -189 -195c-39 -125 3 -138 90 -139z" />
    <glyph glyph-name="uni0263" unicode="&#x263;" horiz-adv-x="711" 
d="M692 515l58 -67c-9 -9 -14 -15 -23 -21c-103 -76 -188 -143 -256 -202c124 -256 82 -424 -169 -422c-299 3 -204 168 60 418c-35 61 -82 132 -147 214c-7 7 -5 8 -12 20l90 60c8 -15 11 -22 20 -34c49 -67 91 -130 124 -190c67 61 143 126 223 194c12 10 21 20 32 30z
M325 -100c88 -2 153 70 70 255c-175 -169 -180 -252 -70 -255z" />
    <glyph glyph-name="gbreve" unicode="&#x11f;" horiz-adv-x="666" 
d="M683 773h65c-33 -123 -148 -197 -256 -197s-174 74 -141 197h66c-24 -88 21 -102 101 -102c94 0 141 15 165 102zM254 -261c-64 0 -157 16 -211 47l72 132c46 -29 121 -42 181 -33c35 5 142 65 173 130l26 57c-26 -27 -107 -72 -188 -72c-135 0 -206 121 -161 290
s176 282 311 274c66 -4 99 -36 143 -77l40 60h91l-129 -478c-60 -223 -175 -330 -348 -330zM322 146c98 -1 164 10 199 139c35 131 -16 195 -100 195c-94 0 -154 -84 -189 -195c-39 -125 3 -138 90 -139z" />
    <glyph glyph-name="gcaron" unicode="&#x1e7;" horiz-adv-x="666" 
d="M452 603l-28 64l-99 131h55l117 -99l173 99h55l-168 -131l-57 -64h-48zM254 -261c-64 0 -157 16 -211 47l72 132c46 -29 121 -42 181 -33c35 5 142 65 173 130l26 57c-26 -27 -107 -72 -188 -72c-135 0 -206 121 -161 290s176 282 311 274c66 -4 99 -36 143 -77l40 60h91
l-129 -478c-60 -223 -175 -330 -348 -330zM322 146c98 -1 164 10 199 139c35 131 -16 195 -100 195c-94 0 -154 -84 -189 -195c-39 -125 3 -138 90 -139z" />
    <glyph glyph-name="uni0123" unicode="&#x123;" horiz-adv-x="666" 
d="M529 592h-96l93 146h-4l25 87h111zM640 547h91l-129 -478c-60 -223 -175 -330 -348 -330c-64 0 -157 16 -211 47l72 132c46 -29 121 -42 181 -33c35 5 142 65 173 130l26 57c-26 -27 -107 -72 -188 -72c-135 0 -206 121 -161 290s176 282 311 274c66 -4 99 -36 143 -77z
M521 285c35 131 -16 195 -100 195c-94 0 -154 -84 -189 -195c-39 -125 3 -138 90 -139c98 -1 164 10 199 139z" />
    <glyph glyph-name="gdotaccent" unicode="&#x121;" horiz-adv-x="666" 
d="M484 729h102l-27 -101h-102zM254 -261c-64 0 -157 16 -211 47l72 132c46 -29 121 -42 181 -33c35 5 142 65 173 130l26 57c-26 -27 -107 -72 -188 -72c-135 0 -206 121 -161 290s176 282 311 274c66 -4 99 -36 143 -77l40 60h91l-129 -478c-60 -223 -175 -330 -348 -330z
M322 146c98 -1 164 10 199 139c35 131 -16 195 -100 195c-94 0 -154 -84 -189 -195c-39 -125 3 -138 90 -139z" />
    <glyph glyph-name="uni0260" unicode="&#x260;" horiz-adv-x="649" 
d="M693 690c43 110 71 114 208 106l-29 -83c-73 3 -78 1 -94 -47c-6 -17 -11 -32 -17 -48l-48 -137l-111 -412c-60 -223 -175 -330 -348 -330c-64 0 -157 16 -211 47l72 132c46 -29 121 -42 181 -33c35 5 142 65 173 130l26 57c-26 -27 -107 -72 -188 -72
c-135 0 -206 121 -161 290s176 282 311 274c66 -4 99 -36 143 -77l40 60h2l15 41h-1c24 69 19 53 37 102zM521 285c35 131 -16 195 -100 195c-94 0 -154 -84 -189 -195c-39 -125 3 -138 90 -139c98 -1 164 10 199 139z" />
    <glyph glyph-name="uni0294" unicode="&#x294;" horiz-adv-x="483" 
d="M182 32c9 34 54 195 66 240c15 57 22 71 59 112c41 45 153 62 172 133c14 53 4 90 -39 99c-64 14 -110 4 -128 -63h-83c31 116 179 141 240 126c79 -19 91 -79 74 -151c-35 -155 -184 -163 -194 -203l-72 -264c-2 -7 -50 -18 -95 -29z" />
    <glyph glyph-name="uni0295" unicode="&#x295;" horiz-adv-x="483" 
d="M126 32c-39 11 -81 22 -79 29c8 30 59 224 69 264c12 40 -133 48 -85 203c22 72 66 132 155 151c69 15 204 -10 172 -126h-83c18 67 -22 77 -94 63c-48 -9 -78 -46 -92 -99c-19 -71 84 -88 101 -133c15 -41 14 -55 -1 -112z" />
    <glyph glyph-name="uni0242" unicode="&#x242;" horiz-adv-x="483" 
d="M227 220c15 57 47 138 84 179c41 45 153 62 172 133c14 53 4 90 -39 99c-64 13 -110 4 -128 -63h-83c31 116 179 141 240 126c79 -19 91 -79 74 -151c-35 -155 -184 -163 -194 -203c-11 -40 -15 -82 -28 -120h-98z" />
    <glyph glyph-name="uni02A1" unicode="&#x2a1;" horiz-adv-x="483" 
d="M469 679c79 -19 91 -79 74 -151c-35 -155 -184 -163 -194 -203l-18 -65h61l-16 -78h-66l-33 -121c-2 -7 -50 -18 -95 -29c6 21 25 90 41 150h-106l16 78h112l3 12c15 57 22 71 59 112c41 45 153 62 172 133c14 53 4 90 -39 99c-64 14 -110 4 -128 -63h-83
c31 116 179 141 240 126z" />
    <glyph glyph-name="uni02A2" unicode="&#x2a2;" horiz-adv-x="483" 
d="M366 182h-106c16 -60 35 -129 41 -150c-45 11 -93 22 -95 29l-33 121h-66l-16 78h61l-18 65c-10 40 -159 48 -194 203c-17 72 -5 132 74 151c61 15 209 -10 240 -126h-83c-18 67 -64 77 -128 63c-43 -9 -53 -46 -39 -99c19 -71 131 -88 172 -133c37 -41 44 -55 59 -112
l3 -12h112z" />
    <glyph glyph-name="uni0261" unicode="&#x261;" horiz-adv-x="666" 
d="M254 -261c-64 0 -157 16 -211 47l72 132c46 -29 121 -42 181 -33c35 5 142 65 173 130l26 57c-26 -27 -107 -72 -188 -72c-135 0 -206 121 -161 290s176 282 311 274c66 -4 99 -36 143 -77l40 60h91l-129 -478c-60 -223 -175 -330 -348 -330zM322 146
c98 -1 164 10 199 139c35 131 -16 195 -100 195c-94 0 -154 -84 -189 -195c-39 -125 3 -138 90 -139z" />
    <glyph glyph-name="h" unicode="h" horiz-adv-x="683" 
d="M669 330l-67 -330h-139c172 365 125 417 78 435c-101 39 -262 -50 -311 -435h-149l273 802h91l-109 -333c85 63 112 79 199 79c127 0 173 -26 134 -218z" />
    <glyph glyph-name="hbar" unicode="&#x127;" horiz-adv-x="666" 
d="M535 548c127 0 173 -26 134 -218l-67 -330h-139c172 365 125 417 78 435c-101 39 -262 -50 -311 -435h-149l224 657l-94 -9l16 67l101 10l26 77h91l-22 -68l205 19l-15 -67l-213 -20l-64 -197c85 63 112 79 199 79z" />
    <glyph glyph-name="uni1E25" unicode="&#x1e25;" horiz-adv-x="683" 
d="M669 330l-67 -330h-139c172 365 125 417 78 435c-101 39 -262 -50 -311 -435h-149l273 802h91l-109 -333c85 63 112 79 199 79c127 0 173 -26 134 -218zM274 -59h102l-27 -101h-102z" />
    <glyph glyph-name="uni0267" unicode="&#x267;" horiz-adv-x="683" 
d="M535 548c127 0 173 -26 134 -218l-67 -330h-3c-4 -30 -9 -56 -14 -69c-47 -119 -174 -174 -251 -110c32 78 48 112 81 187c16 -13 33 -13 50 -4c170 361 123 413 76 431c-101 39 -262 -50 -311 -435h-149l273 802h2c7 25 8 27 19 63c34 112 60 118 187 117l-23 -85
c-68 0 -72 -3 -85 -51l-9 -31h1l-3 -13h2l-14 -42l-74 -275c69 50 99 63 178 63z" />
    <glyph glyph-name="uni0266" unicode="&#x266;" horiz-adv-x="683" 
d="M535 548c127 0 173 -26 134 -218l-67 -330h-139c172 365 125 417 78 435c-101 39 -262 -50 -311 -435h-149l273 802h2c7 25 8 27 19 63c34 112 60 118 187 117l-23 -85c-68 0 -72 -3 -85 -51l-9 -31h1l-3 -13h2l-14 -42l-74 -275c69 50 99 63 178 63z" />
    <glyph glyph-name="uni0265" unicode="&#x265;" horiz-adv-x="683" 
d="M14 230l67 330h139c-172 -365 -125 -417 -78 -435c101 -39 262 50 311 435h149l-273 -802h-91l109 333c-85 -63 -112 -79 -199 -79c-127 0 -173 26 -134 218z" />
    <glyph glyph-name="i" unicode="i" horiz-adv-x="285" 
d="M268 646l36 114h80l-25 -114h-91zM71 0c64 182 95 285 155 506h90c-51 -165 -91 -324 -112 -506h-133z" />
    <glyph glyph-name="dotlessi" unicode="&#x131;" horiz-adv-x="285" 
d="M81 0c64 192 95 285 155 506h80c-51 -165 -91 -314 -112 -506h-123z" />
    <glyph glyph-name="iacute" unicode="&#xed;" horiz-adv-x="285" 
d="M366 800h52l-93 -154h-77zM81 0c64 192 95 285 155 506h80c-51 -165 -91 -314 -112 -506h-123z" />
    <glyph glyph-name="uni01D0" unicode="&#x1d0;" horiz-adv-x="285" 
d="M252 622l-28 64l-99 131h55l117 -99l173 99h55l-168 -131l-57 -64h-48zM81 0c64 192 95 285 155 506h80c-51 -165 -91 -314 -112 -506h-123z" />
    <glyph glyph-name="icircumflex" unicode="&#xee;" horiz-adv-x="285" 
d="M286 775h48l23 -64l98 -131h-55l-120 99l-170 -99h-55l169 131zM81 0c64 192 95 285 155 506h80c-51 -165 -91 -314 -112 -506h-123z" />
    <glyph glyph-name="idieresis" unicode="&#xef;" horiz-adv-x="285" 
d="M121 638h102l-27 -101h-102zM396 638h102l-27 -101h-102zM81 0c64 192 95 285 155 506h80c-51 -165 -91 -314 -112 -506h-123z" />
    <glyph glyph-name="uni1E2F" unicode="&#x1e2f;" horiz-adv-x="285" 
d="M392 871h52l-93 -154h-77zM121 638h102l-27 -101h-102zM396 638h102l-27 -101h-102zM81 0c64 192 95 285 155 506h80c-51 -165 -91 -314 -112 -506h-123z" />
    <glyph glyph-name="i.loclTRK" horiz-adv-x="285" 
d="M284 748h102l-27 -101h-102zM81 0c64 192 95 285 155 506h80c-51 -165 -91 -314 -112 -506h-123z" />
    <glyph glyph-name="uni1ECB" unicode="&#x1ecb;" horiz-adv-x="285" 
d="M268 646l36 114h80l-25 -114h-91zM71 0c64 182 95 285 155 506h90c-51 -165 -91 -324 -112 -506h-133zM75 -59h102l-27 -101h-102z" />
    <glyph glyph-name="igrave" unicode="&#xec;" horiz-adv-x="285" 
d="M251 623l-87 112h79l139 -127zM81 0c64 192 95 285 155 506h80c-51 -165 -91 -314 -112 -506h-123z" />
    <glyph glyph-name="uni1EC9" unicode="&#x1ec9;" horiz-adv-x="285" 
d="M262 681l-6 -21c19 8 34 13 49 13c23 0 31 -8 29 -14s-8 -11 -16 -17l-13 -9c-10 -7 -17 -9 -21 -15c-3 -4 -5 -10 -7 -16l-1 -3h29c1 5 3 9 5 12c1 1 4 4 11 8l13 7c18 10 28 21 30 31s-1 20 -10 26c-8 6 -20 10 -37 10c-16 0 -35 -4 -55 -12zM81 0
c64 192 95 285 155 506h80c-51 -165 -91 -314 -112 -506h-123z" />
    <glyph glyph-name="imacron" unicode="&#x12b;" horiz-adv-x="285" 
d="M131 698l396 24l9 -77l-455 -17zM81 0c64 192 95 285 155 506h80c-51 -165 -91 -314 -112 -506h-123z" />
    <glyph glyph-name="iogonek" unicode="&#x12f;" horiz-adv-x="285" 
d="M284 748h102l-27 -101h-102zM81 0c64 192 95 285 155 506h80c-51 -165 -91 -314 -112 -506h-34c-84 -60 -129 -103 -136 -129c-5 -20 12 -31 54 -31c15 0 35 2 57 5c-3 -20 -6 -53 -8 -70c-117 -2 -177 30 -162 86c10 38 54 85 137 139h-31z" />
    <glyph glyph-name="uni0269" unicode="&#x269;" horiz-adv-x="337" 
d="M249 0c-154 0 -144 0 -156 44c80 219 97 345 128 462h81c-29 -94 -88 -334 -115 -427c42 -23 51 -12 87 -12z" />
    <glyph glyph-name="uni0268" unicode="&#x268;" horiz-adv-x="285" 
d="M384 760l-25 -114h-91l36 114h80zM441 330l-24 -91h-173c-17 -77 -30 -155 -40 -239h-133c32 91 56 163 79 239h-128l25 91h130c15 51 31 108 49 176h90c-18 -59 -35 -117 -50 -176h175z" />
    <glyph glyph-name="itilde" unicode="&#x129;" horiz-adv-x="285" 
d="M104 604c39 117 63 150 135 150c67 0 57 -100 102 -100c50 0 53 51 68 100h46c-41 -146 -73 -151 -127 -150c-72 1 -64 104 -101 105c-39 1 -56 -62 -68 -105h-55zM81 0c64 192 95 285 155 506h80c-51 -165 -91 -314 -112 -506h-123z" />
    <glyph glyph-name="j" unicode="j" horiz-adv-x="418" 
d="M436 748h102l-27 -101h-102zM186 -74c34 64 94 209 213 611h95l-179 -551c-34 -106 -92 -174 -111 -186c-40 -25 -165 -45 -208 -13l42 115c85 -29 126 3 148 24z" />
    <glyph glyph-name="uni0237" unicode="&#x237;" horiz-adv-x="420" 
d="M191 -74c34 64 94 209 213 611h95l-179 -551c-34 -106 -92 -174 -111 -186c-40 -25 -165 -45 -208 -13l42 115c85 -29 126 3 148 24z" />
    <glyph glyph-name="uni029D" unicode="&#x29d;" horiz-adv-x="701" 
d="M613 -25c-62 0 -143 4 -207 8c-10 -30 -22 -57 -34 -80c-46 -114 -77 -126 -178 -127c-20 -2 -39 -2 -56 0c-84 -1 -116 4 -68 182c20 75 99 127 193 127h82c35 95 82 237 147 456h95l-148 -456h204zM262 -9c-79 0 -124 -65 -104 -93c27 -5 48 -4 65 0c27 16 59 48 84 92
c-14 1 -28 1 -45 1z" />
    <glyph glyph-name="uni025F" unicode="&#x25f;" horiz-adv-x="557" 
d="M555 297l-24 -91h-140l-71 -220c-34 -106 -92 -174 -111 -186c-40 -25 -165 -45 -208 -13l42 115c85 -29 126 3 148 24c22 42 56 119 110 280h-165l25 91h169c22 68 46 147 74 240h95l-78 -240h134z" />
    <glyph glyph-name="uni0284" unicode="&#x284;" horiz-adv-x="498" 
d="M408 605c35 102 60 108 186 108l-23 -78c-67 0 -71 -3 -85 -46l-9 -29h1l-7 -23h15l-91 -287h75l-18 -91h-86l-55 -173c-33 -106 -89 -174 -108 -186c-39 -25 -160 -45 -202 -13l41 115c83 -29 122 3 144 24c19 38 47 103 91 233h-125l19 91h130l77 261
c19 63 15 49 30 94z" />
    <glyph glyph-name="k" unicode="k" horiz-adv-x="667" 
d="M71 0l255 793h101l-121 -432l156 131l128 8l-218 -211l214 -289h-207l-108 245l-69 -245h-131z" />
    <glyph glyph-name="uni01E9" unicode="&#x1e9;" horiz-adv-x="667" 
d="M445 863l-28 64l-99 131h55l117 -99l173 99h55l-168 -131l-57 -64h-48zM71 0l255 793h101l-121 -432l156 131l128 8l-218 -211l214 -289h-207l-108 245l-69 -245h-131z" />
    <glyph glyph-name="uni0137" unicode="&#x137;" horiz-adv-x="667" 
d="M590 500l-218 -211l214 -289h-207l-108 245l-69 -245h-131l255 793h101l-121 -432l156 131zM332 -49l-129 -233h-96l93 146h-4l25 87h111z" />
    <glyph glyph-name="uni0199" unicode="&#x199;" horiz-adv-x="667" 
d="M590 500l-218 -211l214 -289h-207l-108 245l-69 -245h-131l255 793h10c30 81 62 86 176 85l-23 -85c-35 0 -53 -1 -64 -8l-119 -424l156 131z" />
    <glyph glyph-name="uni029E" unicode="&#x29e;" horiz-adv-x="667" 
d="M731 504l-255 -793h-101l121 432l-156 -131l-128 -8l218 211l-214 289h207l108 -245l69 245h131z" />
    <glyph glyph-name="l" unicode="l" horiz-adv-x="394" 
d="M60 0c28 105 129 506 253 784h106c-91 -240 -240 -673 -213 -673h131l-24 -111h-253z" />
    <glyph glyph-name="lacute" unicode="&#x13a;" horiz-adv-x="394" 
d="M449 996h52l-93 -154h-77zM60 0c28 105 129 506 253 784h106c-91 -240 -240 -673 -213 -673h131l-24 -111h-253z" />
    <glyph glyph-name="uni026C" unicode="&#x26c;" horiz-adv-x="679" 
d="M676 290c-86 1 -161 3 -223 9c-17 -63 -33 -124 -50 -186c1 -1 2 -2 3 -2h131l-24 -111h-253c14 51 45 174 88 318c-81 23 -125 65 -133 138c-7 68 21 117 81 152c43 25 88 30 119 30c13 0 26 -2 36 -6c20 53 41 104 62 152h106c-41 -108 -93 -254 -136 -383
c99 0 155 -3 222 -3zM306 501c-7 -26 22 -63 72 -84c11 35 22 70 34 104c-9 15 -23 22 -37 22s-32 -7 -52 -19c-9 -6 -15 -14 -17 -23z" />
    <glyph glyph-name="lcaron" unicode="&#x13e;" horiz-adv-x="394" 
d="M60 0c28 105 129 506 253 784h106c-91 -240 -240 -673 -213 -673h131l-24 -111h-253zM515 369h-96l85 213h80z" />
    <glyph glyph-name="uni1E3D" unicode="&#x1e3d;" horiz-adv-x="394" 
d="M60 0c28 105 129 506 253 784h106c-91 -240 -240 -673 -213 -673h131l-24 -111h-253zM221 -31h48l23 -64l98 -131h-55l-120 99l-170 -99h-55l169 131z" />
    <glyph glyph-name="uni013C" unicode="&#x13c;" horiz-adv-x="394" 
d="M419 784c-91 -240 -240 -673 -213 -673h131l-24 -111h-253c28 105 129 506 253 784h106zM260 -49l-129 -233h-96l93 146h-4l25 87h111z" />
    <glyph glyph-name="ldot" unicode="&#x140;" horiz-adv-x="394" 
d="M60 0c28 105 129 506 253 784h106c-91 -240 -240 -673 -213 -673h131l-24 -111h-253zM472 541h102l-27 -101h-102z" />
    <glyph glyph-name="uni1E37" unicode="&#x1e37;" horiz-adv-x="394" 
d="M60 0c28 105 129 506 253 784h106c-91 -240 -240 -673 -213 -673h131l-24 -111h-253zM133 -59h102l-27 -101h-102z" />
    <glyph glyph-name="uni026E" unicode="&#x26e;" horiz-adv-x="787" 
d="M816 591c-6 -69 -8 -69 -19 -140c-118 -100 -149 -121 -266 -213c119 -9 198 -111 181 -207c-30 -164 -107 -307 -323 -307c-33 0 -160 -2 -255 123l156 104c106 -138 264 -50 301 99c14 79 -91 119 -236 106l25 93c142 105 207 143 330 248c-113 -1 -247 -1 -395 0
c-68 -197 -127 -386 -109 -386h6l51 -111h-203c28 105 129 506 253 784h106c-21 -56 -46 -123 -71 -193c109 0 392 4 468 0zM327 111h10l-24 -111z" />
    <glyph glyph-name="uni026D" unicode="&#x26d;" horiz-adv-x="561" 
d="M75 -245c-67 0 -28 123 -7 190c90 281 217 663 282 839h86c-56 -147 -183 -634 -239 -839c-30 -108 124 -113 169 55l119 20c-85 -278 -175 -265 -410 -265z" />
    <glyph glyph-name="uni01C9" unicode="&#x1c9;" horiz-adv-x="479" 
d="M60 0c28 105 129 506 253 784h106c-91 -240 -240 -673 -213 -673h131l-24 -111h-253zM552 618h102l-27 -101h-102zM302 -204c34 64 94 209 213 611h95l-179 -551c-34 -106 -92 -174 -111 -186c-40 -25 -165 -45 -208 -13l42 115c85 -29 126 3 148 24z" />
    <glyph glyph-name="uni026B" unicode="&#x26b;" horiz-adv-x="394" 
d="M267 327c-3 0 -6 0 -8 1c-40 -124 -66 -217 -53 -217h131l-24 -111h-253c17 64 61 237 121 425c-5 4 -9 7 -15 7c-39 1 -56 -62 -68 -105h-55c39 117 63 150 135 150c7 0 13 -1 18 -3c35 107 75 215 117 310h106c-43 -114 -100 -272 -144 -407h5c50 0 53 51 68 100h46
c-41 -146 -73 -151 -127 -150z" />
    <glyph glyph-name="uni02AA" unicode="&#x2aa;" horiz-adv-x="867" 
d="M686 504c-83 0 -122 -56 -129 -95c-12 -64 63 -83 113 -93c120 -24 160 -72 161 -150c2 -147 -145 -172 -279 -172c-33 0 -59 2 -82 6h-410c28 105 129 506 253 784h106c-88 -233 -232 -649 -215 -672h189l63 54c53 -22 75 -36 136 -36c66 0 115 14 126 56
c8 31 -93 44 -134 55c-53 14 -131 55 -128 149c3 96 90 183 264 183c68 0 98 -11 150 -15l-37 -66c-40 5 -117 12 -147 12z" />
    <glyph glyph-name="lslash" unicode="&#x142;" horiz-adv-x="390" 
d="M304 463c-63 -184 -115 -352 -98 -352h131l-24 -111h-253c18 69 69 267 136 474l-70 17l79 10c33 98 69 196 108 283h106c-29 -77 -64 -173 -97 -269l267 33l83 -26z" />
    <glyph glyph-name="uni02AB" unicode="&#x2ab;" horiz-adv-x="867" 
d="M920 548l-5 -67l-452 -361h288l25 -121h-506v1h-5l50 111h5l9 19l476 351h-316v1h-179c-66 -192 -121 -371 -104 -371h41l-18 -111h-169c28 105 129 506 253 784h106c-26 -68 -56 -151 -86 -235h188v-1h399z" />
    <glyph glyph-name="m" unicode="m" horiz-adv-x="1034" 
d="M698 442c67 80 130 134 215 118c115 -22 139 -139 118 -230l-78 -330h-136l121 326c28 105 19 159 -57 155c-85 -4 -151 -73 -198 -188l-120 -293h-126l165 327c30 59 4 148 -74 154s-172 -72 -200 -148l-121 -333h-126l212 547h91l-33 -75c59 67 124 94 204 88
c81 -6 137 -41 143 -118z" />
    <glyph glyph-name="uni1E3F" unicode="&#x1e3f;" horiz-adv-x="1034" 
d="M806 773h52l-93 -154h-77zM698 442c67 80 130 134 215 118c115 -22 139 -139 118 -230l-78 -330h-136l121 326c28 105 19 159 -57 155c-85 -4 -151 -73 -198 -188l-120 -293h-126l165 327c30 59 4 148 -74 154s-172 -72 -200 -148l-121 -333h-126l212 547h91l-33 -75
c59 67 124 94 204 88c81 -6 137 -41 143 -118z" />
    <glyph glyph-name="uni1E41" unicode="&#x1e41;" horiz-adv-x="1034" 
d="M724 742h102l-27 -101h-102zM698 442c67 80 130 134 215 118c115 -22 139 -139 118 -230l-78 -330h-136l121 326c28 105 19 159 -57 155c-85 -4 -151 -73 -198 -188l-120 -293h-126l165 327c30 59 4 148 -74 154s-172 -72 -200 -148l-121 -333h-126l212 547h91l-33 -75
c59 67 124 94 204 88c81 -6 137 -41 143 -118z" />
    <glyph glyph-name="uni0271" unicode="&#x271;" horiz-adv-x="1034" 
d="M913 560c115 -22 139 -139 118 -230l-70 -297v-3c-26 -109 -52 -150 -75 -167c-32 -23 -204 -35 -240 -21c5 8 32 60 38 71h47c61 0 66 19 85 89c0 2 2 4 4 5l118 319c28 105 19 159 -57 155c-85 -4 -151 -73 -198 -188l-120 -293h-126l165 327c30 59 4 148 -74 154
s-172 -72 -200 -148l-121 -333h-126l212 547h91l-33 -75c59 67 124 94 204 88c81 -6 137 -41 143 -118c67 80 130 134 215 118z" />
    <glyph glyph-name="uni0270" unicode="&#x270;" horiz-adv-x="1034" 
d="M336 118c-67 -80 -130 -134 -215 -118c-115 22 -139 139 -118 230l78 330h136l-121 -326c-28 -105 -19 -159 57 -155c85 4 151 73 198 188l120 293h126l-165 -327c-30 -59 -4 -148 74 -154s172 72 200 148l121 333h126l-212 -547h-91l33 75c-59 -67 -124 -94 -204 -88
c-81 6 -137 41 -143 118zM955 496h125l-242 -696h-110z" />
    <glyph glyph-name="uni1D6F" unicode="&#x1d6f;" horiz-adv-x="1034" 
d="M1104 356c-29 -31 -57 -56 -85 -75l-66 -281h-136l83 224c-65 -18 -135 -18 -222 -18c-11 0 -21 0 -30 1l-85 -207h-126l111 220c-108 29 -114 90 -209 91h-19l-113 -311h-126l106 273c-34 -21 -57 -46 -77 -67h-184c96 86 165 126 290 142l77 199h91l-33 -75
c59 67 124 94 204 88c81 -6 137 -41 143 -118c67 80 130 134 215 118c104 -20 134 -118 123 -204h68zM379 356c123 0 168 -30 209 -57l14 28c30 59 4 148 -74 154c-70 5 -153 -57 -190 -125h41zM670 261c15 -3 32 -5 52 -5c161 0 177 47 222 94c20 89 7 135 -63 131
c-85 -4 -151 -73 -198 -188z" />
    <glyph glyph-name="uni026F" unicode="&#x26f;" horiz-adv-x="1034" 
d="M336 118c-67 -80 -130 -134 -215 -118c-115 22 -139 139 -118 230l78 330h136l-121 -326c-28 -105 -19 -159 57 -155c85 4 151 73 198 188l120 293h126l-165 -327c-30 -59 -4 -148 74 -154s172 72 200 148l121 333h126l-212 -547h-91l33 75c-59 -67 -124 -94 -204 -88
c-81 6 -137 41 -143 118z" />
    <glyph glyph-name="n" unicode="n" horiz-adv-x="676" 
d="M81 0l189 556h87l-19 -61c51 29 92 60 178 60c127 0 178 -58 143 -232l-64 -323h-140l122 339c36 100 -10 143 -90 143c-101 0 -187 -63 -207 -168l-60 -314h-139z" />
    <glyph glyph-name="nacute" unicode="&#x144;" horiz-adv-x="676" 
d="M551 798h52l-93 -154h-77zM81 0l189 556h87l-19 -61c51 29 92 60 178 60c127 0 178 -58 143 -232l-64 -323h-140l122 339c36 100 -10 143 -90 143c-101 0 -187 -63 -207 -168l-60 -314h-139z" />
    <glyph glyph-name="napostrophe" unicode="&#x149;" horiz-adv-x="676" 
d="M-21 596l-131 -20l139 170h79zM81 0l189 556h87l-19 -61c51 29 92 60 178 60c127 0 178 -58 143 -232l-64 -323h-140l122 339c36 100 -10 143 -90 143c-101 0 -187 -63 -207 -168l-60 -314h-139z" />
    <glyph glyph-name="ncaron" unicode="&#x148;" horiz-adv-x="676" 
d="M437 641l-28 64l-99 131h55l117 -99l173 99h55l-168 -131l-57 -64h-48zM81 0l189 556h87l-19 -61c51 29 92 60 178 60c127 0 178 -58 143 -232l-64 -323h-140l122 339c36 100 -10 143 -90 143c-101 0 -187 -63 -207 -168l-60 -314h-139z" />
    <glyph glyph-name="uni1E4B" unicode="&#x1e4b;" horiz-adv-x="676" 
d="M81 0l189 556h87l-19 -61c51 29 92 60 178 60c127 0 178 -58 143 -232l-64 -323h-140l122 339c36 100 -10 143 -90 143c-101 0 -187 -63 -207 -168l-60 -314h-139zM345 -31h48l23 -64l98 -131h-55l-120 99l-170 -99h-55l169 131z" />
    <glyph glyph-name="uni0146" unicode="&#x146;" horiz-adv-x="676" 
d="M516 555c127 0 178 -58 143 -232l-64 -323h-140l122 339c36 100 -10 143 -90 143c-101 0 -187 -63 -207 -168l-60 -314h-139l189 556h87l-19 -61c51 29 92 60 178 60zM605 -29l-129 -233h-96l93 146h-4l25 87h111z" />
    <glyph glyph-name="uni1E45" unicode="&#x1e45;" horiz-adv-x="676" 
d="M469 767h102l-27 -101h-102zM81 0l189 556h87l-19 -61c51 29 92 60 178 60c127 0 178 -58 143 -232l-64 -323h-140l122 339c36 100 -10 143 -90 143c-101 0 -187 -63 -207 -168l-60 -314h-139z" />
    <glyph glyph-name="uni1E47" unicode="&#x1e47;" horiz-adv-x="676" 
d="M81 0l189 556h87l-19 -61c51 29 92 60 178 60c127 0 178 -58 143 -232l-64 -323h-140l122 339c36 100 -10 143 -90 143c-101 0 -187 -63 -207 -168l-60 -314h-139zM257 -59h102l-27 -101h-102z" />
    <glyph glyph-name="uni01F9" unicode="&#x1f9;" horiz-adv-x="676" 
d="M413 616l-87 112h79l139 -127zM81 0l189 556h87l-19 -61c51 29 92 60 178 60c127 0 178 -58 143 -232l-64 -323h-140l122 339c36 100 -10 143 -90 143c-101 0 -187 -63 -207 -168l-60 -314h-139z" />
    <glyph glyph-name="eng" unicode="&#x14b;" horiz-adv-x="676" 
d="M516 555c127 0 178 -58 143 -232l-56 -282v-2c-1 -2 -1 -5 -2 -7l-6 -32h-2c-23 -83 -46 -117 -66 -132c-32 -24 -205 -36 -242 -22l39 73h47c61 0 67 19 86 91c0 2 2 4 4 5l116 324c36 100 -10 143 -90 143c-101 0 -187 -63 -207 -168l-60 -314h-139l189 556h87l-19 -61
c51 29 92 60 178 60z" />
    <glyph glyph-name="uni0272" unicode="&#x272;" horiz-adv-x="759" 
d="M599 555c127 0 178 -58 143 -232l-64 -323h-140l122 339c36 100 -10 143 -90 143c-101 0 -187 -63 -207 -168l-60 -314h-6c-39 -145 -53 -198 -101 -198h-168l29 108c76 0 80 11 102 90h5l189 556h87l-19 -61c51 29 92 60 178 60z" />
    <glyph glyph-name="uni0273" unicode="&#x273;" horiz-adv-x="748" 
d="M595 0h-5c-21 -76 -21 -87 54 -87l-29 -108h-168c-48 0 -34 53 5 198h4l121 336c36 100 -10 143 -90 143c-101 0 -187 -63 -207 -168l-60 -314h-139l189 556h87l-19 -61c51 29 92 60 178 60c127 0 178 -58 143 -232z" />
    <glyph glyph-name="uni01CC" unicode="&#x1cc;" horiz-adv-x="676" 
d="M960 734h102l-27 -101h-102zM81 0l189 556h87l-19 -61c51 29 92 60 178 60c127 0 178 -58 143 -232l-64 -323h-140l122 339c36 100 -10 143 -90 143c-101 0 -187 -63 -207 -168l-60 -314h-139zM710 -88c34 64 94 209 213 611h95l-179 -551c-34 -106 -92 -174 -111 -186
c-40 -25 -165 -45 -208 -13l42 115c85 -29 126 3 148 24z" />
    <glyph glyph-name="uni1D70" unicode="&#x1d70;" horiz-adv-x="676" 
d="M798 339c-57 -84 -107 -122 -163 -138l-40 -201h-140l68 189h-29c-156 1 -156 84 -218 102l-56 -291h-139l94 277c-42 -21 -67 -59 -86 -88h-132c76 95 128 135 238 146l75 221h87l-19 -61c51 29 92 60 178 60c127 0 178 -58 143 -232l-7 -38c13 17 22 35 36 54h110z
M525 239h16l36 100c36 100 -10 143 -90 143c-93 0 -173 -53 -201 -143c154 -3 132 -100 239 -100z" />
    <glyph glyph-name="ntilde" unicode="&#xf1;" horiz-adv-x="676" 
d="M279 635c39 117 63 150 135 150c67 0 57 -100 102 -100c50 0 53 51 68 100h46c-41 -146 -73 -151 -127 -150c-72 1 -64 104 -101 105c-39 1 -56 -62 -68 -105h-55zM81 0l189 556h87l-19 -61c51 29 92 60 178 60c127 0 178 -58 143 -232l-64 -323h-140l122 339
c36 100 -10 143 -90 143c-101 0 -187 -63 -207 -168l-60 -314h-139z" />
    <glyph glyph-name="o" unicode="o" horiz-adv-x="669" 
d="M331 -11c-159 -6 -230 95 -177 284c47 169 169 291 327 291s223 -107 180 -276c-45 -179 -173 -293 -330 -299zM372 141c49 3 173 19 197 148c14 77 -8 184 -105 182c-77 -2 -165 -71 -210 -182c-44 -107 -8 -156 118 -148z" />
    <glyph glyph-name="oacute" unicode="&#xf3;" horiz-adv-x="669" 
d="M481 564c158 0 223 -107 180 -276c-45 -179 -173 -293 -330 -299h27l-93 -154h-77l118 154c-141 5 -202 105 -152 284c47 169 169 291 327 291zM569 289c14 77 -8 184 -105 182c-77 -2 -165 -71 -210 -182c-44 -107 -8 -156 118 -148c49 3 173 19 197 148z" />
    <glyph glyph-name="uni0275" unicode="&#x275;" horiz-adv-x="652" 
d="M481 564c158 0 223 -107 180 -276c-45 -179 -173 -293 -330 -299c-159 -6 -230 95 -177 284c47 169 169 291 327 291zM464 471c-70 -2 -148 -58 -196 -151l305 16c-1 68 -31 137 -109 135zM372 141c48 3 167 18 195 138l-321 -11c-31 -92 8 -134 126 -127z" />
    <glyph glyph-name="obreve" unicode="&#x14f;" horiz-adv-x="669" 
d="M688 825h65c-33 -123 -148 -197 -256 -197s-174 74 -141 197h66c-24 -88 21 -102 101 -102c94 0 141 15 165 102zM331 -11c-159 -6 -230 95 -177 284c47 169 169 291 327 291s223 -107 180 -276c-45 -179 -173 -293 -330 -299zM372 141c49 3 173 19 197 148
c14 77 -8 184 -105 182c-77 -2 -165 -71 -210 -182c-44 -107 -8 -156 118 -148z" />
    <glyph glyph-name="uni01D2" unicode="&#x1d2;" horiz-adv-x="669" 
d="M457 655l-28 64l-99 131h55l117 -99l173 99h55l-168 -131l-57 -64h-48zM331 -11c-159 -6 -230 95 -177 284c47 169 169 291 327 291s223 -107 180 -276c-45 -179 -173 -293 -330 -299zM372 141c49 3 173 19 197 148c14 77 -8 184 -105 182c-77 -2 -165 -71 -210 -182
c-44 -107 -8 -156 118 -148z" />
    <glyph glyph-name="ocircumflex" unicode="&#xf4;" horiz-adv-x="669" 
d="M503 787h48l23 -64l98 -131h-55l-120 99l-170 -99h-55l169 131zM331 -11c-159 -6 -230 95 -177 284c47 169 169 291 327 291s223 -107 180 -276c-45 -179 -173 -293 -330 -299zM372 141c49 3 173 19 197 148c14 77 -8 184 -105 182c-77 -2 -165 -71 -210 -182
c-44 -107 -8 -156 118 -148z" />
    <glyph glyph-name="uni1ED1" unicode="&#x1ed1;" horiz-adv-x="669" 
d="M491 808h48l23 -64l98 -131h-55l-120 99l-170 -99h-55l169 131zM878 807h52l-93 -154h-77zM331 -11c-159 -6 -230 95 -177 284c47 169 169 291 327 291s223 -107 180 -276c-45 -179 -173 -293 -330 -299zM372 141c49 3 173 19 197 148c14 77 -8 184 -105 182
c-77 -2 -165 -71 -210 -182c-44 -107 -8 -156 118 -148z" />
    <glyph glyph-name="uni1ED9" unicode="&#x1ed9;" horiz-adv-x="669" 
d="M491 808h48l23 -64l98 -131h-55l-120 99l-170 -99h-55l169 131zM331 -11c-159 -6 -230 95 -177 284c47 169 169 291 327 291s223 -107 180 -276c-45 -179 -173 -293 -330 -299zM372 141c49 3 173 19 197 148c14 77 -8 184 -105 182c-77 -2 -165 -71 -210 -182
c-44 -107 -8 -156 118 -148zM269 -76h102l-27 -101h-102z" />
    <glyph glyph-name="uni1ED3" unicode="&#x1ed3;" horiz-adv-x="669" 
d="M842 700l-87 112h79l139 -127zM491 808h48l23 -64l98 -131h-55l-120 99l-170 -99h-55l169 131zM331 -11c-159 -6 -230 95 -177 284c47 169 169 291 327 291s223 -107 180 -276c-45 -179 -173 -293 -330 -299zM372 141c49 3 173 19 197 148c14 77 -8 184 -105 182
c-77 -2 -165 -71 -210 -182c-44 -107 -8 -156 118 -148z" />
    <glyph glyph-name="uni1ED5" unicode="&#x1ed5;" horiz-adv-x="669" 
d="M595 852l-6 -21c19 8 34 13 49 13c23 0 31 -8 29 -14s-8 -11 -16 -17l-13 -9c-10 -7 -17 -9 -21 -15c-3 -4 -5 -10 -7 -16l-1 -3h29c1 5 3 9 5 12c1 1 4 4 11 8l13 7c18 10 28 21 30 31s-1 20 -10 26c-8 6 -20 10 -37 10c-16 0 -35 -4 -55 -12zM518 793h48l23 -64
l98 -131h-55l-120 99l-170 -99h-55l169 131zM331 -11c-159 -6 -230 95 -177 284c47 169 169 291 327 291s223 -107 180 -276c-45 -179 -173 -293 -330 -299zM372 141c49 3 173 19 197 148c14 77 -8 184 -105 182c-77 -2 -165 -71 -210 -182c-44 -107 -8 -156 118 -148z" />
    <glyph glyph-name="uni1ED7" unicode="&#x1ed7;" horiz-adv-x="669" 
d="M429 854c39 117 63 150 135 150c67 0 57 -100 102 -100c50 0 53 51 68 100h46c-41 -146 -73 -151 -127 -150c-72 1 -64 104 -101 105c-39 1 -56 -62 -68 -105h-55zM558 819h48l23 -64l98 -131h-55l-120 99l-170 -99h-55l169 131zM331 -11c-159 -6 -230 95 -177 284
c47 169 169 291 327 291s223 -107 180 -276c-45 -179 -173 -293 -330 -299zM372 141c49 3 173 19 197 148c14 77 -8 184 -105 182c-77 -2 -165 -71 -210 -182c-44 -107 -8 -156 118 -148z" />
    <glyph glyph-name="odieresis" unicode="&#xf6;" horiz-adv-x="669" 
d="M330 684h102l-27 -101h-102zM605 684h102l-27 -101h-102zM331 -11c-159 -6 -230 95 -177 284c47 169 169 291 327 291s223 -107 180 -276c-45 -179 -173 -293 -330 -299zM372 141c49 3 173 19 197 148c14 77 -8 184 -105 182c-77 -2 -165 -71 -210 -182
c-44 -107 -8 -156 118 -148z" />
    <glyph glyph-name="uni022B" unicode="&#x22b;" horiz-adv-x="669" 
d="M362 823l396 24l9 -77l-455 -17zM326 671h102l-27 -101h-102zM601 671h102l-27 -101h-102zM331 -11c-159 -6 -230 95 -177 284c47 169 169 291 327 291s223 -107 180 -276c-45 -179 -173 -293 -330 -299zM372 141c49 3 173 19 197 148c14 77 -8 184 -105 182
c-77 -2 -165 -71 -210 -182c-44 -107 -8 -156 118 -148z" />
    <glyph glyph-name="uni1ECD" unicode="&#x1ecd;" horiz-adv-x="669" 
d="M331 -11c-159 -6 -230 95 -177 284c47 169 169 291 327 291s223 -107 180 -276c-45 -179 -173 -293 -330 -299zM372 141c49 3 173 19 197 148c14 77 -8 184 -105 182c-77 -2 -165 -71 -210 -182c-44 -107 -8 -156 118 -148zM269 -76h102l-27 -101h-102z" />
    <glyph glyph-name="ograve" unicode="&#xf2;" horiz-adv-x="669" 
d="M456 656l-87 112h79l139 -127zM331 -11c-159 -6 -230 95 -177 284c47 169 169 291 327 291s223 -107 180 -276c-45 -179 -173 -293 -330 -299zM372 141c49 3 173 19 197 148c14 77 -8 184 -105 182c-77 -2 -165 -71 -210 -182c-44 -107 -8 -156 118 -148z" />
    <glyph glyph-name="uni1ECF" unicode="&#x1ecf;" horiz-adv-x="669" 
d="M467 714l-6 -21c19 8 34 13 49 13c23 0 31 -8 29 -14s-8 -11 -16 -17l-13 -9c-10 -7 -17 -9 -21 -15c-3 -4 -5 -10 -7 -16l-1 -3h29c1 5 3 9 5 12c1 1 4 4 11 8l13 7c18 10 28 21 30 31s-1 20 -10 26c-8 6 -20 10 -37 10c-16 0 -35 -4 -55 -12zM331 -11
c-159 -6 -230 95 -177 284c47 169 169 291 327 291s223 -107 180 -276c-45 -179 -173 -293 -330 -299zM372 141c49 3 173 19 197 148c14 77 -8 184 -105 182c-77 -2 -165 -71 -210 -182c-44 -107 -8 -156 118 -148z" />
    <glyph glyph-name="ohorn" unicode="&#x1a1;" horiz-adv-x="669" 
d="M726 582l47 -6c-1 -12 -1 -23 -4 -32c-10 -39 -34 -87 -72 -114c-11 -8 -18 -13 -25 -17c5 -36 1 -78 -11 -125c-45 -179 -173 -293 -330 -299c-159 -6 -230 95 -177 284c47 169 169 291 327 291c95 0 156 -39 181 -106c7 3 13 6 20 11c28 20 38 66 43 83c3 11 2 20 1 30
zM569 289c14 77 -8 184 -105 182c-77 -2 -165 -71 -210 -182c-44 -107 -8 -156 118 -148c49 3 173 19 197 148z" />
    <glyph glyph-name="uni1EDB" unicode="&#x1edb;" horiz-adv-x="669" 
d="M623 812l-93 -154h-77l118 154h52zM726 582l47 -6c-1 -12 -1 -23 -4 -32c-10 -39 -34 -87 -72 -114c-11 -8 -18 -13 -25 -17c5 -36 1 -78 -11 -125c-45 -179 -173 -293 -330 -299c-159 -6 -230 95 -177 284c47 169 169 291 327 291c95 0 156 -39 181 -106c7 3 13 6 20 11
c28 20 38 66 43 83c3 11 2 20 1 30zM569 289c14 77 -8 184 -105 182c-77 -2 -165 -71 -210 -182c-44 -107 -8 -156 118 -148c49 3 173 19 197 148z" />
    <glyph glyph-name="uni1EE3" unicode="&#x1ee3;" horiz-adv-x="669" 
d="M726 582l47 -6c-1 -12 -1 -23 -4 -32c-10 -39 -34 -87 -72 -114c-11 -8 -18 -13 -25 -17c5 -36 1 -78 -11 -125c-45 -179 -173 -293 -330 -299c-159 -6 -230 95 -177 284c47 169 169 291 327 291c95 0 156 -39 181 -106c7 3 13 6 20 11c28 20 38 66 43 83c3 11 2 20 1 30
zM569 289c14 77 -8 184 -105 182c-77 -2 -165 -71 -210 -182c-44 -107 -8 -156 118 -148c49 3 173 19 197 148zM242 -177l27 101h102l-27 -101h-102z" />
    <glyph glyph-name="uni1EDD" unicode="&#x1edd;" horiz-adv-x="669" 
d="M564 615l-131 15l-87 112h79zM726 582l47 -6c-1 -12 -1 -23 -4 -32c-10 -39 -34 -87 -72 -114c-11 -8 -18 -13 -25 -17c5 -36 1 -78 -11 -125c-45 -179 -173 -293 -330 -299c-159 -6 -230 95 -177 284c47 169 169 291 327 291c95 0 156 -39 181 -106c7 3 13 6 20 11
c28 20 38 66 43 83c3 11 2 20 1 30zM569 289c14 77 -8 184 -105 182c-77 -2 -165 -71 -210 -182c-44 -107 -8 -156 118 -148c49 3 173 19 197 148z" />
    <glyph glyph-name="uni1EDF" unicode="&#x1edf;" horiz-adv-x="669" 
d="M539 692c2 6 -6 14 -29 14c-15 0 -30 -5 -49 -13l6 21c20 8 39 12 55 12c17 0 29 -4 37 -10c9 -6 12 -16 10 -26s-12 -21 -30 -31l-13 -7c-7 -4 -10 -7 -11 -8c-2 -3 -4 -7 -5 -12h-29l1 3c2 6 4 12 7 16c4 6 11 8 21 15l13 9c8 6 14 11 16 17zM726 582l47 -6
c-1 -12 -1 -23 -4 -32c-10 -39 -34 -87 -72 -114c-11 -8 -18 -13 -25 -17c5 -36 1 -78 -11 -125c-45 -179 -173 -293 -330 -299c-159 -6 -230 95 -177 284c47 169 169 291 327 291c95 0 156 -39 181 -106c7 3 13 6 20 11c28 20 38 66 43 83c3 11 2 20 1 30zM569 289
c14 77 -8 184 -105 182c-77 -2 -165 -71 -210 -182c-44 -107 -8 -156 118 -148c49 3 173 19 197 148z" />
    <glyph glyph-name="uni1EE1" unicode="&#x1ee1;" horiz-adv-x="669" 
d="M432 742c-39 1 -56 -62 -68 -105h-55c39 117 63 150 135 150c67 0 57 -100 102 -100c50 0 53 51 68 100h46c-41 -146 -73 -151 -127 -150c-72 1 -64 104 -101 105zM726 582l47 -6c-1 -12 -1 -23 -4 -32c-10 -39 -34 -87 -72 -114c-11 -8 -18 -13 -25 -17
c5 -36 1 -78 -11 -125c-45 -179 -173 -293 -330 -299c-159 -6 -230 95 -177 284c47 169 169 291 327 291c95 0 156 -39 181 -106c7 3 13 6 20 11c28 20 38 66 43 83c3 11 2 20 1 30zM569 289c14 77 -8 184 -105 182c-77 -2 -165 -71 -210 -182c-44 -107 -8 -156 118 -148
c49 3 173 19 197 148z" />
    <glyph glyph-name="ohungarumlaut" unicode="&#x151;" horiz-adv-x="669" 
d="M475 631l-131 -15l139 127h79zM660 631l-131 -15l139 127h79zM331 -11c-159 -6 -230 95 -177 284c47 169 169 291 327 291s223 -107 180 -276c-45 -179 -173 -293 -330 -299zM372 141c49 3 173 19 197 148c14 77 -8 184 -105 182c-77 -2 -165 -71 -210 -182
c-44 -107 -8 -156 118 -148z" />
    <glyph glyph-name="omacron" unicode="&#x14d;" horiz-adv-x="669" 
d="M336 731l396 24l9 -77l-455 -17zM331 -11c-159 -6 -230 95 -177 284c47 169 169 291 327 291s223 -107 180 -276c-45 -179 -173 -293 -330 -299zM372 141c49 3 173 19 197 148c14 77 -8 184 -105 182c-77 -2 -165 -71 -210 -182c-44 -107 -8 -156 118 -148z" />
    <glyph glyph-name="uni1E53" unicode="&#x1e53;" horiz-adv-x="669" 
d="M624 1007h52l-93 -154h-77zM336 731l396 24l9 -77l-455 -17zM331 -11c-159 -6 -230 95 -177 284c47 169 169 291 327 291s223 -107 180 -276c-45 -179 -173 -293 -330 -299zM372 141c49 3 173 19 197 148c14 77 -8 184 -105 182c-77 -2 -165 -71 -210 -182
c-44 -107 -8 -156 118 -148z" />
    <glyph glyph-name="uni1E51" unicode="&#x1e51;" horiz-adv-x="669" 
d="M486 825l-87 112h79l139 -127zM336 731l396 24l9 -77l-455 -17zM331 -11c-159 -6 -230 95 -177 284c47 169 169 291 327 291s223 -107 180 -276c-45 -179 -173 -293 -330 -299zM372 141c49 3 173 19 197 148c14 77 -8 184 -105 182c-77 -2 -165 -71 -210 -182
c-44 -107 -8 -156 118 -148z" />
    <glyph glyph-name="uni0254" unicode="&#x254;" horiz-adv-x="599" 
d="M4 12l19 71c29 -10 74 -12 103 -12c118 0 182 83 218 216c25 130 -73 200 -195 138l-74 114c57 23 115 39 175 35c206 -14 242 -111 195 -287c-48 -178 -187 -287 -359 -287c-27 0 -63 5 -82 12z" />
    <glyph glyph-name="oslash" unicode="&#xf8;" horiz-adv-x="669" 
d="M586 543c80 -40 107 -130 75 -255c-45 -179 -173 -293 -330 -299c-15 -1 -29 0 -43 1l-17 -32l-172 -104l98 168c-60 44 -77 129 -43 251c47 169 169 291 327 291c11 0 21 0 30 -1l67 114l106 47zM254 289c-29 -70 -23 -115 19 -136l185 318c-76 -6 -160 -74 -204 -182z
M569 289c10 53 2 120 -35 156l-164 -304h2c49 3 173 19 197 148z" />
    <glyph glyph-name="oslashacute" unicode="&#x1ff;" horiz-adv-x="669" 
d="M623 812l-93 -154h-77l118 154h52zM586 543c80 -40 107 -130 75 -255c-45 -179 -173 -293 -330 -299c-15 -1 -29 0 -43 1l-17 -32l-172 -104l98 168c-60 44 -77 129 -43 251c47 169 169 291 327 291c11 0 21 0 30 -1l67 114l106 47zM254 289c-29 -70 -23 -115 19 -136
l185 318c-76 -6 -160 -74 -204 -182zM569 289c10 53 2 120 -35 156l-164 -304h2c49 3 173 19 197 148z" />
    <glyph glyph-name="otilde" unicode="&#xf5;" horiz-adv-x="669" 
d="M299 649c39 117 63 150 135 150c67 0 57 -100 102 -100c50 0 53 51 68 100h46c-41 -146 -73 -151 -127 -150c-72 1 -64 104 -101 105c-39 1 -56 -62 -68 -105h-55zM331 -11c-159 -6 -230 95 -177 284c47 169 169 291 327 291s223 -107 180 -276
c-45 -179 -173 -293 -330 -299zM372 141c49 3 173 19 197 148c14 77 -8 184 -105 182c-77 -2 -165 -71 -210 -182c-44 -107 -8 -156 118 -148z" />
    <glyph glyph-name="uni1E4D" unicode="&#x1e4d;" horiz-adv-x="669" 
d="M587 1011h52l-93 -154h-77zM309 637c39 117 63 150 135 150c67 0 57 -100 102 -100c50 0 53 51 68 100h46c-41 -146 -73 -151 -127 -150c-72 1 -64 104 -101 105c-39 1 -56 -62 -68 -105h-55zM331 -11c-159 -6 -230 95 -177 284c47 169 169 291 327 291
s223 -107 180 -276c-45 -179 -173 -293 -330 -299zM372 141c49 3 173 19 197 148c14 77 -8 184 -105 182c-77 -2 -165 -71 -210 -182c-44 -107 -8 -156 118 -148z" />
    <glyph glyph-name="oe" unicode="&#x153;" horiz-adv-x="1081" 
d="M661 287l-5 -17c-16 -88 35 -165 167 -158c76 4 122 33 208 66l-33 -150c-73 -28 -142 -42 -214 -42c-112 0 -186 44 -213 122c-62 -73 -146 -115 -240 -119c-159 -6 -230 95 -177 284c47 169 169 291 327 291c102 0 165 -45 186 -121c65 75 153 118 256 118
c110 -9 177 -65 161 -246zM910 498c-101 0 -186 -67 -204 -133l317 20c6 61 -23 113 -113 113zM372 141c49 3 173 19 197 148c14 77 -8 184 -105 182c-77 -2 -165 -71 -210 -182c-44 -107 -8 -156 118 -148z" />
    <glyph glyph-name="p" unicode="p" horiz-adv-x="738" 
d="M276 82l-120 -286l-132 -8l201 449l63 295h91l-2 -75c55 65 122 107 202 107c135 0 196 -126 152 -291c-46 -172 -169 -287 -303 -287c-71 0 -132 31 -152 96zM650 289c24 127 -7 174 -74 184c-95 14 -174 -59 -208 -184c-35 -133 21 -155 117 -155c86 0 140 22 165 155z
" />
    <glyph glyph-name="uni1E57" unicode="&#x1e57;" horiz-adv-x="738" 
d="M498 682h102l-27 -101h-102zM276 82l-120 -286l-132 -8l201 449l63 295h91l-2 -75c55 65 122 107 202 107c135 0 196 -126 152 -291c-46 -172 -169 -287 -303 -287c-71 0 -132 31 -152 96zM650 289c24 127 -7 174 -74 184c-95 14 -174 -59 -208 -184
c-35 -133 21 -155 117 -155c86 0 140 22 165 155z" />
    <glyph glyph-name="uni0278" unicode="&#x278;" horiz-adv-x="843" 
d="M621 742c207 0 306 -148 239 -378c-90 -310 -186 -380 -441 -378l-49 -228h-70l49 231c-182 15 -245 97 -171 375c50 186 174 319 329 362l47 221h70l-44 -207c13 1 27 2 41 2zM755 364c49 184 -8 308 -153 308c-13 0 -25 -1 -37 -3l-106 -496h10c144 0 246 40 286 191z
M283 364c-32 -121 13 -170 107 -186l100 468c-95 -46 -171 -148 -207 -282z" />
    <glyph glyph-name="uni01A5" unicode="&#x1a5;" horiz-adv-x="738" 
d="M579 564c135 0 196 -126 152 -291c-46 -172 -169 -287 -303 -287c-71 0 -132 31 -152 96l-120 -286l-132 -8l159 355l83 287l22 102h7c5 16 7 22 18 53c36 112 64 118 202 117l-25 -85c-74 0 -78 -3 -92 -51l-9 -31l-11 -38l-1 -40c55 65 122 107 202 107zM650 289
c24 127 -7 174 -74 184c-95 14 -174 -59 -208 -184c-35 -133 21 -155 117 -155c86 0 140 22 165 155z" />
    <glyph glyph-name="thorn" unicode="&#xfe;" horiz-adv-x="566" 
d="M343 636c140 -7 286 -107 241 -265c-59 -205 -245 -307 -388 -320l-58 -231h-89l246 980h89zM514 375c24 85 -107 184 -159 184c-11 0 -23 -4 -34 -11l-102 -404c7 -5 15 -7 23 -7c52 0 231 98 272 238z" />
    <glyph glyph-name="uni1D71" unicode="&#x1d71;" horiz-adv-x="738" 
d="M579 564c135 0 196 -126 152 -291c-46 -172 -169 -287 -303 -287c-71 0 -132 31 -152 96l-83 -198c85 1 90 42 117 81h81c-69 -113 -125 -121 -215 -121l-20 -48l-132 -8l40 89c-28 23 -39 51 -77 52c-69 0 -99 -50 -121 -85h-97c69 94 112 121 239 121
c42 0 67 -10 85 -23l132 295l63 295h91l-2 -75c55 65 122 107 202 107zM650 289c24 127 -7 174 -74 184c-95 14 -174 -59 -208 -184c-35 -133 21 -155 117 -155c86 0 140 22 165 155z" />
    <glyph glyph-name="q" unicode="q" horiz-adv-x="778" 
d="M401 -208l105 290c-56 -65 -162 -103 -243 -96c-133 11 -165 129 -114 300c59 199 184 281 303 285c104 3 143 -54 161 -124l33 100h87l-132 -361l-80 -256l76 20l95 30l-39 -120zM228 286c-41 -132 6 -149 102 -149s161 16 197 149c35 132 -10 211 -102 206
c-97 -5 -162 -93 -197 -206z" />
    <glyph glyph-name="uni02A0" unicode="&#x2a0;" horiz-adv-x="760" 
d="M700 664c48 108 76 111 208 97l-33 -82c-71 7 -76 5 -94 -42c-5 -10 -9 -20 -13 -30h1l-151 -375l-17 -46l-80 -256l76 20l95 30l-39 -120l-252 -68l105 290c-56 -65 -162 -103 -243 -96c-133 11 -165 129 -114 300c59 199 184 281 303 285c103 3 142 -53 160 -121l9 23
l25 74h5l7 17c27 68 21 52 42 100zM330 137c96 0 161 16 197 149c35 132 -10 211 -102 206c-97 -5 -162 -93 -197 -206c-41 -132 6 -149 102 -149z" />
    <glyph glyph-name="uni024B" unicode="&#x24b;" horiz-adv-x="883" 
d="M655 -49c21 -48 30 -70 47 -122c-111 -70 -250 -62 -275 17c-1 3 -1 8 -1 14l36 101l-36 -101c0 32 15 94 7 122l18 53c-57 -35 -129 -54 -188 -49c-133 11 -165 129 -114 300c59 199 184 281 303 285c104 3 143 -54 161 -124l33 100h87l-132 -361l-65 -207
c25 -40 66 -61 119 -28zM228 286c-41 -132 6 -149 102 -149s161 16 197 149c35 132 -10 211 -102 206c-97 -5 -162 -93 -197 -206zM499 74c0 -2 1 -4 2 -6l5 14c-2 -3 -5 -5 -7 -8z" />
    <glyph glyph-name="r" unicode="r" horiz-adv-x="517" 
d="M569 549v-90c-167 -16 -203 -17 -254 -145c-15 -37 -17 -160 -31 -314h-203c94 196 131 317 192 545l93 -3l-15 -56c67 42 100 57 218 63z" />
    <glyph glyph-name="racute" unicode="&#x155;" horiz-adv-x="517" 
d="M446 760h52l-93 -154h-77zM569 549v-90c-167 -16 -203 -17 -254 -145c-15 -37 -17 -160 -31 -314h-203c94 196 131 317 192 545l93 -3l-15 -56c67 42 100 57 218 63z" />
    <glyph glyph-name="uni0264" unicode="&#x264;" horiz-adv-x="703" 
d="M631 513c124 2 98 -116 82 -174h-66c12 58 12 114 -32 114c-42 0 -80 -50 -131 -126c4 -19 8 -39 13 -59c22 -96 42 -166 -7 -217c-48 -50 -103 -59 -147 -59c-60 0 -82 8 -103 59c-18 45 49 127 130 244c14 20 26 38 38 56c-7 58 -22 97 -60 97c-76 0 -92 -26 -114 -109
h-62c22 83 46 172 190 172c49 0 76 -37 96 -91c46 58 93 92 173 93zM361 57c64 0 57 60 54 167c-75 -109 -107 -167 -54 -167z" />
    <glyph glyph-name="rcaron" unicode="&#x159;" horiz-adv-x="517" 
d="M332 603l-28 64l-99 131h55l117 -99l173 99h55l-168 -131l-57 -64h-48zM569 549v-90c-167 -16 -203 -17 -254 -145c-15 -37 -17 -160 -31 -314h-203c94 196 131 317 192 545l93 -3l-15 -56c67 42 100 57 218 63z" />
    <glyph glyph-name="uni0157" unicode="&#x157;" horiz-adv-x="517" 
d="M409 592h-96l93 146h-4l25 87h111zM351 486c67 42 100 57 218 63v-90c-167 -16 -203 -17 -254 -145c-15 -37 -17 -160 -31 -314h-203c94 196 131 317 192 545l93 -3z" />
    <glyph glyph-name="uni1E5B" unicode="&#x1e5b;" horiz-adv-x="517" 
d="M569 549v-90c-167 -16 -203 -17 -254 -145c-15 -37 -17 -160 -31 -314h-203c94 196 131 317 192 545l93 -3l-15 -56c67 42 100 57 218 63zM107 -59h102l-27 -101h-102z" />
    <glyph glyph-name="uni027E" unicode="&#x27e;" horiz-adv-x="319" 
d="M203 449c34 112 60 118 187 117l-23 -85c-68 0 -72 -3 -85 -51l-9 -31h1l-106 -395h-86l92 341h-1c19 70 15 54 30 104z" />
    <glyph glyph-name="uni1D73" unicode="&#x1d73;" horiz-adv-x="319" 
d="M367 481c-68 0 -72 -3 -85 -51l-9 -31h1l-33 -123c44 4 48 53 62 100h46c-40 -141 -71 -150 -121 -150l-60 -222h-86l75 278c-11 25 -18 49 -36 49c-39 1 -56 -62 -68 -105h-55c39 117 63 150 135 150c20 0 33 -9 43 -21c16 59 13 47 27 94c34 112 60 118 187 117z" />
    <glyph glyph-name="uni027D" unicode="&#x27d;" horiz-adv-x="517" 
d="M351 486c67 42 100 57 218 63v-90c-167 -16 -203 -17 -254 -145c-15 -37 -17 -160 -31 -314h-27c13 -21 36 -34 73 -34c-8 -52 -12 -76 -25 -129c-131 0 -245 81 -224 161c0 1 0 1 1 2h-1c94 196 131 317 192 545l93 -3z" />
    <glyph glyph-name="uni027B" unicode="&#x27b;" horiz-adv-x="517" 
d="M-52 11v90c167 16 203 17 254 145c15 37 17 160 31 314h203c-94 -196 -131 -317 -192 -545l-93 3l15 56c-67 -42 -100 -57 -218 -63zM400 166c-9 -36 -28 -106 -32 -142c-5 -54 16 -100 86 -100c-8 -52 -13 -76 -26 -129c-131 0 -162 114 -138 205c5 19 37 138 45 166h65
z" />
    <glyph glyph-name="uni027A" unicode="&#x27a;" horiz-adv-x="534" 
d="M541 800l-106 -300h-27c-74 -163 -109 -281 -164 -485l-93 3l15 56c-67 -42 -100 -57 -218 -63v90c167 16 203 17 254 145c15 37 17 160 31 314h43l38 240h227z" />
    <glyph glyph-name="uni1D72" unicode="&#x1d72;" horiz-adv-x="517" 
d="M569 459c-167 -16 -203 -17 -254 -145c-5 -11 -8 -30 -11 -56c28 16 33 55 46 93h53c-35 -110 -65 -140 -104 -148c-4 -55 -8 -125 -15 -203h-203c45 95 77 172 105 252c-13 26 -22 53 -43 54c-44 1 -64 -62 -77 -105h-63c44 117 72 150 154 150c26 0 42 -12 53 -27
c21 65 40 136 63 221l93 -3l-15 -56c67 42 100 57 218 63v-90z" />
    <glyph glyph-name="uni0279" unicode="&#x279;" horiz-adv-x="517" 
d="M-52 11v90c167 16 203 17 254 145c15 37 17 160 31 314h203c-94 -196 -131 -317 -192 -545l-93 3l15 56c-67 -42 -100 -57 -218 -63z" />
    <glyph glyph-name="s" unicode="s" horiz-adv-x="635" 
d="M636 549l-37 -66c-40 5 -117 12 -147 12c-83 0 -122 -56 -129 -95c-12 -64 63 -83 113 -93c120 -24 160 -72 161 -150c2 -147 -145 -172 -279 -172c-108 0 -148 22 -224 63l128 109c53 -22 75 -36 136 -36c66 0 115 14 126 56c8 31 -93 44 -134 55
c-53 14 -131 55 -128 149c3 96 90 183 264 183c68 0 98 -11 150 -15z" />
    <glyph glyph-name="sacute" unicode="&#x15b;" horiz-adv-x="635" 
d="M554 760h52l-93 -154h-77zM636 549l-37 -66c-40 5 -117 12 -147 12c-83 0 -122 -56 -129 -95c-12 -64 63 -83 113 -93c120 -24 160 -72 161 -150c2 -147 -145 -172 -279 -172c-108 0 -148 22 -224 63l128 109c53 -22 75 -36 136 -36c66 0 115 14 126 56
c8 31 -93 44 -134 55c-53 14 -131 55 -128 149c3 96 90 183 264 183c68 0 98 -11 150 -15z" />
    <glyph glyph-name="uniA78C" unicode="&#xa78c;" horiz-adv-x="284" 
d="M284 758h122l-151 -422h-48z" />
    <glyph glyph-name="scaron" unicode="&#x161;" horiz-adv-x="768" 
d="M418 775l-28 64l-99 131h55l117 -99l173 99h55l-168 -131l-57 -64h-48zM766 720l-62 -74c-46 13 -58 16 -129 16c-108 0 -204 -36 -225 -113c-17 -64 52 -102 135 -120l56 -12c143 -30 232 -97 200 -216c-58 -215 -143 -215 -380 -215c-130 0 -219 0 -257 99l145 82
c30 -29 119 -67 175 -67c101 0 168 10 199 108c19 60 -41 95 -136 115l-58 12c-141 29 -187 88 -158 199c35 129 153 208 315 208c68 0 109 -5 180 -22z" />
    <glyph glyph-name="scedilla" unicode="&#x15f;" horiz-adv-x="635" 
d="M452 495c-83 0 -122 -56 -129 -95c-12 -64 63 -83 113 -93c120 -24 160 -72 161 -150c2 -147 -145 -172 -279 -172l-34 -53h31c40 0 97 -16 71 -76c-22 -49 -69 -78 -126 -78h-63l25 53c22 -5 30 -5 53 -5c36 0 70 19 75 35c11 44 -26 46 -52 46c-17 0 -38 -2 -63 -5
l51 84c-85 4 -124 25 -192 62l128 109c53 -22 75 -36 136 -36c66 0 115 14 126 56c8 31 -93 44 -134 55c-53 14 -131 55 -128 149c3 96 90 183 264 183c68 0 98 -11 150 -15l-37 -66c-40 5 -117 12 -147 12z" />
    <glyph glyph-name="scircumflex" unicode="&#x15d;" horiz-adv-x="635" 
d="M474 756h48l23 -64l98 -131h-55l-120 99l-170 -99h-55l169 131zM636 549l-37 -66c-40 5 -117 12 -147 12c-83 0 -122 -56 -129 -95c-12 -64 63 -83 113 -93c120 -24 160 -72 161 -150c2 -147 -145 -172 -279 -172c-108 0 -148 22 -224 63l128 109c53 -22 75 -36 136 -36
c66 0 115 14 126 56c8 31 -93 44 -134 55c-53 14 -131 55 -128 149c3 96 90 183 264 183c68 0 98 -11 150 -15z" />
    <glyph glyph-name="uni0219" unicode="&#x219;" horiz-adv-x="635" 
d="M517 592h-96l93 146h-4l25 87h111zM222 381c3 96 90 183 264 183c68 0 98 -11 150 -15l-37 -66c-40 5 -117 12 -147 12c-83 0 -122 -56 -129 -95c-12 -64 63 -83 113 -93c120 -24 160 -72 161 -150c2 -147 -145 -172 -279 -172c-108 0 -148 22 -224 63l128 109
c53 -22 75 -36 136 -36c66 0 115 14 126 56c8 31 -93 44 -134 55c-53 14 -131 55 -128 149z" />
    <glyph glyph-name="uni1E61" unicode="&#x1e61;" horiz-adv-x="635" 
d="M472 729h102l-27 -101h-102zM636 549l-37 -66c-40 5 -117 12 -147 12c-83 0 -122 -56 -129 -95c-12 -64 63 -83 113 -93c120 -24 160 -72 161 -150c2 -147 -145 -172 -279 -172c-108 0 -148 22 -224 63l128 109c53 -22 75 -36 136 -36c66 0 115 14 126 56
c8 31 -93 44 -134 55c-53 14 -131 55 -128 149c3 96 90 183 264 183c68 0 98 -11 150 -15z" />
    <glyph glyph-name="uni1E63" unicode="&#x1e63;" horiz-adv-x="635" 
d="M636 549l-37 -66c-40 5 -117 12 -147 12c-83 0 -122 -56 -129 -95c-12 -64 63 -83 113 -93c120 -24 160 -72 161 -150c2 -147 -145 -172 -279 -172c-108 0 -148 22 -224 63l128 109c53 -22 75 -36 136 -36c66 0 115 14 126 56c8 31 -93 44 -134 55
c-53 14 -131 55 -128 149c3 96 90 183 264 183c68 0 98 -11 150 -15zM258 -47h102l-27 -101h-102z" />
    <glyph glyph-name="germandbls" unicode="&#xdf;" horiz-adv-x="689" 
d="M81 0l178 555c35 131 137 205 280 205c137 0 191 -77 152 -223c-100 -5 -168 -44 -185 -107c-8 -31 3 -55 38 -83l24 -18c89 -69 100 -105 83 -170c-30 -112 -122 -173 -261 -173c-42 0 -85 8 -129 24l32 119c48 -20 90 -29 133 -29c77 0 123 22 134 62c3 14 2 27 -4 41
s-24 31 -51 51l-33 27c-20 38 -43 85 -28 139c22 82 67 141 204 160c-19 119 -51 125 -126 125c-85 0 -138 -40 -181 -152l-124 -553h-136z" />
    <glyph glyph-name="uni0282" unicode="&#x282;" horiz-adv-x="635" 
d="M452 495c-83 0 -122 -56 -129 -95c-12 -64 63 -83 113 -93c120 -24 160 -72 161 -150c2 -147 -145 -172 -279 -172c-71 0 -112 9 -154 28c-9 -24 -17 -52 -20 -69c-5 -39 16 -72 86 -72c-8 -38 -13 -55 -26 -94c-131 0 -162 83 -138 149c5 13 32 85 42 113
c-4 3 -9 5 -14 8l128 109c53 -22 75 -36 136 -36c66 0 115 14 126 56c8 31 -93 44 -134 55c-53 14 -131 55 -128 149c3 96 90 183 264 183c68 0 98 -11 150 -15l-37 -66c-40 5 -117 12 -147 12z" />
    <glyph glyph-name="uni1D74" unicode="&#x1d74;" horiz-adv-x="635" 
d="M452 495c-83 0 -122 -56 -129 -95c-12 -64 63 -83 113 -93c25 -5 46 -11 65 -18c5 9 10 19 16 29h61c-12 -21 -24 -38 -35 -51c38 -26 53 -63 54 -110c2 -147 -145 -172 -279 -172c-108 0 -148 22 -224 63l128 109c53 -22 75 -36 136 -36c66 0 115 14 126 56
c6 23 -50 36 -95 46c-8 1 -15 3 -22 5c-6 1 -12 3 -17 4c-30 8 -68 25 -95 55c-37 -9 -54 -42 -68 -65h-73c40 58 68 83 122 92c-9 19 -15 41 -14 67c3 96 90 183 264 183c68 0 98 -11 150 -15l-37 -66c-40 5 -117 12 -147 12z" />
    <glyph glyph-name="t" unicode="t" horiz-adv-x="572" 
d="M638 478h-206l-107 -327c52 0 154 0 172 -1l-32 -148c-38 -2 -216 -2 -263 -2c-34 0 -27 33 -25 40c3 13 83 215 160 438h-109l47 77h89c21 62 41 123 58 182h95l-60 -182h210z" />
    <glyph glyph-name="tbar" unicode="&#x167;" horiz-adv-x="572" 
d="M638 478h-206l-30 -92h142l-24 -91h-148l-47 -144c52 0 154 0 172 -1l-32 -148c-38 -2 -216 -2 -263 -2c-34 0 -27 33 -25 40c2 9 43 114 95 255h-147l25 91h155c11 30 22 61 32 92h-109l47 77h89c21 62 41 123 58 182h95l-60 -182h210z" />
    <glyph glyph-name="tcaron" unicode="&#x165;" horiz-adv-x="572" 
d="M420 764l-28 64l-99 131h55l117 -99l173 99h55l-168 -131l-57 -64h-48zM517 737l-60 -182h210l-29 -77h-206l-107 -327c52 0 154 0 172 -1l-32 -148c-38 -2 -216 -2 -263 -2c-34 0 -27 33 -25 40c3 13 83 215 160 438h-109l47 77h89c21 62 41 123 58 182h95z" />
    <glyph glyph-name="uni02A8" unicode="&#x2a8;" horiz-adv-x="572" 
d="M951 423c41 -35 52 -75 41 -115c-23 -84 -140 -167 -251 -190c-1 -1 -1 -2 -1 -3c-13 -65 -26 -127 -42 -190h-112c17 62 34 124 51 188c-170 15 -196 122 -152 285c8 28 18 55 30 80h-83l-107 -327c52 0 154 0 172 -1l-32 -148c-38 -2 -216 -2 -263 -2
c-34 0 -27 33 -25 40c3 13 83 215 160 438h-109l47 77h89c21 62 41 123 58 182h95l-60 -182h107c68 83 167 130 280 130c27 0 63 -5 82 -12l-19 -71c-29 10 -74 12 -103 12c-59 0 -105 -21 -141 -59h4l-29 -77h-24c-11 -24 -20 -51 -28 -80c-17 -66 -14 -164 80 -175l21 78
c25 93 95 158 171 158c31 0 64 -11 93 -36zM894 322c2 9 1 17 -5 23c-13 12 -27 19 -41 19c-28 0 -56 -26 -72 -87c-4 -15 -8 -30 -11 -44c71 19 121 60 129 89z" />
    <glyph glyph-name="uni0163" unicode="&#x163;" horiz-adv-x="572" 
d="M638 478h-206l-107 -327c52 0 154 0 172 -1l-32 -148c-18 -1 -68 -1 -120 -2l-49 -77h31c40 0 97 -16 71 -76c-22 -49 -69 -78 -126 -78h-63l25 53c22 -5 30 -5 53 -5c36 0 70 19 75 35c11 44 -26 46 -52 46c-17 0 -38 -2 -63 -5l65 107h-110c-34 0 -27 33 -25 40
c3 13 83 215 160 438h-109l47 77h89c21 62 41 123 58 182h95l-60 -182h210z" />
    <glyph glyph-name="uni1E71" unicode="&#x1e71;" horiz-adv-x="572" 
d="M457 555h210l-29 -77h-206l-107 -327c52 0 154 0 172 -1l-32 -148c-38 -2 -216 -2 -263 -2c-34 0 -27 33 -25 40c3 13 83 215 160 438h-109l47 77h89c21 62 41 123 58 182h95zM408 -4l23 -64l98 -131h-55l-120 99l-170 -99h-55l169 131l62 64h48z" />
    <glyph glyph-name="uni021B" unicode="&#x21b;" horiz-adv-x="572" 
d="M497 753h-96l93 146h-4l25 87h111zM638 478h-206l-107 -327c52 0 154 0 172 -1l-32 -148c-38 -2 -216 -2 -263 -2c-34 0 -27 33 -25 40c3 13 83 215 160 438h-109l47 77h89c21 62 41 123 58 182h95l-60 -182h210z" />
    <glyph glyph-name="uni1E6B" unicode="&#x1e6b;" horiz-adv-x="572" 
d="M554 890l-27 -101h-102l27 101h102zM638 478h-206l-107 -327c52 0 154 0 172 -1l-32 -148c-38 -2 -216 -2 -263 -2c-34 0 -27 33 -25 40c3 13 83 215 160 438h-109l47 77h89c21 62 41 123 58 182h95l-60 -182h210z" />
    <glyph glyph-name="uni1E6D" unicode="&#x1e6d;" horiz-adv-x="572" 
d="M638 478h-206l-107 -327c52 0 154 0 172 -1l-32 -148c-38 -2 -216 -2 -263 -2c-34 0 -27 33 -25 40c3 13 83 215 160 438h-109l47 77h89c21 62 41 123 58 182h95l-60 -182h210zM243 -157l27 101h102l-27 -101h-102z" />
    <glyph glyph-name="uni02A7" unicode="&#x2a7;" horiz-adv-x="930" 
d="M915 874c35 8 67 9 96 4l-3 -73c-24 14 -48 18 -76 11c-63 -14 -102 -62 -119 -154l-44 -248l-40 -253c-55 -344 -137 -355 -249 -381c-36 -8 -143 -4 -187 70l124 95c32 -14 62 -18 93 -11c62 14 95 63 120 180l47 278l47 248c24 128 95 212 191 234zM483 150l-37 -148
c-38 -2 -216 -2 -263 -2c-34 0 -26 33 -24 40c4 13 90 215 176 438h-109l49 77h89c23 62 45 123 65 182h95l-66 -182h91l16 60h151l-17 -66h-34l-29 -71h-206l-119 -327c52 0 154 0 172 -1z" />
    <glyph glyph-name="uni01AD" unicode="&#x1ad;" horiz-adv-x="572" 
d="M638 478h-206l-107 -327c52 0 154 0 172 -1l-32 -148c-38 -2 -216 -2 -263 -2c-34 0 -27 33 -25 40c3 13 83 215 160 438h-109l47 77h89l27 81c5 23 11 40 15 57c4 14 9 28 16 43v1c38 80 121 161 232 161c-16 -53 -24 -77 -44 -129c-39 0 -70 -14 -94 -36l-59 -178h210z
" />
    <glyph glyph-name="uni1E6F" unicode="&#x1e6f;" horiz-adv-x="572" 
d="M638 478h-206l-107 -327c52 0 154 0 172 -1l-32 -148c-38 -2 -216 -2 -263 -2c-34 0 -27 33 -25 40c3 13 83 215 160 438h-109l47 77h89c21 62 41 123 58 182h95l-60 -182h210zM171 -53l315 18l7 -57l-361 -13z" />
    <glyph glyph-name="uni1D75" unicode="&#x1d75;" horiz-adv-x="572" 
d="M638 478h-206l-52 -158c36 10 40 55 53 98h46c-38 -136 -68 -150 -116 -150l-38 -117c52 0 154 0 172 -1l-32 -148c-38 -2 -216 -2 -263 -2c-34 0 -27 33 -25 40c2 10 50 132 107 290c-9 22 -17 43 -33 43c-39 1 -56 -62 -68 -105h-55c39 117 63 150 135 150
c21 0 35 -10 45 -24c10 27 20 56 29 84h-109l47 77h89c21 62 41 123 58 182h95l-60 -182h210z" />
    <glyph glyph-name="uni0288" unicode="&#x288;" horiz-adv-x="572" 
d="M457 548l-169 -537c51 0 123 0 141 -1l-32 -148c-38 -2 -185 -2 -233 -2c-34 0 -26 43 -24 50c5 19 121 372 214 638h-126l47 67h103c16 46 31 87 44 122h95l-38 -122h158l1 -67h-181z" />
    <glyph glyph-name="uni02A6" unicode="&#x2a6;" horiz-adv-x="996" 
d="M817 538c-83 0 -122 -59 -129 -100c-12 -68 63 -88 113 -98c120 -26 160 -77 161 -159c2 -155 -145 -182 -279 -182c-108 0 -148 23 -224 67l128 115c53 -23 75 -38 136 -38c66 0 115 15 126 59c8 33 -93 47 -134 58c-53 15 -131 58 -128 158c1 49 23 96 64 131h-27
l-25 -71h-191l-100 -327c48 0 143 0 160 -1l-30 -148c-35 -2 -201 -2 -245 -2c-32 0 -25 33 -23 40c3 13 77 215 149 438h-102l44 77h83c19 62 38 123 54 182h89l-56 -182h56l16 60l361 -3v-1c59 -1 88 -11 137 -16l-37 -69c-40 5 -117 12 -147 12z" />
    <glyph glyph-name="u" unicode="u" horiz-adv-x="661" 
d="M292 -14c-125 0 -172 30 -132 230l67 331h76l-46 -250c-29 -157 16 -125 98 -125c98 0 157 53 189 143l72 232h90l-126 -547h-110l26 84c-60 -91 -125 -98 -204 -98z" />
    <glyph glyph-name="uacute" unicode="&#xfa;" horiz-adv-x="661" 
d="M616 547h90l-126 -547h-110l26 84c-44 -67 -90 -88 -143 -95h1l-93 -154h-77l116 151h-8c-125 0 -172 30 -132 230l67 331h76l-46 -250c-29 -157 16 -125 98 -125c98 0 157 53 189 143z" />
    <glyph glyph-name="uni0289" unicode="&#x289;" horiz-adv-x="644" 
d="M733 346l-74 -1l-79 -345h-110l26 84c-60 -91 -125 -98 -204 -98c-125 0 -172 30 -132 230l24 119l-115 -2l73 52l53 2l32 160h76l-29 -158l296 9l46 149h90l-34 -145l47 1zM544 315l9 27l-289 -5l-7 -40c-29 -157 16 -125 98 -125c98 0 157 53 189 143z" />
    <glyph glyph-name="uni01D4" unicode="&#x1d4;" horiz-adv-x="661" 
d="M448 686l-28 64l-99 131h55l117 -99l173 99h55l-168 -131l-57 -64h-48zM292 -14c-125 0 -172 30 -132 230l67 331h76l-46 -250c-29 -157 16 -125 98 -125c98 0 157 53 189 143l72 232h90l-126 -547h-110l26 84c-60 -91 -125 -98 -204 -98z" />
    <glyph glyph-name="ucircumflex" unicode="&#xfb;" horiz-adv-x="661" 
d="M494 818h48l23 -64l98 -131h-55l-120 99l-170 -99h-55l169 131zM292 -14c-125 0 -172 30 -132 230l67 331h76l-46 -250c-29 -157 16 -125 98 -125c98 0 157 53 189 143l72 232h90l-126 -547h-110l26 84c-60 -91 -125 -98 -204 -98z" />
    <glyph glyph-name="udieresis" unicode="&#xfc;" horiz-adv-x="661" 
d="M336 772h102l-27 -101h-102zM611 772h102l-27 -101h-102zM292 -14c-125 0 -172 30 -132 230l67 331h76l-46 -250c-29 -157 16 -125 98 -125c98 0 157 53 189 143l72 232h90l-126 -547h-110l26 84c-60 -91 -125 -98 -204 -98z" />
    <glyph glyph-name="uni01D8" unicode="&#x1d8;" horiz-adv-x="661" 
d="M588 935h52l-93 -154h-77zM317 702h102l-27 -101h-102zM592 702h102l-27 -101h-102zM292 -14c-125 0 -172 30 -132 230l67 331h76l-46 -250c-29 -157 16 -125 98 -125c98 0 157 53 189 143l72 232h90l-126 -547h-110l26 84c-60 -91 -125 -98 -204 -98z" />
    <glyph glyph-name="uni01DA" unicode="&#x1da;" horiz-adv-x="661" 
d="M474 778l-28 64l-99 131h55l117 -99l173 99h55l-168 -131l-57 -64h-48zM317 702h102l-27 -101h-102zM592 702h102l-27 -101h-102zM292 -14c-125 0 -172 30 -132 230l67 331h76l-46 -250c-29 -157 16 -125 98 -125c98 0 157 53 189 143l72 232h90l-126 -547h-110l26 84
c-60 -91 -125 -98 -204 -98z" />
    <glyph glyph-name="uni01DC" unicode="&#x1dc;" horiz-adv-x="661" 
d="M450 753l-87 112h79l139 -127zM317 702h102l-27 -101h-102zM592 702h102l-27 -101h-102zM292 -14c-125 0 -172 30 -132 230l67 331h76l-46 -250c-29 -157 16 -125 98 -125c98 0 157 53 189 143l72 232h90l-126 -547h-110l26 84c-60 -91 -125 -98 -204 -98z" />
    <glyph glyph-name="uni01D6" unicode="&#x1d6;" horiz-adv-x="661" 
d="M353 854l396 24l9 -77l-455 -17zM317 702h102l-27 -101h-102zM592 702h102l-27 -101h-102zM292 -14c-125 0 -172 30 -132 230l67 331h76l-46 -250c-29 -157 16 -125 98 -125c98 0 157 53 189 143l72 232h90l-126 -547h-110l26 84c-60 -91 -125 -98 -204 -98z" />
    <glyph glyph-name="uni1EE5" unicode="&#x1ee5;" horiz-adv-x="661" 
d="M292 -14c-125 0 -172 30 -132 230l67 331h76l-46 -250c-29 -157 16 -125 98 -125c98 0 157 53 189 143l72 232h90l-126 -547h-110l26 84c-60 -91 -125 -98 -204 -98zM263 -59h102l-27 -101h-102z" />
    <glyph glyph-name="ugrave" unicode="&#xf9;" horiz-adv-x="661" 
d="M447 687l-87 112h79l139 -127zM292 -14c-125 0 -172 30 -132 230l67 331h76l-46 -250c-29 -157 16 -125 98 -125c98 0 157 53 189 143l72 232h90l-126 -547h-110l26 84c-60 -91 -125 -98 -204 -98z" />
    <glyph glyph-name="uni1EE7" unicode="&#x1ee7;" horiz-adv-x="661" 
d="M458 745l-6 -21c19 8 34 13 49 13c23 0 31 -8 29 -14s-8 -11 -16 -17l-13 -9c-10 -7 -17 -9 -21 -15c-3 -4 -5 -10 -7 -16l-1 -3h29c1 5 3 9 5 12c1 1 4 4 11 8l13 7c18 10 28 21 30 31s-1 20 -10 26c-8 6 -20 10 -37 10c-16 0 -35 -4 -55 -12zM292 -14
c-125 0 -172 30 -132 230l67 331h76l-46 -250c-29 -157 16 -125 98 -125c98 0 157 53 189 143l72 232h90l-126 -547h-110l26 84c-60 -91 -125 -98 -204 -98z" />
    <glyph glyph-name="uhorn" unicode="&#x1b0;" horiz-adv-x="661" 
d="M754 603l47 -6c-1 -12 -1 -23 -4 -32c-10 -39 -34 -87 -72 -114c-23 -16 -29 -21 -48 -30l-97 -421h-110l26 84c-60 -91 -125 -98 -204 -98c-125 0 -172 30 -132 230l67 331h76l-46 -250c-29 -157 16 -125 98 -125c98 0 157 53 189 143l72 232h90l-16 -68c8 3 13 6 20 11
c28 20 38 66 43 83c3 11 2 20 1 30z" />
    <glyph glyph-name="uni1EE9" unicode="&#x1ee9;" horiz-adv-x="661" 
d="M614 843l-93 -154h-77l118 154h52zM754 603l47 -6c-1 -12 -1 -23 -4 -32c-10 -39 -34 -87 -72 -114c-23 -16 -29 -21 -48 -30l-97 -421h-110l26 84c-60 -91 -125 -98 -204 -98c-125 0 -172 30 -132 230l67 331h76l-46 -250c-29 -157 16 -125 98 -125c98 0 157 53 189 143
l72 232h90l-16 -68c8 3 13 6 20 11c28 20 38 66 43 83c3 11 2 20 1 30z" />
    <glyph glyph-name="uni1EF1" unicode="&#x1ef1;" horiz-adv-x="661" 
d="M754 603l47 -6c-1 -12 -1 -23 -4 -32c-10 -39 -34 -87 -72 -114c-23 -16 -29 -21 -48 -30l-97 -421h-110l26 84c-60 -91 -125 -98 -204 -98c-125 0 -172 30 -132 230l67 331h76l-46 -250c-29 -157 16 -125 98 -125c98 0 157 53 189 143l72 232h90l-16 -68c8 3 13 6 20 11
c28 20 38 66 43 83c3 11 2 20 1 30zM236 -160l27 101h102l-27 -101h-102z" />
    <glyph glyph-name="uni1EEB" unicode="&#x1eeb;" horiz-adv-x="661" 
d="M555 646l-131 15l-87 112h79zM754 603l47 -6c-1 -12 -1 -23 -4 -32c-10 -39 -34 -87 -72 -114c-23 -16 -29 -21 -48 -30l-97 -421h-110l26 84c-60 -91 -125 -98 -204 -98c-125 0 -172 30 -132 230l67 331h76l-46 -250c-29 -157 16 -125 98 -125c98 0 157 53 189 143
l72 232h90l-16 -68c8 3 13 6 20 11c28 20 38 66 43 83c3 11 2 20 1 30z" />
    <glyph glyph-name="uni1EED" unicode="&#x1eed;" horiz-adv-x="661" 
d="M530 723c2 6 -6 14 -29 14c-15 0 -30 -5 -49 -13l6 21c20 8 39 12 55 12c17 0 29 -4 37 -10c9 -6 12 -16 10 -26s-12 -21 -30 -31l-13 -7c-7 -4 -10 -7 -11 -8c-2 -3 -4 -7 -5 -12h-29l1 3c2 6 4 12 7 16c4 6 11 8 21 15l13 9c8 6 14 11 16 17zM754 603l47 -6
c-1 -12 -1 -23 -4 -32c-10 -39 -34 -87 -72 -114c-23 -16 -29 -21 -48 -30l-97 -421h-110l26 84c-60 -91 -125 -98 -204 -98c-125 0 -172 30 -132 230l67 331h76l-46 -250c-29 -157 16 -125 98 -125c98 0 157 53 189 143l72 232h90l-16 -68c8 3 13 6 20 11
c28 20 38 66 43 83c3 11 2 20 1 30z" />
    <glyph glyph-name="uni1EEF" unicode="&#x1eef;" horiz-adv-x="661" 
d="M423 773c-39 1 -56 -62 -68 -105h-55c39 117 63 150 135 150c67 0 57 -100 102 -100c50 0 53 51 68 100h46c-41 -146 -73 -151 -127 -150c-72 1 -64 104 -101 105zM754 603l47 -6c-1 -12 -1 -23 -4 -32c-10 -39 -34 -87 -72 -114c-23 -16 -29 -21 -48 -30l-97 -421h-110
l26 84c-60 -91 -125 -98 -204 -98c-125 0 -172 30 -132 230l67 331h76l-46 -250c-29 -157 16 -125 98 -125c98 0 157 53 189 143l72 232h90l-16 -68c8 3 13 6 20 11c28 20 38 66 43 83c3 11 2 20 1 30z" />
    <glyph glyph-name="uhungarumlaut" unicode="&#x171;" horiz-adv-x="661" 
d="M466 662l-131 -15l139 127h79zM651 662l-131 -15l139 127h79zM292 -14c-125 0 -172 30 -132 230l67 331h76l-46 -250c-29 -157 16 -125 98 -125c98 0 157 53 189 143l72 232h90l-126 -547h-110l26 84c-60 -91 -125 -98 -204 -98z" />
    <glyph glyph-name="umacron" unicode="&#x16b;" horiz-adv-x="661" 
d="M327 762l396 24l9 -77l-455 -17zM292 -14c-125 0 -172 30 -132 230l67 331h76l-46 -250c-29 -157 16 -125 98 -125c98 0 157 53 189 143l72 232h90l-126 -547h-110l26 84c-60 -91 -125 -98 -204 -98z" />
    <glyph glyph-name="uogonek" unicode="&#x173;" horiz-adv-x="661" 
d="M546 0c-70 -53 -109 -90 -115 -114c-5 -20 12 -31 54 -31c15 0 35 2 57 5c-3 -20 -6 -53 -8 -70c-117 -2 -177 30 -162 86c9 34 46 76 115 124h-17l26 84c-60 -91 -125 -98 -204 -98c-125 0 -172 30 -132 230l67 331h76l-46 -250c-29 -157 16 -125 98 -125
c98 0 157 53 189 143l72 232h90l-126 -547h-34z" />
    <glyph glyph-name="uni028A" unicode="&#x28a;" horiz-adv-x="867" 
d="M1020 166c62 -230 -32 -378 -239 -378s-381 148 -442 378c-50 185 17 220 45 262c-54 6 -101 12 -139 19c-7 28 -16 59 -25 95c24 1 56 0 99 0h179c12 -42 16 -61 24 -123c-109 10 -105 -153 -78 -253c49 -184 174 -308 318 -308c145 0 203 124 153 308
c-27 100 -118 216 -230 248c-21 53 -34 86 -45 128h165c39 0 99 4 120 0l25 -95c-36 -5 -42 -5 -129 -19c76 -42 149 -74 199 -262z" />
    <glyph glyph-name="uring" unicode="&#x16f;" horiz-adv-x="661" 
d="M500 684c-50 0 -79 43 -65 96c14 52 66 95 116 95c51 0 80 -43 66 -95c-14 -53 -66 -96 -117 -96zM515 739c28 0 52 1 66 54c8 29 -9 53 -37 53c-29 0 -58 -24 -66 -53c-14 -53 9 -54 37 -54zM292 -14c-125 0 -172 30 -132 230l67 331h76l-46 -250
c-29 -157 16 -125 98 -125c98 0 157 53 189 143l72 232h90l-126 -547h-110l26 84c-60 -91 -125 -98 -204 -98z" />
    <glyph glyph-name="utilde" unicode="&#x169;" horiz-adv-x="661" 
d="M300 668c39 117 63 150 135 150c67 0 57 -100 102 -100c50 0 53 51 68 100h46c-41 -146 -73 -151 -127 -150c-72 1 -64 104 -101 105c-39 1 -56 -62 -68 -105h-55zM292 -14c-125 0 -172 30 -132 230l67 331h76l-46 -250c-29 -157 16 -125 98 -125c98 0 157 53 189 143
l72 232h90l-126 -547h-110l26 84c-60 -91 -125 -98 -204 -98z" />
    <glyph glyph-name="v" unicode="v" horiz-adv-x="762" 
d="M293 0l10 144l-76 403h96l107 -401l301 401h96l-289 -403l-59 -144h-186z" />
    <glyph glyph-name="uni028B" unicode="&#x28b;" horiz-adv-x="566" 
d="M139 216l88 331h86l-67 -250c-42 -157 6 -157 87 -157c98 0 115 57 157 214c15 56 49 141 -45 141l20 75c191 0 145 -101 89 -312c-26 -97 -54 -274 -262 -274c-125 0 -204 43 -153 232z" />
    <glyph glyph-name="uni1E7D" unicode="&#x1e7d;" horiz-adv-x="762" 
d="M329 538c39 117 63 150 135 150c67 0 57 -100 102 -100c50 0 53 51 68 100h46c-41 -146 -73 -151 -127 -150c-72 1 -64 104 -101 105c-39 1 -56 -62 -68 -105h-55zM293 0l10 144l-76 403h96l107 -401l301 401h96l-289 -403l-59 -144h-186z" />
    <glyph glyph-name="uni028C" unicode="&#x28c;" horiz-adv-x="836" 
d="M515 728h206l34 -729h-104l-62 515h-48l-358 -515h-103z" />
    <glyph glyph-name="w" unicode="w" horiz-adv-x="903" 
d="M225 0l22 560h91v-362l196 225h62l75 -225l207 363h91l-291 -561h-127l-49 189l-155 -189h-122z" />
    <glyph glyph-name="wacute" unicode="&#x1e83;" horiz-adv-x="903" 
d="M225 0l22 560h91v-362l196 225h62l75 -225l207 363h91l-291 -561h-127l-49 189l-155 -189h-122zM423 -11h52l-93 -154h-77z" />
    <glyph glyph-name="wcircumflex" unicode="&#x175;" horiz-adv-x="903" 
d="M627 815h48l23 -64l98 -131h-55l-120 99l-170 -99h-55l169 131zM225 0l22 560h91v-362l196 225h62l75 -225l207 363h91l-291 -561h-127l-49 189l-155 -189h-122z" />
    <glyph glyph-name="wdieresis" unicode="&#x1e85;" horiz-adv-x="903" 
d="M469 769h102l-27 -101h-102zM744 769h102l-27 -101h-102zM225 0l22 560h91v-362l196 225h62l75 -225l207 363h91l-291 -561h-127l-49 189l-155 -189h-122z" />
    <glyph glyph-name="wgrave" unicode="&#x1e81;" horiz-adv-x="903" 
d="M580 684l-87 112h79l139 -127zM225 0l22 560h91v-362l196 225h62l75 -225l207 363h91l-291 -561h-127l-49 189l-155 -189h-122z" />
    <glyph glyph-name="uni2C73" unicode="&#x2c73;" horiz-adv-x="903" 
d="M1006 627c5 -9 12 -17 21 -31l-27 -170c-11 16 -32 50 -49 55c-7 2 -16 1 -27 -7l-246 -474h-127l-49 189l-155 -189h-122l22 560h91v-362l196 225h62l75 -225l207 363h9c58 79 101 94 119 66z" />
    <glyph glyph-name="uni028D" unicode="&#x28d;" horiz-adv-x="903" 
d="M371 500h122l54 -189l150 189h127l-10 -561h-91l-12 363l-196 -225h-62l-75 225l-194 -362h-91z" />
    <glyph glyph-name="x" unicode="x" horiz-adv-x="797" 
d="M801 528l-267 -255l154 -283h-181l-72 188l-197 -188h-151l315 272l-100 260h97l97 -178l213 184h92z" />
    <glyph glyph-name="y" unicode="y" horiz-adv-x="699" 
d="M765 561l-310 -624c-78 -157 -239 -155 -319 -155h-83l32 119h63c92 0 218 45 218 152l-139 508h96l136 -412l210 412h96z" />
    <glyph glyph-name="yacute" unicode="&#xfd;" horiz-adv-x="699" 
d="M624 934h52l-93 -154h-77zM765 561l-310 -624c-78 -157 -239 -155 -319 -155h-83l32 119h63c92 0 218 45 218 152l-139 508h96l136 -412l210 412h96z" />
    <glyph glyph-name="ycircumflex" unicode="&#x177;" horiz-adv-x="699" 
d="M556 888h48l23 -64l98 -131h-55l-120 99l-170 -99h-55l169 131zM765 561l-310 -624c-78 -157 -239 -155 -319 -155h-83l32 119h63c92 0 218 45 218 152l-139 508h96l136 -412l210 412h96z" />
    <glyph glyph-name="ydieresis" unicode="&#xff;" horiz-adv-x="699" 
d="M398 842h102l-27 -101h-102zM673 842h102l-27 -101h-102zM765 561l-310 -624c-78 -157 -239 -155 -319 -155h-83l32 119h63c92 0 218 45 218 152l-139 508h96l136 -412l210 412h96z" />
    <glyph glyph-name="uni1EF5" unicode="&#x1ef5;" horiz-adv-x="699" 
d="M669 561h96l-310 -624c-78 -157 -239 -155 -319 -155h-83l32 119h63c42 0 90 9 131 29l3 11h16c40 25 68 61 68 112l-139 508h96l136 -412z" />
    <glyph glyph-name="ygrave" unicode="&#x1ef3;" horiz-adv-x="699" 
d="M509 757l-87 112h79l139 -127zM765 561l-310 -624c-78 -157 -239 -155 -319 -155h-83l32 119h63c92 0 218 45 218 152l-139 508h96l136 -412l210 412h96z" />
    <glyph glyph-name="uni01B4" unicode="&#x1b4;" horiz-adv-x="699" 
d="M785 605c5 -10 11 -18 18 -33l-39 -174c-10 17 -28 52 -44 58c-2 1 -4 1 -7 1l-258 -520c-78 -157 -239 -155 -319 -155h-83l32 119h63c92 0 218 45 218 152l-139 508h96l136 -412l87 171c-2 4 -6 8 -9 13c39 76 75 134 107 178l25 50h14c53 60 88 69 102 44z" />
    <glyph glyph-name="uni1EF7" unicode="&#x1ef7;" horiz-adv-x="699" 
d="M520 815l-6 -21c19 8 34 13 49 13c23 0 31 -8 29 -14s-8 -11 -16 -17l-13 -9c-10 -7 -17 -9 -21 -15c-3 -4 -5 -10 -7 -16l-1 -3h29c1 5 3 9 5 12c1 1 4 4 11 8l13 7c18 10 28 21 30 31s-1 20 -10 26c-8 6 -20 10 -37 10c-16 0 -35 -4 -55 -12zM765 561l-310 -624
c-78 -157 -239 -155 -319 -155h-83l32 119h63c92 0 218 45 218 152l-139 508h96l136 -412l210 412h96z" />
    <glyph glyph-name="uni1EF9" unicode="&#x1ef9;" horiz-adv-x="699" 
d="M362 738c39 117 63 150 135 150c67 0 57 -100 102 -100c50 0 53 51 68 100h46c-41 -146 -73 -151 -127 -150c-72 1 -64 104 -101 105c-39 1 -56 -62 -68 -105h-55zM765 561l-310 -624c-78 -157 -239 -155 -319 -155h-83l32 119h63c92 0 218 45 218 152l-139 508h96
l136 -412l210 412h96z" />
    <glyph glyph-name="uni028E" unicode="&#x28e;" horiz-adv-x="699" 
d="M81 -11l310 624c78 157 239 155 319 155h83l-32 -119h-63c-92 0 -218 -45 -218 -152l139 -508h-96l-136 412l-210 -412h-96z" />
    <glyph glyph-name="z" unicode="z" horiz-adv-x="678" 
d="M300 482l18 67h413l-5 -67l-452 -361h288l25 -121h-506l59 131l476 351h-316z" />
    <glyph glyph-name="zacute" unicode="&#x17a;" horiz-adv-x="678" 
d="M575 760h52l-93 -154h-77zM300 482l18 67h413l-5 -67l-452 -361h288l25 -121h-506l59 131l476 351h-316z" />
    <glyph glyph-name="zcaron" unicode="&#x17e;" horiz-adv-x="678" 
d="M461 603l-28 64l-99 131h55l117 -99l173 99h55l-168 -131l-57 -64h-48zM300 482l18 67h413l-5 -67l-452 -361h288l25 -121h-506l59 131l476 351h-316z" />
    <glyph glyph-name="uni1E91" unicode="&#x1e91;" horiz-adv-x="678" 
d="M495 756h48l23 -64l98 -131h-55l-120 99l-170 -99h-55l169 131zM300 482l18 67h413l-5 -67l-452 -361h288l25 -121h-506l59 131l476 351h-316z" />
    <glyph glyph-name="uni0291" unicode="&#x291;" horiz-adv-x="733" 
d="M726 482l-452 -361h168c59 122 121 157 201 134c130 -36 4 -255 -129 -255h-23c-16 -50 -35 -113 -56 -193h-100c20 74 39 139 58 193h-312l59 131l476 351h-316l18 67h413zM596 169c-12 12 -29 13 -58 -47c71 5 66 38 58 47z" />
    <glyph glyph-name="zdotaccent" unicode="&#x17c;" horiz-adv-x="678" 
d="M493 729h102l-27 -101h-102zM300 482l18 67h413l-5 -67l-452 -361h288l25 -121h-506l59 131l476 351h-316z" />
    <glyph glyph-name="uni1E93" unicode="&#x1e93;" horiz-adv-x="678" 
d="M300 482l18 67h413l-5 -67l-452 -361h288l25 -121h-506l59 131l476 351h-316zM272 -59h102l-27 -101h-102z" />
    <glyph glyph-name="uni1D76" unicode="&#x1d76;" horiz-adv-x="678" 
d="M731 549l-5 -67l-263 -210c70 1 74 36 96 68h68c-60 -99 -107 -102 -187 -101c-6 0 -12 0 -17 1l-149 -119h288l25 -121h-506l59 131l201 149c-14 15 -25 30 -49 30c-57 0 -82 -42 -100 -71h-81c57 79 93 101 198 101c42 0 63 -12 79 -26l228 168h-316l18 67h413z" />
    <glyph glyph-name="uni0290" unicode="&#x290;" horiz-adv-x="686" 
d="M731 549l-5 -67l-452 -361h363l-32 -121h-138c0 -3 -1 -5 -1 -7c-3 -25 -6 -46 26 -46c-3 -28 -5 -38 -10 -55c-60 0 -63 48 -52 90c1 6 3 11 5 18h-354l59 131l476 351h-316l18 67h413z" />
    <glyph glyph-name="a.ss01" horiz-adv-x="582" 
d="M584 309c44 165 -5 245 -150 245c-47 0 -100 -9 -158 -30c-14 -5 -17 -7 -21 -8l-20 -75c16 11 14 9 31 17c47 20 95 31 143 31c94 -7 126 -56 104 -139c-1 -5 -10 -8 -24 -8h-93c-149 0 -240 -63 -273 -185c-28 -104 20 -171 120 -171c64 0 117 20 163 59
c19 15 28 11 23 -10l-3 -11c-5 -16 -3 -11 -7 -24h82c6 21 2 9 6 24zM425 276c14 0 21 -8 16 -24l1 4c-31 -115 -68 -134 -150 -134c-53 0 -93 4 -95 45c-1 11 1 19 5 29c20 56 61 80 172 80h51z" />
    <glyph glyph-name="a.ss04" horiz-adv-x="663" 
d="M295 -14c-158 0 -210 115 -141 265c71 153 194 274 286 274c71 0 133 -21 154 -79l9 79h52l-73 -525h-91l22 82c-56 -65 -137 -96 -218 -96zM324 138c183 0 195 32 230 161c40 149 -61 177 -129 177c-61 0 -118 -42 -189 -180c-63 -121 -62 -158 88 -158z" />
    <glyph glyph-name="b.ss04" horiz-adv-x="660" 
d="M348 -14c-145 0 -177 41 -184 113c-9 45 62 331 129 694h95l-85 -319c-20 -75 82 58 191 58c134 0 196 -115 158 -259c-46 -172 -170 -287 -304 -287zM412 146c82 6 147 47 187 147c26 99 -4 175 -101 175c-96 0 -173 -73 -201 -179c-28 -102 -16 -143 115 -143z" />
    <glyph glyph-name="c.ss04" horiz-adv-x="599" 
d="M595 548l-19 -71c-29 10 -74 12 -103 12c-118 0 -182 -83 -218 -216c-25 -130 73 -200 195 -138l74 -114c-57 -23 -115 -39 -175 -35c-206 14 -242 111 -195 287c48 178 187 287 359 287c27 0 63 -5 82 -12z" />
    <glyph glyph-name="d.ss04" horiz-adv-x="673" 
d="M303 -14c-160 -5 -195 115 -149 287c40 148 163 263 297 263c80 0 131 -31 151 -96l113 360h91l-175 -565l-52 -237l-95 2l22 82c-55 -65 -121 -93 -203 -96zM338 149c96 0 151 20 183 141c29 108 2 181 -94 181c-97 0 -176 -80 -205 -188c-25 -95 20 -134 116 -134z" />
    <glyph glyph-name="e.ss04" horiz-adv-x="661" 
d="M304 -14c-176 0 -258 109 -211 282c55 179 183 292 350 292c110 -9 177 -64 161 -245l-424 -28c-26 -95 19 -174 163 -168c75 3 122 0 208 33l-33 -124c-73 -28 -142 -42 -214 -42zM226 374l326 11c6 61 -32 128 -122 128c-101 0 -186 -73 -204 -139z" />
    <glyph glyph-name="f.ss04" horiz-adv-x="489" 
d="M147 0l138 458h-81l23 89h82c58 214 118 248 222 248h81l-20 -75h-82c-90 0 -111 -136 -112 -175l157 2l-24 -89h-145l-107 -458h-132z" />
    <glyph glyph-name="g.ss04" horiz-adv-x="666" 
d="M234 -261c-64 0 -137 16 -191 47l72 132c46 -29 94 -42 148 -42c119 0 199 111 230 176l8 30c-43 -45 -113 -82 -194 -82c-135 0 -196 111 -151 280s166 280 301 280c81 0 99 -42 143 -83l40 70h91l-149 -478c-69 -221 -175 -330 -348 -330zM322 146c98 0 164 10 199 139
c35 131 -3 205 -100 205s-174 -74 -209 -205c-22 -129 13 -139 110 -139z" />
    <glyph glyph-name="h.ss04" horiz-adv-x="683" 
d="M669 330l-67 -330h-139c172 365 190 476 32 476c-160 0 -216 -91 -265 -476h-149l273 800h91l-109 -331c85 63 122 79 199 79c127 0 173 -26 134 -218z" />
    <glyph glyph-name="i.ss04" horiz-adv-x="285" 
d="M268 646l36 114h80l-25 -114h-91zM81 0c64 192 95 285 155 506h80c-51 -165 -91 -314 -112 -506h-123z" />
    <glyph glyph-name="j.ss04" horiz-adv-x="418" 
d="M436 748h102l-27 -101h-102zM186 -74c34 64 94 209 213 611h95l-179 -551c-34 -106 -92 -174 -111 -186c-40 -25 -165 -45 -208 -13l42 115c85 -29 126 3 148 24z" />
    <glyph glyph-name="k.ss04" horiz-adv-x="667" 
d="M81 0l255 793h91l-151 -462l196 171l98 -2l-218 -201l234 -299h-207l-118 255l-59 -255h-121z" />
    <glyph glyph-name="l.ss04" horiz-adv-x="394" 
d="M81 0c30 111 149 506 252 784h86c-91 -240 -209 -660 -213 -673h121l-14 -111h-232z" />
    <glyph glyph-name="m.ss04" horiz-adv-x="1034" 
d="M698 442c67 80 130 118 215 118c115 0 139 -139 118 -230l-78 -330h-136l126 342c28 105 19 155 -57 155c-95 0 -151 -72 -198 -188l-125 -309h-126l165 347c19 69 4 154 -74 154c-93 0 -120 -10 -200 -148l-121 -353h-126l212 547h91l-33 -85c59 67 124 98 204 98
c81 0 137 -41 143 -118z" />
    <glyph glyph-name="n.ss04" horiz-adv-x="676" 
d="M659 323l-64 -323h-140l122 339c36 100 -10 143 -90 143c-111 0 -187 -63 -207 -168l-60 -314h-139l189 556h67l1 -61c51 29 102 60 178 60c127 0 178 -58 143 -232z" />
    <glyph glyph-name="o.ss04" horiz-adv-x="669" 
d="M331 -14c-159 0 -225 108 -177 287c45 169 169 276 327 276s225 -107 180 -276c-48 -179 -173 -287 -330 -287zM372 141c136 0 164 22 197 148c31 114 -8 194 -105 194s-179 -78 -210 -194c-34 -128 2 -148 118 -148z" />
    <glyph glyph-name="p.ss04" horiz-adv-x="738" 
d="M24 -212l201 449l63 295h91l-2 -75c55 65 122 96 202 96c135 0 196 -115 152 -280c-46 -172 -169 -287 -303 -287c-81 0 -132 31 -152 96l-120 -286zM485 134c96 0 156 22 191 155c34 125 -3 204 -100 204c-95 0 -174 -79 -208 -204c-35 -133 21 -155 117 -155z" />
    <glyph glyph-name="q.ss04" horiz-adv-x="778" 
d="M401 -208l105 290c-56 -65 -122 -96 -203 -96c-133 0 -195 115 -149 287s165 281 298 281c97 0 130 -42 161 -127l33 120h87l-132 -361l-80 -256l76 20l95 30l-39 -120zM330 137c96 0 161 16 197 149c35 132 -6 206 -102 206c-97 0 -172 -74 -207 -206
c-36 -133 16 -149 112 -149z" />
    <glyph glyph-name="r.ss04" horiz-adv-x="517" 
d="M569 549l-10 -90c-167 -16 -228 -48 -254 -145c-15 -58 -37 -150 -51 -314h-173c94 196 131 317 192 545l93 -3l-15 -56c67 42 100 57 218 63z" />
    <glyph glyph-name="s.ss04" horiz-adv-x="635" 
d="M636 549l-37 -60c-61 8 -61 8 -119 8c-131 0 -181 -50 -190 -97c-12 -69 52 -89 145 -108c105 -22 182 -57 162 -135c-45 -168 -125 -171 -279 -171c-68 0 -148 22 -224 63l128 108c53 -22 75 -30 136 -30c66 0 114 8 126 50c14 52 -61 33 -127 58
c-42 16 -156 49 -131 141c28 103 86 188 260 188c68 0 102 -6 150 -15z" />
    <glyph glyph-name="t.ss04" horiz-adv-x="572" 
d="M455 548l-130 -397c52 0 154 0 172 -1l-32 -148c-38 -2 -216 -2 -263 -2c-34 0 -27 43 -25 50c5 18 94 273 176 498h-125l47 67h102c16 44 31 85 45 122h95l-40 -122h160l1 -67h-183z" />
    <glyph glyph-name="u.ss04" horiz-adv-x="661" 
d="M292 -16c-125 0 -171 43 -132 232l67 331h76l-46 -250c-29 -157 16 -157 98 -157c98 0 157 85 189 175l72 232h90l-126 -547h-110l26 84c-60 -91 -125 -100 -204 -100z" />
    <glyph glyph-name="v.ss04" horiz-adv-x="762" 
d="M293 0l10 144l-76 403h96l107 -401l301 401h96l-289 -403l-59 -144h-186z" />
    <glyph glyph-name="w.ss04" horiz-adv-x="903" 
d="M225 0l2 547h91l20 -349l196 225h62l75 -225l207 349h91l-291 -547h-127l-49 189l-155 -189h-122z" />
    <glyph glyph-name="x.ss04" horiz-adv-x="797" 
d="M801 528l-273 -261l140 -277h-141l-83 197l-206 -197h-141l313 276l-108 256h97l93 -185l217 191h92z" />
    <glyph glyph-name="y.ss04" horiz-adv-x="699" 
d="M765 547l-370 -610c-103 -143 -179 -155 -259 -155h-83l32 119h63c92 0 164 60 242 207l-163 439h96l136 -338l210 338h96z" />
    <glyph glyph-name="z.ss04" horiz-adv-x="678" 
d="M300 482l18 67h413l-5 -67l-452 -361h288l25 -121h-506l59 131l476 351h-316z" />
    <glyph glyph-name="longs_t" horiz-adv-x="857" 
d="M592 720h-82c-90 0 -111 -136 -112 -175l-12 -87l-107 -458h-132l138 458h-81l23 89h82c58 214 118 248 222 248h81zM926 486h-206l-107 -327c52 0 154 0 172 -1l-32 -148c-38 -2 -216 -2 -263 -2c-34 0 -27 33 -25 40c3 13 83 215 160 438h-109l47 77h89
c21 62 41 123 58 182h95l-60 -182h210z" />
    <glyph glyph-name="s_t" horiz-adv-x="1207" 
d="M1163 461h-206l-107 -327c52 0 154 0 172 -1l-32 -148c-38 -2 -216 -2 -263 -2c-34 0 -27 33 -25 40c3 13 83 215 160 438h-109l47 77h89c21 62 41 123 58 182h95l-60 -182h210zM526 486c-83 0 -122 -56 -129 -95c-12 -64 63 -83 113 -93c120 -24 160 -72 161 -150
c2 -147 -145 -172 -279 -172c-108 0 -148 22 -224 63l128 109c53 -22 75 -36 136 -36c66 0 115 14 126 56c8 31 -93 44 -134 55c-53 14 -131 55 -128 149c3 96 90 183 264 183c68 0 98 -11 150 -15l-37 -66c-40 5 -117 12 -147 12z" />
    <glyph glyph-name="ordfeminine" unicode="&#xaa;" horiz-adv-x="423" 
d="M462 655l4 42h28l-39 -275h-47l11 43c-29 -34 -71 -50 -114 -50c-82 0 -120 60 -84 138c37 80 96 144 144 144c37 0 86 -11 97 -42zM281 574c-33 -56 -38 -83 40 -83c96 0 102 17 121 84c21 78 -32 82 -68 82c-32 0 -71 -46 -93 -83z" />
    <glyph glyph-name="ordmasculine" unicode="&#xba;" horiz-adv-x="424" 
d="M200 409c-82 -3 -119 49 -91 147c24 87 87 150 169 150c81 0 115 -55 93 -142c-24 -93 -90 -152 -171 -155zM221 488c26 1 90 10 102 76c7 40 -4 95 -54 94c-40 -1 -85 -36 -109 -94c-22 -55 -4 -80 61 -76z" />
    <glyph glyph-name="uni01C2" unicode="&#x1c2;" horiz-adv-x="613" 
d="M593 337l9 -77l-208 -8l-120 -402h-70l119 400l-176 -7l50 70l148 9l46 153l-184 -7l50 70l155 9l46 153h70l-44 -148l169 10l9 -77l-200 -7l-46 -152z" />
    <glyph glyph-name="uni01C0" unicode="&#x1c0;" horiz-adv-x="259" 
d="M295 700h70l-254 -850h-70z" />
    <glyph glyph-name="uni01C1" unicode="&#x1c1;" horiz-adv-x="550" 
d="M295 700h70l-254 -850h-70zM587 700h70l-254 -850h-70z" />
    <glyph glyph-name="uni01C3" unicode="&#x1c3;" horiz-adv-x="285" 
d="M275 700h133c-77 -182 -122 -341 -159 -506h-90c58 221 82 324 116 506zM126 54h91l-36 -114h-80z" />
    <glyph glyph-name="uni02B0" unicode="&#x2b0;" horiz-adv-x="683" 
d="M669 330l-67 -330h-139c172 365 125 417 78 435c-101 39 -262 -50 -311 -435h-149l273 802h91l-109 -333c85 63 112 79 199 79c127 0 173 -26 134 -218z" />
    </font>
</defs>
</svg>
