<?xml version="1.0" standalone="no"?>
<!DOCTYPE svg PUBLIC "-//W3C//DTD SVG 1.1//EN" "http://www.w3.org/Graphics/SVG/1.1/DTD/svg11.dtd" >
<svg xmlns="http://www.w3.org/2000/svg" xmlns:xlink="http://www.w3.org/1999/xlink" version="1.1">
<metadata>
Created by FontForge 20190801 at Tue Nov  4 22:30:21 2014
 By root
Original Fonts are (c) Bitstream. OpenDyslexic changes and additional glyphs by Abelardo Gonzalez are licensed under a Creative Commons Attribution 3.0 Unported License.
Based on a work at http://dyslexicfonts.com. 2012 by Abelardo Gonzalez. Copying is an act of love. Please copy.
Bitstream license available here: http://opendyslexic.org/legal/
</metadata>
<defs>
<font id="OpenDyslexic-Italic" horiz-adv-x="618" >
  <font-face 
    font-family="OpenDyslexic"
    font-weight="400"
    font-style="italic"
    font-stretch="normal"
    units-per-em="1000"
    panose-1="0 0 5 0 0 0 0 0 0 0"
    ascent="800"
    descent="-200"
    x-height="541"
    cap-height="720"
    bbox="-74 -496 1268 1037"
    underline-thickness="50"
    underline-position="-263"
    slope="-12"
    unicode-range="U+0020-FB02"
  />
<missing-glyph horiz-adv-x="746" 
d="M88 -172q128 17 247 17t244 -17q3 419 76 872q-127 -18 -252 -18q-121 0 -238 18q-9 -451 -77 -872zM153 -34q43 335 55 681q90 -10 191 -10q90 0 203 10q-48 -319 -65 -681q-101 8 -189 8q-91 0 -195 -8z" />
    <glyph glyph-name="fi" unicode="fi" horiz-adv-x="723" 
d="M611 541q-117 -6 -233 -6h-43q-28 0 -43 1q2 20 2 31l3 31q5 34 22 57q21 27 71 27q3 1 41 9q7 2 20.5 5.5t20.5 4.5q1 5 2.5 16t2.5 16l3 32q-36 -4 -55 -6q-29 -3 -58 -9q-66 -14 -106 -48q-31 -27 -42 -79q-8 -34 -8 -86q-29 1 -80 5q-2 -20 -2 -28q-1 -4 -1 -13
t-1 -14q39 -3 80 -3q-29 -282 -61 -472q18 2 111 7q18 215 31 464q14 -1 43 -1h42q52 0 156 2q-30 -249 -40 -469q66 -6 104 -10q-3 60 -3 120q0 171 21 416zM561 745q-4 -37 -7 -51q-1 -8 -3.5 -25t-3.5 -26q26 2 39 2q7 1 20 1t19 1q2 21 8 53q6 34 8 52q-26 -3 -80 -7z
" />
    <glyph glyph-name="fl" unicode="fl" horiz-adv-x="757" 
d="M393 740q-41 0 -74 -8q-40 -10 -69 -39q-15 -18 -21 -37q-13 -33 -16 -79q-4 -25 -7 -40q-6 1 -19 1.5t-19 0.5q-24 2 -37 2l-3 -60q6 0 18.5 -0.5t19.5 -0.5q12 -1 37 -1q-26 -254 -67 -468q60 5 135 7q12 261 17 459h67h68q0 15 3 28q2 20 2 29h-68q-45 0 -68 1v30v15
v15q2 27 6 38q5 19 18 34q21 19 71 19h26q66 0 137 3q-48 -372 -56 -673q59 -3 133 -11q0 11 -0.5 35t-0.5 36v11v11q-16 2 -25 2q-5 0 -13.5 0.5t-12.5 0.5q9 327 64 649q-105 -10 -246 -10z" />
    <glyph glyph-name=".notdef" horiz-adv-x="746" 
d="M88 -172q128 17 247 17t244 -17q3 419 76 872q-127 -18 -252 -18q-121 0 -238 18q-9 -451 -77 -872zM153 -34q43 335 55 681q90 -10 191 -10q90 0 203 10q-48 -319 -65 -681q-101 8 -189 8q-91 0 -195 -8z" />
    <glyph glyph-name=".null" horiz-adv-x="0" 
 />
    <glyph glyph-name="nonmarkingreturn" horiz-adv-x="333" 
 />
    <glyph glyph-name="NULL" horiz-adv-x="146" 
 />
    <glyph glyph-name="NULL" horiz-adv-x="146" 
 />
    <glyph glyph-name="space" unicode=" " horiz-adv-x="391" 
 />
    <glyph glyph-name="exclam" unicode="!" horiz-adv-x="335" 
d="M168 716q-35 -332 -57 -476q33 5 60 5q25 0 57 -5v24v72q1 24 1 72q10 143 24 309q-17 -7 -45 -7q-20 0 -40 6zM113 124q-3 -16 -10 -59q-7 -35 -11 -58q27 12 58 12q30 0 56 -12q0 34 -1 50v50v17q-27 5 -45 5q-20 0 -47 -5z" />
    <glyph glyph-name="quotedbl" unicode="&#x22;" horiz-adv-x="460" 
d="M246 720q-12 0 -38 2q-11 0 -39 2v-18q0 -134 -29 -259q29 3 89 5q15 126 17 268zM443 724q-13 0 -39 -2t-39 -2q-23 -140 -29 -268q16 0 44 -2q23 0 44 -3q-2 23 -2 69q0 104 21 208z" />
    <glyph glyph-name="numbersign" unicode="#" horiz-adv-x="758" 
d="M441 699h-69q-6 -18 -16.5 -51t-14.5 -46q-5 -17 -15.5 -49t-15.5 -49q-55 0 -83 1q-27 0 -83 2q0 -5 -0.5 -15.5t-0.5 -15.5q-2 -22 -2 -33q100 -2 149 -2l-56 -167q-27 -1 -80 -1q-14 0 -40 -0.5t-40 -0.5q-2 -10 -4 -32q-1 -6 -2.5 -16.5t-1.5 -15.5q12 0 36.5 0.5
t36.5 0.5q48 2 73 2q-45 -123 -77 -199q5 0 16.5 1t17.5 1t17.5 0.5t17.5 0.5q57 151 73 197q12 0 36.5 0.5t36.5 0.5h72q-6 -18 -16.5 -51t-14.5 -46q-4 -11 -33 -98h34h18h16q23 75 31 97l30 97q14 0 41.5 -0.5t40.5 -0.5q14 -1 41 -1t40 -1q2 22 2 32q2 22 2 32
q-48 0 -146 2q23 75 54 167q54 0 160 2q1 6 2.5 17t2.5 16q2 22 4 32q-48 -2 -146 -4q27 80 78 200q-5 0 -17 -0.5t-17 -0.5q-22 -2 -34 -2q-37 -87 -75 -198q-25 -1 -73 -1h-72q30 94 66 196zM498 441l-27 -83q-10 -27 -28 -83h-28h-58q-19 -1 -58 -1q19 56 55 166
q24 1 72 1h72z" />
    <glyph glyph-name="dollar" unicode="$" horiz-adv-x="616" 
d="M313 -122q0 12 0.5 35.5t0.5 35.5q2 48 2 72q87 3 145 44q29 23 45 58q16 32 16 69q0 72 -38 106q-26 23 -69 37q-24 9 -78 19l24 228q98 -5 159 -37q1 9 5 32q1 6 2.5 16.5t1.5 15.5q-64 18 -162 22l12 110h-19q-6 1 -20 1q-1 -17 -5 -56l-6 -56q-77 -6 -129 -29
q-35 -17 -58 -53q-21 -34 -24 -74q0 -75 36 -114q24 -24 63 -40q36 -14 73 -20q-6 -62 -10 -97q-1 -15 -4.5 -47.5t-5.5 -49.5q-106 3 -184 56q-6 -51 -6 -53l-7 -52q79 -33 187 -36q-16 -94 -25 -142q52 0 78 -1zM293 363l-6 -5q-45 5 -77 31q-37 29 -37 70q0 53 40 84
q34 28 103 36q-3 -33 -11 -108zM327 283l6 4q44 -7 73 -29q35 -27 35 -66q0 -21 -7 -41q-10 -23 -31 -28q-32 -13 -87 -20l6 90q1 26 5 90z" />
    <glyph glyph-name="percent" unicode="%" horiz-adv-x="992" 
d="M745 726q-86 -110 -260 -363q-168 -246 -260 -363q11 0 33.5 0.5t33.5 1.5q91 118 259 364q155 228 261 363q-5 -1 -16 -1t-17 -1q-5 0 -17 -0.5t-17 -0.5zM295 728h-5h-6q-67 0 -105 -45q-23 -28 -33 -71q-8 -35 -8 -77q0 -86 33 -134q17 -26 48 -39q30 -12 64 -12
q65 0 111 49q27 30 42 75q12 41 12 82q0 73 -36 117q-43 52 -117 55zM290 676h5q44 -1 67 -39q21 -33 21 -78q0 -28 -8 -63q-10 -38 -30 -61q-25 -28 -60 -28q-45 0 -67 41q-18 32 -18 82v7q0 4 1 6v6q0 45 21 84q24 43 68 43zM753 378q-72 0 -116 -51v1q-29 -32 -42 -75
q-12 -36 -12 -83q0 -75 36 -116q20 -28 57 -41q30 -13 70 -13q34 0 58 10q30 12 48 35q24 30 34 72q8 35 8 77q0 87 -35 133q-34 51 -106 51zM749 327q40 0 63 -37q18 -30 18 -78q0 -55 -17 -90q-23 -52 -71 -52q-45 0 -71 34q-23 32 -23 78q0 54 22 94q26 51 79 51z" />
    <glyph glyph-name="ampersand" unicode="&#x26;" horiz-adv-x="824" 
d="M280 458q-38 46 -43 54q-21 33 -21 62q0 48 35 76q35 27 82 27q67 0 149 -44l36 58q-79 32 -152 32q-90 0 -142 -42q-27 -21 -42 -56q-14 -34 -14 -68q0 -48 40 -115q-67 -47 -104 -108q-42 -69 -42 -143q0 -81 48 -129q29 -30 77 -45q42 -13 91 -13q136 0 239 84
q1 -1 35 -38l34 -37q40 -2 108 -8l-63 70q-42 46 -63 70q46 61 61 122q13 51 25 119h-38h-37q-9 -58 -21 -96q-16 -52 -44 -89l-117 129q-78 86 -117 128zM225 416l114 -132q38 -44 116 -132q-78 -65 -172 -65q-70 0 -112 35q-49 38 -49 106q0 53 29 105q26 44 74 83z" />
    <glyph glyph-name="quotesingle" unicode="'" horiz-adv-x="252" 
d="M243 725q-20 -6 -38 -6q-20 0 -35 6q-6 -123 -23 -262q22 5 39 5q16 0 34 -5q8 143 23 262z" />
    <glyph glyph-name="parenleft" unicode="(" horiz-adv-x="368" 
d="M389 751q-46 -8 -67 -8q-81 -96 -134 -194q-59 -110 -76 -218q-5 -63 -5 -112q0 -179 49 -323q55 -2 91 -9q-43 111 -50 218q-5 65 -5 115q0 51 3 102q11 107 69 225q40 81 125 204z" />
    <glyph glyph-name="parenright" unicode=")" horiz-adv-x="378" 
d="M182 762l3 -9q-2 1 -5 1t-4 1l2 2zM251 746q63 -140 63 -329q0 -90 -12 -161q-16 -84 -51 -152q-51 -103 -117 -202q-54 0 -101 -10q77 107 125 205q58 118 73 223q6 64 6 128q0 169 -52 305q22 -3 66 -7z" />
    <glyph glyph-name="asterisk" unicode="*" horiz-adv-x="574" 
d="M549 610q-10 23 -16 39q-73 -45 -170 -101l18 181h-46q-1 -16 -3.5 -46.5t-3.5 -44.5q-2 -15 -4 -45t-4 -45q-14 9 -40.5 26.5t-35.5 23.5q-26 16 -76 50q-8 -12 -11 -19q-1 -1 -11 -19q92 -58 161 -96q-105 -55 -179 -97l9 -19q0 -1 8 -19q9 6 26.5 16t31.5 18.5
t26 16.5q8 5 85 50q-2 -36 -8 -90l-9 -91h46q4 59 7 91q1 14 3.5 44t3.5 46q51 -33 151 -101q6 8 24 38q-56 36 -161 97q105 55 178 96z" />
    <glyph glyph-name="plus" unicode="+" horiz-adv-x="732" 
d="M438 609h-72q-2 -22 -5.5 -65.5t-4.5 -64.5q-3 -43 -11 -131q-169 0 -255 2l-6 -73h127q42 1 127 1q-3 -40 -11 -131q-5 -39 -13 -130h72q6 90 10 130q2 22 5 65.5t5 65.5h128q21 0 63 -0.5t64 -0.5l6 73q-85 -2 -254 -2q11 141 25 261z" />
    <glyph glyph-name="comma" unicode="," horiz-adv-x="282" 
d="M55 110l-6 -97l-30 -75q-10 -24 -32 -74q13 3 27 3q4 1 13 1.5t13 0.5q27 31 59 73l56 75q8 63 14 97q-48 -5 -84 -5h-15q-10 0 -15 1z" />
    <glyph glyph-name="hyphen" unicode="-" horiz-adv-x="401" 
d="M82 309q1 -6 1 -20q0 -28 -13 -50q113 4 252 4q-3 11 -3 21q0 27 14 50q-182 -5 -218 -5h-16h-17z" />
    <glyph glyph-name="period" unicode="." horiz-adv-x="302" 
d="M48 153v-18q0 -68 -13 -130q35 3 69 3t68 -3q-1 3 -1 10v10q0 63 14 128q-36 -3 -73 -3q-32 0 -64 3z" />
    <glyph glyph-name="slash" unicode="/" horiz-adv-x="389" 
d="M346 705q-55 -118 -175 -396q-126 -293 -174 -397q34 5 102 9q49 120 154 396q89 236 156 395q-21 -3 -63 -7z" />
    <glyph glyph-name="zero" unicode="0" horiz-adv-x="619" 
d="M372 723q53 1 91.5 -18t60.5 -48.5t34.5 -73t15.5 -85t1 -90.5q-3 -69 -16 -132.5t-40.5 -128t-80.5 -103.5t-125 -39q-56 -2 -97 18t-61.5 54t-33.5 78t-13 91.5v93.5q3 52 12 101.5t28.5 102t48 91t73.5 63.5t102 25zM497 418q5 36 7 68.5t-2.5 72.5t-17 68t-40.5 47.5
t-69 19.5q-37 1 -66.5 -15t-47.5 -40.5t-31 -60.5t-18.5 -66.5t-8.5 -65.5q-3 -29 -4 -47.5t-1 -51t3.5 -53.5t11.5 -47t22 -41.5t36 -26t52 -10.5q24 -12 58 11.5t55 50.5q44 65 61 187zM355 523q29 0 37.5 -28t2.5 -85q-9 -86 -61 -86q-51 0 -42 86q10 113 63 113z" />
    <glyph glyph-name="one" unicode="1" horiz-adv-x="655" 
d="M133 133q-15 -111 -18 -126q102 12 202 12q101 0 208 -14v17q0 36 2 110q-37 4 -153 9q21 291 52 570q-8 -1 -24 -1h-23h-23h-23q-117 -18 -170 -20q-1 -14 -1 -40q0 -6 -0.5 -19.5t-0.5 -20.5q78 7 170 23q-18 -225 -42 -492q-67 -1 -156 -8z" />
    <glyph glyph-name="two" unicode="2" horiz-adv-x="677" 
d="M323 146q-2 2 -2 3l-3 3q21 61 90 126q14 13 40 39.5t40 39.5h-1q44 51 66 97q26 54 26 109q0 72 -46 111q-31 26 -79 39q-43 10 -91 10q-67 0 -201 -34q0 -29 -2 -87q108 49 198 49q57 0 93 -27q41 -33 41 -87q0 -41 -27 -88v1q-22 -38 -70 -88h1q-43 -42 -115 -91
q-111 -83 -166 -131l-21 -135q120 14 231 14q107 0 222 -14q0 88 2 132q-86 9 -226 9z" />
    <glyph glyph-name="three" unicode="3" horiz-adv-x="644" 
d="M432 387q0 4 1 5v5q60 11 102 65q38 52 38 115q0 81 -72 117q-54 29 -143 29q-70 0 -192 -19q-1 -12 -1 -34q0 -6 -0.5 -17t-0.5 -16q103 24 180 24q54 0 93 -17q50 -27 50 -81q0 -61 -44 -97q-41 -35 -101 -35q-31 0 -46 1h-46q0 -5 -1 -16.5t-2 -17.5l-3 -35h25h44
q23 0 44 -3q51 -7 80 -32q38 -36 38 -79q0 -22 -18 -44q-6 -8 -36 -33q-26 -22 -72 -33q-30 -7 -79 -7q-101 0 -165 35q-6 -61 -20 -142q83 -21 168 -21q72 0 117 9q68 14 113 46q40 32 58 83q15 44 15 98q0 55 -28 98q-31 46 -96 49z" />
    <glyph glyph-name="four" unicode="4" horiz-adv-x="645" 
d="M397 710q-141 -185 -325 -443l-6 -56q126 6 251 6h51l-12 -99q-3 -29 -11 -100q71 0 122 -5q-2 90 -2 134q0 45 1 68q8 -1 23.5 -1.5t23.5 -0.5q14 0 46 -2l3 37q0 6 0.5 17.5t0.5 18.5q-30 0 -45 1h-47q18 258 43 430q-78 -4 -117 -5zM422 681q-25 -196 -43 -395
q-161 0 -243 -2q181 259 286 397z" />
    <glyph glyph-name="five" unicode="5" horiz-adv-x="629" 
d="M169 720q-3 -174 -18 -350q69 31 147 31q74 0 119 -32q41 -33 41 -100q0 -32 -15 -56q-10 -18 -37 -43q-25 -23 -67 -35q-37 -9 -74 -9q-99 0 -164 36q-7 -50 -10 -70t-11 -71q75 -17 174 -17q66 0 111 11q59 11 102 46q44 34 62 91q16 48 16 106q0 95 -51 152
q-30 31 -79 48q-43 13 -95 13q-32 0 -96 -14q8 97 12 193q63 -3 127 -3q93 0 174 7q4 23 5 32q1 13 5 32q-91 -9 -183 -9q-106 0 -195 11z" />
    <glyph glyph-name="six" unicode="6" horiz-adv-x="638" 
d="M508 411q24 -27 36 -70q10 -36 10 -79q0 -57 -14 -105q-18 -58 -57 -94q-36 -34 -86 -47q-43 -11 -95 -11q-56 0 -99 20q-49 23 -71 66q-36 66 -36 176q0 111 16 185q22 108 81 177q41 49 108 74q55 20 127 20q57 0 131 -18q-8 -52 -11 -79q-63 26 -129 26q-48 0 -86 -14
q-46 -16 -74 -50q-35 -42 -53 -103q-13 -40 -23 -109q33 45 78 70q49 26 98 26q43 0 83 -14q41 -16 66 -47zM563 704l-4 1q0 2 1 3zM469 249v11q0 64 -28 101q-30 45 -98 45q-65 0 -107 -45q-25 -28 -37 -65q-13 -35 -13 -71q0 -50 45 -74q37 -19 92 -19q56 0 96 24
q47 29 50 81v12z" />
    <glyph glyph-name="seven" unicode="7" horiz-adv-x="603" 
d="M170 725v-32q0 -22 -1 -32q91 -13 211 -13q78 0 158 6q-47 -87 -160 -320q-106 -214 -162 -319q52 4 116 4h25q17 0 25 -1q11 32 30.5 91t25.5 78q18 56 56 168q68 200 124 333l3 19q1 7 3 18q-125 -16 -234 -16q-114 0 -220 16z" />
    <glyph glyph-name="eight" unicode="8" horiz-adv-x="645" 
d="M238 391l-1 -9q-71 -15 -112 -62q-27 -26 -43 -71q-13 -38 -13 -80q0 -79 47 -117q36 -27 84 -38q44 -10 96 -10q57 0 97 10q53 12 90 39q37 25 56 76q15 40 15 91q0 63 -38 107q-38 42 -97 56l1 8q61 11 99 68q34 50 34 115q0 63 -39 96q-29 24 -73 36q-30 7 -83 7
q-48 0 -85 -8q-48 -12 -79 -36h-1q-32 -24 -46 -63q-13 -33 -13 -75q0 -49 27 -90q30 -41 77 -50zM211 566q1 52 47 82q40 27 94 27q53 0 87 -21q40 -25 40 -76q0 -57 -40 -95q-38 -40 -94 -40h-6q-4 0 -5 1q-2 -1 -5 -1h-6q-45 0 -79 31q-35 30 -35 75q0 5 2 17zM327 360
q66 2 103 -37q32 -35 32 -92q0 -48 -45 -85q-20 -17 -53 -26q-28 -7 -59 -7q-32 0 -57 7q-31 8 -50 26q-31 31 -31 63q-2 69 49 113q42 38 111 38z" />
    <glyph glyph-name="nine" unicode="9" horiz-adv-x="637" 
d="M542 641q39 -73 39 -185q0 -108 -17 -184q-24 -109 -81 -174q-41 -50 -106 -74q-57 -20 -126 -20q-63 0 -133 19q8 50 19 136q61 -27 129 -27q48 0 80 6q49 11 75 29q35 28 53 86q7 23 12 50q2 17 8 49q-32 -45 -77 -70q-49 -26 -99 -26q-47 0 -83 14q-42 16 -67 47
q-22 26 -34 70q-10 37 -10 81q0 56 15 104q17 56 55 92q35 32 86 47q41 12 95 12q53 0 97 -19q48 -23 70 -63zM504 463q10 31 10 71q0 61 -34 94q-22 24 -58 35q-29 8 -70 8q-79 0 -127 -43q-30 -27 -42 -62q-12 -36 -12 -73q0 -31 8 -52q11 -28 32 -35q41 -17 122 -19
q74 0 123 19q33 13 48 57zM118 20q0 1 -3 4l3 -1v-3z" />
    <glyph glyph-name="colon" unicode=":" horiz-adv-x="331" 
d="M129 533q-2 -23 -4 -65q-1 -21 -5 -65q27 -6 55 -6t58 6q4 48 14 130q-31 -11 -61 -11q-29 0 -57 11zM98 145l-15 -140q33 10 61 10q31 0 57 -10q1 25 5 70q2 48 4 70q-24 4 -54 4q-20 0 -58 -4z" />
    <glyph glyph-name="semicolon" unicode=";" horiz-adv-x="313" 
d="M126 519q-1 -11 -2.5 -33t-1.5 -32q-6 -63 -6 -65q6 -1 16 -1h16q40 0 73 8q2 11 4.5 33.5t3.5 33.5l7 67q-36 -13 -77 -13q-22 0 -33 2zM94 104q-2 -28 -4 -43q0 -7 -1.5 -21t-2.5 -22q-20 -58 -29 -86q-5 -13 -10 -27.5t-11 -32t-9 -27.5q23 8 61 12l48 80q30 46 49 79
q1 7 2 21.5t2 21.5l3 43q-21 2 -61 2h-18h-19z" />
    <glyph glyph-name="less" unicode="&#x3c;" horiz-adv-x="763" 
d="M706 484q2 6 24 79q-134 -43 -313 -89q-91 -24 -317 -80q-4 -32 -16 -102q102 -54 276 -137q184 -90 276 -136q0 61 5 106q-100 52 -225 112q-89 41 -227 110q350 86 517 137z" />
    <glyph glyph-name="equal" unicode="=" horiz-adv-x="797" 
d="M111 449q8 -36 9 -73q188 -2 282 -2q101 0 303 2q7 34 23 73q-180 -5 -319 -5q-174 0 -298 5zM112 265q-8 -46 -25 -88q175 5 314 5q135 0 303 -5q-11 40 -11 88q-176 2 -262 2q-105 0 -319 -2z" />
    <glyph glyph-name="greater" unicode="&#x3e;" horiz-adv-x="762" 
d="M143 542q101 -54 226 -113q50 -24 227 -111q-108 -29 -257 -67q-150 -39 -256 -70q-18 -72 -30 -107q52 16 156 46q175 48 315 83q106 26 159 40q3 35 15 103q-117 61 -275 136q-203 99 -276 137q0 -7 -0.5 -19.5t-0.5 -18.5q-3 -21 -3 -39z" />
    <glyph glyph-name="question" unicode="?" horiz-adv-x="523" 
d="M326 207q0 9 1.5 29t2.5 30q2 33 11 57q2 6 8 16l11 15v-1l10 15q4 5 10 15l41 42q50 54 65 77q29 48 29 94q0 56 -36 89q-23 20 -61 30q-27 7 -71 7q-95 0 -186 -38q0 -6 -0.5 -17t-0.5 -16t-1 -16t-1 -17q93 50 167 50q46 0 75 -26q32 -29 32 -74q0 -26 -30 -58
q-18 -18 -54 -45h1q-18 -14 -25 -21l-26 -21v1q-12 -10 -32 -33q-28 -29 -39 -75q-8 -30 -11 -73l-3 -38q38 2 113 2zM203 136q-1 -11 -3.5 -32t-3.5 -31q-6 -42 -8 -63q45 4 101 4h19q4 43 5 62t5 62h-20q-33 0 -95 -2z" />
    <glyph glyph-name="at" unicode="@" horiz-adv-x="947" 
d="M602 135l-3 -41q-1 -6 -2 -19.5t-1 -20.5q56 0 105 16q57 18 94 54q45 41 69 111q19 61 19 126q0 103 -49 179q-46 70 -126 106q-78 36 -171 36q-87 0 -172 -29q-90 -33 -154 -88q-69 -66 -105 -164q-32 -89 -32 -188q0 -72 19 -135q23 -69 66 -117q50 -58 129 -86
q74 -28 159 -28q154 0 275 87q-15 29 -35 78q-96 -69 -230 -69q-73 0 -131 17q-64 19 -108 67q-59 79 -74 111t-15 83q0 104 43 193q47 98 134 149h-1q98 60 220 60q79 0 148 -32q73 -34 114 -92q40 -64 40 -146q0 -46 -12 -91q-13 -47 -41 -86q-42 -53 -118 -65
q11 156 32 349q-19 -1 -57 -1l-3 -35q-2 -11 -4 -35q-25 36 -59 56q-38 22 -81 22q-82 0 -135 -56q-33 -34 -49 -84q-13 -45 -13 -94q0 -76 36 -121q40 -56 126 -56q43 0 84 22q41 21 69 57zM342 300q7 64 42 96q37 36 94 36q52 0 84 -29q33 -31 33 -84q0 -74 -43 -117
q-35 -35 -93 -35q-53 0 -84 30q-34 31 -34 85q0 3 0.5 9t0.5 9z" />
    <glyph glyph-name="A" unicode="A" horiz-adv-x="801" 
d="M449 710h-86q-29 -59 -83 -177l-83 -179q-100 -211 -180 -349l122 9q35 71 53 117q110 2 162 2q53 0 163 -2q11 -66 25 -117q64 -3 129 -9q-39 94 -65 173q-45 133 -106 354zM399 642q25 -102 48 -204q37 -156 49 -203h-66h-67q-88 0 -133 -1q58 136 85 204
q41 102 84 204z" />
    <glyph glyph-name="B" unicode="B" horiz-adv-x="718" 
d="M170 725q0 -367 -63 -720q122 14 259 14q55 0 98 8q51 10 93 36q42 29 57 74q15 40 15 90q0 65 -48 111q-45 44 -113 50v8q61 5 99 62q33 50 33 113q0 39 -20 71q-22 33 -62 48q-44 18 -126 20q-134 2 -222 15zM256 660q82 -5 148 -5q56 0 90 -22q42 -29 42 -84
q0 -28 -10 -54q-14 -33 -40 -50q-36 -25 -102 -25h-71q-11 0 -35 0.5t-36 0.5q9 101 14 239zM236 353h154q30 0 59 -6q32 -8 51 -26q33 -31 33 -58t-10 -53q-13 -27 -35 -41q-41 -21 -116 -21q-78 0 -158 -3q0 3 5 43t7 61q2 17 5 51.5t5 52.5z" />
    <glyph glyph-name="C" unicode="C" horiz-adv-x="743" 
d="M271 584q-46 -49 -68 -125q-17 -58 -17 -132q0 -46 9 -77q14 -39 39 -62q35 -28 90 -40q41 -9 100 -9q54 0 108 20q55 20 97 58q-4 -64 -4 -142v-16q-91 -55 -214 -55q-76 0 -139 20q-72 23 -115 72q-32 41 -47 99q-13 46 -13 112q0 93 21 169q25 94 85 154q50 50 130 75
q65 18 145 18q54 0 107 -12q52 -12 94 -42q-11 -64 -14 -89q-74 74 -192 74q-58 0 -107 -14q-59 -18 -95 -56zM680 672v-2l1 -2l-2 1q0 2 1 3z" />
    <glyph glyph-name="D" unicode="D" horiz-adv-x="782" 
d="M170 725v-32v-31q0 -336 -63 -657q81 8 199 12q102 4 159 16q89 19 149 65q64 54 92 162q19 77 19 175q0 62 -13 106q-15 54 -50 89q-52 48 -138 65q-56 12 -158 16q-109 3 -196 14zM261 646q82 -4 121 -4q73 -4 115 -15q62 -15 100 -56q24 -27 36 -69q9 -32 9 -80
q0 -16 -2 -48q-24 -64 -34 -82q-24 -44 -58 -68q-24 -14 -48 -21q-45 -13 -104 -15q-36 -2 -52 -2l-119 -3q26 214 36 463z" />
    <glyph glyph-name="E" unicode="E" horiz-adv-x="697" 
d="M170 725q-5 -377 -63 -720q121 14 233 14q110 0 227 -14q0 95 2 142q-96 8 -217 8q-69 0 -138 -3q14 113 20 200q109 0 163 1h163q0 4 1 11t1.5 13t0.5 12q2 24 4 36q-104 -3 -205 -3q-20 0 -61 0.5t-61 0.5q9 115 15 220q63 -4 141 -4q112 0 213 10q1 18 6 38l6 37
q-116 -15 -228 -15q-115 0 -223 16z" />
    <glyph glyph-name="F" unicode="F" horiz-adv-x="546" 
d="M169 722q-19 -381 -82 -717q48 7 114 11q1 12 24 318h87h87h44h43q1 7 2.5 23t2.5 23q2 30 4 45q-120 -2 -179 -2q-29 0 -44 1h-44q14 110 24 212q30 -2 89 -2q114 0 206 12l12 79q-114 -16 -211 -16q-94 0 -179 13z" />
    <glyph glyph-name="G" unicode="G" horiz-adv-x="789" 
d="M581 228l-3 -41q0 -1 -1 -2q0 -1 -1 -2q-14 -14 -31 -19q-32 -13 -80 -15q-27 0 -39 -1q-62 2 -99 10q-56 10 -90 35q-28 24 -40 68q-9 29 -9 82q0 72 17 130q22 75 67 123q39 38 98 54q47 13 109 13q61 0 117 -18q57 -20 99 -59l6 41q2 11 7 41q-49 31 -110 44
q-55 11 -122 11q-81 0 -143 -19q-80 -23 -128 -73q-44 -41 -68 -100q-22 -53 -32 -118q-8 -52 -8 -113q0 -65 13 -110q15 -58 48 -95q42 -50 118 -73q59 -17 142 -17q72 0 132 15q64 14 123 51q0 139 14 291h-122q-40 -1 -121 -1l-7 -92h73q49 0 73 -1q0 -14 -2 -40z" />
    <glyph glyph-name="H" unicode="H" horiz-adv-x="782" 
d="M169 724q-3 -382 -72 -719l103 9q21 136 31 238q110 2 164 2q53 0 165 -2q-10 -133 -10 -238q95 -8 102 -9q-2 70 -2 105q0 295 56 614q-15 -2 -47 -4q-8 -1 -24 -2.5t-24 -2.5q-24 -140 -41 -339q-39 0 -116 -0.5t-116 -0.5q-32 0 -48 1h-48q13 153 20 339q-61 4 -93 9z
" />
    <glyph glyph-name="I" unicode="I" horiz-adv-x="329" 
d="M168 717q-44 -459 -77 -712q28 14 56 14q29 0 52 -14q18 334 53 715q-19 -10 -46 -10q-21 0 -38 7z" />
    <glyph glyph-name="J" unicode="J" horiz-adv-x="398" 
d="M268 709q-31 -208 -86 -664q-7 -43 -51 -69q-31 -19 -84 -29q-14 2 -21 2q-3 1 -10 1t-11 1q-9 -90 -16 -151q9 1 26.5 2.5t26.5 2.5h-1q6 1 20.5 3.5t22.5 3.5q30 6 44 10q52 14 80 39q33 33 46 82q10 34 16 91q42 386 92 685q-31 -8 -94 -10z" />
    <glyph glyph-name="K" unicode="K" horiz-adv-x="790" 
d="M169 722q-6 -361 -82 -717q40 4 60 5q21 2 59 4q17 196 22 353q137 -231 215 -349q114 -2 217 -13q-89 96 -173 191q-114 128 -172 192l190 167q63 55 191 167q-66 -7 -113 -8q-29 -24 -87.5 -75t-89.5 -77q-58 -50 -174 -154q18 167 26 307q-61 4 -89 7z" />
    <glyph glyph-name="L" unicode="L" horiz-adv-x="666" 
d="M169 723q-9 -367 -72 -718q118 14 227 14q110 0 213 -13q3 63 11 141q-92 8 -208 8q-66 0 -132 -3q36 294 49 562q-28 1 -88 9z" />
    <glyph glyph-name="M" unicode="M" horiz-adv-x="898" 
d="M169 723q0 -376 -77 -718q80 6 116 8q41 302 41 592v30h4q1 1 4 1q19 -59 36 -125q32 -122 63 -254q23 -95 31 -127h27h26h27h27q6 14 40 97t46 112t39 92t48.5 110.5t44.5 95.5q2 -1 4 -1q3 0 4 -1q-61 -339 -66 -622q33 -2 115 -8q-6 83 -6 163q0 270 54 555l-130 -9
q-63 -101 -120 -212q-22 -41 -61.5 -116.5t-51.5 -98.5q-77 247 -147 426q-92 6 -138 10z" />
    <glyph glyph-name="N" unicode="N" horiz-adv-x="766" 
d="M166 708q-9 -362 -82 -703q59 6 115 9q29 304 29 591l8 2q30 -64 67 -148l64 -148q77 -179 135 -295q87 -6 134 -11q-1 9 -1 29v28q0 316 64 663q-30 -4 -82 -8q-52 -276 -74 -591q-22 47 -130 287q-86 192 -133 286q-38 2 -57 4q-38 2 -57 5z" />
    <glyph glyph-name="O" unicode="O" horiz-adv-x="780" 
d="M443 723q-71 0 -130 -21q-68 -23 -114 -73q-58 -61 -83 -158q-19 -73 -19 -171q0 -60 11 -108q15 -55 45 -95q35 -47 97 -71q58 -21 123 -21q72 0 133 20q68 22 116 73q57 66 81 158q22 78 22 171q0 56 -12 107t-44 96q-34 48 -99 73q-57 20 -127 20zM437 654
q108 0 160 -76q39 -66 39 -165q0 -61 -11 -106q-20 -68 -64 -95v1q-64 -37 -166 -37q-46 0 -84 7q-44 8 -78 29q-24 15 -38 51q-9 26 -9 66q0 67 17 129q18 70 59 119q33 40 80 59q42 18 95 18z" />
    <glyph glyph-name="P" unicode="P" 
d="M169 721q-19 -378 -91 -716q36 4 108 10q25 144 41 275q20 1 59 1h59q51 0 92 11q52 16 83 45q40 38 59 96q18 54 18 107q0 40 -13 72q-17 38 -46 56q-32 19 -75 26q-39 6 -82 6q-126 0 -212 11zM261 681q42 -2 127 -2q55 0 92 -20q48 -28 48 -90q0 -16 -1 -23
q-1 -57 -48 -100q-46 -41 -103 -41q-24 0 -71.5 0.5t-71.5 0.5q6 54 28 275z" />
    <glyph glyph-name="Q" unicode="Q" horiz-adv-x="887" 
d="M588 46v7q37 38 84 115q31 57 44 129q11 62 11 130q0 62 -12 107q-12 53 -45 93q-36 51 -104 74q-56 19 -132 19q-66 0 -125 -22q-67 -25 -110 -70q-54 -57 -80 -149q-21 -72 -21 -163q0 -136 60 -220q35 -47 99 -72q53 -21 124 -21q25 0 36 2q16 -20 48 -58
q15 -19 47 -57q121 -3 217 -14q-14 17 -40.5 49t-29.5 36q-28 33 -71 85zM437 651q52 0 91 -18q45 -21 70 -59q40 -63 40 -160q0 -71 -21 -124q-27 -63 -86 -92q-61 10 -107 32l-21 -31q-14 -22 -22 -32q-92 12 -146 45q-27 16 -39 53q-9 24 -9 68q0 71 17 126q18 69 58 116
q65 76 175 76z" />
    <glyph glyph-name="R" unicode="R" horiz-adv-x="792" 
d="M472 341l1 6q58 18 91 81q27 53 27 117q0 41 -13 74q-18 38 -50 59q-52 30 -141 32q-136 4 -217 15v-32q0 -351 -63 -688q57 6 109 9q23 157 36 299q25 1 74 1q55 0 88 -23q18 -16 35 -44q14 -27 24 -52q41 -126 62 -180q70 -3 128 -10q-51 103 -90 197q-4 8 -10 22.5
t-7 17.5q-14 26 -21 38q-28 44 -63 58v3zM266 674q29 -3 127 -5q58 0 104 -32h-1q37 -26 37 -92v-16q-1 -6 -1 -16q-4 -46 -57 -81q-49 -30 -101 -30h-61h-62q11 140 15 272z" />
    <glyph glyph-name="S" unicode="S" horiz-adv-x="672" 
d="M271 628q-55 -34 -55 -100q0 -44 24 -67q31 -24 103 -40l44 -9q51 -10 86 -24q21 -9 39 -21q69 -49 69 -146q0 -50 -14 -91q-17 -49 -55 -76q-45 -30 -103 -40q-45 -9 -106 -9q-115 0 -220 31q13 75 21 143q92 -54 210 -54q81 0 129 31q23 15 35 30q16 20 16 40
q0 39 -37 66q-29 20 -77 33q-21 6 -39 9q-38 6 -70 16q-42 12 -72 31q-46 32 -59 78q-8 32 -8 62q0 45 15 85q19 45 54 70q40 27 90 38q41 9 96 9q103 0 204 -26q-2 -14 -6 -40l-6 -44q-97 41 -187 41q-74 0 -121 -26zM593 699q1 -1 1 -3l-3 1q0 1 0.5 2t0.5 2z" />
    <glyph glyph-name="T" unicode="T" horiz-adv-x="756" 
d="M170 725q0 -13 0.5 -37t0.5 -37q46 -4 139 -4q75 0 113 1q-32 -308 -75 -630q25 0 37 1h37h28q17 0 27 -1q5 229 34 631q33 -2 100 -2q75 0 152 3q4 25 14 75q-168 -16 -312 -16q-152 0 -295 16z" />
    <glyph glyph-name="U" unicode="U" horiz-adv-x="740" 
d="M169 724v-34q0 -196 -22 -416q-3 -32 -3 -63q0 -45 9 -77q11 -41 36 -70q33 -35 88 -48q45 -12 104 -12q62 0 109 13q63 18 100 55q36 39 54 96q13 45 18 106q19 257 56 450q-15 -1 -45 -5q-5 0 -14 -1t-16.5 -1.5t-14.5 -0.5q-21 -125 -44 -362q-4 -49 -14 -86
q-11 -46 -39 -80q-26 -29 -64 -40q-34 -10 -74 -10q-44 0 -73 10q-39 11 -58 40q-27 40 -27 113q0 17 2 53q17 182 21 361q-43 3 -89 9z" />
    <glyph glyph-name="V" unicode="V" horiz-adv-x="801" 
d="M316 196l42 -178q30 0 45 1h44h33q21 0 33 -1l72 179q53 131 74 178q86 205 165 350q-14 -2 -46 -4q-17 -2 -47 -4q-31 -51 -75 -132q-54 -98 -139 -270q-11 -22 -33.5 -68t-34.5 -68l-45 135q-14 46 -44 136q-45 135 -99 267q-58 4 -91 8q33 -97 56 -174
q39 -138 90 -355z" />
    <glyph glyph-name="W" unicode="W" horiz-adv-x="1058" 
d="M253 719l-83 6q46 -160 70 -351q22 -175 28 -361q98 4 147 4q84 167 182 388q4 -15 23 -92.5t27.5 -108t24.5 -86.5t31 -100q11 -1 34 -1.5t34 -0.5q22 0 68 -2q46 200 99 361q66 195 143 350l-42 -3q-28 -2 -43 -2q-110 -207 -228 -532q-33 86 -63 171q-40 114 -61 172
h-77l-98 -167q-55 -97 -100 -167q-24 154 -47 264q-32 148 -69 258z" />
    <glyph glyph-name="X" unicode="X" horiz-adv-x="810" 
d="M169 721q62 -116 185 -380q-142 -175 -279 -336q65 7 148 10q77 107 178 260q85 -174 133 -259q95 -6 146 -11q-65 94 -212 336q162 249 260 382q-30 -2 -47 -4l-48 -3q-99 -136 -214 -309q-84 175 -156 307l-47 3q-8 1 -23.5 2t-23.5 2z" />
    <glyph glyph-name="Y" unicode="Y" horiz-adv-x="745" 
d="M170 725q68 -144 197 -470q-21 -213 -24 -237q24 0 36 1h36h26q17 0 26 -1q10 153 17 237q119 205 139 238q68 119 146 232q-53 -7 -96 -8q-89 -130 -236 -371q-112 250 -173 370q-32 2 -47 4q-14 1 -47 5z" />
    <glyph glyph-name="Z" unicode="Z" horiz-adv-x="811" 
d="M169 723v-74q126 -10 265 -10q99 0 180 4q-270 -269 -495 -506q-3 -15 -7.5 -41.5t-8.5 -48.5t-8 -42q154 14 295 14q140 0 291 -14q-1 29 -1 88v25v24q-120 8 -270 8q-94 0 -188 -3q112 112 249 254q164 168 249 253q4 14 7 35q5 33 6 35q-136 -14 -291 -14
q-140 0 -273 13z" />
    <glyph glyph-name="bracketleft" unicode="[" horiz-adv-x="454" 
d="M176 755q-26 -452 -77 -882q51 17 101 17t96 -17l3 50q1 16 3 50q-40 12 -94 12h-19q15 159 61 694q2 -1 8 -1h8q52 0 100 16q2 20 4 31q2 23 4 30q-54 -19 -104 -19t-94 19z" />
    <glyph glyph-name="backslash" unicode="\" horiz-adv-x="545" 
d="M240 708q-39 5 -71 16q19 -105 68 -403q42 -270 66 -403q28 -2 91 -18q-35 160 -78 404q-48 270 -76 404z" />
    <glyph glyph-name="bracketright" unicode="]" horiz-adv-x="454" 
d="M374 755q-54 -19 -104 -19t-94 19q0 -12 -2 -30q0 -11 -2 -31q40 -16 94 -16h9q7 0 11 1q-28 -295 -62 -699h-16q-54 0 -98 -12l-6 -48q-1 -15 -5 -47q51 17 101 17t96 -17q25 434 78 882z" />
    <glyph glyph-name="asciicircum" unicode="^" horiz-adv-x="749" 
d="M474 719h-73q-32 -28 -70 -66l-70 -66q-86 -80 -147 -125q23 0 69 2q11 0 33.5 0.5t34.5 0.5q17 17 49 53q24 27 89 110q30 38 45 56q20 -29 35 -56q22 -38 34 -56q41 -67 76 -106q11 0 34 -1t35 -1q22 0 68 -2q-35 27 -65 59q-57 57 -119 132q-38 44 -58 66z" />
    <glyph glyph-name="underscore" unicode="_" horiz-adv-x="666" 
d="M494 -153q-182 -2 -270 -2q-79 0 -241 2q13 -13 13 -35q0 -25 -19 -43q170 2 254 2q85 0 255 -2q-13 12 -13 33q0 28 21 45z" />
    <glyph glyph-name="grave" unicode="`" horiz-adv-x="384" 
d="M298 749l-28 43q-58 0 -85 3q24 -41 42 -84q16 -38 38 -86h16q51 0 104 -3q-24 31 -31 41q-31 45 -56 86z" />
    <glyph glyph-name="a" unicode="a" horiz-adv-x="617" 
d="M501 312q3 25 3 53q0 85 -41 132q-26 26 -72 38q-35 9 -85 9q-83 0 -181 -30q0 -5 -0.5 -15t-0.5 -15q0 -20 -1 -30q74 35 169 35q32 -2 58 -10q28 -9 54 -30q28 -27 28 -75q0 -8 -2 -22l-1 -14q-20 -1 -61 -1h-61q-91 0 -154 -31q-46 -22 -71 -76q-21 -45 -21 -100
q0 -59 30 -90q39 -39 115 -39q65 0 114 22q58 25 91 75q0 -8 -0.5 -22t-0.5 -21t-0.5 -22t-1.5 -22q75 -6 79 -6v22v22q0 125 14 263zM376 284l-1 -25q-2 -9 -4 -29q-1 -10 -5 -30q-9 -33 -29 -53q-17 -12 -50 -20q-18 -3 -54 -3q-39 0 -71 7q-16 4 -26 20q-9 15 -9 33
q5 53 41 77q20 10 31 12q29 8 65 10q22 0 32 1h80z" />
    <glyph glyph-name="b" unicode="b" horiz-adv-x="667" 
d="M235 458h-6q12 97 26 287q-7 1 -20.5 2.5t-19.5 1.5q-26 2 -39 5q-5 -208 -11.5 -300t-32.5 -268l62 -79q20 -47 63 -75q42 -28 95 -28q2 0 4 1h4h8q91 -2 152 69q39 46 56 117q14 60 14 125q0 97 -42 159q-47 72 -134 72h-16q-49 0 -91 -24q-47 -25 -70 -66q-1 0 -2 1z
M545 295v-1q-6 -32 -18 -61q-13 -32 -37 -52q-43 -29 -98 -32q-31 0 -58 8q-30 9 -51 32q-24 31 -28 102q9 95 53 150q41 54 118 54q66 0 96 -57q24 -45 24 -120v-11q-1 -4 -1 -12z" />
    <glyph glyph-name="c" unicode="c" horiz-adv-x="588" 
d="M375 545q67 0 131 -23q0 -5 -2 -16t-3 -17l-6 -35q-61 31 -133 31q-42 0 -78 -13q-42 -17 -66 -45q-26 -30 -41 -73q-12 -40 -15 -82q0 -31 7 -55q10 -30 30 -44q38 -26 121 -32l74 -2h6q34 0 64 15q-2 -27 -2 -79q0 -33 1 -51q-66 -24 -142 -24q-60 0 -109 14
q-58 17 -90 57q-46 55 -46 157q0 71 16 128q21 74 66 118q42 39 103 57q47 14 114 14zM507 525l2 -4l-3 1q0 2 1 3z" />
    <glyph glyph-name="d" unicode="d" horiz-adv-x="647" 
d="M469 461l-4 -1q-1 0 -2.5 -0.5t-2.5 -0.5q-15 40 -58 65q-37 23 -87 23h-14q-44 0 -81 -19q-43 -20 -68 -52q-42 -52 -62 -126q-16 -67 -16 -134q0 -86 37 -143q46 -69 138 -69q3 0 5 1h5h7q52 0 101 27q47 28 75 75q0 -8 -1 -23.5t-1 -22.5q0 -8 -0.5 -24t-0.5 -23
q14 -2 40 -4t39 -4q6 362 77 749q-16 -1 -41 -5l-40 -3q-31 -178 -45 -286zM128 283v1q5 51 22 95q20 52 51 80q38 35 89 35h12q40 0 68 -25q29 -24 38 -68q8 -35 8 -80q0 -43 -7 -73q-13 -50 -40 -70q-35 -23 -107 -25q-32 0 -54 5q-30 7 -47 24q-31 34 -33 101z" />
    <glyph glyph-name="e" unicode="e" horiz-adv-x="636" 
d="M535 427q7 -28 7 -75v-12v-10q0 -10 -1 -15q0 -4 -2 -14q-162 -2 -243 -2q-46 0 -69 1h-71q0 -6 -0.5 -18.5t-0.5 -19.5q0 -38 7 -60q11 -32 32 -48q33 -19 73 -27q35 -7 77 -7q57 0 86 3q45 3 81 21v-28v-28v-27q0 -19 1 -28q-93 -32 -196 -32q-64 5 -105 18
q-57 17 -88 53q-26 29 -39 73q-10 39 -10 84q0 63 19 126q22 74 63 117q37 38 90 55q42 15 102 17q57 -4 83 -12q45 -13 71 -39q22 -24 33 -66zM224 365h54q136 0 205 2q-3 59 -40 99q-39 41 -98 41q-79 0 -124 -44q-48 -40 -51 -97q18 -1 54 -1z" />
    <glyph glyph-name="f" unicode="f" horiz-adv-x="453" 
d="M404 733q29 0 44 2q-1 -11 -5 -33q-1 -5 -2.5 -16t-1.5 -17q-4 -1 -14 -1h-14q-7 0 -22 0.5t-23 0.5q-36 -2 -53 -18q-15 -17 -21 -67v-24q0 -18 1 -26q76 2 136 7q-1 -6 -9 -79q-60 -4 -134 -4q-15 -249 -23 -439h-15h-16q-49 0 -89 -4q28 182 58 444q-39 0 -76 3l3 40
q2 26 3 40q25 -4 75 -6q4 14 7 40q7 54 23 85q22 42 81 61q29 10 57 11h15h15z" />
    <glyph glyph-name="g" unicode="g" horiz-adv-x="631" 
d="M509 69q29 270 70 473q-7 -1 -21 -2.5t-20 -1.5l-40 -4q-8 -32 -12 -47l-12 -47q-19 46 -62 73q-44 27 -96 27h-15q-44 0 -83 -16q-43 -18 -70 -50q-38 -42 -55 -112q-13 -53 -13 -119q0 -103 41 -162q44 -70 136 -70q114 0 179 88q0 -3 -0.5 -11t-0.5 -11q-2 -16 -2 -23
q-14 -49 -57 -96q-21 -24 -62 -38q-33 -10 -70 -10q-82 0 -142 32q-13 -105 -20 -147q63 -17 149 -17q67 0 106 10q58 11 97 49q38 42 55 111q4 14 20 121zM420 281q-4 -43 -13 -66q-13 -37 -42 -53q-46 -21 -113 -21q-68 0 -99 21q-11 11 -17 26q-10 24 -12 62q0 12 -2 32
q4 47 12 78q15 46 36 72q40 49 113 49q65 0 101 -39q38 -41 38 -123q0 -25 -2 -38z" />
    <glyph glyph-name="h" unicode="h" horiz-adv-x="689" 
d="M563 330q1 13 1 40q0 68 -23 114q-17 31 -53 49q-34 14 -72 14h-13q-52 0 -99 -30q-45 -27 -76 -74q15 140 28 301q-24 2 -80 8q-14 -385 -85 -747q31 4 101 10q10 98 14 148q7 105 10 147q7 78 52 130q44 51 114 51q64 0 92 -50q15 -34 15 -81q0 -22 -1 -32
q-20 -187 -28 -313q33 -2 99 -10q-2 78 -2 116q0 104 6 209z" />
    <glyph glyph-name="i" unicode="i" horiz-adv-x="315" 
d="M175 751l-6 -50l-6 -51q15 -12 36 -12t41 11q3 27 3 52l3 50q-19 -11 -38 -11t-33 11zM159 539q-23 -253 -54 -534q19 14 42 14q22 0 38 -14q19 281 40 535q-18 -6 -35 -6q-14 0 -31 5z" />
    <glyph glyph-name="j" unicode="j" horiz-adv-x="341" 
d="M240 738q-6 -34 -8 -50q-1 -8 -3.5 -25.5t-4.5 -26.5q54 6 80 13l3 53q1 8 2.5 25t1.5 26q-23 -7 -71 -15zM199 527q-24 -170 -32 -235q-5 -40 -15.5 -119t-16.5 -118q-3 -26 -9 -49q-5 -25 -21 -46h1q-8 -8 -24 -16q-25 -11 -56 -16q-11 -1 -26 -5l-9 -63l-9 -63
q23 8 44 11l45 9q55 15 84 40q25 24 37 64q9 27 13 72q30 271 66 540q-36 -5 -72 -6z" />
    <glyph glyph-name="k" unicode="k" horiz-adv-x="705" 
d="M176 752q-14 -385 -85 -747l55 6q10 1 28 2.5t27 1.5l9 130q6 86 7 130q53 -76 188 -257q77 -1 170 -13q-91 101 -269 288q4 5 45 51.5t62 70.5q4 5 107 122q-2 0 -97 -3q-4 -4 -101 -107q-97 -106 -100 -109q24 231 34 426q-24 2 -80 8z" />
    <glyph glyph-name="l" unicode="l" horiz-adv-x="376" 
d="M175 750q-29 -383 -74 -745q37 14 75 14q59 0 101 -19q1 17 3.5 51t3.5 51q-57 15 -89 15q14 171 55 623h-8h-8q-36 0 -59 10z" />
    <glyph glyph-name="m" unicode="m" horiz-adv-x="1001" 
d="M546 433q-2 0 -4.5 0.5t-3.5 0.5q-11 54 -62 86q-46 26 -109 26q-46 0 -90 -25q-44 -24 -66 -67l-4 2l-4 1q3 31 7 81q-12 0 -40 2q-6 0 -19 0.5t-20 0.5q1 -25 1 -74q0 -239 -69 -462q18 1 54.5 2.5t54.5 2.5q26 124 35 299q3 70 43 127q42 62 111 62q31 0 53 -9
q26 -10 43 -35q16 -30 16 -79q0 -21 -1 -32q-31 -168 -64 -328h115q8 133 26 293q7 80 50 131q45 56 124 56q72 0 72 -88q0 -11 -2 -33l-3 -34q-32 -187 -32 -315v-15q19 0 57 -2l56 -3q-14 81 -14 176q0 82 8 149q4 44 4 66q0 42 -11 80q-10 34 -42 54q-30 18 -69 18
q-74 0 -119 -30q-47 -30 -82 -85z" />
    <glyph glyph-name="n" unicode="n" horiz-adv-x="681" 
d="M551 330q1 12 1 36q0 69 -22 117q-16 32 -52 48q-31 14 -73 14q-95 0 -196 -74q0 23 1 34q0 23 1 35q-51 2 -79 6q-5 -285 -63 -541q41 4 115 8q16 157 20 300q7 80 47 125q27 27 62 36q33 9 68 9q25 0 46 -9q25 -11 35 -33q12 -28 12 -66q0 -15 -2 -45
q-28 -188 -38 -317q76 -4 117 -8q-6 74 -6 148q0 89 6 177z" />
    <glyph glyph-name="o" unicode="o" 
d="M334 544q-55 0 -97 -15q-49 -16 -85 -53q-42 -48 -61 -124q-14 -59 -14 -132q0 -97 40 -151q25 -37 73 -53q40 -15 94 -15t98 15q52 14 84 54q43 48 62 125q14 53 14 132q0 95 -40 149q-28 37 -74 53q-41 15 -94 15zM329 489q76 0 108 -54q26 -47 26 -114q0 -45 -7 -79
q-12 -53 -46 -76q-44 -25 -112 -25q-69 0 -109 25q-19 13 -25 37q-6 22 -6 47q0 49 10 95q13 53 42 90q44 54 119 54z" />
    <glyph glyph-name="p" unicode="p" horiz-adv-x="637" 
d="M169 84l4 1q1 0 2.5 0.5t2.5 0.5q16 -41 57 -65q37 -23 88 -23h13q90 0 149 72q43 50 63 126q16 60 16 134q0 88 -37 142q-44 69 -139 69h-14q-49 0 -96 -22q-47 -24 -74 -68l-3 2q-1 0 -2 0.5t-2 0.5l6 39l6 39q-50 4 -79 8q-15 -383 -85 -743q54 6 81 8q28 163 43 279z
M518 287q-12 -66 -13 -69q-12 -39 -38 -60q-41 -28 -108 -28q-64 0 -107 28q-20 15 -26 41q-7 22 -7 51q0 55 10 96q11 52 42 90q44 57 124 57q62 0 96 -49q29 -42 29 -111q0 -16 -2 -46z" />
    <glyph glyph-name="q" unicode="q" horiz-adv-x="667" 
d="M438 87q-17 -141 -24 -280q50 -4 80 -8q0 24 37 40q18 7 18 10q1 3 -4 6q-28 19 -34.5 95.5t5 187t26.5 206.5t35 198q-14 -1 -41 -3.5t-40 -4.5l-12 -46q-9 -35 -11 -47q-22 48 -63 73q-43 27 -94 27h-17q-92 0 -152 -69q-39 -49 -55 -114q-14 -59 -14 -123
q0 -103 41 -166q21 -33 57.5 -52t78.5 -19h14q49 0 92 24q45 25 70 67q4 -2 7 -2zM126 283q3 45 14 79q11 42 35 74q41 53 110 53q80 2 115 -55q27 -46 27 -110q0 -49 -9 -85q-13 -56 -47 -81q-45 -26 -111 -26q-69 0 -104 25q-31 27 -31 91q0 6 0.5 18t0.5 17z" />
    <glyph glyph-name="r" unicode="r" horiz-adv-x="431" 
d="M398 461l12 81h-14q-35 0 -67 -7q-38 -10 -65 -26q-18 -11 -35 -19q-12 -7 -34 -21q0 10 2 30q0 9 2 29q-68 6 -70 6q-21 -283 -71 -529q53 8 106 9q4 51 16 259q7 87 44 137q21 30 65 46q36 10 78 10q20 0 31 -5z" />
    <glyph glyph-name="s" unicode="s" horiz-adv-x="564" 
d="M310 544q102 0 166 -20l-5 -30q-4 -25 -5 -34q-64 30 -159 30q-53 0 -90 -19q-47 -23 -47 -75q0 -33 28 -54q22 -18 59 -28q30 -8 56 -12q52 -14 64 -19q36 -16 56 -34q31 -30 31 -86q0 -36 -14 -69q-17 -37 -47 -55q-35 -23 -84 -31q-34 -7 -87 -7q-81 0 -173 23
q8 45 17 120q76 -41 165 -41h10q3 -1 7 -1h7q44 0 73 16q37 19 40 59q-14 30 -24 43q-23 17 -59 27q-8 2 -31 7q-10 2 -56 14q-31 6 -56 21q-36 21 -44 55q-5 19 -5 45q0 44 17 77q19 38 59 55q58 23 131 23zM479 523l-3 1q0 2 1 3z" />
    <glyph glyph-name="t" unicode="t" horiz-adv-x="539" 
d="M291 664q-43 0 -86 3q-7 -82 -13 -132q-36 3 -61 7q-2 -22 -2 -30l-2 -31q22 -2 31 -2q11 0 31 -2q-5 -62 -31 -293q-2 -28 -2 -45q0 -59 28 -87q14 -12 30 -18q33 -13 72 -16l36 -3q8 -1 22.5 -2.5t21.5 -1.5l43 -6q0 42 4 124q-12 2 -83 7q-23 0 -40 4q-22 5 -34 17
q-12 18 -12 51q0 6 0.5 17.5t0.5 16.5q5 39 13 117l12 116h21q49 0 99 3q2 9 4 29l3 29q-52 -3 -103 -3h-19q11 93 16 131z" />
    <glyph glyph-name="u" unicode="u" horiz-adv-x="655" 
d="M116 216q-3 -26 -3 -51q0 -56 20 -103q17 -32 54 -48q32 -14 75 -14h13q50 0 102 30q48 29 78 76q-6 -49 -9 -95q28 -1 79 -5q2 272 59 536q-32 -3 -96 -7q-21 -121 -32 -222q-12 -79 -54 -125t-119 -46q-56 0 -82 45q-17 34 -17 92v9v8q10 128 11 240q-15 3 -32 3l-32 3
v-21v-22q0 -141 -15 -283z" />
    <glyph glyph-name="v" unicode="v" horiz-adv-x="665" 
d="M131 542q24 -64 44 -129q33 -109 72 -265q25 -100 34 -133h36h36h27h26l57 133q23 58 57 134q68 153 129 260l-86 -6q-63 -108 -107 -197q-68 -132 -102 -199l-66 199q-33 98 -74 196l-41 3q-14 2 -42 4z" />
    <glyph glyph-name="w" unicode="w" horiz-adv-x="868" 
d="M131 542q38 -115 63 -261q16 -104 31 -269q9 0 28 0.5t29 0.5q18 1 56 1q50 89 128 247q36 -125 81 -246q10 0 29.5 -0.5t29.5 -1.5q10 0 30 -0.5t30 -0.5q37 157 76 270q48 142 111 260q-29 -2 -81 -4q-73 -139 -157 -384q-37 84 -84 204q-8 -1 -21 -1h-21h-71
q-40 -68 -59 -102q-5 -8 -27 -44.5t-34 -56.5q-38 235 -89 383q-13 1 -39 2.5t-39 2.5z" />
    <glyph glyph-name="x" unicode="x" horiz-adv-x="717" 
d="M615 541q-2 0 -80 -6q-89 -100 -187 -222q-67 118 -134 221q-9 1 -26 2t-31 2t-27 2q84 -131 165 -279q-97 -110 -237 -256q94 6 132 8q62 72 154 188q52 -95 112 -188q86 -4 131 -8q-85 104 -191 251q134 182 219 285z" />
    <glyph glyph-name="y" unicode="y" horiz-adv-x="665" 
d="M368 -41q46 98 68 147t68 147q86 180 145 289l-86 -9q-65 -107 -181 -317q-65 128 -168 317q-43 3 -83 9q67 -158 190 -493q-2 -4 -10 -17.5t-13 -20.5l-22 -39q-4 -4 -12 -12.5t-12 -12.5q-31 -31 -53 -38q-25 -8 -59 -8q-5 0 -15.5 -0.5t-15.5 -1.5q-6 -36 -8 -54
l-9 -55q14 2 46 4q51 2 91 14q42 13 73 49q22 25 47 67q1 2 19 35z" />
    <glyph glyph-name="z" unicode="z" horiz-adv-x="621" 
d="M130 540v-58q72 -6 181 -6q71 0 143 3q-226 -210 -371 -350q-12 -81 -21 -124q104 10 219 10q123 0 210 -10q0 11 -0.5 34t-0.5 35v22q0 13 1 21q-95 6 -191 6q-35 0 -105 -2q58 58 168 172q28 30 166 173q2 11 6.5 36.5t7.5 39.5q-116 -11 -221 -11q-96 0 -192 9z" />
    <glyph glyph-name="braceleft" unicode="{" horiz-adv-x="564" 
d="M401 -117l3 45q-4 0 -14 2q-2 0 -7 0.5t-7 1.5q-16 2 -23 4q-16 2 -23 5q-27 7 -40 22v-1q-17 23 -17 72l6 58q1 9 3 28.5t3 29.5v17q0 49 -12 79q-7 17 -26 29q-12 8 -38 16l1 8q52 11 75 42q17 26 22 51q4 22 16 111l6 59q2 7 4 23t5 23q7 26 21 42q12 10 30 17
q31 10 65 15q18 2 31 6q2 11 5.5 31.5t5.5 29.5q-24 -6 -48 -9l-50 -9q-56 -12 -94 -34q-26 -22 -38 -61q-8 -23 -14 -72q-1 -10 -2.5 -28.5t-2.5 -27.5q-4 -27 -6 -56q-4 -30 -10 -52q-8 -26 -26 -46q-21 -16 -48 -21q-25 -6 -51 -6l-10 1q-4 1 -11 1q0 -10 -2 -30
q-3 -15 -3 -30h4h8q3 -1 8 -1h3q24 0 48 -6q28 -9 39 -25q18 -28 18 -84q0 -33 -7 -82q-7 -47 -7 -81q0 -67 28 -100q17 -16 39 -23q36 -15 94 -22l44 -7q1 7 1 22t1 23z" />
    <glyph glyph-name="bar" unicode="|" horiz-adv-x="305" 
d="M118 311h17h17h17q12 0 18 1q15 118 61 447q-28 -20 -61 -20h-7q-2 0 -4 0.5t-3 0.5q-2 -13 -12 -92.5t-15 -121.5q-4 -33 -13.5 -105t-14.5 -110zM128 -215l53 466h-35h-34q-34 -258 -68 -482q30 19 62 19q10 0 22 -3z" />
    <glyph glyph-name="braceright" unicode="}" horiz-adv-x="572" 
d="M105 -92q-2 -20 -4 -33q-1 -11 -5 -33q3 0 13 2q8 2 13 2q28 6 42 8q28 4 42 7q51 11 80 32q25 23 37 63q8 27 12 71l9 112q4 36 10 53q9 32 25 48q20 18 50 25q18 4 53 4h17l4 60h-11q-5 -1 -13 -1q-29 0 -48 5q-26 5 -42 22q-18 24 -18 70q0 20 1 30l10 112q2 30 2 43
q0 62 -28 92q-20 15 -41 23q-42 15 -94 21q-39 7 -45 9q0 -5 -0.5 -15.5t-0.5 -14.5q0 -6 -0.5 -16t-0.5 -15q4 -1 13.5 -2.5t13.5 -2.5q10 -1 32 -5q36 -8 58 -27q16 -21 16 -60q0 -37 -7 -93q-6 -62 -6 -93q0 -45 13 -66q17 -32 67 -43l-1 -9q-54 -14 -75 -44
q-13 -20 -20 -48q-6 -21 -8 -51q-8 -81 -11 -116q-4 -34 -8 -48q-7 -26 -23 -44q-14 -11 -29 -16q-28 -11 -65 -14q-9 -2 -29 -4z" />
    <glyph glyph-name="asciitilde" unicode="~" horiz-adv-x="747" 
d="M695 399q3 -1 5 -3l-10 -6l2.5 5t2.5 4zM655 369l35 21q-17 -32 -21 -65q-37 -28 -40 -31q-43 -35 -85 -52q-39 -16 -83 -3q-29 8 -66 27l-33 15h1q-66 38 -113 40q-39 -1 -86 -32q-51 -36 -101 -65q24 38 27 89q38 31 77 48q43 19 85 19q65 0 127 -27q3 -3 7 -3
q2 -1 5.5 -2.5t4.5 -1.5q74 -30 114 -30q43 0 99 27q16 8 46 26z" />
    <glyph glyph-name="uni00A0" unicode="&#xa0;" horiz-adv-x="783" 
 />
    <glyph glyph-name="exclamdown" unicode="&#xa1;" horiz-adv-x="350" 
d="M265 598l13 125q-23 -13 -57 -13q-28 0 -52 12q-2 -20 -4 -62q-1 -10 -2.5 -31t-2.5 -31q24 -9 50 -9q23 0 55 9zM220 4q12 204 20 316l3 83q0 42 3 84q-32 -4 -46 -4q-20 0 -39 3l-12 -83l-12 -84q-16 -151 -36 -314q30 14 61 14q32 0 58 -15z" />
    <glyph glyph-name="cent" unicode="&#xa2;" horiz-adv-x="579" 
d="M378 539q74 -3 125 -25l-3 -27q0 -5 -1.5 -15t-2.5 -15q-57 30 -125 33q-17 -137 -42 -393q69 3 131 31q-2 -36 -4 -55q-2 -17 -4 -55q-52 -19 -132 -23l-6 -67q-4 -44 -5 -67q-3 0 -10 0.5t-10 1.5q-14 0 -20 1l6 68q1 11 3 33.5t3 33.5q-53 5 -93 23q-49 22 -74 56
q-39 53 -39 146q0 68 16 125q20 71 63 114q34 36 86 55q40 14 98 21q6 44 8 67q6 48 8 68h21h20q-12 -90 -17 -135zM505 515q1 0 1 -2l-3 1q0 2 1 3q1 -1 1 -2zM312 296q6 64 20 192q-58 -3 -100 -43q-36 -33 -58 -92q-18 -53 -18 -105q0 -64 36 -102q34 -37 95 -45q1 0 3 2
l2 2q7 70 20 191z" />
    <glyph glyph-name="sterling" unicode="&#xa3;" horiz-adv-x="628" 
d="M440 720q56 0 125 -19q-4 -23 -7 -37l-8 -41q-62 30 -113 30q-28 0 -60 -10q-30 -9 -53 -32q-22 -27 -32 -65q-8 -38 -11 -70q-3 -16 -7 -53q-1 -9 -2.5 -26t-2.5 -26q90 -3 178 -3q-2 -18 -2 -25l-3 -24q-31 0 -89 2q-15 0 -45 0.5t-45 0.5l-12 -107l-6.5 -52t-6.5 -55
q149 0 262 -13q-1 -8 -1.5 -24.5t-0.5 -24.5t-0.5 -24t-0.5 -24q-138 17 -268 17q-92 0 -207 -10q6 23 19 99q37 2 111 4q16 104 28 215q-16 0 -46 0.5t-45 0.5l6 50q7 0 22.5 -0.5t23.5 -0.5q30 0 45 -1l6 59q8 78 13 104q8 48 31 89q10 20 29 38q31 29 84 45q43 13 91 13z
M566 704l2 -4l-3 1q0 2 1 3z" />
    <glyph glyph-name="currency" unicode="&#xa4;" horiz-adv-x="718" 
d="M497 475h-2h-3q-49 32 -107 32q-63 0 -114 -36q-16 18 -48 52l-48 51l-7.5 -7.5t-8.5 -8t-7 -7.5q-4 -5 -12.5 -12.5t-11.5 -10.5l47 -51q15 -18 47 -52q-45 -59 -45 -126q0 -47 24 -100q-94 -86 -112 -102q12 -14 19 -23q3 -5 10 -13t9 -11q56 50 58 52q18 17 56 51
q56 -35 110 -35q58 0 113 37q68 -72 98 -103l7.5 7.5t8.5 8t7 7.5l23 23q-33 33 -95 103q46 60 46 130q0 50 -23 96q1 1 55 52l56 51q-12 16 -19 24l-19 22q-38 -33 -112 -101zM496 313q-5 -55 -44 -91q-41 -39 -94 -39q-50 0 -85 32q-34 34 -34 84q0 60 41 101q40 42 97 42
q51 0 85 -31q34 -32 34 -83v-8v-7z" />
    <glyph glyph-name="yen" unicode="&#xa5;" horiz-adv-x="723" 
d="M637 209q0 11 2 35q0 12 2 34q-63 2 -190 2l2 31q8 12 24 38q13 20 23 38l150 1q0 9 2 25l3 25q-21 -1 -62 -1q-10 -1 -31 -1t-32 -1q110 178 189 290q-48 -6 -93 -9q-104 -158 -212 -340q-96 221 -154 340q-27 1 -90 9q82 -173 131 -290q-61 0 -123 3q-2 -18 -2 -25
q0 -4 -0.5 -12.5t-1.5 -12.5q25 -1 75 -1h74q14 -26 22 -38q5 -8 13 -22t9 -16q0 -3 -0.5 -8t-1.5 -8q0 -3 -0.5 -8t-0.5 -7q-62 0 -192 -2q-4 -46 -7 -69q128 4 193 4l-33 -195q23 0 34 1h34h24q17 0 25 -1q0 65 4 195q106 0 191 -4z" />
    <glyph glyph-name="brokenbar" unicode="&#xa6;" horiz-adv-x="328" 
d="M237 694q-15 -17 -39 -17q-23 0 -34 17q-3 -40 -9 -113.5t-11 -133.5t-10 -113q13 -4 32 -4q7 0 21 1.5t16 1.5q18 200 34 361zM190 194q-9 2 -29 2q-26 0 -39 -2q-22 -240 -34 -360q18 16 38 16q23 0 36 -16q16 212 28 360z" />
    <glyph glyph-name="section" unicode="&#xa7;" horiz-adv-x="541" 
d="M376 447q54 -33 79 -76q13 -23 13 -54q0 -47 -28 -86q-26 -37 -71 -59q51 -49 51 -103q0 -34 -11 -60q-13 -32 -40 -49q-26 -19 -66 -28q-28 -7 -71 -7q-53 0 -142 17l6 46q1 8 3 23t3 23q76 -27 131 -27q38 0 66 8q21 6 33 22t12 35q-5 33 -42 65q-22 19 -66 43h1
q-67 39 -93 62q-47 44 -47 97q0 47 28 87q26 38 71 58q-52 42 -52 104q0 30 12 57q14 27 39 43q27 19 66 27q28 6 69 6q67 0 135 -17q-2 -22 -4 -33q-1 -12 -5 -36q-77 27 -134 27q-36 0 -67 -17q-34 -23 -34 -57q5 -35 42 -68q24 -22 66 -44q17 -12 47 -29zM468 703l-3 1
q0 2 1 3zM380 251q23 26 23 55q0 47 -59 93q-26 19 -54 36q-11 6 -29.5 17t-24.5 14h-5q-27 -17 -46 -41q-21 -26 -21 -55q0 -33 30 -65q17 -20 67 -52l37 -22q13 -7 35 -21q28 19 47 41z" />
    <glyph glyph-name="dieresis" unicode="&#xa8;" horiz-adv-x="460" 
d="M177 761q6 -18 6 -37q0 -32 -15 -60q8 0 24.5 0.5t24.5 1.5h49q7 35 7 74v10v9q-32 0 -47 1q-33 0 -49 1zM382 759q-9 -36 -9 -71v-11q0 -2 0.5 -6t0.5 -5q8 0 24 -0.5t24 -0.5q32 0 48 -1q-6 17 -6 37q0 31 15 60q-16 -1 -48 -1q-8 0 -24.5 -0.5t-24.5 -0.5z" />
    <glyph glyph-name="copyright" unicode="&#xa9;" horiz-adv-x="822" 
d="M697 609q70 -79 70 -206q0 -83 -27 -153q-29 -80 -87 -134q-52 -51 -120 -74q-63 -23 -137 -23q-71 0 -127 23q-64 27 -104 73q-70 80 -70 207q0 81 26 153q29 81 87 133q50 50 119 75q66 23 135 23q71 0 130 -23q64 -25 105 -74zM707 268q22 58 22 130q0 110 -63 182
q-34 41 -93 66q-52 21 -115 21q-59 0 -119 -22q-57 -21 -104 -65q-51 -47 -78 -115q-26 -66 -26 -133q0 -109 68 -174q86 -63 209 -63q122 0 219 63q54 40 80 110zM378 556q42 12 86 12q58 0 119 -23q-4 -27 -5 -36q-55 26 -117 26q-70 0 -113 -49q-50 -56 -50 -134
q0 -57 45 -92q42 -31 100 -31q52 0 111 27q0 -13 -2 -39q-3 -19 -3 -39q-55 -23 -128 -23q-43 0 -80 12q-40 12 -67 42q-43 46 -43 124q0 50 16 97q16 49 53 83q34 30 78 43zM584 544l-1 1v3z" />
    <glyph glyph-name="ordfeminine" unicode="&#xaa;" horiz-adv-x="513" 
d="M450 569q3 18 3 37q0 59 -34 92q-23 17 -55 25q-25 5 -61 5q-73 0 -136 -20q-1 -8 -1 -25t-1 -25q69 24 124 25q46 -2 67 -12q39 -19 39 -64v-6q0 -5 -1 -7v-6q-30 -2 -90 -2q-79 0 -130 -30q-26 -16 -39 -49q-11 -26 -11 -59q0 -50 33 -75q28 -22 77 -22q45 0 80 18
q38 17 64 53l-4 -63q5 -1 15 -1t15 -1q9 0 29 -2q5 93 17 214zM324 572q10 0 31 0.5t32 0.5q0 -1 -0.5 -4t-0.5 -5q0 -6 -1 -9q-5 -55 -39 -92q-35 -36 -91 -36q-29 0 -51 17q-23 20 -23 46q0 38 24 57q20 16 57 21q8 1 62 4zM114 285q-4 -32 -8 -50q73 8 161 8q83 0 165 -9
v6v15v15v7v7q-83 8 -158 8q-67 0 -160 -7z" />
    <glyph glyph-name="guillemotleft" unicode="&#xab;" horiz-adv-x="584" 
d="M534 490q-9 -7 -121 -94q-40 -32 -122 -96q-3 -8 -11 -26q-7 -11 -12 -26q130 -138 195 -202q4 29 19 100q-42 44 -63 67q-42 46 -64 69q25 19 81 64q26 21 80 63q7 37 18 81zM313 411l11 77q-134 -100 -232 -179q-4 -14 -10 -27q-8 -14 -12 -27q81 -94 182 -196l15 49
q10 32 14 49q-82 86 -124 132q89 70 156 122z" />
    <glyph glyph-name="logicalnot" unicode="&#xac;" horiz-adv-x="812" 
d="M104 417q8 -40 10 -84q256 0 516 9q-29 -101 -29 -180q0 -5 1 -7v-7q37 -1 109 -3q-16 54 -16 114q0 76 27 157q-173 -5 -309 -5q-153 0 -309 6z" />
    <glyph glyph-name="softhyphen" unicode="&#xad;" horiz-adv-x="401" 
d="M82 309q1 -6 1 -20q0 -28 -13 -50q113 4 252 4q-3 11 -3 21q0 27 14 50q-182 -5 -218 -5h-16h-17z" />
    <glyph glyph-name="registered" unicode="&#xae;" horiz-adv-x="822" 
d="M462 706q-69 0 -135 -23q-69 -25 -119 -75q-58 -52 -87 -133q-26 -72 -26 -153q0 -127 70 -207q40 -46 104 -73q56 -23 127 -23q74 0 137 23q68 23 120 74q58 54 87 134q27 70 27 153q0 127 -70 206q-41 49 -105 74q-59 23 -130 23zM458 667q63 0 114 -19q58 -21 95 -61
q64 -64 64 -170q0 -136 -102 -233q-90 -81 -219 -81q-115 0 -194 68q-82 72 -82 187q0 65 25 124q27 62 76 104q90 81 223 81zM439 559q-42 0 -128 2q-12 -198 -34 -385q25 0 37 1h38h12q2 28 8 84q4 57 7 83h15h15q12 -2 21 -9q18 -15 32 -40q4 -8 12 -22l25 -48
q4 -8 12.5 -24t12.5 -24h35q12 -1 35 -1l-27 49q-4 8 -12.5 24.5t-12.5 24.5q-8 14 -11 21q-8 14 -12 20q-14 21 -34 33l1 7q44 6 72 37q29 31 29 74q0 48 -39 72q-38 21 -109 21zM427 544h31q43 -3 57 -8q33 -13 33 -50q0 -18 -6 -35q-6 -19 -22 -30q-25 -16 -75 -16h-61
q4 45 7 70q4 46 5 68q21 0 31 1z" />
    <glyph glyph-name="macron" unicode="&#xaf;" horiz-adv-x="437" 
d="M173 740q6 -10 6 -26q0 -20 -12 -36q23 0 71 0.5t71 0.5t70 -0.5t71 -0.5q-7 8 -7 25q0 21 12 37q-47 -1 -141 -1t-141 1z" />
    <glyph glyph-name="degree" unicode="&#xb0;" horiz-adv-x="431" 
d="M296 732q-67 0 -108 -41q-22 -21 -36 -57q-11 -35 -11 -65q0 -56 28 -88q33 -38 101 -38q66 0 106 39q24 24 36 56t12 64q0 59 -36 95q-35 35 -92 35zM293 704q34 0 59 -20q25 -22 25 -56q0 -40 -30 -68q-27 -27 -69 -27q-34 0 -60 21q-25 22 -25 57q0 39 31 67
q31 26 69 26z" />
    <glyph glyph-name="plusminus" unicode="&#xb1;" horiz-adv-x="800" 
d="M451 609h-72q-3 -26 -7 -90q-2 -15 -4.5 -46t-3.5 -46q-171 2 -256 6q0 -12 -1.5 -36t-2.5 -37q127 -3 254 -3q-9 -110 -16 -181h69q1 16 3.5 46.5t3.5 44.5q6 60 8 90q85 0 255 2q1 7 2.5 19t1.5 18q2 12 4 36q-87 -3 -257 -5q11 115 19 182zM70 88q-4 -27 -16 -83
q156 12 311 12q153 0 305 -12q-3 42 -3 83q-147 9 -294 9q-150 0 -303 -9z" />
    <glyph glyph-name="twosuperior" unicode="&#xb2;" horiz-adv-x="471" 
d="M214 382l-3 9q16 12 46 36l50 43q30 25 49 45q54 56 69 110q2 10 2 16q0 47 -46 71q-35 17 -89 17q-58 0 -125 -18v-8v-9v-7q0 -5 -0.5 -13t-0.5 -12q65 25 119 25q31 0 54 -17q25 -18 25 -47v-4v-5q-14 -31 -33 -56q-37 -45 -95 -93q-25 -21 -50 -44q-16 -12 -25 -21
l-25 -22q-1 -7 -3 -23q-1 -4 -2.5 -12t-2.5 -12q78 8 144 8q64 0 139 -8q-1 7 -1 23v23q-53 6 -132 6h-32q-21 0 -32 -1z" />
    <glyph glyph-name="threesuperior" unicode="&#xb3;" horiz-adv-x="452" 
d="M336 542l1 9q36 6 61 33q24 29 24 64q0 47 -46 66q-32 15 -88 15q-52 0 -120 -10v-6v-19q-1 -6 -1 -20q60 13 107 13q34 0 57 -10q29 -14 29 -42q0 -35 -29 -54q-26 -17 -62 -17h-8h-9h-30q0 -3 -0.5 -9.5t-0.5 -10.5l-3 -21h36h5h6q37 0 60 -16q29 -19 29 -49
q0 -44 -38 -66q-28 -18 -76 -18q-73 0 -111 16l-3 -23q-2 -14 -4 -24q57 -12 115 -12q44 2 68 6q32 6 68 26q22 15 32 42q9 23 9 50q0 34 -22 58q-23 24 -56 29z" />
    <glyph glyph-name="acute" unicode="&#xb4;" horiz-adv-x="362" 
d="M305 791q-44 -50 -80 -96q-45 -56 -81 -94l70 3q39 36 93 96q60 64 93 95q-15 -1 -95 -4z" />
    <glyph glyph-name="mu" unicode="&#xb5;" horiz-adv-x="735" 
d="M75 -202q32 4 80 7q13 92 28 262l8 2q12 -35 46 -53q28 -18 70 -18h11q43 0 80 23q37 21 61 58q0 -29 18 -57q17 -27 48 -27q10 0 22 5q20 7 43 23q4 2 11 6.5t11 6.5q0 10 2 30q0 11 2 31q-5 -1 -13 -5q-7 -3 -14 -3q-19 0 -35 9q-19 9 -19 27v2q21 224 52 407l-40 -3
q-7 -1 -20 -1.5t-20 -0.5q-16 -97 -28 -205q-9 -78 -47 -122q-40 -40 -105 -40q-34 0 -55 7q-29 10 -47 33q-23 32 -23 84q0 3 0.5 9.5t0.5 10.5q4 79 6 232q-26 2 -39 2q-6 0 -19 1t-20 1v-45q0 -363 -56 -699z" />
    <glyph glyph-name="paragraph" unicode="&#xb6;" horiz-adv-x="757" 
d="M360 708q-105 0 -166 -46q-35 -27 -50 -71q-14 -38 -14 -84q0 -77 43 -126q45 -51 99 -61q-45 -264 -76 -400q67 4 148 4q24 291 65 735q67 0 100 2q-49 -388 -67 -739q87 -3 164 -13q-37 285 -37 675q0 22 0.5 65t0.5 64q-69 -5 -164 -5h-23h-23z" />
    <glyph glyph-name="periodcentered" unicode="&#xb7;" horiz-adv-x="254" 
d="M102 404q0 -60 -11 -114q16 2 48 2q30 0 46 -2q0 60 10 114q-16 -2 -47 -2t-46 2z" />
    <glyph glyph-name="cedilla" unicode="&#xb8;" horiz-adv-x="326" 
d="M136 -7q-15 -1 -46 -1q29 -50 29 -77q0 -22 -18 -38q-19 -14 -40 -14q-5 0 -6 1h-7q-37 0 -59 11l-3 -26q-1 -4 -2.5 -13t-2.5 -13q37 -8 72 -8q52 0 82 15q17 7 28 30q9 20 9 40q0 40 -36 93z" />
    <glyph glyph-name="onesuperior" unicode="&#xb9;" horiz-adv-x="462" 
d="M148 375l-6 -43q63 6 125 6q72 0 135 -7q-1 3 -1 9v10v13q0 8 1 12q-41 5 -97 5q13 183 31 342h-15h-16h-30q-60 -10 -108 -11v-23q-1 -8 -1 -24q47 4 106 14q-9 -129 -26 -297q-97 -6 -98 -6z" />
    <glyph glyph-name="ordmasculine" unicode="&#xba;" horiz-adv-x="525" 
d="M324 728q-40 0 -73 -11q-37 -11 -63 -37q-32 -30 -43 -76q-11 -38 -11 -85q0 -78 33 -120q40 -48 121 -48q38 0 71 10q41 14 62 38q33 33 48 87q12 38 12 94q0 64 -30 101q-21 26 -57 37q-31 10 -70 10zM321 700h4q42 0 71 -27q27 -27 27 -72q0 -58 -32 -99
q-35 -45 -91 -45q-48 0 -75 30t-27 78q0 31 8 55q11 30 29 47q32 33 86 33zM126 286q-1 -5 -2.5 -13t-1.5 -12q-1 -5 -2.5 -13t-1.5 -12q76 7 164 7q86 0 162 -7v9v8v17v16q-78 6 -156 6q-81 0 -162 -6z" />
    <glyph glyph-name="guillemotright" unicode="&#xbb;" horiz-adv-x="602" 
d="M125 517v-40q0 -14 -2 -40q21 -24 63 -70q21 -25 63 -71q-88 -66 -160 -124q-2 -50 -6 -101l122 93q8 6 52.5 39.5t68.5 51.5l-5 28q0 4 -1.5 13t-2.5 14zM336 498q-1 -6 -2 -12.5t-2 -14.5t-2 -12l-6 -39q21 -22 61 -66q22 -25 61 -68q-104 -80 -157 -120q2 -34 2 -49
q1 -8 1 -24.5t1 -24.5q112 82 230 175q-4 17 -5 28q-1 5 -2.5 14.5t-1.5 13.5l-88 100q-46 53 -90 99z" />
    <glyph glyph-name="onequarter" unicode="&#xbc;" horiz-adv-x="856" 
d="M729 738q-82 -111 -258 -370q-168 -250 -257 -371q-22 -2 -33 -2q-5 -1 -16 -2t-17 -2q100 138 237 342q-65 5 -118 5q-62 0 -125 -6l6 43q1 0 98 6q17 168 26 297q-59 -10 -106 -14q0 16 1 24v23q48 1 108 11h30h16h15q-18 -159 -31 -342q56 0 97 -5q-1 -4 -1 -12v-6
l2 2t1 2q177 261 257 370q55 5 68 7zM718 141q20 0 31 -1q-1 -7 -1 -21q0 -4 -0.5 -11t-1.5 -11q-1 0 -62 3q-3 -45 -3 -89q-40 2 -60 2q0 21 3 44q1 7 1.5 22t0.5 22h-39q-52 0 -154 -4l7 52q107 138 201 247q12 1 37 1q6 1 18.5 1t18.5 1q-18 -108 -28 -257q10 -1 31 -1z
M587 142h42q9 104 21 216q-50 -56 -89 -108q-5 -6 -38 -46.5t-50 -62.5q38 1 114 1z" />
    <glyph glyph-name="onehalf" unicode="&#xbd;" horiz-adv-x="1011" 
d="M661 731q55 5 68 7q-82 -111 -258 -370q-168 -250 -257 -371q-22 -2 -33 -2q-5 -1 -16 -2t-17 -2q100 138 237 342q-65 5 -118 5q-62 0 -125 -6l6 43q1 0 98 6q17 168 26 297q-59 -10 -106 -14q0 16 1 24v23q48 1 108 11h30h16h15q-18 -159 -31 -342q56 0 97 -5
q-1 -4 -1 -12v-6l2 2t1 2q177 261 257 370zM778 145l-50 -43q-25 -18 -46 -37q2 -2 3 -8q10 1 32 1h32q78 0 132 -6v-23v-23q-74 8 -138 8q-67 0 -144 -8q1 4 2.5 12t2.5 12q0 11 3 23q1 1 25 22q7 7 25 21q22 21 50 44q58 48 94 93q22 29 33 56q1 1 1 4v5q0 29 -25 47
q-25 17 -55 17q-54 0 -119 -26q1 9 1 25t1 25q67 18 124 18q55 0 90 -17q45 -24 45 -72q0 -10 -1 -16q-15 -54 -69 -109q-19 -20 -49 -45z" />
    <glyph glyph-name="threequarters" unicode="&#xbe;" horiz-adv-x="839" 
d="M645 731q-71 -96 -257 -370q-160 -238 -257 -370q6 1 17 2t17 2q11 0 33 2q88 121 256 371q165 243 258 370q-11 -2 -67 -7zM336 542l1 9q36 6 61 33q24 29 24 64q0 47 -46 66q-32 15 -88 15q-52 0 -120 -10v-6v-19q-1 -6 -1 -20q60 13 107 13q34 0 57 -10q29 -14 29 -42
q0 -35 -29 -54q-26 -17 -62 -17h-8h-9h-30q0 -3 -0.5 -9.5t-0.5 -10.5l-3 -21h36h5h6q37 0 60 -16q29 -19 29 -49q0 -44 -38 -66q-28 -18 -76 -18q-73 0 -111 16l-3 -23q-2 -14 -4 -24q57 -12 115 -12q44 2 68 6q32 6 68 26q22 15 32 42q9 23 9 50q0 34 -22 58
q-23 24 -56 29zM624 396q-94 -109 -201 -247q-6 -50 -6 -52q102 4 153 4h40l-3 -44q-3 -22 -3 -44q21 0 61 -2q0 29 2 89q61 -3 62 -3q1 4 1.5 11t0.5 11q0 14 1 21q-10 1 -31 1t-31 1q9 133 28 257q-6 -1 -18.5 -1t-18.5 -1q-25 0 -37 -1zM633 358q-9 -78 -20 -216h-42
q-76 0 -115 -1l88 109q38 49 89 108z" />
    <glyph glyph-name="questiondown" unicode="&#xbf;" horiz-adv-x="528" 
d="M338 600q8 74 13 111q-30 -2 -90 -2q-1 -20 -5 -55q-1 -9 -2.5 -27.5t-1.5 -27.5q57 0 86 1zM243 467l-3 -32q-4 -38 -30 -64q-24 -25 -76 -74q-25 -23 -43 -47q-43 -55 -43 -116q0 -69 57 -103q45 -27 118 -27q97 0 184 40q2 38 2 55q0 6 0.5 17t1 20t1.5 17
q-91 -52 -165 -52q-47 0 -74 19q-35 23 -35 66q0 32 19 60q14 22 43 47q70 64 91 96q12 21 16 64l6 68h-32h-33z" />
    <glyph glyph-name="Agrave" unicode="&#xc0;" horiz-adv-x="801" 
d="M329 871q-39 0 -78 3q23 -28 47 -59q15 -20 47 -58q10 -1 31 -1q5 0 16 -1t16 -1q-22 27 -41 58q-24 40 -38 59zM449 710h-86q-29 -59 -83 -177l-83 -179q-100 -211 -180 -349l122 9q35 71 53 117q110 2 162 2q53 0 163 -2q11 -66 25 -117q64 -3 129 -9q-39 94 -65 173
q-45 133 -106 354zM399 642q25 -102 48 -204q37 -156 49 -203h-66h-67q-88 0 -133 -1q58 136 85 204q41 102 84 204z" />
    <glyph glyph-name="Aacute" unicode="&#xc1;" horiz-adv-x="801" 
d="M463 871q-23 -26 -48 -59q-21 -27 -51 -58q6 0 16 1t16 1q21 0 31 1q29 29 56 59q18 20 58 58q-39 -3 -78 -3zM449 710h-86q-29 -59 -83 -177l-83 -179q-100 -211 -180 -349l122 9q35 71 53 117q110 2 162 2q53 0 163 -2q11 -66 25 -117q64 -3 129 -9q-39 94 -65 173
q-45 133 -106 354zM399 642q25 -102 48 -204q37 -156 49 -203h-66h-67q-88 0 -133 -1q58 136 85 204q41 102 84 204z" />
    <glyph glyph-name="Acircumflex" unicode="&#xc2;" horiz-adv-x="801" 
d="M459 882h-87q-8 -9 -24.5 -29.5t-25.5 -31.5q-27 -32 -55 -57q9 1 27 1q9 1 28 1q26 22 91 87l36 -45q18 -22 39 -42q19 0 28 -1q19 0 28 -1q-25 23 -46 56zM449 710h-86q-29 -59 -83 -177l-83 -179q-100 -211 -180 -349l122 9q35 71 53 117q110 2 162 2q53 0 163 -2
q11 -66 25 -117q64 -3 129 -9q-39 94 -65 173q-45 133 -106 354zM399 642q25 -102 48 -204q37 -156 49 -203h-66h-67q-88 0 -133 -1q58 136 85 204q41 102 84 204z" />
    <glyph glyph-name="Atilde" unicode="&#xc3;" horiz-adv-x="801" 
d="M345 769q0 2 -14 2q-5 0 -16 -0.5t-19 -0.5q2 5 6.5 15.5t7.5 15.5q15 44 43 57q18 8 33 8h8q30 0 87 -34q24 -12 35 -12q8 -7 23 8q6 6 19 27q3 6 3 10v1q8 1 24 1q19 0 28 1q-2 -5 -7 -15.5t-8 -16.5q-17 -38 -42 -55q-15 -10 -33 -10q-33 0 -71 21q-7 3 -14 8
q-15 12 -29 16q-7 3 -16 3q-19 0 -31 -17q-8 -10 -17 -33zM561 866h-3q2 2 3 0zM606 178q26 -79 65 -173q-65 6 -129 9q-14 51 -25 117q-110 2 -163 2q-52 0 -162 -2q-18 -46 -53 -117l-122 -9q80 138 180 349l83 179q54 118 83 177h86l51 -178q61 -221 106 -354zM430 235
h66q-12 47 -49 203q-23 102 -48 204q-43 -102 -84 -204q-27 -68 -85 -204q45 1 133 1h67z" />
    <glyph glyph-name="Adieresis" unicode="&#xc4;" horiz-adv-x="801" 
d="M334 860q5 -20 5 -35q0 -30 -13 -55q15 1 45 1h44q8 38 8 71v8q-1 3 -1 8q-29 0 -44 1q-29 0 -44 1zM524 858q-8 -35 -8 -65q0 -3 0.5 -10.5t0.5 -11.5h45q29 0 44 -1q-5 18 -5 34q0 30 13 56q-15 -1 -45 -1q-15 -1 -45 -1zM449 710h-86q-29 -59 -83 -177l-83 -179
q-100 -211 -180 -349l122 9q35 71 53 117q110 2 162 2q53 0 163 -2q11 -66 25 -117q64 -3 129 -9q-39 94 -65 173q-45 133 -106 354zM399 642q25 -102 48 -204q37 -156 49 -203h-66h-67q-88 0 -133 -1q58 136 85 204q41 102 84 204z" />
    <glyph glyph-name="Aring" unicode="&#xc5;" horiz-adv-x="801" 
d="M337 674q-15 -33 -44 -97t-33 -72q-52 -112 -77 -168q-93 -195 -166 -332q8 1 23.5 2.5t23.5 2.5q30 2 47 4q9 18 89 186q120 2 179 2q95 0 142 -2q22 -75 59 -186q8 0 23 -2t22 -2q33 -4 46 -5q-27 70 -58 164q-53 167 -99 336q-19 72 -47 169q34 23 51 54q19 33 19 69
q0 43 -32 77q-31 31 -79 31q-57 0 -99 -37q-41 -39 -41 -97q0 -62 51 -97zM488 780q-3 -31 -28 -53q-23 -23 -54 -23t-51 20q-21 21 -21 50q0 34 25 59q26 23 59 23q29 0 50 -19q20 -20 20 -48v-4v-5zM399 637q44 -159 50 -183q32 -122 50 -183h-123q-95 0 -142 -1
q56 122 83 183q54 122 82 184z" />
    <glyph glyph-name="AE" unicode="&#xc6;" horiz-adv-x="1041" 
d="M965 724q-209 -14 -445 -14h-71q-47 0 -70 1l-84 -179q-32 -72 -85 -179q-100 -203 -193 -348q87 6 171 9l9 63q1 9 3.5 30t3.5 32q176 4 258 4q-1 -11 -2.5 -31.5t-1.5 -30.5l-6 -62q245 0 459 -14q-4 40 -8 118q-189 8 -356 8l6 71q1 24 5 70q217 0 326 -2l3 37
q2 22 2 36h-325q29 291 30 296q203 3 353 11q16 68 18 74zM437 645h35h34q-22 -264 -37 -433q-75 0 -225 -2q54 111 99 217q48 114 94 218z" />
    <glyph glyph-name="Ccedilla" unicode="&#xc7;" horiz-adv-x="743" 
d="M271 584q-46 -49 -68 -125q-17 -58 -17 -132q0 -46 9 -77q14 -39 39 -62q35 -28 90 -40q41 -9 100 -9q54 0 108 20q55 20 97 58q-4 -64 -4 -142v-16q-91 -55 -214 -55q-27 0 -54 3q16 -29 16 -59q0 -21 -9 -40q-10 -22 -28 -30q-30 -14 -83 -14q-39 0 -71 7q1 4 2.5 13
t2.5 13q3 25 3 26q22 -11 59 -11h6h6q24 0 40 14q18 15 18 37q0 24 -14 52l-33 9q-72 23 -115 72q-32 41 -47 99q-13 46 -13 112q0 93 21 169q25 94 85 154q50 50 130 75q65 18 145 18q54 0 107 -12q52 -12 94 -42q-11 -64 -14 -89q-74 74 -192 74q-58 0 -107 -14
q-59 -18 -95 -56zM680 672v-2l1 -2l-2 1q0 2 1 3z" />
    <glyph glyph-name="Egrave" unicode="&#xc8;" horiz-adv-x="729" 
d="M280 871q-39 0 -78 3q44 -55 47 -59q15 -20 47 -58q10 -1 31 -1q5 0 15.5 -1t15.5 -1q-19 22 -40 58q-17 28 -38 59zM203 725q-5 -377 -63 -720q121 14 233 14q110 0 227 -14q0 95 2 142q-97 8 -218 8q-68 0 -137 -3q15 140 20 200q109 0 163 1h163q0 4 1 11t1.5 13
t0.5 12q2 24 4 36q-104 -3 -205 -3q-21 0 -61 0.5t-61 0.5q9 115 15 220q61 -4 141 -4q112 0 213 10q1 11 5 38q3 14 7 37q-116 -15 -228 -15q-117 0 -223 16z" />
    <glyph glyph-name="Eacute" unicode="&#xc9;" horiz-adv-x="697" 
d="M332 871q-23 -26 -48 -59q-21 -27 -51 -58q5 0 16 1t16 1q21 0 31 1q19 19 57 59q24 27 57 58q-39 -3 -78 -3zM170 725q-5 -377 -63 -720q121 14 233 14q110 0 227 -14q0 95 2 142q-96 8 -217 8q-69 0 -138 -3q14 113 20 200q109 0 163 1h163q0 4 1 11t1.5 13t0.5 12
q2 24 4 36q-104 -3 -205 -3q-20 0 -61 0.5t-61 0.5q9 115 15 220q63 -4 141 -4q112 0 213 10q1 18 6 38l6 37q-116 -15 -228 -15q-115 0 -223 16z" />
    <glyph glyph-name="Ecircumflex" unicode="&#xca;" horiz-adv-x="697" 
d="M399 872h-86q-10 -12 -28 -33.5t-23 -27.5q-21 -27 -55 -57q9 1 28 1q9 1 27 1q22 18 91 87q24 -30 37 -45q13 -18 39 -42q18 0 28 -1q18 0 27 -1q-24 24 -46 57q-4 6 -17.5 27.5t-21.5 33.5zM170 725q-5 -377 -63 -720q121 14 233 14q110 0 227 -14q0 95 2 142
q-96 8 -217 8q-69 0 -138 -3q14 113 20 200q109 0 163 1h163q0 4 1 11t1.5 13t0.5 12q2 24 4 36q-104 -3 -205 -3q-20 0 -61 0.5t-61 0.5q9 115 15 220q63 -4 141 -4q112 0 213 10q1 18 6 38l6 37q-116 -15 -228 -15q-115 0 -223 16z" />
    <glyph glyph-name="Edieresis" unicode="&#xcb;" horiz-adv-x="697" 
d="M252 860q6 -18 6 -35q0 -30 -13 -55q15 1 44 1h44q8 32 8 71v8v8q-30 0 -44 1q-29 0 -45 1zM443 858q-8 -35 -8 -65q0 -14 1 -22h44q30 0 45 -1q-6 16 -6 34q0 31 14 56q-15 -1 -45 -1q-15 -1 -45 -1zM170 725q-5 -377 -63 -720q121 14 233 14q110 0 227 -14q0 95 2 142
q-96 8 -217 8q-69 0 -138 -3q14 113 20 200q109 0 163 1h163q0 4 1 11t1.5 13t0.5 12q2 24 4 36q-104 -3 -205 -3q-20 0 -61 0.5t-61 0.5q9 115 15 220q63 -4 141 -4q112 0 213 10q1 18 6 38l6 37q-116 -15 -228 -15q-115 0 -223 16z" />
    <glyph glyph-name="Igrave" unicode="&#xcc;" horiz-adv-x="514" 
d="M280 871q-39 0 -78 3q44 -55 47 -59q15 -20 47 -58q10 -1 31 -1q5 0 15.5 -1t15.5 -1q-19 22 -40 58q-17 28 -38 59zM353 717q-41 -429 -78 -712q28 14 57 14q27 0 52 -14q18 334 53 715q-20 -10 -46 -10q-21 0 -38 7z" />
    <glyph glyph-name="Iacute" unicode="&#xcd;" horiz-adv-x="434" 
d="M285 920q-5 -6 -22 -26.5t-26 -32.5q-27 -34 -50 -58q5 1 15.5 1t15.5 1q21 0 31 1q27 26 57 59q27 30 57 57q-26 -2 -78 -2zM273 717q-44 -459 -77 -712q28 14 56 14q29 0 52 -14q18 334 53 715q-19 -10 -46 -10q-21 0 -38 7z" />
    <glyph glyph-name="Icircumflex" unicode="&#xce;" horiz-adv-x="499" 
d="M425 872h-87q-9 -10 -25 -30.5t-25 -30.5q-27 -32 -55 -57q9 1 28 1q9 1 27 1q22 18 91 87q24 -30 37 -45q16 -22 39 -42q18 0 27 -1q19 0 28 -1q-24 24 -46 57zM338 717q-44 -459 -77 -712q28 14 56 14q29 0 52 -14q18 334 53 715q-19 -10 -46 -10q-21 0 -38 7z" />
    <glyph glyph-name="Idieresis" unicode="&#xcf;" horiz-adv-x="438" 
d="M199 860q5 -20 5 -35q0 -30 -13 -55q15 1 44 1h45q8 38 8 71v8q-1 3 -1 8q-30 0 -44 1q-29 0 -44 1zM389 858q-8 -35 -8 -65q0 -14 1 -22h45q29 0 44 -1q-6 16 -6 34q0 28 14 56q-15 -1 -45 -1q-15 -1 -45 -1zM266 717q-44 -459 -77 -712q28 14 56 14q29 0 52 -14
q19 328 53 715q-19 -10 -46 -10q-21 0 -38 7z" />
    <glyph glyph-name="Eth" unicode="&#xd0;" horiz-adv-x="816" 
d="M206 717q0 -175 -13 -311h-45q-15 1 -45 1q-1 -5 -1 -15t-1 -15l-3 -30h91q-16 -180 -45 -335q134 6 200 6q106 4 158 15q86 17 147 64q45 39 71 103q22 54 32 122q7 57 7 114q0 61 -12 106q-17 56 -50 89q-51 48 -136 65q-45 10 -157 14q-132 2 -198 7zM293 643
q20 -1 60 -1q20 -1 60 -1q73 -2 114 -13q60 -15 96 -52q47 -53 47 -156q0 -77 -15 -138q-21 -82 -70 -129q-41 -38 -105 -53q-42 -11 -115 -13q-41 0 -121 -2q18 146 29 262h77h77l5 58h-154q7 83 15 238z" />
    <glyph glyph-name="Ntilde" unicode="&#xd1;" horiz-adv-x="766" 
d="M306 769q0 2 -15 2q-5 0 -16 -0.5t-18 -0.5l13 31q17 45 43 57q18 8 33 8h8q31 0 88 -34q22 -12 35 -12q7 -7 22 8q11 11 19 27q3 6 3 10v1q8 1 25 1q18 0 28 1q-10 -20 -15 -32q-19 -39 -42 -55q-17 -10 -34 -10q-31 0 -70 21q-5 2 -15 8q-15 12 -28 16q-9 3 -17 3
q-17 0 -31 -17q-10 -12 -16 -33zM521 866h-3q3 2 3 0zM635 62v-28q0 -20 1 -29q-47 5 -134 11q-58 116 -135 295l-64 148q-37 84 -67 148l-8 -2q0 -287 -29 -591q-56 -3 -115 -9q73 341 82 703q19 -3 57 -5q19 -2 57 -4q47 -94 133 -286q108 -240 130 -287q22 315 74 591
q52 4 82 8q-64 -347 -64 -663z" />
    <glyph glyph-name="Ograve" unicode="&#xd2;" horiz-adv-x="780" 
d="M356 920q-52 0 -78 2q28 -31 48 -58q25 -34 47 -58q10 -1 31 -1q5 -1 15.5 -1t15.5 -1q-19 22 -40 58q-33 52 -39 59zM443 723q-71 0 -130 -21q-68 -23 -114 -73q-58 -61 -83 -158q-19 -73 -19 -171q0 -60 11 -108q15 -55 45 -95q35 -47 97 -71q58 -21 123 -21
q72 0 133 20q68 22 116 73q57 66 81 158q22 78 22 171q0 56 -12 107t-44 96q-34 48 -99 73q-57 20 -127 20zM437 654q108 0 160 -76q39 -66 39 -165q0 -61 -11 -106q-20 -68 -64 -95v1q-64 -37 -166 -37q-46 0 -84 7q-44 8 -78 29q-24 15 -38 51q-9 26 -9 66q0 67 17 129
q18 70 59 119q33 40 80 59q42 18 95 18z" />
    <glyph glyph-name="Oacute" unicode="&#xd3;" horiz-adv-x="780" 
d="M393 920q-31 -36 -49 -59q-19 -25 -50 -58q5 1 15.5 1t15.5 1q21 0 31 1q27 26 57 59q27 30 57 57q-26 -2 -77 -2zM443 723q-71 0 -130 -21q-68 -23 -114 -73q-58 -61 -83 -158q-19 -73 -19 -171q0 -60 11 -108q15 -55 45 -95q35 -47 97 -71q58 -21 123 -21q72 0 133 20
q68 22 116 73q57 66 81 158q22 78 22 171q0 56 -12 107t-44 96q-34 48 -99 73q-57 20 -127 20zM437 654q108 0 160 -76q39 -66 39 -165q0 -61 -11 -106q-20 -68 -64 -95v1q-64 -37 -166 -37q-46 0 -84 7q-44 8 -78 29q-24 15 -38 51q-9 26 -9 66q0 67 17 129q18 70 59 119
q33 40 80 59q42 18 95 18z" />
    <glyph glyph-name="Ocircumflex" unicode="&#xd4;" horiz-adv-x="780" 
d="M460 872h-87q-20 -24 -50 -61q-27 -32 -55 -57q9 1 27 1q9 1 28 1q26 22 91 87l36 -45q18 -22 39 -42q19 0 28 -1q19 0 28 -1q-26 24 -46 57zM443 723q-71 0 -130 -21q-68 -23 -114 -73q-58 -61 -83 -158q-19 -73 -19 -171q0 -60 11 -108q15 -55 45 -95q35 -47 97 -71
q58 -21 123 -21q72 0 133 20q68 22 116 73q57 66 81 158q22 78 22 171q0 56 -12 107t-44 96q-34 48 -99 73q-57 20 -127 20zM437 654q108 0 160 -76q39 -66 39 -165q0 -61 -11 -106q-20 -68 -64 -95v1q-64 -37 -166 -37q-46 0 -84 7q-44 8 -78 29q-24 15 -38 51q-9 26 -9 66
q0 67 17 129q18 70 59 119q33 40 80 59q42 18 95 18z" />
    <glyph glyph-name="Otilde" unicode="&#xd5;" horiz-adv-x="780" 
d="M373 769q0 2 -15 2q-5 0 -16 -0.5t-18 -0.5l13 31q17 45 43 57q18 8 33 8h8q7 0 14 -1t14 -3t12 -4t12.5 -6t11.5 -6t12.5 -7t11.5 -7q22 -12 34 -12q8 -7 23 8q11 11 19 27q3 6 3 10v1q8 1 25 1q18 0 28 1l-16 -32q-17 -38 -42 -55q-15 -10 -33 -10q-32 0 -71 21l-14 8
q-15 12 -28 16q-9 3 -17 3q-19 0 -31 -17q-10 -12 -16 -33zM588 866h-3q1 2 3 0zM713 534q12 -51 12 -107q0 -93 -22 -171q-24 -92 -81 -158q-48 -51 -116 -73q-61 -20 -133 -20q-65 0 -123 21q-62 24 -97 71q-30 40 -45 95q-11 48 -11 108q0 98 19 171q25 97 83 158
q46 50 114 73q59 21 130 21q70 0 127 -20q65 -25 99 -73q32 -45 44 -96zM625 307q11 45 11 106q0 99 -39 165q-52 76 -160 76q-53 0 -95 -18q-47 -19 -80 -59q-41 -49 -59 -119q-17 -62 -17 -129q0 -40 9 -66q14 -36 38 -51q34 -21 78 -29q38 -7 84 -7q102 0 166 37v-1
q44 27 64 95z" />
    <glyph glyph-name="Odieresis" unicode="&#xd6;" horiz-adv-x="780" 
d="M313 860q5 -20 5 -35q0 -30 -13 -55q15 1 44 1h45q7 34 7 71v8v8q-30 0 -44 1q-29 0 -44 1zM503 858q-8 -35 -8 -65q0 -14 1 -22h45q29 0 44 -1q-6 16 -6 34q0 31 14 56q-15 -1 -45 -1q-15 -1 -45 -1zM443 723q-71 0 -130 -21q-68 -23 -114 -73q-58 -61 -83 -158
q-19 -73 -19 -171q0 -60 11 -108q15 -55 45 -95q35 -47 97 -71q58 -21 123 -21q72 0 133 20q68 22 116 73q57 66 81 158q22 78 22 171q0 56 -12 107t-44 96q-34 48 -99 73q-57 20 -127 20zM437 654q108 0 160 -76q39 -66 39 -165q0 -61 -11 -106q-20 -68 -64 -95v1
q-64 -37 -166 -37q-46 0 -84 7q-44 8 -78 29q-24 15 -38 51q-9 26 -9 66q0 67 17 129q18 70 59 119q33 40 80 59q42 18 95 18z" />
    <glyph glyph-name="multiply" unicode="&#xd7;" horiz-adv-x="684" 
d="M621 512q-3 4 -9.5 11.5t-11.5 13.5t-9 11l-30 36q-123 -109 -208 -188q-52 58 -79 87l-80 86l-36 -36l-36 -36q42 -50 76 -87q52 -58 77 -88q-17 -15 -49.5 -45.5t-48.5 -45.5q-63 -59 -97 -92q20 -24 29 -36l30 -36q54 47 201 183q112 -124 171 -183q6 6 18 18.5
t18 18.5l36 36q-69 74 -164 183q2 2 101 95q36 33 101 94z" />
    <glyph glyph-name="Oslash" unicode="&#xd8;" horiz-adv-x="781" 
d="M143 111q-5 -6 -14.5 -16t-17.5 -18.5t-15 -15.5l-48 -51q23 -23 35 -34q16 16 46 48q32 34 47 49q75 -68 199 -68q71 0 132 20q70 25 115 73q55 62 81 154q23 80 23 167q0 117 -48 197q32 34 49 51q16 16 48 50q-9 8 -17 17q-14 14 -18 17q-62 -64 -94 -98
q-35 33 -93 54q-48 15 -110 15q-70 0 -130 -20q-69 -24 -114 -73q-57 -61 -82 -156q-20 -76 -20 -169q0 -118 46 -193zM585 589q-90 -95 -177 -189q-174 -186 -178 -190q-57 73 -57 146q0 62 18 125q19 67 58 116q31 37 77 57q42 19 92 19q58 0 104 -20q34 -14 63 -64z
M608 541q2 -1 4 -1h4q24 -58 24 -105q0 -21 -3 -43q-17 -68 -29 -99q-21 -55 -53 -88q-30 -27 -75 -44q-30 -11 -83 -19q-49 0 -74 1q-31 3 -60 25q116 124 173 186q86 96 172 187z" />
    <glyph glyph-name="Ugrave" unicode="&#xd9;" horiz-adv-x="740" 
d="M337 920q-52 0 -78 2q28 -31 48 -58q25 -34 47 -58q10 -1 31 -1q5 -1 15.5 -1t15.5 -1q-15 18 -41 58q-24 40 -38 59zM169 724v-34q0 -196 -22 -416q-3 -32 -3 -63q0 -45 9 -77q11 -41 36 -70q33 -35 88 -48q45 -12 104 -12q62 0 109 13q63 18 100 55q36 39 54 96
q13 45 18 106q19 257 56 450q-15 -1 -45 -5q-5 0 -14 -1t-16.5 -1.5t-14.5 -0.5q-21 -125 -44 -362q-4 -49 -14 -86q-11 -46 -39 -80q-26 -29 -64 -40q-34 -10 -74 -10q-44 0 -73 10q-39 11 -58 40q-27 40 -27 113q0 17 2 53q17 182 21 361q-43 3 -89 9z" />
    <glyph glyph-name="Uacute" unicode="&#xda;" horiz-adv-x="740" 
d="M374 920q-31 -36 -49 -59q-19 -25 -50 -58q5 1 15.5 1t15.5 1q21 0 31 1q27 26 57 59q27 30 57 57q-26 -2 -77 -2zM169 724v-34q0 -196 -22 -416q-3 -32 -3 -63q0 -45 9 -77q11 -41 36 -70q33 -35 88 -48q45 -12 104 -12q62 0 109 13q63 18 100 55q36 39 54 96
q13 45 18 106q19 257 56 450q-15 -1 -45 -5q-5 0 -14 -1t-16.5 -1.5t-14.5 -0.5q-21 -125 -44 -362q-4 -49 -14 -86q-11 -46 -39 -80q-26 -29 -64 -40q-34 -10 -74 -10q-44 0 -73 10q-39 11 -58 40q-27 40 -27 113q0 17 2 53q17 182 21 361q-43 3 -89 9z" />
    <glyph glyph-name="Ucircumflex" unicode="&#xdb;" horiz-adv-x="740" 
d="M441 872h-87q-20 -24 -50 -61q-27 -32 -55 -57q9 1 27 1q9 1 28 1q26 22 91 87l36 -45q18 -22 39 -42q19 0 28 -1q19 0 28 -1q-26 24 -46 57zM169 724v-34q0 -196 -22 -416q-3 -32 -3 -63q0 -45 9 -77q11 -41 36 -70q33 -35 88 -48q45 -12 104 -12q62 0 109 13
q63 18 100 55q36 39 54 96q13 45 18 106q19 257 56 450q-15 -1 -45 -5q-5 0 -14 -1t-16.5 -1.5t-14.5 -0.5q-21 -125 -44 -362q-4 -49 -14 -86q-11 -46 -39 -80q-26 -29 -64 -40q-34 -10 -74 -10q-44 0 -73 10q-39 11 -58 40q-27 40 -27 113q0 17 2 53q17 182 21 361
q-43 3 -89 9z" />
    <glyph glyph-name="Udieresis" unicode="&#xdc;" horiz-adv-x="740" 
d="M293 860q6 -18 6 -35q0 -30 -13 -55q15 1 44 1h45q7 34 7 71v8v8q-30 0 -44 1q-29 0 -45 1zM484 858q-8 -35 -8 -65q0 -14 1 -22h44q30 0 45 -1q-6 16 -6 34q0 31 14 56q-15 -1 -45 -1q-15 -1 -45 -1zM169 724v-34q0 -196 -22 -416q-3 -32 -3 -63q0 -45 9 -77
q11 -41 36 -70q33 -35 88 -48q45 -12 104 -12q62 0 109 13q63 18 100 55q36 39 54 96q13 45 18 106q19 257 56 450q-15 -1 -45 -5q-5 0 -14 -1t-16.5 -1.5t-14.5 -0.5q-21 -125 -44 -362q-4 -49 -14 -86q-11 -46 -39 -80q-26 -29 -64 -40q-34 -10 -74 -10q-44 0 -73 10
q-39 11 -58 40q-27 40 -27 113q0 17 2 53q17 182 21 361q-43 3 -89 9z" />
    <glyph glyph-name="Yacute" unicode="&#xdd;" horiz-adv-x="745" 
d="M477 871q-23 -26 -48 -59q-21 -27 -51 -58q6 0 16 1t16 1q21 0 31 1q19 19 57 59q24 27 57 58q-39 -3 -78 -3zM170 725q68 -144 197 -470q-21 -213 -24 -237q24 0 36 1h36h26q17 0 26 -1q10 153 17 237q119 205 139 238q68 119 146 232q-53 -7 -96 -8q-89 -130 -236 -371
q-112 250 -173 370q-32 2 -47 4q-14 1 -47 5z" />
    <glyph glyph-name="Thorn" unicode="&#xde;" horiz-adv-x="638" 
d="M170 725q-5 -377 -63 -720q30 4 45 5q28 2 44 4q1 6 21 161q21 0 61 2q10 0 31 0.5t31 0.5q53 0 92 10q50 11 88 42q35 31 54 87q14 46 14 98q0 38 -12 72q-14 35 -45 62q-31 21 -73 29q-27 5 -82 7q-62 0 -124 3l3 64l3 63q-37 1 -88 10zM248 519q41 -2 122 -2
q53 0 86 -24q43 -29 43 -92q0 -33 -10 -64q-13 -35 -42 -60q-37 -31 -101 -31q-81 0 -122 -1q1 8 24 274z" />
    <glyph glyph-name="germandbls" unicode="&#xdf;" horiz-adv-x="663" 
d="M137 552q-31 -303 -86 -547q54 7 125 10q23 278 29 533q14 79 49 115q36 33 101 33q56 0 86 -17q20 -15 38 -50q12 -25 22 -59q-5 -1 -16.5 -3.5t-18.5 -3.5q-24 -6 -35 -10q-38 -15 -61 -39q-37 -44 -37 -112q0 -32 15 -61q4 -9 33 -53q21 -14 35 -26q32 -22 47 -38
q22 -27 22 -56q0 -37 -39 -51q-29 -12 -71 -12q-64 0 -136 25l-6 -52q-4 -36 -5 -54q64 -17 126 -20q40 0 70 5q41 7 74 24q36 20 51 60q14 35 14 77q0 30 -9 53q-18 41 -59 74q-49 37 -63 47q-15 10 -25 20q-27 25 -27 55q0 55 56 88q45 27 102 31q2 12 2 35q0 73 -38 121
q-49 46 -138 46q-50 0 -86 -9q-48 -10 -80 -37q-29 -22 -46 -65q-13 -37 -15 -77z" />
    <glyph glyph-name="agrave" unicode="&#xe0;" horiz-adv-x="698" 
d="M298 749l-28 43q-58 0 -85 3q24 -41 42 -84q16 -38 38 -86h16q51 0 104 -3q-24 31 -31 41q-31 45 -56 86zM501 312q3 25 3 53q0 85 -41 132q-26 26 -72 38q-35 9 -85 9q-83 0 -181 -30q0 -5 -0.5 -15t-0.5 -15q0 -20 -1 -30q74 35 169 35q32 -2 58 -10q28 -9 54 -30
q28 -27 28 -75q0 -8 -2 -22l-1 -14q-20 -1 -61 -1h-61q-91 0 -154 -31q-46 -22 -71 -76q-21 -45 -21 -100q0 -59 30 -90q39 -39 115 -39q65 0 114 22q58 25 91 75q0 -8 -0.5 -22t-0.5 -21t-0.5 -22t-1.5 -22q75 -6 79 -6v22v22q0 125 14 263zM376 284l-1 -25q-2 -9 -4 -29
q-1 -10 -5 -30q-9 -33 -29 -53q-17 -12 -50 -20q-18 -3 -54 -3q-39 0 -71 7q-16 4 -26 20q-9 15 -9 33q5 53 41 77q20 10 31 12q29 8 65 10q22 0 32 1h80z" />
    <glyph glyph-name="aacute" unicode="&#xe1;" horiz-adv-x="617" 
d="M407 841q-44 -50 -80 -96q-45 -56 -81 -94l70 3q39 36 93 96q60 64 93 95q-15 -1 -95 -4zM501 312q3 25 3 53q0 85 -41 132q-26 26 -72 38q-35 9 -85 9q-83 0 -181 -30q0 -5 -0.5 -15t-0.5 -15q0 -20 -1 -30q74 35 169 35q32 -2 58 -10q28 -9 54 -30q28 -27 28 -75
q0 -8 -2 -22l-1 -14q-20 -1 -61 -1h-61q-91 0 -154 -31q-46 -22 -71 -76q-21 -45 -21 -100q0 -59 30 -90q39 -39 115 -39q65 0 114 22q58 25 91 75q0 -8 -0.5 -22t-0.5 -21t-0.5 -22t-1.5 -22q75 -6 79 -6v22v22q0 125 14 263zM376 284l-1 -25q-2 -9 -4 -29q-1 -10 -5 -30
q-9 -33 -29 -53q-17 -12 -50 -20q-18 -3 -54 -3q-39 0 -71 7q-16 4 -26 20q-9 15 -9 33q5 53 41 77q20 10 31 12q29 8 65 10q22 0 32 1h80z" />
    <glyph glyph-name="acircumflex" unicode="&#xe2;" horiz-adv-x="658" 
d="M344 792h-68q-5 -8 -15.5 -22t-15.5 -22q-10 -15 -30 -43q-37 -53 -67 -84q5 1 14 1t14 1q19 0 29 1q36 38 52 58l49 61q20 -33 38 -61q16 -27 42 -58q9 -1 29 -1q4 -1 13.5 -1t14.5 -1q-20 26 -28 41q-26 39 -48 86q-5 8 -12.5 23.5t-10.5 20.5zM501 312q3 25 3 53
q0 85 -41 132q-26 26 -72 38q-35 9 -85 9q-83 0 -181 -30q0 -5 -0.5 -15t-0.5 -15q0 -20 -1 -30q74 35 169 35q32 -2 58 -10q28 -9 54 -30q28 -27 28 -75q0 -8 -2 -22l-1 -14q-20 -1 -61 -1h-61q-91 0 -154 -31q-46 -22 -71 -76q-21 -45 -21 -100q0 -59 30 -90
q39 -39 115 -39q65 0 114 22q58 25 91 75q0 -8 -0.5 -22t-0.5 -21t-0.5 -22t-1.5 -22q75 -6 79 -6v22v22q0 125 14 263zM376 284l-1 -25q-2 -9 -4 -29q-1 -10 -5 -30q-9 -33 -29 -53q-17 -12 -50 -20q-18 -3 -54 -3q-39 0 -71 7q-16 4 -26 20q-9 15 -9 33q5 53 41 77
q20 10 31 12q29 8 65 10q22 0 32 1h80z" />
    <glyph glyph-name="atilde" unicode="&#xe3;" horiz-adv-x="617" 
d="M306 759l24 -26q25 -28 66 -28q24 0 37 12q25 21 42 71q10 25 19 43q-18 -1 -52 -1q-6 -14 -8 -22q-3 -9 -9 -23q-12 -26 -36 -29q-16 1 -32 19l-24 26q-30 28 -67 28q-17 0 -36 -11q-22 -15 -44 -74q-5 -17 -16 -41q8 1 25 1t26 1q1 1 8 21q1 6 9 24q12 25 34 28
q16 -1 34 -19zM501 312q3 25 3 53q0 85 -41 132q-26 26 -72 38q-35 9 -85 9q-83 0 -181 -30q0 -5 -0.5 -15t-0.5 -15q0 -20 -1 -30q74 35 169 35q32 -2 58 -10q28 -9 54 -30q28 -27 28 -75q0 -8 -2 -22l-1 -14q-20 -1 -61 -1h-61q-91 0 -154 -31q-46 -22 -71 -76
q-21 -45 -21 -100q0 -59 30 -90q39 -39 115 -39q65 0 114 22q58 25 91 75q0 -8 -0.5 -22t-0.5 -21t-0.5 -22t-1.5 -22q75 -6 79 -6v22v22q0 125 14 263zM376 284l-1 -25q-2 -9 -4 -29q-1 -10 -5 -30q-9 -33 -29 -53q-17 -12 -50 -20q-18 -3 -54 -3q-39 0 -71 7q-16 4 -26 20
q-9 15 -9 33q5 53 41 77q20 10 31 12q29 8 65 10q22 0 32 1h80z" />
    <glyph glyph-name="adieresis" unicode="&#xe4;" horiz-adv-x="617" 
d="M159 657q6 -18 6 -37q0 -32 -15 -60q8 0 24.5 0.5t24.5 1.5h49q7 35 7 74v10v9q-32 0 -47 1q-33 0 -49 1zM364 655q-9 -36 -9 -71v-11q0 -2 0.5 -6t0.5 -5q8 0 24 -0.5t24 -0.5q32 0 48 -1q-6 16 -6 37q0 31 15 60q-16 -1 -48 -1q-8 0 -24.5 -0.5t-24.5 -0.5zM501 312
q3 25 3 53q0 85 -41 132q-26 26 -72 38q-35 9 -85 9q-83 0 -181 -30q0 -5 -0.5 -15t-0.5 -15q0 -20 -1 -30q74 35 169 35q32 -2 58 -10q28 -9 54 -30q28 -27 28 -75q0 -8 -2 -22l-1 -14q-20 -1 -61 -1h-61q-91 0 -154 -31q-46 -22 -71 -76q-21 -45 -21 -100q0 -59 30 -90
q39 -39 115 -39q65 0 114 22q58 25 91 75q0 -8 -0.5 -22t-0.5 -21t-0.5 -22t-1.5 -22q75 -6 79 -6v22v22q0 125 14 263zM376 284l-1 -25q-2 -9 -4 -29q-1 -10 -5 -30q-9 -33 -29 -53q-17 -12 -50 -20q-18 -3 -54 -3q-39 0 -71 7q-16 4 -26 20q-9 15 -9 33q5 53 41 77
q20 10 31 12q29 8 65 10q22 0 32 1h80z" />
    <glyph glyph-name="aring" unicode="&#xe5;" horiz-adv-x="644" 
d="M417 745q0 2 0.5 7t0.5 8q0 47 -31 78q-32 30 -78 30q-60 0 -99 -41q-36 -41 -36 -98q0 -49 31 -80q29 -29 78 -29q55 0 92 35q37 34 42 90zM370 744q-3 -31 -26 -54q-22 -22 -55 -22q-30 0 -48 18q-19 19 -19 48q0 36 23 61q22 24 58 24q30 -1 49 -19t19 -48v-4
q-1 -1 -1 -4zM501 312q3 25 3 53q0 85 -41 132q-26 26 -72 38q-35 9 -85 9q-83 0 -181 -30q0 -5 -0.5 -15t-0.5 -15q0 -20 -1 -30q74 35 169 35q32 -2 58 -10q28 -9 54 -30q28 -27 28 -75q0 -8 -2 -22l-1 -14q-20 -1 -61 -1h-61q-91 0 -154 -31q-46 -22 -71 -76
q-21 -45 -21 -100q0 -59 30 -90q39 -39 115 -39q65 0 114 22q58 25 91 75q0 -8 -0.5 -22t-0.5 -21t-0.5 -22t-1.5 -22q75 -6 79 -6v22v22q0 125 14 263zM376 284l-1 -25q-2 -9 -4 -29q-1 -10 -5 -30q-9 -33 -29 -53q-17 -12 -50 -20q-18 -3 -54 -3q-39 0 -71 7q-16 4 -26 20
q-9 15 -9 33q5 53 41 77q20 10 31 12q29 8 65 10q22 0 32 1h80z" />
    <glyph glyph-name="ae" unicode="&#xe6;" horiz-adv-x="987" 
d="M499 459h-2q-1 -1 -3 -1q-1 0 -1 1h-2q-26 47 -85 69q-50 18 -114 18q-80 0 -167 -30q1 -4 1.5 -13t0.5 -13q0 -17 1 -26q68 36 159 36q79 0 119 -45q16 -20 25 -35q11 -19 11 -41q0 -4 -1 -7v-7h-62h-62q-55 0 -89 -7q-49 -10 -84 -35q-31 -25 -51 -75q-12 -32 -22 -89
q-3 -19 -3 -40q0 -53 26 -82q21 -24 56 -32q31 -7 67 -7q68 0 128 31q63 31 101 89q31 -61 100 -92q60 -27 139 -27q26 0 46 4q37 7 91 27q4 1 19.5 7t24.5 9q-4 39 -4 87q0 10 1 15v16q-83 -45 -174 -45q-44 0 -77 11q-40 13 -65 39q-44 47 -44 116q65 0 194 0.5t194 0.5
q2 26 4 37q2 24 2 37q0 73 -35 122q-21 32 -61 50q-35 14 -81 14q-66 0 -118 -19q-61 -22 -103 -68zM822 345q-182 -2 -269 -2h-42q12 61 62 111q52 53 136 53q51 0 85 -44q29 -38 29 -96q0 -14 -1 -22zM437 307l-2 -20q-6 -46 -16 -72q-13 -37 -42 -62q-26 -24 -64 -35
q-30 -9 -71 -9q-36 0 -63 18q-30 20 -30 53q0 14 3 29q6 33 26 59q17 22 60 31q30 6 73 8h37h89z" />
    <glyph glyph-name="ccedilla" unicode="&#xe7;" horiz-adv-x="588" 
d="M375 545q67 0 131 -23q0 -5 -2 -16t-3 -17l-6 -35q-61 31 -133 31q-42 0 -78 -13q-42 -17 -66 -45q-26 -30 -41 -73q-12 -40 -15 -82q0 -31 7 -55q10 -30 30 -44q38 -26 121 -32l74 -2h6q34 0 64 15q-2 -27 -2 -79q0 -33 1 -51q-66 -24 -142 -24h-6q12 -27 12 -51
q0 -21 -9 -40q-11 -23 -28 -31q-30 -14 -82 -14q-35 0 -72 8q1 4 2.5 12.5t2.5 12.5l3 27q22 -11 59 -11h6q2 -1 6 -1q24 0 40 14q18 15 18 37q0 18 -9 40q-34 6 -52 11q-58 17 -90 57q-46 55 -46 157q0 71 16 128q21 74 66 118q42 39 103 57q47 14 114 14zM507 525l2 -4
l-3 1q0 2 1 3z" />
    <glyph glyph-name="egrave" unicode="&#xe8;" horiz-adv-x="636" 
d="M292 625h-15q-22 48 -38 86t-43 84q28 -3 85 -3q11 -15 29 -43q25 -41 56 -86q20 -28 31 -41q-52 3 -105 3zM535 427q7 -28 7 -75v-12v-10q0 -10 -1 -15q0 -4 -2 -14q-162 -2 -243 -2q-46 0 -69 1h-71q0 -6 -0.5 -18.5t-0.5 -19.5q0 -38 7 -60q11 -32 32 -48
q33 -19 73 -27q35 -7 77 -7q57 0 86 3q45 3 81 21v-28v-28v-27q0 -19 1 -28q-93 -32 -196 -32q-64 5 -105 18q-57 17 -88 53q-26 29 -39 73q-10 39 -10 84q0 63 19 126q22 74 63 117q37 38 90 55q42 15 102 17q57 -4 83 -12q45 -13 71 -39q22 -24 33 -66zM224 365h54
q136 0 205 2q-3 59 -40 99q-39 41 -98 41q-79 0 -124 -44q-48 -40 -51 -97q18 -1 54 -1z" />
    <glyph glyph-name="eacute" unicode="&#xe9;" horiz-adv-x="636" 
d="M388 700q-69 -74 -93 -96l-71 -3q35 36 82 94q36 46 80 96q79 3 94 4q-32 -31 -92 -95zM535 427q7 -28 7 -75v-12v-10q0 -10 -1 -15q0 -4 -2 -14q-162 -2 -243 -2q-46 0 -69 1h-71q0 -6 -0.5 -18.5t-0.5 -19.5q0 -38 7 -60q11 -32 32 -48q33 -19 73 -27q35 -7 77 -7
q57 0 86 3q45 3 81 21v-28v-28v-27q0 -19 1 -28q-93 -32 -196 -32q-64 5 -105 18q-57 17 -88 53q-26 29 -39 73q-10 39 -10 84q0 63 19 126q22 74 63 117q37 38 90 55q42 15 102 17q57 -4 83 -12q45 -13 71 -39q22 -24 33 -66zM224 365h54q136 0 205 2q-3 59 -40 99
q-39 41 -98 41q-79 0 -124 -44q-48 -40 -51 -97q18 -1 54 -1z" />
    <glyph glyph-name="ecircumflex" unicode="&#xea;" horiz-adv-x="636" 
d="M207 575q-5 0 -14 -0.5t-14 -0.5t-14.5 -0.5t-14.5 -0.5q35 36 67 83q6 8 16.5 23t14.5 21q28 39 31 43h67q13 -24 23 -44q26 -51 48 -86q8 -14 28 -40q-5 0 -14 0.5t-14 0.5t-15 0.5t-14 0.5q-25 32 -42 59l-38 60q-8 -10 -24.5 -30t-24.5 -30q-28 -35 -52 -59zM535 427
q7 -28 7 -75v-12v-10q0 -10 -1 -15q0 -4 -2 -14q-162 -2 -243 -2q-46 0 -69 1h-71q0 -6 -0.5 -18.5t-0.5 -19.5q0 -38 7 -60q11 -32 32 -48q33 -19 73 -27q35 -7 77 -7q57 0 86 3q45 3 81 21v-28v-28v-27q0 -19 1 -28q-93 -32 -196 -32q-64 5 -105 18q-57 17 -88 53
q-26 29 -39 73q-10 39 -10 84q0 63 19 126q22 74 63 117q37 38 90 55q42 15 102 17q57 -4 83 -12q45 -13 71 -39q22 -24 33 -66zM224 365h54q136 0 205 2q-3 59 -40 99q-39 41 -98 41q-79 0 -124 -44q-48 -40 -51 -97q18 -1 54 -1z" />
    <glyph glyph-name="edieresis" unicode="&#xeb;" horiz-adv-x="636" 
d="M244 617q-8 0 -24 -0.5t-25 -0.5q14 27 14 59q0 23 -5 37q8 0 24 -0.5t24 -0.5q32 0 48 -1v-9v-10q0 -40 -8 -73q-16 -1 -48 -1zM449 617q-32 0 -48 1q-1 3 -1 11v11q0 36 9 70q16 1 49 1q8 0 24 0.5t24 0.5q-15 -28 -15 -60q0 -20 6 -36q-8 0 -24 0.5t-24 0.5zM535 427
q7 -28 7 -75v-12v-10q0 -10 -1 -15q0 -4 -2 -14q-162 -2 -243 -2q-46 0 -69 1h-71q0 -6 -0.5 -18.5t-0.5 -19.5q0 -38 7 -60q11 -32 32 -48q33 -19 73 -27q35 -7 77 -7q57 0 86 3q45 3 81 21v-28v-28v-27q0 -19 1 -28q-93 -32 -196 -32q-64 5 -105 18q-57 17 -88 53
q-26 29 -39 73q-10 39 -10 84q0 63 19 126q22 74 63 117q37 38 90 55q42 15 102 17q57 -4 83 -12q45 -13 71 -39q22 -24 33 -66zM224 365h54q136 0 205 2q-3 59 -40 99q-39 41 -98 41q-79 0 -124 -44q-48 -40 -51 -97q18 -1 54 -1z" />
    <glyph glyph-name="igrave" unicode="&#xec;" horiz-adv-x="553" 
d="M298 749l-28 43q-58 0 -85 3q24 -41 42 -84q16 -38 38 -86h16q51 0 104 -3q-24 31 -31 41q-31 45 -56 86zM390 542q-17 -249 -47 -537q19 10 42 10q22 0 38 -10q17 249 47 537q-20 -11 -42 -11q-21 0 -38 11z" />
    <glyph glyph-name="iacute" unicode="&#xed;" horiz-adv-x="484" 
d="M354 791q-44 -50 -80 -96q-47 -58 -82 -94l71 3q39 36 93 96q60 64 93 95q-15 -1 -95 -4zM224 542q-19 -261 -48 -537q19 10 42 10q22 0 38 -10q19 260 48 537q-20 -11 -42 -11q-21 0 -38 11z" />
    <glyph glyph-name="icircumflex" unicode="&#xee;" horiz-adv-x="513" 
d="M344 792h-68q-5 -8 -15.5 -22t-15.5 -22q-10 -15 -30 -43q-37 -53 -67 -84q5 1 14 1t14 1q19 0 29 1q36 38 52 58l49 61q20 -33 38 -61q16 -27 42 -58q9 -1 29 -1q4 -1 13.5 -1t14.5 -1q-20 26 -28 41q-26 39 -48 86q-5 8 -12.5 23.5t-10.5 20.5zM351 542
q-19 -261 -48 -537q19 10 42 10q22 0 38 -10q19 261 48 537q-22 -11 -42 -11q-21 0 -38 11z" />
    <glyph glyph-name="idieresis" unicode="&#xef;" horiz-adv-x="460" 
d="M174 747q6 -18 6 -38q0 -29 -14 -59q8 0 24 0.5t24 0.5q33 0 49 1q8 40 8 74v9q0 6 -1 10q-32 0 -47 1q-33 0 -49 1zM379 745q-9 -43 -9 -71v-11q0 -2 0.5 -6t0.5 -5q16 -1 48 -1q9 0 24.5 -0.5t23.5 -0.5q-6 16 -6 37q0 31 15 60q-16 -1 -48 -1q-8 0 -24 -0.5t-25 -0.5z
M274 542q-17 -249 -47 -537q19 10 42 10q22 0 38 -10q17 249 47 537q-20 -11 -41 -11q-20 0 -39 11z" />
    <glyph glyph-name="eth" unicode="&#xf0;" horiz-adv-x="616" 
d="M455 547q-3 4 -16 20.5t-21 25.5q-8 10 -35 46q93 31 149 55l-3 18q-2 6 -4 18q-61 -24 -166 -60q-10 14 -28 36q-8 9 -29 34q-64 2 -97 4q31 -39 79 -98q-29 -7 -68 -20q-28 -8 -70 -19l6 -20q1 -8 5 -19q12 3 151 45q36 -44 38 -47q18 -23 38 -47q-11 1 -32 2.5
t-31 2.5q-50 0 -91 -17q-44 -17 -77 -53q-41 -44 -63 -113q-18 -58 -18 -125q0 -93 43 -145q28 -33 76 -50q42 -16 93 -16q50 0 95 16q46 15 84 50q40 45 60 110q16 52 16 120q0 139 -84 246zM420 448l3 -1q35 -51 35 -141q0 -58 -9 -95l-33 -45q-39 -46 -122 -46
q-35 0 -65 12q-32 14 -49 40q-21 31 -28 54q-8 24 12 96q15 52 46 89q48 52 124 52q44 0 86 -15z" />
    <glyph glyph-name="ntilde" unicode="&#xf1;" horiz-adv-x="681" 
d="M306 759l24 -26q25 -28 66 -28q24 0 37 12q25 21 42 71q10 25 19 43q-18 -1 -52 -1q-6 -14 -8 -22q-3 -9 -9 -23q-12 -26 -36 -29q-16 1 -32 19l-24 26q-30 28 -67 28q-17 0 -36 -11q-22 -15 -44 -74q-5 -17 -16 -41q8 1 25 1t26 1q1 1 8 21q1 6 9 24q12 25 34 28
q16 -1 34 -19zM551 330q1 12 1 36q0 69 -22 117q-16 32 -52 48q-31 14 -73 14q-95 0 -196 -74q0 23 1 34q0 23 1 35q-51 2 -79 6q-5 -285 -63 -541q41 4 115 8q16 157 20 300q7 80 47 125q27 27 62 36q33 9 68 9q25 0 46 -9q25 -11 35 -33q12 -28 12 -66q0 -15 -2 -45
q-28 -188 -38 -317q76 -4 117 -8q-6 74 -6 148q0 89 6 177z" />
    <glyph glyph-name="ograve" unicode="&#xf2;" 
d="M301 797l-28 43q-58 0 -85 3q24 -41 42 -84q16 -38 38 -86h16q52 0 104 -3q-24 31 -31 41q-31 45 -56 86zM334 544q-55 0 -97 -15q-49 -16 -85 -53q-42 -48 -61 -124q-14 -59 -14 -132q0 -97 40 -151q25 -37 73 -53q40 -15 94 -15t98 15q52 14 84 54q43 48 62 125
q14 53 14 132q0 95 -40 149q-28 37 -74 53q-41 15 -94 15zM329 489q76 0 108 -54q26 -47 26 -114q0 -45 -7 -79q-12 -53 -46 -76q-44 -25 -112 -25q-69 0 -109 25q-19 13 -25 37q-6 22 -6 47q0 49 10 95q13 53 42 90q44 54 119 54z" />
    <glyph glyph-name="oacute" unicode="&#xf3;" 
d="M428 841q-44 -50 -80 -96q-45 -56 -81 -94l70 3q39 36 93 96q60 64 93 95q-15 -1 -95 -4zM334 544q-55 0 -97 -15q-49 -16 -85 -53q-42 -48 -61 -124q-14 -59 -14 -132q0 -97 40 -151q25 -37 73 -53q40 -15 94 -15t98 15q52 14 84 54q43 48 62 125q14 53 14 132
q0 95 -40 149q-28 37 -74 53q-41 15 -94 15zM329 489q76 0 108 -54q26 -47 26 -114q0 -45 -7 -79q-12 -53 -46 -76q-44 -25 -112 -25q-69 0 -109 25q-19 13 -25 37q-6 22 -6 47q0 49 10 95q13 53 42 90q44 54 119 54z" />
    <glyph glyph-name="ocircumflex" unicode="&#xf4;" 
d="M376 725h-68q-5 -7 -15.5 -22t-15.5 -22q-10 -15 -30 -43q-37 -53 -67 -84q5 0 14 1t14 1q19 0 29 1q36 38 52 58l49 61q20 -33 38 -61q16 -27 42 -58q9 -1 29 -1q4 0 14 -1t14 -1q-20 26 -28 41q-26 39 -48 86q-5 8 -12.5 23.5t-10.5 20.5zM334 544q-55 0 -97 -15
q-49 -16 -85 -53q-42 -48 -61 -124q-14 -59 -14 -132q0 -97 40 -151q25 -37 73 -53q40 -15 94 -15t98 15q52 14 84 54q43 48 62 125q14 53 14 132q0 95 -40 149q-28 37 -74 53q-41 15 -94 15zM329 489q76 0 108 -54q26 -47 26 -114q0 -45 -7 -79q-12 -53 -46 -76
q-44 -25 -112 -25q-69 0 -109 25q-19 13 -25 37q-6 22 -6 47q0 49 10 95q13 53 42 90q44 54 119 54z" />
    <glyph glyph-name="otilde" unicode="&#xf5;" 
d="M327 759l24 -26q25 -28 66 -28q23 0 37 12q25 21 42 71q10 25 19 43q-18 -1 -52 -1q-6 -14 -8 -22q-3 -9 -9 -23q-12 -26 -36 -29q-16 1 -32 19l-24 26q-30 28 -67 28q-17 0 -36 -11q-22 -15 -44 -74q-5 -17 -16 -41q8 1 25 1t26 1q0 1 8 21q1 6 9 24q12 25 34 28
q16 -1 34 -19zM334 544q-55 0 -97 -15q-49 -16 -85 -53q-42 -48 -61 -124q-14 -59 -14 -132q0 -97 40 -151q25 -37 73 -53q40 -15 94 -15t98 15q52 14 84 54q43 48 62 125q14 53 14 132q0 95 -40 149q-28 37 -74 53q-41 15 -94 15zM329 489q76 0 108 -54q26 -47 26 -114
q0 -45 -7 -79q-12 -53 -46 -76q-44 -25 -112 -25q-69 0 -109 25q-19 13 -25 37q-6 22 -6 47q0 49 10 95q13 53 42 90q44 54 119 54z" />
    <glyph glyph-name="odieresis" unicode="&#xf6;" 
d="M180 657q6 -18 6 -37q0 -32 -15 -60q8 0 24.5 0.5t24.5 1.5h49q7 35 7 74v10v9q-32 0 -47 1q-33 0 -49 1zM385 655q-9 -36 -9 -71v-11q0 -2 0.5 -6t0.5 -5q8 0 24 -0.5t24 -0.5q32 0 48 -1q-6 16 -6 37q0 31 15 60q-16 -1 -48 -1q-8 0 -24.5 -0.5t-24.5 -0.5zM334 544
q-55 0 -97 -15q-49 -16 -85 -53q-42 -48 -61 -124q-14 -59 -14 -132q0 -97 40 -151q25 -37 73 -53q40 -15 94 -15t98 15q52 14 84 54q43 48 62 125q14 53 14 132q0 95 -40 149q-28 37 -74 53q-41 15 -94 15zM329 489q76 0 108 -54q26 -47 26 -114q0 -45 -7 -79
q-12 -53 -46 -76q-44 -25 -112 -25q-69 0 -109 25q-19 13 -25 37q-6 22 -6 47q0 49 10 95q13 53 42 90q44 54 119 54z" />
    <glyph glyph-name="divide" unicode="&#xf7;" horiz-adv-x="760" 
d="M342 563q0 -3 -3.5 -53.5t-5.5 -76.5h33h31h33h32q1 11 3.5 33t3.5 33q6 40 8 64h-39h-39h-28h-29zM90 350q-1 -23 -8 -98q117 2 348 2q169 0 253 -1q2 27 8 97q-216 -2 -321 -2q-186 0 -280 2zM311 168q-2 -10 -4.5 -32t-3.5 -32q-1 -11 -3.5 -32.5t-3.5 -32.5
q26 0 39 1h40h28q19 0 28 -1q2 43 8 129q-22 0 -32 1h-32h-32q-11 -1 -32 -1z" />
    <glyph glyph-name="oslash" unicode="&#xf8;" horiz-adv-x="617" 
d="M109 84l-42 -45q-21 -24 -43 -46q9 -6 17 -14l16 -15q28 30 41 43l40 42q53 -48 148 -48q51 0 96 16q51 16 83 53q42 46 62 122q15 60 15 130q0 82 -31 140l41 46q6 7 13 14.5t15.5 16.5t13.5 14l-33 29q-6 -7 -12.5 -14t-15 -15.5t-12.5 -13.5l-40 -42q-54 46 -145 46
q-53 0 -98 -14q-49 -15 -85 -53q-42 -46 -61 -121q-15 -55 -15 -129q0 -87 32 -142zM426 438q-66 -72 -129 -144q-125 -140 -130 -145q-11 32 -11 81q0 58 11 100q11 53 41 93q22 28 53 42q27 14 63 14q67 0 102 -41zM447 390l5 -1q10 -33 10 -70q0 -51 -10 -101
q-13 -58 -45 -97q-41 -56 -113 -56q-67 0 -103 42q43 47 127 141q45 51 126 142h3z" />
    <glyph glyph-name="ugrave" unicode="&#xf9;" horiz-adv-x="655" 
d="M268 743q-70 2 -85 4q18 -31 43 -84q24 -58 38 -86h15q53 0 105 -3q-11 13 -31 41q-28 38 -56 86q-9 14 -29 42zM116 216q-3 -26 -3 -51q0 -56 20 -103q17 -32 54 -48q32 -14 75 -14h13q50 0 102 30q48 29 78 76q-6 -49 -9 -95q28 -1 79 -5q2 272 59 536q-32 -3 -96 -7
q-21 -121 -32 -222q-12 -79 -54 -125t-119 -46q-56 0 -82 45q-17 34 -17 92v9v8q10 128 11 240q-15 3 -32 3l-32 3v-21v-22q0 -141 -15 -283z" />
    <glyph glyph-name="uacute" unicode="&#xfa;" horiz-adv-x="655" 
d="M414 791q-54 -62 -81 -96q-42 -53 -81 -94l71 3q31 30 93 96q60 64 92 95q-15 -1 -94 -4zM116 216q-3 -26 -3 -51q0 -56 20 -103q17 -32 54 -48q32 -14 75 -14h13q50 0 102 30q48 29 78 76q-6 -49 -9 -95q28 -1 79 -5q2 272 59 536q-32 -3 -96 -7q-21 -121 -32 -222
q-12 -79 -54 -125t-119 -46q-56 0 -82 45q-17 34 -17 92v9v8q10 128 11 240q-15 3 -32 3l-32 3v-21v-22q0 -141 -15 -283z" />
    <glyph glyph-name="ucircumflex" unicode="&#xfb;" horiz-adv-x="666" 
d="M344 792h-68q-5 -8 -15.5 -22t-15.5 -22q-10 -15 -30 -43q-37 -53 -67 -84q5 1 14 1t14 1q19 0 29 1q36 38 52 58l49 61q20 -33 38 -61q16 -27 42 -58q9 -1 29 -1q4 -1 13.5 -1t14.5 -1q-20 26 -28 41q-26 39 -48 86q-5 8 -12.5 23.5t-10.5 20.5zM126 216q-2 -34 -2 -51
q0 -59 20 -103q15 -31 54 -48q32 -14 74 -14h14q49 0 102 30q49 30 77 76q-6 -66 -8 -95q24 -1 79 -5q2 272 59 536q-32 -3 -96 -7q-21 -121 -32 -222q-14 -80 -54 -125q-42 -46 -119 -46q-57 0 -83 45q-17 37 -17 92q0 6 1 9v8q10 128 11 240q-16 3 -32 3l-32 3v-21v-22
q0 -145 -16 -283z" />
    <glyph glyph-name="udieresis" unicode="&#xfc;" horiz-adv-x="655" 
d="M240 712q6 -16 6 -37q0 -31 -15 -59q9 0 25 0.5t24 0.5q33 0 49 1q7 35 7 73v10v9q-16 1 -47 1q-9 0 -25 0.5t-24 0.5zM445 710q-9 -34 -9 -70v-11q0 -2 0.5 -6t0.5 -5q16 -1 48 -1q8 0 24 -0.5t24 -0.5q-6 16 -6 36q0 32 15 60q-8 0 -24 -0.5t-24 -0.5q-33 0 -49 -1z
M116 216q-3 -26 -3 -51q0 -56 20 -103q17 -32 54 -48q32 -14 75 -14h13q50 0 102 30q48 29 78 76q-6 -49 -9 -95q28 -1 79 -5q2 272 59 536q-32 -3 -96 -7q-21 -121 -32 -222q-12 -79 -54 -125t-119 -46q-56 0 -82 45q-17 34 -17 92v9v8q10 128 11 240q-15 3 -32 3l-32 3
v-21v-22q0 -141 -15 -283z" />
    <glyph glyph-name="yacute" unicode="&#xfd;" horiz-adv-x="665" 
d="M348 791q-44 -50 -80 -96q-45 -56 -81 -94l70 3q39 36 93 96q60 64 93 95q-15 -1 -95 -4zM368 -41q46 98 68 147t68 147q86 180 145 289l-86 -9q-65 -107 -181 -317q-65 128 -168 317q-43 3 -83 9q67 -158 190 -493q-2 -4 -10 -17.5t-13 -20.5l-22 -39q-4 -4 -12 -12.5
t-12 -12.5q-31 -31 -53 -38q-25 -8 -59 -8q-5 0 -15.5 -0.5t-15.5 -1.5q-6 -36 -8 -54l-9 -55q14 2 46 4q51 2 91 14q42 13 73 49q22 25 47 67q1 2 19 35z" />
    <glyph glyph-name="thorn" unicode="&#xfe;" horiz-adv-x="675" 
d="M207 86l8 3q17 -41 59 -65q40 -23 88 -23h13q41 0 82 19q42 20 67 52q42 49 60 119q16 57 16 128q0 92 -40 154q-46 69 -137 69h-13q-53 0 -98 -28q-48 -29 -75 -75q8 105 18 304q-39 4 -79 12q-12 -491 -84 -958l41 6q12 2 40 4q5 31 34 279zM520 272q-5 -50 -21 -95
q-19 -49 -53 -79q-39 -34 -90 -34q-35 0 -62 13q-31 15 -45 42q-27 42 -27 113q0 52 11 99q14 57 42 93q42 55 110 55q69 0 105 -49q31 -44 31 -118q0 -26 -1 -40z" />
    <glyph glyph-name="ydieresis" unicode="&#xff;" horiz-adv-x="665" 
d="M265 712q5 -14 5 -37q0 -32 -14 -59q8 0 24.5 0.5t24.5 0.5q32 0 48 1q8 40 8 73v10q0 6 -1 9q-16 1 -47 1q-8 0 -24 0.5t-24 0.5zM469 710q-9 -41 -9 -70v-11q0 -2 0.5 -6t0.5 -5q17 -1 49 -1q8 0 24 -0.5t24 -0.5q-7 15 -7 36q0 32 15 60q-8 0 -24 -0.5t-24 -0.5
q-32 0 -49 -1zM368 -41q46 98 68 147t68 147q86 180 145 289l-86 -9q-65 -107 -181 -317q-65 128 -168 317q-43 3 -83 9q67 -158 190 -493q-2 -4 -10 -17.5t-13 -20.5l-22 -39q-4 -4 -12 -12.5t-12 -12.5q-31 -31 -53 -38q-25 -8 -59 -8q-5 0 -15.5 -0.5t-15.5 -1.5
q-6 -36 -8 -54l-9 -55q14 2 46 4q51 2 91 14q42 13 73 49q22 25 47 67q1 2 19 35z" />
    <glyph glyph-name="Amacron" unicode="&#x100;" horiz-adv-x="801" 
d="M281 909q6 -10 6 -26q0 -19 -12 -36q23 0 71 0.5t71 0.5t70 -0.5t71 -0.5q-7 8 -7 25q0 20 12 37q-47 -1 -141 -1t-141 1zM449 710h-86q-29 -59 -83 -177l-83 -179q-100 -211 -180 -349l122 9q35 71 53 117q110 2 162 2q53 0 163 -2q11 -66 25 -117q64 -3 129 -9
q-39 94 -65 173q-45 133 -106 354zM399 642q25 -102 48 -204q37 -156 49 -203h-66h-67q-88 0 -133 -1q58 136 85 204q41 102 84 204z" />
    <glyph glyph-name="amacron" unicode="&#x101;" horiz-adv-x="617" 
d="M181 740q6 -10 6 -26q0 -20 -12 -36q23 0 71 0.5t71 0.5t70 -0.5t71 -0.5q-7 8 -7 25q0 21 12 37q-47 -1 -141 -1t-141 1zM501 312q3 25 3 53q0 85 -41 132q-26 26 -72 38q-35 9 -85 9q-83 0 -181 -30q0 -5 -0.5 -15t-0.5 -15q0 -20 -1 -30q74 35 169 35q32 -2 58 -10
q28 -9 54 -30q28 -27 28 -75q0 -8 -2 -22l-1 -14q-20 -1 -61 -1h-61q-91 0 -154 -31q-46 -22 -71 -76q-21 -45 -21 -100q0 -59 30 -90q39 -39 115 -39q65 0 114 22q58 25 91 75q0 -8 -0.5 -22t-0.5 -21t-0.5 -22t-1.5 -22q75 -6 79 -6v22v22q0 125 14 263zM376 284l-1 -25
q-2 -9 -4 -29q-1 -10 -5 -30q-9 -33 -29 -53q-17 -12 -50 -20q-18 -3 -54 -3q-39 0 -71 7q-16 4 -26 20q-9 15 -9 33q5 53 41 77q20 10 31 12q29 8 65 10q22 0 32 1h80z" />
    <glyph glyph-name="Abreve" unicode="&#x102;" horiz-adv-x="801" 
d="M259 868l1 -4q-2 1 -1 4zM273 814q-3 9 -7 27q-1 4 -3 11.5t-3 11.5q2 -2 4 -2q3 -1 13 -1h16q11 0 14 -1q6 -30 30 -51q23 -20 56 -20h3h4h3h3q34 0 60 21q27 20 39 51q8 0 24 0.5t24 0.5l-12 -24q-14 -32 -24 -48q-5 -9 -16 -20q-20 -20 -52 -29q-21 -7 -54 -7
q-64 0 -94 28q-17 20 -28 52zM606 178q26 -79 65 -173q-65 6 -129 9q-14 51 -25 117q-110 2 -163 2q-52 0 -162 -2q-18 -46 -53 -117l-122 -9q80 138 180 349l83 179q54 118 83 177h86l51 -178q61 -221 106 -354zM430 235h66q-12 47 -49 203q-23 102 -48 204
q-43 -102 -84 -204q-27 -68 -85 -204q45 1 133 1h67z" />
    <glyph glyph-name="abreve" unicode="&#x103;" horiz-adv-x="617" 
d="M159 699l1 -4q-2 1 -1 4zM173 645q-3 9 -7 27q-1 4 -3 11.5t-3 11.5q2 -2 4 -2q3 -1 13 -1h16q11 0 14 -1q6 -30 30 -51q23 -20 56 -20h3h4h3h3q34 0 60 21q27 20 39 51q8 0 24 0.5t24 0.5l-12 -24q-14 -32 -24 -48q-5 -9 -16 -20q-20 -20 -52 -29q-21 -7 -54 -7
q-64 0 -94 28q-17 20 -28 52zM463 497q41 -47 41 -132q0 -27 -3 -53q-14 -138 -14 -263v-22v-22q-4 0 -79 6q1 7 1.5 22t0.5 22t0.5 21t0.5 22q-33 -50 -91 -75q-49 -22 -114 -22q-76 0 -115 39q-30 31 -30 90q0 55 21 100q25 54 71 76q63 31 154 31h61q41 0 61 1l1 14
q2 14 2 22q0 48 -28 75q-26 21 -54 30q-26 8 -58 10q-95 0 -169 -35q1 10 1 30q0 5 0.5 15t0.5 15q98 30 181 30q50 0 85 -9q46 -12 72 -38zM376 284h-80q-10 -1 -32 -1q-36 -2 -65 -10q-11 -2 -31 -12q-36 -24 -41 -77q0 -18 9 -33q10 -16 26 -20q32 -7 71 -7q36 0 54 3
q33 8 50 20q20 20 29 53q4 20 5 30q2 20 4 29z" />
    <glyph glyph-name="Aogonek" unicode="&#x104;" horiz-adv-x="801" 
d="M645 -104q37 0 60 11q-1 -13 -1 -38v-7v-8q-30 -6 -61 -6q-49 2 -71 12q-28 15 -28 54q0 30 18 63q8 15 22 35l-42 2q-14 51 -25 117q-110 2 -163 2q-52 0 -162 -2q-18 -46 -53 -117l-122 -9q80 138 180 349l83 179q54 118 83 177h86l51 -178q61 -221 106 -354
q26 -79 65 -173l-39 3q-1 -1 -3 -4q-17 -20 -25 -44q-5 -13 -5 -24q0 -18 13.5 -29t32.5 -11zM430 235h66q-12 47 -49 203q-23 102 -48 204q-43 -102 -84 -204q-27 -68 -85 -204q45 1 133 1h67z" />
    <glyph glyph-name="aogonek" unicode="&#x105;" horiz-adv-x="617" 
d="M469 -93q37 0 60 11q-1 -13 -1 -38v-7v-8q-30 -6 -61 -6q-49 2 -71 12q-28 15 -28 54q0 30 18 63q10 19 23 35l1 32q0 7 0.5 21t0.5 22q-33 -50 -91 -75q-49 -22 -114 -22q-76 0 -115 39q-30 31 -30 90q0 55 21 100q25 54 71 76q63 31 154 31h61q41 0 61 1l1 14
q2 14 2 22q0 48 -28 75q-26 21 -54 30q-26 8 -58 10q-95 0 -169 -35q1 10 1 30q0 5 0.5 15t0.5 15q98 30 181 30q50 0 85 -9q46 -12 72 -38q41 -47 41 -132q0 -27 -3 -53q-14 -138 -14 -263v-22v-22q-19 3 -39 3q-14 -17 -20 -37q-5 -13 -5 -24q0 -18 13.5 -29t32.5 -11z
M376 284h-80q-10 -1 -32 -1q-36 -2 -65 -10q-11 -2 -31 -12q-36 -24 -41 -77q0 -18 9 -33q10 -16 26 -20q32 -7 71 -7q36 0 54 3q33 8 50 20q20 20 29 53q4 20 5 30q2 20 4 29z" />
    <glyph glyph-name="Cacute" unicode="&#x106;" horiz-adv-x="743" 
d="M364 806q-10 -1 -31 -1q-5 -1 -15.5 -1t-15.5 -1q23 24 50 58l48 59q52 0 78 2q-30 -27 -57 -57q-30 -33 -57 -59zM271 584q-46 -49 -68 -125q-17 -58 -17 -132q0 -46 9 -77q14 -39 39 -62q35 -28 90 -40q41 -9 100 -9q54 0 108 20q55 20 97 58q-4 -64 -4 -142v-16
q-91 -55 -214 -55q-76 0 -139 20q-72 23 -115 72q-32 41 -47 99q-13 46 -13 112q0 93 21 169q25 94 85 154q50 50 130 75q65 18 145 18q54 0 107 -12q52 -12 94 -42q-11 -64 -14 -89q-74 74 -192 74q-58 0 -107 -14q-59 -18 -95 -56zM680 672v-2l1 -2l-2 1q0 2 1 3z" />
    <glyph glyph-name="cacute" unicode="&#x107;" horiz-adv-x="588" 
d="M343 700q-54 -60 -93 -96l-71 -3q35 36 82 94q36 46 80 96q80 3 95 4q-33 -31 -93 -95zM375 545q67 0 131 -23q0 -5 -2 -16t-3 -17l-6 -35q-61 31 -133 31q-42 0 -78 -13q-42 -17 -66 -45q-26 -30 -41 -73q-12 -40 -15 -82q0 -31 7 -55q10 -30 30 -44q38 -26 121 -32
l74 -2h6q34 0 64 15q-2 -27 -2 -79q0 -33 1 -51q-66 -24 -142 -24q-60 0 -109 14q-58 17 -90 57q-46 55 -46 157q0 71 16 128q21 74 66 118q42 39 103 57q47 14 114 14zM507 525l2 -4l-3 1q0 2 1 3z" />
    <glyph glyph-name="Cdotaccent" unicode="&#x10a;" horiz-adv-x="743" 
d="M446 838v-6q-28 2 -42 2q-16 0 -48 -2q8 40 8 73v9v8q22 -3 45 -3q21 0 45 3q-9 -39 -9 -77q0 -5 1 -7zM271 584q-46 -49 -68 -125q-17 -58 -17 -132q0 -46 9 -77q14 -39 39 -62q35 -28 90 -40q41 -9 100 -9q54 0 108 20q55 20 97 58q-4 -64 -4 -142v-16
q-91 -55 -214 -55q-76 0 -139 20q-72 23 -115 72q-32 41 -47 99q-13 46 -13 112q0 93 21 169q25 94 85 154q50 50 130 75q65 18 145 18q54 0 107 -12q52 -12 94 -42q-11 -64 -14 -89q-74 74 -192 74q-58 0 -107 -14q-59 -18 -95 -56zM680 672v-2l1 -2l-2 1q0 2 1 3z" />
    <glyph glyph-name="cdotaccent" unicode="&#x10b;" horiz-adv-x="588" 
d="M354 669v-6q-28 2 -42 2q-16 0 -48 -2q8 40 8 73v9v8q22 -3 45 -3q21 0 45 3q-9 -39 -9 -77q0 -5 1 -7zM375 545q67 0 131 -23q0 -5 -2 -16t-3 -17l-6 -35q-61 31 -133 31q-42 0 -78 -13q-42 -17 -66 -45q-26 -30 -41 -73q-12 -40 -15 -82q0 -31 7 -55q10 -30 30 -44
q38 -26 121 -32l74 -2h6q34 0 64 15q-2 -27 -2 -79q0 -33 1 -51q-66 -24 -142 -24q-60 0 -109 14q-58 17 -90 57q-46 55 -46 157q0 71 16 128q21 74 66 118q42 39 103 57q47 14 114 14zM507 525l2 -4l-3 1q0 2 1 3z" />
    <glyph glyph-name="Ccaron" unicode="&#x10c;" horiz-adv-x="743" 
d="M361 756q-23 34 -40 62q-19 30 -45 57q9 -1 28 -1q9 -1 27 -1q17 -17 75 -87q68 68 92 87q18 0 27 1q19 0 28 1q-35 -30 -105 -119q-8 1 -22 1h-22h-22q-14 0 -21 -1zM271 584q-46 -49 -68 -125q-17 -58 -17 -132q0 -46 9 -77q14 -39 39 -62q35 -28 90 -40q41 -9 100 -9
q54 0 108 20q55 20 97 58q-4 -64 -4 -142v-16q-91 -55 -214 -55q-76 0 -139 20q-72 23 -115 72q-32 41 -47 99q-13 46 -13 112q0 93 21 169q25 94 85 154q50 50 130 75q65 18 145 18q54 0 107 -12q52 -12 94 -42q-11 -64 -14 -89q-74 74 -192 74q-58 0 -107 -14
q-59 -18 -95 -56zM680 672v-2l1 -2l-2 1q0 2 1 3z" />
    <glyph glyph-name="ccaron" unicode="&#x10d;" horiz-adv-x="605" 
d="M340 576h-67q-21 39 -46 88q-29 50 -53 83q1 0 56 -3q25 -31 81 -119l49 61q29 36 52 58q5 1 14.5 1.5t14.5 0.5q19 0 28 1q-41 -44 -129 -171zM392 545q67 0 131 -23l-5 -33q-2 -11 -6 -35q-61 31 -133 31q-42 0 -78 -13q-42 -17 -66 -45q-26 -30 -41 -73
q-12 -40 -15 -82q0 -32 8 -55q9 -29 29 -44q38 -26 121 -32l74 -2h6q34 0 64 15q-2 -27 -2 -79q0 -33 1 -51q-66 -24 -142 -24q-60 0 -109 14q-58 17 -90 57q-46 57 -46 157q0 71 16 128q21 74 66 118q42 39 103 57q47 14 114 14zM524 525l2 -4l-3 1q0 2 1 3z" />
    <glyph glyph-name="Dcaron" unicode="&#x10e;" horiz-adv-x="782" 
d="M339 794h68q90 130 128 170q-9 -1 -28 -1q-5 -1 -14.5 -1t-14.5 -1q-23 -22 -52 -58l-49 -61q-59 93 -80 119q-55 3 -56 3q31 -42 52 -83zM170 725v-32v-31q0 -336 -63 -657q81 8 199 12q102 4 159 16q89 19 149 65q64 54 92 162q19 77 19 175q0 62 -13 106
q-15 54 -50 89q-52 48 -138 65q-56 12 -158 16q-109 3 -196 14zM261 646q82 -4 121 -4q73 -4 115 -15q62 -15 100 -56q24 -27 36 -69q9 -32 9 -80q0 -16 -2 -48q-24 -64 -34 -82q-24 -44 -58 -68q-24 -14 -48 -21q-45 -13 -104 -15q-36 -2 -52 -2l-119 -3q26 214 36 463z
" />
    <glyph glyph-name="dcaron" unicode="&#x10f;" horiz-adv-x="647" 
d="M713 839l-3 -42l-3 -42q-17 -54 -31 -91q-15 -45 -33 -90q11 2 33 4q6 0 17 0.5t17 0.5q28 45 54 90q17 30 53 90q6 54 12 85q-35 -5 -83 -5h-16h-17zM469 461l-4 -1q-1 0 -2.5 -0.5t-2.5 -0.5q-15 40 -58 65q-37 23 -87 23h-14q-44 0 -81 -19q-43 -20 -68 -52
q-42 -52 -62 -126q-16 -67 -16 -134q0 -86 37 -143q46 -69 138 -69q3 0 5 1h5h7q52 0 101 27q47 28 75 75q0 -8 -1 -23.5t-1 -22.5q0 -8 -0.5 -24t-0.5 -23q14 -2 40 -4t39 -4q6 362 77 749q-16 -1 -41 -5l-40 -3q-31 -178 -45 -286zM128 283v1q5 51 22 95q20 52 51 80
q38 35 89 35h12q40 0 68 -25q29 -24 38 -68q8 -35 8 -80q0 -43 -7 -73q-13 -50 -40 -70q-35 -23 -107 -25q-32 0 -54 5q-30 7 -47 24q-31 34 -33 101z" />
    <glyph glyph-name="Dcroat" unicode="&#x110;" horiz-adv-x="782" 
d="M263 909q6 -10 6 -26q0 -19 -12 -36q23 0 71 0.5t71 0.5t70 -0.5t71 -0.5q-7 8 -7 25q0 20 12 37q-47 -1 -141 -1t-141 1zM170 725v-32v-31q0 -336 -63 -657q81 8 199 12q102 4 159 16q89 19 149 65q64 54 92 162q19 77 19 175q0 62 -13 106q-15 54 -50 89
q-52 48 -138 65q-56 12 -158 16q-109 3 -196 14zM261 646q82 -4 121 -4q73 -4 115 -15q62 -15 100 -56q24 -27 36 -69q9 -32 9 -80q0 -16 -2 -48q-24 -64 -34 -82q-24 -44 -58 -68q-24 -14 -48 -21q-45 -13 -104 -15q-36 -2 -52 -2l-119 -3q26 214 36 463z" />
    <glyph glyph-name="dcroat" unicode="&#x111;" horiz-adv-x="646" 
d="M470 460q-3 0 -9 -2q-17 42 -59 66q-40 23 -89 23h-12q-44 0 -81 -19q-43 -20 -67 -52q-43 -51 -63 -128q-15 -63 -15 -134q0 -88 35 -141q22 -33 59 -52q36 -17 78 -17h5h5h6q52 0 102 29q47 27 77 76q-2 -30 -2 -46q-2 -32 -2 -47q14 0 40 -2t40 -2q3 276 47 614
q11 0 37 2l36 3q2 16 4 26q2 16 4 26q-27 -3 -74 -7q3 24 11 72l-41 -3q-26 -2 -40 -2l-9 -71q-53 -2 -156 -2q-2 -16 -2 -24q-2 -18 -2 -25q103 0 154 2q-6 -40 -17 -163zM158 295q9 91 50 140q42 49 111 49q76 0 109 -50q29 -41 29 -110q0 -46 -11 -86q-13 -47 -41 -79
q-44 -51 -121 -51q-69 0 -102 49q-26 41 -26 103q0 24 2 35z" />
    <glyph glyph-name="Emacron" unicode="&#x112;" horiz-adv-x="697" 
d="M192 909q6 -10 6 -26q0 -19 -12 -36q24 0 71 0.5t71 0.5q23 0 70 -0.5t71 -0.5q-7 8 -7 25q0 20 12 37q-47 -1 -141 -1t-141 1zM170 725q-5 -377 -63 -720q121 14 233 14q110 0 227 -14q0 95 2 142q-96 8 -217 8q-69 0 -138 -3q14 113 20 200q109 0 163 1h163q0 4 1 11
t1.5 13t0.5 12q2 24 4 36q-104 -3 -205 -3q-20 0 -61 0.5t-61 0.5q9 115 15 220q63 -4 141 -4q112 0 213 10q1 18 6 38l6 37q-116 -15 -228 -15q-115 0 -223 16z" />
    <glyph glyph-name="emacron" unicode="&#x113;" horiz-adv-x="636" 
d="M341 679q-23 0 -71 -0.5t-71 -0.5q12 16 12 36q0 16 -6 26q47 -1 141 -1t141 1q-12 -16 -12 -37q0 -17 7 -25q-24 0 -71 0.5t-70 0.5zM535 427q7 -28 7 -75v-12v-10q0 -10 -1 -15q0 -4 -2 -14q-162 -2 -243 -2q-46 0 -69 1h-71q0 -6 -0.5 -18.5t-0.5 -19.5q0 -38 7 -60
q11 -32 32 -48q33 -19 73 -27q35 -7 77 -7q57 0 86 3q45 3 81 21v-28v-28v-27q0 -19 1 -28q-93 -32 -196 -32q-64 5 -105 18q-57 17 -88 53q-26 29 -39 73q-10 39 -10 84q0 63 19 126q22 74 63 117q37 38 90 55q42 15 102 17q57 -4 83 -12q45 -13 71 -39q22 -24 33 -66z
M224 365h54q136 0 205 2q-3 59 -40 99q-39 41 -98 41q-79 0 -124 -44q-48 -40 -51 -97q18 -1 54 -1z" />
    <glyph glyph-name="Edotaccent" unicode="&#x116;" horiz-adv-x="697" 
d="M276 922v-8v-9q0 -33 -8 -73q32 2 48 2q14 0 42 -2v6q-1 2 -1 7q0 38 9 77q-24 -3 -45 -3q-23 0 -45 3zM170 725q-5 -377 -63 -720q121 14 233 14q110 0 227 -14q0 95 2 142q-96 8 -217 8q-69 0 -138 -3q14 113 20 200q109 0 163 1h163q0 4 1 11t1.5 13t0.5 12q2 24 4 36
q-104 -3 -205 -3q-20 0 -61 0.5t-61 0.5q9 115 15 220q63 -4 141 -4q112 0 213 10q1 18 6 38l6 37q-116 -15 -228 -15q-115 0 -223 16z" />
    <glyph glyph-name="edotaccent" unicode="&#x117;" horiz-adv-x="636" 
d="M371 669v-6q-28 2 -42 2q-16 0 -48 -2q8 40 8 73v9v8q23 -3 45 -3q21 0 45 3q-9 -39 -9 -77q0 -5 1 -7zM535 427q7 -28 7 -75v-12v-10q0 -10 -1 -15q0 -4 -2 -14q-162 -2 -243 -2q-46 0 -69 1h-71q0 -6 -0.5 -18.5t-0.5 -19.5q0 -38 7 -60q11 -32 32 -48q33 -19 73 -27
q35 -7 77 -7q57 0 86 3q45 3 81 21v-28v-28v-27q0 -19 1 -28q-93 -32 -196 -32q-64 5 -105 18q-57 17 -88 53q-26 29 -39 73q-10 39 -10 84q0 63 19 126q22 74 63 117q37 38 90 55q42 15 102 17q57 -4 83 -12q45 -13 71 -39q22 -24 33 -66zM224 365h54q136 0 205 2
q-3 59 -40 99q-39 41 -98 41q-79 0 -124 -44q-48 -40 -51 -97q18 -1 54 -1z" />
    <glyph glyph-name="Eogonek" unicode="&#x118;" horiz-adv-x="697" 
d="M393 709q112 0 228 15l-6 -37q-5 -20 -6 -38q-101 -10 -213 -10q-78 0 -141 4q-6 -105 -15 -220q20 0 61 -0.5t61 -0.5q102 0 205 3q-2 -12 -4 -36l-3 -36h-163q-54 -1 -163 -1q-6 -87 -20 -200q69 3 138 3q121 0 217 -8q-2 -47 -2 -142l-48 5q-1 -1 -2 -3t-2 -3
q-17 -20 -25 -44q-5 -13 -5 -24q0 -18 13.5 -29t32.5 -11q37 0 60 11q-1 -13 -1 -38v-7v-8q-30 -6 -61 -6q-49 2 -71 12q-28 15 -28 54q0 30 18 63q9 19 24 37q-72 5 -132 5q-112 0 -233 -14q58 343 63 720q108 -16 223 -16z" />
    <glyph glyph-name="eogonek" unicode="&#x119;" horiz-adv-x="636" 
d="M535 427q7 -28 7 -75v-12v-10q0 -10 -1 -15q0 -4 -2 -14q-162 -2 -243 -2q-46 0 -69 1h-71q0 -6 -0.5 -18.5t-0.5 -19.5q0 -38 7 -60q11 -32 32 -48q33 -19 73 -27q35 -7 77 -7q57 0 86 3q45 3 81 21v-28v-28v-27q0 -19 1 -28q-93 -32 -196 -32q-64 5 -105 18
q-57 17 -88 53q-26 29 -39 73q-10 39 -10 84q0 63 19 126q22 74 63 117q37 38 90 55q42 15 102 17q57 -4 83 -12q45 -13 71 -39q22 -24 33 -66zM224 365h54q136 0 205 2q-3 59 -40 99q-39 41 -98 41q-79 0 -124 -44q-48 -40 -51 -97q18 -1 54 -1zM276 -101q0 -18 13.5 -29
t32.5 -11q37 0 60 11q-1 -13 -1 -38v-7v-8q-30 -6 -61 -6q-49 2 -71 12q-28 15 -28 54q0 30 18 63q12 23 33 48q8 -1 24 -1h25q-5 -6 -15 -20q-17 -20 -25 -44q-5 -13 -5 -24z" />
    <glyph glyph-name="Ecaron" unicode="&#x11a;" horiz-adv-x="697" 
d="M268 794h68q90 130 128 170q-9 -1 -28 -1q-5 -1 -14.5 -1t-14.5 -1q-23 -22 -52 -58l-49 -61q-59 93 -80 119q-55 3 -56 3q31 -42 52 -83zM170 725q-5 -377 -63 -720q121 14 233 14q110 0 227 -14q0 95 2 142q-96 8 -217 8q-69 0 -138 -3q14 113 20 200q109 0 163 1h163
q0 4 1 11t1.5 13t0.5 12q2 24 4 36q-104 -3 -205 -3q-20 0 -61 0.5t-61 0.5q9 115 15 220q63 -4 141 -4q112 0 213 10q1 18 6 38l6 37q-116 -15 -228 -15q-115 0 -223 16z" />
    <glyph glyph-name="ecaron" unicode="&#x11b;" horiz-adv-x="636" 
d="M281 625l-46 87q-21 41 -52 83q1 0 56 -3q21 -26 80 -119l49 61q29 36 52 58q5 0 14.5 1t14.5 1q19 0 28 1q-38 -40 -128 -170h-68zM535 427q7 -28 7 -75v-12v-10q0 -10 -1 -15q0 -4 -2 -14q-162 -2 -243 -2q-46 0 -69 1h-71q0 -6 -0.5 -18.5t-0.5 -19.5q0 -38 7 -60
q11 -32 32 -48q33 -19 73 -27q35 -7 77 -7q57 0 86 3q45 3 81 21v-28v-28v-27q0 -19 1 -28q-93 -32 -196 -32q-64 5 -105 18q-57 17 -88 53q-26 29 -39 73q-10 39 -10 84q0 63 19 126q22 74 63 117q37 38 90 55q42 15 102 17q57 -4 83 -12q45 -13 71 -39q22 -24 33 -66z
M224 365h54q136 0 205 2q-3 59 -40 99q-39 41 -98 41q-79 0 -124 -44q-48 -40 -51 -97q18 -1 54 -1z" />
    <glyph glyph-name="Gbreve" unicode="&#x11e;" horiz-adv-x="789" 
d="M303 929l1 -4q-2 1 -1 4zM318 883l-8 23q-1 3 -3 9.5t-3 9.5q1 -1 4 -1q3 -1 13 -1h17q10 0 14 -1q7 -25 34 -40q24 -13 52 -13h4h4h3h4q65 0 95 53q9 1 24 1q16 0 24 1q-2 -4 -5 -11t-5 -10q-9 -22 -23 -40q-17 -22 -42 -32q-26 -11 -53 -13q-5 0 -14 -0.5t-13 -0.5
q-63 0 -94 24q-16 13 -29 42zM598 712q61 -13 110 -44q-5 -30 -7 -41l-6 -41q-42 39 -99 59q-56 18 -117 18q-62 0 -109 -13q-59 -16 -98 -54q-45 -48 -67 -123q-17 -58 -17 -130q0 -53 9 -82q12 -44 40 -68q34 -25 90 -35q37 -8 99 -10q12 1 39 1q48 2 80 15q17 5 31 19
l1 2q1 1 1 2l3 41q2 26 2 40q-24 1 -73 1h-73l7 92q81 0 121 1h122q-14 -152 -14 -291q-59 -37 -123 -51q-60 -15 -132 -15q-83 0 -142 17q-76 23 -118 73q-33 37 -48 95q-13 45 -13 110q0 61 8 113q10 65 32 118q24 59 68 100q48 50 128 73q62 19 143 19q67 0 122 -11z" />
    <glyph glyph-name="gbreve" unicode="&#x11f;" horiz-adv-x="631" 
d="M193 786l1 -4q-2 1 -1 4zM208 732q-6 18 -8 27q-1 4 -3 11.5t-3 11.5q2 -2 4 -2q3 -1 13 -1h17q10 0 13 -1q6 -30 30 -51q25 -20 56 -20h4h3h3h3q34 0 60 21q29 22 39 51q8 0 24 0.5t24 0.5q-9 -18 -11 -24q-3 -5 -7.5 -15t-8.5 -18t-8 -15q-8 -10 -17 -20
q-20 -20 -52 -29q-21 -7 -53 -7q-65 0 -95 28q-18 21 -27 52zM498 534l40 4q6 0 20 1.5t21 2.5q-41 -203 -70 -473q-16 -107 -20 -121q-17 -69 -55 -111q-39 -38 -97 -49q-39 -10 -106 -10q-86 0 -149 17q7 42 20 147q60 -32 142 -32q37 0 70 10q41 14 62 38q43 47 57 96
q0 7 2 23q0 3 0.5 11t0.5 11q-65 -88 -179 -88q-92 0 -136 70q-41 59 -41 162q0 66 13 119q17 70 55 112q27 32 70 50q39 16 83 16h15q52 0 96 -27q43 -27 62 -73l12 47q4 15 12 47zM420 281q2 13 2 38q0 82 -38 123q-36 39 -101 39q-73 0 -113 -49q-21 -26 -36 -72
q-8 -31 -12 -78q2 -20 2 -32q2 -38 12 -62q6 -15 17 -26q31 -21 99 -21q67 0 113 21q29 16 42 53q9 24 13 66z" />
    <glyph glyph-name="Gdotaccent" unicode="&#x120;" horiz-adv-x="789" 
d="M386 922v-8v-9q0 -33 -8 -73q32 2 48 2q14 0 42 -2v6q-1 2 -1 7q0 38 9 77q-24 -3 -45 -3q-23 0 -45 3zM581 228l-3 -41q0 -1 -1 -2q0 -1 -1 -2q-14 -14 -31 -19q-32 -13 -80 -15q-27 0 -39 -1q-62 2 -99 10q-56 10 -90 35q-28 24 -40 68q-9 29 -9 82q0 72 17 130
q22 75 67 123q39 38 98 54q47 13 109 13q61 0 117 -18q57 -20 99 -59l6 41q2 11 7 41q-49 31 -110 44q-55 11 -122 11q-81 0 -143 -19q-80 -23 -128 -73q-44 -41 -68 -100q-22 -53 -32 -118q-8 -52 -8 -113q0 -65 13 -110q15 -58 48 -95q42 -50 118 -73q59 -17 142 -17
q72 0 132 15q64 14 123 51q0 139 14 291h-122q-40 -1 -121 -1l-7 -92h73q49 0 73 -1q0 -14 -2 -40z" />
    <glyph glyph-name="gdotaccent" unicode="&#x121;" horiz-adv-x="631" 
d="M299 753v-8v-9q0 -33 -8 -73q32 2 48 2q14 0 42 -2v6q-1 2 -1 7q0 38 9 77q-24 -3 -45 -3q-22 0 -45 3zM509 69q29 270 70 473q-7 -1 -21 -2.5t-20 -1.5l-40 -4q-8 -32 -12 -47l-12 -47q-19 46 -62 73q-44 27 -96 27h-15q-44 0 -83 -16q-43 -18 -70 -50q-38 -42 -55 -112
q-13 -53 -13 -119q0 -103 41 -162q44 -70 136 -70q114 0 179 88q0 -3 -0.5 -11t-0.5 -11q-2 -16 -2 -23q-14 -49 -57 -96q-21 -24 -62 -38q-33 -10 -70 -10q-82 0 -142 32q-13 -105 -20 -147q63 -17 149 -17q67 0 106 10q58 11 97 49q38 42 55 111q4 14 20 121zM420 281
q-4 -43 -13 -66q-13 -37 -42 -53q-46 -21 -113 -21q-68 0 -99 21q-11 11 -17 26q-10 24 -12 62q0 12 -2 32q4 47 12 78q15 46 36 72q40 49 113 49q65 0 101 -39q38 -41 38 -123q0 -25 -2 -38z" />
    <glyph glyph-name="Gcommaaccent" unicode="&#x122;" horiz-adv-x="789" 
d="M581 228l-3 -41q0 -1 -1 -2q0 -1 -1 -2q-14 -14 -31 -19q-32 -13 -80 -15q-27 0 -39 -1q-62 2 -99 10q-56 10 -90 35q-28 24 -40 68q-9 29 -9 82q0 72 17 130q22 75 67 123q39 38 98 54q47 13 109 13q61 0 117 -18q57 -20 99 -59l6 41q2 11 7 41q-49 31 -110 44
q-55 11 -122 11q-81 0 -143 -19q-80 -23 -128 -73q-44 -41 -68 -100q-22 -53 -32 -118q-8 -52 -8 -113q0 -65 13 -110q15 -58 48 -95q42 -50 118 -73q59 -17 142 -17q72 0 132 15q64 14 123 51q0 139 14 291h-122q-40 -1 -121 -1l-7 -92h73q49 0 73 -1q0 -14 -2 -40z
M358 -58l-6 -97l-30 -75q-10 -24 -32 -74q14 3 27 3q4 1 13 1.5t13 0.5q27 31 59 73l56 75q8 63 14 97q-48 -5 -84 -5h-15q-10 0 -15 1z" />
    <glyph glyph-name="gcommaaccent" unicode="&#x123;" horiz-adv-x="631" 
d="M509 69q29 270 70 473q-7 -1 -21 -2.5t-20 -1.5l-40 -4q-8 -32 -12 -47l-12 -47q-19 46 -62 73q-44 27 -96 27h-15q-44 0 -83 -16q-43 -18 -70 -50q-38 -42 -55 -112q-13 -53 -13 -119q0 -103 41 -162q44 -70 136 -70q114 0 179 88q0 -3 -0.5 -11t-0.5 -11q-2 -16 -2 -23
q-14 -49 -57 -96q-21 -24 -62 -38q-33 -10 -70 -10q-82 0 -142 32q-13 -105 -20 -147q63 -17 149 -17q67 0 106 10q58 11 97 49q38 42 55 111q4 14 20 121zM420 281q-4 -43 -13 -66q-13 -37 -42 -53q-46 -21 -113 -21q-68 0 -99 21q-11 11 -17 26q-10 24 -12 62q0 12 -2 32
q4 47 12 78q15 46 36 72q40 49 113 49q65 0 101 -39q38 -41 38 -123q0 -25 -2 -38zM174 -250l-6 -97l-30 -75q-10 -24 -32 -74q14 3 27 3q4 1 13 1.5t13 0.5q27 31 59 73l56 75q8 63 14 97q-48 -5 -84 -5h-15q-10 0 -15 1z" />
    <glyph glyph-name="Hbar" unicode="&#x126;" horiz-adv-x="782" 
d="M753 525h-77q-26 -211 -26 -415q0 -35 2 -105q-7 1 -102 9q0 105 10 238q-112 2 -165 2q-54 0 -164 -2q-10 -102 -31 -238l-103 -9q50 241 66 520h-78q30 16 33 29q-3 20 -28 32l76 -1q3 70 3 139q32 -5 93 -9q-6 -126 -6 -130q43 -1 168 -1t168 1q5 39 19 130
q8 1 24 2.5t24 2.5q32 2 47 4q-9 -52 -22 -139l74 1q-2 -1 -5.5 -2.5t-4.5 -2.5q-10 -5 -19 -13q-4 -6 -6 -10q1 -12 11 -22q5 -4 19 -11zM570 376q6 75 15 150h-166h-166q-3 -50 -11 -150h48q16 -1 48 -1q39 0 116 0.5t116 0.5z" />
    <glyph glyph-name="hbar" unicode="&#x127;" horiz-adv-x="689" 
d="M564 370q0 -27 -1 -40q-6 -105 -6 -209q0 -38 2 -116q-66 8 -99 10q8 126 28 313q1 10 1 32q0 47 -15 81q-28 50 -92 50q-70 0 -114 -51q-45 -52 -52 -130q-3 -42 -10 -147q-4 -50 -14 -148q-70 -6 -101 -10q56 283 75 564l-71 -2q13 22 13 50q0 14 -1 20h17h16h31
q4 75 5 115q56 -6 80 -8l-9 -105l111 3q-14 -23 -14 -50q0 -10 3 -21l-106 -1q-8 -84 -13 -127q31 47 76 74q47 30 99 30h13q38 0 72 -14q36 -18 53 -49q23 -46 23 -114z" />
    <glyph glyph-name="Itilde" unicode="&#x128;" horiz-adv-x="329" 
d="M206 909l24 -26q25 -28 66 -28q24 0 37 12q25 21 42 71q10 25 19 43q-18 -1 -52 -1q-6 -14 -8 -22q-3 -9 -9 -23q-12 -26 -36 -29q-16 1 -32 19l-24 26q-30 28 -67 28q-17 0 -36 -11q-22 -15 -44 -74q-5 -17 -16 -41q8 1 25 1t26 1q1 1 8 21q1 6 9 24q12 25 34 28
q16 -1 34 -19zM168 717q-44 -459 -77 -712q28 14 56 14q29 0 52 -14q18 334 53 715q-19 -10 -46 -10q-21 0 -38 7z" />
    <glyph glyph-name="itilde" unicode="&#x129;" horiz-adv-x="293" 
d="M198 729l24 -26q25 -28 66 -28q24 0 37 12q25 21 42 71q10 25 19 43q-18 -1 -52 -1q-6 -14 -8 -22q-3 -9 -9 -23q-12 -26 -36 -29q-16 1 -32 19l-24 26q-30 28 -67 28q-17 0 -36 -11q-22 -15 -44 -74q-5 -17 -16 -41q8 1 25 1t26 1q0 1 8 21q1 6 9 24q12 25 34 28
q16 -1 34 -19zM131 542q-17 -262 -48 -537q20 10 42 10t39 -10q17 249 47 537q-20 -11 -42 -11q-21 0 -38 11z" />
    <glyph glyph-name="Imacron" unicode="&#x12a;" horiz-adv-x="329" 
d="M81 890q6 -10 6 -26q0 -20 -12 -36q23 0 71 0.5t71 0.5t70 -0.5t71 -0.5q-7 8 -7 25q0 21 12 37q-47 -1 -141 -1t-141 1zM168 717q-44 -459 -77 -712q28 14 56 14q29 0 52 -14q18 334 53 715q-19 -10 -46 -10q-21 0 -38 7z" />
    <glyph glyph-name="imacron" unicode="&#x12b;" horiz-adv-x="293" 
d="M73 710q6 -10 6 -26q0 -20 -12 -36q24 0 71.5 0.5t70.5 0.5t70 -0.5t71 -0.5q-7 8 -7 25q0 21 12 37q-47 -1 -141 -1t-141 1zM131 542q-17 -262 -48 -537q20 10 42 10t39 -10q17 249 47 537q-20 -11 -42 -11q-21 0 -38 11z" />
    <glyph glyph-name="Iogonek" unicode="&#x12e;" horiz-adv-x="329" 
d="M201 -84q37 0 60 11q-1 -13 -1 -38v-7v-8q-30 -6 -61 -6q-49 2 -71 12q-28 15 -28 54q0 30 18 63l12 21q-16 -3 -39 -13q33 253 77 712q17 -7 38 -7q27 0 46 10q-35 -381 -53 -715q-11 6 -21 9q-11 -14 -18 -34q-5 -13 -5 -24q0 -18 13.5 -29t32.5 -11z" />
    <glyph glyph-name="iogonek" unicode="&#x12f;" horiz-adv-x="293" 
d="M247 723q-9 -39 -9 -77q0 -5 1 -7v-6q-28 2 -42 2q-16 0 -48 -2q8 40 8 73v9v8q23 -3 45 -3q21 0 45 3zM116 -66q0 -18 13.5 -29t32.5 -11q37 0 60 11q-1 -13 -1 -38v-7v-8q-30 -6 -61 -6q-49 2 -71 12q-28 15 -28 54q0 30 18 63q10 19 25 38q-14 -4 -21 -8
q31 275 48 537q17 -11 38 -11q22 0 42 11q-30 -288 -47 -537l-12 6l-6 -9q-17 -20 -25 -44q-5 -13 -5 -24z" />
    <glyph glyph-name="Idotaccent" unicode="&#x130;" horiz-adv-x="341" 
d="M209 910v-13q0 -45 -8 -78q16 1 48 1q28 0 42 -1v9v9q0 40 8 73q-22 -3 -46 -3q-21 0 -44 3zM180 717q-41 -422 -77 -712q28 14 56 14q27 0 52 -14q18 334 53 715q-19 -10 -46 -10q-21 0 -38 7z" />
    <glyph glyph-name="dotlessi" unicode="&#x131;" horiz-adv-x="293" 
d="M131 542q-17 -262 -48 -537q20 10 42 10t39 -10q17 249 47 537q-20 -11 -42 -11q-21 0 -38 11z" />
    <glyph glyph-name="IJ" unicode="&#x132;" horiz-adv-x="727" 
d="M168 717q-44 -459 -77 -712q28 14 56 14q29 0 52 -14q18 334 53 715q-19 -10 -46 -10q-21 0 -38 7zM597 709q-31 -208 -86 -664q-7 -43 -51 -69q-31 -19 -84 -29q-14 2 -21 2q-3 1 -10 1t-11 1q-9 -90 -16 -151q9 1 26.5 2.5t26.5 2.5h-1q6 1 20.5 3.5t22.5 3.5
q30 6 44 10q52 14 80 39q33 33 46 82q10 34 16 91q42 386 92 685q-31 -8 -94 -10z" />
    <glyph glyph-name="ij" unicode="&#x133;" horiz-adv-x="656" 
d="M555 738q-6 -34 -8 -50q-1 -8 -3.5 -25.5t-4.5 -26.5q54 6 80 13l3 53q1 9 2.5 26t1.5 25q-23 -7 -71 -15zM175 751l-6 -50l-6 -51q15 -12 36 -12t41 11q3 27 3 52l3 50q-19 -11 -38 -11t-33 11zM159 539q-23 -253 -54 -534q19 14 42 14q22 0 38 -14q19 281 40 535
q-18 -6 -35 -6q-14 0 -31 5zM514 527q-24 -170 -32 -235q-5 -40 -15.5 -119t-16.5 -118q-3 -26 -9 -49q-5 -25 -21 -46h1q-8 -8 -24 -16q-25 -11 -56 -16q-11 -1 -26 -5l-9 -63l-9 -63q23 8 44 11l45 9q55 15 84 40q25 24 37 64q9 27 13 72q30 271 66 540q-36 -5 -72 -6z
" />
    <glyph glyph-name="Kcommaaccent" unicode="&#x136;" horiz-adv-x="790" 
d="M169 722q-6 -361 -82 -717q40 4 60 5q21 2 59 4q17 196 22 353q137 -231 215 -349q114 -2 217 -13q-89 96 -173 191q-114 128 -172 192l190 167q63 55 191 167q-66 -7 -113 -8q-29 -24 -87.5 -75t-89.5 -77q-58 -50 -174 -154q18 167 26 307q-61 4 -89 7zM250 -2l-6 -97
l-30 -75q-10 -24 -32 -74q14 3 27 3q4 1 13 1.5t13 0.5q27 31 59 73l56 75q8 63 14 97q-48 -5 -84 -5h-15q-10 0 -15 1z" />
    <glyph glyph-name="kcommaaccent" unicode="&#x137;" horiz-adv-x="705" 
d="M176 752q-14 -385 -85 -747l55 6q10 1 28 2.5t27 1.5l9 130q6 86 7 130q53 -76 188 -257q77 -1 170 -13q-91 101 -269 288q4 5 45 51.5t62 70.5q4 5 107 122q-2 0 -97 -3q-4 -4 -101 -107q-97 -106 -100 -109q24 231 34 426q-24 2 -80 8zM222 -51l-6 -97l-30 -75
q-10 -24 -32 -74q14 3 27 3q4 1 13 1.5t13 0.5q27 31 59 73l56 75q8 63 14 97q-48 -5 -84 -5h-15q-10 0 -15 1z" />
    <glyph glyph-name="Lacute" unicode="&#x139;" horiz-adv-x="666" 
d="M364 1010q-44 -50 -80 -96q-45 -56 -81 -94l70 3q39 36 93 96q60 64 93 95q-15 -1 -95 -4zM169 723q-9 -367 -72 -718q118 14 227 14q110 0 213 -13q3 63 11 141q-92 8 -208 8q-66 0 -132 -3q36 294 49 562q-28 1 -88 9z" />
    <glyph glyph-name="lacute" unicode="&#x13a;" horiz-adv-x="376" 
d="M433 831q-44 -50 -80 -96q-45 -56 -81 -94l70 3q39 36 93 96q60 64 93 95q-15 -1 -95 -4zM175 750q-29 -383 -74 -745q37 14 75 14q59 0 101 -19q1 17 3.5 51t3.5 51q-57 15 -89 15q14 171 55 623h-8h-8q-36 0 -59 10z" />
    <glyph glyph-name="Lcommaaccent" unicode="&#x13b;" horiz-adv-x="666" 
d="M169 723q-9 -367 -72 -718q118 14 227 14q110 0 213 -13q3 63 11 141q-92 8 -208 8q-66 0 -132 -3q36 294 49 562q-28 1 -88 9zM237 -46l-6 -97l-30 -75q-10 -24 -32 -74q13 3 27 3q4 1 13 1.5t13 0.5q27 31 59 73l56 75q8 63 14 97q-48 -5 -84 -5h-15q-10 0 -15 1z" />
    <glyph glyph-name="lcommaaccent" unicode="&#x13c;" horiz-adv-x="376" 
d="M175 750q-29 -383 -74 -745q37 14 75 14q59 0 101 -19q1 17 3.5 51t3.5 51q-57 15 -89 15q14 171 55 623h-8h-8q-36 0 -59 10zM118 -37l-6 -97l-30 -75q-10 -24 -32 -74q14 3 27 3q4 1 13 1.5t13 0.5q27 31 59 73l56 75q8 63 14 97q-48 -5 -84 -5h-15q-10 0 -15 1z" />
    <glyph glyph-name="Lcaron" unicode="&#x13d;" horiz-adv-x="666" 
d="M451 819l-3 -42l-3 -42q-17 -54 -31 -91q-15 -45 -33 -90q11 2 33 4q6 0 17 0.5t17 0.5q28 45 54 90q17 30 53 90q6 54 12 85q-35 -5 -83 -5h-16h-17zM169 723q-9 -367 -72 -718q118 14 227 14q110 0 213 -13q3 63 11 141q-92 8 -208 8q-66 0 -132 -3q36 294 49 562
q-28 1 -88 9z" />
    <glyph glyph-name="lcaron" unicode="&#x13e;" horiz-adv-x="376" 
d="M365 845l-3 -42l-3 -42q-17 -54 -31 -91q-15 -45 -33 -90q11 2 33 4q6 0 17 0.5t17 0.5q28 45 54 90q17 30 53 90q6 54 12 85q-35 -5 -83 -5h-16h-17zM175 750q-29 -383 -74 -745q37 14 75 14q59 0 101 -19q1 17 3.5 51t3.5 51q-57 15 -89 15q14 171 55 623h-8h-8
q-36 0 -59 10z" />
    <glyph glyph-name="Ldot" unicode="&#x13f;" horiz-adv-x="666" 
d="M169 723q-9 -367 -72 -718q118 14 227 14q110 0 213 -13q3 63 11 141q-92 8 -208 8q-66 0 -132 -3q36 294 49 562q-28 1 -88 9zM399 404q0 -60 -11 -114q16 2 48 2q30 0 46 -2q0 60 10 114q-16 -2 -47 -2t-46 2z" />
    <glyph glyph-name="ldot" unicode="&#x140;" horiz-adv-x="376" 
d="M175 750q-29 -383 -74 -745q37 14 75 14q59 0 101 -19q1 17 3.5 51t3.5 51q-57 15 -89 15q14 171 55 623h-8h-8q-36 0 -59 10zM274 457q0 -60 -11 -114q16 2 48 2q30 0 46 -2q0 60 10 114q-16 -2 -47 -2t-46 2z" />
    <glyph glyph-name="Lslash" unicode="&#x141;" horiz-adv-x="717" 
d="M204 714q-4 -177 -21 -359q-43 -29 -108 -76q5 -7 13 -21q2 -5 6.5 -13t5.5 -10q13 10 39 28q12 9 38 27q-19 -179 -34 -276q98 5 174 5q132 0 270 -14v37q0 24 -1 37q-127 10 -268 10h-39h-38q19 181 26 261l95 64q16 10 47.5 31.5t47.5 32.5q-7 12 -14 22l-13 21
q-16 -10 -44.5 -29l-34.5 -23l-34.5 -23t-44.5 -29q13 138 22 294q-8 0 -23 0.5t-22 0.5q-30 2 -45 2z" />
    <glyph glyph-name="lslash" unicode="&#x142;" horiz-adv-x="386" 
d="M208 741q-11 -157 -27 -342q-32 -22 -47 -33l-48 -33q2 -3 6.5 -10.5t7.5 -10.5q6 -11 11 -22l65 45q-12 -145 -30 -317q15 1 43 1q25 0 37 -1q10 159 29 373q9 6 98 67l-14 21q-6 9 -12 21q-20 -17 -33 -24l-32 -23q11 130 27 288q-7 -1 -20 -1h-20h-20q-14 0 -21 1z
" />
    <glyph glyph-name="Nacute" unicode="&#x143;" horiz-adv-x="766" 
d="M567 1010q-44 -50 -80 -96q-45 -56 -81 -94l70 3q39 36 93 96q60 64 93 95q-15 -1 -95 -4zM166 708q-9 -362 -82 -703q59 6 115 9q29 304 29 591l8 2q30 -64 67 -148l64 -148q77 -179 135 -295q87 -6 134 -11q-1 9 -1 29v28q0 316 64 663q-30 -4 -82 -8
q-52 -276 -74 -591q-22 47 -130 287q-86 192 -133 286q-38 2 -57 4q-38 2 -57 5z" />
    <glyph glyph-name="nacute" unicode="&#x144;" horiz-adv-x="681" 
d="M407 841q-44 -50 -80 -96q-45 -56 -81 -94l70 3q39 36 93 96q60 64 93 95q-15 -1 -95 -4zM551 330q1 12 1 36q0 69 -22 117q-16 32 -52 48q-31 14 -73 14q-95 0 -196 -74q0 23 1 34q0 23 1 35q-51 2 -79 6q-5 -285 -63 -541q41 4 115 8q16 157 20 300q7 80 47 125
q27 27 62 36q33 9 68 9q25 0 46 -9q25 -11 35 -33q12 -28 12 -66q0 -15 -2 -45q-28 -188 -38 -317q76 -4 117 -8q-6 74 -6 148q0 89 6 177z" />
    <glyph glyph-name="Ncommaaccent" unicode="&#x145;" horiz-adv-x="766" 
d="M166 708q-9 -362 -82 -703q59 6 115 9q29 304 29 591l8 2q30 -64 67 -148l64 -148q77 -179 135 -295q87 -6 134 -11q-1 9 -1 29v28q0 316 64 663q-30 -4 -82 -8q-52 -276 -74 -591q-22 47 -130 287q-86 192 -133 286q-38 2 -57 4q-38 2 -57 5zM284 2l-6 -97l-30 -75
q-10 -24 -32 -74q14 3 27 3q4 1 13 1.5t13 0.5q27 31 59 73l56 75q8 63 14 97q-48 -5 -84 -5h-15q-10 0 -15 1z" />
    <glyph glyph-name="ncommaaccent" unicode="&#x146;" horiz-adv-x="681" 
d="M551 330q1 12 1 36q0 69 -22 117q-16 32 -52 48q-31 14 -73 14q-95 0 -196 -74q0 23 1 34q0 23 1 35q-51 2 -79 6q-5 -285 -63 -541q41 4 115 8q16 157 20 300q7 80 47 125q27 27 62 36q33 9 68 9q25 0 46 -9q25 -11 35 -33q12 -28 12 -66q0 -15 -2 -45
q-28 -188 -38 -317q76 -4 117 -8q-6 74 -6 148q0 89 6 177zM233 3l-6 -97l-30 -75q-10 -24 -32 -74q13 3 27 3q4 1 13 1.5t13 0.5q27 31 59 73l56 75q8 63 14 97q-48 -5 -84 -5h-15q-10 0 -15 1z" />
    <glyph glyph-name="Ncaron" unicode="&#x147;" horiz-adv-x="766" 
d="M417 794h68q90 130 128 170q-9 -1 -28 -1q-5 -1 -14.5 -1t-14.5 -1q-23 -22 -52 -58l-49 -61q-59 93 -80 119q-55 3 -56 3q31 -42 52 -83zM166 708q-9 -362 -82 -703q59 6 115 9q29 304 29 591l8 2q30 -64 67 -148l64 -148q77 -179 135 -295q87 -6 134 -11q-1 9 -1 29v28
q0 316 64 663q-30 -4 -82 -8q-52 -276 -74 -591q-22 47 -130 287q-86 192 -133 286q-38 2 -57 4q-38 2 -57 5z" />
    <glyph glyph-name="ncaron" unicode="&#x148;" horiz-adv-x="681" 
d="M257 625h68q90 130 128 170q-9 -1 -28 -1q-5 0 -14.5 -1t-14.5 -1q-23 -22 -52 -58l-49 -61q-59 93 -80 119q-55 3 -56 3q31 -42 52 -83zM551 330q1 12 1 36q0 69 -22 117q-16 32 -52 48q-31 14 -73 14q-95 0 -196 -74q0 23 1 34q0 23 1 35q-51 2 -79 6q-5 -285 -63 -541
q41 4 115 8q16 157 20 300q7 80 47 125q27 27 62 36q33 9 68 9q25 0 46 -9q25 -11 35 -33q12 -28 12 -66q0 -15 -2 -45q-28 -188 -38 -317q76 -4 117 -8q-6 74 -6 148q0 89 6 177z" />
    <glyph glyph-name="Eng" unicode="&#x14a;" horiz-adv-x="766" 
d="M635 62v-28q0 -20 1 -29h-2l2 -1l-53 -145l-52 -89q-5 3 -90 33t-100 53q16 15 64.5 51t65.5 51q19 25 27 67q-50 99 -131 286l-64 148q-37 84 -67 148l-8 -2q0 -287 -29 -591q-56 -3 -115 -9q73 341 82 703q19 -3 57 -5q19 -2 57 -4q47 -94 133 -286q108 -240 130 -287
q22 315 74 591q52 4 82 8q-64 -347 -64 -663z" />
    <glyph glyph-name="eng" unicode="&#x14b;" horiz-adv-x="681" 
d="M551 330q-6 -88 -6 -177q0 -73 6 -147v-1q0 -50 -22 -82t-96 -90q-17 2 -40 4q-20 2 -24 4t-5 10q-2 14 -8 27q30 32 44.5 55.5t33.5 79.5q10 129 38 317q2 30 2 45q0 38 -12 66q-10 22 -35 33q-21 9 -46 9q-35 0 -68 -9q-35 -9 -62 -36q-40 -45 -47 -125
q-4 -143 -20 -300q-74 -4 -115 -8q58 256 63 541q28 -4 79 -6q-1 -12 -1 -35q-1 -11 -1 -34q101 74 196 74q42 0 73 -14q36 -16 52 -48q22 -48 22 -117q0 -24 -1 -36z" />
    <glyph glyph-name="Omacron" unicode="&#x14c;" horiz-adv-x="780" 
d="M309 909q6 -10 6 -26q0 -19 -12 -36q23 0 71 0.5t71 0.5t70 -0.5t71 -0.5q-7 8 -7 25q0 20 12 37q-47 -1 -141 -1t-141 1zM443 723q-71 0 -130 -21q-68 -23 -114 -73q-58 -61 -83 -158q-19 -73 -19 -171q0 -60 11 -108q15 -55 45 -95q35 -47 97 -71q58 -21 123 -21
q72 0 133 20q68 22 116 73q57 66 81 158q22 78 22 171q0 56 -12 107t-44 96q-34 48 -99 73q-57 20 -127 20zM437 654q108 0 160 -76q39 -66 39 -165q0 -61 -11 -106q-20 -68 -64 -95v1q-64 -37 -166 -37q-46 0 -84 7q-44 8 -78 29q-24 15 -38 51q-9 26 -9 66q0 67 17 129
q18 70 59 119q33 40 80 59q42 18 95 18z" />
    <glyph glyph-name="omacron" unicode="&#x14d;" 
d="M202 740q6 -10 6 -26q0 -20 -12 -36q24 0 71 0.5t71 0.5q23 0 70 -0.5t71 -0.5q-7 8 -7 25q0 21 12 37q-47 -1 -141 -1t-141 1zM334 544q-55 0 -97 -15q-49 -16 -85 -53q-42 -48 -61 -124q-14 -59 -14 -132q0 -97 40 -151q25 -37 73 -53q40 -15 94 -15t98 15q52 14 84 54
q43 48 62 125q14 53 14 132q0 95 -40 149q-28 37 -74 53q-41 15 -94 15zM329 489q76 0 108 -54q26 -47 26 -114q0 -45 -7 -79q-12 -53 -46 -76q-44 -25 -112 -25q-69 0 -109 25q-19 13 -25 37q-6 22 -6 47q0 49 10 95q13 53 42 90q44 54 119 54z" />
    <glyph glyph-name="Ohungarumlaut" unicode="&#x150;" horiz-adv-x="780" 
d="M530 961q-33 -40 -57 -82q-17 -29 -53 -85h34h11q6 0 10 -1q72 110 130 171q-38 -3 -75 -3zM365 961q-58 -117 -102 -171q4 0 14 1t14 1h28q36 42 61 83q21 34 57 86h-36h-36zM443 723q-71 0 -130 -21q-68 -23 -114 -73q-58 -61 -83 -158q-19 -73 -19 -171q0 -60 11 -108
q15 -55 45 -95q35 -47 97 -71q58 -21 123 -21q72 0 133 20q68 22 116 73q57 66 81 158q22 78 22 171q0 56 -12 107t-44 96q-34 48 -99 73q-57 20 -127 20zM437 654q108 0 160 -76q39 -66 39 -165q0 -61 -11 -106q-20 -68 -64 -95v1q-64 -37 -166 -37q-46 0 -84 7
q-44 8 -78 29q-24 15 -38 51q-9 26 -9 66q0 67 17 129q18 70 59 119q33 40 80 59q42 18 95 18z" />
    <glyph glyph-name="ohungarumlaut" unicode="&#x151;" 
d="M423 792q-33 -40 -57 -82q-17 -29 -53 -85h34h11q6 0 10 -1q72 110 130 171q-37 -3 -75 -3zM258 792q-58 -117 -102 -171q5 1 14.5 1t13.5 1h28q36 42 61 83q21 34 57 86h-36h-36zM334 544q-55 0 -97 -15q-49 -16 -85 -53q-42 -48 -61 -124q-14 -59 -14 -132
q0 -97 40 -151q25 -37 73 -53q40 -15 94 -15t98 15q52 14 84 54q43 48 62 125q14 53 14 132q0 95 -40 149q-28 37 -74 53q-41 15 -94 15zM329 489q76 0 108 -54q26 -47 26 -114q0 -45 -7 -79q-12 -53 -46 -76q-44 -25 -112 -25q-69 0 -109 25q-19 13 -25 37q-6 22 -6 47
q0 49 10 95q13 53 42 90q44 54 119 54z" />
    <glyph glyph-name="OE" unicode="&#x152;" horiz-adv-x="1108" 
d="M1033 724q-205 -14 -477 -14q-113 0 -180 -12q-103 -19 -172 -76q-59 -53 -87 -150q-20 -75 -20 -164q0 -64 15 -113q19 -61 58 -99q54 -46 138 -64q60 -13 157 -13q295 0 514 -14q-7 51 -9 127q-90 5 -355 9q8 131 19 244l334 2q2 27 8 71l-336 -3q6 64 22 203
q210 4 357 12q8 36 14 54zM508 658h67q-9 -87 -23 -259q-4 -46 -11.5 -132.5t-11.5 -125.5h-65q-67 0 -118 12q-64 17 -102 55q-58 56 -58 138q0 13 1 19q5 70 21 121q23 68 65 105q45 38 112 55q55 12 123 12z" />
    <glyph glyph-name="oe" unicode="&#x153;" horiz-adv-x="1030" 
d="M938 368q1 5 1 13q0 29 -12 54q-9 21 -26 47q-20 31 -62 50q-36 14 -82 14q-71 0 -132 -26q-68 -29 -110 -83q-28 54 -84 83q-51 26 -119 26q-50 0 -90 -15q-46 -18 -76 -53q-40 -50 -57 -133q-11 -57 -11 -135q0 -92 33 -142q21 -37 65 -53q38 -16 86 -16q68 0 125 25
q63 29 101 83q35 -56 104 -84q56 -24 137 -24q91 0 177 33q-5 52 -5 92v10q-81 -42 -177 -42q-46 0 -74 7q-37 8 -67 27q-22 23 -32 63q-7 27 -7 73q0 22 1 33v32q193 0 389 3q2 12 2 19q2 12 2 19zM865 383q-53 0 -157 -2q-51 -1 -156 -1q14 41 61 81q51 44 133 44
q62 0 92 -42q27 -35 27 -70v-5v-5zM316 495h5q70 0 113 -54q30 -47 30 -116q0 -47 -12 -84q-16 -49 -42 -78q-46 -53 -125 -53q-67 0 -99 51q-26 40 -26 107q0 49 8 90q12 51 38 86q39 51 110 51z" />
    <glyph glyph-name="Racute" unicode="&#x154;" horiz-adv-x="792" 
d="M449 1010q-44 -50 -80 -96q-45 -56 -81 -94l70 3q39 36 93 96q60 64 93 95q-15 -1 -95 -4zM472 341l1 6q58 18 91 81q27 53 27 117q0 41 -13 74q-18 38 -50 59q-52 30 -141 32q-136 4 -217 15v-32q0 -351 -63 -688q57 6 109 9q23 157 36 299q25 1 74 1q55 0 88 -23
q18 -16 35 -44q14 -27 24 -52q41 -126 62 -180q70 -3 128 -10q-51 103 -90 197q-4 8 -10 22.5t-7 17.5q-14 26 -21 38q-28 44 -63 58v3zM266 674q29 -3 127 -5q58 0 104 -32h-1q37 -26 37 -92v-16q-1 -6 -1 -16q-4 -46 -57 -81q-49 -30 -101 -30h-61h-62q11 140 15 272z" />
    <glyph glyph-name="racute" unicode="&#x155;" horiz-adv-x="431" 
d="M267 841q-44 -50 -80 -96q-45 -56 -81 -94l70 3q39 36 93 96q60 64 93 95q-15 -1 -95 -4zM398 461l12 81h-14q-35 0 -67 -7q-38 -10 -65 -26q-18 -11 -35 -19q-12 -7 -34 -21q0 10 2 30q0 9 2 29q-68 6 -70 6q-21 -283 -71 -529q53 8 106 9q4 51 16 259q7 87 44 137
q21 30 65 46q36 10 78 10q20 0 31 -5z" />
    <glyph glyph-name="Rcommaaccent" unicode="&#x156;" horiz-adv-x="792" 
d="M472 341l1 6q58 18 91 81q27 53 27 117q0 41 -13 74q-18 38 -50 59q-52 30 -141 32q-136 4 -217 15v-32q0 -351 -63 -688q57 6 109 9q23 157 36 299q25 1 74 1q55 0 88 -23q18 -16 35 -44q14 -27 24 -52q41 -126 62 -180q70 -3 128 -10q-51 103 -90 197q-4 8 -10 22.5
t-7 17.5q-14 26 -21 38q-28 44 -63 58v3zM266 674q29 -3 127 -5q58 0 104 -32h-1q37 -26 37 -92v-16q-1 -6 -1 -16q-4 -46 -57 -81q-49 -30 -101 -30h-61h-62q11 140 15 272zM315 0l-6 -97l-30 -75q-10 -24 -32 -74q13 3 27 3q4 1 13 1.5t13 0.5q27 31 59 73l56 75
q8 63 14 97q-48 -5 -84 -5h-15q-10 0 -15 1z" />
    <glyph glyph-name="rcommaaccent" unicode="&#x157;" horiz-adv-x="431" 
d="M398 461l12 81h-14q-35 0 -67 -7q-38 -10 -65 -26q-18 -11 -35 -19q-12 -7 -34 -21q0 10 2 30q0 9 2 29q-68 6 -70 6q-21 -283 -71 -529q53 8 106 9q4 51 16 259q7 87 44 137q21 30 65 46q36 10 78 10q20 0 31 -5zM55 -23l-6 -97l-30 -75q-10 -24 -32 -74q13 3 27 3
q4 1 13 1.5t13 0.5q27 31 59 73l56 75q8 63 14 97q-48 -5 -84 -5h-15q-10 0 -15 1z" />
    <glyph glyph-name="Rcaron" unicode="&#x158;" horiz-adv-x="792" 
d="M299 794h68q90 130 128 170q-9 -1 -28 -1q-5 -1 -14.5 -1t-14.5 -1q-23 -22 -52 -58l-49 -61q-59 93 -80 119q-55 3 -56 3q31 -42 52 -83zM472 341l1 6q58 18 91 81q27 53 27 117q0 41 -13 74q-18 38 -50 59q-52 30 -141 32q-136 4 -217 15v-32q0 -351 -63 -688
q57 6 109 9q23 157 36 299q25 1 74 1q55 0 88 -23q18 -16 35 -44q14 -27 24 -52q41 -126 62 -180q70 -3 128 -10q-51 103 -90 197q-4 8 -10 22.5t-7 17.5q-14 26 -21 38q-28 44 -63 58v3zM266 674q29 -3 127 -5q58 0 104 -32h-1q37 -26 37 -92v-16q-1 -6 -1 -16
q-4 -46 -57 -81q-49 -30 -101 -30h-61h-62q11 140 15 272z" />
    <glyph glyph-name="rcaron" unicode="&#x159;" horiz-adv-x="431" 
d="M117 625h68q90 130 128 170q-9 -1 -28 -1q-5 0 -14.5 -1t-14.5 -1q-23 -22 -52 -58l-49 -61q-59 93 -80 119q-55 3 -56 3q31 -42 52 -83zM398 461l12 81h-14q-35 0 -67 -7q-38 -10 -65 -26q-18 -11 -35 -19q-12 -7 -34 -21q0 10 2 30q0 9 2 29q-68 6 -70 6
q-21 -283 -71 -529q53 8 106 9q4 51 16 259q7 87 44 137q21 30 65 46q36 10 78 10q20 0 31 -5z" />
    <glyph glyph-name="Sacute" unicode="&#x15a;" horiz-adv-x="672" 
d="M433 919q-54 -60 -93 -96l-70 -3q36 38 81 94q36 46 80 96q80 3 95 4q-33 -31 -93 -95zM271 628q-55 -34 -55 -100q0 -44 24 -67q31 -24 103 -40l44 -9q51 -10 86 -24q21 -9 39 -21q69 -49 69 -146q0 -50 -14 -91q-17 -49 -55 -76q-45 -30 -103 -40q-45 -9 -106 -9
q-115 0 -220 31q13 75 21 143q92 -54 210 -54q81 0 129 31q23 15 35 30q16 20 16 40q0 39 -37 66q-29 20 -77 33q-21 6 -39 9q-38 6 -70 16q-42 12 -72 31q-46 32 -59 78q-8 32 -8 62q0 45 15 85q19 45 54 70q40 27 90 38q41 9 96 9q103 0 204 -26q-2 -14 -6 -40l-6 -44
q-97 41 -187 41q-74 0 -121 -26zM593 699q1 -1 1 -3l-3 1q0 1 0.5 2t0.5 2z" />
    <glyph glyph-name="sacute" unicode="&#x15b;" horiz-adv-x="564" 
d="M362 750q-54 -60 -93 -96l-70 -3q36 38 81 94q36 46 80 96q80 3 95 4q-33 -31 -93 -95zM310 544q102 0 166 -20l-5 -30q-4 -25 -5 -34q-64 30 -159 30q-53 0 -90 -19q-47 -23 -47 -75q0 -33 28 -54q22 -18 59 -28q30 -8 56 -12q52 -14 64 -19q36 -16 56 -34
q31 -30 31 -86q0 -36 -14 -69q-17 -37 -47 -55q-35 -23 -84 -31q-34 -7 -87 -7q-81 0 -173 23q8 45 17 120q76 -41 165 -41h10q3 -1 7 -1h7q44 0 73 16q37 19 40 59q-14 30 -24 43q-23 17 -59 27q-8 2 -31 7q-10 2 -56 14q-31 6 -56 21q-36 21 -44 55q-5 19 -5 45
q0 44 17 77q19 38 59 55q58 23 131 23zM479 523l-3 1q0 2 1 3z" />
    <glyph glyph-name="Scedilla" unicode="&#x15e;" horiz-adv-x="672" 
d="M271 628q-55 -34 -55 -100q0 -44 24 -67q31 -24 103 -40l44 -9q51 -10 86 -24q21 -9 39 -21q69 -49 69 -146q0 -50 -14 -91q-17 -49 -55 -76q-45 -30 -103 -40q-45 -9 -106 -9h-8q14 -30 14 -56q0 -21 -9 -40q-11 -23 -28 -31q-30 -14 -83 -14q-34 0 -71 8q1 4 2.5 12.5
t2.5 12.5l3 27q22 -11 59 -11h6q2 -1 6 -1q24 0 40 14q18 15 18 37q0 21 -10 44q-86 6 -162 29q13 75 21 143q92 -54 210 -54q81 0 129 31q23 15 35 30q16 20 16 40q0 39 -37 66q-29 20 -77 33q-21 6 -39 9q-38 6 -70 16q-42 12 -72 31q-46 32 -59 78q-8 32 -8 62
q0 45 15 85q19 45 54 70q40 27 90 38q41 9 96 9q103 0 204 -26q-2 -14 -6 -40l-6 -44q-97 41 -187 41q-74 0 -121 -26zM593 699q1 -1 1 -3l-3 1q0 1 0.5 2t0.5 2z" />
    <glyph glyph-name="scedilla" unicode="&#x15f;" horiz-adv-x="564" 
d="M310 544q102 0 166 -20l-5 -30q-4 -25 -5 -34q-64 30 -159 30q-53 0 -90 -19q-47 -23 -47 -75q0 -33 28 -54q22 -18 59 -28q30 -8 56 -12q52 -14 64 -19q36 -16 56 -34q31 -30 31 -86q0 -36 -14 -69q-17 -37 -47 -55q-35 -23 -84 -31q-27 -6 -55 -6q12 -29 12 -53
q0 -19 -8 -40q-11 -23 -28 -31q-30 -14 -83 -14q-34 0 -72 8q4 15 5 25q2 18 4 27q21 -11 59 -11h6q2 -1 6 -1q23 0 40 14q18 15 18 37q0 19 -8 38q-77 3 -156 23q8 45 17 120q76 -41 165 -41h10q3 -1 7 -1h7q44 0 73 16q37 19 40 59q-14 30 -24 43q-23 17 -59 27
q-8 2 -31 7q-10 2 -56 14q-31 6 -56 21q-36 21 -44 55q-5 19 -5 45q0 44 17 77q19 38 59 55q58 23 131 23zM479 523l-3 1q0 2 1 3z" />
    <glyph glyph-name="Scaron" unicode="&#x160;" horiz-adv-x="769" 
d="M462 800q-23 34 -40 62q-20 31 -45 56q19 0 28 -1h27q17 -17 75 -87q68 68 92 87h27q10 1 28 1q-35 -29 -105 -118q-7 1 -22 1h-22h-22q-14 0 -21 -1zM368 628q-55 -34 -55 -100q0 -44 24 -67q31 -24 103 -40l44 -9q51 -10 86 -24q21 -9 39 -21q69 -49 69 -146
q0 -50 -14 -91q-17 -49 -55 -76q-46 -30 -103 -40q-45 -9 -106 -9q-115 0 -220 31q12 75 21 143q92 -54 210 -54q80 0 130 31q23 17 34 30q16 20 16 40q0 39 -37 66q-29 20 -77 33q-21 6 -39 9q-38 6 -69 16q-42 11 -73 31q-46 32 -59 78q-8 32 -8 62q0 46 16 85
q17 45 53 70q40 27 90 38q41 9 96 9q105 0 204 -26q-1 -20 -6 -40l-6 -44q-97 41 -187 41q-74 0 -121 -26zM690 699q1 -1 1 -3l-3 1q0 3 1 4z" />
    <glyph glyph-name="scaron" unicode="&#x161;" horiz-adv-x="736" 
d="M474 675h-67q-32 58 -47 87q-24 47 -52 83q38 -2 56 -2q33 -41 80 -119q34 40 50 61q21 27 51 58q5 0 15 0.5t15 0.5t14 0.5t14 0.5q-41 -44 -129 -170zM302 521q59 23 132 23q102 0 166 -20q-1 -10 -5 -30l-6 -34q-64 30 -158 30q-54 0 -91 -19q-46 -24 -46 -75
q0 -34 27 -54q21 -17 59 -28q32 -9 57 -12q57 -16 64 -19q38 -17 56 -34q30 -29 30 -86q0 -40 -14 -69q-17 -37 -47 -55q-35 -23 -83 -31q-34 -7 -88 -7q-81 0 -173 23q3 15 18 120q76 -41 164 -41h11q2 -1 7 -1h6q45 0 74 16q38 19 39 59q-14 30 -23 43q-22 16 -59 27
q-8 2 -32 7q-10 2 -56 14q-30 6 -55 21q-37 22 -45 55q-5 25 -5 45q0 45 18 77q17 37 58 55zM602 523l-2 1v3z" />
    <glyph glyph-name="Tcedilla" unicode="&#x162;" horiz-adv-x="756" 
d="M465 709q144 0 312 16q-10 -50 -14 -75q-77 -3 -152 -3q-67 0 -100 2q-29 -402 -34 -631q-10 1 -27 1h-5q24 -42 24 -75q0 -20 -9 -40q-11 -23 -28 -30q-30 -15 -82 -15q-35 0 -72 8q1 4 2.5 13t2.5 13l3 26q22 -11 59 -11h7q1 -1 6 -1q21 0 40 14q18 16 18 38
q0 24 -19 60h-12q-12 -1 -37 -1q43 322 75 630q-38 -1 -113 -1q-93 0 -139 4q0 13 -0.5 37t-0.5 37q143 -16 295 -16z" />
    <glyph glyph-name="tcedilla" unicode="&#x163;" horiz-adv-x="539" 
d="M291 664q-43 0 -86 3q-7 -82 -13 -132q-36 3 -61 7q-2 -22 -2 -30l-2 -31q22 -2 31 -2q11 0 31 -2q-5 -62 -31 -293q-2 -28 -2 -45q0 -59 28 -87q14 -12 30 -18q33 -13 72 -16l36 -3q8 -1 22.5 -2.5t21.5 -1.5l43 -6q0 42 4 124q-12 2 -83 7q-23 0 -40 4q-22 5 -34 17
q-12 18 -12 51q0 6 0.5 17.5t0.5 16.5q5 39 13 117l12 116h21q49 0 99 3q2 9 4 29l3 29q-52 -3 -103 -3h-19q11 93 16 131zM351 -7q-15 -1 -46 -1q29 -50 29 -77q0 -22 -18 -38q-19 -14 -40 -14q-5 0 -6 1h-7q-37 0 -59 11l-3 -26q-1 -4 -2.5 -13t-2.5 -13q37 -8 72 -8
q52 0 82 15q17 7 28 30q9 19 9 40q0 40 -36 93z" />
    <glyph glyph-name="Tcaron" unicode="&#x164;" horiz-adv-x="756" 
d="M429 794h68q90 130 128 170q-9 -1 -28 -1q-5 -1 -14.5 -1t-14.5 -1q-23 -22 -52 -58l-49 -61q-59 93 -80 119q-55 3 -56 3q31 -42 52 -83zM170 725q0 -13 0.5 -37t0.5 -37q46 -4 139 -4q75 0 113 1q-32 -308 -75 -630q25 0 37 1h37h28q17 0 27 -1q5 229 34 631
q33 -2 100 -2q75 0 152 3q4 25 14 75q-168 -16 -312 -16q-152 0 -295 16z" />
    <glyph glyph-name="tcaron" unicode="&#x165;" horiz-adv-x="539" 
d="M506 820l-3 -42l-3 -42q-17 -54 -31 -91q-15 -45 -33 -90q11 2 33 4q6 0 17 0.5t17 0.5q29 45 54 90q17 30 53 90q6 54 12 85q-35 -5 -83 -5h-16h-17zM291 664q-43 0 -86 3q-7 -82 -13 -132q-36 3 -61 7q-2 -22 -2 -30l-2 -31q22 -2 31 -2q11 0 31 -2q-5 -62 -31 -293
q-2 -28 -2 -45q0 -59 28 -87q14 -12 30 -18q33 -13 72 -16l36 -3q8 -1 22.5 -2.5t21.5 -1.5l43 -6q0 42 4 124q-12 2 -83 7q-23 0 -40 4q-22 5 -34 17q-12 18 -12 51q0 6 0.5 17.5t0.5 16.5q5 39 13 117l12 116h21q49 0 99 3q2 9 4 29l3 29q-52 -3 -103 -3h-19q11 93 16 131
z" />
    <glyph glyph-name="Tbar" unicode="&#x166;" horiz-adv-x="756" 
d="M353 909q6 -10 6 -26q0 -19 -12 -36q23 0 70.5 0.5t71.5 0.5q23 0 70 -0.5t71 -0.5q-7 8 -7 25q0 20 12 37q-47 -1 -141 -1t-141 1zM170 725q0 -13 0.5 -37t0.5 -37q46 -4 139 -4q75 0 113 1q-32 -308 -75 -630q25 0 37 1h37h28q17 0 27 -1q5 229 34 631q33 -2 100 -2
q75 0 152 3q4 25 14 75q-168 -16 -312 -16q-152 0 -295 16z" />
    <glyph glyph-name="tbar" unicode="&#x167;" horiz-adv-x="539" 
d="M126 830q6 -11 6 -26q0 -20 -12 -36q24 0 71 0.5t71 0.5q23 0 70 -0.5t71 -0.5q-7 8 -7 25q0 21 12 37q-47 -1 -141 -1t-141 1zM291 664q-43 0 -86 3q-7 -82 -13 -132q-36 3 -61 7q-2 -22 -2 -30l-2 -31q22 -2 31 -2q11 0 31 -2q-5 -62 -31 -293q-2 -28 -2 -45
q0 -59 28 -87q14 -12 30 -18q33 -13 72 -16l36 -3q8 -1 22.5 -2.5t21.5 -1.5l43 -6q0 42 4 124q-12 2 -83 7q-23 0 -40 4q-22 5 -34 17q-12 18 -12 51q0 6 0.5 17.5t0.5 16.5q5 39 13 117l12 116h21q49 0 99 3q2 9 4 29l3 29q-52 -3 -103 -3h-19q11 93 16 131z" />
    <glyph glyph-name="Utilde" unicode="&#x168;" horiz-adv-x="740" 
d="M422 928l24 -26q25 -28 66 -28q24 0 37 12q25 21 42 71q10 25 19 43q-18 -1 -52 -1q-6 -14 -8 -22q-3 -9 -9 -23q-12 -26 -36 -29q-16 1 -32 19l-24 26q-30 28 -67 28q-17 0 -36 -11q-22 -15 -44 -74q-5 -17 -16 -41q8 1 25 1t26 1q1 1 8 21q1 6 9 24q12 25 34 28
q16 -1 34 -19zM169 724v-34q0 -196 -22 -416q-3 -32 -3 -63q0 -45 9 -77q11 -41 36 -70q33 -35 88 -48q45 -12 104 -12q62 0 109 13q63 18 100 55q36 39 54 96q13 45 18 106q19 257 56 450q-15 -1 -45 -5q-5 0 -14 -1t-16.5 -1.5t-14.5 -0.5q-21 -125 -44 -362
q-4 -49 -14 -86q-11 -46 -39 -80q-26 -29 -64 -40q-34 -10 -74 -10q-44 0 -73 10q-39 11 -58 40q-27 40 -27 113q0 17 2 53q17 182 21 361q-43 3 -89 9z" />
    <glyph glyph-name="utilde" unicode="&#x169;" horiz-adv-x="655" 
d="M347 759l24 -26q25 -28 66 -28q23 0 37 12q25 21 42 71q10 25 19 43q-18 -1 -52 -1q-6 -14 -8 -22q-3 -9 -9 -23q-12 -26 -36 -29q-16 1 -32 19l-24 26q-30 28 -67 28q-17 0 -36 -11q-22 -15 -44 -74q-5 -17 -16 -41q8 1 25 1t26 1q1 1 8 21q1 6 9 24q12 25 34 28
q16 -1 34 -19zM116 216q-3 -26 -3 -51q0 -56 20 -103q17 -32 54 -48q32 -14 75 -14h13q50 0 102 30q48 29 78 76q-6 -49 -9 -95q28 -1 79 -5q2 272 59 536q-32 -3 -96 -7q-21 -121 -32 -222q-12 -79 -54 -125t-119 -46q-56 0 -82 45q-17 34 -17 92v9v8q10 128 11 240
q-15 3 -32 3l-32 3v-21v-22q0 -141 -15 -283z" />
    <glyph glyph-name="Umacron" unicode="&#x16a;" horiz-adv-x="740" 
d="M297 909q6 -10 6 -26q0 -19 -12 -36q23 0 71 0.5t71 0.5t70 -0.5t71 -0.5q-7 8 -7 25q0 20 12 37q-47 -1 -141 -1t-141 1zM169 724v-34q0 -196 -22 -416q-3 -32 -3 -63q0 -45 9 -77q11 -41 36 -70q33 -35 88 -48q45 -12 104 -12q62 0 109 13q63 18 100 55q36 39 54 96
q13 45 18 106q19 257 56 450q-15 -1 -45 -5q-5 0 -14 -1t-16.5 -1.5t-14.5 -0.5q-21 -125 -44 -362q-4 -49 -14 -86q-11 -46 -39 -80q-26 -29 -64 -40q-34 -10 -74 -10q-44 0 -73 10q-39 11 -58 40q-27 40 -27 113q0 17 2 53q17 182 21 361q-43 3 -89 9z" />
    <glyph glyph-name="umacron" unicode="&#x16b;" horiz-adv-x="655" 
d="M222 740q6 -10 6 -26q0 -20 -12 -36q24 0 71 0.5t71 0.5q23 0 70 -0.5t71 -0.5q-7 8 -7 25q0 21 12 37q-47 -1 -141 -1t-141 1zM116 216q-3 -26 -3 -51q0 -56 20 -103q17 -32 54 -48q32 -14 75 -14h13q50 0 102 30q48 29 78 76q-6 -49 -9 -95q28 -1 79 -5q2 272 59 536
q-32 -3 -96 -7q-21 -121 -32 -222q-12 -79 -54 -125t-119 -46q-56 0 -82 45q-17 34 -17 92v9v8q10 128 11 240q-15 3 -32 3l-32 3v-21v-22q0 -141 -15 -283z" />
    <glyph glyph-name="Uring" unicode="&#x16e;" horiz-adv-x="740" 
d="M543 914q0 2 0.5 7t0.5 8q0 47 -31 78q-32 30 -78 30q-60 0 -99 -41q-36 -41 -36 -98q0 -49 31 -80q29 -29 78 -29q55 0 92 35q37 34 42 90zM496 913q-3 -31 -26 -54q-22 -22 -55 -22q-30 0 -48 18q-19 19 -19 48q0 36 23 61q22 24 58 24q30 -1 49 -19t19 -48v-4
q-1 -1 -1 -4zM169 724v-34q0 -196 -22 -416q-3 -32 -3 -63q0 -45 9 -77q11 -41 36 -70q33 -35 88 -48q45 -12 104 -12q62 0 109 13q63 18 100 55q36 39 54 96q13 45 18 106q19 257 56 450q-15 -1 -45 -5q-5 0 -14 -1t-16.5 -1.5t-14.5 -0.5q-21 -125 -44 -362
q-4 -49 -14 -86q-11 -46 -39 -80q-26 -29 -64 -40q-34 -10 -74 -10q-44 0 -73 10q-39 11 -58 40q-27 40 -27 113q0 17 2 53q17 182 21 361q-43 3 -89 9z" />
    <glyph glyph-name="uring" unicode="&#x16f;" horiz-adv-x="655" 
d="M468 745q0 2 0.5 7t0.5 8q0 47 -31 78q-32 30 -78 30q-60 0 -99 -41q-36 -41 -36 -98q0 -49 31 -80q29 -29 78 -29q55 0 92 35q37 34 42 90zM421 744q-3 -31 -26 -54q-22 -22 -55 -22q-30 0 -48 18q-19 19 -19 48q0 36 23 61q22 24 58 24q30 -1 49 -19t19 -48v-4
q-1 -1 -1 -4zM116 216q-3 -26 -3 -51q0 -56 20 -103q17 -32 54 -48q32 -14 75 -14h13q50 0 102 30q48 29 78 76q-6 -49 -9 -95q28 -1 79 -5q2 272 59 536q-32 -3 -96 -7q-21 -121 -32 -222q-12 -79 -54 -125t-119 -46q-56 0 -82 45q-17 34 -17 92v9v8q10 128 11 240
q-15 3 -32 3l-32 3v-21v-22q0 -141 -15 -283z" />
    <glyph glyph-name="Uhungarumlaut" unicode="&#x170;" horiz-adv-x="740" 
d="M518 961q-33 -40 -57 -82q-17 -29 -53 -85h34h11q6 0 10 -1q72 110 130 171q-37 -3 -75 -3zM353 961q-58 -117 -102 -171q5 0 14.5 1t13.5 1h28q36 42 61 83q21 34 57 86h-36h-36zM169 724v-34q0 -196 -22 -416q-3 -32 -3 -63q0 -45 9 -77q11 -41 36 -70q33 -35 88 -48
q45 -12 104 -12q62 0 109 13q63 18 100 55q36 39 54 96q13 45 18 106q19 257 56 450q-15 -1 -45 -5q-5 0 -14 -1t-16.5 -1.5t-14.5 -0.5q-21 -125 -44 -362q-4 -49 -14 -86q-11 -46 -39 -80q-26 -29 -64 -40q-34 -10 -74 -10q-44 0 -73 10q-39 11 -58 40q-27 40 -27 113
q0 17 2 53q17 182 21 361q-43 3 -89 9z" />
    <glyph glyph-name="uhungarumlaut" unicode="&#x171;" horiz-adv-x="655" 
d="M443 792q-33 -40 -57 -82q-17 -29 -53 -85h34h11q6 0 10 -1q72 110 130 171q-37 -3 -75 -3zM278 792q-58 -117 -102 -171q4 1 13.5 1t14.5 1h28q36 42 61 83q21 34 57 86h-36h-36zM116 216q-3 -26 -3 -51q0 -56 20 -103q17 -32 54 -48q32 -14 75 -14h13q50 0 102 30
q48 29 78 76q-6 -49 -9 -95q28 -1 79 -5q2 272 59 536q-32 -3 -96 -7q-21 -121 -32 -222q-12 -79 -54 -125t-119 -46q-56 0 -82 45q-17 34 -17 92v9v8q10 128 11 240q-15 3 -32 3l-32 3v-21v-22q0 -141 -15 -283z" />
    <glyph glyph-name="Uogonek" unicode="&#x172;" horiz-adv-x="740" 
d="M169 724v-34q0 -196 -22 -416q-3 -32 -3 -63q0 -45 9 -77q11 -41 36 -70q33 -35 88 -48q45 -12 104 -12q62 0 109 13q63 18 100 55q36 39 54 96q13 45 18 106q19 257 56 450q-15 -1 -45 -5q-5 0 -14 -1t-16.5 -1.5t-14.5 -0.5q-21 -125 -44 -362q-4 -49 -14 -86
q-11 -46 -39 -80q-26 -29 -64 -40q-34 -10 -74 -10q-44 0 -73 10q-39 11 -58 40q-27 40 -27 113q0 17 2 53q17 182 21 361q-43 3 -89 9zM380 4q-21 -25 -33 -48q-18 -33 -18 -63q0 -39 28 -54q22 -10 71 -12q31 0 61 6v8v7q0 25 1 38q-23 -11 -60 -11q-19 0 -32.5 11
t-13.5 29q0 11 5 24q8 24 25 44q10 14 15 20h-25q-16 0 -24 1z" />
    <glyph glyph-name="uogonek" unicode="&#x173;" horiz-adv-x="655" 
d="M116 216q-3 -26 -3 -51q0 -56 20 -103q17 -32 54 -48q32 -14 75 -14h13q50 0 102 30q48 29 78 76q-6 -49 -9 -95q28 -1 79 -5q2 272 59 536q-32 -3 -96 -7q-21 -121 -32 -222q-12 -79 -54 -125t-119 -46q-56 0 -82 45q-17 34 -17 92v9v8q10 128 11 240q-15 3 -32 3l-32 3
v-21v-22q0 -141 -15 -283zM236 -1q-21 -25 -33 -48q-18 -33 -18 -63q0 -39 28 -54q22 -10 71 -12q31 0 61 6v8v7q0 25 1 38q-23 -11 -60 -11q-19 0 -32.5 11t-13.5 29q0 11 5 24q8 24 25 44q10 14 15 20h-25q-16 0 -24 1z" />
    <glyph glyph-name="Wcircumflex" unicode="&#x174;" horiz-adv-x="1058" 
d="M678 894h-68q-5 -8 -15.5 -22.5t-15.5 -21.5q-10 -15 -30 -43q-37 -53 -67 -84q4 1 13.5 1t14.5 1q19 0 29 1q36 38 52 58l49 61q20 -33 38 -61q16 -27 42 -58q9 -1 29 -1q4 -1 14 -1t14 -1q-20 26 -28 41q-26 39 -48 86q-5 8 -12.5 23.5t-10.5 20.5zM253 719l-83 6
q46 -160 70 -351q22 -175 28 -361q98 4 147 4q84 167 182 388q4 -15 23 -92.5t27.5 -108t24.5 -86.5t31 -100q11 -1 34 -1.5t34 -0.5q22 0 68 -2q46 200 99 361q66 195 143 350l-42 -3q-28 -2 -43 -2q-110 -207 -228 -532q-33 86 -63 171q-40 114 -61 172h-77l-98 -167
q-55 -97 -100 -167q-24 154 -47 264q-32 148 -69 258z" />
    <glyph glyph-name="wcircumflex" unicode="&#x175;" horiz-adv-x="868" 
d="M547 725h-68q-5 -7 -15.5 -22t-15.5 -22q-10 -15 -30 -43q-37 -53 -67 -84q5 0 14 1t14 1q19 0 29 1q36 38 52 58l49 61q20 -33 38 -61q16 -27 42 -58q9 -1 29 -1q4 0 14 -1t14 -1q-20 26 -28 41q-26 39 -48 86q-5 8 -12.5 23.5t-10.5 20.5zM131 542q38 -115 63 -261
q16 -104 31 -269q9 0 28 0.5t29 0.5q18 1 56 1q50 89 128 247q36 -125 81 -246q10 0 29.5 -0.5t29.5 -1.5q10 0 30 -0.5t30 -0.5q37 157 76 270q48 142 111 260q-29 -2 -81 -4q-73 -139 -157 -384q-37 84 -84 204q-8 -1 -21 -1h-21h-71q-40 -68 -59 -102q-5 -8 -27 -44.5
t-34 -56.5q-38 235 -89 383q-13 1 -39 2.5t-39 2.5z" />
    <glyph glyph-name="Ycircumflex" unicode="&#x176;" horiz-adv-x="745" 
d="M526 894h-68q-5 -8 -15.5 -22.5t-15.5 -21.5q-10 -15 -30 -43q-37 -53 -67 -84q4 1 14 1t14 1q19 0 29 1q36 38 52 58l49 61q20 -33 38 -61q16 -27 42 -58q9 -1 29 -1q5 -1 14.5 -1t13.5 -1q-20 26 -28 41q-26 39 -48 86q-5 8 -12.5 23.5t-10.5 20.5zM170 725
q68 -144 197 -470q-21 -213 -24 -237q24 0 36 1h36h26q17 0 26 -1q10 153 17 237q119 205 139 238q68 119 146 232q-53 -7 -96 -8q-89 -130 -236 -371q-112 250 -173 370q-32 2 -47 4q-14 1 -47 5z" />
    <glyph glyph-name="ycircumflex" unicode="&#x177;" horiz-adv-x="665" 
d="M436 725h-68q-5 -7 -15.5 -22t-15.5 -22q-10 -15 -30 -43q-37 -53 -67 -84q4 0 14 1t14 1q19 0 29 1q36 38 52 58l49 61q20 -33 38 -61q16 -27 42 -58q9 -1 29 -1q5 0 14.5 -1t13.5 -1q-20 26 -28 41q-26 39 -48 86q-5 8 -12.5 23.5t-10.5 20.5zM368 -41q46 98 68 147
t68 147q86 180 145 289l-86 -9q-65 -107 -181 -317q-65 128 -168 317q-43 3 -83 9q67 -158 190 -493q-2 -4 -10 -17.5t-13 -20.5l-22 -39q-4 -4 -12 -12.5t-12 -12.5q-31 -31 -53 -38q-25 -8 -59 -8q-5 0 -15.5 -0.5t-15.5 -1.5q-6 -36 -8 -54l-9 -55q14 2 46 4q51 2 91 14
q42 13 73 49q22 25 47 67q1 2 19 35z" />
    <glyph glyph-name="Ydieresis" unicode="&#x178;" horiz-adv-x="745" 
d="M348 909q6 -18 6 -35q0 -31 -14 -55q8 0 23 0.5t22 0.5h44q8 32 8 71v8v8q-30 0 -44 1q-30 0 -45 1zM539 907q-9 -33 -9 -65q0 -4 0.5 -11t0.5 -11h45q7 0 22 -0.5t23 -0.5q-6 16 -6 34q0 30 13 56q-15 -1 -45 -1q-15 -1 -44 -1zM170 725q68 -144 197 -470
q-21 -213 -24 -237q24 0 36 1h36h26q17 0 26 -1q10 153 17 237q119 205 139 238q68 119 146 232q-53 -7 -96 -8q-89 -130 -236 -371q-112 250 -173 370q-32 2 -47 4q-14 1 -47 5z" />
    <glyph glyph-name="Zacute" unicode="&#x179;" horiz-adv-x="811" 
d="M515 1010q-44 -50 -80 -96q-45 -56 -81 -94l70 3q39 36 93 96q60 64 93 95q-15 -1 -95 -4zM169 723v-74q126 -10 265 -10q99 0 180 4q-270 -269 -495 -506q-3 -15 -7.5 -41.5t-8.5 -48.5t-8 -42q154 14 295 14q140 0 291 -14q-1 29 -1 88v25v24q-120 8 -270 8
q-94 0 -188 -3q112 112 249 254q164 168 249 253q4 14 7 35q5 33 6 35q-136 -14 -291 -14q-140 0 -273 13z" />
    <glyph glyph-name="zacute" unicode="&#x17a;" horiz-adv-x="621" 
d="M407 841q-44 -50 -80 -96q-45 -56 -81 -94l70 3q39 36 93 96q60 64 93 95q-15 -1 -95 -4zM130 540v-58q72 -6 181 -6q71 0 143 3q-226 -210 -371 -350q-12 -81 -21 -124q104 10 219 10q123 0 210 -10q0 11 -0.5 34t-0.5 35v22q0 13 1 21q-95 6 -191 6q-35 0 -105 -2
q58 58 168 172q28 30 166 173q2 11 6.5 36.5t7.5 39.5q-116 -11 -221 -11q-96 0 -192 9z" />
    <glyph glyph-name="Zdotaccent" unicode="&#x17b;" horiz-adv-x="811" 
d="M373 922v-8v-9q0 -33 -8 -73q32 2 48 2q14 0 42 -2v6q-1 2 -1 7q0 38 9 77q-24 -3 -45 -3q-22 0 -45 3zM169 723v-74q126 -10 265 -10q99 0 180 4q-270 -269 -495 -506q-3 -15 -7.5 -41.5t-8.5 -48.5t-8 -42q154 14 295 14q140 0 291 -14q-1 29 -1 88v25v24
q-120 8 -270 8q-94 0 -188 -3q112 112 249 254q164 168 249 253q4 14 7 35q5 33 6 35q-136 -14 -291 -14q-140 0 -273 13z" />
    <glyph glyph-name="zdotaccent" unicode="&#x17c;" horiz-adv-x="621" 
d="M265 753v-8v-9q0 -33 -8 -73q32 2 48 2q14 0 42 -2v6q-1 2 -1 7q0 38 9 77q-24 -3 -45 -3q-22 0 -45 3zM130 540v-58q72 -6 181 -6q71 0 143 3q-226 -210 -371 -350q-12 -81 -21 -124q104 10 219 10q123 0 210 -10q0 11 -0.5 34t-0.5 35v22q0 13 1 21q-95 6 -191 6
q-35 0 -105 -2q58 58 168 172q28 30 166 173q2 11 6.5 36.5t7.5 39.5q-116 -11 -221 -11q-96 0 -192 9z" />
    <glyph glyph-name="Zcaron" unicode="&#x17d;" horiz-adv-x="811" 
d="M365 794h68q90 130 128 170q-9 -1 -28 -1q-5 -1 -14.5 -1t-14.5 -1q-23 -22 -52 -58l-49 -61q-59 93 -80 119q-55 3 -56 3q31 -42 52 -83zM169 723v-74q126 -10 265 -10q99 0 180 4q-270 -269 -495 -506q-3 -15 -7.5 -41.5t-8.5 -48.5t-8 -42q154 14 295 14
q140 0 291 -14q-1 29 -1 88v25v24q-120 8 -270 8q-94 0 -188 -3q112 112 249 254q164 168 249 253q4 14 7 35q5 33 6 35q-136 -14 -291 -14q-140 0 -273 13z" />
    <glyph glyph-name="zcaron" unicode="&#x17e;" horiz-adv-x="621" 
d="M257 625h68q90 130 128 170q-9 -1 -28 -1q-5 0 -14.5 -1t-14.5 -1q-23 -22 -52 -58l-49 -61q-59 93 -80 119q-55 3 -56 3q31 -42 52 -83zM130 540v-58q72 -6 181 -6q71 0 143 3q-226 -210 -371 -350q-12 -81 -21 -124q104 10 219 10q123 0 210 -10q0 11 -0.5 34t-0.5 35
v22q0 13 1 21q-95 6 -191 6q-35 0 -105 -2q58 58 168 172q28 30 166 173q2 11 6.5 36.5t7.5 39.5q-116 -11 -221 -11q-96 0 -192 9z" />
    <glyph glyph-name="florin" unicode="&#x192;" horiz-adv-x="632" 
d="M597 746q29 0 58 -8q-1 -5 -2.5 -14t-1.5 -13q-4 -19 -5 -31q-26 16 -59 16q-54 0 -95 -39q-36 -36 -49 -93q-27 -90 -45 -162l67 6q24 3 67 7l-6 -59q-24 -2 -72.5 -5.5t-73.5 -5.5q-3 -16 -12 -55.5t-13 -60.5q-16 -68 -26 -115q-21 -85 -36 -123q-25 -68 -66 -111
q-74 -74 -186 -74q-37 0 -64 9q15 41 24 74l24 73q38 -23 79 -23q58 0 93 49q23 31 46 101q49 210 59 256q-9 0 -28 -1.5t-29 -2.5q-37 -4 -58 -5q0 9 2 29q0 9 2 29q42 2 65 4q10 0 31.5 1.5t32.5 2.5q8 27 22 79q2 7 8 30t8.5 33t8 27t11.5 30.5t13 25.5q39 67 104 100
q34 16 70 17q5 1 16 1q5 1 16 1zM657 740l1 -1v-2l-3 1l1 2v2z" />
    <glyph glyph-name="Ohorn" unicode="&#x1a0;" horiz-adv-x="780" 
d="M778 623l43 -22q0 -16 -6 -32q-28 -75 -77 -93l-15 -6q2 -28 2 -43q0 -93 -22 -171q-24 -92 -81 -158q-48 -51 -116 -73q-61 -20 -133 -20q-65 0 -123 21q-62 24 -97 71q-30 40 -45 95q-11 48 -11 108q0 98 19 171q25 97 83 158q46 50 114 73q59 21 130 21q70 0 127 -20
q65 -25 99 -73q32 -45 44 -96l4 -16q5 0 11 3q24 10 47 71q4 15 3 31zM625 307q11 45 11 106q0 99 -39 165q-52 76 -160 76q-53 0 -95 -18q-47 -19 -80 -59q-41 -49 -59 -119q-17 -62 -17 -129q0 -40 9 -66q14 -36 38 -51q34 -21 78 -29q38 -7 84 -7q102 0 166 37v-1
q44 27 64 95z" />
    <glyph glyph-name="ohorn" unicode="&#x1a1;" 
d="M603 544l43 -22q0 -16 -6 -32q-28 -75 -77 -93l-25 -9q4 -27 4 -61q0 -79 -14 -132q-19 -77 -62 -125q-32 -40 -84 -54q-44 -15 -98 -15t-94 15q-48 16 -73 53q-40 54 -40 151q0 73 14 132q19 76 61 124q36 37 85 53q42 15 97 15q53 0 94 -15q46 -16 74 -53
q16 -23 22 -40q24 4 29 6q24 10 47 71q4 15 3 31zM456 242q7 34 7 79q0 67 -26 114q-32 54 -108 54q-75 0 -119 -54q-29 -37 -42 -90q-10 -46 -10 -95q0 -24 6 -47q6 -24 25 -37q40 -25 109 -25q68 0 112 25q34 23 46 76z" />
    <glyph glyph-name="Uhorn" unicode="&#x1af;" horiz-adv-x="740" 
d="M747 617l43 -22q0 -16 -6 -32q-28 -75 -77 -93q-20 -8 -28 -10q-7 -62 -17 -186q-5 -61 -18 -106q-18 -57 -54 -96q-37 -37 -100 -55q-47 -13 -109 -13q-59 0 -104 12q-55 13 -88 48q-25 29 -36 70q-9 32 -9 77q0 31 3 63q22 220 22 416v34q46 -6 89 -9q-4 -179 -21 -361
q-2 -36 -2 -53q0 -73 27 -113q19 -29 58 -40q29 -10 73 -10q40 0 74 10q38 11 64 40q28 34 39 80q10 37 14 86q23 237 44 362l45 3q30 4 45 5q-21 -106 -33 -213q8 2 12 4q24 10 47 71q4 15 3 31z" />
    <glyph glyph-name="uhorn" unicode="&#x1b0;" horiz-adv-x="655" 
d="M624 580l43 -22q0 -16 -6 -32q-28 -75 -77 -93l-23 -9q-35 -209 -36 -418q-51 4 -79 5q3 46 9 95q-30 -47 -78 -76q-52 -30 -102 -30h-13q-43 0 -75 14q-37 16 -54 48q-20 47 -20 103q0 25 3 51q15 142 15 283v22v21l32 -3q17 0 32 -3q-1 -112 -11 -240v-8v-9
q0 -58 17 -92q26 -45 82 -45q77 0 119 46t54 125q11 101 32 222q64 4 96 7l-13 -65q1 0 3 1q24 10 47 71q4 15 3 31z" />
    <glyph glyph-name="Acaron" unicode="&#x1cd;" horiz-adv-x="801" 
d="M357 794h68q90 130 128 170q-9 -1 -28 -1q-5 -1 -14.5 -1t-14.5 -1q-23 -22 -52 -58l-49 -61q-59 93 -80 119q-55 3 -56 3q31 -42 52 -83zM449 710h-86q-29 -59 -83 -177l-83 -179q-100 -211 -180 -349l122 9q35 71 53 117q110 2 162 2q53 0 163 -2q11 -66 25 -117
q64 -3 129 -9q-39 94 -65 173q-45 133 -106 354zM399 642q25 -102 48 -204q37 -156 49 -203h-66h-67q-88 0 -133 -1q58 136 85 204q41 102 84 204z" />
    <glyph glyph-name="acaron" unicode="&#x1ce;" horiz-adv-x="617" 
d="M257 625h68q90 130 128 170q-9 -1 -28 -1q-5 0 -14.5 -1t-14.5 -1q-23 -22 -52 -58l-49 -61q-59 93 -80 119q-55 3 -56 3q31 -42 52 -83zM501 312q3 25 3 53q0 85 -41 132q-26 26 -72 38q-35 9 -85 9q-83 0 -181 -30q0 -5 -0.5 -15t-0.5 -15q0 -20 -1 -30q74 35 169 35
q32 -2 58 -10q28 -9 54 -30q28 -27 28 -75q0 -8 -2 -22l-1 -14q-20 -1 -61 -1h-61q-91 0 -154 -31q-46 -22 -71 -76q-21 -45 -21 -100q0 -59 30 -90q39 -39 115 -39q65 0 114 22q58 25 91 75q0 -8 -0.5 -22t-0.5 -21t-0.5 -22t-1.5 -22q75 -6 79 -6v22v22q0 125 14 263z
M376 284l-1 -25q-2 -9 -4 -29q-1 -10 -5 -30q-9 -33 -29 -53q-17 -12 -50 -20q-18 -3 -54 -3q-39 0 -71 7q-16 4 -26 20q-9 15 -9 33q5 53 41 77q20 10 31 12q29 8 65 10q22 0 32 1h80z" />
    <glyph glyph-name="Icaron" unicode="&#x1cf;" horiz-adv-x="329" 
d="M157 775h68q90 130 128 170q-9 -1 -28 -1q-5 0 -14.5 -1t-14.5 -1q-23 -22 -52 -58l-49 -61q-59 93 -80 119q-55 3 -56 3q31 -42 52 -83zM168 717q-44 -459 -77 -712q28 14 56 14q29 0 52 -14q18 334 53 715q-19 -10 -46 -10q-21 0 -38 7z" />
    <glyph glyph-name="icaron" unicode="&#x1d0;" horiz-adv-x="293" 
d="M149 595h68q90 130 128 170q-9 -1 -28 -1q-5 0 -14.5 -1t-14.5 -1q-23 -22 -52 -58l-49 -61q-59 93 -80 119q-55 3 -56 3q31 -42 52 -83zM131 542q-17 -262 -48 -537q20 10 42 10t39 -10q17 249 47 537q-20 -11 -42 -11q-21 0 -38 11z" />
    <glyph glyph-name="Ocaron" unicode="&#x1d1;" horiz-adv-x="780" 
d="M385 794h68q90 130 128 170q-9 -1 -28 -1q-5 -1 -14.5 -1t-14.5 -1q-23 -22 -52 -58l-49 -61q-59 93 -80 119q-55 3 -56 3q31 -42 52 -83zM443 723q-71 0 -130 -21q-68 -23 -114 -73q-58 -61 -83 -158q-19 -73 -19 -171q0 -60 11 -108q15 -55 45 -95q35 -47 97 -71
q58 -21 123 -21q72 0 133 20q68 22 116 73q57 66 81 158q22 78 22 171q0 56 -12 107t-44 96q-34 48 -99 73q-57 20 -127 20zM437 654q108 0 160 -76q39 -66 39 -165q0 -61 -11 -106q-20 -68 -64 -95v1q-64 -37 -166 -37q-46 0 -84 7q-44 8 -78 29q-24 15 -38 51q-9 26 -9 66
q0 67 17 129q18 70 59 119q33 40 80 59q42 18 95 18z" />
    <glyph glyph-name="ocaron" unicode="&#x1d2;" 
d="M278 625h68q90 130 128 170q-9 -1 -28 -1q-5 0 -14.5 -1t-14.5 -1q-23 -22 -52 -58l-49 -61q-59 93 -80 119q-55 3 -56 3q31 -42 52 -83zM334 544q-55 0 -97 -15q-49 -16 -85 -53q-42 -48 -61 -124q-14 -59 -14 -132q0 -97 40 -151q25 -37 73 -53q40 -15 94 -15t98 15
q52 14 84 54q43 48 62 125q14 53 14 132q0 95 -40 149q-28 37 -74 53q-41 15 -94 15zM329 489q76 0 108 -54q26 -47 26 -114q0 -45 -7 -79q-12 -53 -46 -76q-44 -25 -112 -25q-69 0 -109 25q-19 13 -25 37q-6 22 -6 47q0 49 10 95q13 53 42 90q44 54 119 54z" />
    <glyph glyph-name="Ucaron" unicode="&#x1d3;" horiz-adv-x="740" 
d="M373 794h68q90 130 128 170q-9 -1 -28 -1q-5 -1 -14.5 -1t-14.5 -1q-23 -22 -52 -58l-49 -61q-59 93 -80 119q-55 3 -56 3q31 -42 52 -83zM169 724v-34q0 -196 -22 -416q-3 -32 -3 -63q0 -45 9 -77q11 -41 36 -70q33 -35 88 -48q45 -12 104 -12q62 0 109 13q63 18 100 55
q36 39 54 96q13 45 18 106q19 257 56 450q-15 -1 -45 -5q-5 0 -14 -1t-16.5 -1.5t-14.5 -0.5q-21 -125 -44 -362q-4 -49 -14 -86q-11 -46 -39 -80q-26 -29 -64 -40q-34 -10 -74 -10q-44 0 -73 10q-39 11 -58 40q-27 40 -27 113q0 17 2 53q17 182 21 361q-43 3 -89 9z" />
    <glyph glyph-name="ucaron" unicode="&#x1d4;" horiz-adv-x="655" 
d="M298 625h68q90 130 128 170q-9 -1 -28 -1q-5 0 -14.5 -1t-14.5 -1q-23 -22 -52 -58l-49 -61q-59 93 -80 119q-55 3 -56 3q31 -42 52 -83zM116 216q-3 -26 -3 -51q0 -56 20 -103q17 -32 54 -48q32 -14 75 -14h13q50 0 102 30q48 29 78 76q-6 -49 -9 -95q28 -1 79 -5
q2 272 59 536q-32 -3 -96 -7q-21 -121 -32 -222q-12 -79 -54 -125t-119 -46q-56 0 -82 45q-17 34 -17 92v9v8q10 128 11 240q-15 3 -32 3l-32 3v-21v-22q0 -141 -15 -283z" />
    <glyph glyph-name="Udieresismacron" unicode="&#x1d5;" horiz-adv-x="740" 
d="M297 909q6 -10 6 -26q0 -19 -12 -36q23 0 71 0.5t71 0.5t70 -0.5t71 -0.5q-7 8 -7 25q0 20 12 37q-47 -1 -141 -1t-141 1zM275 826q6 -18 6 -37q0 -31 -15 -60q8 0 24.5 0.5t24.5 1.5h49q7 35 7 74v10v9q-32 0 -47 1q-33 0 -49 1zM480 824q-9 -36 -9 -71v-11q0 -2 0.5 -6
t0.5 -5q8 0 24 -0.5t24 -0.5q32 0 48 -1q-6 17 -6 37q0 32 15 60q-16 -1 -48 -1q-8 0 -24.5 -0.5t-24.5 -0.5zM169 724v-34q0 -196 -22 -416q-3 -32 -3 -63q0 -45 9 -77q11 -41 36 -70q33 -35 88 -48q45 -12 104 -12q62 0 109 13q63 18 100 55q36 39 54 96q13 45 18 106
q19 257 56 450q-15 -1 -45 -5q-5 0 -14 -1t-16.5 -1.5t-14.5 -0.5q-21 -125 -44 -362q-4 -49 -14 -86q-11 -46 -39 -80q-26 -29 -64 -40q-34 -10 -74 -10q-44 0 -73 10q-39 11 -58 40q-27 40 -27 113q0 17 2 53q17 182 21 361q-43 3 -89 9z" />
    <glyph glyph-name="udieresismacron" unicode="&#x1d6;" horiz-adv-x="655" 
d="M222 740q6 -10 6 -26q0 -20 -12 -36q24 0 71 0.5t71 0.5q23 0 70 -0.5t71 -0.5q-7 8 -7 25q0 21 12 37q-47 -1 -141 -1t-141 1zM200 657q6 -18 6 -37q0 -32 -15 -60q8 0 24.5 0.5t24.5 1.5h49q7 35 7 74v10v9q-32 0 -47 1q-33 0 -49 1zM405 655q-9 -36 -9 -71v-11
q0 -2 0.5 -6t0.5 -5q8 0 24 -0.5t24 -0.5q32 0 48 -1q-6 16 -6 37q0 31 15 60q-16 -1 -48 -1q-8 0 -24.5 -0.5t-24.5 -0.5zM116 216q-3 -26 -3 -51q0 -56 20 -103q17 -32 54 -48q32 -14 75 -14h13q50 0 102 30q48 29 78 76q-6 -49 -9 -95q28 -1 79 -5q2 272 59 536
q-32 -3 -96 -7q-21 -121 -32 -222q-12 -79 -54 -125t-119 -46q-56 0 -82 45q-17 34 -17 92v9v8q10 128 11 240q-15 3 -32 3l-32 3v-21v-22q0 -141 -15 -283z" />
    <glyph glyph-name="Udieresisacute" unicode="&#x1d7;" horiz-adv-x="740" 
d="M364 731h-49q-8 -1 -24.5 -1.5t-24.5 -0.5q15 29 15 60q0 19 -6 37q16 -1 49 -1q13 -1 42 -1q44 49 77 90q36 46 80 96q80 3 95 4q-33 -31 -93 -95q-54 -60 -93 -96l-61 -3v-5v-10q0 -39 -7 -74zM529 825q32 0 48 1q-15 -28 -15 -60q0 -20 6 -37q-16 1 -48 1
q-8 0 -24 0.5t-24 0.5q0 1 -0.5 5t-0.5 6v11q0 35 9 71q8 0 24.5 0.5t24.5 0.5zM673 719q30 4 45 5q-37 -193 -56 -450q-5 -61 -18 -106q-18 -57 -54 -96q-37 -37 -100 -55q-47 -13 -109 -13q-59 0 -104 12q-55 13 -88 48q-25 29 -36 70q-9 32 -9 77q0 31 3 63
q22 220 22 416v34q46 -6 89 -9q-4 -179 -21 -361q-2 -36 -2 -53q0 -73 27 -113q19 -29 58 -40q29 -10 73 -10q40 0 74 10q38 11 64 40q28 34 39 80q10 37 14 86q23 237 44 362z" />
    <glyph glyph-name="udieresisacute" unicode="&#x1d8;" horiz-adv-x="655" 
d="M289 562h-49q-8 -1 -24.5 -1.5t-24.5 -0.5q15 28 15 60q0 19 -6 37q16 -1 49 -1q13 -1 42 -1q44 49 77 90q36 46 80 96q80 3 95 4q-33 -31 -93 -95q-54 -60 -93 -96l-61 -3v-5v-10q0 -39 -7 -74zM454 656q32 0 48 1q-15 -29 -15 -60q0 -21 6 -37q-16 1 -48 1
q-8 0 -24 0.5t-24 0.5q0 1 -0.5 5t-0.5 6v11q0 35 9 71q8 0 24.5 0.5t24.5 0.5zM488 535q64 4 96 7q-57 -264 -59 -536q-51 4 -79 5q3 46 9 95q-30 -47 -78 -76q-52 -30 -102 -30h-13q-43 0 -75 14q-37 16 -54 48q-20 47 -20 103q0 25 3 51q15 142 15 283v22v21l32 -3
q17 0 32 -3q-1 -112 -11 -240v-8v-9q0 -58 17 -92q26 -45 82 -45q77 0 119 46t54 125q11 101 32 222z" />
    <glyph glyph-name="Udieresiscaron" unicode="&#x1d9;" horiz-adv-x="740" 
d="M364 731h-49q-8 -1 -24.5 -1.5t-24.5 -0.5q15 29 15 60q0 19 -6 37q16 -1 49 -1q11 -1 33 -1l-30 57q-21 41 -52 83q1 0 56 -3q21 -26 80 -119l49 61q29 36 52 58q5 1 14.5 1t14.5 1q19 0 28 1q-38 -40 -128 -170h-68l-2 4q0 -35 -7 -67zM529 825q32 0 48 1
q-15 -28 -15 -60q0 -20 6 -37q-16 1 -48 1q-8 0 -24 0.5t-24 0.5q0 1 -0.5 5t-0.5 6v11q0 35 9 71q8 0 24.5 0.5t24.5 0.5zM673 719q30 4 45 5q-37 -193 -56 -450q-5 -61 -18 -106q-18 -57 -54 -96q-37 -37 -100 -55q-47 -13 -109 -13q-59 0 -104 12q-55 13 -88 48
q-25 29 -36 70q-9 32 -9 77q0 31 3 63q22 220 22 416v34q46 -6 89 -9q-4 -179 -21 -361q-2 -36 -2 -53q0 -73 27 -113q19 -29 58 -40q29 -10 73 -10q40 0 74 10q38 11 64 40q28 34 39 80q10 37 14 86q23 237 44 362z" />
    <glyph glyph-name="udieresiscaron" unicode="&#x1da;" horiz-adv-x="655" 
d="M289 562h-49q-8 -1 -24.5 -1.5t-24.5 -0.5q15 28 15 60q0 19 -6 37q16 -1 49 -1q11 -1 33 -1l-30 57q-21 41 -52 83q1 0 56 -3q21 -26 80 -119l49 61q29 36 52 58q5 0 14.5 1t14.5 1q19 0 28 1q-38 -40 -128 -170h-68l-2 4q0 -35 -7 -67zM454 656q32 0 48 1
q-15 -29 -15 -60q0 -21 6 -37q-16 1 -48 1q-8 0 -24 0.5t-24 0.5q0 1 -0.5 5t-0.5 6v11q0 35 9 71q8 0 24.5 0.5t24.5 0.5zM488 535q64 4 96 7q-57 -264 -59 -536q-51 4 -79 5q3 46 9 95q-30 -47 -78 -76q-52 -30 -102 -30h-13q-43 0 -75 14q-37 16 -54 48q-20 47 -20 103
q0 25 3 51q15 142 15 283v22v21l32 -3q17 0 32 -3q-1 -112 -11 -240v-8v-9q0 -58 17 -92q26 -45 82 -45q77 0 119 46t54 125q11 101 32 222z" />
    <glyph glyph-name="Udieresisgrave" unicode="&#x1db;" horiz-adv-x="740" 
d="M396 966l-28 43q-58 0 -85 3q24 -40 42 -84q16 -38 38 -86h16q51 0 104 -3q-24 31 -31 41q-31 45 -56 86zM275 826q6 -18 6 -37q0 -31 -15 -60q8 0 24.5 0.5t24.5 1.5h49q7 35 7 74v10v9q-32 0 -47 1q-33 0 -49 1zM480 824q-9 -36 -9 -71v-11q0 -2 0.5 -6t0.5 -5
q8 0 24 -0.5t24 -0.5q32 0 48 -1q-6 17 -6 37q0 32 15 60q-16 -1 -48 -1q-8 0 -24.5 -0.5t-24.5 -0.5zM169 724v-34q0 -196 -22 -416q-3 -32 -3 -63q0 -45 9 -77q11 -41 36 -70q33 -35 88 -48q45 -12 104 -12q62 0 109 13q63 18 100 55q36 39 54 96q13 45 18 106
q19 257 56 450q-15 -1 -45 -5q-5 0 -14 -1t-16.5 -1.5t-14.5 -0.5q-21 -125 -44 -362q-4 -49 -14 -86q-11 -46 -39 -80q-26 -29 -64 -40q-34 -10 -74 -10q-44 0 -73 10q-39 11 -58 40q-27 40 -27 113q0 17 2 53q17 182 21 361q-43 3 -89 9z" />
    <glyph glyph-name="udieresisgrave" unicode="&#x1dc;" horiz-adv-x="655" 
d="M321 797l-28 43q-58 0 -85 3q24 -41 42 -84q16 -38 38 -86h16q52 0 104 -3q-24 31 -31 41q-31 45 -56 86zM200 657q6 -18 6 -37q0 -32 -15 -60q8 0 24.5 0.5t24.5 1.5h49q7 35 7 74v10v9q-32 0 -47 1q-33 0 -49 1zM405 655q-9 -36 -9 -71v-11q0 -2 0.5 -6t0.5 -5
q8 0 24 -0.5t24 -0.5q32 0 48 -1q-6 16 -6 37q0 31 15 60q-16 -1 -48 -1q-8 0 -24.5 -0.5t-24.5 -0.5zM116 216q-3 -26 -3 -51q0 -56 20 -103q17 -32 54 -48q32 -14 75 -14h13q50 0 102 30q48 29 78 76q-6 -49 -9 -95q28 -1 79 -5q2 272 59 536q-32 -3 -96 -7
q-21 -121 -32 -222q-12 -79 -54 -125t-119 -46q-56 0 -82 45q-17 34 -17 92v9v8q10 128 11 240q-15 3 -32 3l-32 3v-21v-22q0 -141 -15 -283z" />
    <glyph glyph-name="Adieresismacron" unicode="&#x1de;" horiz-adv-x="801" 
d="M281 909q6 -10 6 -26q0 -19 -12 -36q23 0 71 0.5t71 0.5t70 -0.5t71 -0.5q-7 8 -7 25q0 20 12 37q-47 -1 -141 -1t-141 1zM259 826q6 -18 6 -37q0 -31 -15 -60q8 0 24.5 0.5t24.5 1.5h49q7 35 7 74v10v9q-32 0 -47 1q-33 0 -49 1zM464 824q-9 -36 -9 -71v-11q0 -2 0.5 -6
t0.5 -5q8 0 24 -0.5t24 -0.5q32 0 48 -1q-6 17 -6 37q0 32 15 60q-16 -1 -48 -1q-8 0 -24.5 -0.5t-24.5 -0.5zM449 710h-86q-29 -59 -83 -177l-83 -179q-100 -211 -180 -349l122 9q35 71 53 117q110 2 162 2q53 0 163 -2q11 -66 25 -117q64 -3 129 -9q-39 94 -65 173
q-45 133 -106 354zM399 642q25 -102 48 -204q37 -156 49 -203h-66h-67q-88 0 -133 -1q58 136 85 204q41 102 84 204z" />
    <glyph glyph-name="adieresismacron" unicode="&#x1df;" horiz-adv-x="617" 
d="M181 740q6 -10 6 -26q0 -20 -12 -36q23 0 71 0.5t71 0.5t70 -0.5t71 -0.5q-7 8 -7 25q0 21 12 37q-47 -1 -141 -1t-141 1zM159 657q6 -18 6 -37q0 -32 -15 -60q8 0 24.5 0.5t24.5 1.5h49q7 35 7 74v10v9q-32 0 -47 1q-33 0 -49 1zM364 655q-9 -36 -9 -71v-11q0 -2 0.5 -6
t0.5 -5q8 0 24 -0.5t24 -0.5q32 0 48 -1q-6 16 -6 37q0 31 15 60q-16 -1 -48 -1q-8 0 -24.5 -0.5t-24.5 -0.5zM501 312q3 25 3 53q0 85 -41 132q-26 26 -72 38q-35 9 -85 9q-83 0 -181 -30q0 -5 -0.5 -15t-0.5 -15q0 -20 -1 -30q74 35 169 35q32 -2 58 -10q28 -9 54 -30
q28 -27 28 -75q0 -8 -2 -22l-1 -14q-20 -1 -61 -1h-61q-91 0 -154 -31q-46 -22 -71 -76q-21 -45 -21 -100q0 -59 30 -90q39 -39 115 -39q65 0 114 22q58 25 91 75q0 -8 -0.5 -22t-0.5 -21t-0.5 -22t-1.5 -22q75 -6 79 -6v22v22q0 125 14 263zM376 284l-1 -25q-2 -9 -4 -29
q-1 -10 -5 -30q-9 -33 -29 -53q-17 -12 -50 -20q-18 -3 -54 -3q-39 0 -71 7q-16 4 -26 20q-9 15 -9 33q5 53 41 77q20 10 31 12q29 8 65 10q22 0 32 1h80z" />
    <glyph glyph-name="Gcaron" unicode="&#x1e6;" horiz-adv-x="789" 
d="M378 794h68q90 130 128 170q-9 -1 -28 -1q-5 -1 -14.5 -1t-14.5 -1q-23 -22 -52 -58l-49 -61q-59 93 -80 119q-55 3 -56 3q31 -42 52 -83zM581 228l-3 -41q0 -1 -1 -2q0 -1 -1 -2q-14 -14 -31 -19q-32 -13 -80 -15q-27 0 -39 -1q-62 2 -99 10q-56 10 -90 35
q-28 24 -40 68q-9 29 -9 82q0 72 17 130q22 75 67 123q39 38 98 54q47 13 109 13q61 0 117 -18q57 -20 99 -59l6 41q2 11 7 41q-49 31 -110 44q-55 11 -122 11q-81 0 -143 -19q-80 -23 -128 -73q-44 -41 -68 -100q-22 -53 -32 -118q-8 -52 -8 -113q0 -65 13 -110
q15 -58 48 -95q42 -50 118 -73q59 -17 142 -17q72 0 132 15q64 14 123 51q0 139 14 291h-122q-40 -1 -121 -1l-7 -92h73q49 0 73 -1q0 -14 -2 -40z" />
    <glyph glyph-name="gcaron" unicode="&#x1e7;" horiz-adv-x="631" 
d="M291 625h68q90 130 128 170q-9 -1 -28 -1q-5 0 -14.5 -1t-14.5 -1q-23 -22 -52 -58l-49 -61q-59 93 -80 119q-55 3 -56 3q31 -42 52 -83zM509 69q29 270 70 473q-7 -1 -21 -2.5t-20 -1.5l-40 -4q-8 -32 -12 -47l-12 -47q-19 46 -62 73q-44 27 -96 27h-15q-44 0 -83 -16
q-43 -18 -70 -50q-38 -42 -55 -112q-13 -53 -13 -119q0 -103 41 -162q44 -70 136 -70q114 0 179 88q0 -3 -0.5 -11t-0.5 -11q-2 -16 -2 -23q-14 -49 -57 -96q-21 -24 -62 -38q-33 -10 -70 -10q-82 0 -142 32q-13 -105 -20 -147q63 -17 149 -17q67 0 106 10q58 11 97 49
q38 42 55 111q4 14 20 121zM420 281q-4 -43 -13 -66q-13 -37 -42 -53q-46 -21 -113 -21q-68 0 -99 21q-11 11 -17 26q-10 24 -12 62q0 12 -2 32q4 47 12 78q15 46 36 72q40 49 113 49q65 0 101 -39q38 -41 38 -123q0 -25 -2 -38z" />
    <glyph glyph-name="Oslashacute" unicode="&#x1fe;" horiz-adv-x="781" 
d="M492 1010q-44 -50 -80 -96q-45 -56 -81 -94l70 3q39 36 93 96q60 64 93 95q-15 -1 -95 -4zM143 111q-5 -6 -14.5 -16t-17.5 -18.5t-15 -15.5l-48 -51q23 -23 35 -34q16 16 46 48q32 34 47 49q75 -68 199 -68q71 0 132 20q70 25 115 73q55 62 81 154q23 80 23 167
q0 117 -48 197q32 34 49 51q16 16 48 50q-9 8 -17 17q-14 14 -18 17q-62 -64 -94 -98q-35 33 -93 54q-48 15 -110 15q-70 0 -130 -20q-69 -24 -114 -73q-57 -61 -82 -156q-20 -76 -20 -169q0 -118 46 -193zM585 589q-90 -95 -177 -189q-174 -186 -178 -190q-57 73 -57 146
q0 62 18 125q19 67 58 116q31 37 77 57q42 19 92 19q58 0 104 -20q34 -14 63 -64zM608 541q2 -1 4 -1h4q24 -58 24 -105q0 -21 -3 -43q-17 -68 -29 -99q-21 -55 -53 -88q-30 -27 -75 -44q-30 -11 -83 -19q-49 0 -74 1q-31 3 -60 25q116 124 173 186q86 96 172 187z" />
    <glyph glyph-name="oslashacute" unicode="&#x1ff;" horiz-adv-x="617" 
d="M396 841q-44 -50 -80 -96q-45 -56 -81 -94l70 3q39 36 93 96q60 64 93 95q-15 -1 -95 -4zM109 84l-42 -45q-21 -24 -43 -46q9 -6 17 -14l16 -15q28 30 41 43l40 42q53 -48 148 -48q51 0 96 16q51 16 83 53q42 46 62 122q15 60 15 130q0 82 -31 140l41 46q6 7 13 14.5
t15.5 16.5t13.5 14l-33 29q-6 -7 -12.5 -14t-15 -15.5t-12.5 -13.5l-40 -42q-54 46 -145 46q-53 0 -98 -14q-49 -15 -85 -53q-42 -46 -61 -121q-15 -55 -15 -129q0 -87 32 -142zM426 438q-66 -72 -129 -144q-125 -140 -130 -145q-11 32 -11 81q0 58 11 100q11 53 41 93
q22 28 53 42q27 14 63 14q67 0 102 -41zM447 390l5 -1q10 -33 10 -70q0 -51 -10 -101q-13 -58 -45 -97q-41 -56 -113 -56q-67 0 -103 42q43 47 127 141q45 51 126 142h3z" />
    <glyph glyph-name="Scommaaccent" unicode="&#x218;" horiz-adv-x="672" 
d="M271 628q-55 -34 -55 -100q0 -44 24 -67q31 -24 103 -40l44 -9q51 -10 86 -24q21 -9 39 -21q69 -49 69 -146q0 -50 -14 -91q-17 -49 -55 -76q-45 -30 -103 -40q-45 -9 -106 -9q-115 0 -220 31q13 75 21 143q92 -54 210 -54q81 0 129 31q23 15 35 30q16 20 16 40
q0 39 -37 66q-29 20 -77 33q-21 6 -39 9q-38 6 -70 16q-42 12 -72 31q-46 32 -59 78q-8 32 -8 62q0 45 15 85q19 45 54 70q40 27 90 38q41 9 96 9q103 0 204 -26q-2 -14 -6 -40l-6 -44q-97 41 -187 41q-74 0 -121 -26zM593 699q1 -1 1 -3l-3 1q0 1 0.5 2t0.5 2zM251 -13h15
q36 0 84 5q-6 -34 -14 -97l-56 -75q-32 -42 -59 -73q-4 0 -13 -0.5t-13 -1.5q-13 0 -27 -3q22 50 32 74l30 75l3 48t3 49q5 -1 15 -1z" />
    <glyph glyph-name="scommaaccent" unicode="&#x219;" horiz-adv-x="564" 
d="M310 544q102 0 166 -20l-5 -30q-4 -25 -5 -34q-64 30 -159 30q-53 0 -90 -19q-47 -23 -47 -75q0 -33 28 -54q22 -18 59 -28q30 -8 56 -12q52 -14 64 -19q36 -16 56 -34q31 -30 31 -86q0 -36 -14 -69q-17 -37 -47 -55q-35 -23 -84 -31q-34 -7 -87 -7q-81 0 -173 23
q8 45 17 120q76 -41 165 -41h10q3 -1 7 -1h7q44 0 73 16q37 19 40 59q-14 30 -24 43q-23 17 -59 27q-8 2 -31 7q-10 2 -56 14q-31 6 -56 21q-36 21 -44 55q-5 19 -5 45q0 44 17 77q19 38 59 55q58 23 131 23zM479 523l-3 1q0 2 1 3zM173 -28h15q36 0 84 5q-6 -34 -14 -97
l-56 -75q-32 -42 -59 -73q-4 0 -13 -0.5t-13 -1.5q-13 0 -27 -3q22 50 32 74l30 75l3 48t3 49q5 -1 15 -1z" />
    <glyph glyph-name="uni021A" unicode="&#x21a;" horiz-adv-x="756" 
d="M170 725q0 -13 0.5 -37t0.5 -37q46 -4 139 -4q75 0 113 1q-32 -308 -75 -630q25 0 37 1h37h28q17 0 27 -1q5 229 34 631q33 -2 100 -2q75 0 152 3q4 25 14 75q-168 -16 -312 -16q-152 0 -295 16zM347 -15l-6 -97l-30 -75q-10 -24 -32 -74q13 3 27 3q4 1 13 1.5t13 0.5
q27 31 59 73l56 75q8 63 14 97q-48 -5 -84 -5h-15q-10 0 -15 1z" />
    <glyph glyph-name="uni021B" unicode="&#x21b;" horiz-adv-x="539" 
d="M291 664q-43 0 -86 3q-7 -82 -13 -132q-36 3 -61 7q-2 -22 -2 -30l-2 -31q22 -2 31 -2q11 0 31 -2q-5 -62 -31 -293q-2 -28 -2 -45q0 -59 28 -87q14 -12 30 -18q33 -13 72 -16l36 -3q8 -1 22.5 -2.5t21.5 -1.5l43 -6q0 42 4 124q-12 2 -83 7q-23 0 -40 4q-22 5 -34 17
q-12 18 -12 51q0 6 0.5 17.5t0.5 16.5q5 39 13 117l12 116h21q49 0 99 3q2 9 4 29l3 29q-52 -3 -103 -3h-19q11 93 16 131zM237 -18l-6 -97l-30 -75q-10 -24 -32 -74q13 3 27 3q4 1 13 1.5t13 0.5q27 31 59 73l56 75q8 63 14 97q-48 -5 -84 -5h-15q-10 0 -15 1z" />
    <glyph glyph-name="uni0228" unicode="&#x228;" horiz-adv-x="697" 
d="M393 709q112 0 228 15l-6 -37q-5 -20 -6 -38q-101 -10 -213 -10q-78 0 -141 4q-6 -105 -15 -220q20 0 61 -0.5t61 -0.5q102 0 205 3q-2 -12 -4 -36l-3 -36h-163q-54 -1 -163 -1q-6 -87 -20 -200q69 3 138 3q121 0 217 -8q-2 -47 -2 -142q-102 12 -183 13q29 -45 29 -82
q0 -20 -9 -40q-11 -23 -28 -30q-30 -15 -82 -15q-35 0 -72 8q1 4 2.5 13t2.5 13l3 26q22 -11 59 -11h7q1 -1 6 -1q21 0 40 14q18 16 18 38q0 29 -24 68q-109 0 -229 -14q58 343 63 720q108 -16 223 -16z" />
    <glyph glyph-name="uni0229" unicode="&#x229;" horiz-adv-x="636" 
d="M535 427q7 -28 7 -75v-12v-10q0 -10 -1 -15q0 -4 -2 -14q-162 -2 -243 -2q-46 0 -69 1h-71q0 -6 -0.5 -18.5t-0.5 -19.5q0 -38 7 -60q11 -32 32 -48q33 -19 73 -27q35 -7 77 -7q57 0 86 3q45 3 81 21v-28v-28v-27q0 -19 1 -28q-93 -32 -196 -32q-64 5 -105 18
q-57 17 -88 53q-26 29 -39 73q-10 39 -10 84q0 63 19 126q22 74 63 117q37 38 90 55q42 15 102 17q57 -4 83 -12q45 -13 71 -39q22 -24 33 -66zM224 365h54q136 0 205 2q-3 59 -40 99q-39 41 -98 41q-79 0 -124 -44q-48 -40 -51 -97q18 -1 54 -1zM330 -7q31 0 46 1
q36 -53 36 -93q0 -21 -9 -40q-11 -23 -28 -30q-30 -15 -82 -15q-35 0 -72 8q1 4 2.5 13t2.5 13l3 26q22 -11 59 -11h7q1 -1 6 -1q21 0 40 14q18 16 18 38q0 27 -29 77z" />
    <glyph glyph-name="uni022A" unicode="&#x22a;" horiz-adv-x="780" 
d="M309 909q6 -10 6 -26q0 -19 -12 -36q23 0 71 0.5t71 0.5t70 -0.5t71 -0.5q-7 8 -7 25q0 20 12 37q-47 -1 -141 -1t-141 1zM287 826q6 -18 6 -37q0 -31 -15 -60q8 0 24.5 0.5t24.5 1.5h49q7 35 7 74v10v9q-32 0 -47 1q-33 0 -49 1zM492 824q-9 -36 -9 -71v-11q0 -2 0.5 -6
t0.5 -5q8 0 24 -0.5t24 -0.5q32 0 48 -1q-6 17 -6 37q0 32 15 60q-16 -1 -48 -1q-8 0 -24.5 -0.5t-24.5 -0.5zM443 723q-71 0 -130 -21q-68 -23 -114 -73q-58 -61 -83 -158q-19 -73 -19 -171q0 -60 11 -108q15 -55 45 -95q35 -47 97 -71q58 -21 123 -21q72 0 133 20
q68 22 116 73q57 66 81 158q22 78 22 171q0 56 -12 107t-44 96q-34 48 -99 73q-57 20 -127 20zM437 654q108 0 160 -76q39 -66 39 -165q0 -61 -11 -106q-20 -68 -64 -95v1q-64 -37 -166 -37q-46 0 -84 7q-44 8 -78 29q-24 15 -38 51q-9 26 -9 66q0 67 17 129q18 70 59 119
q33 40 80 59q42 18 95 18z" />
    <glyph glyph-name="uni022B" unicode="&#x22b;" 
d="M202 740q6 -10 6 -26q0 -20 -12 -36q24 0 71 0.5t71 0.5q23 0 70 -0.5t71 -0.5q-7 8 -7 25q0 21 12 37q-47 -1 -141 -1t-141 1zM180 657q6 -18 6 -37q0 -32 -15 -60q8 0 24.5 0.5t24.5 1.5h49q7 35 7 74v10v9q-32 0 -47 1q-33 0 -49 1zM385 655q-9 -36 -9 -71v-11
q0 -2 0.5 -6t0.5 -5q8 0 24 -0.5t24 -0.5q32 0 48 -1q-6 16 -6 37q0 31 15 60q-16 -1 -48 -1q-8 0 -24.5 -0.5t-24.5 -0.5zM334 544q-55 0 -97 -15q-49 -16 -85 -53q-42 -48 -61 -124q-14 -59 -14 -132q0 -97 40 -151q25 -37 73 -53q40 -15 94 -15t98 15q52 14 84 54
q43 48 62 125q14 53 14 132q0 95 -40 149q-28 37 -74 53q-41 15 -94 15zM329 489q76 0 108 -54q26 -47 26 -114q0 -45 -7 -79q-12 -53 -46 -76q-44 -25 -112 -25q-69 0 -109 25q-19 13 -25 37q-6 22 -6 47q0 49 10 95q13 53 42 90q44 54 119 54z" />
    <glyph glyph-name="circumflex" unicode="&#x2c6;" horiz-adv-x="441" 
d="M344 792h-68q-5 -8 -15.5 -22t-15.5 -22q-10 -15 -30 -43q-37 -53 -67 -84q5 1 14 1t14 1q19 0 29 1q36 38 52 58l49 61q20 -33 38 -61q16 -27 42 -58q9 -1 29 -1q4 -1 13.5 -1t14.5 -1q-20 26 -28 41q-26 39 -48 86q-5 8 -12.5 23.5t-10.5 20.5z" />
    <glyph glyph-name="caron" unicode="&#x2c7;" horiz-adv-x="441" 
d="M283 625h68q90 130 128 170q-9 -1 -28 -1q-5 0 -14.5 -1t-14.5 -1q-23 -22 -52 -58l-49 -61q-59 93 -80 119q-55 3 -56 3q31 -42 52 -83z" />
    <glyph glyph-name="breve" unicode="&#x2d8;" horiz-adv-x="441" 
d="M183 786l1 -4q-2 1 -1 4zM429 779q8 0 24 0.5t24 0.5l-5 -10q-5 -9 -7 -14q-14 -32 -24 -48q-5 -9 -16 -20q-20 -20 -52 -29q-21 -7 -54 -7q-64 0 -94 28q-17 20 -28 52q-3 9 -7 27q-1 4 -3 11.5t-3 11.5q2 -2 4 -2q3 -1 13 -1h16q11 0 14 -1q6 -30 30 -51q23 -20 56 -20
h3h4h3h3q35 0 60 21q27 20 39 51z" />
    <glyph glyph-name="dotaccent" unicode="&#x2d9;" horiz-adv-x="248" 
d="M176 753v-8v-9q0 -33 -8 -73q32 2 48 2q14 0 42 -2v6q-1 2 -1 7q0 38 9 77q-24 -3 -45 -3q-23 0 -45 3z" />
    <glyph glyph-name="ring" unicode="&#x2da;" horiz-adv-x="391" 
d="M417 745q0 2 0.5 7t0.5 8q0 47 -31 78q-32 30 -78 30q-60 0 -99 -41q-36 -41 -36 -98q0 -49 31 -80q29 -29 78 -29q55 0 92 35q37 34 42 90zM370 744q-3 -31 -26 -54q-22 -22 -55 -22q-30 0 -48 18q-19 19 -19 48q0 36 23 61q22 24 58 24q30 -1 49 -19t19 -48v-4
q-1 -1 -1 -4z" />
    <glyph glyph-name="ogonek" unicode="&#x2db;" horiz-adv-x="322" 
d="M44 -8q-21 -25 -33 -48q-18 -33 -18 -63q0 -39 28 -54q22 -10 71 -12q31 0 61 6v8v7q0 25 1 38q-23 -11 -60 -11q-19 0 -32.5 11t-13.5 29q0 11 5 24q8 24 25 44q10 14 15 20h-25q-16 0 -24 1z" />
    <glyph glyph-name="tilde" unicode="&#x2dc;" horiz-adv-x="443" 
d="M289 700l24 -26q25 -28 66 -28q23 0 37 12q25 21 42 71q10 25 19 43q-18 -1 -52 -1q-6 -14 -8 -22q-3 -9 -9 -23q-12 -26 -36 -29q-16 1 -32 19l-24 26q-30 28 -67 28q-17 0 -36 -11q-22 -15 -44 -74q-5 -17 -16 -41q8 1 25 1t26 1q0 1 8 21q1 6 9 24q12 25 34 28
q16 -1 34 -19z" />
    <glyph glyph-name="hungarumlaut" unicode="&#x2dd;" horiz-adv-x="452" 
d="M415 792q-33 -40 -57 -82q-17 -29 -53 -85h34h11q6 0 10 -1q72 110 130 171q-37 -3 -75 -3zM250 792q-58 -117 -102 -171q5 1 14 1t14 1h28q36 42 61 83q21 34 57 86h-36h-36z" />
    <glyph glyph-name="hookabovecomb" unicode="&#x309;" horiz-adv-x="0" 
d="M103 579v-21q32 16 52 16q25 0 25 -17q0 -6 -16 -17l-11 -9q-13 -10 -16 -15q-3 -6 -3 -16v-3h28q0 6 2 12q6 6 9 8l11 7q25 20 25 31q0 15 -15 26q-17 10 -45 10q-19 0 -46 -12z" />
    <glyph glyph-name="uni031B" unicode="&#x31b;" horiz-adv-x="0" 
d="M125 505l5 -50q22 2 58 15q49 18 77 93q6 16 6 32l-43 22q1 -16 -3 -31q-23 -61 -47 -71q-8 -3 -24.5 -5.5t-28.5 -4.5z" />
    <glyph glyph-name="dotbelowcomb" unicode="&#x323;" horiz-adv-x="0" 
d="M54 0q0 -60 -11 -114q16 2 48 2q30 0 46 -2q0 60 10 114q-16 -2 -47 -2t-46 2z" />
    <glyph glyph-name="uni0326" unicode="&#x326;" horiz-adv-x="0" 
d="M55 110l-6 -97l-30 -75q-10 -24 -32 -74q13 3 27 3q4 1 13 1.5t13 0.5q27 31 59 73l56 75q8 63 14 97q-48 -5 -84 -5h-15q-10 0 -15 1z" />
    <glyph glyph-name="uni032D" unicode="&#x32d;" horiz-adv-x="0" 
d="M124 -18h-68q-5 -7 -15.5 -22t-15.5 -22q-10 -15 -30 -43q-37 -53 -67 -84q4 1 14 1t14 1q19 0 29 1q36 38 52 58l49 61q20 -33 38 -61q16 -27 42 -58q9 -1 29 -1q4 -1 13.5 -1t14.5 -1q-20 26 -28 41q-26 39 -48 86q-5 8 -12.5 23.5t-10.5 20.5z" />
    <glyph glyph-name="uni0331" unicode="&#x331;" horiz-adv-x="0" 
d="M-68 -28q6 -10 6 -26q0 -20 -12 -36q24 0 71 0.5t71 0.5q23 0 70 -0.5t71 -0.5q-7 8 -7 25q0 21 12 37q-47 -1 -141 -1t-141 1z" />
    <glyph glyph-name="pi" unicode="&#x3c0;" horiz-adv-x="703" 
d="M654 455q4 10 14 32q12 26 14 32q-150 -12 -298 -12q-42 0 -132 2q-44 0 -57 -2q-31 -5 -54 -22q-19 -18 -29 -46q-4 -10 -14 -53q5 0 15.5 -1t15.5 -1t16 -0.5t16 -0.5q4 24 14 41q16 25 45 25h9h10q3 -1 9 -1h3q-4 -12 -12 -35t-14.5 -41.5t-12.5 -34.5
q-23 -68 -40 -111q-41 -115 -92 -219q86 4 129 5q42 136 118 435h31h32q68 0 103 1q-44 -106 -75 -188q-19 -49 -32 -86q-15 -48 -15 -87q0 -49 42 -84q39 -33 93 -33q7 0 42 5q6 58 12 91q-24 -2 -36 -2h-5q-1 -1 -6 -1q-18 0 -32 14q-13 13 -13 32q0 24 8 51q10 34 14 50
q44 149 77 240q15 1 44 2.5t43 2.5z" />
    <glyph glyph-name="Bdotbelow" unicode="&#x1e04;" horiz-adv-x="718" 
d="M170 725q0 -367 -63 -720q122 14 259 14q55 0 98 8q51 10 93 36q42 29 57 74q15 40 15 90q0 65 -48 111q-45 44 -113 50v8q61 5 99 62q33 50 33 113q0 39 -20 71q-22 33 -62 48q-44 18 -126 20q-134 2 -222 15zM256 660q82 -5 148 -5q56 0 90 -22q42 -29 42 -84
q0 -28 -10 -54q-14 -33 -40 -50q-36 -25 -102 -25h-71q-11 0 -35 0.5t-36 0.5q9 101 14 239zM236 353h154q30 0 59 -6q32 -8 51 -26q33 -31 33 -58t-10 -53q-13 -27 -35 -41q-41 -21 -116 -21q-78 0 -158 -3q0 3 5 43t7 61q2 17 5 51.5t5 52.5zM54 0q0 -60 -11 -114
q16 2 48 2q30 0 46 -2q0 60 10 114q-16 -2 -47 -2t-46 2z" />
    <glyph glyph-name="bdotbelow" unicode="&#x1e05;" horiz-adv-x="667" 
d="M235 458h-6q12 97 26 287q-7 1 -20.5 2.5t-19.5 1.5q-26 2 -39 5q-5 -208 -11.5 -300t-32.5 -268l62 -79q20 -47 63 -75q42 -28 95 -28q2 0 4 1h4h8q91 -2 152 69q39 46 56 117q14 60 14 125q0 97 -42 159q-47 72 -134 72h-16q-49 0 -91 -24q-47 -25 -70 -66q-1 0 -2 1z
M545 295v-1q-6 -32 -18 -61q-13 -32 -37 -52q-43 -29 -98 -32q-31 0 -58 8q-30 9 -51 32q-24 31 -28 102q9 95 53 150q41 54 118 54q66 0 96 -57q24 -45 24 -120v-11q-1 -4 -1 -12zM289 -56q0 -60 -11 -114q16 2 48 2q30 0 46 -2q0 60 10 114q-16 -2 -47 -2t-46 2z" />
    <glyph glyph-name="Ddotbelow" unicode="&#x1e0c;" horiz-adv-x="782" 
d="M170 725v-32v-31q0 -336 -63 -657q81 8 199 12q102 4 159 16q89 19 149 65q64 54 92 162q19 77 19 175q0 62 -13 106q-15 54 -50 89q-52 48 -138 65q-56 12 -158 16q-109 3 -196 14zM261 646q82 -4 121 -4q73 -4 115 -15q62 -15 100 -56q24 -27 36 -69q9 -32 9 -80
q0 -16 -2 -48q-24 -64 -34 -82q-24 -44 -58 -68q-24 -14 -48 -21q-45 -13 -104 -15q-36 -2 -52 -2l-119 -3q26 214 36 463zM352 -39q0 -60 -11 -114q16 2 48 2q30 0 46 -2q0 60 10 114q-16 -2 -47 -2t-46 2z" />
    <glyph glyph-name="ddotbelow" unicode="&#x1e0d;" horiz-adv-x="647" 
d="M469 461l-4 -1q-1 0 -2.5 -0.5t-2.5 -0.5q-15 40 -58 65q-37 23 -87 23h-14q-44 0 -81 -19q-43 -20 -68 -52q-42 -52 -62 -126q-16 -67 -16 -134q0 -86 37 -143q46 -69 138 -69q3 0 5 1h5h7q52 0 101 27q47 28 75 75q0 -8 -1 -23.5t-1 -22.5q0 -8 -0.5 -24t-0.5 -23
q14 -2 40 -4t39 -4q6 362 77 749q-16 -1 -41 -5l-40 -3q-31 -178 -45 -286zM128 283v1q5 51 22 95q20 52 51 80q38 35 89 35h12q40 0 68 -25q29 -24 38 -68q8 -35 8 -80q0 -43 -7 -73q-13 -50 -40 -70q-35 -23 -107 -25q-32 0 -54 5q-30 7 -47 24q-31 34 -33 101zM221 -49
q0 -60 -11 -114q16 2 48 2q30 0 46 -2q0 60 10 114q-16 -2 -47 -2t-46 2z" />
    <glyph glyph-name="Dlinebelow" unicode="&#x1e0e;" horiz-adv-x="782" 
d="M170 725v-32v-31q0 -336 -63 -657q81 8 199 12q102 4 159 16q89 19 149 65q64 54 92 162q19 77 19 175q0 62 -13 106q-15 54 -50 89q-52 48 -138 65q-56 12 -158 16q-109 3 -196 14zM261 646q82 -4 121 -4q73 -4 115 -15q62 -15 100 -56q24 -27 36 -69q9 -32 9 -80
q0 -16 -2 -48q-24 -64 -34 -82q-24 -44 -58 -68q-24 -14 -48 -21q-45 -13 -104 -15q-36 -2 -52 -2l-119 -3q26 214 36 463zM229 -60q6 -10 6 -26q0 -20 -12 -36q23 0 71 0.5t71 0.5t70 -0.5t71 -0.5q-7 8 -7 25q0 21 12 37q-47 -1 -141 -1t-141 1z" />
    <glyph glyph-name="dlinebelow" unicode="&#x1e0f;" horiz-adv-x="647" 
d="M469 461l-4 -1q-1 0 -2.5 -0.5t-2.5 -0.5q-15 40 -58 65q-37 23 -87 23h-14q-44 0 -81 -19q-43 -20 -68 -52q-42 -52 -62 -126q-16 -67 -16 -134q0 -86 37 -143q46 -69 138 -69q3 0 5 1h5h7q52 0 101 27q47 28 75 75q0 -8 -1 -23.5t-1 -22.5q0 -8 -0.5 -24t-0.5 -23
q14 -2 40 -4t39 -4q6 362 77 749q-16 -1 -41 -5l-40 -3q-31 -178 -45 -286zM128 283v1q5 51 22 95q20 52 51 80q38 35 89 35h12q40 0 68 -25q29 -24 38 -68q8 -35 8 -80q0 -43 -7 -73q-13 -50 -40 -70q-35 -23 -107 -25q-32 0 -54 5q-30 7 -47 24q-31 34 -33 101zM98 -70
q6 -10 6 -26q0 -20 -12 -36q24 0 71 0.5t71 0.5q23 0 70 -0.5t71 -0.5q-7 8 -7 25q0 21 12 37q-47 -1 -141 -1t-141 1z" />
    <glyph glyph-name="Dcircumflexbelow" unicode="&#x1e12;" horiz-adv-x="782" 
d="M170 725v-32v-31q0 -336 -63 -657q81 8 199 12q102 4 159 16q89 19 149 65q64 54 92 162q19 77 19 175q0 62 -13 106q-15 54 -50 89q-52 48 -138 65q-56 12 -158 16q-109 3 -196 14zM261 646q82 -4 121 -4q73 -4 115 -15q62 -15 100 -56q24 -27 36 -69q9 -32 9 -80
q0 -16 -2 -48q-24 -64 -34 -82q-24 -44 -58 -68q-24 -14 -48 -21q-45 -13 -104 -15q-36 -2 -52 -2l-119 -3q26 214 36 463zM430 -35h-68q-5 -8 -15.5 -22t-15.5 -22q-10 -15 -30 -43q-37 -53 -67 -84q5 0 14.5 1t13.5 1q19 0 29 1q36 38 52 58l49 61q20 -33 38 -61
q16 -27 42 -58q9 -1 29 -1q4 0 13.5 -1t14.5 -1q-20 26 -28 41q-26 39 -48 86q-5 8 -12.5 23.5t-10.5 20.5z" />
    <glyph glyph-name="dcircumflexbelow" unicode="&#x1e13;" horiz-adv-x="647" 
d="M469 461l-4 -1q-1 0 -2.5 -0.5t-2.5 -0.5q-15 40 -58 65q-37 23 -87 23h-14q-44 0 -81 -19q-43 -20 -68 -52q-42 -52 -62 -126q-16 -67 -16 -134q0 -86 37 -143q46 -69 138 -69q3 0 5 1h5h7q52 0 101 27q47 28 75 75q0 -8 -1 -23.5t-1 -22.5q0 -8 -0.5 -24t-0.5 -23
q14 -2 40 -4t39 -4q6 362 77 749q-16 -1 -41 -5l-40 -3q-31 -178 -45 -286zM128 283v1q5 51 22 95q20 52 51 80q38 35 89 35h12q40 0 68 -25q29 -24 38 -68q8 -35 8 -80q0 -43 -7 -73q-13 -50 -40 -70q-35 -23 -107 -25q-32 0 -54 5q-30 7 -47 24q-31 34 -33 101zM299 -45
h-68q-5 -7 -15.5 -22t-15.5 -22q-10 -15 -30 -43q-37 -53 -67 -84q5 0 14 1t14 1q19 0 29 1q36 38 52 58l49 61q20 -33 38 -61q16 -27 42 -58q9 -1 29 -1q5 0 14.5 -1t13.5 -1q-20 26 -28 41q-26 39 -48 86q-5 8 -12.5 23.5t-10.5 20.5z" />
    <glyph glyph-name="Hdotbelow" unicode="&#x1e24;" horiz-adv-x="782" 
d="M169 724q-3 -382 -72 -719l103 9q21 136 31 238q110 2 164 2q53 0 165 -2q-10 -133 -10 -238q95 -8 102 -9q-2 70 -2 105q0 295 56 614q-15 -2 -47 -4q-8 -1 -24 -2.5t-24 -2.5q-24 -140 -41 -339q-39 0 -116 -0.5t-116 -0.5q-32 0 -48 1h-48q13 153 20 339q-61 4 -93 9z
M58 -36q0 -60 -11 -114q16 2 48 2q30 0 46 -2q0 60 10 114q-16 -2 -47 -2t-46 2z" />
    <glyph glyph-name="hdotbelow" unicode="&#x1e25;" horiz-adv-x="689" 
d="M563 330q1 13 1 40q0 68 -23 114q-17 31 -53 49q-34 14 -72 14h-13q-52 0 -99 -30q-45 -27 -76 -74q15 140 28 301q-24 2 -80 8q-14 -385 -85 -747q31 4 101 10q10 98 14 148q7 105 10 147q7 78 52 130q44 51 114 51q64 0 92 -50q15 -34 15 -81q0 -22 -1 -32
q-20 -187 -28 -313q33 -2 99 -10q-2 78 -2 116q0 104 6 209zM265 -30q0 -60 -11 -114q16 2 48 2q30 0 46 -2q0 60 10 114q-16 -2 -47 -2t-46 2z" />
    <glyph glyph-name="Idieresisacute" unicode="&#x1e2e;" horiz-adv-x="329" 
d="M307 991q80 3 95 4q-33 -31 -93 -95q-54 -60 -93 -96l-61 -3v-5v-10q0 -39 -7 -74h-49q-8 -1 -24.5 -1.5t-24.5 -0.5q15 28 15 60q0 19 -6 37q16 -1 49 -1q13 -1 42 -1q44 49 77 90q36 46 80 96zM313 806q32 0 48 1q-15 -29 -15 -60q0 -21 6 -37q-16 1 -48 1
q-8 0 -24 0.5t-24 0.5q0 1 -0.5 5t-0.5 6v11q0 35 9 71q8 0 24.5 0.5t24.5 0.5zM168 717q17 -7 38 -7q27 0 46 10q-35 -381 -53 -715q-23 14 -52 14q-28 0 -56 -14q33 253 77 712z" />
    <glyph glyph-name="idieresisacute" unicode="&#x1e2f;" horiz-adv-x="293" 
d="M299 811q80 3 95 4q-33 -31 -93 -95q-54 -60 -93 -96l-61 -3v-5v-10q0 -34 -6 -69q13 -6 28 -6q22 0 42 11q-30 -288 -47 -537q-17 10 -39 10t-42 -10q28 249 47 527h-39q-8 -1 -24.5 -1.5t-24.5 -0.5q15 28 15 60q0 19 -6 37q16 -1 49 -1q13 -1 42 -1q44 49 77 90
q36 46 80 96zM305 626q32 0 48 1q-15 -29 -15 -60q0 -21 6 -37q-16 1 -48 1q-8 0 -24 0.5t-24 0.5q0 1 -0.5 5t-0.5 6v11q0 35 9 71q8 0 24.5 0.5t24.5 0.5z" />
    <glyph glyph-name="Ldotbelow" unicode="&#x1e36;" horiz-adv-x="666" 
d="M169 723q-9 -367 -72 -718q118 14 227 14q110 0 213 -13q3 63 11 141q-92 8 -208 8q-66 0 -132 -3q36 294 49 562q-28 1 -88 9zM182 -29q0 -60 -11 -114q16 2 48 2q30 0 46 -2q0 60 10 114q-16 -2 -47 -2t-46 2z" />
    <glyph glyph-name="ldotbelow" unicode="&#x1e37;" horiz-adv-x="376" 
d="M175 750q-29 -383 -74 -745q37 14 75 14q59 0 101 -19q1 17 3.5 51t3.5 51q-57 15 -89 15q14 171 55 623h-8h-8q-36 0 -59 10zM134 -45q0 -60 -11 -114q16 2 48 2q30 0 46 -2q0 60 10 114q-16 -2 -47 -2t-46 2z" />
    <glyph glyph-name="Lcircumflexbelow" unicode="&#x1e3c;" horiz-adv-x="666" 
d="M169 723q-9 -367 -72 -718q118 14 227 14q110 0 213 -13q3 63 11 141q-92 8 -208 8q-66 0 -132 -3q36 294 49 562q-28 1 -88 9zM260 -25h-68q-5 -8 -15.5 -22t-15.5 -22q-10 -15 -30 -43q-37 -53 -67 -84q5 0 14.5 1t13.5 1q19 0 29 1q36 38 52 58l49 61q20 -33 38 -61
q16 -27 42 -58q9 -1 29 -1q4 0 13.5 -1t14.5 -1q-20 26 -28 41q-26 39 -48 86q-5 8 -12.5 23.5t-10.5 20.5z" />
    <glyph glyph-name="lcircumflexbelow" unicode="&#x1e3d;" horiz-adv-x="376" 
d="M175 750q-29 -383 -74 -745q37 14 75 14q59 0 101 -19q1 17 3.5 51t3.5 51q-57 15 -89 15q14 171 55 623h-8h-8q-36 0 -59 10zM212 -41h-68q-5 -7 -15.5 -22t-15.5 -22q-10 -15 -30 -43q-37 -53 -67 -84q4 0 13.5 1t14.5 1q19 0 29 1q36 38 52 58l49 61q20 -33 38 -61
q16 -27 42 -58q9 -1 29 -1q5 0 14 -1t14 -1q-20 26 -28 41q-26 39 -48 86q-5 8 -12.5 23.5t-10.5 20.5z" />
    <glyph glyph-name="Macute" unicode="&#x1e3e;" horiz-adv-x="898" 
d="M633 950q-44 -50 -80 -96q-45 -56 -81 -94l70 3q39 36 93 96q60 64 93 95q-15 -1 -95 -4zM169 723q0 -376 -77 -718q80 6 116 8q41 302 41 592v30h4q1 1 4 1q19 -59 36 -125q32 -122 63 -254q23 -95 31 -127h27h26h27h27q6 14 40 97t46 112t39 92t48.5 110.5t44.5 95.5
q2 -1 4 -1q3 0 4 -1q-61 -339 -66 -622q33 -2 115 -8q-6 83 -6 163q0 270 54 555l-130 -9q-63 -101 -120 -212q-22 -41 -61.5 -116.5t-51.5 -98.5q-77 247 -147 426q-92 6 -138 10z" />
    <glyph glyph-name="macute" unicode="&#x1e3f;" horiz-adv-x="1001" 
d="M305 791q-44 -50 -80 -96q-45 -56 -81 -94l70 3q39 36 93 96q60 64 93 95q-15 -1 -95 -4zM546 433q-2 0 -4.5 0.5t-3.5 0.5q-11 54 -62 86q-46 26 -109 26q-46 0 -90 -25q-44 -24 -66 -67l-4 2l-4 1q3 31 7 81q-12 0 -40 2q-6 0 -19 0.5t-20 0.5q1 -25 1 -74
q0 -239 -69 -462q18 1 54.5 2.5t54.5 2.5q26 124 35 299q3 70 43 127q42 62 111 62q31 0 53 -9q26 -10 43 -35q16 -30 16 -79q0 -21 -1 -32q-31 -168 -64 -328h115q8 133 26 293q7 80 50 131q45 56 124 56q72 0 72 -88q0 -11 -2 -33l-3 -34q-32 -187 -32 -315v-15
q19 0 57 -2l56 -3q-14 81 -14 176q0 82 8 149q4 44 4 66q0 42 -11 80q-10 34 -42 54q-30 18 -69 18q-74 0 -119 -30q-47 -30 -82 -85z" />
    <glyph glyph-name="Ndotaccent" unicode="&#x1e44;" horiz-adv-x="766" 
d="M425 922v-8v-9q0 -33 -8 -73q32 2 48 2q14 0 42 -2v6q-1 2 -1 7q0 38 9 77q-24 -3 -45 -3q-22 0 -45 3zM166 708q-9 -362 -82 -703q59 6 115 9q29 304 29 591l8 2q30 -64 67 -148l64 -148q77 -179 135 -295q87 -6 134 -11q-1 9 -1 29v28q0 316 64 663q-30 -4 -82 -8
q-52 -276 -74 -591q-22 47 -130 287q-86 192 -133 286q-38 2 -57 4q-38 2 -57 5z" />
    <glyph glyph-name="ndotaccent" unicode="&#x1e45;" horiz-adv-x="681" 
d="M265 753v-8v-9q0 -33 -8 -73q32 2 48 2q14 0 42 -2v6q-1 2 -1 7q0 38 9 77q-24 -3 -45 -3q-22 0 -45 3zM551 330q1 12 1 36q0 69 -22 117q-16 32 -52 48q-31 14 -73 14q-95 0 -196 -74q0 23 1 34q0 23 1 35q-51 2 -79 6q-5 -285 -63 -541q41 4 115 8q16 157 20 300
q7 80 47 125q27 27 62 36q33 9 68 9q25 0 46 -9q25 -11 35 -33q12 -28 12 -66q0 -15 -2 -45q-28 -188 -38 -317q76 -4 117 -8q-6 74 -6 148q0 89 6 177z" />
    <glyph glyph-name="Ndotbelow" unicode="&#x1e46;" horiz-adv-x="766" 
d="M166 708q-9 -362 -82 -703q59 6 115 9q29 304 29 591l8 2q30 -64 67 -148l64 -148q77 -179 135 -295q87 -6 134 -11q-1 9 -1 29v28q0 316 64 663q-30 -4 -82 -8q-52 -276 -74 -591q-22 47 -130 287q-86 192 -133 286q-38 2 -57 4q-38 2 -57 5zM328 -29q0 -60 -11 -114
q16 2 48 2q30 0 46 -2q0 60 10 114q-16 -2 -47 -2t-46 2z" />
    <glyph glyph-name="ndotbelow" unicode="&#x1e47;" horiz-adv-x="681" 
d="M551 330q1 12 1 36q0 69 -22 117q-16 32 -52 48q-31 14 -73 14q-95 0 -196 -74q0 23 1 34q0 23 1 35q-51 2 -79 6q-5 -285 -63 -541q41 4 115 8q16 157 20 300q7 80 47 125q27 27 62 36q33 9 68 9q25 0 46 -9q25 -11 35 -33q12 -28 12 -66q0 -15 -2 -45
q-28 -188 -38 -317q76 -4 117 -8q-6 74 -6 148q0 89 6 177zM263 -29q0 -60 -11 -114q16 2 48 2q30 0 46 -2q0 60 10 114q-16 -2 -47 -2t-46 2z" />
    <glyph glyph-name="Ncircumflexbelow" unicode="&#x1e4a;" horiz-adv-x="766" 
d="M166 708q-9 -362 -82 -703q59 6 115 9q29 304 29 591l8 2q30 -64 67 -148l64 -148q77 -179 135 -295q87 -6 134 -11q-1 9 -1 29v28q0 316 64 663q-30 -4 -82 -8q-52 -276 -74 -591q-22 47 -130 287q-86 192 -133 286q-38 2 -57 4q-38 2 -57 5zM406 -25h-68
q-5 -7 -15.5 -21.5t-15.5 -22.5q-10 -15 -30 -43q-37 -53 -67 -84q5 0 14.5 1t13.5 1q19 0 29 1q36 38 52 58l49 61q20 -33 38 -61q16 -27 42 -58q9 -1 29 -1q5 0 14.5 -1t13.5 -1q-20 26 -28 41q-26 39 -48 86q-5 8 -12.5 23.5t-10.5 20.5z" />
    <glyph glyph-name="ncircumflexbelow" unicode="&#x1e4b;" horiz-adv-x="681" 
d="M551 330q1 12 1 36q0 69 -22 117q-16 32 -52 48q-31 14 -73 14q-95 0 -196 -74q0 23 1 34q0 23 1 35q-51 2 -79 6q-5 -285 -63 -541q41 4 115 8q16 157 20 300q7 80 47 125q27 27 62 36q33 9 68 9q25 0 46 -9q25 -11 35 -33q12 -28 12 -66q0 -15 -2 -45
q-28 -188 -38 -317q76 -4 117 -8q-6 74 -6 148q0 89 6 177zM341 -25h-68q-5 -7 -15.5 -21.5t-15.5 -22.5q-10 -15 -30 -43q-37 -53 -67 -84q5 0 14.5 1t13.5 1q19 0 29 1q36 38 52 58l49 61q20 -33 38 -61q16 -27 42 -58q9 -1 29 -1q4 0 14 -1t14 -1q-20 26 -28 41
q-26 39 -48 86q-5 8 -12.5 23.5t-10.5 20.5z" />
    <glyph glyph-name="Otildeacute" unicode="&#x1e4c;" horiz-adv-x="780" 
d="M756 924q-44 -50 -80 -96q-45 -56 -81 -94l70 3q39 36 93 96q60 64 93 95q-15 -1 -95 -4zM434 799l24 -26q25 -28 66 -28q24 0 37 12q25 21 42 71q10 25 19 43q-18 -1 -52 -1q-6 -14 -8 -22q-3 -9 -9 -23q-12 -26 -36 -29q-16 1 -32 19l-24 26q-30 28 -67 28
q-17 0 -36 -11q-22 -15 -44 -74q-5 -17 -16 -41q8 1 25 1t26 1q1 1 8 21q1 6 9 24q12 25 34 28q16 -1 34 -19zM443 723q-71 0 -130 -21q-68 -23 -114 -73q-58 -61 -83 -158q-19 -73 -19 -171q0 -60 11 -108q15 -55 45 -95q35 -47 97 -71q58 -21 123 -21q72 0 133 20
q68 22 116 73q57 66 81 158q22 78 22 171q0 56 -12 107t-44 96q-34 48 -99 73q-57 20 -127 20zM437 654q108 0 160 -76q39 -66 39 -165q0 -61 -11 -106q-20 -68 -64 -95v1q-64 -37 -166 -37q-46 0 -84 7q-44 8 -78 29q-24 15 -38 51q-9 26 -9 66q0 67 17 129q18 70 59 119
q33 40 80 59q42 18 95 18z" />
    <glyph glyph-name="otildeacute" unicode="&#x1e4d;" 
d="M475 914q-44 -50 -80 -96q-45 -56 -81 -94l70 3q39 36 93 96q60 64 93 95q-15 -1 -95 -4zM327 607l24 -26q25 -28 66 -28q23 0 37 12q25 21 42 71q10 25 19 43q-18 -1 -52 -1q-6 -14 -8 -22q-3 -9 -9 -23q-12 -26 -36 -29q-16 1 -32 19l-24 26q-30 28 -67 28
q-17 0 -36 -11q-22 -15 -44 -74q-5 -17 -16 -41q8 1 25 1t26 1q0 1 8 21q1 6 9 24q12 25 34 28q16 -1 34 -19zM334 544q-55 0 -97 -15q-49 -16 -85 -53q-42 -48 -61 -124q-14 -59 -14 -132q0 -97 40 -151q25 -37 73 -53q40 -15 94 -15t98 15q52 14 84 54q43 48 62 125
q14 53 14 132q0 95 -40 149q-28 37 -74 53q-41 15 -94 15zM329 489q76 0 108 -54q26 -47 26 -114q0 -45 -7 -79q-12 -53 -46 -76q-44 -25 -112 -25q-69 0 -109 25q-19 13 -25 37q-6 22 -6 47q0 49 10 95q13 53 42 90q44 54 119 54z" />
    <glyph glyph-name="Omacrongrave" unicode="&#x1e50;" horiz-adv-x="780" 
d="M408 966l-28 43q-58 0 -85 3q24 -40 42 -84q16 -38 38 -86h16q51 0 104 -3q-24 31 -31 41q-31 45 -56 86zM309 814q6 -10 6 -26q0 -20 -12 -36q23 0 71 0.5t71 0.5t70 -0.5t71 -0.5q-7 8 -7 25q0 21 12 37q-47 -1 -141 -1t-141 1zM443 723q-71 0 -130 -21
q-68 -23 -114 -73q-58 -61 -83 -158q-19 -73 -19 -171q0 -60 11 -108q15 -55 45 -95q35 -47 97 -71q58 -21 123 -21q72 0 133 20q68 22 116 73q57 66 81 158q22 78 22 171q0 56 -12 107t-44 96q-34 48 -99 73q-57 20 -127 20zM437 654q108 0 160 -76q39 -66 39 -165
q0 -61 -11 -106q-20 -68 -64 -95v1q-64 -37 -166 -37q-46 0 -84 7q-44 8 -78 29q-24 15 -38 51q-9 26 -9 66q0 67 17 129q18 70 59 119q33 40 80 59q42 18 95 18z" />
    <glyph glyph-name="omacrongrave" unicode="&#x1e51;" 
d="M301 797l-28 43q-58 0 -85 3q24 -41 42 -84q16 -38 38 -86h16q52 0 104 -3q-24 31 -31 41q-31 45 -56 86zM202 639q6 -11 6 -26q0 -19 -12 -36q24 0 71 0.5t71 0.5q23 0 70 -0.5t71 -0.5q-7 8 -7 25q0 20 12 37q-47 -1 -141 -1t-141 1zM334 544q-55 0 -97 -15
q-49 -16 -85 -53q-42 -48 -61 -124q-14 -59 -14 -132q0 -97 40 -151q25 -37 73 -53q40 -15 94 -15t98 15q52 14 84 54q43 48 62 125q14 53 14 132q0 95 -40 149q-28 37 -74 53q-41 15 -94 15zM329 489q76 0 108 -54q26 -47 26 -114q0 -45 -7 -79q-12 -53 -46 -76
q-44 -25 -112 -25q-69 0 -109 25q-19 13 -25 37q-6 22 -6 47q0 49 10 95q13 53 42 90q44 54 119 54z" />
    <glyph glyph-name="Omacronacute" unicode="&#x1e52;" horiz-adv-x="780" 
d="M535 1010q-44 -50 -80 -96q-45 -56 -81 -94l70 3q39 36 93 96q60 64 93 95q-15 -1 -95 -4zM309 801q6 -11 6 -26q0 -19 -12 -36q23 0 71 0.5t71 0.5t70 -0.5t71 -0.5q-7 8 -7 25q0 21 12 37q-47 -1 -141 -1t-141 1zM443 723q-71 0 -130 -21q-68 -23 -114 -73
q-58 -61 -83 -158q-19 -73 -19 -171q0 -60 11 -108q15 -55 45 -95q35 -47 97 -71q58 -21 123 -21q72 0 133 20q68 22 116 73q57 66 81 158q22 78 22 171q0 56 -12 107t-44 96q-34 48 -99 73q-57 20 -127 20zM437 654q108 0 160 -76q39 -66 39 -165q0 -61 -11 -106
q-20 -68 -64 -95v1q-64 -37 -166 -37q-46 0 -84 7q-44 8 -78 29q-24 15 -38 51q-9 26 -9 66q0 67 17 129q18 70 59 119q33 40 80 59q42 18 95 18z" />
    <glyph glyph-name="omacronacute" unicode="&#x1e53;" 
d="M429 841q-44 -50 -80 -96q-45 -56 -81 -94l70 3q39 36 93 96q60 64 93 95q-15 -1 -95 -4zM202 632q6 -10 6 -26q0 -20 -12 -36q24 0 71 0.5t71 0.5q23 0 70 -0.5t71 -0.5q-7 8 -7 25q0 21 12 37q-47 -1 -141 -1t-141 1zM334 544q-55 0 -97 -15q-49 -16 -85 -53
q-42 -48 -61 -124q-14 -59 -14 -132q0 -97 40 -151q25 -37 73 -53q40 -15 94 -15t98 15q52 14 84 54q43 48 62 125q14 53 14 132q0 95 -40 149q-28 37 -74 53q-41 15 -94 15zM329 489q76 0 108 -54q26 -47 26 -114q0 -45 -7 -79q-12 -53 -46 -76q-44 -25 -112 -25
q-69 0 -109 25q-19 13 -25 37q-6 22 -6 47q0 49 10 95q13 53 42 90q44 54 119 54z" />
    <glyph glyph-name="Sdotbelow" unicode="&#x1e62;" horiz-adv-x="672" 
d="M271 628q-55 -34 -55 -100q0 -44 24 -67q31 -24 103 -40l44 -9q51 -10 86 -24q21 -9 39 -21q69 -49 69 -146q0 -50 -14 -91q-17 -49 -55 -76q-45 -30 -103 -40q-45 -9 -106 -9q-115 0 -220 31q13 75 21 143q92 -54 210 -54q81 0 129 31q23 15 35 30q16 20 16 40
q0 39 -37 66q-29 20 -77 33q-21 6 -39 9q-38 6 -70 16q-42 12 -72 31q-46 32 -59 78q-8 32 -8 62q0 45 15 85q19 45 54 70q40 27 90 38q41 9 96 9q103 0 204 -26q-2 -14 -6 -40l-6 -44q-97 41 -187 41q-74 0 -121 -26zM593 699q1 -1 1 -3l-3 1q0 1 0.5 2t0.5 2zM287 -29
q15 -2 46 -2t47 2q-10 -54 -10 -114q-16 2 -46 2q-32 0 -48 -2q11 54 11 114z" />
    <glyph glyph-name="sdotbelow" unicode="&#x1e63;" horiz-adv-x="564" 
d="M310 544q102 0 166 -20l-5 -30q-4 -25 -5 -34q-64 30 -159 30q-53 0 -90 -19q-47 -23 -47 -75q0 -33 28 -54q22 -18 59 -28q30 -8 56 -12q52 -14 64 -19q36 -16 56 -34q31 -30 31 -86q0 -36 -14 -69q-17 -37 -47 -55q-35 -23 -84 -31q-34 -7 -87 -7q-81 0 -173 23
q8 45 17 120q76 -41 165 -41h10q3 -1 7 -1h7q44 0 73 16q37 19 40 59q-14 30 -24 43q-23 17 -59 27q-8 2 -31 7q-10 2 -56 14q-31 6 -56 21q-36 21 -44 55q-5 19 -5 45q0 44 17 77q19 38 59 55q58 23 131 23zM479 523l-3 1q0 2 1 3zM216 -29q15 -2 46 -2t47 2
q-10 -54 -10 -114q-16 2 -46 2q-32 0 -48 -2q11 54 11 114z" />
    <glyph glyph-name="Tdotbelow" unicode="&#x1e6c;" horiz-adv-x="756" 
d="M170 725q0 -13 0.5 -37t0.5 -37q46 -4 139 -4q75 0 113 1q-32 -308 -75 -630q25 0 37 1h37h28q17 0 27 -1q5 229 34 631q33 -2 100 -2q75 0 152 3q4 25 14 75q-168 -16 -312 -16q-152 0 -295 16zM330 15q0 -60 -11 -114q16 2 48 2q30 0 46 -2q0 60 10 114q-16 -2 -47 -2
t-46 2z" />
    <glyph glyph-name="tdotbelow" unicode="&#x1e6d;" horiz-adv-x="539" 
d="M291 664q-43 0 -86 3q-7 -82 -13 -132q-36 3 -61 7q-2 -22 -2 -30l-2 -31q22 -2 31 -2q11 0 31 -2q-5 -62 -31 -293q-2 -28 -2 -45q0 -59 28 -87q14 -12 30 -18q33 -13 72 -16l36 -3q8 -1 22.5 -2.5t21.5 -1.5l43 -6q0 42 4 124q-12 2 -83 7q-23 0 -40 4q-22 5 -34 17
q-12 18 -12 51q0 6 0.5 17.5t0.5 16.5q5 39 13 117l12 116h21q49 0 99 3q2 9 4 29l3 29q-52 -3 -103 -3h-19q11 93 16 131zM248 -29q0 -60 -11 -114q16 2 48 2q30 0 46 -2q0 60 10 114q-16 -2 -47 -2t-46 2z" />
    <glyph glyph-name="Tlinebelow" unicode="&#x1e6e;" horiz-adv-x="756" 
d="M170 725q0 -13 0.5 -37t0.5 -37q46 -4 139 -4q75 0 113 1q-32 -308 -75 -630q25 0 37 1h37h28q17 0 27 -1q5 229 34 631q33 -2 100 -2q75 0 152 3q4 25 14 75q-168 -16 -312 -16q-152 0 -295 16zM207 -6q6 -10 6 -26q0 -20 -12 -36q23 0 71 0.5t71 0.5t70 -0.5t71 -0.5
q-7 8 -7 25q0 21 12 37q-47 -1 -141 -1t-141 1z" />
    <glyph glyph-name="tlinebelow" unicode="&#x1e6f;" horiz-adv-x="539" 
d="M291 664q-43 0 -86 3q-7 -82 -13 -132q-36 3 -61 7q-2 -22 -2 -30l-2 -31q22 -2 31 -2q11 0 31 -2q-5 -62 -31 -293q-2 -28 -2 -45q0 -59 28 -87q14 -12 30 -18q33 -13 72 -16l36 -3q8 -1 22.5 -2.5t21.5 -1.5l43 -6q0 42 4 124q-12 2 -83 7q-23 0 -40 4q-22 5 -34 17
q-12 18 -12 51q0 6 0.5 17.5t0.5 16.5q5 39 13 117l12 116h21q49 0 99 3q2 9 4 29l3 29q-52 -3 -103 -3h-19q11 93 16 131zM125 -50q6 -10 6 -26q0 -20 -12 -36q23 0 71 0.5t71 0.5t70 -0.5t71 -0.5q-7 8 -7 25q0 21 12 37q-47 -1 -141 -1t-141 1z" />
    <glyph glyph-name="Tcircumflexbelow" unicode="&#x1e70;" horiz-adv-x="756" 
d="M465 709q144 0 312 16q-10 -50 -14 -75q-77 -3 -152 -3q-67 0 -100 2q-29 -402 -34 -631q-10 1 -27 1h-28h-14q3 -5 10.5 -20.5t12.5 -23.5q22 -47 48 -86q8 -15 28 -41q-5 0 -14 1t-14 1q-20 0 -29 1q-26 31 -42 58q-18 28 -38 61l-49 -61q-16 -20 -52 -58
q-10 -1 -29 -1q-5 0 -14.5 -1t-13.5 -1q30 31 67 84q20 28 30 43q5 8 15.5 22t15.5 22h8q43 326 75 629q-38 -1 -113 -1q-93 0 -139 4q0 13 -0.5 37t-0.5 37q143 -16 295 -16z" />
    <glyph glyph-name="tcircumflexbelow" unicode="&#x1e71;" horiz-adv-x="539" 
d="M291 664q-43 0 -86 3q-7 -82 -13 -132q-36 3 -61 7q-2 -22 -2 -30l-2 -31q22 -2 31 -2q11 0 31 -2q-5 -62 -31 -293q-2 -28 -2 -45q0 -59 28 -87q14 -12 30 -18q33 -13 72 -16l36 -3q8 -1 22.5 -2.5t21.5 -1.5l43 -6q0 42 4 124q-12 2 -83 7q-23 0 -40 4q-22 5 -34 17
q-12 18 -12 51q0 6 0.5 17.5t0.5 16.5q5 39 13 117l12 116h21q49 0 99 3q2 9 4 29l3 29q-52 -3 -103 -3h-19q11 93 16 131zM326 -25h-68q-5 -7 -15.5 -21.5t-15.5 -22.5q-10 -15 -30 -43q-37 -53 -67 -84q5 0 14 1t14 1q19 0 29 1q36 38 52 58l49 61q20 -33 38 -61
q16 -27 42 -58q9 -1 29 -1q5 0 14.5 -1t13.5 -1q-20 26 -28 41q-26 39 -48 86q-5 8 -12.5 23.5t-10.5 20.5z" />
    <glyph glyph-name="Wgrave" unicode="&#x1e80;" horiz-adv-x="1058" 
d="M603 966l-28 43q-58 0 -85 3q24 -40 42 -84q16 -38 38 -86h16q52 0 104 -3q-24 31 -31 41q-31 45 -56 86zM253 719l-83 6q46 -160 70 -351q22 -175 28 -361q98 4 147 4q84 167 182 388q4 -15 23 -92.5t27.5 -108t24.5 -86.5t31 -100q11 -1 34 -1.5t34 -0.5q22 0 68 -2
q46 200 99 361q66 195 143 350l-42 -3q-28 -2 -43 -2q-110 -207 -228 -532q-33 86 -63 171q-40 114 -61 172h-77l-98 -167q-55 -97 -100 -167q-24 154 -47 264q-32 148 -69 258z" />
    <glyph glyph-name="wgrave" unicode="&#x1e81;" horiz-adv-x="868" 
d="M472 797l-28 43q-58 0 -85 3q24 -41 42 -84q16 -38 38 -86h16q51 0 104 -3q-24 31 -31 41q-31 45 -56 86zM131 542q38 -115 63 -261q16 -104 31 -269q9 0 28 0.5t29 0.5q18 1 56 1q50 89 128 247q36 -125 81 -246q10 0 29.5 -0.5t29.5 -1.5q10 0 30 -0.5t30 -0.5
q37 157 76 270q48 142 111 260q-29 -2 -81 -4q-73 -139 -157 -384q-37 84 -84 204q-8 -1 -21 -1h-21h-71q-40 -68 -59 -102q-5 -8 -27 -44.5t-34 -56.5q-38 235 -89 383q-13 1 -39 2.5t-39 2.5z" />
    <glyph glyph-name="Wacute" unicode="&#x1e82;" horiz-adv-x="1058" 
d="M730 1010q-44 -50 -80 -96q-45 -56 -81 -94l70 3q39 36 93 96q60 64 93 95q-15 -1 -95 -4zM253 719l-83 6q46 -160 70 -351q22 -175 28 -361q98 4 147 4q84 167 182 388q4 -15 23 -92.5t27.5 -108t24.5 -86.5t31 -100q11 -1 34 -1.5t34 -0.5q22 0 68 -2q46 200 99 361
q66 195 143 350l-42 -3q-28 -2 -43 -2q-110 -207 -228 -532q-33 86 -63 171q-40 114 -61 172h-77l-98 -167q-55 -97 -100 -167q-24 154 -47 264q-32 148 -69 258z" />
    <glyph glyph-name="wacute" unicode="&#x1e83;" horiz-adv-x="868" 
d="M599 841q-44 -50 -80 -96q-45 -56 -81 -94l70 3q39 36 93 96q60 64 93 95q-15 -1 -95 -4zM131 542q38 -115 63 -261q16 -104 31 -269q9 0 28 0.5t29 0.5q18 1 56 1q50 89 128 247q36 -125 81 -246q10 0 29.5 -0.5t29.5 -1.5q10 0 30 -0.5t30 -0.5q37 157 76 270
q48 142 111 260q-29 -2 -81 -4q-73 -139 -157 -384q-37 84 -84 204q-8 -1 -21 -1h-21h-71q-40 -68 -59 -102q-5 -8 -27 -44.5t-34 -56.5q-38 235 -89 383q-13 1 -39 2.5t-39 2.5z" />
    <glyph glyph-name="Wdieresis" unicode="&#x1e84;" horiz-adv-x="1058" 
d="M482 826q6 -18 6 -37q0 -31 -15 -60q8 0 24.5 0.5t24.5 1.5h49q7 35 7 74v10v9q-32 0 -47 1q-33 0 -49 1zM687 824q-9 -36 -9 -71v-11q0 -2 0.5 -6t0.5 -5q8 0 24 -0.5t24 -0.5q32 0 48 -1q-6 16 -6 37q0 32 15 60q-16 -1 -48 -1q-8 0 -24.5 -0.5t-24.5 -0.5zM253 719
l-83 6q46 -160 70 -351q22 -175 28 -361q98 4 147 4q84 167 182 388q4 -15 23 -92.5t27.5 -108t24.5 -86.5t31 -100q11 -1 34 -1.5t34 -0.5q22 0 68 -2q46 200 99 361q66 195 143 350l-42 -3q-28 -2 -43 -2q-110 -207 -228 -532q-33 86 -63 171q-40 114 -61 172h-77
l-98 -167q-55 -97 -100 -167q-24 154 -47 264q-32 148 -69 258z" />
    <glyph glyph-name="wdieresis" unicode="&#x1e85;" horiz-adv-x="868" 
d="M351 657q6 -18 6 -37q0 -32 -15 -60q8 0 24.5 0.5t24.5 1.5h49q7 35 7 74v10v9q-32 0 -47 1q-33 0 -49 1zM556 655q-9 -36 -9 -71v-11q0 -2 0.5 -6t0.5 -5q8 0 24 -0.5t24 -0.5q32 0 48 -1q-6 16 -6 37q0 31 15 60q-16 -1 -48 -1q-8 0 -24.5 -0.5t-24.5 -0.5zM131 542
q38 -115 63 -261q16 -104 31 -269q9 0 28 0.5t29 0.5q18 1 56 1q50 89 128 247q36 -125 81 -246q10 0 29.5 -0.5t29.5 -1.5q10 0 30 -0.5t30 -0.5q37 157 76 270q48 142 111 260q-29 -2 -81 -4q-73 -139 -157 -384q-37 84 -84 204q-8 -1 -21 -1h-21h-71q-40 -68 -59 -102
q-5 -8 -27 -44.5t-34 -56.5q-38 235 -89 383q-13 1 -39 2.5t-39 2.5z" />
    <glyph glyph-name="Zdotbelow" unicode="&#x1e92;" horiz-adv-x="811" 
d="M169 723v-74q126 -10 265 -10q99 0 180 4q-270 -269 -495 -506q-3 -15 -7.5 -41.5t-8.5 -48.5t-8 -42q154 14 295 14q140 0 291 -14q-1 29 -1 88v25v24q-120 8 -270 8q-94 0 -188 -3q112 112 249 254q164 168 249 253q4 14 7 35q5 33 6 35q-136 -14 -291 -14
q-140 0 -273 13zM54 0q0 -60 -11 -114q16 2 48 2q30 0 46 -2q0 60 10 114q-16 -2 -47 -2t-46 2z" />
    <glyph glyph-name="zdotbelow" unicode="&#x1e93;" horiz-adv-x="621" 
d="M130 540v-58q72 -6 181 -6q71 0 143 3q-226 -210 -371 -350q-12 -81 -21 -124q104 10 219 10q123 0 210 -10q0 11 -0.5 34t-0.5 35v22q0 13 1 21q-95 6 -191 6q-35 0 -105 -2q58 58 168 172q28 30 166 173q2 11 6.5 36.5t7.5 39.5q-116 -11 -221 -11q-96 0 -192 9z
M229 -45q0 -60 -11 -114q16 2 48 2q30 0 46 -2q0 60 10 114q-16 -2 -47 -2t-46 2z" />
    <glyph glyph-name="Adotbelow" unicode="&#x1ea0;" horiz-adv-x="801" 
d="M449 710h-86q-29 -59 -83 -177l-83 -179q-100 -211 -180 -349l122 9q35 71 53 117q110 2 162 2q53 0 163 -2q11 -66 25 -117q64 -3 129 -9q-39 94 -65 173q-45 133 -106 354zM399 642q25 -102 48 -204q37 -156 49 -203h-66h-67q-88 0 -133 -1q58 136 85 204
q41 102 84 204zM54 0q0 -60 -11 -114q16 2 48 2q30 0 46 -2q0 60 10 114q-16 -2 -47 -2t-46 2z" />
    <glyph glyph-name="adotbelow" unicode="&#x1ea1;" horiz-adv-x="617" 
d="M501 312q3 25 3 53q0 85 -41 132q-26 26 -72 38q-35 9 -85 9q-83 0 -181 -30q0 -5 -0.5 -15t-0.5 -15q0 -20 -1 -30q74 35 169 35q32 -2 58 -10q28 -9 54 -30q28 -27 28 -75q0 -8 -2 -22l-1 -14q-20 -1 -61 -1h-61q-91 0 -154 -31q-46 -22 -71 -76q-21 -45 -21 -100
q0 -59 30 -90q39 -39 115 -39q65 0 114 22q58 25 91 75q0 -8 -0.5 -22t-0.5 -21t-0.5 -22t-1.5 -22q75 -6 79 -6v22v22q0 125 14 263zM376 284l-1 -25q-2 -9 -4 -29q-1 -10 -5 -30q-9 -33 -29 -53q-17 -12 -50 -20q-18 -3 -54 -3q-39 0 -71 7q-16 4 -26 20q-9 15 -9 33
q5 53 41 77q20 10 31 12q29 8 65 10q22 0 32 1h80zM167 -54q0 -60 -11 -114q16 2 48 2q30 0 46 -2q0 60 10 114q-16 -2 -47 -2t-46 2z" />
    <glyph glyph-name="Ahookabove" unicode="&#x1ea2;" horiz-adv-x="801" 
d="M364 840v-21q32 16 52 16q25 0 25 -17q0 -6 -16 -17l-11 -9q-13 -10 -16 -15q-3 -6 -3 -16v-3h28q0 6 2 12q6 6 9 8l11 7q25 20 25 31q0 16 -15 26q-17 10 -45 10q-19 0 -46 -12zM449 710h-86q-29 -59 -83 -177l-83 -179q-100 -211 -180 -349l122 9q35 71 53 117
q110 2 162 2q53 0 163 -2q11 -66 25 -117q64 -3 129 -9q-39 94 -65 173q-45 133 -106 354zM399 642q25 -102 48 -204q37 -156 49 -203h-66h-67q-88 0 -133 -1q58 136 85 204q41 102 84 204z" />
    </font>
</defs>
</svg>
