<?xml version="1.0" standalone="no"?>
<!DOCTYPE svg PUBLIC "-//W3C//DTD SVG 20010904//EN"
 "http://www.w3.org/TR/2001/REC-SVG-20010904/DTD/svg10.dtd">
<svg version="1.0" xmlns="http://www.w3.org/2000/svg"
 width="74.000000pt" height="73.000000pt" viewBox="0 0 74.000000 73.000000"
 preserveAspectRatio="xMidYMid meet">
<metadata>
Created by potrace 1.15, written by Peter Selinger 2001-2017
</metadata>
<g transform="translate(0.000000,73.000000) scale(0.100000,-0.100000)"
fill="#000000" stroke="none">
<path d="M311 613 c-5 -21 -13 -56 -18 -78 l-9 -40 -72 -3 -72 -3 0 -44 0 -45
61 0 c49 0 60 -3 56 -14 -3 -8 -9 -31 -13 -50 l-6 -36 -74 0 -74 0 0 -45 0
-45 60 0 c33 0 60 -3 60 -7 0 -5 -9 -41 -19 -81 l-19 -73 46 3 46 3 19 78 19
77 45 0 c37 0 44 -3 39 -17 -3 -10 -10 -38 -16 -63 -6 -25 -13 -53 -16 -62 -5
-15 2 -18 40 -18 50 0 42 -13 76 120 l11 40 69 0 70 0 0 45 0 45 -59 0 -59 0
12 48 12 47 72 3 72 3 0 44 0 45 -61 0 c-53 0 -60 2 -55 18 3 9 10 37 16 62 6
25 13 53 16 63 5 14 -2 17 -40 17 -44 0 -46 -1 -55 -37 -35 -136 -27 -123 -75
-123 l-44 0 19 73 c10 39 19 75 19 80 0 4 -20 7 -45 7 -43 0 -45 -1 -54 -37z"/>
</g>
</svg>
