<?xml version="1.0" standalone="no"?>
<!DOCTYPE svg PUBLIC "-//W3C//DTD SVG 20010904//EN"
 "http://www.w3.org/TR/2001/REC-SVG-20010904/DTD/svg10.dtd">
<svg version="1.0" xmlns="http://www.w3.org/2000/svg"
 width="85.000000pt" height="86.000000pt" viewBox="0 0 85.000000 86.000000"
 preserveAspectRatio="xMidYMid meet">
<metadata>
Created by potrace 1.15, written by Peter Selinger 2001-2017
</metadata>
<g transform="translate(0.000000,86.000000) scale(0.100000,-0.100000)"
fill="#000000" stroke="none">
<path d="M307 766 c-21 -8 -47 -22 -57 -31 -47 -43 -64 -133 -36 -199 13 -32
13 -35 -11 -58 -52 -48 -78 -108 -78 -179 0 -92 37 -151 120 -194 50 -26 69
-30 136 -30 67 0 85 5 140 33 l63 33 29 -31 c26 -28 33 -30 98 -30 38 0 69 4
69 8 0 4 -29 36 -64 71 l-63 63 23 57 c13 31 26 87 30 124 l7 67 -55 0 -54 0
-11 -71 c-7 -39 -15 -75 -20 -80 -11 -11 -275 251 -287 285 -13 34 6 73 41 87
33 12 81 5 141 -21 l42 -19 20 39 c11 22 20 43 20 48 0 14 -110 42 -161 42
-24 -1 -61 -7 -82 -14z m77 -428 c53 -56 96 -105 96 -110 0 -15 -67 -38 -110
-38 -135 0 -199 133 -112 233 8 9 19 17 23 17 4 0 50 -46 103 -102z"/>
</g>
</svg>
