<?xml version="1.0" standalone="no"?>
<!DOCTYPE svg PUBLIC "-//W3C//DTD SVG 20010904//EN"
 "http://www.w3.org/TR/2001/REC-SVG-20010904/DTD/svg10.dtd">
<svg version="1.0" xmlns="http://www.w3.org/2000/svg"
 width="91.000000pt" height="93.000000pt" viewBox="0 0 91.000000 93.000000"
 preserveAspectRatio="xMidYMid meet">
<metadata>
Created by potrace 1.15, written by Peter Selinger 2001-2017
</metadata>
<g transform="translate(0.000000,93.000000) scale(0.100000,-0.100000)"
fill="#000000" stroke="none">
<path d="M374 865 c-107 -23 -190 -75 -249 -155 -141 -192 -84 -476 119 -595
121 -71 291 -71 411 1 72 42 69 36 40 94 -14 28 -25 53 -23 55 2 1 22 12 44
23 84 42 127 119 127 227 0 176 -127 320 -312 355 -66 12 -80 12 -157 -5z
m222 -113 c64 -33 100 -68 128 -124 46 -93 32 -196 -35 -252 l-34 -29 -3 162
-2 161 -45 0 c-33 0 -45 -4 -45 -15 0 -11 -8 -11 -42 5 -133 61 -268 -37 -268
-194 0 -162 146 -260 282 -190 26 14 28 13 28 -7 0 -20 4 -21 48 -15 l47 7
-25 -21 c-59 -48 -191 -64 -290 -34 -62 18 -144 93 -180 164 -19 37 -22 55
-18 115 9 140 86 236 223 282 59 19 180 11 231 -15z m-117 -153 c37 -13 61
-53 61 -104 0 -81 -103 -126 -165 -72 -38 33 -45 101 -15 140 35 44 67 54 119
36z"/>
</g>
</svg>
