<?xml version="1.0" standalone="no"?>
<!DOCTYPE svg PUBLIC "-//W3C//DTD SVG 20010904//EN"
 "http://www.w3.org/TR/2001/REC-SVG-20010904/DTD/svg10.dtd">
<svg version="1.0" xmlns="http://www.w3.org/2000/svg"
 width="61.000000pt" height="65.000000pt" viewBox="0 0 61.000000 65.000000"
 preserveAspectRatio="xMidYMid meet">
<metadata>
Created by potrace 1.15, written by Peter Selinger 2001-2017
</metadata>
<g transform="translate(0.000000,65.000000) scale(0.100000,-0.100000)"
fill="#000000" stroke="none">
<path d="M137 458 l-14 -63 59 -61 59 -61 -58 -48 c-32 -27 -59 -50 -60 -50
-7 -4 -15 -125 -9 -125 4 0 60 44 124 99 74 62 121 109 128 129 11 29 10 32
-70 109 -44 43 -95 91 -113 107 l-31 28 -15 -64z"/>
<path d="M330 463 c-6 -32 -13 -62 -14 -68 -2 -5 23 -37 56 -71 l59 -60 -61
-49 c-65 -52 -73 -68 -68 -134 l3 -42 120 100 c87 72 122 108 130 133 l11 33
-112 108 -112 109 -12 -59z"/>
</g>
</svg>
