<?xml version="1.0" standalone="no"?>
<!DOCTYPE svg PUBLIC "-//W3C//DTD SVG 20010904//EN"
 "http://www.w3.org/TR/2001/REC-SVG-20010904/DTD/svg10.dtd">
<svg version="1.0" xmlns="http://www.w3.org/2000/svg"
 width="61.000000pt" height="65.000000pt" viewBox="0 0 61.000000 65.000000"
 preserveAspectRatio="xMidYMid meet">
<metadata>
Created by potrace 1.15, written by Peter Selinger 2001-2017
</metadata>
<g transform="translate(0.000000,65.000000) scale(0.100000,-0.100000)"
fill="#000000" stroke="none">
<path d="M185 511 c-83 -69 -123 -109 -130 -131 -11 -32 -10 -33 99 -140 61
-60 112 -107 113 -106 2 1 9 31 17 67 l13 64 -59 61 -59 60 61 49 c65 52 73
68 68 134 l-3 42 -120 -100z"/>
<path d="M371 502 c-67 -57 -118 -110 -126 -128 -13 -31 -13 -31 69 -110 44
-44 95 -92 113 -108 l31 -28 15 64 14 63 -59 61 -59 61 58 48 c32 27 59 50 60
50 8 4 14 125 7 124 -5 0 -60 -44 -123 -97z"/>
</g>
</svg>
