<?xml version="1.0" standalone="no"?>
<!DOCTYPE svg PUBLIC "-//W3C//DTD SVG 20010904//EN"
 "http://www.w3.org/TR/2001/REC-SVG-20010904/DTD/svg10.dtd">
<svg version="1.0" xmlns="http://www.w3.org/2000/svg"
 width="62.000000pt" height="77.000000pt" viewBox="0 0 62.000000 77.000000"
 preserveAspectRatio="xMidYMid meet">
<metadata>
Created by potrace 1.15, written by Peter Selinger 2001-2017
</metadata>
<g transform="translate(0.000000,77.000000) scale(0.100000,-0.100000)"
fill="#000000" stroke="none">
<path d="M283 681 c-64 -30 -87 -74 -98 -193 l-7 -68 -33 0 c-35 0 -45 -13
-45 -56 0 -21 4 -24 40 -24 l40 0 0 -70 0 -70 -50 0 -50 0 0 -60 0 -60 194 0
c107 0 201 -3 210 -6 14 -5 16 3 16 55 l0 61 -111 0 c-111 0 -111 0 -105 22 3
13 6 44 6 71 l0 47 75 0 75 0 0 40 0 40 -75 0 -75 0 0 53 c0 68 16 124 40 137
29 16 81 12 129 -10 24 -11 45 -20 47 -20 2 0 4 23 4 50 0 46 -3 52 -27 61
-54 22 -154 22 -200 0z"/>
</g>
</svg>
