<?xml version="1.0" standalone="no"?>
<!DOCTYPE svg PUBLIC "-//W3C//DTD SVG 20010904//EN"
 "http://www.w3.org/TR/2001/REC-SVG-20010904/DTD/svg10.dtd">
<svg version="1.0" xmlns="http://www.w3.org/2000/svg"
 width="62.000000pt" height="76.000000pt" viewBox="0 0 62.000000 76.000000"
 preserveAspectRatio="xMidYMid meet">
<metadata>
Created by potrace 1.15, written by Peter Selinger 2001-2017
</metadata>
<g transform="translate(0.000000,76.000000) scale(0.100000,-0.100000)"
fill="#000000" stroke="none">
<path d="M83 633 c4 -38 7 -182 7 -320 l0 -253 50 0 50 0 0 94 0 95 35 -15
c47 -19 83 -18 129 6 39 19 39 19 64 0 33 -27 60 -25 105 5 32 22 37 31 37 64
l0 39 -38 -5 -37 -5 3 181 4 181 -50 0 -50 0 -7 -117 c-3 -65 -10 -128 -16
-141 -12 -30 -72 -55 -110 -47 -55 12 -69 45 -69 159 0 143 -1 146 -63 146
l-50 0 6 -67z"/>
</g>
</svg>
