<?xml version="1.0" standalone="no"?>
<!DOCTYPE svg PUBLIC "-//W3C//DTD SVG 20010904//EN"
 "http://www.w3.org/TR/2001/REC-SVG-20010904/DTD/svg10.dtd">
<svg version="1.0" xmlns="http://www.w3.org/2000/svg"
 width="55.000000pt" height="84.000000pt" viewBox="0 0 55.000000 84.000000"
 preserveAspectRatio="xMidYMid meet">
<metadata>
Created by potrace 1.15, written by Peter Selinger 2001-2017
</metadata>
<g transform="translate(0.000000,84.000000) scale(0.100000,-0.100000)"
fill="#000000" stroke="none">
<path d="M250 755 c0 -43 -1 -44 -42 -55 -92 -25 -123 -70 -119 -172 1 -38 54
-94 104 -111 l42 -14 3 -67 3 -67 -28 7 c-15 4 -49 17 -75 30 -26 13 -50 24
-53 24 -3 0 -5 -27 -5 -60 0 -68 4 -72 97 -94 l58 -13 -3 -56 -4 -57 30 0 c17
0 37 -3 46 -6 14 -5 16 4 16 59 l0 65 35 6 c49 9 102 59 115 107 23 83 -25
157 -116 181 l-44 12 0 78 c0 89 0 89 82 58 29 -11 54 -20 56 -20 1 0 2 20 2
45 0 43 -1 45 -38 54 -21 6 -52 14 -70 17 -30 6 -32 9 -32 50 0 42 -1 44 -30
44 -29 0 -30 -2 -30 -45z"/>
</g>
</svg>
