<?xml version="1.0" standalone="no"?>
<!DOCTYPE svg PUBLIC "-//W3C//DTD SVG 20010904//EN"
 "http://www.w3.org/TR/2001/REC-SVG-20010904/DTD/svg10.dtd">
<svg version="1.0" xmlns="http://www.w3.org/2000/svg"
 width="48.000000pt" height="80.000000pt" viewBox="0 0 48.000000 80.000000"
 preserveAspectRatio="xMidYMid meet">
<metadata>
Created by potrace 1.15, written by Peter Selinger 2001-2017
</metadata>
<g transform="translate(0.000000,80.000000) scale(0.100000,-0.100000)"
fill="#000000" stroke="none">
<path d="M165 676 c-76 -24 -85 -32 -85 -81 0 -25 2 -45 4 -45 2 0 30 14 61
30 67 35 103 38 139 9 43 -34 35 -64 -34 -127 -77 -69 -90 -95 -90 -177 l0
-65 65 0 65 0 0 60 c0 56 3 62 45 112 94 111 105 173 44 243 -46 53 -128 68
-214 41z"/>
<path d="M150 130 l0 -70 70 0 70 0 0 70 0 70 -70 0 -70 0 0 -70z"/>
</g>
</svg>
