<?xml version="1.0" standalone="no"?>
<!DOCTYPE svg PUBLIC "-//W3C//DTD SVG 20010904//EN"
 "http://www.w3.org/TR/2001/REC-SVG-20010904/DTD/svg10.dtd">
<svg version="1.0" xmlns="http://www.w3.org/2000/svg"
 width="86.000000pt" height="29.000000pt" viewBox="0 0 86.000000 29.000000"
 preserveAspectRatio="xMidYMid meet">
<metadata>
Created by potrace 1.15, written by Peter Selinger 2001-2017
</metadata>
<g transform="translate(0.000000,29.000000) scale(0.100000,-0.100000)"
fill="#000000" stroke="none">
<path d="M616 219 c-21 -16 -54 -33 -73 -38 -34 -10 -45 -8 -189 34 -57 16
-64 16 -117 1 -31 -9 -68 -26 -82 -39 -23 -19 -26 -28 -23 -75 l3 -53 59 45
c73 57 98 58 200 10 94 -45 132 -43 212 10 53 36 54 37 54 86 0 28 -1 50 -2
49 -2 0 -20 -14 -42 -30z"/>
</g>
</svg>
