<?xml version="1.0" standalone="no"?>
<!DOCTYPE svg PUBLIC "-//W3C//DTD SVG 20010904//EN"
 "http://www.w3.org/TR/2001/REC-SVG-20010904/DTD/svg10.dtd">
<svg version="1.0" xmlns="http://www.w3.org/2000/svg"
 width="58.000000pt" height="90.000000pt" viewBox="0 0 58.000000 90.000000"
 preserveAspectRatio="xMidYMid meet">
<metadata>
Created by potrace 1.15, written by Peter Selinger 2001-2017
</metadata>
<g transform="translate(0.000000,90.000000) scale(0.100000,-0.100000)"
fill="#000000" stroke="none">
<path d="M244 756 c-67 -30 -97 -119 -58 -174 14 -21 14 -24 -10 -53 -34 -40
-43 -92 -22 -135 16 -34 37 -51 154 -125 51 -32 63 -44 60 -62 -3 -19 -10 -22
-52 -25 -26 -2 -69 4 -94 12 -25 9 -47 16 -49 16 -2 0 -3 -24 -3 -54 0 -53 1
-55 33 -65 141 -46 253 -2 264 103 4 33 1 53 -11 71 -16 25 -16 27 8 56 33 39
41 87 23 132 -16 36 -48 63 -156 129 -68 42 -78 67 -35 94 23 16 30 16 77 2
29 -8 60 -19 70 -23 15 -6 17 -1 17 39 0 41 -3 48 -27 57 -46 18 -154 21 -189
5z m94 -275 c33 -22 63 -49 67 -61 7 -21 -17 -70 -34 -70 -20 0 -130 80 -136
100 -7 21 17 70 34 70 4 0 35 -18 69 -39z"/>
</g>
</svg>
