<?xml version="1.0" standalone="no"?>
<!DOCTYPE svg PUBLIC "-//W3C//DTD SVG 20010904//EN"
 "http://www.w3.org/TR/2001/REC-SVG-20010904/DTD/svg10.dtd">
<svg version="1.0" xmlns="http://www.w3.org/2000/svg"
 width="48.000000pt" height="54.000000pt" viewBox="0 0 48.000000 54.000000"
 preserveAspectRatio="xMidYMid meet">
<metadata>
Created by potrace 1.15, written by Peter Selinger 2001-2017
</metadata>
<g transform="translate(0.000000,54.000000) scale(0.100000,-0.100000)"
fill="#000000" stroke="none">
<path d="M130 486 c-44 -12 -45 -13 -48 -55 -3 -38 -1 -43 15 -38 99 28 114
30 140 21 20 -7 29 -17 31 -38 3 -25 -9 -41 -92 -122 -80 -77 -96 -98 -96
-123 l0 -31 150 0 150 0 0 40 0 40 -80 0 -80 0 47 43 c96 87 125 167 81 222
-41 52 -119 67 -218 41z"/>
</g>
</svg>
