<?xml version="1.0" standalone="no"?>
<!DOCTYPE svg PUBLIC "-//W3C//DTD SVG 20010904//EN"
 "http://www.w3.org/TR/2001/REC-SVG-20010904/DTD/svg10.dtd">
<svg version="1.0" xmlns="http://www.w3.org/2000/svg"
 width="63.000000pt" height="101.000000pt" viewBox="0 0 63.000000 101.000000"
 preserveAspectRatio="xMidYMid meet">
<metadata>
Created by potrace 1.15, written by Peter Selinger 2001-2017
</metadata>
<g transform="translate(0.000000,101.000000) scale(0.100000,-0.100000)"
fill="#000000" stroke="none">
<path d="M170 974 c0 -4 23 -49 52 -100 l52 -94 78 0 c89 0 88 -6 20 85 -82
110 -89 115 -149 115 -29 0 -53 -3 -53 -6z"/>
<path d="M225 561 c-83 -38 -128 -123 -129 -241 -1 -98 18 -160 66 -214 45
-52 91 -70 159 -64 57 6 84 26 110 83 l19 40 0 -57 0 -58 55 0 55 0 0 265 0
265 -50 0 c-49 0 -50 0 -50 -32 l0 -31 -22 21 c-49 45 -143 56 -213 23z m132
-89 c35 -28 63 -92 63 -144 0 -38 -6 -54 -28 -80 -27 -29 -34 -31 -91 -31 -53
0 -66 3 -88 25 -50 51 -37 180 24 228 32 25 90 26 120 2z"/>
</g>
</svg>
