<?xml version="1.0" standalone="no"?>
<!DOCTYPE svg PUBLIC "-//W3C//DTD SVG 20010904//EN"
 "http://www.w3.org/TR/2001/REC-SVG-20010904/DTD/svg10.dtd">
<svg version="1.0" xmlns="http://www.w3.org/2000/svg"
 width="63.000000pt" height="99.000000pt" viewBox="0 0 63.000000 99.000000"
 preserveAspectRatio="xMidYMid meet">
<metadata>
Created by potrace 1.15, written by Peter Selinger 2001-2017
</metadata>
<g transform="translate(0.000000,99.000000) scale(0.100000,-0.100000)"
fill="#000000" stroke="none">
<path d="M176 823 c26 -49 52 -94 57 -100 6 -9 37 -13 89 -13 l79 0 -76 100
-76 100 -60 0 -60 0 47 -87z"/>
<path d="M240 681 c-74 -23 -118 -62 -149 -131 -62 -141 -19 -300 99 -364 83
-45 205 -47 313 -4 26 10 27 13 27 79 0 38 -3 69 -7 69 -5 0 -26 -7 -48 -15
-55 -20 -175 -19 -225 1 -42 17 -70 55 -70 94 0 19 5 20 180 20 l180 0 0 41
c0 98 -49 177 -127 203 -49 17 -130 20 -173 7z m164 -103 l40 -43 -123 -3
c-68 -1 -126 -1 -128 2 -3 2 1 14 7 26 18 33 70 60 119 60 39 0 49 -5 85 -42z"/>
</g>
</svg>
