<?xml version="1.0" standalone="no"?>
<!DOCTYPE svg PUBLIC "-//W3C//DTD SVG 20010904//EN"
 "http://www.w3.org/TR/2001/REC-SVG-20010904/DTD/svg10.dtd">
<svg version="1.0" xmlns="http://www.w3.org/2000/svg"
 width="70.000000pt" height="91.000000pt" viewBox="0 0 70.000000 91.000000"
 preserveAspectRatio="xMidYMid meet">
<metadata>
Created by potrace 1.15, written by Peter Selinger 2001-2017
</metadata>
<g transform="translate(0.000000,91.000000) scale(0.100000,-0.100000)"
fill="#000000" stroke="none">
<path d="M387 833 c-8 -10 -45 -58 -81 -108 l-67 -90 28 -5 c27 -5 26 -6 -15
-18 -146 -44 -208 -275 -113 -424 67 -105 238 -138 394 -76 26 10 27 13 27 79
0 38 -3 69 -7 69 -5 0 -26 -7 -48 -15 -55 -20 -175 -19 -225 1 -42 17 -70 55
-70 94 0 19 5 20 181 20 l182 0 -5 64 c-10 115 -61 176 -169 200 l-47 11 89
102 c49 56 89 105 89 108 0 3 -29 5 -63 5 -48 0 -68 -4 -80 -17z"/>
</g>
</svg>
