<?xml version="1.0" standalone="no"?>
<!DOCTYPE svg PUBLIC "-//W3C//DTD SVG 1.1//EN" "http://www.w3.org/Graphics/SVG/1.1/DTD/svg11.dtd" >
<svg xmlns="http://www.w3.org/2000/svg" xmlns:xlink="http://www.w3.org/1999/xlink" version="1.1">
<metadata>
Created by FontForge 20160405 at Tue Dec 11 12:45:17 2018
 By www-data
Original Fonts are (c) Bitstream. OpenDyslexic changes and additional glyphs by Abelardo Gonzalez are licensed under a Creative Commons Attribution 3.0 Unported License.
Based on a work at http://dyslexicfonts.com. 2012 by Abelardo Gonzalez. Copying is an act of love. Please copy.
Bitstream license available here: http://opendyslexic.org/legal/
</metadata>
<defs>
<font id="OpenDyslexicAlta-BoldItalic" horiz-adv-x="1605" >
  <font-face 
    font-family="OpenDyslexicAlta"
    font-weight="700"
    font-style="italic"
    font-stretch="normal"
    units-per-em="1000"
    panose-1="0 0 8 0 0 0 0 0 0 0"
    ascent="800"
    descent="-200"
    x-height="1109"
    cap-height="1487"
    bbox="-174 -1080 2574 2404"
    underline-thickness="50"
    underline-position="-213"
    slope="-12"
    unicode-range="U+0020-FB02"
  />
<missing-glyph horiz-adv-x="1544" 
d="M833 1399c165 0 339 13 526 40c-96 -596 -151 -1188 -156 -1785c-175 25 -342 36 -506 36c-161 0 -324 -10 -488 -33l-23 23c92 576 141 1164 152 1759c175 -27 336 -40 495 -40zM1081 -26c23 443 61 875 125 1315c-129 -11 -252 -18 -381 -18c-121 0 -241 6 -361 17
c-17 -441 -52 -874 -107 -1314c121 8 245 12 366 12c63 0 122 0 180 -2s115 -6 178 -10z" />
    <glyph glyph-name="fi" unicode="fi" horiz-adv-x="1484" 
d="M1254 1086l-20 21c-156 -8 -307 -11 -460 -11h-149l2 15c-1 1 -1 6 0 13c4 61 10 127 46 178c13 17 35 29 58 36s47 10 70 10l54 13c36 8 86 20 122 29c1 11 3 23 5 38c4 28 8 60 11 89c1 14 3 26 4 37l-79 -9c-65 -7 -136 -13 -203 -31s-132 -45 -185 -92
c-47 -43 -72 -98 -87 -155s-18 -116 -19 -167c-53 3 -104 6 -156 10l-6 -73c0 -5 0 -10 -1 -17s-1 -13 -1 -20c-1 -14 -3 -28 -4 -37c49 -3 105 -6 157 -6c-31 -313 -66 -623 -121 -935c18 2 38 4 61 5s46 3 69 5c47 3 94 5 130 6c25 301 46 614 61 917c28 -1 53 -1 76 -1
h75h143s95 1 143 2c-36 -311 -63 -615 -78 -926c17 -1 37 -3 59 -4l65 -6c44 -4 89 -9 122 -13c-1 40 -3 85 -3 130c-1 22 -1 44 -1 67c-1 22 -1 43 -1 63c0 272 17 544 41 819zM1116 1494l-14 -101c-5 -35 -13 -89 -17 -124l102 6c25 1 65 3 92 6c3 17 6 37 9 60
c3 22 6 42 9 59c1 9 2 19 4 30c3 22 7 45 11 68c2 11 4 21 5 30c-13 -1 -28 -3 -43 -4c-15 -2 -31 -4 -47 -5c-33 -4 -66 -7 -93 -8z" />
    <glyph glyph-name="fl" unicode="fl" horiz-adv-x="1554" 
d="M804 1501c-49 0 -101 -2 -152 -17c-52 -15 -102 -40 -150 -87c-13 -16 -23 -33 -31 -50c-16 -35 -25 -72 -31 -110s-10 -71 -13 -98c-1 -14 -3 -27 -6 -39l-49 3c-14 1 -31 2 -50 3l-54 2c-1 -13 -1 -29 -2 -48s-1 -36 -2 -49l-2 -58c43 -3 98 -5 145 -6
c-31 -300 -71 -603 -134 -928c44 4 99 8 155 11c27 1 54 3 81 4l73 3c15 297 27 609 34 906c45 -1 89 -1 133 -1h133l6 74l8 79h-134c-48 0 -93 0 -136 1v40v31c0 11 0 21 -1 30c4 44 9 92 40 125c35 31 84 33 127 33h53c84 0 163 2 248 6c-57 -439 -97 -877 -109 -1329
c44 -3 98 -6 152 -10c54 -5 108 -10 152 -15v15v19c-1 7 -1 13 -1 19v15c-1 31 -2 63 -2 94c0 15 1 46 2 62c-5 1 -10 1 -17 2c-7 0 -15 0 -22 1c-15 1 -30 2 -39 2h-11c-5 0 -9 0 -14 1c13 424 54 850 130 1286c-189 -17 -353 -22 -510 -22z" />
    <glyph glyph-name=".notdef" horiz-adv-x="1544" 
d="M833 1399c165 0 339 13 526 40c-96 -596 -151 -1188 -156 -1785c-175 25 -342 36 -506 36c-161 0 -324 -10 -488 -33l-23 23c92 576 141 1164 152 1759c175 -27 336 -40 495 -40zM1081 -26c23 443 61 875 125 1315c-129 -11 -252 -18 -381 -18c-121 0 -241 6 -361 17
c-17 -441 -52 -874 -107 -1314c121 8 245 12 366 12c63 0 122 0 180 -2s115 -6 178 -10z" />
    <glyph glyph-name="NULL" horiz-adv-x="600" 
 />
    <glyph glyph-name="NULL" horiz-adv-x="600" 
 />
    <glyph glyph-name="space" unicode=" " horiz-adv-x="800" 
 />
    <glyph glyph-name="exclam" unicode="!" horiz-adv-x="722" 
d="M365 1465l-25 -16c-33 -319 -70 -657 -117 -974c59 9 105 13 142 13c36 0 78 -4 133 -13v71v32c0 13 0 26 1 40v39v32c1 24 1 48 1 72v73c1 15 3 31 4 48s3 33 4 48c12 173 28 372 44 547c-46 -15 -84 -22 -113 -22c-25 0 -50 3 -74 10zM246 285l-16 -15
c-4 -19 -8 -39 -11 -59s-7 -40 -10 -59v1l-28 -152c58 24 106 36 143 36c36 0 80 -11 131 -34v22v27c-1 9 -1 19 -1 28v21c-1 44 -2 88 -2 132v47c-43 11 -80 16 -109 16c-35 0 -66 -4 -97 -11z" />
    <glyph glyph-name="quotedbl" unicode="&#x22;" horiz-adv-x="977" 
d="M540 1455l-18 19c-13 1 -26 1 -41 2l-46 3c-31 2 -62 3 -87 6v-58c0 -175 -20 -353 -63 -537c29 3 69 6 109 8l59 3c19 1 36 1 51 2c23 191 33 373 36 552zM912 1483l-45 -3c-37 -3 -89 -5 -126 -5c-31 -191 -52 -380 -60 -572c14 -1 31 -1 50 -2l58 -3
c40 -2 80 -5 109 -8c-7 64 -7 113 -7 158c0 137 14 274 42 412z" />
    <glyph glyph-name="numbersign" unicode="#" horiz-adv-x="1562" 
d="M1220 1046c91 3 199 6 287 10c-5 -29 -12 -80 -16 -109l-8 -61l-161 -3c-55 -1 -109 -1 -162 -2c-9 -26 -17 -51 -25 -75c-16 -48 -31 -95 -46 -143c-8 -24 -16 -49 -24 -76c20 0 40 0 60 -1c40 -1 80 -2 143 -2c31 -1 59 -1 84 -1l-3 -41c-1 -17 -2 -31 -3 -42l-5 -83
l-117 3c-42 1 -81 1 -117 2c-18 0 -34 0 -47 1c-14 1 -30 1 -48 1c-15 -49 -32 -101 -48 -148c-6 -18 -12 -37 -18 -58c-13 -42 -26 -85 -38 -126c-7 -21 -13 -40 -18 -58c-23 1 -59 2 -82 2h-94l71 219c5 16 10 31 15 45c5 13 9 27 13 40s8 27 13 41c5 13 10 28 15 44h-123
c-39 0 -81 -1 -126 -2c-41 -121 -87 -240 -134 -360v2l-12 -34l-180 -8c56 131 108 264 155 399c-46 -1 -94 -3 -144 -4c-51 -2 -98 -4 -143 -5l3 22c1 8 3 17 4 26l3 26c1 8 1 15 2 21c1 5 1 10 2 17c1 13 4 28 6 41c1 6 1 11 2 15l176 2c55 0 92 1 147 2
c35 103 63 190 98 295c-93 0 -202 2 -291 5l4 71c3 27 4 69 4 96c112 -5 224 -7 335 -8c39 127 84 263 125 388h179l-68 -194c-23 -65 -45 -130 -66 -195h64h60c19 0 39 0 60 1h64c47 129 100 268 151 393c21 1 45 3 70 4s48 3 69 4h40c-56 -132 -110 -264 -157 -399z
M992 879h-121c-39 0 -81 0 -125 -1c-1 -5 -3 -9 -4 -13c-2 -4 -4 -9 -5 -14l-22 -68c-14 -44 -28 -85 -43 -128c-7 -22 -15 -45 -23 -69h88c19 0 39 0 58 1h57h43c11 32 21 64 32 97l33 97z" />
    <glyph glyph-name="dollar" unicode="$" horiz-adv-x="1275" 
d="M762 1159c-15 -133 -28 -264 -41 -397l-2 -20c49 -9 100 -21 149 -38s95 -40 134 -75c60 -56 84 -144 84 -227c0 -48 -12 -99 -35 -146s-55 -90 -95 -122c-85 -60 -185 -84 -282 -92l-2 -96c-1 -29 -2 -57 -2 -85c-1 -28 -1 -56 -2 -85l-21 -19c-25 1 -57 2 -88 2h-47
h-42l11 60c4 21 8 40 11 58c6 36 11 72 18 108c3 18 7 37 10 58c-124 7 -248 27 -372 78l12 84c1 11 3 25 5 40c1 15 3 30 5 46l6 46c1 15 3 28 4 39c117 -79 240 -120 364 -125l19 176l18 174c-96 20 -192 50 -263 123c-60 64 -78 153 -78 240c3 52 22 107 53 155
s72 89 123 116c85 39 169 54 245 59l7 55c1 13 3 26 5 41c1 14 3 28 4 43c3 29 5 60 8 85h29c13 -1 22 -1 29 -1c7 -1 17 -1 30 -1h29l-24 -220c100 -5 210 -17 323 -48l-11 -80l-13 -92c-107 56 -212 76 -315 83zM624 1078l8 73c-63 -8 -119 -22 -170 -63
c-48 -39 -73 -93 -73 -152c0 -53 27 -95 65 -126s88 -50 137 -55c5 42 9 84 13 126c4 41 8 83 13 126c3 26 5 50 7 71zM824 516c-36 28 -84 47 -129 55c-5 -65 -8 -130 -11 -194l-7 -131c48 8 97 19 144 36c25 8 42 27 52 50s12 48 12 71c0 48 -25 85 -61 113z" />
    <glyph glyph-name="percent" unicode="%" horiz-adv-x="2024" 
d="M1576 1489l-75 -3c-181 -232 -349 -479 -516 -723c-85 -124 -177 -255 -270 -385s-188 -260 -281 -379h50l67 3c23 1 46 1 67 2c172 224 335 462 495 695c88 129 183 267 280 403s197 270 294 394c-12 -1 -33 -3 -55 -4c-11 -1 -22 -1 -32 -2c-11 -1 -19 -1 -24 -1z
M615 1490h-13c-2 0 -4 0 -5 1h-6c-83 -1 -168 -30 -224 -98c-36 -44 -58 -95 -70 -148c-13 -53 -17 -108 -17 -159c0 -99 14 -198 69 -278c25 -40 63 -68 104 -85s88 -25 135 -25c88 0 174 36 237 104c41 45 70 99 87 156c17 56 25 115 25 171c0 89 -20 177 -76 245
c-60 73 -149 113 -246 116zM603 1349h10c51 -4 90 -34 116 -74c26 -41 39 -93 39 -142s-9 -120 -36 -178s-71 -105 -140 -105c-59 0 -95 31 -118 75s-31 100 -31 152v12c0 4 0 8 1 12v13c0 49 12 107 37 154s66 81 122 81zM1526 793c-91 0 -182 -35 -246 -108v1
c-43 -45 -69 -99 -87 -155c-18 -57 -25 -117 -25 -173c0 -88 20 -177 77 -244l-1 1c64 -83 167 -116 268 -116c40 0 83 6 123 22s76 41 103 77l-1 -1c37 44 59 97 72 150s17 109 17 160c0 99 -15 198 -72 277l1 -1c-51 76 -137 110 -229 110zM1517 651c53 0 88 -28 111 -68
s32 -92 32 -140c0 -47 -6 -113 -29 -168s-62 -97 -127 -97c-56 0 -98 25 -126 63s-41 89 -41 141c0 55 10 122 38 176s73 93 142 93z" />
    <glyph glyph-name="ampersand" unicode="&#x26;" horiz-adv-x="1725" 
d="M1458 5l-62 6c-24 1 -49 3 -74 5s-50 4 -74 5s-45 3 -63 4l-130 143c-140 -109 -303 -159 -474 -159c-64 0 -129 8 -189 26c-61 18 -117 47 -161 94c-71 72 -101 172 -101 272c0 104 29 201 80 286s122 159 205 219c-41 68 -73 141 -73 225c0 45 9 96 29 142
s49 88 89 119l-1 -1c43 36 91 58 142 72s103 18 154 18c111 0 224 -30 333 -73c-12 -20 -29 -48 -47 -76l-26 -41c-8 -13 -15 -25 -21 -35c-97 51 -198 94 -305 94c-56 0 -109 -17 -148 -48c-40 -32 -65 -78 -65 -137c0 -41 17 -81 41 -117c23 -36 53 -70 81 -102v1
c87 -93 172 -186 257 -282l193 -215c69 104 95 227 114 358h44h52c17 0 35 0 52 1h44c-4 -20 -8 -41 -12 -63c-9 -45 -18 -92 -28 -136c-5 -23 -10 -44 -15 -64c-23 -85 -63 -165 -114 -237zM591 212c109 0 223 41 314 112c-50 57 -99 113 -148 170l-148 169l-137 159
c-53 -47 -99 -98 -131 -157c-33 -59 -52 -123 -52 -192c0 -88 35 -154 91 -197s131 -64 211 -64z" />
    <glyph glyph-name="quotesingle" unicode="'" horiz-adv-x="559" 
d="M533 1463l-24 20c-23 -7 -47 -10 -71 -10c-23 0 -50 4 -89 19c-4 -88 -12 -187 -20 -287c-9 -100 -19 -199 -31 -287c39 9 74 15 102 15c21 0 49 -5 86 -17c9 176 26 371 47 547z" />
    <glyph glyph-name="parenleft" unicode="(" horiz-adv-x="816" 
d="M767 1505l-19 32c-44 -8 -88 -16 -139 -16c-104 -123 -199 -256 -274 -396c-76 -140 -132 -288 -156 -443c-6 -75 -9 -151 -9 -226c0 -224 28 -447 103 -664c71 -1 143 -8 226 -23c-57 155 -100 317 -112 462c-5 76 -9 150 -9 227c0 68 2 135 5 203v-1
c16 153 67 301 137 442s156 275 247 403z" />
    <glyph glyph-name="parenright" unicode=")" horiz-adv-x="790" 
d="M467 912c0 -84 -3 -168 -11 -253v1c-24 -152 -79 -304 -154 -452s-168 -293 -268 -434c104 23 185 30 257 30c89 135 172 276 241 413c99 200 129 415 129 635c0 121 -9 236 -30 348c-21 111 -55 219 -103 326c-53 3 -106 10 -159 19l4 -15l-15 2
c77 -199 109 -395 109 -620z" />
    <glyph glyph-name="asterisk" unicode="*" horiz-adv-x="1204" 
d="M1136 1220l8 24c-6 13 -13 30 -20 50c-8 19 -15 35 -20 48l-161 -98c-56 -35 -111 -67 -164 -98c9 120 21 226 34 346h-132l-15 -198l-12 -148c-12 8 -18 12 -23 16s-11 7 -23 14c-77 51 -168 110 -244 163c-11 -13 -18 -23 -22 -30c-5 -7 -8 -11 -9 -14
c-2 -3 -3 -6 -3 -7s-1 -4 -3 -7l-7 -10c-3 -5 -6 -9 -9 -14l-9 -15c-3 -5 -6 -8 -8 -11c96 -63 206 -129 309 -186c-55 -30 -112 -61 -171 -92c-59 -32 -115 -63 -168 -94c3 -7 8 -17 13 -30l12 -31l21 -50l161 96c28 17 56 33 83 49l82 49c-3 -35 -5 -63 -8 -91
c-1 -14 -3 -28 -4 -42c-1 -15 -3 -31 -5 -48c-5 -48 -12 -116 -15 -164h131c5 88 13 189 20 276l6 70c51 -33 99 -66 146 -97l143 -97c4 6 9 14 16 24c12 19 26 41 38 61l15 24c-48 31 -99 62 -152 94c-54 31 -106 62 -155 91l15 9c104 55 206 111 309 168z" />
    <glyph glyph-name="plus" unicode="+" horiz-adv-x="1513" 
d="M721 1025l-24 -292c-171 0 -337 0 -508 4l-16 -185h64h72s49 0 73 1h66c39 0 78 0 117 1h116c-4 -56 -10 -123 -17 -190l-9 -98c-3 -32 -6 -61 -9 -88l-14 -145h184c11 169 24 352 39 521h254c84 0 169 -1 254 -2l16 184c-164 -3 -342 -4 -507 -4c15 176 32 347 52 522
h-185z" />
    <glyph glyph-name="comma" unicode="," horiz-adv-x="618" 
d="M143 258l-20 -18c-4 -64 -8 -125 -13 -189l-23 -60c-16 -40 -35 -87 -55 -134c-20 -48 -41 -94 -58 -133c9 1 20 3 33 4c27 3 56 6 82 8c13 1 23 1 32 2c33 39 67 81 100 124s66 85 97 126l42 59c4 32 10 71 16 111s11 80 18 112c-73 -9 -136 -13 -192 -13h-30
c-9 0 -19 0 -29 1z" />
    <glyph glyph-name="hyphen" unicode="-" horiz-adv-x="861" 
d="M191 655l-18 -23c2 -10 3 -22 3 -36c0 -31 -14 -72 -43 -121c84 4 183 6 282 8s197 2 281 2c-8 27 -12 47 -12 61c0 31 17 74 44 119l-101 -2l-184 -6c-61 -2 -122 -3 -184 -3h-34c-6 0 -12 0 -17 1h-17z" />
    <glyph glyph-name="period" unicode="." horiz-adv-x="654" 
d="M101 325v-37c0 -85 -10 -179 -31 -280c61 5 115 8 162 8c44 0 96 -3 156 -8v13c-1 5 -1 11 -1 17v18c-1 5 -1 10 -1 13c0 83 10 174 33 278l-40 -3c-15 -1 -31 -1 -46 -2c-31 -2 -62 -3 -86 -3c-41 0 -82 2 -124 6z" />
    <glyph glyph-name="slash" unicode="/" horiz-adv-x="836" 
d="M720 1444l-16 -12c-29 -63 -59 -128 -89 -195c-61 -136 -121 -273 -179 -409c-29 -68 -58 -134 -85 -198c-56 -131 -116 -268 -176 -406s-121 -276 -181 -405c107 16 179 21 248 24c100 245 198 500 293 748c108 284 226 594 345 874c-11 -1 -23 -3 -37 -5l-43 -6
c-15 -2 -29 -4 -43 -6s-26 -3 -37 -4z" />
    <glyph glyph-name="zero" unicode="0" horiz-adv-x="1281" 
d="M769 1480h-28c-68 0 -140 -17 -207 -51c-68 -34 -129 -84 -174 -149c-51 -79 -85 -169 -109 -260c-24 -92 -40 -186 -52 -273c-4 -61 -7 -125 -7 -189c0 -127 14 -253 73 -372c31 -59 79 -103 137 -132s123 -44 190 -44h31c69 0 141 16 207 49s124 83 171 150
c53 81 87 170 111 261c23 91 37 183 49 274c4 57 7 118 7 178c0 129 -14 260 -73 381c-29 60 -77 104 -135 133s-126 44 -191 44zM733 1384h24c1 0 3 0 5 1h4c52 0 100 -20 137 -55c36 -36 61 -84 69 -140c11 -51 14 -100 14 -151c0 -21 -1 -72 -8 -139
c-8 -67 -20 -147 -43 -224s-55 -153 -101 -208c-46 -56 -106 -92 -185 -92h-7c-1 0 -2 0 -3 1h-3h-10c-77 0 -149 40 -176 112s-33 148 -33 228c0 76 3 157 13 239s29 166 62 249c17 51 52 96 95 128s94 51 146 51z" />
    <glyph glyph-name="one" unicode="1" horiz-adv-x="1361" 
d="M293 305l-18 -17c-7 -43 -13 -91 -20 -139s-14 -97 -21 -138c152 17 292 27 427 27c139 0 283 -11 434 -31v56c0 73 3 165 6 238c-96 9 -208 15 -307 18c28 381 63 758 106 1139c-8 -1 -17 -1 -27 -1c-20 -1 -42 -2 -62 -2h-27h-46c-16 0 -32 0 -47 1l-27 -4
c-107 -17 -211 -31 -331 -38v-46c-1 -18 -1 -36 -1 -54l-3 -100c116 11 237 25 338 44c-12 -161 -25 -315 -38 -469c-7 -77 -13 -155 -20 -232l-21 -238c-104 -1 -192 -6 -295 -14z" />
    <glyph glyph-name="two" unicode="2" horiz-adv-x="1404" 
d="M855 561v-1c22 21 44 42 65 64l64 63l31 32c53 63 101 128 134 198s53 144 53 225c0 88 -31 176 -98 236c-48 39 -105 64 -165 80c-61 16 -126 22 -187 22c-136 0 -277 -37 -420 -72v-50c-1 -38 -2 -80 -4 -118l-3 -51c141 64 285 110 418 110c64 0 127 -16 172 -50
s75 -87 75 -158c0 -57 -19 -115 -50 -166c-35 -60 -87 -114 -138 -170c-67 -68 -144 -124 -224 -180c-113 -84 -231 -175 -338 -267l-23 -151c-5 -27 -9 -53 -13 -78c-4 -26 -8 -50 -12 -72c170 20 331 30 484 30c147 0 301 -10 462 -30v72c0 26 0 53 1 80s1 53 2 80
c0 26 1 50 2 72c-161 15 -311 18 -456 19c32 87 97 163 168 231z" />
    <glyph glyph-name="three" unicode="3" horiz-adv-x="1334" 
d="M1189 1170c0 84 -27 147 -71 193c-45 46 -105 75 -171 93s-139 24 -206 24c-129 0 -264 -18 -403 -41c0 -23 -1 -55 -2 -87c-1 -16 -1 -32 -1 -47c-1 -15 -1 -29 -2 -40c132 31 260 53 381 53c49 0 117 -7 171 -32s95 -69 95 -144c0 -77 -32 -139 -82 -180
s-118 -63 -189 -63h-46c-15 0 -31 0 -46 1h-26c-9 0 -19 0 -29 1h-29h-26c-1 -15 -3 -34 -4 -55c-2 -21 -4 -40 -5 -55l-5 -67h134c45 0 94 -2 139 -10c44 -9 85 -27 120 -56c39 -35 69 -84 69 -143c0 -29 -14 -54 -33 -77c-20 -23 -45 -43 -68 -60
c-40 -32 -87 -51 -137 -62c-50 -12 -102 -14 -151 -14c-113 0 -229 19 -344 83c-3 -24 -6 -50 -10 -78l-12 -86c-8 -58 -17 -117 -25 -165c122 -32 241 -48 358 -48c75 0 156 3 237 19c80 15 161 43 233 95c60 45 98 106 122 173c23 67 31 138 31 203c0 76 -19 146 -59 206
c-37 55 -93 87 -157 100c76 27 139 79 182 144s67 143 67 222z" />
    <glyph glyph-name="four" unicode="4" horiz-adv-x="1337" 
d="M1154 605h16c-3 -25 -6 -69 -7 -94c-1 -12 -2 -27 -2 -45c-1 -19 -1 -34 -2 -45c-31 1 -62 3 -93 4l-93 3c-1 -19 -1 -38 -1 -57v-57c0 -91 2 -199 5 -290c-40 3 -91 6 -142 8l-75 3c-25 1 -47 1 -68 1l20 177c8 79 14 140 25 219h-79c-167 0 -355 -4 -524 -11
c3 19 6 44 9 69c3 24 5 49 8 68c212 300 426 597 650 890l16 8c39 1 82 2 128 4c45 2 88 4 128 5c-41 -287 -68 -570 -88 -857c33 0 69 -1 102 -2h20h24c8 -1 16 -1 23 -1zM763 610c23 232 46 462 74 697c-88 -119 -170 -232 -252 -347s-165 -230 -250 -353
c73 1 145 1 214 2s140 1 214 1z" />
    <glyph glyph-name="five" unicode="5" horiz-adv-x="1303" 
d="M364 1474l-22 -19c-1 -116 -6 -240 -13 -364s-15 -249 -26 -365c112 49 220 74 317 74c75 0 155 -12 224 -60c51 -43 75 -115 75 -184c0 -40 -11 -74 -28 -103s-42 -55 -70 -80c-37 -32 -81 -53 -127 -65c-46 -13 -96 -17 -141 -17c-113 0 -229 22 -342 82
c-7 -47 -15 -104 -23 -162s-18 -116 -26 -163c129 -31 249 -40 369 -40c73 0 151 5 227 22c75 17 147 47 210 96c64 49 105 118 130 190s34 150 34 219c0 116 -30 231 -109 315c-47 48 -102 80 -164 101c-62 20 -129 28 -196 28c-56 0 -112 -12 -169 -25c3 30 5 59 7 88
c1 28 3 56 5 84c3 56 5 111 8 170c83 -4 149 -5 234 -5c120 0 240 4 365 15l26 167c-144 -13 -271 -20 -388 -20c-130 0 -259 7 -387 21z" />
    <glyph glyph-name="six" unicode="6" horiz-adv-x="1314" 
d="M1137 1426l10 16c-89 23 -181 39 -274 39c-85 0 -175 -14 -259 -45c-84 -32 -163 -81 -224 -150c-84 -103 -133 -232 -162 -363s-37 -264 -37 -372c0 -127 15 -250 74 -359c33 -64 87 -110 150 -139s134 -43 206 -43c64 0 131 6 196 24s126 48 178 96
c57 55 94 123 117 195s31 148 31 217c0 56 -5 112 -20 165c-16 52 -40 101 -76 144l1 -1c-36 47 -85 79 -139 100s-114 30 -174 30c-121 0 -236 -55 -321 -143c11 59 25 119 46 177s49 113 92 165c37 47 86 76 139 95c52 19 109 26 164 26c85 0 178 -20 273 -59
c7 55 18 132 27 187zM703 810c72 0 141 -25 180 -82c41 -55 52 -122 52 -190v-11c-1 -4 -1 -8 -1 -12v-21c-7 -64 -44 -112 -95 -144c-52 -32 -116 -48 -175 -48s-122 9 -170 34c-49 25 -84 67 -84 131c0 43 9 91 25 136s39 88 70 123c53 56 126 84 198 84z" />
    <glyph glyph-name="seven" unicode="7" horiz-adv-x="1250" 
d="M344 1465v-73c0 -27 0 -52 -1 -73c149 -18 295 -27 439 -27c94 0 188 3 281 9c-51 -97 -97 -187 -142 -278s-90 -181 -138 -280c-56 -115 -116 -237 -177 -359s-124 -244 -185 -356c39 3 86 5 134 7c47 2 93 2 132 2h57c21 0 39 0 56 -1c35 101 76 223 109 326
c113 344 228 691 368 1027l8 46c1 4 3 15 4 26c1 5 1 11 2 16s1 8 1 10c-171 -22 -334 -33 -489 -33c-146 0 -291 10 -436 30z" />
    <glyph glyph-name="eight" unicode="8" horiz-adv-x="1333" 
d="M258 671h1c-43 -43 -71 -94 -90 -149s-26 -112 -26 -165c0 -96 24 -189 99 -249c51 -41 111 -65 175 -80s130 -19 197 -19c65 0 133 4 199 19s130 40 187 81c57 40 94 97 117 159s32 129 32 190c0 84 -27 157 -72 214s-109 99 -184 122c81 21 144 75 188 143
c43 68 66 150 66 227s-29 153 -85 206c-44 36 -97 60 -153 74s-115 18 -171 18s-116 -5 -175 -19s-115 -38 -164 -74c-88 -73 -128 -186 -128 -291c0 -63 17 -123 48 -174s77 -92 134 -113c-73 -23 -142 -63 -195 -120zM464 1145v2c3 67 38 117 88 150s113 50 173 50
c57 0 116 -11 161 -38c44 -28 75 -72 75 -137c0 -68 -29 -131 -74 -176s-108 -73 -175 -73h-10c-4 0 -8 0 -11 1c-4 -1 -8 -1 -11 -1h-11c-55 0 -106 21 -145 55s-63 81 -63 136c0 9 1 19 3 31zM675 719c75 1 144 -18 192 -70c43 -44 60 -104 60 -168
c-1 -64 -35 -116 -83 -156c-59 -47 -139 -61 -211 -61c-73 0 -149 13 -200 60c-32 31 -57 69 -57 113c0 37 8 77 24 114c15 36 38 70 67 97c59 47 136 71 208 71z" />
    <glyph glyph-name="nine" unicode="9" horiz-adv-x="1313" 
d="M527 8c85 0 173 13 256 44s159 79 220 150c81 101 131 228 161 357c30 128 39 260 39 369c0 129 -16 258 -79 379c-35 60 -89 104 -150 132s-132 41 -200 41c-65 0 -133 -6 -197 -24s-125 -49 -178 -98c-59 -53 -94 -119 -116 -190c-22 -72 -30 -147 -30 -216
c0 -113 21 -228 93 -313v1c36 -47 86 -80 140 -100c54 -21 113 -30 173 -30c121 0 235 54 319 142c-9 -52 -19 -107 -37 -156s-45 -95 -88 -130l2 2c-91 -56 -200 -66 -299 -66c-88 0 -179 21 -274 62l-9 -73c-3 -26 -7 -52 -10 -78c-7 -53 -15 -105 -23 -152l24 -2l-15 -10
c91 -27 184 -41 278 -41zM688 811c-81 1 -161 6 -233 35c-28 12 -46 36 -56 64s-14 61 -14 92c0 45 8 93 24 138c16 44 42 86 78 118c67 56 155 81 239 81c92 0 183 -18 244 -81c45 -44 61 -107 61 -174c0 -36 -3 -87 -18 -132s-41 -87 -86 -104c-76 -31 -159 -37 -239 -37z
" />
    <glyph glyph-name="colon" unicode=":" horiz-adv-x="711" 
d="M257 998l-6 -93c-2 -34 -4 -66 -7 -96c49 -11 91 -17 130 -17c41 0 85 5 134 14c4 44 10 98 16 154l17 153c-59 -21 -108 -33 -145 -33c-38 0 -73 7 -106 20l-27 -16zM217 328l-17 -17c-2 -23 -4 -48 -7 -74c-5 -53 -11 -108 -18 -160l-9 -75c56 17 106 27 146 27
c36 0 80 -9 131 -28c3 47 6 105 10 162l6 85c1 28 3 54 5 77c-47 8 -90 12 -128 12c-41 0 -80 -4 -119 -9z" />
    <glyph glyph-name="semicolon" unicode=";" horiz-adv-x="671" 
d="M257 1056l-3 -49c-1 -17 -3 -34 -4 -49l-6 -90c-3 -33 -6 -63 -9 -91c41 -4 62 -4 85 -4c48 0 101 5 165 22c8 84 18 181 29 265l2 45c-68 -25 -124 -36 -175 -36c-20 0 -41 1 -62 4zM249 246h-55c-1 -15 -3 -32 -4 -52s-3 -37 -4 -51c-3 -27 -5 -55 -8 -84l-34 -97
c-15 -41 -32 -91 -49 -142c-9 -26 -17 -51 -25 -75c-9 -25 -16 -47 -23 -68c64 24 119 35 164 38c18 30 37 61 58 94c20 33 39 64 58 94l86 143l6 77c1 17 3 36 5 59c1 22 3 42 4 59c-57 5 -101 6 -141 6h-19c-6 -1 -12 -1 -19 -1z" />
    <glyph glyph-name="less" unicode="&#x3c;" horiz-adv-x="1578" 
d="M1441 967l13 14c3 13 8 28 13 45c11 34 22 70 34 103c5 17 10 31 14 44c-173 -56 -365 -110 -558 -162s-387 -101 -563 -144l-187 -46c-1 -17 -3 -36 -6 -55c-5 -40 -11 -81 -18 -121l-9 -55c193 -100 404 -203 601 -299c85 -41 178 -87 271 -132
c92 -45 185 -91 269 -135c0 96 3 179 10 256c-173 89 -363 182 -539 266l-326 159c172 43 332 83 492 125c159 42 318 85 489 137z" />
    <glyph glyph-name="equal" unicode="=" horiz-adv-x="1645" 
d="M247 935l-21 -24c11 -49 16 -103 19 -160c188 -4 392 -6 581 -6c203 0 416 2 619 6c13 60 33 122 60 185c-213 -7 -453 -12 -666 -12c-199 0 -395 3 -592 11zM248 567l-20 -16c-11 -60 -28 -124 -59 -199c104 3 216 6 328 8c111 2 223 3 327 3c203 0 427 -4 628 -11
c-19 72 -27 143 -27 215c-175 3 -367 4 -542 4c-213 0 -423 -1 -635 -4z" />
    <glyph glyph-name="greater" unicode="&#x3e;" horiz-adv-x="1574" 
d="M295 1100l11 -18c87 -46 175 -90 264 -133c176 -86 322 -157 431 -209c55 -27 109 -54 164 -82l-237 -60c-248 -64 -500 -130 -747 -202c-9 -37 -19 -73 -31 -115s-26 -89 -46 -145c176 55 361 108 547 158s372 97 549 141l210 53c8 79 20 156 35 233
c-167 84 -347 172 -516 255c-100 48 -206 101 -312 154c-106 52 -212 105 -311 156c0 -8 0 -17 -1 -28s-1 -23 -2 -34c-1 -24 -3 -48 -4 -64c-1 -10 -2 -20 -2 -30c-1 -10 -1 -20 -2 -30z" />
    <glyph glyph-name="question" unicode="?" horiz-adv-x="1092" 
d="M696 430l3 30c0 10 0 20 1 30c3 56 6 115 25 167c7 16 14 29 25 42l10 14c5 7 11 14 16 22l15 22l10 15l79 81c48 51 97 102 133 159s60 120 60 195c0 73 -22 144 -77 192c-37 33 -82 53 -130 65s-99 15 -148 15c-128 0 -260 -28 -389 -84c0 -7 0 -16 -1 -27
s-1 -21 -1 -28s0 -16 -1 -27s-1 -23 -1 -34c-1 -24 -3 -48 -4 -61c59 31 120 60 180 81c60 20 118 33 173 33c52 0 101 -16 137 -47c36 -32 58 -76 58 -132c0 -33 -21 -66 -50 -97s-65 -59 -96 -83l-15 -12l-49 -42c-9 -7 -17 -13 -24 -20c-8 -7 -16 -13 -25 -20
c-47 -43 -93 -89 -124 -150c-35 -79 -41 -158 -48 -238l-8 -83c76 3 171 5 246 5zM431 310l-19 -18c-4 -43 -9 -89 -15 -136c-6 -48 -13 -96 -18 -137c68 4 156 8 223 8h58c1 21 3 44 5 71c1 26 3 49 5 70l11 147h-59c-64 0 -128 -2 -191 -5z" />
    <glyph glyph-name="at" unicode="@" horiz-adv-x="1934" 
d="M1199 208l-8 -101c76 0 156 12 232 36c75 23 145 59 201 108c64 64 109 146 139 232s43 176 43 257c0 147 -38 269 -101 366c-64 97 -155 171 -259 220c-105 48 -226 72 -350 72c-117 0 -237 -19 -349 -59c-113 -40 -222 -99 -315 -179c-99 -95 -169 -211 -214 -335
s-66 -255 -66 -380c0 -95 12 -190 40 -278s71 -170 135 -238v1c71 -83 163 -140 265 -179s213 -56 324 -56c195 0 397 61 574 186l-21 44c-8 17 -16 34 -23 52c-16 35 -31 70 -42 97c-148 -105 -314 -148 -469 -149c-87 1 -173 9 -252 33c-80 24 -152 64 -208 129l1 -1
c-56 68 -110 138 -147 218v-1c-21 48 -28 102 -28 158c0 127 27 258 84 375c56 117 142 219 259 290c131 80 279 116 427 116c100 0 199 -20 287 -60s165 -100 221 -179h-1c52 -83 76 -180 76 -280c0 -56 -6 -116 -22 -175s-42 -116 -79 -165c-51 -64 -122 -103 -199 -118
c15 233 38 459 65 692h-34c-14 -1 -28 -1 -43 -1c-15 -1 -29 -1 -42 -1c-14 -1 -26 -1 -35 -1c-1 -14 -3 -31 -4 -50c-2 -20 -4 -37 -5 -51v-8c-65 76 -158 126 -265 126s-209 -36 -285 -120c-48 -49 -80 -110 -100 -173c-20 -64 -29 -131 -29 -194c0 -91 23 -182 76 -253
c61 -81 163 -119 267 -119s204 48 281 121zM727 616c7 67 27 133 78 181c47 44 109 65 172 65c61 0 115 -19 154 -54s61 -88 61 -153c0 -79 -20 -159 -80 -219c-45 -47 -111 -64 -171 -64c-64 0 -117 18 -155 54s-61 88 -61 156c0 11 1 23 2 34z" />
    <glyph glyph-name="A" unicode="A" horiz-adv-x="1670" 
d="M945 1455h-197c-69 -141 -143 -303 -210 -447c-149 -324 -307 -664 -504 -1001l69 6c25 1 51 3 78 5l77 6c25 1 48 3 68 4c17 37 36 75 56 116c19 41 37 80 52 118c108 3 201 3 309 3c103 0 203 0 306 -3c15 -79 32 -156 51 -233c44 -3 99 -6 153 -10s108 -8 151 -12
c-76 181 -139 360 -195 537c-56 176 -105 350 -154 525c-35 125 -73 262 -110 386zM902 917c17 -69 33 -137 49 -205c15 -68 32 -136 49 -205h-107c-22 0 -44 0 -66 1h-67h-117c-39 0 -78 0 -118 -1c63 149 121 287 181 435l120 297l39 -161c12 -53 24 -107 37 -161z" />
    <glyph glyph-name="B" unicode="B" horiz-adv-x="1480" 
d="M1217 685c50 -57 81 -132 81 -213c0 -63 -8 -129 -31 -189c-24 -60 -62 -114 -122 -153c-60 -40 -125 -63 -191 -76s-136 -17 -201 -17c-171 0 -348 -9 -540 -30c89 495 131 983 131 1458l22 19c145 -20 292 -26 439 -29c91 -1 178 -9 259 -40c59 -23 103 -60 132 -104
c28 -45 43 -99 43 -152c0 -71 -18 -148 -54 -213s-92 -120 -165 -144c77 -19 147 -60 197 -117zM553 1314c-5 -149 -13 -284 -24 -436c43 -1 87 -2 131 -1h130c65 0 137 9 193 46c31 24 53 58 68 93s22 70 22 99c0 73 -30 121 -76 151s-108 41 -168 41c-92 0 -184 2 -276 7z
M1050 448c12 31 18 64 18 95c0 41 -32 75 -59 103v-1c-27 24 -60 39 -96 48c-36 8 -75 11 -112 11h-288l-4 -42c-11 -113 -20 -218 -35 -333c96 3 195 6 291 6c75 0 155 5 224 40l-1 -1c28 16 49 43 62 74z" />
    <glyph glyph-name="C" unicode="C" horiz-adv-x="1529" 
d="M1373 1358l18 10c-119 84 -269 113 -417 113c-96 0 -198 -10 -295 -40s-190 -79 -266 -152c-83 -87 -137 -201 -171 -317c-34 -117 -47 -238 -47 -341c0 -79 7 -157 27 -230c19 -73 50 -142 98 -202c64 -72 146 -120 237 -149s189 -41 285 -41c149 0 305 30 446 118v42
c0 47 2 105 4 164s3 117 6 165c-67 -60 -140 -105 -213 -136s-149 -46 -218 -46c-63 0 -130 4 -193 17c-64 13 -124 36 -173 76l1 -1c-36 32 -58 73 -72 118s-19 95 -19 146c0 80 9 170 34 258c24 87 65 170 132 241h-1c52 53 116 86 184 106c67 20 138 27 205 27
c140 0 284 -58 396 -171c4 31 10 72 17 112c3 20 7 40 10 59s6 37 9 52z" />
    <glyph glyph-name="D" unicode="D" horiz-adv-x="1606" 
d="M1463 1104c20 -69 27 -144 27 -217c0 -103 -8 -232 -40 -356c-32 -125 -90 -247 -190 -331c-92 -72 -195 -110 -302 -133c-108 -23 -218 -29 -323 -33c-67 -3 -138 -6 -210 -10c-73 -5 -145 -10 -212 -17c88 453 132 896 132 1332v63c0 21 0 42 -1 63l21 19
c132 -16 259 -23 390 -26c104 -5 215 -11 320 -34c104 -23 202 -62 282 -134c53 -53 86 -117 106 -186zM1281 768c3 31 3 63 3 94c0 101 -22 208 -83 284c-53 52 -122 84 -194 104c-73 20 -150 27 -222 30c-74 0 -148 2 -222 6c-11 -299 -31 -586 -67 -882c72 3 143 4 215 5
c5 0 10 0 15 1h15c63 1 127 5 189 14s122 27 178 59h-1c48 32 83 78 110 128s47 105 64 157z" />
    <glyph glyph-name="E" unicode="E" horiz-adv-x="1441" 
d="M367 1484l-23 -19c-4 -480 -45 -962 -129 -1458c172 19 335 30 488 30c149 0 307 -10 472 -30v77c0 28 0 56 1 85c1 56 2 114 5 161c-161 13 -311 19 -455 19c-84 0 -167 -2 -252 -5c3 31 7 62 10 91l10 88c6 58 11 116 16 179h307c54 0 111 0 172 1h172c0 5 0 14 1 25
s1 20 1 25c3 39 9 95 16 134c-137 -3 -294 -6 -431 -6c-77 0 -146 1 -222 2c5 69 9 136 14 200c5 63 9 129 12 198c93 -5 169 -7 264 -7c140 0 286 7 441 23c4 31 11 74 16 105l14 83c-168 -20 -327 -31 -478 -31c-149 0 -296 10 -442 30z" />
    <glyph glyph-name="F" unicode="F" horiz-adv-x="1139" 
d="M366 1478l-23 -18c-23 -476 -75 -961 -168 -1454c96 15 184 20 268 27c20 207 36 426 49 633h156c29 0 58 0 87 1h87h96s66 0 95 -1l8 79l3 34c1 12 3 25 4 38c3 26 5 51 8 71c-120 -3 -259 -5 -379 -5h-89c-9 0 -20 0 -33 1h-33c4 34 8 67 12 99c8 63 15 124 22 187
c3 31 7 64 11 97c57 -3 100 -3 159 -3c139 0 280 8 428 25c2 13 4 29 7 46s5 35 8 54c3 18 5 36 8 53s5 33 7 46c-160 -23 -307 -34 -444 -34c-119 0 -237 8 -354 24z" />
    <glyph glyph-name="G" unicode="G" horiz-adv-x="1620" 
d="M1221 1457c83 -18 162 -48 235 -95l-9 -53c-2 -10 -4 -22 -6 -36l-6 -44c-5 -29 -9 -60 -12 -80c-129 119 -290 173 -446 173c-67 0 -139 -7 -209 -27s-136 -52 -189 -101c-63 -68 -103 -151 -128 -237s-34 -175 -34 -254c0 -52 3 -107 16 -156s35 -94 75 -127l-1 1
c49 -36 110 -57 172 -69s128 -16 192 -17c24 1 49 1 76 2c52 0 105 7 150 23c22 7 41 19 57 34l2 2c1 23 3 47 4 70s3 46 4 69c-47 1 -96 2 -147 2h-146l19 223h260c41 0 85 0 132 1h131c-19 -209 -29 -411 -29 -611c-165 -105 -350 -140 -527 -140c-96 0 -198 10 -291 38
s-179 75 -244 148c-47 57 -77 125 -97 198c-20 72 -28 148 -28 223c0 105 10 230 43 351c32 120 86 236 177 324c73 68 166 116 263 146s199 43 291 43c83 0 167 -6 250 -24zM1154 389l2 2v1z" />
    <glyph glyph-name="H" unicode="H" horiz-adv-x="1612" 
d="M366 1482l-23 -19c-5 -480 -49 -960 -150 -1456l59 6c21 1 43 3 66 5c45 4 89 7 124 10c23 153 44 323 61 476c55 1 106 2 155 2h155h153s102 -1 153 -2c-11 -159 -16 -316 -17 -476c17 -1 37 -3 58 -4c21 -2 43 -4 65 -5c44 -4 88 -8 121 -12c-3 71 -5 161 -5 233
c0 404 40 817 115 1245l-32 -3c-12 -1 -24 -3 -37 -4c-25 -3 -50 -5 -69 -6l-91 -7c-36 -219 -64 -455 -83 -675c-155 -1 -290 -2 -445 -2h-96c-14 0 -26 0 -37 1h-37c20 228 31 448 38 675c-73 3 -142 9 -201 18z" />
    <glyph glyph-name="I" unicode="I" horiz-adv-x="709" 
d="M367 1467l-26 -16c-45 -476 -99 -980 -159 -1456c55 27 101 42 136 42s76 -14 122 -41c13 237 29 492 49 746c19 254 40 508 61 745c-47 -21 -85 -32 -114 -32c-23 0 -46 5 -69 12z" />
    <glyph glyph-name="J" unicode="J" horiz-adv-x="844" 
d="M561 1453l-19 -17c-64 -444 -116 -880 -171 -1324v1c-9 -60 -46 -100 -93 -128c-48 -28 -106 -43 -158 -51l-100 8c-1 -12 -3 -28 -4 -47l-5 -47c-8 -76 -18 -174 -29 -250l31 3c11 1 23 3 35 4c24 3 49 5 66 5l50 9c49 8 102 18 151 34s97 39 140 75
c49 49 80 108 98 170s25 127 32 188c51 457 112 935 188 1392c-89 -19 -151 -22 -212 -25z" />
    <glyph glyph-name="K" unicode="K" horiz-adv-x="1658" 
d="M365 1479l-22 -19c-9 -476 -64 -956 -169 -1453c40 4 90 9 140 13c25 1 49 3 73 5c24 1 46 3 65 4c20 213 35 439 44 656c69 -117 132 -223 196 -327c64 -105 129 -209 205 -322c152 -3 314 -13 494 -32c-99 107 -213 232 -326 358s-227 252 -326 363
c-9 11 -19 23 -29 34s-20 23 -29 34l243 213c81 71 161 142 242 212l302 263l-107 -7c-60 -5 -122 -8 -182 -11c-30 -26 -61 -53 -94 -81l-94 -82c-161 -137 -321 -277 -478 -418c11 103 19 196 27 291c7 95 14 188 19 291c-60 3 -135 8 -194 15z" />
    <glyph glyph-name="L" unicode="L" horiz-adv-x="1378" 
d="M366 1481l-23 -18c-12 -475 -59 -963 -150 -1456c168 20 327 30 477 30c145 0 291 -9 443 -26c3 47 7 103 12 160c4 56 10 112 15 159c-156 13 -298 19 -437 19c-80 0 -160 -2 -240 -5c47 375 75 743 94 1118c-72 3 -132 10 -191 19z" />
    <glyph glyph-name="M" unicode="M" horiz-adv-x="1843" 
d="M364 1481l-21 -19c0 -475 -49 -961 -161 -1454c39 4 88 7 137 11c49 3 98 6 137 7c53 400 82 793 83 1185c68 -228 127 -469 180 -698l62 -254h67c9 0 19 0 28 1h27h27c9 -1 17 -1 26 -1h67c9 23 20 49 32 77c11 27 22 53 31 76v-1c109 268 216 531 340 794
c-67 -385 -110 -774 -117 -1178c19 -1 41 -3 64 -4s46 -3 70 -4c48 -4 95 -7 134 -11c-7 108 -11 237 -11 346c0 368 40 741 112 1129c-22 -2 -46 -4 -71 -5l-77 -6c-52 -4 -104 -8 -147 -9c-139 -227 -269 -476 -392 -711l-57 -109c-45 143 -89 278 -135 412
s-95 266 -150 406c-91 4 -193 11 -285 20z" />
    <glyph glyph-name="N" unicode="N" horiz-adv-x="1579" 
d="M1442 1487c-84 -457 -131 -905 -131 -1344c0 -39 1 -96 2 -135c-44 5 -97 10 -150 14s-106 7 -150 10c-109 219 -210 450 -307 675c-35 83 -69 164 -102 244c-33 79 -68 160 -105 241c-3 -384 -23 -764 -60 -1163c-19 -1 -41 -3 -64 -4c-23 -2 -47 -4 -71 -5
c-49 -4 -98 -9 -137 -13c104 487 156 957 169 1424l22 19c63 -8 123 -12 186 -16c7 0 15 0 25 -1s18 -1 25 -1c108 -212 208 -439 304 -656c18 -41 35 -78 50 -113c31 -69 60 -135 92 -203c16 -35 34 -72 53 -113c28 371 74 745 146 1121c13 1 29 2 47 4c17 1 36 3 55 5
c19 1 37 3 55 5c17 2 33 4 46 5z" />
    <glyph glyph-name="O" unicode="O" 
d="M909 1480c-89 0 -181 -12 -268 -42s-168 -79 -233 -150h1c-87 -91 -139 -205 -170 -323s-40 -240 -40 -347c0 -75 8 -149 26 -220c18 -72 46 -139 90 -196c52 -68 122 -116 202 -147c79 -31 165 -45 252 -45c91 0 185 12 273 41s170 78 238 150c81 93 134 205 166 322
c32 116 44 237 44 348c0 73 -6 148 -24 220c-18 71 -47 137 -91 196c-53 71 -126 118 -207 149s-171 44 -259 44zM897 1305c121 0 235 -48 302 -144v1c57 -93 75 -204 75 -319c0 -56 -4 -132 -23 -203c-20 -72 -54 -140 -117 -180c-96 -52 -215 -70 -322 -70
c-55 0 -110 4 -162 14c-53 10 -105 27 -149 55c-35 21 -56 55 -68 93c-13 38 -17 80 -17 123c0 79 9 166 32 251c23 84 59 165 115 232c41 52 94 88 152 112s121 35 182 35z" />
    <glyph glyph-name="P" unicode="P" horiz-adv-x="1280" 
d="M1207 1268c19 -47 27 -99 27 -151c0 -71 -11 -148 -36 -222s-66 -145 -123 -198c-51 -47 -109 -75 -172 -93s-128 -24 -191 -24h-108c-33 0 -70 0 -109 -1c-23 -179 -51 -372 -82 -549c-36 -3 -82 -6 -129 -10s-94 -9 -130 -13c108 493 164 976 188 1451l22 18
c140 -16 280 -21 421 -21c56 0 112 -3 167 -12s107 -26 155 -54c48 -32 80 -74 100 -121zM1056 1111c2 15 3 29 3 43c0 84 -38 135 -90 164c-52 28 -118 36 -171 36c-80 0 -157 0 -236 3c-15 -175 -30 -332 -50 -508c88 -1 175 -2 263 -2c69 0 140 29 192 77s88 114 89 187z
" />
    <glyph glyph-name="Q" unicode="Q" horiz-adv-x="1847" 
d="M1382 346c44 80 73 172 90 263s23 183 23 263c0 73 -7 148 -26 218s-47 135 -91 191c-56 69 -134 117 -219 148s-179 45 -268 45c-85 0 -174 -13 -257 -44c-84 -31 -162 -78 -226 -145c-83 -87 -134 -193 -165 -304c-31 -112 -41 -228 -41 -332c0 -80 7 -161 27 -237
c19 -77 48 -149 95 -213c53 -72 124 -119 204 -150s169 -43 258 -43c23 0 44 1 63 3c25 -31 49 -61 72 -88s47 -56 72 -87h-1l44 -53c155 -4 318 -15 490 -33l-20 24c-9 10 -18 21 -27 32l-26 31c-9 10 -16 18 -21 24c-73 85 -144 171 -213 259c64 68 114 144 163 228z
M897 1299c60 0 121 -12 174 -36c52 -24 98 -60 130 -109c59 -91 77 -198 77 -310c0 -80 -10 -162 -39 -234c-29 -73 -78 -135 -157 -175c-72 11 -142 33 -217 69l-26 -39c-11 -15 -20 -28 -27 -39l-37 -53c-104 16 -187 34 -270 86c-36 23 -59 57 -71 97
c-13 40 -17 85 -17 129c0 76 9 161 33 243c23 82 58 161 113 226c85 101 207 145 334 145z" />
    <glyph glyph-name="R" unicode="R" horiz-adv-x="1649" 
d="M1284 216c34 -73 67 -146 99 -210c-43 5 -96 10 -150 15c-54 4 -109 7 -152 10c-44 120 -88 249 -127 372l1 -2c-29 68 -61 137 -114 184l1 -1c-47 33 -104 43 -164 43h-64c-19 0 -40 0 -64 -1c-19 -196 -45 -402 -73 -598c-36 -1 -82 -5 -129 -9s-94 -8 -130 -12
c88 477 130 938 130 1395v85c161 -21 308 -28 452 -31c101 -3 203 -16 291 -67c51 -35 85 -79 106 -127c21 -49 30 -102 30 -155c0 -75 -16 -160 -52 -235c-37 -75 -94 -140 -175 -172c45 -25 79 -63 107 -106c27 -43 49 -91 70 -136l13 -30l-1 1c28 -67 61 -140 95 -213z
M663 840h112c57 0 129 21 186 57s102 88 109 148c0 3 0 6 1 9v8c1 15 2 29 2 44c0 67 -14 132 -66 168c-56 40 -122 60 -194 61c-39 1 -77 1 -116 2s-79 2 -119 5c-3 -87 -7 -168 -11 -250s-9 -164 -16 -251c37 -1 75 -1 112 -1z" />
    <glyph glyph-name="S" unicode="S" horiz-adv-x="1389" 
d="M1209 1415l6 12c-136 36 -274 53 -417 53c-65 0 -132 -4 -196 -19c-65 -15 -129 -38 -186 -78c-55 -39 -92 -90 -115 -147s-32 -119 -32 -178c0 -88 19 -178 78 -242c39 -40 86 -69 136 -90s104 -36 157 -47l33 -7c56 -11 135 -27 201 -58c66 -32 117 -77 117 -145
c0 -25 -13 -48 -30 -68c-17 -21 -41 -40 -62 -53c-73 -47 -163 -61 -247 -61c-148 0 -295 40 -435 121c-5 -48 -14 -106 -22 -165c-9 -59 -18 -117 -26 -165c153 -47 307 -68 460 -68c71 1 144 4 216 18s145 38 213 83c57 41 95 98 117 159s29 129 29 190
c0 59 -11 117 -34 170c-24 53 -60 100 -112 136c-88 60 -186 81 -285 101l-59 12c-33 8 -69 16 -104 28c-35 11 -67 26 -94 47c-27 29 -40 75 -40 118c0 68 27 136 100 184l-2 -1c75 40 156 50 233 50c129 0 260 -36 389 -91c3 20 6 46 10 71l6 38c1 12 3 23 4 32l9 59z" />
    <glyph glyph-name="T" unicode="T" horiz-adv-x="1555" 
d="M366 1484l-22 -19c1 -49 2 -117 2 -166c92 -7 204 -9 296 -9h49c35 0 71 1 107 2h49c-44 -421 -95 -835 -151 -1256h22c9 0 18 0 27 1h26h22h73c37 0 93 -1 129 -2c9 415 38 842 67 1258c65 -3 114 -3 181 -3c100 0 219 4 320 8c3 18 7 38 12 61s9 43 12 61l11 66
c-223 -21 -435 -32 -646 -32c-197 0 -392 10 -586 30z" />
    <glyph glyph-name="U" unicode="U" horiz-adv-x="1523" 
d="M343 1464v-69c0 -276 -17 -548 -45 -827c-4 -41 -7 -83 -7 -127c0 -55 5 -109 20 -161c15 -53 38 -103 77 -147c49 -52 113 -83 182 -101s143 -23 215 -23s149 6 223 26s144 55 207 115c53 57 89 125 111 197c22 71 32 146 37 217c23 300 55 601 118 921l-76 -7
c-43 -5 -101 -10 -144 -13c-10 -58 -19 -118 -27 -180c-17 -124 -33 -251 -45 -375c-7 -63 -13 -123 -19 -182c-5 -55 -13 -113 -29 -169s-40 -109 -73 -153c-32 -36 -74 -58 -120 -72s-96 -19 -141 -19s-94 4 -138 17s-82 36 -107 72h1c-41 61 -51 136 -51 215
c0 33 2 69 5 104c20 243 36 499 41 740c-60 4 -133 12 -193 20z" />
    <glyph glyph-name="V" unicode="V" horiz-adv-x="1670" 
d="M755 36h87c15 0 30 0 45 1h45h72s50 0 72 -1l87 215c81 204 165 409 255 614s188 412 300 621l-95 -7c-43 -4 -93 -8 -136 -11c-77 -128 -152 -267 -226 -407s-145 -281 -212 -414c-19 -36 -37 -72 -55 -109s-36 -74 -55 -111l-65 195c-92 283 -188 573 -301 845
c-31 1 -71 5 -112 9s-81 8 -112 12c33 -94 64 -186 92 -277c56 -182 103 -362 146 -539s78 -325 106 -443c14 -59 28 -119 43 -178z" />
    <glyph glyph-name="W" unicode="W" horiz-adv-x="2175" 
d="M555 1471l-207 15c68 -237 115 -480 147 -724c31 -245 47 -492 56 -737l78 3c27 1 55 2 84 3c56 2 113 3 162 3c59 116 118 241 177 366s116 251 169 370c3 -11 5 -20 7 -25c1 -6 3 -11 4 -16l9 -41c53 -216 107 -432 182 -653c44 -1 97 -3 150 -4c52 -1 105 -3 150 -4
c57 244 123 489 204 733c80 244 177 486 296 725c-11 0 -30 -1 -49 -2c-10 -1 -20 -1 -29 -1c-9 -1 -17 -1 -23 -2c-35 -3 -78 -5 -113 -6c-179 -333 -316 -676 -443 -1024l-42 111c-25 68 -49 135 -73 204l-39 111c-24 71 -54 152 -79 221h-177c-25 -41 -51 -84 -77 -129
s-51 -89 -76 -131c-72 -125 -144 -246 -220 -369c-27 168 -57 336 -93 504c-37 167 -80 334 -135 499z" />
    <glyph glyph-name="X" unicode="X" horiz-adv-x="1682" 
d="M359 1477l-19 -28c121 -228 235 -467 344 -703l9 -21c3 -7 7 -15 10 -22c-92 -113 -189 -232 -287 -351c-98 -120 -198 -238 -293 -347c25 3 52 5 83 8l186 13c31 1 58 3 82 4c117 161 233 330 344 498c41 -88 83 -170 124 -250c41 -81 84 -162 131 -246l172 -11
c61 -5 123 -10 171 -15c-73 107 -149 223 -224 342s-148 238 -215 350c168 259 351 536 535 785l-103 -7c-43 -4 -92 -7 -135 -10c-143 -193 -281 -396 -414 -595l-74 151c-25 49 -49 98 -74 147c-49 96 -100 193 -155 293l-36 3c-15 1 -28 1 -38 2c-43 3 -81 5 -124 10z
" />
    <glyph glyph-name="Y" unicode="Y" horiz-adv-x="1544" 
d="M361 1484l-19 -28c145 -307 267 -619 391 -932c-7 -79 -15 -161 -24 -244s-17 -165 -25 -244h22c8 0 16 0 25 1h25h21h70c35 0 89 -1 124 -2c9 157 19 330 34 489c14 25 28 50 43 75l44 75c76 132 159 272 243 411s170 275 257 402l-79 -7c-51 -5 -108 -9 -159 -12
c-160 -232 -312 -477 -460 -717c-55 124 -107 243 -162 360s-112 234 -173 354c-63 5 -134 11 -198 19z" />
    <glyph glyph-name="Z" unicode="Z" horiz-adv-x="1669" 
d="M343 1462v-165c191 -17 370 -23 546 -23c103 0 207 2 311 6c-167 -167 -325 -326 -482 -486c-157 -161 -312 -323 -475 -492c-7 -44 -16 -96 -25 -148s-19 -103 -28 -147c217 20 421 30 612 30c195 0 394 -10 601 -29c-3 59 -4 138 -4 197c0 33 1 84 2 116
c-180 12 -377 18 -560 18c-108 0 -218 -2 -326 -5c42 42 82 82 120 121l224 228c37 39 77 79 118 121c83 85 167 171 251 256s168 171 251 256l14 75c1 12 5 30 9 47c2 9 4 17 5 26c1 8 3 15 4 21c-213 -20 -415 -30 -604 -30c-183 0 -362 7 -543 26z" />
    <glyph glyph-name="bracketleft" unicode="[" horiz-adv-x="958" 
d="M564 1507c68 0 145 17 228 46l-7 -72l-11 -92c-76 -27 -149 -36 -218 -36h-7c0 -1 -3 -1 -8 0c-36 -451 -75 -892 -116 -1344h14c65 0 135 -6 210 -30c-3 -44 -6 -104 -9 -147l-5 -94c-76 28 -146 42 -210 42c-68 0 -143 -14 -225 -42c68 589 122 1199 157 1788l28 16
c55 -24 116 -35 179 -35z" />
    <glyph glyph-name="backslash" unicode="\" horiz-adv-x="1157" 
d="M535 1435l-17 16c-47 7 -98 16 -169 41c13 -69 25 -140 38 -213l72 -438c11 -73 23 -145 34 -214c41 -260 83 -531 130 -790c68 -5 121 -17 176 -32l47 -9c-28 133 -58 283 -86 434s-56 302 -80 437c-47 257 -93 512 -145 768z" />
    <glyph glyph-name="bracketright" unicode="]" horiz-adv-x="961" 
d="M794 1523l-26 20c-64 -23 -132 -36 -200 -36c-63 0 -132 15 -205 47l-5 -89l-3 -37c-1 -15 -1 -27 -2 -37c69 -31 139 -38 207 -38h18c-11 -115 -21 -229 -31 -341c-21 -224 -40 -447 -59 -671l-30 -341h-12c-67 0 -139 -10 -216 -30l-11 -107l-14 -125
c83 28 157 42 224 42c65 0 134 -14 209 -41c33 589 88 1195 156 1784z" />
    <glyph glyph-name="asciicircum" unicode="^" horiz-adv-x="1623" 
d="M1016 1473h-160c-29 -25 -59 -53 -90 -83l-88 -84c-63 -60 -127 -121 -199 -185c-73 -64 -155 -130 -251 -202l79 3c30 1 61 2 93 3c63 2 126 3 171 3c100 100 180 202 260 303c32 41 62 79 95 119c7 -11 13 -20 18 -29s11 -17 16 -25l15 -24c5 -9 10 -18 17 -29
c65 -108 128 -214 216 -314c23 -1 49 -1 80 -2c60 -1 124 -3 184 -6l78 -3c-91 73 -164 142 -228 209s-119 131 -174 195c-21 25 -43 50 -66 77c-23 26 -45 51 -66 74z" />
    <glyph glyph-name="underscore" unicode="_" horiz-adv-x="1440" 
d="M1050 -300l-13 34c-180 -3 -357 -4 -537 -4c-40 0 -82 0 -127 1c-45 0 -90 0 -135 1c-91 0 -182 2 -262 3c33 -37 50 -67 50 -89c0 -29 -23 -65 -70 -108l279 3c49 0 97 0 145 1h135h135c47 -1 96 -1 145 -1l279 -3c-40 37 -58 67 -58 87c0 27 13 56 34 75z" />
    <glyph glyph-name="grave" unicode="`" horiz-adv-x="862" 
d="M599 1610l-16 7c-28 0 -66 2 -103 4s-74 3 -102 6c32 -53 55 -98 75 -138c19 -40 35 -77 51 -114c9 -19 19 -41 29 -64s20 -45 29 -64h44c17 0 37 0 59 -1c21 -1 43 -1 66 -2l67 -3c22 -1 42 -2 59 -3c-37 45 -69 86 -94 123c-51 75 -87 132 -117 180
c-15 23 -31 46 -47 69z" />
    <glyph glyph-name="a" unicode="a" horiz-adv-x="1276" 
d="M1162 1130c-9 -3 -32 1 -39 0c-7 -2 -54 0 -56 0h-110c-8 -49 -9 -75 -20 -165c-59 94 -170 155 -290 155h-28c-56 0 -115 -14 -168 -39s-103 -62 -140 -110l1 1c-63 -75 -103 -164 -127 -256c-24 -93 -33 -188 -33 -269c0 -105 19 -206 76 -294
c63 -95 172 -144 289 -144h10c1 0 3 0 5 1h4h15c61 0 122 15 178 41s107 65 147 113c12 -70 7 -99 -3 -136l63 -5c39 -3 116 -9 153 -14c-78 373 -22 606 73 1121zM597 976h24c47 0 89 -16 122 -45s58 -71 69 -122s16 -103 16 -155c0 -36 -1 -88 -13 -139s-33 -89 -73 -118
l1 1c-60 -39 -133 -43 -201 -46c-33 0 -68 2 -100 9s-61 20 -84 43c-23 24 -38 42 -46 74c-9 32 -8 67 -9 100c7 57 14 120 37 180c23 59 54 113 96 153s94 65 161 65z" />
    <glyph glyph-name="b" unicode="b" horiz-adv-x="1372" 
d="M553 1509c-7 1 -89 2 -195 24c-11 -507 -12 -711 -105 -1226l122 -141c49 -56 127 -88 179 -115s110 -42 170 -42h9c1 0 3 0 5 1h4h15c117 -1 234 48 314 143c59 69 95 153 116 239s28 173 28 253c0 117 -27 237 -87 326s-152 149 -281 149h-30c-59 0 -117 -14 -171 -39
s-103 -64 -139 -112c19 177 34 365 46 540zM1088 601l1 4c-8 -39 -18 -79 -34 -116s-38 -73 -70 -98l2 2c-56 -39 -120 -55 -184 -59c-33 0 -69 5 -104 17c-35 11 -69 29 -94 54c-36 51 -49 123 -52 187c11 97 37 205 100 288c55 67 138 99 219 99c88 0 142 -44 175 -107
c32 -63 42 -147 42 -224v-12c-1 -4 -1 -8 -1 -12v-23z" />
    <glyph glyph-name="c" unicode="c" horiz-adv-x="1214" 
d="M1020 1049l17 19c-86 32 -177 48 -272 48c-75 0 -155 -9 -231 -32c-77 -23 -152 -59 -212 -115c-67 -65 -109 -151 -133 -240c-25 -89 -34 -183 -34 -260c0 -59 5 -116 20 -171s38 -106 75 -150l-1 1c48 -60 113 -97 185 -119s150 -29 223 -29c96 0 197 14 301 53
c-1 35 -2 79 -2 114c0 25 1 60 2 94s3 66 4 93c-56 -27 -109 -41 -148 -41h-12l-146 3h1c-83 7 -166 16 -230 59h1c-25 20 -41 48 -51 79s-15 65 -15 100c5 49 15 103 32 155c16 52 39 101 74 140c33 40 77 67 125 84c47 17 98 24 146 24c89 0 186 -25 279 -72l8 60v-1
c3 19 7 37 10 54s6 35 10 54z" />
    <glyph glyph-name="d" unicode="d" horiz-adv-x="1334" 
d="M647 1120h-28c-56 0 -115 -14 -168 -39s-103 -62 -140 -110l1 1c-63 -75 -103 -164 -127 -256c-24 -93 -33 -188 -33 -269c0 -105 19 -206 76 -294c63 -95 172 -144 289 -144h10c1 0 3 0 5 1h4h15c61 0 122 15 178 41s107 65 147 113c-1 -11 -1 -19 -1 -24
c-1 -5 -1 -8 -1 -11v-12v-24v-33c-1 -14 -1 -25 -1 -32l63 -5c39 -3 95 -9 132 -14c8 508 63 1015 158 1530c-9 -3 -18 -5 -25 -6c-7 -2 -12 -3 -14 -3c-51 -7 -112 -13 -163 -17c-32 -177 -64 -367 -87 -548c-59 101 -170 155 -290 155zM297 578c7 57 20 120 43 180
c23 59 54 113 96 153s94 65 161 65h24c47 0 89 -16 122 -45s58 -71 69 -122s16 -103 16 -155c0 -36 -1 -88 -13 -139s-33 -100 -73 -129l1 1c-60 -39 -133 -43 -201 -46c-33 0 -68 2 -100 9s-61 20 -85 43h1c-23 24 -38 53 -46 85c-9 32 -14 67 -15 100z" />
    <glyph glyph-name="e" unicode="e" horiz-adv-x="1310" 
d="M1115 670l-32 13l33 -14c-1 -7 -1 -13 -1 -18c-1 -6 -1 -12 -2 -17v1l-5 -40c-161 -3 -336 -3 -497 -3c-23 0 -46 0 -69 1h-70h-120v-5c-1 -19 -2 -34 -2 -51c0 -39 4 -77 14 -111s27 -65 56 -86v1c81 -51 188 -65 284 -65h18c52 0 105 0 161 8c55 7 112 22 173 51v-32
c-1 -25 -2 -52 -2 -76v-33c0 -37 0 -87 3 -124c-139 -47 -276 -67 -409 -67c-68 5 -143 17 -211 41c-69 23 -135 58 -184 106c-37 43 -62 95 -78 151c-16 55 -23 114 -23 171c0 77 11 168 38 256s69 173 129 238c52 53 116 90 185 114c68 23 141 33 209 34
c56 -3 115 -10 170 -26s107 -41 148 -82c36 -40 57 -86 70 -136c12 -50 15 -104 15 -156v-10c-1 -4 -1 -8 -1 -12v-22zM479 760h96c128 0 256 1 383 3c-7 67 -33 127 -77 171c-44 43 -103 69 -175 69c-83 0 -169 -22 -232 -82c-49 -43 -82 -100 -91 -160c33 -1 65 -2 96 -1z
" />
    <glyph glyph-name="f" unicode="f" horiz-adv-x="950" 
d="M626 1173v-38c-1 -11 -1 -24 0 -40c85 1 176 6 272 15c-1 -13 -3 -28 -5 -45c-4 -34 -8 -71 -11 -106c-2 -17 -4 -32 -5 -45c-89 -5 -177 -8 -264 -9c-19 -285 -35 -584 -46 -869c-20 1 -59 2 -79 2c-54 0 -121 -4 -201 -12c47 295 82 586 117 881c-23 1 -48 2 -75 4
c-27 1 -52 3 -74 4l5 71l3 30c1 11 1 22 2 33c1 23 3 46 4 63c60 -8 112 -12 152 -15c4 19 6 39 9 63c7 41 17 89 34 133s42 85 78 116c67 48 146 74 223 79c10 -1 20 -1 31 -1h31c28 0 57 1 86 4l21 -22c-7 -43 -15 -102 -20 -146c-19 -1 -54 -2 -73 -2c-31 0 -59 1 -90 2
c-32 -3 -64 -8 -89 -29c-24 -32 -31 -80 -36 -121z" />
    <glyph glyph-name="g" unicode="g" horiz-adv-x="1296" 
d="M1043 117l5 36c32 308 76 627 143 962l-135 -17h1l-65 -5l-27 -107c-1 -6 -3 -13 -5 -20c-3 -7 -5 -14 -6 -21c-32 48 -79 88 -131 116c-53 28 -114 44 -175 44h-30c-56 0 -116 -11 -171 -34s-106 -58 -146 -103c-56 -64 -91 -144 -111 -227c-21 -83 -28 -169 -28 -242
c0 -115 20 -236 83 -331c29 -45 74 -83 124 -108s106 -39 162 -39c129 0 242 44 329 136c-1 -11 -2 -23 -2 -32c-19 -65 -56 -123 -107 -175c-31 -35 -71 -56 -114 -70c-44 -14 -90 -19 -133 -20c-96 0 -196 20 -296 76c-3 -24 -7 -50 -10 -79s-7 -58 -11 -88
c-8 -60 -16 -120 -24 -168c111 -31 216 -40 317 -40c69 0 144 3 216 20c72 16 140 47 197 103c56 61 89 134 110 208s31 150 40 225zM834 576v1c-4 -39 -11 -82 -26 -122s-37 -76 -72 -99c-67 -27 -143 -38 -214 -38c-32 0 -66 1 -98 6c-32 4 -63 14 -88 31
c-21 24 -33 54 -40 87c-7 32 -10 68 -11 103c0 5 0 10 -1 15s-1 10 -1 15c4 48 12 100 26 149s34 97 65 137c49 60 132 91 208 91s140 -24 185 -73c44 -49 71 -125 71 -229c0 -25 -1 -49 -4 -74z" />
    <glyph glyph-name="h" unicode="h" horiz-adv-x="1419" 
d="M1160 671c2 26 3 52 3 79c0 76 -10 156 -50 235c-24 48 -63 82 -110 104c-48 22 -101 31 -153 31h-26c-125 0 -236 -63 -320 -159c12 100 21 187 29 274l22 273c-27 1 -63 5 -99 9l-53 6c-17 1 -33 3 -46 5c-19 -508 -74 -1011 -173 -1522c33 4 77 9 121 13l64 6
c21 2 39 4 55 5c16 139 27 291 38 430l6 85c2 28 4 56 6 85c7 88 39 179 98 247c53 60 135 93 211 93c64 0 128 -29 165 -89c20 -44 27 -97 27 -150c0 -20 0 -42 -3 -61c-21 -208 -42 -432 -55 -639c17 -1 35 -3 56 -5l62 -6c43 -4 86 -9 118 -13c-1 37 -3 81 -3 125
c-1 22 -1 44 -1 65c-1 21 -1 42 -1 61c0 136 4 274 12 413z" />
    <glyph glyph-name="i" unicode="i" horiz-adv-x="677" 
d="M340 1405l-13 -110c31 -23 61 -33 92 -33c32 0 66 11 99 28c1 21 3 43 4 67s3 46 4 67c0 7 0 15 1 26s1 22 2 34c1 23 3 46 4 59c-41 -28 -73 -42 -96 -42c-21 0 -38 6 -53 17l-32 -12zM345 1103l-26 -16c-16 -176 -34 -363 -53 -550s-38 -375 -58 -551
c46 35 82 52 108 52c24 0 55 -18 91 -50c12 176 26 370 40 563c14 192 29 385 44 561c-37 -11 -68 -18 -91 -18c-18 0 -36 3 -55 9z" />
    <glyph glyph-name="j" unicode="j" horiz-adv-x="724" 
d="M498 1498l-18 -16c-5 -30 -9 -60 -13 -89c-4 -30 -9 -60 -14 -90l-7 -47c68 7 134 16 198 33l3 41c1 16 2 30 3 41c1 23 3 53 6 83c1 15 3 29 4 44l3 38c-64 -21 -118 -31 -165 -38zM418 1081l-19 -16c-13 -93 -26 -186 -38 -277c-12 -92 -24 -185 -37 -278
c-9 -64 -17 -127 -25 -190c-9 -63 -17 -126 -26 -189c0 -1 0 -3 -1 -5c-1 -3 -1 -5 -1 -7c-4 -28 -8 -59 -16 -88s-19 -58 -36 -79c-39 -36 -98 -48 -153 -57l-59 -12c-7 -55 -17 -124 -25 -179l-16 -115c17 6 33 11 46 15c27 8 48 12 67 16c9 1 19 3 28 5
c40 8 83 16 124 31c40 15 79 35 114 66c40 39 63 85 79 134c15 49 21 100 26 148c39 359 86 733 134 1092c-60 -8 -119 -14 -166 -15z" />
    <glyph glyph-name="k" unicode="k" horiz-adv-x="1477" 
d="M375 1525l-22 -18c-16 -492 -73 -993 -172 -1500c36 4 83 9 131 13l69 6c22 2 42 4 60 5c1 18 3 40 5 65c1 25 3 46 4 64l12 174c4 57 7 115 10 172c30 -43 59 -84 87 -123c55 -77 110 -151 167 -227c29 -38 59 -78 90 -120c120 -3 250 -14 394 -33
c-79 87 -166 184 -256 281c-90 96 -181 192 -262 279l-36 37l130 147c23 27 48 55 75 86l80 91c55 61 109 123 156 176c-16 -1 -35 -1 -56 -1c-21 -1 -43 -1 -66 -2c-45 -1 -90 -2 -122 -2c-61 -64 -121 -129 -182 -194l-181 -196c15 140 27 270 37 402
c10 131 17 262 24 402c-53 3 -123 9 -176 16z" />
    <glyph glyph-name="l" unicode="l" horiz-adv-x="797" 
d="M379 1520l-27 -15c-39 -495 -89 -1011 -152 -1506c68 25 125 39 172 39s100 -13 157 -38l3 57c1 21 3 43 4 65c3 44 6 88 9 121c-39 13 -78 22 -114 25c35 415 70 823 109 1236c-16 -1 -27 -2 -34 -2c-7 -1 -14 -1 -19 -1c-39 0 -75 4 -108 19z" />
    <glyph glyph-name="m" unicode="m" horiz-adv-x="2040" 
d="M754 1118c-115 0 -229 -56 -300 -153l11 135l-197 9c3 -49 4 -118 4 -167c0 -305 -47 -618 -146 -934l61 3c45 3 93 5 138 6c22 1 42 1 60 2c44 208 62 409 73 609c4 81 31 171 79 240c48 68 117 117 206 117c32 0 65 -4 95 -15c30 -12 57 -32 77 -64l-1 2
c24 -44 31 -95 31 -147c0 -21 -1 -41 -3 -61v2c-39 -217 -85 -455 -130 -672h269c13 195 31 400 54 595c7 89 33 178 93 249c57 73 144 104 231 104c84 0 122 -47 122 -154c0 -15 -1 -31 -2 -48s-3 -33 -4 -50l-3 -31c-35 -207 -64 -418 -64 -626v-48c19 -1 40 -1 63 -2
l70 -3c24 -1 48 -3 71 -4l62 -3c-23 131 -31 251 -31 367c0 97 5 195 15 294c4 43 8 86 8 131c0 53 -5 108 -21 164v-1c-15 52 -49 92 -92 119s-95 40 -147 40c-80 0 -173 -16 -245 -63c-63 -40 -115 -95 -155 -155c-23 75 -72 128 -135 163s-140 50 -217 50zM437 939l-1 1
h1v-1z" />
    <glyph glyph-name="n" unicode="n" horiz-adv-x="1406" 
d="M1138 670c1 24 2 49 2 73c0 79 -9 159 -45 239c-25 48 -65 82 -112 103c-48 21 -101 31 -154 31c-137 0 -253 -49 -368 -129v11c0 1 0 3 1 4c0 1 0 2 1 3v11l2 88l-45 3c-17 1 -35 3 -52 4c-36 3 -73 6 -98 9c-5 -373 -45 -742 -129 -1113l63 6c47 3 96 6 142 9
c23 1 44 3 63 4c21 199 36 411 43 610v-1c7 84 29 172 89 237c31 33 71 54 113 67c42 12 87 16 128 16c28 0 56 -4 81 -15c25 -12 47 -29 62 -57v1c17 -39 22 -79 22 -122c0 -23 -1 -45 -4 -68v1c-1 -3 -1 -7 -1 -10v-10c-32 -211 -61 -438 -76 -649c39 -1 89 -4 138 -7
c48 -4 97 -7 136 -11c-10 112 -15 216 -15 313c0 117 5 232 13 349z" />
    <glyph glyph-name="o" unicode="o" horiz-adv-x="1268" 
d="M684 1114c-64 0 -133 -11 -198 -34s-127 -59 -176 -107c-63 -71 -101 -161 -124 -253s-30 -186 -30 -265c0 -111 18 -221 83 -310v1c37 -55 92 -90 153 -112c60 -22 128 -31 192 -31c65 0 135 10 201 32s127 58 175 110c61 72 101 162 124 254s31 186 31 266
c0 109 -19 217 -83 306c-40 55 -94 91 -154 113c-61 22 -129 30 -194 30zM673 967c80 -1 158 -33 197 -98c37 -63 49 -139 49 -215c0 -37 -1 -95 -13 -150c-13 -56 -37 -109 -82 -140h1c-64 -37 -140 -46 -212 -46s-145 6 -205 45l1 -1c-45 35 -53 92 -53 151
c0 57 4 122 20 183c15 61 39 121 79 172c53 68 137 99 218 99z" />
    <glyph glyph-name="p" unicode="p" horiz-adv-x="1314" 
d="M668 -4h26c57 0 117 14 170 40s101 62 140 110h-1c63 73 103 162 127 254s33 187 33 272c0 101 -21 207 -76 291c-32 43 -77 79 -128 104s-108 40 -163 40h-29c-59 0 -120 -12 -176 -36c-57 -24 -108 -60 -147 -109l5 29l15 99c-27 1 -62 4 -98 8c-36 3 -71 6 -98 9
c-20 -504 -75 -1003 -174 -1511c13 1 29 3 47 5l54 6c18 1 36 3 53 5c17 1 33 3 47 4c29 175 60 358 83 533c28 -51 71 -90 122 -115s109 -38 168 -38zM1033 588v-2c0 -3 0 -5 -1 -7c-1 -3 -1 -5 -1 -8c-5 -39 -12 -81 -25 -121s-34 -76 -66 -103l2 1
c-60 -40 -132 -52 -203 -52c-72 0 -141 13 -200 52l1 -1c-49 39 -59 103 -59 167c0 57 5 122 19 184s39 122 79 171c56 73 142 105 230 105c80 0 138 -35 175 -90s54 -129 54 -206c0 -31 -2 -59 -5 -90z" />
    <glyph glyph-name="q" unicode="q" horiz-adv-x="1370" 
d="M822 -381c51 -3 117 -8 166 -15h6h9c3 -1 7 -1 10 -1h5c13 501 71 1002 171 1511c-13 -2 -29 -4 -46 -5l-53 -6c-37 -4 -73 -8 -100 -9l-16 -59l-23 -90c-32 47 -78 88 -131 117c-53 28 -112 45 -172 45h-34c-115 1 -233 -51 -313 -143c-56 -68 -90 -149 -112 -233
s-30 -171 -30 -247c0 -120 18 -239 83 -338c60 -96 169 -150 285 -150h28c57 0 116 14 170 40s102 63 139 111c-19 -173 -31 -357 -42 -528zM293 568v10c4 51 11 103 25 152s35 97 68 140c24 31 55 55 90 72c35 16 73 25 110 25c88 1 169 -28 213 -100
c36 -61 49 -131 49 -207c0 -41 -2 -102 -15 -161c-13 -60 -39 -119 -87 -152h2c-64 -36 -139 -47 -211 -47c-69 0 -142 7 -195 46l2 -1c-44 39 -54 101 -54 165c0 15 1 31 2 47c0 3 0 7 1 11z" />
    <glyph glyph-name="r" unicode="r" horiz-adv-x="904" 
d="M807 912l26 16c3 27 8 57 13 91l14 91h-51c-43 0 -89 -5 -136 -16c-48 -11 -94 -28 -134 -52l-46 -26c-20 -11 -39 -21 -59 -33l6 100c-4 0 -11 0 -22 1s-18 1 -23 1c-37 3 -91 7 -130 11c-27 -359 -73 -719 -149 -1090c92 12 175 20 252 23c15 172 24 357 33 529v-1
c9 89 28 184 83 261c31 43 74 68 122 84c48 15 99 19 146 19c19 0 38 -2 55 -9z" />
    <glyph glyph-name="s" unicode="s" horiz-adv-x="1165" 
d="M989 1068l-12 4c-109 35 -223 42 -339 42c-87 0 -170 -8 -267 -47c-59 -24 -99 -65 -125 -115s-38 -108 -38 -163c0 -64 13 -133 58 -177c29 -28 67 -47 105 -62c38 -16 77 -26 116 -35l38 -9c31 -7 65 -14 98 -24s67 -23 91 -42c16 -17 32 -40 39 -74
c10 -50 -34 -79 -74 -99s-90 -27 -131 -27h-11c-4 0 -8 0 -13 1h-23c-113 0 -229 32 -341 92c-5 -40 -12 -90 -19 -140c-8 -50 -15 -101 -22 -141c123 -31 247 -49 364 -49c57 0 118 2 178 13s118 30 171 63c47 29 79 71 100 116c20 45 29 97 29 146c0 65 -17 136 -66 183
c-33 32 -73 54 -115 71c-42 16 -88 28 -132 39l-19 5c-44 8 -106 21 -157 45c-52 24 -91 60 -91 117c0 65 36 108 85 133s111 34 166 34c108 0 216 -15 329 -67c1 7 2 15 4 24l4 28c3 19 6 39 9 52z" />
    <glyph glyph-name="t" unicode="t" horiz-adv-x="1122" 
d="M622 1330l-19 21c-55 0 -114 2 -186 9c-3 -41 -7 -84 -12 -130c-5 -47 -9 -91 -13 -133c-17 1 -30 3 -40 4l-39 5l-44 6l-4 -69v1l-3 -45c-1 -18 -1 -33 -2 -45c33 -4 82 -7 121 -10c-4 -48 -8 -95 -13 -141c-9 -93 -19 -184 -30 -276c-5 -47 -11 -94 -16 -142
c-3 -28 -5 -60 -5 -91c0 -68 11 -136 62 -187c33 -28 75 -45 119 -56c43 -11 89 -14 132 -18l34 -3l26 -3c12 -1 25 -3 40 -4c15 -2 29 -4 44 -5c29 -4 58 -8 82 -12c0 41 2 92 4 143c1 25 1 50 2 75l3 68c-56 7 -128 12 -184 15c-48 3 -101 5 -132 36l2 -3
c-19 24 -21 57 -21 90c0 16 1 29 2 45c0 3 0 7 1 10v11c5 51 11 103 16 154s11 102 16 153c4 44 10 92 15 136h23c67 0 148 3 213 6c4 23 9 63 12 86l6 69l-54 -3c-19 -1 -39 -1 -58 -2c-39 -2 -78 -3 -111 -3h-17l12 104v-1l9 68c2 23 4 45 7 67z" />
    <glyph glyph-name="u" unicode="u" horiz-adv-x="1353" 
d="M239 448c-3 -33 -5 -67 -5 -102c0 -71 9 -141 40 -213c25 -48 67 -82 116 -102c48 -21 102 -30 157 -30h26c125 0 245 63 329 159c-5 -43 -8 -97 -11 -137c13 -1 28 -1 45 -2c35 -2 72 -5 106 -8l45 -3c1 367 42 733 122 1104c-32 -4 -73 -7 -115 -10
c-42 -4 -84 -7 -116 -8c-25 -147 -51 -308 -67 -456v1c-13 -85 -42 -171 -102 -238v1c-60 -64 -140 -85 -220 -85c-56 0 -114 21 -147 80l1 -1c-25 52 -32 113 -32 173c0 3 0 6 1 9v9v14c12 160 20 335 23 494l-73 6l-21 3c-9 1 -17 2 -26 3l-25 3c-8 1 -15 1 -21 2v-66
c0 -7 0 -14 1 -21v-22c0 -187 -11 -370 -31 -557z" />
    <glyph glyph-name="v" unicode="v" horiz-adv-x="1389" 
d="M340 1106l-71 7c27 -71 51 -141 74 -210c44 -137 82 -271 116 -403l85 -335c12 -47 24 -93 36 -136c12 0 26 0 43 1h44h70h59c22 0 42 0 59 -1l77 183c61 148 124 295 193 444c68 149 144 301 233 457c-28 -3 -68 -6 -108 -9c-20 -1 -39 -3 -58 -4c-19 -2 -36 -3 -50 -4
c-123 -204 -234 -423 -341 -636l-58 -114c-8 21 -13 36 -17 50l-6 20c-3 7 -5 15 -8 24c-72 217 -149 445 -237 656c-41 1 -92 6 -135 10z" />
    <glyph glyph-name="w" unicode="w" horiz-adv-x="1773" 
d="M283 1110l-20 -25c55 -167 94 -339 123 -517s47 -361 62 -545h26c20 0 42 1 63 2h27c43 1 95 3 138 3c81 145 162 303 237 454c24 -83 47 -156 72 -228c24 -73 49 -145 80 -225c13 0 28 0 46 -1c17 -1 32 -1 45 -1c26 -1 54 -1 85 -2l86 -3c41 181 91 365 155 548
c63 183 139 364 234 543c-9 -1 -19 -1 -31 -2l-38 -3c-26 -1 -53 -3 -70 -4l-65 -4c-128 -241 -218 -482 -302 -723c-29 67 -53 125 -77 185c-24 59 -47 117 -74 185c-28 -1 -68 -2 -96 -2h-150c-12 -21 -25 -44 -40 -68c-15 -25 -28 -48 -40 -69l-67 -114
c-23 -37 -46 -76 -69 -116c-40 240 -90 478 -173 721c-52 3 -116 7 -167 11z" />
    <glyph glyph-name="x" unicode="x" horiz-adv-x="1519" 
d="M1278 1075l-16 32c-52 -5 -112 -8 -165 -11c-121 -136 -243 -280 -359 -424c-84 148 -162 279 -255 422c-28 1 -68 3 -107 7c-20 1 -39 3 -58 4s-36 3 -50 4c57 -88 117 -185 175 -282s114 -196 166 -288c-76 -87 -160 -178 -244 -269c-85 -91 -172 -181 -252 -264l75 6
c28 1 57 3 86 5c58 4 115 7 159 8c99 115 199 236 292 356c35 -63 68 -121 104 -179c35 -58 70 -116 110 -177c43 -1 100 -4 157 -7c57 -4 114 -8 157 -12c-64 79 -133 167 -201 257c-69 90 -137 180 -197 264c3 5 6 8 7 9s3 3 6 8v-1c135 183 265 359 410 532z" />
    <glyph glyph-name="y" unicode="y" horiz-adv-x="1391" 
d="M786 -69l122 263c139 301 292 628 452 921c-14 -2 -31 -4 -50 -6l-59 -6c-40 -5 -80 -10 -108 -11c-117 -192 -237 -407 -345 -604c-53 105 -105 204 -157 303c-53 99 -107 196 -164 300c-28 1 -66 6 -104 11c-38 4 -77 9 -104 13c60 -143 122 -300 183 -459
s120 -318 175 -465l27 -73l-19 -33c-23 -36 -45 -74 -65 -111c-31 -33 -60 -64 -95 -93l1 1c-47 -35 -104 -37 -164 -40c-9 -1 -21 -1 -36 -2l-37 -3c-2 -15 -5 -32 -8 -51l-8 -50l-11 -77l-14 -77c7 1 15 2 24 3c19 2 39 4 58 5c9 1 18 1 25 2c49 3 98 6 146 16
c47 10 93 26 137 57c47 36 83 79 115 124c31 45 58 94 83 142z" />
    <glyph glyph-name="z" unicode="z" horiz-adv-x="1281" 
d="M263 1086v-131c128 -11 252 -15 377 -15c76 0 153 1 229 4l-179 -167c-58 -54 -115 -108 -172 -161c-114 -108 -227 -216 -347 -333l-23 -138c-9 -49 -18 -98 -27 -138c167 15 319 23 460 23c139 0 284 -7 434 -21c-1 45 -2 112 -2 157c0 28 1 74 2 102
c-125 8 -269 13 -396 13h-80c-26 0 -53 0 -80 -1c35 35 69 69 100 101c63 64 123 127 184 192l98 102c41 42 82 85 124 129l125 128c2 13 5 27 8 43l9 48c6 32 12 65 17 90c-167 -17 -319 -25 -462 -25c-127 0 -252 6 -377 17z" />
    <glyph glyph-name="braceleft" unicode="{" horiz-adv-x="1179" 
d="M852 -126l-20 21c-7 0 -15 1 -24 4c-3 1 -8 1 -13 2c-6 0 -11 1 -16 2l-22 4c-48 7 -105 19 -136 50c-27 35 -29 81 -29 128c1 19 3 39 5 58s4 39 5 58l12 116v36c0 56 -2 111 -25 164c-19 44 -61 72 -104 89c48 15 94 41 126 82c45 68 57 146 65 218c4 39 8 76 13 115
c4 39 9 77 14 116v-1l3 18c8 53 16 111 52 150l-2 -3c47 37 111 47 171 56c23 4 46 7 85 18c1 10 3 22 6 37s5 30 8 45c5 30 11 61 15 81c-17 -4 -42 -9 -67 -13c-13 -3 -25 -5 -37 -7c-12 -3 -22 -5 -31 -6c-96 -15 -195 -34 -284 -87c-43 -36 -67 -81 -83 -129
c-16 -49 -22 -101 -29 -149l-12 -112c-4 -36 -8 -75 -11 -111c-4 -31 -10 -65 -19 -97s-25 -62 -46 -86c-49 -36 -124 -50 -184 -50h-8c-3 0 -6 0 -9 1s-8 1 -13 2h-28l-8 -78c-1 -11 -3 -25 -4 -40c-1 -8 -1 -15 -2 -22s-1 -13 -1 -18h45h8c2 -1 4 -1 7 -1h6
c29 -1 61 -4 90 -12c28 -8 53 -21 70 -42l-1 1c28 -45 31 -102 31 -158c0 -52 -6 -106 -13 -161c-7 -56 -13 -108 -13 -164c0 -77 10 -153 61 -213c39 -32 88 -53 140 -68s106 -23 155 -31l91 -14c0 8 0 17 1 28c1 10 1 21 2 32c0 23 2 45 3 62l3 40c0 13 0 26 1 39z" />
    <glyph glyph-name="bar" unicode="|" horiz-adv-x="657" 
d="M240 621h20c16 -1 34 -2 50 -2h21c25 0 50 0 85 3l31 233c11 81 22 162 34 244c11 82 23 163 34 244s22 158 33 232c-56 -39 -109 -62 -149 -62c-3 0 -8 0 -13 1l-31 6c-19 -144 -40 -308 -57 -451zM279 -428l23 17c35 312 72 640 109 951h-41c-16 -1 -32 -1 -48 -1h-48
h-41c-21 -160 -45 -335 -70 -510c-25 -176 -51 -351 -75 -511c60 39 110 58 150 58c12 0 26 -1 41 -4z" />
    <glyph glyph-name="braceright" unicode="}" horiz-adv-x="1195" 
d="M276 -139l-55 -8c-1 -11 -3 -25 -5 -40c-3 -15 -5 -31 -7 -47l-6 -48c-3 -15 -5 -28 -6 -39l41 8h-1l39 6c13 3 27 6 41 8s28 4 41 7c43 7 86 14 129 27c43 12 85 30 125 58c41 36 64 83 79 132c15 48 20 99 25 147l5 72c2 25 4 50 7 75c2 25 4 50 5 75
c4 32 10 68 19 101s24 65 47 90h-1c25 24 58 37 91 44s69 7 101 7h51l11 156c-15 0 -26 1 -37 2h-12h-9c-3 -1 -7 -1 -10 -1c-29 0 -60 1 -89 8s-55 18 -75 38c-25 35 -33 81 -33 128c0 19 1 38 3 57l19 225c3 28 4 57 4 88c0 72 -12 143 -59 194c-37 29 -81 50 -128 64
s-96 22 -140 30c-9 1 -19 3 -30 5l-34 6c-23 4 -45 9 -61 13l-4 -85l-2 -77l64 -12c29 -5 63 -11 95 -20c31 -9 60 -22 80 -39c19 -29 26 -70 26 -106c0 -57 -6 -120 -13 -183s-12 -125 -12 -189c0 -47 4 -98 27 -141v1c24 -47 72 -74 121 -89c-55 -15 -105 -41 -136 -82
c-21 -32 -36 -66 -44 -101c-16 -72 -20 -142 -27 -213l-9 -107l-2 -19v-5c-1 -1 -1 -3 -1 -4c-7 -56 -17 -117 -56 -160l2 1c-24 -20 -57 -33 -91 -41c-34 -9 -71 -13 -103 -17z" />
    <glyph glyph-name="asciitilde" unicode="~" horiz-adv-x="1526" 
d="M1406 798l7 27c-11 -7 -23 -13 -36 -20s-26 -15 -37 -22c-47 -28 -95 -57 -144 -78s-100 -36 -152 -36c-76 0 -153 29 -221 57c-7 4 -14 6 -23 9l-7 4c-84 35 -174 59 -263 59c-61 0 -122 -15 -180 -41s-113 -64 -162 -105c-4 -64 -22 -127 -57 -186l24 -22
c68 40 142 90 209 135v-1c49 35 103 59 160 62c80 -3 153 -39 221 -79l59 -29c68 -32 131 -64 214 -67c56 0 109 18 158 46c49 27 96 63 140 98l63 47c7 56 24 106 50 149z" />
    <glyph glyph-name="uni00A0" unicode="&#xa0;" horiz-adv-x="1903" 
 />
    <glyph glyph-name="exclamdown" unicode="&#xa1;" horiz-adv-x="749" 
d="M577 1210l30 284c-56 -28 -101 -39 -137 -39c-35 0 -76 11 -121 34c-3 -21 -4 -49 -6 -77l-3 -41c-1 -13 -2 -25 -3 -35l-10 -138c44 -15 84 -23 120 -23c39 0 77 7 116 19zM458 12l29 15c11 212 24 419 39 630c3 48 4 98 5 147c1 31 3 66 4 105c1 38 3 73 4 104
c-44 -7 -84 -10 -111 -10c-25 0 -57 3 -96 9c-5 -37 -10 -78 -16 -121c-7 -43 -13 -84 -18 -121l-15 -112c-11 -104 -24 -218 -37 -331s-27 -227 -40 -331c57 28 106 41 145 41c40 0 76 -8 107 -25z" />
    <glyph glyph-name="cent" unicode="&#xa2;" horiz-adv-x="1204" 
d="M1049 1048l-9 -61l-11 -88c-84 45 -170 73 -247 78c-15 -127 -29 -249 -42 -371s-26 -245 -38 -373c83 7 170 32 262 72c-1 -9 -1 -19 -2 -30c-1 -24 -3 -50 -5 -73l-3 -31c-4 -40 -8 -91 -9 -130c-97 -33 -181 -46 -265 -51l-10 -116c-3 -23 -4 -49 -6 -76l-3 -41
c-1 -13 -2 -25 -3 -36c-4 0 -9 0 -14 1c-6 1 -12 1 -19 2c-7 0 -13 0 -19 1s-11 1 -15 1c-12 0 -34 1 -53 4l15 154c2 21 4 41 5 58s3 36 6 58c-60 8 -123 25 -181 51s-110 62 -146 113c-64 85 -83 194 -83 302c0 77 8 167 33 255c24 87 66 171 131 235h-1
c48 51 107 86 170 111c63 24 131 37 195 44c3 39 8 81 13 120l18 152h57c15 0 49 2 64 3l-18 -136c-6 -45 -12 -91 -17 -137c84 -4 167 -18 243 -53l-16 -16zM588 241c24 249 47 479 76 730c-108 -12 -185 -81 -236 -169s-74 -196 -74 -289c0 -79 24 -140 65 -186
s100 -75 169 -86z" />
    <glyph glyph-name="sterling" unicode="&#xa3;" horiz-adv-x="1305" 
d="M1149 1416l15 18c-84 25 -171 40 -259 40c-29 0 -60 -2 -93 -6c-65 -9 -130 -27 -190 -58s-108 -77 -140 -135c-33 -58 -53 -121 -65 -185c-13 -64 -18 -112 -21 -151l-6 -59l-10 -99c-30 1 -60 1 -90 2l-91 3l-17 -139c55 -1 125 -2 182 -2c-4 -35 -8 -68 -11 -100
l-12 -96c-5 -32 -9 -64 -13 -95c-5 -32 -9 -65 -14 -99c-75 -3 -147 -6 -222 -11l-6 -30c-5 -31 -12 -67 -19 -103c-4 -19 -8 -37 -11 -55s-7 -34 -10 -49c159 15 304 22 437 22c179 0 361 -11 553 -36c0 7 0 17 1 31v31c1 51 4 119 8 172c-179 19 -351 27 -522 28l46 388
l357 -7l6 66l9 70c-40 1 -83 1 -130 2c-47 0 -90 1 -130 2c-16 0 -32 0 -48 1s-33 1 -50 1l4 28l9 80c3 25 6 52 10 79c5 44 12 92 24 137s29 88 57 124c25 25 62 45 99 58c37 12 76 18 111 18c80 0 162 -29 242 -69l6 36c4 26 10 53 15 79c3 13 5 24 7 34l7 38z" />
    <glyph glyph-name="currency" unicode="&#xa4;" horiz-adv-x="1496" 
d="M801 1051c-77 0 -156 -22 -224 -66l-102 110l-91 97l-57 -57c-9 -8 -19 -18 -32 -30c-13 -13 -25 -23 -34 -31l189 -209c-51 -73 -84 -161 -84 -250c0 -69 17 -129 44 -192l-64 -60c-49 -47 -110 -104 -161 -149l40 -49l14 -16c10 -13 21 -27 33 -39c5 -7 10 -12 14 -17
l152 136l78 71c64 -37 138 -64 218 -64c76 0 154 26 222 66c32 -35 65 -69 98 -103s66 -68 99 -103l60 59c13 15 33 34 61 58c-60 64 -133 141 -193 209c55 76 86 166 86 258c0 28 -5 62 -13 95c-8 32 -19 65 -28 92c23 21 45 42 66 62c21 19 43 40 66 61l94 85l-102 121
l-181 -163l-51 -47c-64 41 -138 65 -217 65zM1002 647v-1c-4 -67 -34 -127 -81 -171s-109 -72 -174 -72c-61 0 -115 22 -154 59c-40 37 -64 91 -64 154c0 72 28 139 75 187s111 79 182 79c61 0 115 -21 154 -57c39 -37 63 -89 63 -152v-13c0 -5 0 -9 -1 -13z" />
    <glyph glyph-name="yen" unicode="&#xa5;" horiz-adv-x="1508" 
d="M1336 504l3 45c1 18 2 33 3 44c-119 3 -257 5 -380 5c1 9 1 16 2 19s1 9 2 18c7 11 13 20 19 28l18 28l49 80l306 3c1 7 1 17 2 29l3 28c1 9 3 25 4 41c1 7 1 15 2 22s1 13 1 18l-146 -3c-31 0 -57 -1 -88 -2c123 195 247 389 380 580l-87 -8c-47 -5 -100 -10 -147 -13
c-141 -212 -280 -435 -411 -655c-49 115 -96 222 -144 330c-48 107 -99 213 -152 324c-31 1 -72 6 -113 11c-41 4 -84 9 -113 13c44 -91 91 -190 136 -289c45 -100 90 -200 130 -293c-84 0 -151 2 -235 5c-1 -8 -2 -19 -3 -34c-2 -29 -3 -39 -6 -69l-3 -36
c49 -1 100 -2 154 -2h154c7 -13 14 -25 21 -35c6 -10 13 -22 20 -35l37 -65l-3 -38c-90 0 -179 -1 -268 -3l-114 -2l-3 -40c-4 -32 -8 -65 -12 -96c-2 -16 -4 -30 -5 -41c121 5 260 9 385 10l-33 -195c-11 -65 -23 -130 -34 -195h91c11 0 23 0 34 1h34c33 0 86 -1 119 -2
c0 128 2 262 7 391c125 -1 233 -4 360 -9l21 18z" />
    <glyph glyph-name="brokenbar" unicode="&#xa6;" horiz-adv-x="715" 
d="M524 1402l-34 15c-17 -19 -39 -28 -64 -28c-10 0 -22 6 -36 18c-15 12 -30 31 -47 56c-9 -120 -20 -257 -31 -395c-6 -69 -12 -138 -17 -205s-11 -131 -16 -191c35 -11 60 -14 83 -14c29 0 62 4 93 9c21 241 45 495 69 735zM431 405l-16 22c-20 2 -41 3 -62 3
c-13 0 -28 0 -47 -1l-49 -3c-11 -120 -23 -258 -35 -395c-13 -137 -26 -274 -38 -394c43 43 77 63 100 63s51 -20 86 -64l15 188c5 65 10 130 15 197c5 66 11 132 16 197z" />
    <glyph glyph-name="section" unicode="&#xa7;" horiz-adv-x="1124" 
d="M925 481c-33 -49 -80 -91 -133 -123c52 -53 90 -121 90 -201c0 -44 -8 -89 -25 -129c-17 -41 -46 -78 -87 -105l1 1c-41 -31 -89 -48 -137 -59c-49 -11 -100 -14 -148 -14c-99 0 -200 17 -304 37l9 79c3 21 7 45 10 74c3 28 6 52 9 73c95 -33 190 -60 278 -60
c43 0 86 2 127 14c51 15 75 53 76 92c-8 45 -41 86 -81 120s-88 61 -124 82l-36 21c-60 36 -123 73 -171 122s-81 109 -81 190c0 63 19 121 51 172s77 93 132 122c-53 53 -89 124 -89 204c0 41 9 84 27 122s46 70 85 94h-1c41 28 87 46 135 56s96 12 143 12
c96 0 190 -12 282 -37l-13 -15l22 2c-1 -10 -3 -20 -4 -29c-3 -19 -4 -35 -6 -54c-1 -9 -3 -19 -4 -29c-2 -11 -4 -21 -5 -30c-1 -10 -3 -18 -4 -25c-97 35 -190 60 -283 60c-39 0 -84 -10 -119 -30c-36 -21 -62 -52 -63 -96c8 -48 41 -90 82 -126c40 -36 87 -65 123 -84
l37 -22c59 -36 121 -74 169 -123s82 -108 82 -187c0 -64 -19 -122 -52 -171zM770 535c23 28 38 59 38 94c0 59 -38 111 -92 157s-125 85 -186 121l-41 22c-29 -21 -59 -46 -81 -74c-22 -29 -37 -62 -37 -98c0 -55 36 -102 85 -145c49 -44 114 -81 171 -114
c11 -7 21 -13 31 -18s20 -11 30 -17c28 19 58 44 82 72z" />
    <glyph glyph-name="dieresis" unicode="&#xa8;" horiz-adv-x="975" 
d="M377 1556l-19 -25c6 -22 9 -45 9 -68c0 -37 -11 -84 -42 -140c17 1 36 1 57 2c21 0 43 0 66 1c44 1 89 2 121 2c12 58 18 114 18 167c0 12 -1 45 -2 57c-32 1 -67 1 -104 2c-37 0 -72 1 -104 2zM783 1552l-17 -15c-12 -49 -19 -98 -19 -145c0 -16 0 -34 4 -63
c32 -1 82 -3 114 -3l124 -2c-15 39 -22 70 -22 93c0 37 16 86 43 139l-130 -2c-32 0 -65 -1 -97 -2z" />
    <glyph glyph-name="copyright" unicode="&#xa9;" horiz-adv-x="1687" 
d="M946 1447c-93 0 -188 -16 -277 -48c-89 -33 -173 -84 -242 -153v1c-83 -76 -142 -172 -179 -273s-54 -209 -54 -313c0 -156 49 -309 145 -424c57 -64 133 -114 215 -148s172 -52 261 -52c95 0 190 15 280 47s174 82 246 154v-1c81 76 141 171 178 273s55 210 55 314
c0 156 -47 309 -144 422c-60 68 -135 119 -218 152c-83 32 -174 49 -266 49zM938 1329c156 0 302 -50 401 -165c83 -93 121 -219 121 -350c0 -83 -12 -170 -43 -252s-79 -158 -152 -211l1 1c-131 -84 -280 -123 -428 -123c-68 0 -142 13 -212 34c-70 20 -137 51 -192 87
c-88 84 -128 206 -128 331c0 85 17 175 50 259c33 83 83 160 150 221c120 116 277 168 432 168zM1182 1105l15 18c-76 31 -159 48 -246 48c-119 0 -243 -27 -340 -114c-53 -48 -89 -109 -112 -173c-24 -65 -33 -135 -33 -199c0 -97 27 -190 91 -261
c79 -85 193 -115 308 -115c88 0 181 15 273 52c1 25 3 62 6 89l9 111c-88 -39 -172 -65 -244 -65c-68 0 -136 19 -187 57s-84 93 -84 168c0 87 34 183 95 255c53 61 132 91 212 91s166 -23 250 -62l5 52c2 21 4 39 6 52z" />
    <glyph glyph-name="ordfeminine" unicode="&#xaa;" horiz-adv-x="1070" 
d="M936 1142c3 24 5 48 5 75c0 71 -16 142 -73 198c-68 52 -158 62 -243 62c-92 0 -188 -12 -288 -43v-23c-1 -11 -1 -19 -1 -25v-21c-1 -9 -1 -17 -1 -26c-1 -9 -1 -18 -1 -26c-1 -9 -1 -16 -1 -22c96 33 185 57 264 58c35 -1 82 -5 122 -21c39 -17 69 -49 69 -109v-9
c0 -3 0 -7 -1 -10c-55 -3 -106 -3 -159 -3c-81 0 -179 -15 -266 -63c-37 -25 -64 -64 -82 -105s-27 -86 -27 -125c0 -76 27 -128 71 -162c43 -34 101 -49 165 -49c96 0 190 35 262 103l-7 -86l71 -3c11 -1 26 -1 43 -2s32 -3 43 -4c7 141 20 300 35 441zM658 1130h10
c25 0 59 1 84 2h19c-1 -1 -1 -1 -1 -2v-5v-3c-1 -1 -1 -3 -1 -4c-5 -57 -34 -124 -73 -169c-45 -43 -105 -66 -165 -66c-32 0 -64 11 -88 29s-40 44 -40 76c0 65 35 101 83 119s109 19 162 22c3 0 7 0 10 1zM252 602l-18 -17c-1 -8 -3 -17 -4 -28l-6 -33
c-4 -22 -8 -46 -11 -62c128 13 238 19 341 19c107 0 221 -7 346 -22v93v16c0 5 1 15 2 30c-117 11 -226 17 -334 17c-105 0 -211 -5 -316 -13z" />
    <glyph glyph-name="guillemotleft" unicode="&#xab;" horiz-adv-x="1218" 
d="M669 828l30 210c-79 -59 -166 -126 -253 -193c-88 -68 -175 -136 -251 -197c-5 -15 -9 -26 -12 -33s-5 -13 -6 -16c-2 -4 -3 -7 -4 -8l-5 -9c-3 -7 -7 -17 -12 -29l-12 -29c59 -67 126 -142 195 -215s138 -145 201 -209l37 129l33 108c-80 84 -163 172 -242 257
c103 81 197 154 301 234zM869 847l-138 -108c-47 -37 -93 -73 -139 -108l-25 -57l-14 -32c-6 -13 -11 -24 -14 -33c64 -68 138 -145 212 -221c37 -38 73 -76 110 -113c36 -37 71 -72 104 -105c15 93 29 174 46 246l-246 264l72 57c23 17 46 36 71 55l167 133
c11 55 21 114 36 167l-30 21z" />
    <glyph glyph-name="logicalnot" unicode="&#xac;" horiz-adv-x="1674" 
d="M232 870l-20 -24c12 -56 17 -117 20 -182c336 0 685 6 1022 17c-32 -115 -52 -222 -52 -339v-14c0 -3 0 -8 1 -17v-16c25 -1 53 -1 84 -1l84 -3l97 -2c-27 88 -39 171 -39 247c0 104 21 215 60 334c-207 -7 -436 -11 -643 -11s-407 3 -614 11z" />
    <glyph glyph-name="registered" unicode="&#xae;" horiz-adv-x="1687" 
d="M1430 1246c97 -113 144 -266 144 -422c0 -104 -18 -212 -55 -314s-97 -197 -178 -273v1c-72 -72 -156 -122 -246 -154s-185 -47 -280 -47c-89 0 -179 18 -261 52s-158 84 -215 148c-96 115 -145 268 -145 424c0 104 17 212 54 313s96 197 179 273v-1
c69 69 153 120 242 153c89 32 184 48 277 48c92 0 183 -17 266 -49c83 -33 158 -84 218 -152zM1267 401l-1 -1c125 121 198 284 198 451c0 124 -39 241 -123 325c-103 108 -250 153 -403 153c-155 0 -310 -47 -431 -155c-67 -56 -115 -126 -147 -202
c-33 -76 -49 -158 -49 -239c0 -152 62 -274 159 -358c97 -85 230 -131 373 -131c125 0 251 35 359 107h-12c-10 0 -19 0 -28 1h-23c-23 0 -61 1 -81 2l-30 56c-11 19 -20 38 -29 55l-45 88c-1 3 -3 7 -6 11c-3 3 -5 6 -6 9c-13 23 -29 50 -46 71s-37 38 -58 42h-11h-8h-8
h-12c-5 -49 -11 -100 -15 -149l-16 -184h-42h-38c-13 0 -25 0 -37 -1h-94c13 128 27 265 39 403s22 274 30 402c85 -3 190 -3 275 -3c77 -1 156 -6 227 -45c63 -39 87 -100 87 -161c0 -57 -20 -109 -54 -149c-34 -41 -81 -71 -134 -84c36 -29 58 -71 81 -110h-1l14 -30
l109 -204c13 10 25 19 37 30zM813 847h100c47 0 96 2 137 29c36 24 48 73 48 112c0 45 -23 69 -53 82c-30 12 -69 14 -98 15h-10h-30c-11 -1 -21 -1 -31 -1h-43c-2 -27 -4 -53 -7 -80s-5 -54 -6 -81z" />
    <glyph glyph-name="macron" unicode="&#xaf;" horiz-adv-x="939" 
d="M370 1515l-17 -29c7 -13 10 -27 10 -42c0 -23 -14 -53 -43 -92c23 0 49 0 77 1c55 0 112 1 168 1h76h76c55 0 111 -1 166 -1c27 -1 53 -1 76 -1c-23 33 -31 55 -31 70c0 21 16 55 44 94c-48 -1 -104 -2 -160 -2c-29 -1 -57 -1 -84 -1c-28 -1 -54 -1 -77 -1
c-95 0 -188 1 -281 3z" />
    <glyph glyph-name="degree" unicode="&#xb0;" horiz-adv-x="907" 
d="M615 1499c-83 0 -167 -27 -228 -88v1c-36 -33 -61 -76 -77 -121s-23 -93 -23 -137c0 -68 20 -136 61 -187c53 -60 135 -84 215 -84s162 24 226 84v-1c71 67 101 165 101 254c0 84 -29 154 -77 203c-49 48 -118 76 -198 76zM610 1403c39 0 76 -12 104 -35
c27 -23 44 -55 44 -96c0 -51 -21 -92 -54 -123s-77 -48 -125 -48c-40 1 -78 14 -105 37c-28 23 -45 57 -45 100c0 49 22 90 56 119s78 46 125 46z" />
    <glyph glyph-name="plusminus" unicode="&#xb1;" horiz-adv-x="1651" 
d="M765 1254l-11 -142c-5 -72 -11 -149 -18 -221c-171 1 -341 4 -512 12c-1 -12 -1 -26 -2 -42l-3 -50c-1 -17 -2 -34 -3 -50l-3 -43c167 -4 340 -5 508 -5c-5 -61 -11 -121 -16 -180c-6 -60 -12 -120 -17 -181h177c9 113 19 238 30 351v5c-1 1 -1 2 0 5c171 0 338 1 509 4
l5 50c1 19 3 36 5 49l3 19c2 15 4 31 5 47c1 8 1 15 2 20c-167 -7 -346 -10 -513 -11c11 121 23 242 38 363h-184zM167 215l-19 -16c-4 -28 -10 -61 -17 -95c-4 -17 -8 -34 -11 -50c-3 -17 -7 -32 -10 -46c209 15 438 25 646 25c204 0 426 -10 629 -25l-3 48
c-1 18 -1 36 -2 55c-2 37 -4 75 -4 103c-196 12 -409 19 -606 19c-201 0 -400 -7 -603 -18z" />
    <glyph glyph-name="twosuperior" unicode="&#xb2;" horiz-adv-x="994" 
d="M551 855l51 44c60 51 121 102 174 162c52 59 96 124 119 203c1 8 2 18 2 33c0 80 -41 129 -97 158c-57 28 -129 38 -192 38c-84 0 -174 -17 -267 -41c-1 -17 -3 -48 -3 -64v-17c-1 -7 -1 -15 -1 -22c-1 -8 -1 -15 -1 -22c-1 -7 -1 -13 -1 -17c95 36 180 60 259 60
c33 0 68 -9 95 -28s45 -45 45 -80v-7c0 -3 0 -5 -1 -8c-24 -55 -63 -107 -109 -155c-46 -49 -97 -95 -145 -135c-15 -13 -31 -27 -48 -41c-17 -15 -32 -29 -47 -43c-21 -16 -45 -37 -65 -56l-40 -34c0 -1 0 -4 -1 -8c-1 -5 -1 -8 -1 -11c-1 -7 -3 -15 -4 -24s-3 -19 -5 -29
s-4 -20 -5 -29c-2 -10 -4 -18 -5 -25c113 12 219 19 311 19c91 0 189 -6 297 -19v29c-1 24 -2 50 -2 74v30c-103 9 -195 13 -283 13h-48c-16 0 -32 0 -48 -1z" />
    <glyph glyph-name="threesuperior" unicode="&#xb3;" horiz-adv-x="952" 
d="M891 1313c0 76 -42 122 -99 148s-129 33 -189 33c-85 0 -170 -11 -258 -23v-30v-19c0 -6 0 -12 -1 -19v-13v-18c-1 -7 -1 -13 -1 -18v-14c87 17 164 30 232 30c32 0 71 -4 101 -16c30 -13 52 -35 52 -68c0 -44 -22 -74 -53 -93c-31 -20 -73 -29 -110 -29h-16
c-3 0 -6 0 -9 1h-8h-79l-3 -40c-1 -17 -2 -30 -3 -41l-2 -41h93c3 1 7 1 10 1h10c37 0 76 -9 106 -27s50 -48 50 -85c0 -56 -28 -93 -68 -116c-40 -24 -91 -32 -138 -32c-75 0 -152 3 -239 42l-7 -60c-3 -21 -9 -59 -13 -79c88 -17 173 -27 253 -27c45 1 91 4 139 13
c47 9 94 25 141 54c35 24 59 56 73 91s19 73 19 109c0 41 -14 80 -37 112c-24 32 -57 57 -94 70c41 16 78 43 105 79c27 35 43 78 43 125z" />
    <glyph glyph-name="acute" unicode="&#xb4;" horiz-adv-x="823" 
d="M657 1616l-14 -6c-47 -53 -91 -106 -136 -162c-31 -37 -69 -83 -108 -128c-40 -45 -80 -90 -113 -125l45 3c17 1 35 2 54 3c37 2 75 3 99 3c60 57 125 126 181 187l54 57c20 21 41 42 62 64c43 43 85 84 120 116c-32 -3 -77 -5 -122 -7l-66 -3c-21 -1 -40 -2 -56 -2z" />
    <glyph glyph-name="mu" unicode="&#xb5;" horiz-adv-x="1508" 
d="M158 -377l21 -23c53 7 121 12 174 15c21 161 38 332 53 495c23 -39 58 -67 98 -86c40 -20 85 -29 132 -29h23c49 0 100 13 145 36s87 55 120 94c8 -35 24 -69 48 -94c23 -25 54 -41 95 -41c48 0 93 28 140 57h-1c15 9 36 23 51 31l3 37c1 14 2 29 3 44l3 43
c1 14 1 26 2 36l-38 -12c-13 -7 -25 -11 -36 -11c-19 0 -40 3 -57 11s-30 20 -30 39v3c25 271 60 558 107 827l-78 -4c-35 -3 -85 -5 -120 -6c-21 -136 -43 -288 -59 -424v1c-11 -76 -29 -160 -89 -232c-52 -49 -125 -72 -193 -72c-33 0 -68 3 -100 14s-62 29 -86 58
c-31 43 -41 99 -41 155c0 12 1 24 2 37c8 153 11 326 12 479c-13 1 -28 1 -45 2l-51 3c-36 2 -72 3 -97 6v-110c0 -461 -35 -918 -111 -1379z" />
    <glyph glyph-name="paragraph" unicode="&#xb6;" horiz-adv-x="1564" 
d="M744 1451h-1c-59 0 -119 -4 -177 -19s-116 -39 -165 -78c-52 -40 -87 -92 -108 -148s-29 -116 -29 -175c0 -96 31 -193 92 -265c51 -56 110 -104 189 -123c-45 -268 -95 -538 -155 -805c49 3 110 6 170 8s121 2 170 2c39 489 83 977 127 1466c61 0 104 0 161 3
c-61 -491 -107 -981 -132 -1472c121 -3 244 -13 371 -30c-61 461 -77 916 -77 1369c0 87 1 192 2 280c-111 -8 -239 -14 -348 -14h-45c-15 0 -30 0 -45 1z" />
    <glyph glyph-name="periodcentered" unicode="&#xb7;" horiz-adv-x="558" 
d="M230 845l-22 -19c0 -76 -7 -155 -26 -251c56 5 92 7 119 7c29 0 66 -2 112 -6c0 85 6 173 27 272c-52 -7 -88 -8 -120 -8c-29 0 -59 1 -90 5z" />
    <glyph glyph-name="cedilla" unicode="&#xb8;" horiz-adv-x="700" 
d="M296 24h-27c-22 -1 -47 -2 -69 -2h-28c17 -29 35 -59 49 -88s23 -58 23 -85c0 -25 -12 -46 -30 -60s-43 -23 -67 -23c-4 0 -7 0 -10 1h-14c-39 0 -82 6 -133 33l-7 -47c-4 -29 -11 -75 -18 -103c60 -12 116 -18 167 -18c49 0 113 3 173 30c29 15 50 40 64 69s20 61 20 89
c0 75 -36 140 -76 197z" />
    <glyph glyph-name="onesuperior" unicode="&#xb9;" horiz-adv-x="979" 
d="M323 788l-18 -18c-1 -13 -3 -25 -5 -37c-3 -12 -5 -25 -7 -38l-2 -35c97 10 187 15 270 15c85 0 182 -6 290 -18c-1 13 -3 47 -3 60c0 17 1 52 2 69c-72 8 -133 11 -193 12c16 228 37 454 64 682h-19c-15 -1 -31 -2 -46 -2h-19h-63c-76 -11 -148 -19 -232 -22v-30
c-1 -15 -1 -26 -1 -35v-15c-1 -6 -1 -12 -1 -19v-19v-16c25 1 57 5 89 9c31 4 63 8 88 12l32 5c-7 -96 -14 -185 -22 -275l-12 -135c-4 -45 -8 -92 -13 -140c-65 -1 -115 -3 -179 -10z" />
    <glyph glyph-name="ordmasculine" unicode="&#xba;" horiz-adv-x="1092" 
d="M666 1477c-49 0 -102 -6 -150 -21c-49 -16 -97 -40 -134 -79c-45 -44 -73 -99 -89 -158c-17 -59 -23 -120 -23 -175c0 -88 18 -180 71 -249c29 -36 69 -61 113 -77c44 -17 92 -24 140 -24c49 0 100 5 148 21c48 15 92 40 131 80h-1c49 49 80 113 99 178s25 133 25 193
c0 77 -15 152 -66 211h1c-32 40 -73 65 -119 80s-98 20 -146 20zM660 1383h8c51 0 94 -16 125 -47s49 -74 49 -129c0 -65 -20 -132 -58 -182s-94 -84 -166 -84c-57 0 -103 20 -134 55s-48 84 -48 141c0 64 17 139 68 187c40 43 100 59 156 59zM246 537l-10 -73
c123 11 237 17 346 17c105 0 218 -5 341 -16v19c-1 9 -1 16 -1 19v49c0 5 0 14 1 26v25c-104 7 -224 12 -328 12c-108 0 -215 -4 -322 -12l-18 -16z" />
    <glyph glyph-name="guillemotright" unicode="&#xbb;" horiz-adv-x="1253" 
d="M290 1063l-34 -12c-1 -9 -1 -18 -1 -27v-28c0 -33 -1 -69 -6 -112l28 -31c36 -41 72 -81 108 -120l108 -120c-108 -81 -204 -156 -309 -240c-1 -33 -4 -80 -7 -127c-4 -47 -7 -94 -10 -127l66 50c47 36 97 74 145 110l66 50l253 192c-4 17 -8 45 -11 64l-10 62
c-128 139 -257 279 -386 416zM710 1026l-34 -10c-3 -17 -6 -35 -8 -52c-3 -18 -5 -36 -8 -53l-8 -60l72 -78c48 -53 86 -95 116 -129l45 -52c-104 -81 -196 -152 -303 -232c1 -16 1 -35 2 -56c1 -43 4 -87 6 -130c1 -21 1 -40 2 -56l251 187c87 65 172 132 248 192l-15 78
c-1 7 -3 16 -4 25s-3 17 -4 24c-117 135 -237 273 -358 402z" />
    <glyph glyph-name="onequarter" unicode="&#xbc;" horiz-adv-x="1779" 
d="M1248 1120c-95 -136 -187 -273 -274 -401c-163 -243 -329 -488 -501 -724l-43 -4l-31 -3c-13 -1 -27 -3 -40 -4c-14 -1 -27 -3 -40 -4c-13 -2 -23 -3 -31 -4c87 119 177 248 267 378c45 65 89 129 133 194c27 40 53 79 79 117c-75 7 -144 10 -206 10
c-83 0 -173 -5 -270 -15l2 35c2 13 4 26 7 38c2 12 4 24 5 37l18 18c64 7 114 9 179 10c5 48 9 95 13 140l12 135c8 90 15 179 22 275l-32 -5c-25 -4 -57 -8 -88 -12c-32 -4 -64 -8 -89 -9v16v19s0 13 1 19v15c0 9 0 20 1 35v30c84 3 156 11 232 22h63h19c15 0 31 1 46 2h19
c-27 -228 -48 -454 -64 -682c60 -1 120 -4 192 -12c157 233 324 476 489 703l13 8c11 1 25 2 41 4c16 1 32 3 49 5c17 1 33 3 49 5c15 2 29 4 40 5c-92 -124 -187 -260 -282 -396zM1533 292c9 -1 17 -1 24 -1c-1 -8 -2 -19 -3 -34l-3 -36c0 -11 -1 -32 -4 -52h-28
c-9 1 -18 1 -25 2c-7 0 -14 0 -21 1c-14 1 -29 2 -48 2c-3 -56 -4 -126 -4 -177c-10 1 -22 1 -36 2c-14 0 -28 0 -43 1c-30 1 -60 2 -80 2c1 19 3 42 4 68s3 49 4 68l3 38h-58c-101 0 -225 -4 -326 -9c1 9 2 19 4 31l9 71c1 11 3 21 4 30c129 167 264 333 401 493l15 7
c49 1 120 3 169 6c-31 -184 -45 -347 -58 -510h10c3 -1 7 -1 10 -1c13 0 33 -1 52 -1c9 -1 19 -1 28 -1zM1216 296h65c9 115 19 232 32 348c-35 -41 -68 -83 -101 -124l-101 -125l-81 -100c12 0 26 0 43 1h50h51h42z" />
    <glyph glyph-name="onehalf" unicode="&#xbd;" horiz-adv-x="2100" 
d="M1530 1516c-92 -124 -187 -260 -282 -396s-187 -273 -274 -401c-163 -243 -329 -488 -501 -724l-43 -4l-31 -3c-13 -1 -27 -3 -40 -4c-14 -1 -27 -3 -40 -4c-13 -2 -23 -3 -31 -4c87 119 177 248 267 378c45 65 89 129 133 194c27 40 53 79 79 117c-75 7 -144 10 -206 10
c-83 0 -173 -5 -270 -15l2 35c2 13 4 26 7 38c2 12 4 24 5 37l18 18c64 7 114 9 179 10c5 48 9 95 13 140l12 135c8 90 15 179 22 275l-32 -5c-25 -4 -57 -8 -88 -12c-32 -4 -64 -8 -89 -9v16v19s0 13 1 19v15c0 9 0 20 1 35v30c84 3 156 11 232 22h63h19c15 0 31 1 46 2h19
c-27 -228 -48 -454 -64 -682c60 -1 120 -4 192 -12c157 233 324 476 489 703l13 8c11 1 25 2 41 4c16 1 32 3 49 5c17 1 33 3 49 5c15 2 29 4 40 5zM1515 189l-66 -53c16 1 32 1 48 1h48c88 0 180 -4 283 -13v-30c0 -24 1 -50 2 -74v-29c-108 13 -206 19 -297 19
c-92 0 -198 -7 -311 -19c1 7 3 15 5 25c1 9 3 19 5 29s4 20 5 29s3 17 4 24c0 3 0 6 1 11c1 4 1 7 1 8l40 34c20 19 44 40 65 56c15 14 30 28 47 43c17 14 33 28 48 41c48 40 99 86 145 135c46 48 85 100 109 155c1 3 1 5 1 8v7c0 35 -18 61 -45 80s-62 28 -95 28
c-79 0 -164 -24 -259 -60c0 4 0 10 1 17c0 7 0 14 1 22c0 7 0 15 1 22v17c0 16 2 47 3 64c93 24 183 41 267 41c63 0 135 -10 192 -38c56 -29 97 -78 97 -158c0 -15 -1 -25 -2 -33c-23 -79 -67 -144 -119 -203c-53 -60 -114 -111 -174 -162z" />
    <glyph glyph-name="threequarters" unicode="&#xbe;" horiz-adv-x="1747" 
d="M1216 1120c-95 -136 -187 -273 -274 -401c-163 -243 -329 -488 -501 -724l-43 -4l-31 -3c-13 -1 -27 -3 -40 -4c-14 -1 -27 -3 -40 -4c-13 -2 -23 -3 -31 -4c87 119 177 248 267 378c45 65 89 129 133 194c40 60 79 117 117 174c-44 -26 -88 -41 -132 -49
c-48 -9 -94 -12 -139 -13c-80 0 -165 10 -253 27c4 20 10 58 13 79l7 60c87 -39 164 -42 239 -42c47 0 98 8 138 32c40 23 68 60 68 116c0 37 -20 67 -50 85s-69 27 -106 27h-10c-3 0 -7 0 -10 -1h-93l2 41l3 41c1 16 2 29 3 40h79h8c3 -1 6 -1 9 -1h16c37 0 79 9 110 29
c31 19 53 49 53 93c0 33 -22 55 -52 68c-30 12 -69 16 -101 16c-68 0 -145 -13 -232 -30v14c0 5 0 11 1 18v18v13c1 7 1 13 1 19v19v30c88 12 173 23 258 23c60 0 132 -7 189 -33s99 -72 99 -148c0 -47 -16 -90 -43 -125c-27 -36 -64 -63 -105 -79c37 -13 70 -38 94 -70
c23 -32 37 -71 37 -112c0 -21 -2 -44 -6 -65c142 209 291 425 438 627l13 8c11 1 25 2 41 4c16 1 32 3 49 5c17 1 33 3 49 5c15 2 29 4 40 5c-92 -124 -187 -260 -282 -396zM1501 292c9 -1 17 -1 24 -1c-1 -8 -2 -19 -3 -34l-3 -36c0 -11 -1 -32 -4 -52h-28
c-9 1 -18 1 -25 2c-7 0 -14 0 -21 1c-14 1 -29 2 -48 2c-3 -56 -4 -126 -4 -177c-10 1 -22 1 -36 2c-14 0 -28 0 -43 1c-30 1 -60 2 -80 2c1 19 3 42 4 68s3 49 4 68l3 38h-58c-101 0 -225 -4 -326 -9c1 9 2 19 4 31l9 71c1 11 3 21 4 30c129 167 264 333 401 493l15 7
c49 1 120 3 169 6c-31 -184 -45 -347 -58 -510h10c3 -1 7 -1 10 -1c13 0 33 -1 52 -1c9 -1 19 -1 28 -1zM1184 296h65c9 115 19 232 32 348c-35 -41 -68 -83 -101 -124l-101 -125l-81 -100c12 0 26 0 43 1h50h51h42z" />
    <glyph glyph-name="questiondown" unicode="&#xbf;" horiz-adv-x="1104" 
d="M718 1214l14 123c5 45 10 86 14 123c-29 -3 -69 -4 -108 -4c-20 -1 -40 -1 -59 -1c-19 -1 -36 -1 -51 -1c-2 -19 -4 -39 -5 -61l-6 -69c-4 -47 -7 -93 -10 -130c57 0 134 0 193 3zM490 953l-3 -25c-3 -33 -6 -66 -18 -97c-17 -40 -50 -72 -82 -103l-13 -11v1l-41 -39
c-59 -56 -117 -109 -160 -171s-71 -134 -71 -222c0 -109 49 -178 119 -220s161 -57 248 -57c128 0 260 26 387 86c1 18 1 39 2 62l3 71c2 48 3 96 6 132c-59 -33 -118 -64 -177 -85c-60 -21 -118 -35 -173 -35c-48 0 -96 10 -134 34s-64 61 -64 116c0 40 14 77 36 111
s50 62 81 89c68 60 137 121 185 194c24 44 31 91 36 136l13 158h-38c-15 -1 -30 -1 -45 -1h-47h-39z" />
    <glyph glyph-name="Agrave" unicode="&#xc0;" horiz-adv-x="1670" 
d="M598 1658l-70 86c-11 13 -21 25 -30 35c25 -3 63 -5 100 -6c19 -1 37 -1 55 -2c17 -1 32 -1 45 -1l15 -8c23 -31 43 -63 63 -95c15 -24 28 -46 47 -73s42 -56 74 -95c-21 1 -54 3 -88 4c-17 1 -34 1 -49 2c-16 1 -29 1 -39 1c-15 17 -30 36 -47 57l-46 57
c-9 11 -19 23 -30 38zM1209 544c56 -177 119 -356 195 -537c-43 4 -97 8 -151 12s-109 7 -153 10c-19 77 -36 154 -51 233c-103 3 -203 3 -306 3c-108 0 -201 0 -309 -3c-15 -38 -33 -77 -52 -118c-20 -41 -39 -79 -56 -116c-20 -1 -43 -3 -68 -4l-77 -6
c-27 -2 -53 -4 -78 -5l-69 -6c197 337 355 677 504 1001c67 144 141 306 210 447h197c37 -124 75 -261 110 -386c49 -175 98 -349 154 -525zM893 507h107c-17 69 -34 137 -49 205c-16 68 -32 136 -49 205c-13 54 -25 108 -37 161l-39 161l-120 -297
c-61 -148 -118 -286 -181 -435c40 1 79 1 118 1h117h67c22 -1 44 -1 66 -1z" />
    <glyph glyph-name="Aacute" unicode="&#xc1;" horiz-adv-x="1670" 
d="M823 1503c-11 -1 -23 -1 -35 -2c-25 -1 -50 -3 -62 -4c36 37 65 69 90 98c24 28 46 54 67 81v-1c24 29 49 60 73 88l14 7c13 0 28 0 47 1s38 1 57 2c39 1 79 3 104 6c-44 -40 -76 -71 -102 -97c-13 -13 -25 -25 -35 -36c-20 -22 -45 -49 -81 -87c-19 -19 -36 -37 -53 -53
c-17 -1 -41 -2 -57 -2c-7 0 -16 0 -27 -1zM1209 544c56 -177 119 -356 195 -537c-43 4 -97 8 -151 12s-109 7 -153 10c-19 77 -36 154 -51 233c-103 3 -203 3 -306 3c-108 0 -201 0 -309 -3c-15 -38 -33 -77 -52 -118c-20 -41 -39 -79 -56 -116c-20 -1 -43 -3 -68 -4l-77 -6
c-27 -2 -53 -4 -78 -5l-69 -6c197 337 355 677 504 1001c67 144 141 306 210 447h197c37 -124 75 -261 110 -386c49 -175 98 -349 154 -525zM893 507h107c-17 69 -34 137 -49 205c-16 68 -32 136 -49 205c-13 54 -25 108 -37 161l-39 161l-120 -297
c-61 -148 -118 -286 -181 -435c40 1 79 1 118 1h117h67c22 -1 44 -1 66 -1z" />
    <glyph glyph-name="Acircumflex" unicode="&#xc2;" horiz-adv-x="1670" 
d="M569 1522c-10 -1 -19 -1 -27 -1h-18c52 45 91 83 123 118s58 67 85 99h-1l44 54h192l30 -48v1c21 -35 42 -69 70 -105c27 -37 59 -75 106 -119h-17c-9 0 -17 0 -26 1h-26h-17c-24 1 -57 2 -81 2c-47 43 -83 87 -120 134v1c-6 7 -10 11 -12 13s-6 7 -11 14l-16 -16
c-48 -48 -95 -97 -155 -146c-24 0 -55 -1 -79 -2h-17h-27zM1209 544c56 -177 119 -356 195 -537c-43 4 -97 8 -151 12s-109 7 -153 10c-19 77 -36 154 -51 233c-103 3 -203 3 -306 3c-108 0 -201 0 -309 -3c-15 -38 -33 -77 -52 -118c-20 -41 -39 -79 -56 -116
c-20 -1 -43 -3 -68 -4l-77 -6c-27 -2 -53 -4 -78 -5l-69 -6c197 337 355 677 504 1001c67 144 141 306 210 447h197c37 -124 75 -261 110 -386c49 -175 98 -349 154 -525zM893 507h107c-17 69 -34 137 -49 205c-16 68 -32 136 -49 205c-13 54 -25 108 -37 161l-39 161
l-120 -297c-61 -148 -118 -286 -181 -435c40 1 79 1 118 1h117h67c22 -1 44 -1 66 -1z" />
    <glyph glyph-name="Atilde" unicode="&#xc3;" horiz-adv-x="1670" 
d="M667 1533h-21c-8 -1 -15 -1 -22 -1h-17l26 64c7 14 13 29 20 44c6 15 13 29 22 43c33 52 88 76 137 76h16c67 0 117 -29 170 -61l-1 1c4 -3 9 -6 12 -9c19 -12 38 -21 67 -21c-1 1 1 4 8 9c13 9 33 22 54 34c10 5 18 10 23 13l-11 35c25 1 51 2 75 2h14c6 0 12 0 19 1h18
h14l-24 -53c-19 -40 -39 -83 -67 -117c-29 -34 -65 -58 -116 -58c-64 0 -102 18 -149 41h-1l-32 20c-25 16 -49 33 -76 33c-20 0 -36 -13 -49 -31s-23 -41 -28 -61l-36 6c0 -5 -3 -7 -8 -8c-11 -1 -24 -2 -37 -2zM1209 544c56 -177 119 -356 195 -537c-43 4 -97 8 -151 12
s-109 7 -153 10c-19 77 -36 154 -51 233c-103 3 -203 3 -306 3c-108 0 -201 0 -309 -3c-15 -38 -33 -77 -52 -118c-20 -41 -39 -79 -56 -116c-20 -1 -43 -3 -68 -4l-77 -6c-27 -2 -53 -4 -78 -5l-69 -6c197 337 355 677 504 1001c67 144 141 306 210 447h197
c37 -124 75 -261 110 -386c49 -175 98 -349 154 -525zM893 507h107c-17 69 -34 137 -49 205c-16 68 -32 136 -49 205c-13 54 -25 108 -37 161l-39 161l-120 -297c-61 -148 -118 -286 -181 -435c40 1 79 1 118 1h117h67c22 -1 44 -1 66 -1z" />
    <glyph glyph-name="Adieresis" unicode="&#xc4;" horiz-adv-x="1670" 
d="M550 1903l-19 -25c6 -22 9 -45 9 -68c0 -37 -11 -84 -42 -140c17 1 36 1 57 2c21 0 43 0 66 1c44 1 89 2 121 2c12 58 18 114 18 167c0 12 -1 45 -2 57c-32 1 -67 1 -104 2c-37 0 -72 1 -104 2zM956 1899l-17 -15c-12 -49 -19 -98 -19 -145c0 -16 0 -34 4 -63
c32 -1 82 -3 114 -3l124 -2c-15 39 -22 70 -22 93c0 37 16 86 43 139l-130 -2c-32 0 -65 -1 -97 -2zM945 1455h-197c-69 -141 -143 -303 -210 -447c-149 -324 -307 -664 -504 -1001l69 6c25 1 51 3 78 5l77 6c25 1 48 3 68 4c17 37 36 75 56 116c19 41 37 80 52 118
c108 3 201 3 309 3c103 0 203 0 306 -3c15 -79 32 -156 51 -233c44 -3 99 -6 153 -10s108 -8 151 -12c-76 181 -139 360 -195 537c-56 176 -105 350 -154 525c-35 125 -73 262 -110 386zM902 917c17 -69 33 -137 49 -205c15 -68 32 -136 49 -205h-107c-22 0 -44 0 -66 1h-67
h-117c-39 0 -78 0 -118 -1c63 149 121 287 181 435l120 297l39 -161c12 -53 24 -107 37 -161z" />
    <glyph glyph-name="Aring" unicode="&#xc5;" horiz-adv-x="1669" 
d="M614 1206c-89 -196 -184 -401 -281 -604c-97 -204 -197 -405 -300 -597l54 7c41 4 86 8 127 12c21 1 39 3 54 4c60 120 121 249 177 370c120 3 225 5 345 5c92 0 179 0 270 -3c35 -125 73 -247 116 -371c15 -1 33 -3 53 -5l61 -6c42 -4 82 -8 113 -12
c-71 184 -131 365 -185 542s-103 351 -150 522l-80 284c84 60 137 154 137 255c0 67 -27 126 -70 168c-44 42 -105 67 -170 67c-83 0 -157 -29 -211 -80s-89 -122 -89 -206c0 -80 37 -154 98 -202l-34 -75c-13 -27 -24 -52 -35 -75zM988 1578v-1c-4 -36 -22 -70 -48 -94
c-26 -25 -60 -41 -95 -41s-65 13 -88 35s-37 51 -37 86c0 41 17 77 45 103c27 26 64 41 103 41c33 0 64 -12 86 -32c22 -21 35 -50 35 -83v-6c0 -2 0 -5 -1 -8zM826 1232l64 -237c19 -69 37 -138 56 -207l57 -209c-20 0 -39 0 -56 1h-53h-52h-58h-126s-84 -1 -127 -2
c41 89 79 172 116 256l57 125c19 42 38 86 58 131z" />
    <glyph glyph-name="AE" unicode="&#xc6;" horiz-adv-x="2145" 
d="M1982 1459l-20 24c-297 -20 -589 -28 -886 -28h-146c-51 0 -100 1 -147 2l-115 -245c-92 -199 -184 -398 -287 -598c-103 -201 -215 -403 -347 -607l94 6c68 4 140 8 209 11c34 1 65 3 93 4c9 61 19 136 27 196l6 54c165 4 314 6 478 6c-1 -7 -1 -13 -1 -18l-3 -27
c-1 -5 -1 -11 -2 -18c-5 -55 -12 -128 -16 -184c153 0 317 -2 481 -7s327 -13 479 -22c-4 39 -9 88 -12 137c-4 49 -7 98 -8 137c-232 11 -474 18 -707 19l9 118l10 124c219 0 431 -1 650 -5c1 29 4 74 7 105c1 5 1 11 2 18c0 7 0 14 1 22c1 15 2 29 2 40h-647
c8 95 17 185 26 276c8 91 17 181 29 276c236 3 467 9 704 22c11 51 24 113 37 162zM823 1055l99 231c19 -1 37 -1 54 -1h52c-24 -279 -47 -546 -72 -823c-69 0 -136 0 -200 -1l-199 -3c97 201 178 393 266 597z" />
    <glyph glyph-name="Ccedilla" unicode="&#xc7;" horiz-adv-x="1529" 
d="M1373 1358l24 -2c-3 -15 -6 -33 -9 -52s-7 -39 -10 -59c-7 -40 -13 -81 -17 -112c-112 113 -256 171 -396 171c-67 0 -138 -7 -205 -27c-68 -20 -132 -53 -184 -106h1c-67 -71 -108 -154 -132 -241c-25 -88 -34 -178 -34 -258c0 -51 5 -101 19 -146s36 -86 72 -118l-1 1
c49 -40 109 -63 173 -76c63 -13 130 -17 193 -17c69 0 145 15 218 46s146 76 213 136c-3 -48 -4 -106 -6 -165s-4 -117 -4 -164v-42c-141 -88 -297 -118 -446 -118c-25 0 -49 1 -74 2c11 -29 18 -59 18 -92c0 -28 -6 -60 -20 -89s-35 -54 -64 -69c-60 -27 -124 -30 -173 -30
c-51 0 -107 6 -167 18c7 28 14 74 18 103l7 47c51 -27 94 -33 133 -33h14c3 -1 6 -1 10 -1c24 0 49 9 67 23s30 35 30 60c0 27 -9 56 -23 85c-21 5 -41 11 -61 17c-91 29 -173 77 -237 149c-48 60 -79 129 -98 202c-20 73 -27 151 -27 230c0 103 13 224 47 341
c34 116 88 230 171 317c76 73 169 122 266 152s199 40 295 40c148 0 298 -29 417 -113z" />
    <glyph glyph-name="Egrave" unicode="&#xc8;" horiz-adv-x="1532" 
d="M625 1762l-15 8c-13 0 -28 0 -45 1c-18 1 -36 1 -55 2c-37 1 -75 3 -100 6c9 -10 19 -22 30 -35l70 -86c11 -15 21 -27 30 -38l46 -57c17 -21 32 -40 47 -57c10 0 23 0 39 -1c15 -1 32 -1 49 -2c34 -1 67 -3 88 -4c-32 39 -55 68 -74 95s-32 49 -47 73
c-20 32 -40 64 -63 95zM458 1484l-23 -19c-4 -480 -45 -962 -129 -1458c172 19 335 30 488 30c149 0 307 -10 472 -30v77c0 28 0 56 1 85c1 56 2 114 5 161c-161 13 -311 19 -455 19c-84 0 -167 -2 -252 -5c3 31 7 62 10 91l10 88c6 58 11 116 16 179h307c54 0 111 0 172 1
h172c0 5 0 14 1 25s1 20 1 25c3 39 9 95 16 134c-137 -3 -294 -6 -431 -6c-77 0 -146 1 -222 2c5 69 9 136 14 200c5 63 9 129 12 198c93 -5 169 -7 264 -7c140 0 286 7 441 23c4 31 11 74 16 105l14 83c-168 -20 -327 -31 -478 -31c-149 0 -296 10 -442 30z" />
    <glyph glyph-name="Eacute" unicode="&#xc9;" horiz-adv-x="1441" 
d="M912 2323l-14 -6c-47 -53 -91 -106 -136 -162c-31 -37 -69 -83 -108 -128c-40 -45 -80 -90 -113 -125l45 3c17 1 35 2 54 3c37 2 75 3 99 3c60 57 125 126 181 187l54 57c20 21 41 42 62 64c43 43 85 84 120 116c-32 -3 -77 -5 -122 -7l-66 -3c-21 -1 -40 -2 -56 -2z
M367 1484l-23 -19c-4 -480 -45 -962 -129 -1458c172 19 335 30 488 30c149 0 307 -10 472 -30v77c0 28 0 56 1 85c1 56 2 114 5 161c-161 13 -311 19 -455 19c-84 0 -167 -2 -252 -5c3 31 7 62 10 91l10 88c6 58 11 116 16 179h307c54 0 111 0 172 1h172c0 5 0 14 1 25
s1 20 1 25c3 39 9 95 16 134c-137 -3 -294 -6 -431 -6c-77 0 -146 1 -222 2c5 69 9 136 14 200c5 63 9 129 12 198c93 -5 169 -7 264 -7c140 0 286 7 441 23c4 31 11 74 16 105l14 83c-168 -20 -327 -31 -478 -31c-149 0 -296 10 -442 30z" />
    <glyph glyph-name="Ecircumflex" unicode="&#xca;" horiz-adv-x="1441" 
d="M598 1718h1c-27 -32 -53 -64 -85 -99s-71 -73 -123 -118h18c8 0 17 0 27 1h27h17c24 1 55 2 79 2c60 49 107 98 155 146l16 16c5 -7 9 -12 11 -14s6 -6 12 -13v-1c37 -47 73 -91 120 -134c24 0 57 -1 81 -2h17h26c9 -1 17 -1 26 -1h17c-47 44 -79 82 -106 119
c-28 36 -49 70 -70 105v-1l-30 48h-192zM367 1484l-23 -19c-4 -480 -45 -962 -129 -1458c172 19 335 30 488 30c149 0 307 -10 472 -30v77c0 28 0 56 1 85c1 56 2 114 5 161c-161 13 -311 19 -455 19c-84 0 -167 -2 -252 -5c3 31 7 62 10 91l10 88c6 58 11 116 16 179h307
c54 0 111 0 172 1h172c0 5 0 14 1 25s1 20 1 25c3 39 9 95 16 134c-137 -3 -294 -6 -431 -6c-77 0 -146 1 -222 2c5 69 9 136 14 200c5 63 9 129 12 198c93 -5 169 -7 264 -7c140 0 286 7 441 23c4 31 11 74 16 105l14 83c-168 -20 -327 -31 -478 -31
c-149 0 -296 10 -442 30z" />
    <glyph glyph-name="Edieresis" unicode="&#xcb;" horiz-adv-x="1441" 
d="M910 1744l-18 -14c-12 -47 -17 -90 -17 -134c0 -15 1 -48 2 -61h39c16 -1 29 -1 39 -1h34c13 -1 26 -1 39 -1c13 -1 25 -1 38 -1c13 -1 24 -1 34 -1c-13 38 -20 67 -20 88c0 35 15 79 40 130c-15 -1 -31 -1 -49 -1c-19 -1 -37 -1 -56 -2c-37 -1 -76 -2 -105 -2zM535 1748
l-20 -25c7 -21 10 -40 10 -63c0 -35 -11 -78 -38 -129c10 0 22 0 35 1c13 0 26 0 40 1c13 0 27 0 40 1h33c9 0 22 0 38 1h37c12 56 19 107 19 158v7c-1 2 -1 5 -1 8v36c-30 1 -62 1 -96 2c-35 0 -67 1 -97 2zM367 1484l-23 -19c-4 -480 -45 -962 -129 -1458
c172 19 335 30 488 30c149 0 307 -10 472 -30v77c0 28 0 56 1 85c1 56 2 114 5 161c-161 13 -311 19 -455 19c-84 0 -167 -2 -252 -5c3 31 7 62 10 91l10 88c6 58 11 116 16 179h307c54 0 111 0 172 1h172c0 5 0 14 1 25s1 20 1 25c3 39 9 95 16 134
c-137 -3 -294 -6 -431 -6c-77 0 -146 1 -222 2c5 69 9 136 14 200c5 63 9 129 12 198c93 -5 169 -7 264 -7c140 0 286 7 441 23c4 31 11 74 16 105l14 83c-168 -20 -327 -31 -478 -31c-149 0 -296 10 -442 30z" />
    <glyph glyph-name="Igrave" unicode="&#xcc;" horiz-adv-x="1106" 
d="M625 1762l-15 8c-13 0 -28 0 -45 1c-18 1 -36 1 -55 2c-37 1 -75 3 -100 6c9 -10 19 -22 30 -35l70 -86c11 -15 21 -27 30 -38l46 -57c17 -21 32 -40 47 -57c10 0 23 0 39 -1c15 -1 32 -1 49 -2c34 -1 67 -3 88 -4c-32 39 -55 68 -74 95s-32 49 -47 73
c-20 32 -40 64 -63 95zM764 1467l-26 -16c-45 -476 -99 -980 -159 -1456c55 27 101 42 136 42s76 -14 122 -41c13 237 29 492 49 746c19 254 40 508 61 745c-47 -21 -85 -32 -114 -32c-23 0 -46 5 -69 12z" />
    <glyph glyph-name="Iacute" unicode="&#xcd;" horiz-adv-x="940" 
d="M616 1870l-14 -7c-24 -28 -49 -59 -73 -88v1c-21 -27 -43 -53 -67 -81c-25 -29 -54 -61 -90 -98c12 1 37 3 62 4c12 1 24 1 35 2s20 1 27 1c16 0 40 1 57 2c17 16 34 34 53 53c36 38 61 65 81 87c10 11 22 23 35 36c26 26 58 57 102 97c-25 -3 -65 -5 -104 -6
c-19 -1 -38 -1 -57 -2s-34 -1 -47 -1zM598 1467l-26 -16c-45 -476 -99 -980 -159 -1456c55 27 101 42 136 42s76 -14 122 -41c13 237 29 492 49 746c19 254 40 508 61 745c-47 -21 -85 -32 -114 -32c-23 0 -46 5 -69 12z" />
    <glyph glyph-name="Icircumflex" unicode="&#xce;" horiz-adv-x="1075" 
d="M558 1718h1c-27 -32 -53 -64 -85 -99s-71 -73 -123 -118h18c8 0 17 0 27 1h27h17c24 1 55 2 79 2c60 49 107 98 155 146l16 16c5 -7 9 -12 11 -14s6 -6 12 -13v-1c37 -47 73 -91 120 -134c24 0 57 -1 81 -2h17h26c9 -1 17 -1 26 -1h17c-47 44 -79 82 -106 119
c-28 36 -49 70 -70 105v-1l-30 48h-192zM733 1467l-26 -16c-45 -476 -99 -980 -159 -1456c55 27 101 42 136 42s76 -14 122 -41c13 237 29 492 49 746c19 254 40 508 61 745c-47 -21 -85 -32 -114 -32c-23 0 -46 5 -69 12z" />
    <glyph glyph-name="Idieresis" unicode="&#xcf;" horiz-adv-x="925" 
d="M793 1744l-18 -14c-12 -47 -17 -90 -17 -134c0 -15 1 -48 2 -61h39c16 -1 29 -1 39 -1h34c13 -1 26 -1 39 -1c13 -1 25 -1 38 -1c13 -1 24 -1 34 -1c-13 38 -20 67 -20 88c0 35 15 79 40 130c-15 -1 -31 -1 -49 -1c-19 -1 -37 -1 -56 -2c-37 -1 -76 -2 -105 -2zM418 1748
l-20 -25c7 -21 10 -40 10 -63c0 -35 -11 -78 -38 -129c10 0 22 0 35 1c13 0 26 0 40 1c13 0 27 0 40 1h33c9 0 22 0 38 1h37c12 56 19 107 19 158v7c-1 2 -1 5 -1 8v36c-30 1 -62 1 -96 2c-35 0 -67 1 -97 2zM556 1467l-26 -16c-45 -476 -99 -980 -159 -1456
c55 27 101 42 136 42s76 -14 122 -41c13 237 29 492 49 746c19 254 40 508 61 745c-47 -21 -85 -32 -114 -32c-23 0 -46 5 -69 12z" />
    <glyph glyph-name="Eth" unicode="&#xd0;" horiz-adv-x="1676" 
d="M1535 1106c19 -69 25 -145 25 -218c0 -68 -3 -148 -15 -231s-32 -169 -65 -248c-33 -80 -80 -154 -147 -211c-91 -72 -193 -110 -300 -132s-216 -27 -320 -30c-67 0 -139 -1 -211 -4c-73 -3 -145 -6 -212 -10c44 239 72 457 93 669h-180c1 9 1 22 2 38l3 37
c0 6 0 13 1 20s1 15 2 23c0 8 0 16 1 23s1 14 1 19h40c32 -1 62 -2 91 -2c15 -1 32 -1 51 -1c17 203 23 400 23 601l20 19c116 -7 230 -9 347 -12h25c9 -1 17 -1 24 -1c104 -3 213 -6 317 -28s202 -62 281 -135c52 -53 83 -118 103 -186zM1316 589c23 93 28 190 28 269
c0 53 -5 108 -19 160c-14 51 -37 98 -70 137c-51 49 -115 81 -186 99s-146 23 -218 24l-221 2c-4 -75 -8 -147 -11 -216c-4 -69 -9 -142 -16 -217h308l-13 -155h-154c-51 0 -103 0 -154 -1c-4 -41 -8 -82 -11 -121c-8 -80 -16 -158 -26 -238c-5 -40 -11 -81 -16 -123l109 3
c72 0 145 1 221 7s151 23 220 56c34 16 66 37 95 64h-1c71 65 111 157 135 250z" />
    <glyph glyph-name="Ntilde" unicode="&#xd1;" horiz-adv-x="1579" 
d="M575 1533h-21c-8 -1 -15 -1 -22 -1h-17l26 64c7 14 13 29 20 44c6 15 13 29 22 43c33 52 88 76 137 76h16c67 0 117 -29 170 -61l-1 1c4 -3 9 -6 12 -9c19 -12 38 -21 67 -21c-1 1 1 4 8 9c13 9 33 22 54 34c10 5 18 10 23 13l-11 35c25 1 51 2 75 2h14c6 0 12 0 19 1h18
h14l-24 -53c-19 -40 -39 -83 -67 -117c-29 -34 -65 -58 -116 -58c-64 0 -102 18 -149 41h-1l-32 20c-25 16 -49 33 -76 33c-20 0 -36 -13 -49 -31s-23 -41 -28 -61l-36 6c0 -5 -3 -7 -8 -8c-11 -1 -24 -2 -37 -2zM1442 1487c-84 -457 -131 -905 -131 -1344
c0 -39 1 -96 2 -135c-44 5 -97 10 -150 14s-106 7 -150 10c-109 219 -210 450 -307 675c-35 83 -69 164 -102 244c-33 79 -68 160 -105 241c-3 -384 -23 -764 -60 -1163c-19 -1 -41 -3 -64 -4c-23 -2 -47 -4 -71 -5c-49 -4 -98 -9 -137 -13c104 487 156 957 169 1424l22 19
c63 -8 123 -12 186 -16c7 0 15 0 25 -1s18 -1 25 -1c108 -212 208 -439 304 -656c18 -41 35 -78 50 -113c31 -69 60 -135 92 -203c16 -35 34 -72 53 -113c28 371 74 745 146 1121c13 1 29 2 47 4c17 1 36 3 55 5c19 1 37 3 55 5c17 2 33 4 46 5z" />
    <glyph glyph-name="Ograve" unicode="&#xd2;" 
d="M755 1862l-15 8c-13 0 -28 0 -45 1c-18 1 -36 1 -55 2c-37 1 -75 3 -100 6c9 -10 19 -22 30 -35l70 -86c11 -15 21 -27 30 -38l46 -57c17 -21 32 -40 47 -57c10 0 23 0 39 -1c15 -1 32 -1 49 -2c34 -1 67 -3 88 -4c-32 39 -55 68 -74 95s-32 49 -47 73
c-20 32 -40 64 -63 95zM909 1480c-89 0 -181 -12 -268 -42s-168 -79 -233 -150h1c-87 -91 -139 -205 -170 -323s-40 -240 -40 -347c0 -75 8 -149 26 -220c18 -72 46 -139 90 -196c52 -68 122 -116 202 -147c79 -31 165 -45 252 -45c91 0 185 12 273 41s170 78 238 150
c81 93 134 205 166 322c32 116 44 237 44 348c0 73 -6 148 -24 220c-18 71 -47 137 -91 196c-53 71 -126 118 -207 149s-171 44 -259 44zM897 1305c121 0 235 -48 302 -144v1c57 -93 75 -204 75 -319c0 -56 -4 -132 -23 -203c-20 -72 -54 -140 -117 -180
c-96 -52 -215 -70 -322 -70c-55 0 -110 4 -162 14c-53 10 -105 27 -149 55c-35 21 -56 55 -68 93c-13 38 -17 80 -17 123c0 79 9 166 32 251c23 84 59 165 115 232c41 52 94 88 152 112s121 35 182 35z" />
    <glyph glyph-name="Oacute" unicode="&#xd3;" 
d="M812 1870l-14 -7c-24 -28 -49 -59 -73 -88v1c-21 -27 -43 -53 -67 -81c-25 -29 -54 -61 -90 -98c12 1 37 3 62 4c12 1 24 1 35 2s20 1 27 1c16 0 40 1 57 2c17 16 34 34 53 53c36 38 61 65 81 87c10 11 22 23 35 36c26 26 58 57 102 97c-25 -3 -65 -5 -104 -6
c-19 -1 -38 -1 -57 -2s-34 -1 -47 -1zM909 1480c-89 0 -181 -12 -268 -42s-168 -79 -233 -150h1c-87 -91 -139 -205 -170 -323s-40 -240 -40 -347c0 -75 8 -149 26 -220c18 -72 46 -139 90 -196c52 -68 122 -116 202 -147c79 -31 165 -45 252 -45c91 0 185 12 273 41
s170 78 238 150c81 93 134 205 166 322c32 116 44 237 44 348c0 73 -6 148 -24 220c-18 71 -47 137 -91 196c-53 71 -126 118 -207 149s-171 44 -259 44zM897 1305c121 0 235 -48 302 -144v1c57 -93 75 -204 75 -319c0 -56 -4 -132 -23 -203c-20 -72 -54 -140 -117 -180
c-96 -52 -215 -70 -322 -70c-55 0 -110 4 -162 14c-53 10 -105 27 -149 55c-35 21 -56 55 -68 93c-13 38 -17 80 -17 123c0 79 9 166 32 251c23 84 59 165 115 232c41 52 94 88 152 112s121 35 182 35z" />
    <glyph glyph-name="Ocircumflex" unicode="&#xd4;" 
d="M719 1718h1c-27 -32 -53 -64 -85 -99s-71 -73 -123 -118h18c8 0 17 0 27 1h27h17c24 1 55 2 79 2c60 49 107 98 155 146l16 16c5 -7 9 -12 11 -14s6 -6 12 -13v-1c37 -47 73 -91 120 -134c24 0 57 -1 81 -2h17h26c9 -1 17 -1 26 -1h17c-47 44 -79 82 -106 119
c-28 36 -49 70 -70 105v-1l-30 48h-192zM909 1480c-89 0 -181 -12 -268 -42s-168 -79 -233 -150h1c-87 -91 -139 -205 -170 -323s-40 -240 -40 -347c0 -75 8 -149 26 -220c18 -72 46 -139 90 -196c52 -68 122 -116 202 -147c79 -31 165 -45 252 -45c91 0 185 12 273 41
s170 78 238 150c81 93 134 205 166 322c32 116 44 237 44 348c0 73 -6 148 -24 220c-18 71 -47 137 -91 196c-53 71 -126 118 -207 149s-171 44 -259 44zM897 1305c121 0 235 -48 302 -144v1c57 -93 75 -204 75 -319c0 -56 -4 -132 -23 -203c-20 -72 -54 -140 -117 -180
c-96 -52 -215 -70 -322 -70c-55 0 -110 4 -162 14c-53 10 -105 27 -149 55c-35 21 -56 55 -68 93c-13 38 -17 80 -17 123c0 79 9 166 32 251c23 84 59 165 115 232c41 52 94 88 152 112s121 35 182 35z" />
    <glyph glyph-name="Otilde" unicode="&#xd5;" 
d="M975 1576h1c47 -23 85 -41 149 -41c51 0 87 24 116 58c28 34 48 77 67 117l24 53h-14h-18c-7 -1 -13 -1 -19 -1h-14c-24 0 -50 -1 -75 -2l11 -35c-5 -3 -13 -8 -23 -13c-21 -12 -41 -25 -54 -34c-7 -5 -9 -8 -8 -9c-29 0 -48 9 -67 21c-3 3 -8 6 -12 9l1 -1
c-53 32 -103 61 -170 61h-16c-49 0 -104 -24 -137 -76c-9 -14 -16 -28 -22 -43c-7 -15 -13 -30 -20 -44l-26 -64h17c7 0 14 0 22 1h21c13 0 26 1 37 2c5 1 8 3 8 8l36 -6c5 20 15 43 28 61s29 31 49 31c27 0 51 -17 76 -33zM909 1480c-89 0 -181 -12 -268 -42
s-168 -79 -233 -150h1c-87 -91 -139 -205 -170 -323s-40 -240 -40 -347c0 -75 8 -149 26 -220c18 -72 46 -139 90 -196c52 -68 122 -116 202 -147c79 -31 165 -45 252 -45c91 0 185 12 273 41s170 78 238 150c81 93 134 205 166 322c32 116 44 237 44 348
c0 73 -6 148 -24 220c-18 71 -47 137 -91 196c-53 71 -126 118 -207 149s-171 44 -259 44zM897 1305c121 0 235 -48 302 -144v1c57 -93 75 -204 75 -319c0 -56 -4 -132 -23 -203c-20 -72 -54 -140 -117 -180c-96 -52 -215 -70 -322 -70c-55 0 -110 4 -162 14
c-53 10 -105 27 -149 55c-35 21 -56 55 -68 93c-13 38 -17 80 -17 123c0 79 9 166 32 251c23 84 59 165 115 232c41 52 94 88 152 112s121 35 182 35z" />
    <glyph glyph-name="Odieresis" unicode="&#xd6;" 
d="M1030 1744l-18 -14c-12 -47 -17 -90 -17 -134c0 -15 1 -48 2 -61h39c16 -1 29 -1 39 -1h34c13 -1 26 -1 39 -1c13 -1 25 -1 38 -1c13 -1 24 -1 34 -1c-13 38 -20 67 -20 88c0 35 15 79 40 130c-15 -1 -31 -1 -49 -1c-19 -1 -37 -1 -56 -2c-37 -1 -76 -2 -105 -2z
M655 1748l-20 -25c7 -21 10 -40 10 -63c0 -35 -11 -78 -38 -129c10 0 22 0 35 1c13 0 26 0 40 1c13 0 27 0 40 1h33c9 0 22 0 38 1h37c12 56 19 107 19 158v7c-1 2 -1 5 -1 8v36c-30 1 -62 1 -96 2c-35 0 -67 1 -97 2zM909 1480c-89 0 -181 -12 -268 -42s-168 -79 -233 -150
h1c-87 -91 -139 -205 -170 -323s-40 -240 -40 -347c0 -75 8 -149 26 -220c18 -72 46 -139 90 -196c52 -68 122 -116 202 -147c79 -31 165 -45 252 -45c91 0 185 12 273 41s170 78 238 150c81 93 134 205 166 322c32 116 44 237 44 348c0 73 -6 148 -24 220
c-18 71 -47 137 -91 196c-53 71 -126 118 -207 149s-171 44 -259 44zM897 1305c121 0 235 -48 302 -144v1c57 -93 75 -204 75 -319c0 -56 -4 -132 -23 -203c-20 -72 -54 -140 -117 -180c-96 -52 -215 -70 -322 -70c-55 0 -110 4 -162 14c-53 10 -105 27 -149 55
c-35 21 -56 55 -68 93c-13 38 -17 80 -17 123c0 79 9 166 32 251c23 84 59 165 115 232c41 52 94 88 152 112s121 35 182 35z" />
    <glyph glyph-name="multiply" unicode="&#xd7;" horiz-adv-x="1424" 
d="M893 661l402 378c-7 8 -14 17 -21 27c-8 9 -16 19 -24 29c-17 19 -34 38 -47 54h1l-53 63c-136 -120 -282 -251 -415 -376c-37 43 -73 84 -108 121s-72 77 -111 119l-98 106l-56 -55l-58 -57c-22 -21 -41 -41 -58 -58c64 -75 140 -162 204 -235l51 -57
c17 -19 34 -38 50 -57c-64 -60 -117 -109 -182 -169c-65 -61 -143 -135 -207 -196l14 -16l15 -18c5 -7 11 -13 16 -19l13 -17c24 -29 61 -74 85 -102c135 117 271 242 402 363c112 -124 224 -245 341 -362c12 11 26 25 43 42c16 17 30 31 43 43c11 13 25 27 42 44
c17 16 31 30 43 42c-105 115 -223 246 -327 363z" />
    <glyph glyph-name="Oslash" unicode="&#xd8;" 
d="M1542 1392c-21 -21 -40 -40 -56 -57l-86 -90c67 -116 90 -252 90 -389c0 -108 -13 -227 -46 -341s-86 -223 -166 -314c-67 -72 -148 -119 -235 -149c-88 -30 -182 -42 -271 -42c-144 0 -288 39 -397 128c-13 -13 -27 -27 -40 -41c-27 -29 -53 -57 -93 -98
c-20 -21 -38 -39 -53 -55l-22 22c-9 8 -17 17 -26 26l-27 27c-9 8 -16 15 -21 21c31 35 75 81 107 114l85 89c-65 116 -88 249 -88 382c0 105 11 226 43 343c32 116 84 230 167 319c65 69 146 117 233 148s180 44 268 44c73 0 147 -9 216 -30c68 -21 131 -53 186 -100
c61 64 129 134 189 194l29 -26c11 -12 21 -21 28 -28c2 -3 6 -7 13 -13c7 -7 16 -15 29 -26c-17 -17 -35 -37 -56 -58zM389 730c0 -96 40 -186 96 -262l294 315c125 135 260 279 388 415c-27 44 -62 85 -109 106c-57 24 -134 38 -201 38c-60 0 -120 -12 -175 -36
c-56 -25 -107 -61 -147 -109c-52 -64 -89 -143 -112 -224c-24 -81 -34 -167 -34 -243zM1277 825c2 21 3 41 3 62c0 68 -15 126 -39 186l-284 -307c-60 -65 -123 -132 -188 -203s-129 -140 -192 -205c27 -17 58 -31 93 -34c47 -3 97 -3 144 -3c51 8 107 19 160 39
c52 19 103 46 143 83v-1c47 48 79 107 103 169s40 126 55 189c0 3 0 8 1 13s1 9 1 12z" />
    <glyph glyph-name="Ugrave" unicode="&#xd9;" horiz-adv-x="1523" 
d="M715 1862l-15 8c-13 0 -28 0 -45 1c-18 1 -36 1 -55 2c-37 1 -75 3 -100 6c9 -10 19 -22 30 -35l70 -86c11 -15 21 -27 30 -38l46 -57c17 -21 32 -40 47 -57c10 0 23 0 39 -1c15 -1 32 -1 49 -2c34 -1 67 -3 88 -4c-32 39 -55 68 -74 95s-32 49 -47 73
c-20 32 -40 64 -63 95zM343 1464v-69c0 -276 -17 -548 -45 -827c-4 -41 -7 -83 -7 -127c0 -55 5 -109 20 -161c15 -53 38 -103 77 -147c49 -52 113 -83 182 -101s143 -23 215 -23s149 6 223 26s144 55 207 115c53 57 89 125 111 197c22 71 32 146 37 217
c23 300 55 601 118 921l-76 -7c-43 -5 -101 -10 -144 -13c-10 -58 -19 -118 -27 -180c-17 -124 -33 -251 -45 -375c-7 -63 -13 -123 -19 -182c-5 -55 -13 -113 -29 -169s-40 -109 -73 -153c-32 -36 -74 -58 -120 -72s-96 -19 -141 -19s-94 4 -138 17s-82 36 -107 72h1
c-41 61 -51 136 -51 215c0 33 2 69 5 104c20 243 36 499 41 740c-60 4 -133 12 -193 20z" />
    <glyph glyph-name="Uacute" unicode="&#xda;" horiz-adv-x="1523" 
d="M1123 2323l-14 -6c-47 -53 -91 -106 -136 -162c-31 -37 -69 -83 -108 -128c-40 -45 -80 -90 -113 -125l45 3c17 1 35 2 54 3c37 2 75 3 99 3c60 57 125 126 181 187l54 57c20 21 41 42 62 64c43 43 85 84 120 116c-32 -3 -77 -5 -122 -7l-66 -3c-21 -1 -40 -2 -56 -2z
M343 1464v-69c0 -276 -17 -548 -45 -827c-4 -41 -7 -83 -7 -127c0 -55 5 -109 20 -161c15 -53 38 -103 77 -147c49 -52 113 -83 182 -101s143 -23 215 -23s149 6 223 26s144 55 207 115c53 57 89 125 111 197c22 71 32 146 37 217c23 300 55 601 118 921l-76 -7
c-43 -5 -101 -10 -144 -13c-10 -58 -19 -118 -27 -180c-17 -124 -33 -251 -45 -375c-7 -63 -13 -123 -19 -182c-5 -55 -13 -113 -29 -169s-40 -109 -73 -153c-32 -36 -74 -58 -120 -72s-96 -19 -141 -19s-94 4 -138 17s-82 36 -107 72h1c-41 61 -51 136 -51 215
c0 33 2 69 5 104c20 243 36 499 41 740c-60 4 -133 12 -193 20z" />
    <glyph glyph-name="Ucircumflex" unicode="&#xdb;" horiz-adv-x="1523" 
d="M679 1718h1c-27 -32 -53 -64 -85 -99s-71 -73 -123 -118h18c8 0 17 0 27 1h27h17c24 1 55 2 79 2c60 49 107 98 155 146l16 16c5 -7 9 -12 11 -14s6 -6 12 -13v-1c37 -47 73 -91 120 -134c24 0 57 -1 81 -2h17h26c9 -1 17 -1 26 -1h17c-47 44 -79 82 -106 119
c-28 36 -49 70 -70 105v-1l-30 48h-192zM343 1464v-69c0 -276 -17 -548 -45 -827c-4 -41 -7 -83 -7 -127c0 -55 5 -109 20 -161c15 -53 38 -103 77 -147c49 -52 113 -83 182 -101s143 -23 215 -23s149 6 223 26s144 55 207 115c53 57 89 125 111 197c22 71 32 146 37 217
c23 300 55 601 118 921l-76 -7c-43 -5 -101 -10 -144 -13c-10 -58 -19 -118 -27 -180c-17 -124 -33 -251 -45 -375c-7 -63 -13 -123 -19 -182c-5 -55 -13 -113 -29 -169s-40 -109 -73 -153c-32 -36 -74 -58 -120 -72s-96 -19 -141 -19s-94 4 -138 17s-82 36 -107 72h1
c-41 61 -51 136 -51 215c0 33 2 69 5 104c20 243 36 499 41 740c-60 4 -133 12 -193 20z" />
    <glyph glyph-name="Udieresis" unicode="&#xdc;" horiz-adv-x="1523" 
d="M990 1744l-18 -14c-12 -47 -17 -90 -17 -134c0 -15 1 -48 2 -61h39c16 -1 29 -1 39 -1h34c13 -1 26 -1 39 -1c13 -1 25 -1 38 -1c13 -1 24 -1 34 -1c-13 38 -20 67 -20 88c0 35 15 79 40 130c-15 -1 -31 -1 -49 -1c-19 -1 -37 -1 -56 -2c-37 -1 -76 -2 -105 -2zM615 1748
l-20 -25c7 -21 10 -40 10 -63c0 -35 -11 -78 -38 -129c10 0 22 0 35 1c13 0 26 0 40 1c13 0 27 0 40 1h33c9 0 22 0 38 1h37c12 56 19 107 19 158v7c-1 2 -1 5 -1 8v36c-30 1 -62 1 -96 2c-35 0 -67 1 -97 2zM343 1464v-69c0 -276 -17 -548 -45 -827c-4 -41 -7 -83 -7 -127
c0 -55 5 -109 20 -161c15 -53 38 -103 77 -147c49 -52 113 -83 182 -101s143 -23 215 -23s149 6 223 26s144 55 207 115c53 57 89 125 111 197c22 71 32 146 37 217c23 300 55 601 118 921l-76 -7c-43 -5 -101 -10 -144 -13c-10 -58 -19 -118 -27 -180
c-17 -124 -33 -251 -45 -375c-7 -63 -13 -123 -19 -182c-5 -55 -13 -113 -29 -169s-40 -109 -73 -153c-32 -36 -74 -58 -120 -72s-96 -19 -141 -19s-94 4 -138 17s-82 36 -107 72h1c-41 61 -51 136 -51 215c0 33 2 69 5 104c20 243 36 499 41 740c-60 4 -133 12 -193 20z
" />
    <glyph glyph-name="Yacute" unicode="&#xdd;" horiz-adv-x="1544" 
d="M976 1770l-14 -7c-24 -28 -49 -59 -73 -88v1c-21 -27 -43 -53 -67 -81c-25 -29 -54 -61 -90 -98c12 1 37 3 62 4c12 1 24 1 35 2s20 1 27 1c16 0 40 1 57 2c17 16 34 34 53 53c36 38 61 65 81 87c10 11 22 23 35 36c26 26 58 57 102 97c-25 -3 -65 -5 -104 -6
c-19 -1 -38 -1 -57 -2s-34 -1 -47 -1zM361 1484l-19 -28c145 -307 267 -619 391 -932c-7 -79 -15 -161 -24 -244s-17 -165 -25 -244h22c8 0 16 0 25 1h25h21h70c35 0 89 -1 124 -2c9 157 19 330 34 489c14 25 28 50 43 75l44 75c76 132 159 272 243 411s170 275 257 402
l-79 -7c-51 -5 -108 -9 -159 -12c-160 -232 -312 -477 -460 -717c-55 124 -107 243 -162 360s-112 234 -173 354c-63 5 -134 11 -198 19z" />
    <glyph glyph-name="Thorn" unicode="&#xde;" horiz-adv-x="1320" 
d="M1190 999c19 -49 26 -101 26 -152c0 -63 -8 -134 -30 -202s-57 -133 -112 -181c-56 -47 -118 -74 -182 -90s-129 -20 -190 -20c-81 0 -145 -1 -228 -4c-5 -51 -12 -106 -19 -162c-4 -28 -8 -56 -11 -83c-4 -27 -7 -53 -10 -77l-76 -6l-34 -3c-13 -1 -25 -3 -38 -4
c-26 -3 -53 -6 -73 -9c84 500 126 982 131 1459l22 19c60 -9 118 -17 193 -20c-1 -29 -3 -60 -4 -95c-2 -35 -4 -66 -5 -94c-1 -12 -1 -22 -2 -31s-1 -20 -1 -33c76 -4 150 -5 227 -5c56 -1 112 -4 167 -15s106 -29 153 -61c47 -37 77 -83 96 -131zM981 699
c14 40 18 82 18 121c0 83 -32 135 -78 167s-106 43 -159 43c-76 0 -150 0 -226 4l-9 -127c-6 -84 -14 -167 -21 -250c-4 -42 -8 -85 -13 -129c37 1 75 2 112 2h110c65 0 137 13 189 57c39 32 63 71 77 112z" />
    <glyph glyph-name="germandbls" unicode="&#xdf;" horiz-adv-x="1360" 
d="M276 1112v1c-39 -360 -91 -727 -176 -1106c21 2 44 4 69 7s50 5 77 7c52 4 104 7 145 10c31 353 50 719 58 1071v-4c13 79 34 159 91 218v-1c51 48 120 60 187 60c55 0 114 -7 161 -30c52 -45 79 -115 102 -184c-44 -9 -89 -19 -132 -35c-43 -17 -84 -41 -117 -78
c-56 -68 -78 -153 -78 -233c0 -48 13 -90 33 -129c19 -40 45 -77 70 -114c23 -15 47 -33 70 -52c29 -20 62 -42 87 -69c25 -28 42 -60 42 -99c0 -45 -31 -71 -71 -86c-40 -16 -90 -19 -127 -19c-92 0 -187 21 -286 57l-15 -130c-4 -35 -9 -86 -12 -121
c92 -25 183 -41 271 -44c47 0 94 1 143 9c48 8 98 23 150 50c53 29 89 75 110 126s29 108 29 161c0 81 -28 143 -70 195c-42 51 -97 91 -149 130c-5 3 -10 7 -15 12c-5 4 -10 7 -15 10v-1c-25 17 -53 37 -75 61s-38 53 -38 86c0 73 46 126 109 160s140 52 203 57
c3 29 5 56 5 87c0 87 -19 174 -82 255c-39 36 -84 59 -132 74c-49 15 -101 20 -153 20c-59 0 -119 -4 -178 -17s-115 -37 -164 -77c-44 -36 -75 -83 -95 -135s-29 -108 -32 -160z" />
    <glyph glyph-name="agrave" unicode="&#xe0;" horiz-adv-x="1276" 
d="M624 2040l-16 7c-28 0 -66 2 -103 4s-74 3 -102 6c32 -53 55 -98 75 -138c19 -40 35 -77 51 -114c9 -19 19 -41 29 -64s20 -45 29 -64h44c17 0 37 0 59 -1c21 -1 43 -1 66 -2l67 -3c22 -1 42 -2 59 -3c-37 45 -69 86 -94 123c-51 75 -87 132 -117 180
c-15 23 -31 46 -47 69zM1162 1130c-9 -3 -32 1 -39 0c-7 -2 -54 0 -56 0h-110c-8 -49 -9 -75 -20 -165c-59 94 -170 155 -290 155h-28c-56 0 -115 -14 -168 -39s-103 -62 -140 -110l1 1c-63 -75 -103 -164 -127 -256c-24 -93 -33 -188 -33 -269c0 -105 19 -206 76 -294
c63 -95 172 -144 289 -144h10c1 0 3 0 5 1h4h15c61 0 122 15 178 41s107 65 147 113c12 -70 7 -99 -3 -136l63 -5c39 -3 116 -9 153 -14c-78 373 -22 606 73 1121zM597 976h24c47 0 89 -16 122 -45s58 -71 69 -122s16 -103 16 -155c0 -36 -1 -88 -13 -139s-33 -89 -73 -118
l1 1c-60 -39 -133 -43 -201 -46c-33 0 -68 2 -100 9s-61 20 -84 43c-23 24 -38 42 -46 74c-9 32 -8 67 -9 100c7 57 14 120 37 180c23 59 54 113 96 153s94 65 161 65z" />
    <glyph glyph-name="aacute" unicode="&#xe1;" horiz-adv-x="1276" 
d="M890 1976l-14 -6c-47 -53 -91 -106 -136 -162c-31 -37 -69 -83 -108 -128c-40 -45 -80 -90 -113 -125l45 3c17 1 35 2 54 3c37 2 75 3 99 3c60 57 125 126 181 187l54 57c20 21 41 42 62 64c43 43 85 84 120 116c-32 -3 -77 -5 -122 -7l-66 -3c-21 -1 -40 -2 -56 -2z
M1162 1130c-9 -3 -32 1 -39 0c-7 -2 -54 0 -56 0h-110c-8 -49 -9 -75 -20 -165c-59 94 -170 155 -290 155h-28c-56 0 -115 -14 -168 -39s-103 -62 -140 -110l1 1c-63 -75 -103 -164 -127 -256c-24 -93 -33 -188 -33 -269c0 -105 19 -206 76 -294c63 -95 172 -144 289 -144
h10c1 0 3 0 5 1h4h15c61 0 122 15 178 41s107 65 147 113c12 -70 7 -99 -3 -136l63 -5c39 -3 116 -9 153 -14c-78 373 -22 606 73 1121zM597 976h24c47 0 89 -16 122 -45s58 -71 69 -122s16 -103 16 -155c0 -36 -1 -88 -13 -139s-33 -89 -73 -118l1 1
c-60 -39 -133 -43 -201 -46c-33 0 -68 2 -100 9s-61 20 -84 43c-23 24 -38 42 -46 74c-9 32 -8 67 -9 100c7 57 14 120 37 180c23 59 54 113 96 153s94 65 161 65z" />
    <glyph glyph-name="acircumflex" unicode="&#xe2;" horiz-adv-x="1380" 
d="M745 1617h-157c-13 -18 -27 -37 -41 -58l-42 -58c-27 -39 -53 -77 -86 -120s-72 -89 -123 -142l102 2l65 2c65 68 114 129 165 190h-1l27 34l17 -28c41 -65 83 -131 135 -196l65 -2l99 -2c-44 56 -79 108 -108 157s-54 96 -78 144zM1162 1130c-9 -3 -32 1 -39 0
c-7 -2 -54 0 -56 0h-110c-8 -49 -9 -75 -20 -165c-59 94 -170 155 -290 155h-28c-56 0 -115 -14 -168 -39s-103 -62 -140 -110l1 1c-63 -75 -103 -164 -127 -256c-24 -93 -33 -188 -33 -269c0 -105 19 -206 76 -294c63 -95 172 -144 289 -144h10c1 0 3 0 5 1h4h15
c61 0 122 15 178 41s107 65 147 113c12 -70 7 -99 -3 -136l63 -5c39 -3 116 -9 153 -14c-78 373 -22 606 73 1121zM597 976h24c47 0 89 -16 122 -45s58 -71 69 -122s16 -103 16 -155c0 -36 -1 -88 -13 -139s-33 -89 -73 -118l1 1c-60 -39 -133 -43 -201 -46
c-33 0 -68 2 -100 9s-61 20 -84 43c-23 24 -38 42 -46 74c-9 32 -8 67 -9 100c7 57 14 120 37 180c23 59 54 113 96 153s94 65 161 65z" />
    <glyph glyph-name="atilde" unicode="&#xe3;" horiz-adv-x="1276" 
d="M661 1743l46 -51c39 -40 89 -62 148 -62c53 0 88 22 115 57s45 80 64 128v-1c5 13 14 34 23 54l12 29c4 9 8 17 11 23h-13h-19c-7 -1 -14 -1 -20 -1h-14h-40c-15 -1 -29 -1 -40 -1c-7 -17 -12 -29 -14 -35c-3 -7 -6 -14 -9 -23c-15 -39 -33 -81 -69 -90
c-20 3 -36 17 -51 33l-49 52c-39 39 -90 62 -147 62c-56 0 -113 -38 -144 -102c-11 -23 -23 -53 -32 -78c-2 -5 -3 -7 -2 -7s2 0 3 1c1 0 1 -1 1 -2c-1 -1 -2 -5 -5 -12s-8 -18 -15 -32l-30 -59h17h24c8 0 16 0 24 1h19c17 0 45 2 62 3c12 27 17 40 22 55v-1
c7 20 15 40 27 57c11 17 24 31 41 35c20 -3 38 -17 54 -33zM1162 1130c-9 -3 -32 1 -39 0c-7 -2 -54 0 -56 0h-110c-8 -49 -9 -75 -20 -165c-59 94 -170 155 -290 155h-28c-56 0 -115 -14 -168 -39s-103 -62 -140 -110l1 1c-63 -75 -103 -164 -127 -256
c-24 -93 -33 -188 -33 -269c0 -105 19 -206 76 -294c63 -95 172 -144 289 -144h10c1 0 3 0 5 1h4h15c61 0 122 15 178 41s107 65 147 113c12 -70 7 -99 -3 -136l63 -5c39 -3 116 -9 153 -14c-78 373 -22 606 73 1121zM597 976h24c47 0 89 -16 122 -45s58 -71 69 -122
s16 -103 16 -155c0 -36 -1 -88 -13 -139s-33 -89 -73 -118l1 1c-60 -39 -133 -43 -201 -46c-33 0 -68 2 -100 9s-61 20 -84 43c-23 24 -38 42 -46 74c-9 32 -8 67 -9 100c7 57 14 120 37 180c23 59 54 113 96 153s94 65 161 65z" />
    <glyph glyph-name="adieresis" unicode="&#xe4;" horiz-adv-x="1276" 
d="M353 1556l-19 -25c6 -22 9 -45 9 -68c0 -37 -11 -84 -42 -140c17 1 36 1 57 2c21 0 43 0 66 1c44 1 89 2 121 2c12 58 18 114 18 167c0 12 -1 45 -2 57c-32 1 -67 1 -104 2c-37 0 -72 1 -104 2zM759 1552l-17 -15c-12 -49 -19 -98 -19 -145c0 -16 0 -34 4 -63
c32 -1 82 -3 114 -3l124 -2c-15 39 -22 70 -22 93c0 37 16 86 43 139l-130 -2c-32 0 -65 -1 -97 -2zM1162 1130c-9 -3 -32 1 -39 0c-7 -2 -54 0 -56 0h-110c-8 -49 -9 -75 -20 -165c-59 94 -170 155 -290 155h-28c-56 0 -115 -14 -168 -39s-103 -62 -140 -110l1 1
c-63 -75 -103 -164 -127 -256c-24 -93 -33 -188 -33 -269c0 -105 19 -206 76 -294c63 -95 172 -144 289 -144h10c1 0 3 0 5 1h4h15c61 0 122 15 178 41s107 65 147 113c12 -70 7 -99 -3 -136l63 -5c39 -3 116 -9 153 -14c-78 373 -22 606 73 1121zM597 976h24
c47 0 89 -16 122 -45s58 -71 69 -122s16 -103 16 -155c0 -36 -1 -88 -13 -139s-33 -89 -73 -118l1 1c-60 -39 -133 -43 -201 -46c-33 0 -68 2 -100 9s-61 20 -84 43c-23 24 -38 42 -46 74c-9 32 -8 67 -9 100c7 57 14 120 37 180c23 59 54 113 96 153s94 65 161 65z" />
    <glyph glyph-name="aring" unicode="&#xe5;" horiz-adv-x="1276" 
d="M904 1503c0 5 0 10 1 15v17c0 71 -25 130 -68 171c-43 40 -101 64 -168 64c-89 0 -160 -34 -210 -88s-78 -130 -78 -210c0 -72 25 -131 66 -172s101 -64 170 -64c80 0 148 27 198 75c50 47 82 113 89 192zM771 1511v-6c-7 -36 -23 -70 -47 -94c-25 -25 -58 -40 -95 -40
c-67 0 -115 44 -115 113c0 43 15 80 40 107s61 43 102 43c68 -3 116 -47 116 -115v-4c-1 -1 -1 -3 -1 -4zM1162 1130c-9 -3 -32 1 -39 0c-7 -2 -54 0 -56 0h-110c-8 -49 -9 -75 -20 -165c-59 94 -170 155 -290 155h-28c-56 0 -115 -14 -168 -39s-103 -62 -140 -110l1 1
c-63 -75 -103 -164 -127 -256c-24 -93 -33 -188 -33 -269c0 -105 19 -206 76 -294c63 -95 172 -144 289 -144h10c1 0 3 0 5 1h4h15c61 0 122 15 178 41s107 65 147 113c12 -70 7 -99 -3 -136l63 -5c39 -3 116 -9 153 -14c-78 373 -22 606 73 1121zM597 976h24
c47 0 89 -16 122 -45s58 -71 69 -122s16 -103 16 -155c0 -36 -1 -88 -13 -139s-33 -89 -73 -118l1 1c-60 -39 -133 -43 -201 -46c-33 0 -68 2 -100 9s-61 20 -84 43c-23 24 -38 42 -46 74c-9 32 -8 67 -9 100c7 57 14 120 37 180c23 59 54 113 96 153s94 65 161 65z" />
    <glyph glyph-name="ae" unicode="&#xe6;" horiz-adv-x="2008" 
d="M1748 983l-1 1c51 -73 73 -162 73 -253c0 -33 -3 -66 -7 -97l-3 -34c-1 -15 -2 -26 -3 -34c-256 -1 -509 -2 -765 -2c5 -75 35 -145 82 -197c33 -33 76 -56 122 -71c46 -16 96 -22 144 -22c113 0 238 34 363 101v-13v-19c-1 -7 -1 -13 -1 -19v-12v-30
c0 -53 2 -113 9 -185l-58 -21c-52 -20 -105 -39 -157 -54c-53 -15 -108 -24 -165 -24c-93 0 -187 15 -270 50s-155 89 -204 168c-55 -72 -123 -127 -201 -164s-165 -56 -250 -56c-44 0 -93 4 -138 17c-45 12 -86 33 -118 66c-41 47 -57 113 -57 176c0 29 2 57 6 83v-1
c11 59 23 121 45 180s53 113 105 156c52 37 111 60 172 73c61 12 123 15 183 15h62c20 -1 40 -1 61 -1h104c0 1 0 3 1 4v4c0 52 -35 98 -67 139l1 -1c-55 61 -138 83 -222 83c-105 0 -219 -24 -332 -83c0 9 0 20 -1 33s-1 26 -2 41c-1 14 -1 28 -2 41s-1 23 -1 32
c117 41 236 65 349 65c75 0 155 -9 227 -35c71 -26 134 -70 175 -135c59 61 130 104 207 132c77 27 158 39 237 39c57 0 116 -9 168 -31s98 -56 129 -105zM1062 716h58c173 0 342 1 515 4c1 5 1 9 1 13v11c0 65 -18 130 -53 178c-36 48 -87 80 -154 80
c-92 0 -184 -27 -255 -99c-53 -53 -93 -114 -112 -187zM869 607h-174c-87 -3 -175 -3 -259 -38l1 1c-35 -16 -58 -49 -73 -85c-16 -37 -23 -78 -23 -110c0 -40 22 -70 54 -90c31 -21 72 -31 111 -31c91 0 183 18 255 82c36 32 61 72 77 116s25 92 29 137z" />
    <glyph glyph-name="ccedilla" unicode="&#xe7;" horiz-adv-x="1214" 
d="M1020 1049l26 4c-4 -19 -7 -37 -10 -54s-7 -35 -10 -54v1l-8 -60c-93 47 -190 72 -279 72c-48 0 -99 -7 -146 -24c-48 -17 -92 -44 -125 -84c-35 -39 -58 -88 -74 -140c-17 -52 -27 -106 -32 -155c0 -35 5 -69 15 -100s26 -59 51 -79h-1c64 -43 147 -52 230 -59h-1
l146 -3h12c39 0 92 14 148 41c-1 -27 -3 -59 -4 -93s-2 -69 -2 -94c0 -35 1 -79 2 -114c-96 -36 -189 -51 -278 -53c9 -25 14 -53 14 -81s-6 -60 -20 -89s-35 -54 -64 -69c-60 -27 -124 -30 -173 -30c-51 0 -107 6 -167 18c7 28 14 74 18 103l7 47c51 -27 94 -33 133 -33h14
c3 -1 6 -1 10 -1c24 0 49 9 67 23s30 35 30 60c0 19 -4 39 -12 59c-35 5 -70 12 -103 22c-72 22 -137 59 -185 119l1 -1c-37 44 -60 95 -75 150s-20 112 -20 171c0 77 9 171 34 260c24 89 66 175 133 240c60 56 135 92 212 115c76 23 156 32 231 32c95 0 186 -16 272 -48z
" />
    <glyph glyph-name="egrave" unicode="&#xe8;" horiz-adv-x="1310" 
d="M509 1375c-16 37 -32 74 -51 114c-20 40 -43 85 -75 138c28 -3 65 -4 102 -6s75 -4 103 -4l16 -7c16 -23 32 -46 47 -69c30 -48 66 -105 117 -180c25 -37 57 -78 94 -123l-59 3c-22 1 -44 2 -67 3s-45 1 -66 2c-22 1 -42 1 -59 1h-44c-9 19 -19 41 -29 64s-20 45 -29 64z
M1115 670l-32 13l33 -14c-1 -7 -1 -13 -1 -18c-1 -6 -1 -12 -2 -17v1l-5 -40c-161 -3 -336 -3 -497 -3c-23 0 -46 0 -69 1h-70h-120v-5c-1 -19 -2 -34 -2 -51c0 -39 4 -77 14 -111s27 -65 56 -86v1c81 -51 188 -65 284 -65h18c52 0 105 0 161 8c55 7 112 22 173 51v-32
c-1 -25 -2 -52 -2 -76v-33c0 -37 0 -87 3 -124c-139 -47 -276 -67 -409 -67c-68 5 -143 17 -211 41c-69 23 -135 58 -184 106c-37 43 -62 95 -78 151c-16 55 -23 114 -23 171c0 77 11 168 38 256s69 173 129 238c52 53 116 90 185 114c68 23 141 33 209 34
c56 -3 115 -10 170 -26s107 -41 148 -82c36 -40 57 -86 70 -136c12 -50 15 -104 15 -156v-10c-1 -4 -1 -8 -1 -12v-22zM479 760h96c128 0 256 1 383 3c-7 67 -33 127 -77 171c-44 43 -103 69 -175 69c-83 0 -169 -22 -232 -82c-49 -43 -82 -100 -91 -160c33 -1 65 -2 96 -1z
" />
    <glyph glyph-name="eacute" unicode="&#xe9;" horiz-adv-x="1310" 
d="M664 1561l-54 -3c-18 -1 -33 -2 -45 -3c33 35 73 80 113 125c39 45 77 91 108 128c45 56 89 109 136 162l14 6c16 0 35 1 56 2l66 3c45 2 90 4 122 7c-35 -32 -77 -73 -120 -116l-62 -64c-20 -21 -38 -40 -54 -57c-56 -61 -121 -130 -181 -187c-24 0 -62 -1 -99 -3z
M1031 1006c36 -40 57 -86 70 -136c12 -50 15 -104 15 -156v-10c-1 -4 -1 -8 -1 -12v-22l-32 13l33 -14c-1 -7 -1 -13 -1 -18c-1 -6 -1 -12 -2 -17v1l-5 -40c-161 -3 -336 -3 -497 -3c-23 0 -46 0 -69 1h-70h-120v-5c-1 -19 -2 -34 -2 -51c0 -39 4 -77 14 -111s27 -65 56 -86
v1c81 -51 188 -65 284 -65h18c52 0 105 0 161 8c55 7 112 22 173 51v-32c-1 -25 -2 -52 -2 -76v-33c0 -37 0 -87 3 -124c-139 -47 -276 -67 -409 -67c-68 5 -143 17 -211 41c-69 23 -135 58 -184 106c-37 43 -62 95 -78 151c-16 55 -23 114 -23 171c0 77 11 168 38 256
s69 173 129 238c52 53 116 90 185 114c68 23 141 33 209 34c56 -3 115 -10 170 -26s107 -41 148 -82zM479 760h96c128 0 256 1 383 3c-7 67 -33 127 -77 171c-44 43 -103 69 -175 69c-83 0 -169 -22 -232 -82c-49 -43 -82 -100 -91 -160c33 -1 65 -2 96 -1z" />
    <glyph glyph-name="ecircumflex" unicode="&#xea;" horiz-adv-x="1310" 
d="M381 1142l-102 -2c51 53 90 99 123 142s59 81 86 120l42 58c14 21 28 40 41 58h157l39 -77c24 -48 49 -95 78 -144s64 -101 108 -157l-99 2l-65 2c-52 65 -94 131 -135 196l-17 28l-27 -34h1c-51 -61 -100 -122 -165 -190zM1115 670l-32 13l33 -14c-1 -7 -1 -13 -1 -18
c-1 -6 -1 -12 -2 -17v1l-5 -40c-161 -3 -336 -3 -497 -3c-23 0 -46 0 -69 1h-70h-120v-5c-1 -19 -2 -34 -2 -51c0 -39 4 -77 14 -111s27 -65 56 -86v1c81 -51 188 -65 284 -65h18c52 0 105 0 161 8c55 7 112 22 173 51v-32c-1 -25 -2 -52 -2 -76v-33c0 -37 0 -87 3 -124
c-139 -47 -276 -67 -409 -67c-68 5 -143 17 -211 41c-69 23 -135 58 -184 106c-37 43 -62 95 -78 151c-16 55 -23 114 -23 171c0 77 11 168 38 256s69 173 129 238c52 53 116 90 185 114c68 23 141 33 209 34c56 -3 115 -10 170 -26s107 -41 148 -82c36 -40 57 -86 70 -136
c12 -50 15 -104 15 -156v-10c-1 -4 -1 -8 -1 -12v-22zM479 760h96c128 0 256 1 383 3c-7 67 -33 127 -77 171c-44 43 -103 69 -175 69c-83 0 -169 -22 -232 -82c-49 -43 -82 -100 -91 -160c33 -1 65 -2 96 -1z" />
    <glyph glyph-name="edieresis" unicode="&#xeb;" horiz-adv-x="1310" 
d="M439 1226c-21 -1 -40 -1 -57 -2c31 56 42 103 42 140c0 23 -3 46 -9 68l19 25c32 -1 67 -2 104 -2c37 -1 72 -1 104 -2c1 -12 2 -45 2 -57c0 -53 -6 -109 -18 -167c-32 0 -77 -1 -121 -2c-23 -1 -45 -1 -66 -1zM1046 1225l-124 2c-32 0 -82 2 -114 3c-4 29 -4 47 -4 63
c0 47 7 96 19 145l17 15c32 1 65 2 97 2l130 2c-27 -53 -43 -102 -43 -139c0 -23 7 -54 22 -93zM1115 670l-32 13l33 -14c-1 -7 -1 -13 -1 -18c-1 -6 -1 -12 -2 -17v1l-5 -40c-161 -3 -336 -3 -497 -3c-23 0 -46 0 -69 1h-70h-120v-5c-1 -19 -2 -34 -2 -51
c0 -39 4 -77 14 -111s27 -65 56 -86v1c81 -51 188 -65 284 -65h18c52 0 105 0 161 8c55 7 112 22 173 51v-32c-1 -25 -2 -52 -2 -76v-33c0 -37 0 -87 3 -124c-139 -47 -276 -67 -409 -67c-68 5 -143 17 -211 41c-69 23 -135 58 -184 106c-37 43 -62 95 -78 151
c-16 55 -23 114 -23 171c0 77 11 168 38 256s69 173 129 238c52 53 116 90 185 114c68 23 141 33 209 34c56 -3 115 -10 170 -26s107 -41 148 -82c36 -40 57 -86 70 -136c12 -50 15 -104 15 -156v-10c-1 -4 -1 -8 -1 -12v-22zM479 760h96c128 0 256 1 383 3
c-7 67 -33 127 -77 171c-44 43 -103 69 -175 69c-83 0 -169 -22 -232 -82c-49 -43 -82 -100 -91 -160c33 -1 65 -2 96 -1z" />
    <glyph glyph-name="igrave" unicode="&#xec;" horiz-adv-x="1177" 
d="M599 1610l-16 7c-28 0 -66 2 -103 4s-74 3 -102 6c32 -53 55 -98 75 -138c19 -40 35 -77 51 -114c9 -19 19 -41 29 -64s20 -45 29 -64h44c17 0 37 0 59 -1c21 -1 43 -1 66 -2l67 -3c22 -1 42 -2 59 -3c-37 45 -69 86 -94 123c-51 75 -87 132 -117 180
c-15 23 -31 46 -47 69zM837 1107l-30 -15c-24 -357 -59 -741 -98 -1097c45 23 81 35 107 35c25 0 55 -11 92 -34c12 177 28 371 45 565s36 387 55 564c-45 -25 -80 -37 -107 -37c-24 0 -45 6 -64 19z" />
    <glyph glyph-name="iacute" unicode="&#xed;" horiz-adv-x="677" 
d="M657 1783l-14 -6c-47 -53 -91 -106 -136 -162c-31 -37 -69 -83 -108 -128c-40 -45 -80 -90 -113 -125l45 3c17 1 35 2 54 3c37 2 75 3 99 3c60 57 125 126 181 187l54 57c20 21 41 42 62 64c43 43 85 84 120 116c-32 -3 -77 -5 -122 -7l-66 -3c-21 -1 -40 -2 -56 -2z
M294 1107l-30 -15c-24 -357 -59 -741 -98 -1097c45 23 81 35 107 35c25 0 55 -11 92 -34c12 177 28 371 45 565s36 387 55 564c-45 -25 -80 -37 -107 -37c-24 0 -45 6 -64 19z" />
    <glyph glyph-name="icircumflex" unicode="&#xee;" horiz-adv-x="1099" 
d="M745 1617h-157c-13 -18 -27 -37 -41 -58l-42 -58c-27 -39 -53 -77 -86 -120s-72 -89 -123 -142l102 2l65 2c65 68 114 129 165 190h-1l27 34l17 -28c41 -65 83 -131 135 -196l65 -2l99 -2c-44 56 -79 108 -108 157s-54 96 -78 144zM759 1107l-30 -15
c-24 -357 -59 -741 -98 -1097c45 23 81 35 107 35c25 0 55 -11 92 -34c12 177 28 371 45 565s36 387 55 564c-45 -25 -80 -37 -107 -37c-24 0 -45 6 -64 19z" />
    <glyph glyph-name="idieresis" unicode="&#xef;" horiz-adv-x="975" 
d="M371 1527l-19 -25c6 -22 9 -45 9 -68c0 -37 -11 -84 -42 -140c17 1 36 1 57 2c21 0 43 0 66 1c44 1 89 2 121 2c12 58 18 114 18 167c0 12 -1 45 -2 57c-32 1 -67 1 -104 2c-37 0 -72 1 -104 2zM777 1523l-17 -15c-12 -49 -19 -98 -19 -145c0 -16 0 -34 4 -63
c32 -1 82 -3 114 -3l124 -2c-15 39 -22 70 -22 93c0 37 16 86 43 139l-130 -2c-32 0 -65 -1 -97 -2zM579 1107l-30 -15c-24 -357 -59 -741 -98 -1097c45 23 81 35 107 35c25 0 55 -11 92 -34c12 177 28 371 45 565s36 387 55 564c-45 -25 -80 -37 -107 -37
c-24 0 -45 6 -64 19z" />
    <glyph glyph-name="eth" unicode="&#xf0;" horiz-adv-x="1271" 
d="M882 1188l-65 84c100 35 188 67 285 107l-22 110c-25 -10 -51 -20 -78 -30c-55 -20 -110 -40 -165 -59c-27 -9 -53 -18 -78 -27h1l-15 -5c-15 20 -35 45 -54 64c-9 11 -18 22 -28 35s-19 24 -28 35c-32 0 -78 2 -123 4s-90 3 -122 6c11 -15 24 -30 38 -47s28 -35 43 -53
c29 -36 59 -73 86 -105l-52 -16c-64 -19 -146 -42 -211 -58l12 -47c5 -16 15 -51 18 -67l75 21c52 15 106 30 158 46c25 8 50 16 74 23c13 -15 25 -30 35 -43s21 -28 34 -43l43 -55c-10 1 -18 2 -23 3c-12 1 -21 2 -33 2c-6 0 -14 0 -25 1c-61 0 -125 -12 -185 -36
s-116 -60 -160 -108c-60 -65 -102 -147 -128 -232s-38 -174 -38 -251c0 -109 21 -216 88 -300c43 -49 97 -83 158 -105c60 -22 127 -32 192 -32s132 11 195 33s122 56 173 104c60 64 99 142 123 223s33 165 33 244c0 195 -58 358 -171 499zM915 624c0 -56 -6 -119 -22 -181
s-40 -123 -76 -172c-52 -60 -131 -95 -208 -95c-85 -1 -165 24 -209 93c-39 59 -52 125 -52 197c0 57 6 122 23 184s45 121 88 169c59 65 146 97 230 97c57 0 108 -10 163 -29c51 -76 63 -168 63 -263zM851 887l-5 5l5 -4v-1z" />
    <glyph glyph-name="ntilde" unicode="&#xf1;" horiz-adv-x="1406" 
d="M638 1302l46 -51c39 -40 89 -62 148 -62c53 0 88 22 115 57s45 80 64 128v-1c5 13 14 34 23 54l12 29c4 9 8 17 11 23h-13h-19c-7 -1 -14 -1 -20 -1h-14h-40c-15 -1 -29 -1 -40 -1c-7 -17 -12 -29 -14 -35c-3 -7 -6 -14 -9 -23c-15 -39 -33 -81 -69 -90
c-20 3 -36 17 -51 33l-49 52c-39 39 -90 62 -147 62c-56 0 -113 -38 -144 -102c-11 -23 -23 -53 -32 -78c-2 -5 -3 -7 -2 -7s2 0 3 1c1 0 1 -1 1 -2c-1 -1 -2 -5 -5 -12s-8 -18 -15 -32l-30 -59h17h24c8 0 16 0 24 1h19c17 0 45 2 62 3c12 27 17 40 22 55v-1
c7 20 15 40 27 57c11 17 24 31 41 35c20 -3 38 -17 54 -33zM1138 670c1 24 2 49 2 73c0 79 -9 159 -45 239c-25 48 -65 82 -112 103c-48 21 -101 31 -154 31c-137 0 -253 -49 -368 -129v11c0 1 0 3 1 4c0 1 0 2 1 3v11l2 88l-45 3c-17 1 -35 3 -52 4c-36 3 -73 6 -98 9
c-5 -373 -45 -742 -129 -1113l63 6c47 3 96 6 142 9c23 1 44 3 63 4c21 199 36 411 43 610v-1c7 84 29 172 89 237c31 33 71 54 113 67c42 12 87 16 128 16c28 0 56 -4 81 -15c25 -12 47 -29 62 -57v1c17 -39 22 -79 22 -122c0 -23 -1 -45 -4 -68v1c-1 -3 -1 -7 -1 -10v-10
c-32 -211 -61 -438 -76 -649c39 -1 89 -4 138 -7c48 -4 97 -7 136 -11c-10 112 -15 216 -15 313c0 117 5 232 13 349z" />
    <glyph glyph-name="ograve" unicode="&#xf2;" horiz-adv-x="1297" 
d="M599 1610l-16 7c-28 0 -66 2 -103 4s-74 3 -102 6c32 -53 55 -98 75 -138c19 -40 35 -77 51 -114c9 -19 19 -41 29 -64s20 -45 29 -64h44c17 0 37 0 59 -1c21 -1 43 -1 66 -2l67 -3c22 -1 42 -2 59 -3c-37 45 -69 86 -94 123c-51 75 -87 132 -117 180
c-15 23 -31 46 -47 69zM713 1114c-64 0 -133 -11 -198 -34s-127 -59 -176 -107c-63 -71 -101 -161 -124 -253s-30 -186 -30 -265c0 -111 18 -221 83 -310v1c37 -55 92 -90 153 -112c60 -22 128 -31 192 -31c65 0 135 10 201 32s127 58 175 110c61 72 101 162 124 254
s31 186 31 266c0 109 -19 217 -83 306c-40 55 -94 91 -154 113c-61 22 -129 30 -194 30zM702 967c80 -1 158 -33 197 -98c37 -63 49 -139 49 -215c0 -37 -1 -95 -13 -150c-13 -56 -37 -109 -82 -140h1c-64 -37 -140 -46 -212 -46s-145 6 -205 45l1 -1c-45 35 -53 92 -53 151
c0 57 4 122 20 183c15 61 39 121 79 172c53 68 137 99 218 99z" />
    <glyph glyph-name="oacute" unicode="&#xf3;" horiz-adv-x="1268" 
d="M930 1976l-14 -6c-47 -53 -91 -106 -136 -162c-31 -37 -69 -83 -108 -128c-40 -45 -80 -90 -113 -125l45 3c17 1 35 2 54 3c37 2 75 3 99 3c60 57 125 126 181 187l54 57c20 21 41 42 62 64c43 43 85 84 120 116c-32 -3 -77 -5 -122 -7l-66 -3c-21 -1 -40 -2 -56 -2z
M684 1114c-64 0 -133 -11 -198 -34s-127 -59 -176 -107c-63 -71 -101 -161 -124 -253s-30 -186 -30 -265c0 -111 18 -221 83 -310v1c37 -55 92 -90 153 -112c60 -22 128 -31 192 -31c65 0 135 10 201 32s127 58 175 110c61 72 101 162 124 254s31 186 31 266
c0 109 -19 217 -83 306c-40 55 -94 91 -154 113c-61 22 -129 30 -194 30zM673 967c80 -1 158 -33 197 -98c37 -63 49 -139 49 -215c0 -37 -1 -95 -13 -150c-13 -56 -37 -109 -82 -140h1c-64 -37 -140 -46 -212 -46s-145 6 -205 45l1 -1c-45 35 -53 92 -53 151
c0 57 4 122 20 183c15 61 39 121 79 172c53 68 137 99 218 99z" />
    <glyph glyph-name="ocircumflex" unicode="&#xf4;" horiz-adv-x="1268" 
d="M794 1617h-157c-13 -18 -27 -37 -41 -58l-42 -58c-27 -39 -53 -77 -86 -120s-72 -89 -123 -142l102 2l65 2c65 68 114 129 165 190h-1l27 34l17 -28c41 -65 83 -131 135 -196l65 -2l99 -2c-44 56 -79 108 -108 157s-54 96 -78 144zM684 1114c-64 0 -133 -11 -198 -34
s-127 -59 -176 -107c-63 -71 -101 -161 -124 -253s-30 -186 -30 -265c0 -111 18 -221 83 -310v1c37 -55 92 -90 153 -112c60 -22 128 -31 192 -31c65 0 135 10 201 32s127 58 175 110c61 72 101 162 124 254s31 186 31 266c0 109 -19 217 -83 306c-40 55 -94 91 -154 113
c-61 22 -129 30 -194 30zM673 967c80 -1 158 -33 197 -98c37 -63 49 -139 49 -215c0 -37 -1 -95 -13 -150c-13 -56 -37 -109 -82 -140h1c-64 -37 -140 -46 -212 -46s-145 6 -205 45l1 -1c-45 35 -53 92 -53 151c0 57 4 122 20 183c15 61 39 121 79 172c53 68 137 99 218 99z
" />
    <glyph glyph-name="otilde" unicode="&#xf5;" horiz-adv-x="1268" 
d="M678 1302l46 -51c39 -40 89 -62 148 -62c53 0 88 22 115 57s45 80 64 128v-1c5 13 14 34 23 54l12 29c4 9 8 17 11 23h-13h-19c-7 -1 -14 -1 -20 -1h-14h-40c-15 -1 -29 -1 -40 -1c-7 -17 -12 -29 -14 -35c-3 -7 -6 -14 -9 -23c-15 -39 -33 -81 -69 -90
c-20 3 -36 17 -51 33l-49 52c-39 39 -90 62 -147 62c-56 0 -113 -38 -144 -102c-11 -23 -23 -53 -32 -78c-2 -5 -3 -7 -2 -7s2 0 3 1c1 0 1 -1 1 -2c-1 -1 -2 -5 -5 -12s-8 -18 -15 -32l-30 -59h17h24c8 0 16 0 24 1h19c17 0 45 2 62 3c12 27 17 40 22 55v-1
c7 20 15 40 27 57c11 17 24 31 41 35c20 -3 38 -17 54 -33zM684 1114c-64 0 -133 -11 -198 -34s-127 -59 -176 -107c-63 -71 -101 -161 -124 -253s-30 -186 -30 -265c0 -111 18 -221 83 -310v1c37 -55 92 -90 153 -112c60 -22 128 -31 192 -31c65 0 135 10 201 32
s127 58 175 110c61 72 101 162 124 254s31 186 31 266c0 109 -19 217 -83 306c-40 55 -94 91 -154 113c-61 22 -129 30 -194 30zM673 967c80 -1 158 -33 197 -98c37 -63 49 -139 49 -215c0 -37 -1 -95 -13 -150c-13 -56 -37 -109 -82 -140h1c-64 -37 -140 -46 -212 -46
s-145 6 -205 45l1 -1c-45 35 -53 92 -53 151c0 57 4 122 20 183c15 61 39 121 79 172c53 68 137 99 218 99z" />
    <glyph glyph-name="odieresis" unicode="&#xf6;" horiz-adv-x="1268" 
d="M500 1358l-19 -25c6 -22 9 -45 9 -68c0 -37 -11 -84 -42 -140c17 1 36 1 57 2c21 0 43 0 66 1c44 1 89 2 121 2c12 58 18 114 18 167c0 12 -1 45 -2 57c-32 1 -67 1 -104 2c-37 0 -72 1 -104 2zM906 1354l-17 -15c-12 -49 -19 -98 -19 -145c0 -16 0 -34 4 -63
c32 -1 82 -3 114 -3l124 -2c-15 39 -22 70 -22 93c0 37 16 86 43 139l-130 -2c-32 0 -65 -1 -97 -2zM684 1114c-64 0 -133 -11 -198 -34s-127 -59 -176 -107c-63 -71 -101 -161 -124 -253s-30 -186 -30 -265c0 -111 18 -221 83 -310v1c37 -55 92 -90 153 -112
c60 -22 128 -31 192 -31c65 0 135 10 201 32s127 58 175 110c61 72 101 162 124 254s31 186 31 266c0 109 -19 217 -83 306c-40 55 -94 91 -154 113c-61 22 -129 30 -194 30zM673 967c80 -1 158 -33 197 -98c37 -63 49 -139 49 -215c0 -37 -1 -95 -13 -150
c-13 -56 -37 -109 -82 -140h1c-64 -37 -140 -46 -212 -46s-145 6 -205 45l1 -1c-45 35 -53 92 -53 151c0 57 4 122 20 183c15 61 39 121 79 172c53 68 137 99 218 99z" />
    <glyph glyph-name="divide" unicode="&#xf7;" horiz-adv-x="1565" 
d="M707 1163l-20 -19c-5 -88 -12 -193 -19 -280h36c13 -1 26 -1 39 -1h39h35h73c27 0 52 0 73 1c2 21 5 45 8 71l9 78c3 27 6 53 9 79l9 71h-42c-15 -1 -31 -1 -46 -1h-47h-43h-56c-19 0 -38 0 -57 1zM205 737l-20 -18c-3 -33 -5 -69 -8 -108s-7 -75 -10 -108
c232 3 482 4 715 4c169 0 354 0 522 -3c1 32 5 75 9 117l6 62c1 20 3 38 5 54c-216 -3 -447 -5 -662 -5c-187 0 -370 1 -557 5zM610 228l-18 -150h100c13 0 27 0 40 1h39c39 0 93 -1 132 -2c1 43 4 96 8 149c3 53 6 106 10 149h-85c-11 0 -22 0 -32 1h-33h-63h-32
c-11 -1 -21 -1 -32 -1l-20 -18z" />
    <glyph glyph-name="oslash" unicode="&#xf8;" horiz-adv-x="1267" 
d="M1170 1052c-21 -23 -40 -44 -57 -62v1l-27 -30c-7 -9 -17 -19 -28 -31c39 -81 56 -182 56 -275c0 -80 -8 -172 -32 -262s-63 -178 -124 -247c-48 -52 -108 -87 -172 -110c-65 -23 -133 -33 -197 -33c-105 0 -211 23 -291 87c-15 -17 -31 -34 -46 -49
c-31 -32 -56 -57 -80 -84c-13 -14 -24 -26 -33 -35l-41 36c-7 5 -16 13 -27 23s-20 18 -27 23l58 61c21 23 40 43 56 61l57 63c-44 84 -58 181 -58 277c0 79 8 172 31 261s61 177 124 246c48 48 111 83 176 107c65 23 136 33 200 33c104 0 205 -22 285 -85l67 70
c27 28 64 69 91 98c16 -13 45 -38 60 -51h-1l37 -32c-17 -18 -36 -38 -57 -61zM351 475c0 -43 2 -83 13 -123l101 113c33 37 67 75 100 112c92 104 183 205 276 308c-47 45 -108 63 -177 63c-37 0 -78 -10 -115 -28s-72 -44 -97 -75c-39 -53 -64 -117 -79 -181
c-16 -65 -22 -130 -22 -189zM899 456c15 67 19 135 19 195c0 39 -3 76 -14 112c-35 -38 -70 -76 -103 -114c-34 -39 -68 -77 -103 -116c-47 -53 -92 -103 -134 -151c-43 -49 -88 -99 -135 -151c45 -45 108 -63 176 -63c79 0 161 35 209 102c44 53 69 118 85 186z" />
    <glyph glyph-name="ugrave" unicode="&#xf9;" horiz-adv-x="1353" 
d="M580 1511l-16 7c-28 0 -66 2 -103 4s-74 3 -102 6c32 -53 55 -98 75 -138c19 -40 35 -77 51 -114c9 -19 19 -41 29 -64s20 -45 29 -64h44c17 0 37 0 59 -1c21 -1 43 -1 66 -2l67 -3c22 -1 42 -2 59 -3c-37 45 -69 86 -94 123c-51 75 -87 132 -117 180
c-15 23 -31 46 -47 69zM239 448c-3 -33 -5 -67 -5 -102c0 -71 9 -141 40 -213c25 -48 67 -82 116 -102c48 -21 102 -30 157 -30h26c125 0 245 63 329 159c-5 -43 -8 -97 -11 -137c13 -1 28 -1 45 -2c35 -2 72 -5 106 -8l45 -3c1 367 42 733 122 1104c-32 -4 -73 -7 -115 -10
c-42 -4 -84 -7 -116 -8c-25 -147 -51 -308 -67 -456v1c-13 -85 -42 -171 -102 -238v1c-60 -64 -140 -85 -220 -85c-56 0 -114 21 -147 80l1 -1c-25 52 -32 113 -32 173c0 3 0 6 1 9v9v14c12 160 20 335 23 494l-73 6l-21 3c-9 1 -17 2 -26 3l-25 3c-8 1 -15 1 -21 2v-66
c0 -7 0 -14 1 -21v-22c0 -187 -11 -370 -31 -557z" />
    <glyph glyph-name="uacute" unicode="&#xfa;" horiz-adv-x="1353" 
d="M975 1976l-14 -6c-47 -53 -91 -106 -136 -162c-31 -37 -69 -83 -108 -128c-40 -45 -80 -90 -113 -125l45 3c17 1 35 2 54 3c37 2 75 3 99 3c60 57 125 126 181 187l54 57c20 21 41 42 62 64c43 43 85 84 120 116c-32 -3 -77 -5 -122 -7l-66 -3c-21 -1 -40 -2 -56 -2z
M239 448c-3 -33 -5 -67 -5 -102c0 -71 9 -141 40 -213c25 -48 67 -82 116 -102c48 -21 102 -30 157 -30h26c125 0 245 63 329 159c-5 -43 -8 -97 -11 -137c13 -1 28 -1 45 -2c35 -2 72 -5 106 -8l45 -3c1 367 42 733 122 1104c-32 -4 -73 -7 -115 -10c-42 -4 -84 -7 -116 -8
c-25 -147 -51 -308 -67 -456v1c-13 -85 -42 -171 -102 -238v1c-60 -64 -140 -85 -220 -85c-56 0 -114 21 -147 80l1 -1c-25 52 -32 113 -32 173c0 3 0 6 1 9v9v14c12 160 20 335 23 494l-73 6l-21 3c-9 1 -17 2 -26 3l-25 3c-8 1 -15 1 -21 2v-66c0 -7 0 -14 1 -21v-22
c0 -187 -11 -370 -31 -557z" />
    <glyph glyph-name="ucircumflex" unicode="&#xfb;" horiz-adv-x="1394" 
d="M745 1617h-157c-13 -18 -27 -37 -41 -58l-42 -58c-27 -39 -53 -77 -86 -120s-72 -89 -123 -142l102 2l65 2c65 68 114 129 165 190h-1l27 34l17 -28c41 -65 83 -131 135 -196l65 -2l99 -2c-44 56 -79 108 -108 157s-54 96 -78 144zM280 448c-3 -33 -5 -67 -5 -102
c0 -71 9 -141 40 -213c25 -48 67 -82 116 -102c48 -21 102 -30 157 -30h26c125 0 245 63 329 159c-5 -43 -8 -97 -11 -137c13 -1 28 -1 45 -2c35 -2 72 -5 106 -8l45 -3c1 367 42 733 122 1104c-32 -4 -73 -7 -115 -10c-42 -4 -84 -7 -116 -8c-25 -147 -51 -308 -67 -456v1
c-13 -85 -42 -171 -102 -238v1c-60 -64 -140 -85 -220 -85c-56 0 -114 21 -147 80l1 -1c-25 52 -32 113 -32 173c0 3 0 6 1 9v9v14c12 160 20 335 23 494l-73 6l-21 3c-9 1 -17 2 -26 3l-25 3c-8 1 -15 1 -21 2v-66c0 -7 0 -14 1 -21v-22c0 -187 -11 -370 -31 -557z" />
    <glyph glyph-name="udieresis" unicode="&#xfc;" horiz-adv-x="1353" 
d="M511 1457l-19 -25c6 -22 9 -45 9 -68c0 -37 -11 -84 -42 -140c17 1 36 1 57 2c21 0 43 0 66 1c44 1 89 2 121 2c12 58 18 114 18 167c0 12 -1 45 -2 57c-32 1 -67 1 -104 2c-37 0 -72 1 -104 2zM917 1453l-17 -15c-12 -49 -19 -98 -19 -145c0 -16 0 -34 4 -63
c32 -1 82 -3 114 -3l124 -2c-15 39 -22 70 -22 93c0 37 16 86 43 139l-130 -2c-32 0 -65 -1 -97 -2zM239 448c-3 -33 -5 -67 -5 -102c0 -71 9 -141 40 -213c25 -48 67 -82 116 -102c48 -21 102 -30 157 -30h26c125 0 245 63 329 159c-5 -43 -8 -97 -11 -137
c13 -1 28 -1 45 -2c35 -2 72 -5 106 -8l45 -3c1 367 42 733 122 1104c-32 -4 -73 -7 -115 -10c-42 -4 -84 -7 -116 -8c-25 -147 -51 -308 -67 -456v1c-13 -85 -42 -171 -102 -238v1c-60 -64 -140 -85 -220 -85c-56 0 -114 21 -147 80l1 -1c-25 52 -32 113 -32 173
c0 3 0 6 1 9v9v14c12 160 20 335 23 494l-73 6l-21 3c-9 1 -17 2 -26 3l-25 3c-8 1 -15 1 -21 2v-66c0 -7 0 -14 1 -21v-22c0 -187 -11 -370 -31 -557z" />
    <glyph glyph-name="yacute" unicode="&#xfd;" horiz-adv-x="1391" 
d="M737 1616l-14 -6c-47 -53 -91 -106 -136 -162c-31 -37 -69 -83 -108 -128c-40 -45 -80 -90 -113 -125l45 3c17 1 35 2 54 3c37 2 75 3 99 3c60 57 125 126 181 187l54 57c20 21 41 42 62 64c43 43 85 84 120 116c-32 -3 -77 -5 -122 -7l-66 -3c-21 -1 -40 -2 -56 -2z
M786 -69l122 263c139 301 292 628 452 921c-14 -2 -31 -4 -50 -6l-59 -6c-40 -5 -80 -10 -108 -11c-117 -192 -237 -407 -345 -604c-53 105 -105 204 -157 303c-53 99 -107 196 -164 300c-28 1 -66 6 -104 11c-38 4 -77 9 -104 13c60 -143 122 -300 183 -459
s120 -318 175 -465l27 -73l-19 -33c-23 -36 -45 -74 -65 -111c-31 -33 -60 -64 -95 -93l1 1c-47 -35 -104 -37 -164 -40c-9 -1 -21 -1 -36 -2l-37 -3c-2 -15 -5 -32 -8 -51l-8 -50l-11 -77l-14 -77c7 1 15 2 24 3c19 2 39 4 58 5c9 1 18 1 25 2c49 3 98 6 146 16
c47 10 93 26 137 57c47 36 83 79 115 124c31 45 58 94 83 142z" />
    <glyph glyph-name="thorn" unicode="&#xfe;" horiz-adv-x="1387" 
d="M744 3h26c57 0 117 13 171 38s101 62 140 109h-1c61 71 99 154 122 242c23 87 31 175 31 258c0 113 -21 223 -82 315c-61 93 -169 145 -285 145h-26c-120 0 -237 -61 -317 -153c4 50 7 97 10 142c5 88 10 175 14 264c2 45 4 92 7 142c-27 3 -62 8 -98 14
c-18 3 -35 5 -52 8s-32 5 -45 8c-17 -641 -72 -1290 -171 -1939c31 3 45 4 56 7c43 7 89 13 145 17c23 173 44 356 64 531c28 -51 70 -88 121 -112s110 -36 170 -36zM1036 560c-7 -88 -31 -187 -79 -263c-49 -76 -121 -131 -224 -131c-80 0 -159 27 -196 98
c-39 63 -51 138 -51 215c0 59 5 124 21 188s42 127 82 179c48 64 125 101 201 101c89 0 152 -36 192 -92c40 -57 58 -135 58 -219c0 -27 -1 -51 -4 -76z" />
    <glyph glyph-name="ydieresis" unicode="&#xff;" horiz-adv-x="1391" 
d="M573 1457l-19 -25c6 -22 9 -45 9 -68c0 -37 -11 -84 -42 -140c17 1 36 1 57 2c21 0 43 0 66 1c44 1 89 2 121 2c12 58 18 114 18 167c0 12 -1 45 -2 57c-32 1 -67 1 -104 2c-37 0 -72 1 -104 2zM979 1453l-17 -15c-12 -49 -19 -98 -19 -145c0 -16 0 -34 4 -63
c32 -1 82 -3 114 -3l124 -2c-15 39 -22 70 -22 93c0 37 16 86 43 139l-130 -2c-32 0 -65 -1 -97 -2zM786 -69l122 263c139 301 292 628 452 921c-14 -2 -31 -4 -50 -6l-59 -6c-40 -5 -80 -10 -108 -11c-117 -192 -237 -407 -345 -604c-53 105 -105 204 -157 303
c-53 99 -107 196 -164 300c-28 1 -66 6 -104 11c-38 4 -77 9 -104 13c60 -143 122 -300 183 -459s120 -318 175 -465l27 -73l-19 -33c-23 -36 -45 -74 -65 -111c-31 -33 -60 -64 -95 -93l1 1c-47 -35 -104 -37 -164 -40c-9 -1 -21 -1 -36 -2l-37 -3c-2 -15 -5 -32 -8 -51
l-8 -50l-11 -77l-14 -77c7 1 15 2 24 3c19 2 39 4 58 5c9 1 18 1 25 2c49 3 98 6 146 16c47 10 93 26 137 57c47 36 83 79 115 124c31 45 58 94 83 142z" />
    <glyph glyph-name="Cacute" unicode="&#x106;" horiz-adv-x="1529" 
d="M827 1870l-14 -7c-24 -28 -49 -59 -73 -88v1c-21 -27 -43 -53 -67 -81c-25 -29 -54 -61 -90 -98c12 1 37 3 62 4c12 1 24 1 35 2s20 1 27 1c16 0 40 1 57 2c17 16 34 34 53 53c36 38 61 65 81 87c10 11 22 23 35 36c26 26 58 57 102 97c-25 -3 -65 -5 -104 -6
c-19 -1 -38 -1 -57 -2s-34 -1 -47 -1zM1373 1358l18 10c-119 84 -269 113 -417 113c-96 0 -198 -10 -295 -40s-190 -79 -266 -152c-83 -87 -137 -201 -171 -317c-34 -117 -47 -238 -47 -341c0 -79 7 -157 27 -230c19 -73 50 -142 98 -202c64 -72 146 -120 237 -149
s189 -41 285 -41c149 0 305 30 446 118v42c0 47 2 105 4 164s3 117 6 165c-67 -60 -140 -105 -213 -136s-149 -46 -218 -46c-63 0 -130 4 -193 17c-64 13 -124 36 -173 76l1 -1c-36 32 -58 73 -72 118s-19 95 -19 146c0 80 9 170 34 258c24 87 65 170 132 241h-1
c52 53 116 86 184 106c67 20 138 27 205 27c140 0 284 -58 396 -171c4 31 10 72 17 112c3 20 7 40 10 59s6 37 9 52z" />
    <glyph glyph-name="cacute" unicode="&#x107;" horiz-adv-x="1214" 
d="M707 1616l-14 -6c-47 -53 -91 -106 -136 -162c-31 -37 -69 -83 -108 -128c-40 -45 -80 -90 -113 -125l45 3c17 1 35 2 54 3c37 2 75 3 99 3c60 57 125 126 181 187l54 57c20 21 41 42 62 64c43 43 85 84 120 116c-32 -3 -77 -5 -122 -7l-66 -3c-21 -1 -40 -2 -56 -2z
M1020 1049l17 19c-86 32 -177 48 -272 48c-75 0 -155 -9 -231 -32c-77 -23 -152 -59 -212 -115c-67 -65 -109 -151 -133 -240c-25 -89 -34 -183 -34 -260c0 -59 5 -116 20 -171s38 -106 75 -150l-1 1c48 -60 113 -97 185 -119s150 -29 223 -29c96 0 197 14 301 53
c-1 35 -2 79 -2 114c0 25 1 60 2 94s3 66 4 93c-56 -27 -109 -41 -148 -41h-12l-146 3h1c-83 7 -166 16 -230 59h1c-25 20 -41 48 -51 79s-15 65 -15 100c5 49 15 103 32 155c16 52 39 101 74 140c33 40 77 67 125 84c47 17 98 24 146 24c89 0 186 -25 279 -72l8 60v-1
c3 19 7 37 10 54s6 35 10 54z" />
    <glyph glyph-name="Ccaron" unicode="&#x10c;" horiz-adv-x="1529" 
d="M773 1592h156c11 15 27 40 38 56c65 92 142 203 257 326l-107 -6h1l-65 -2c-61 -63 -107 -118 -154 -178l-37 -46l-1 2c-47 73 -90 146 -151 222c-9 0 -21 0 -35 1c-15 1 -30 1 -45 2c-32 1 -63 3 -82 4c83 -112 130 -201 178 -292zM1373 1358l18 10
c-119 84 -269 113 -417 113c-96 0 -198 -10 -295 -40s-190 -79 -266 -152c-83 -87 -137 -201 -171 -317c-34 -117 -47 -238 -47 -341c0 -79 7 -157 27 -230c19 -73 50 -142 98 -202c64 -72 146 -120 237 -149s189 -41 285 -41c149 0 305 30 446 118v42c0 47 2 105 4 164
s3 117 6 165c-67 -60 -140 -105 -213 -136s-149 -46 -218 -46c-63 0 -130 4 -193 17c-64 13 -124 36 -173 76l1 -1c-36 32 -58 73 -72 118s-19 95 -19 146c0 80 9 170 34 258c24 87 65 170 132 241h-1c52 53 116 86 184 106c67 20 138 27 205 27c140 0 284 -58 396 -171
c4 31 10 72 17 112c3 20 7 40 10 59s6 37 9 52z" />
    <glyph glyph-name="ccaron" unicode="&#x10d;" horiz-adv-x="1272" 
d="M582 1146h156c11 15 27 40 38 56c65 92 142 203 257 326l-107 -6h1l-65 -2c-61 -63 -107 -118 -154 -178l-37 -46l-1 2c-47 73 -90 146 -151 222c-9 0 -21 0 -35 1c-15 1 -30 1 -45 2c-32 1 -63 3 -82 4c83 -112 130 -201 178 -292zM1078 1049l17 19
c-86 32 -177 48 -272 48c-75 0 -155 -9 -231 -32c-77 -23 -152 -59 -212 -115c-67 -65 -109 -151 -133 -240c-25 -89 -34 -183 -34 -260c0 -59 5 -116 20 -171s38 -106 75 -150l-1 1c48 -60 113 -97 185 -119s150 -29 223 -29c96 0 197 14 301 53c-1 35 -2 79 -2 114
c0 25 1 60 2 94s3 66 4 93c-56 -27 -109 -41 -148 -41h-12l-146 3h1c-83 7 -166 16 -230 59h1c-25 20 -41 48 -51 79s-15 65 -15 100c5 49 15 103 32 155c16 52 39 101 74 140c33 40 77 67 125 84c47 17 98 24 146 24c89 0 186 -25 279 -72l8 60v-1c3 19 7 37 10 54
s6 35 10 54z" />
    <glyph glyph-name="dcroat" unicode="&#x111;" horiz-adv-x="1330" 
d="M645 1120h-25c-116 0 -233 -53 -308 -149l1 1c-64 -75 -104 -167 -128 -259c-24 -93 -32 -188 -32 -271c0 -104 16 -205 75 -289h-1c29 -48 74 -85 124 -109s106 -36 162 -36h9c1 0 3 0 5 1h6h11c125 0 248 62 331 161c-1 -31 -2 -50 -2 -69v-29c-1 -11 -1 -24 -1 -39
c35 -1 87 -4 123 -7l72 -4c4 412 41 819 92 1216c45 3 76 5 119 9c1 0 6 0 13 1h12c1 10 3 23 6 39c2 15 4 28 5 38l10 66l-147 -14c3 24 7 48 11 71l12 70l-58 -5h1c-43 -3 -99 -5 -142 -6l-19 -140c-52 -3 -103 -4 -154 -4h-155l-5 -67c-1 -8 -2 -19 -3 -34s-1 -27 -2 -35
c96 0 205 0 302 3c-5 -43 -10 -83 -13 -119c-3 -37 -7 -77 -12 -120l-3 -27c-29 51 -72 89 -123 116c-52 27 -110 40 -169 40zM356 601c11 93 33 190 96 265c51 61 128 91 204 91c77 0 155 -26 198 -91c43 -60 54 -133 54 -206c0 -52 -5 -108 -20 -163s-40 -107 -77 -151
c-60 -68 -141 -93 -225 -93c-75 0 -146 28 -185 88c-36 56 -49 124 -49 193c0 23 1 44 4 67z" />
    <glyph glyph-name="Gbreve" unicode="&#x11e;" horiz-adv-x="1620" 
d="M710 1679c-40 36 -58 75 -73 118c5 19 9 34 14 45c8 20 17 29 25 32c3 1 7 2 11 2c8 1 17 1 26 1s16 -1 21 -2l14 -14c21 -61 86 -92 154 -92h6c1 0 3 0 4 1h4h4c1 -1 2 -1 3 -1h7c33 0 67 9 99 27c31 18 58 44 78 79c23 1 52 2 75 2h13c5 0 11 0 18 1h19h12l-31 -63
c-23 -45 -42 -91 -85 -126c-36 -28 -74 -42 -111 -50s-74 -10 -109 -11c-71 1 -142 8 -198 51zM637 1797l-2 -8l-9 42zM1221 1457c83 -18 162 -48 235 -95l-9 -53c-2 -10 -4 -22 -6 -36l-6 -44c-5 -29 -9 -60 -12 -80c-129 119 -290 173 -446 173c-67 0 -139 -7 -209 -27
s-136 -52 -189 -101c-63 -68 -103 -151 -128 -237s-34 -175 -34 -254c0 -52 3 -107 16 -156s35 -94 75 -127l-1 1c49 -36 110 -57 172 -69s128 -16 192 -17c24 1 49 1 76 2c52 0 105 7 150 23c22 7 41 19 57 34l2 2c1 23 3 47 4 70s3 46 4 69c-47 1 -96 2 -147 2h-146
l19 223h260c41 0 85 0 132 1h131c-19 -209 -29 -411 -29 -611c-165 -105 -350 -140 -527 -140c-96 0 -198 10 -291 38s-179 75 -244 148c-47 57 -77 125 -97 198c-20 72 -28 148 -28 223c0 105 10 230 43 351c32 120 86 236 177 324c73 68 166 116 263 146s199 43 291 43
c83 0 167 -6 250 -24zM1154 389l2 2v1z" />
    <glyph glyph-name="gbreve" unicode="&#x11f;" horiz-adv-x="1296" 
d="M524 1576l-16 15c-5 1 -12 2 -20 2c-8 -1 -17 -1 -26 -1c-16 -1 -32 -1 -35 -10l-38 -2c3 -7 5 -15 7 -22l6 -23c13 -57 29 -118 80 -177c51 -47 126 -57 198 -57c73 0 156 12 224 75c39 41 62 90 85 142l34 77h-12h-18c-7 -1 -13 -1 -18 -1h-13c-23 -1 -56 -2 -76 -2
c-16 -40 -43 -76 -75 -102s-70 -42 -109 -42h-7c-1 0 -2 0 -3 1h-3h-3c-1 -1 -3 -1 -4 -1h-6c-37 0 -72 13 -99 37c-27 23 -46 55 -53 91zM1043 117l5 36c32 308 76 627 143 962l-135 -17h1l-65 -5l-27 -107c-1 -6 -3 -13 -5 -20c-3 -7 -5 -14 -6 -21
c-32 48 -79 88 -131 116c-53 28 -114 44 -175 44h-30c-56 0 -116 -11 -171 -34s-106 -58 -146 -103c-56 -64 -91 -144 -111 -227c-21 -83 -28 -169 -28 -242c0 -115 20 -236 83 -331c29 -45 74 -83 124 -108s106 -39 162 -39c129 0 242 44 329 136c-1 -11 -2 -23 -2 -32
c-19 -65 -56 -123 -107 -175c-31 -35 -71 -56 -114 -70c-44 -14 -90 -19 -133 -20c-96 0 -196 20 -296 76c-3 -24 -7 -50 -10 -79s-7 -58 -11 -88c-8 -60 -16 -120 -24 -168c111 -31 216 -40 317 -40c69 0 144 3 216 20c72 16 140 47 197 103c56 61 89 134 110 208
s31 150 40 225zM834 576v1c-4 -39 -11 -82 -26 -122s-37 -76 -72 -99c-67 -27 -143 -38 -214 -38c-32 0 -66 1 -98 6c-32 4 -63 14 -88 31c-21 24 -33 54 -40 87c-7 32 -10 68 -11 103c0 5 0 10 -1 15s-1 10 -1 15c4 48 12 100 26 149s34 97 65 137c49 60 132 91 208 91
s140 -24 185 -73c44 -49 71 -125 71 -229c0 -25 -1 -49 -4 -74z" />
    <glyph glyph-name="Idotaccent" unicode="&#x130;" horiz-adv-x="727" 
d="M421 1830v-25c0 -51 -7 -107 -20 -175c8 1 17 1 27 2c10 0 21 0 32 1c22 1 43 2 59 2c28 0 77 -2 105 -5c-1 12 -3 45 -3 58c0 45 7 101 22 165c-47 -5 -88 -8 -115 -8c-28 0 -57 2 -86 5zM385 1467l-26 -16c-45 -476 -99 -980 -159 -1456c55 27 101 42 136 42
s76 -14 122 -41c13 237 29 492 49 746c19 254 40 508 61 745c-47 -21 -85 -32 -114 -32c-23 0 -46 5 -69 12z" />
    <glyph glyph-name="dotlessi" unicode="&#x131;" horiz-adv-x="634" 
d="M294 1107l-30 -15c-24 -357 -59 -741 -98 -1097c45 23 81 35 107 35c25 0 55 -11 92 -34c12 177 28 371 45 565s36 387 55 564c-45 -25 -80 -37 -107 -37c-24 0 -45 6 -64 19z" />
    <glyph glyph-name="Lslash" unicode="&#x141;" horiz-adv-x="1491" 
d="M441 1464l-21 -20c-7 -239 -18 -467 -41 -707l-111 -77c-39 -27 -76 -53 -112 -79c9 -12 25 -40 32 -55c3 -7 9 -17 17 -29c7 -13 14 -25 21 -36l18 12c14 10 28 20 41 30s28 21 48 34c9 7 19 14 29 21c-19 -183 -40 -349 -67 -532c116 7 254 11 371 11
c183 0 367 -10 559 -29c-1 24 -2 70 -2 94v46c-1 18 -1 33 -1 46c-195 16 -376 23 -555 23c-22 0 -44 0 -66 1c-22 0 -44 0 -66 -1c5 43 9 84 14 125c8 80 16 159 23 239c3 40 7 81 11 124l76 51l75 51l237 160l-38 59l-38 61c-11 -7 -22 -15 -35 -23
c-13 -9 -27 -17 -40 -26l-39 -27c-13 -9 -26 -17 -37 -25l-145 -96c17 196 28 371 40 567c-60 1 -138 4 -198 7z" />
    <glyph glyph-name="lslash" unicode="&#x142;" horiz-adv-x="827" 
d="M445 1503l-21 -18c-16 -224 -33 -443 -53 -666l-44 -30h1l-75 -52c-27 -19 -53 -37 -76 -54l27 -48c12 -19 21 -34 40 -71c17 11 35 24 55 38c19 14 39 28 58 41c-9 -105 -18 -205 -28 -304l-15 -150c-5 -51 -11 -102 -16 -154c29 1 79 3 108 3c24 0 67 -2 91 -3
c16 241 35 502 58 745c64 43 137 94 200 141l-28 43c-12 19 -24 35 -41 72l-96 -69l-19 -13c4 47 8 94 13 140c8 91 17 180 26 272c5 45 9 92 14 139c-27 -3 -74 -4 -101 -4h-39c-13 0 -26 1 -39 2z" />
    <glyph glyph-name="OE" unicode="&#x152;" horiz-adv-x="2264" 
d="M2102 1459l-19 24c-321 -21 -632 -28 -951 -28c-115 0 -239 -1 -362 -24c-123 -24 -244 -69 -352 -157c-91 -81 -146 -191 -178 -306s-42 -234 -42 -335c0 -79 8 -158 31 -233s60 -144 120 -203c81 -71 179 -110 283 -132s214 -28 319 -28c345 0 704 -6 1047 -29
c-13 108 -18 203 -21 294c-231 11 -474 14 -706 17c2 39 4 78 7 115c5 74 11 147 18 220c3 37 7 75 10 114l666 3c1 12 3 26 5 42c1 16 3 33 5 50l6 49c1 15 3 29 5 41c-107 -3 -220 -4 -335 -4c-57 -1 -114 -1 -171 -2s-112 -1 -165 -1l9 94c3 30 7 60 10 90
c6 59 12 119 20 183c240 3 472 9 712 24l14 61c5 23 10 43 15 61zM1037 1312h112c-8 -85 -16 -168 -23 -250c-7 -83 -15 -165 -22 -246c-15 -164 -30 -328 -43 -496h-112c-76 0 -155 5 -229 24s-142 50 -195 103c-68 68 -111 162 -111 262c0 12 1 25 2 37
c7 75 19 157 44 234s62 149 121 204c64 51 139 82 219 102c79 19 161 26 237 26z" />
    <glyph glyph-name="oe" unicode="&#x153;" horiz-adv-x="2090" 
d="M1876 886c15 -36 25 -73 25 -113v-14c-1 -5 -1 -9 -1 -14v-1l-3 -18c-1 -7 -1 -13 -2 -19l-6 -55c-257 -3 -510 -5 -766 -5v-22c-1 -16 -2 -35 -2 -55v-33c0 -48 3 -95 13 -138c10 -44 27 -84 58 -116l-3 2c73 -52 174 -65 267 -65c117 0 243 30 370 97v-53
c0 -61 4 -126 11 -194c-127 -49 -250 -73 -371 -73c-93 0 -186 12 -268 43s-156 82 -209 158c-55 -68 -124 -119 -202 -151c-78 -33 -162 -49 -245 -49c-61 0 -123 9 -178 33c-56 23 -103 58 -135 113v-1c-56 85 -70 188 -70 292c0 80 4 177 24 273s55 192 116 268
c43 52 97 89 157 111c59 22 124 31 185 31c81 0 162 -15 233 -48s131 -83 172 -154c60 68 136 119 219 153s172 50 257 50c59 0 118 -10 171 -31c52 -21 97 -55 129 -104c20 -31 39 -63 54 -98zM1145 790c156 0 310 1 467 4l104 1c0 20 -7 44 -16 67s-22 44 -33 61
c-39 48 -104 76 -168 76c-87 0 -181 -24 -250 -83c-40 -35 -83 -79 -104 -126zM900 502c16 54 24 109 24 160c0 79 -18 155 -58 219l1 -1c-49 63 -124 99 -207 99h-10c-76 0 -154 -29 -202 -93c-37 -48 -59 -105 -71 -164c-13 -60 -16 -121 -16 -174c0 -72 11 -141 47 -201
c37 -60 107 -90 180 -90c88 0 173 30 233 97c36 43 62 94 79 148z" />
    <glyph glyph-name="Scedilla" unicode="&#x15e;" horiz-adv-x="1389" 
d="M1225 1414l-9 -59c-1 -9 -3 -20 -4 -32l-6 -38c-4 -25 -7 -51 -10 -71c-129 55 -260 91 -389 91c-77 0 -158 -10 -233 -50l2 1c-73 -48 -100 -116 -100 -184c0 -43 13 -89 40 -118c27 -21 59 -36 94 -47c35 -12 71 -20 104 -28l59 -12c99 -20 197 -41 285 -101
c52 -36 88 -83 112 -136c23 -53 34 -111 34 -170c0 -61 -7 -129 -29 -190s-60 -118 -117 -159c-68 -45 -141 -69 -213 -83c-67 -13 -135 -17 -201 -18c11 -28 17 -58 17 -90c0 -28 -6 -60 -20 -89s-35 -54 -64 -69c-60 -27 -124 -30 -173 -30c-51 0 -107 6 -167 18
c7 28 14 74 18 103l7 47c51 -27 94 -33 133 -33h14c3 -1 6 -1 10 -1c24 0 49 9 67 23s30 35 30 60c0 21 -5 43 -15 66c-110 9 -221 29 -332 63c8 48 17 106 26 165c8 59 17 117 22 165c140 -81 287 -121 435 -121c84 0 174 14 247 61c21 13 45 32 62 53c17 20 30 43 30 68
c0 68 -51 113 -117 145c-66 31 -145 47 -201 58l-33 7c-53 11 -107 26 -157 47s-97 50 -136 90c-59 64 -78 154 -78 242c0 59 9 121 32 178s60 108 115 147c57 40 121 63 186 78c64 15 131 19 196 19c143 0 281 -17 417 -53l-6 -12z" />
    <glyph glyph-name="scedilla" unicode="&#x15f;" horiz-adv-x="1165" 
d="M986 1059l-8 -54c-3 -13 -6 -33 -9 -52l-4 -28c-2 -9 -3 -17 -4 -24c-113 52 -221 67 -329 67c-55 0 -117 -9 -166 -34s-85 -68 -85 -133c0 -57 39 -93 91 -117c51 -24 113 -37 157 -45l19 -5c44 -11 90 -23 132 -39c42 -17 82 -39 115 -71c49 -47 66 -118 66 -183
c0 -49 -9 -101 -29 -146c-21 -45 -53 -87 -100 -116c-53 -33 -111 -52 -171 -63c-27 -5 -54 -8 -81 -10c9 -27 15 -56 15 -86c0 -28 -6 -60 -20 -89s-35 -54 -64 -69c-60 -27 -124 -30 -173 -30c-51 0 -107 6 -167 18c7 28 14 74 18 103l7 47c51 -27 94 -33 133 -33h14
c3 -1 6 -1 10 -1c24 0 49 9 67 23s30 35 30 60c0 18 -4 36 -10 55c-104 4 -213 21 -321 48c7 40 14 91 22 141c7 50 14 100 19 140c112 -60 228 -92 341 -92h23c5 -1 9 -1 13 -1h11c41 0 91 7 131 27s70 51 74 99c-3 4 -4 7 -5 9l-18 34c-6 11 -12 22 -19 31
c-24 19 -55 32 -88 42s-67 17 -98 24l-38 9c-39 9 -78 19 -116 35c-38 15 -76 34 -105 62c-45 44 -58 113 -58 177c0 55 12 113 38 163s66 91 125 115c97 39 180 47 267 47c116 0 230 -7 339 -42l-16 -17z" />
    <glyph glyph-name="Scaron" unicode="&#x160;" horiz-adv-x="1389" 
d="M762 1630h156c11 15 27 40 38 56c65 92 142 203 257 326l-107 -6h1l-65 -2c-61 -63 -107 -118 -154 -178l-37 -46l-1 2c-47 73 -90 146 -151 222c-9 0 -21 0 -35 1c-15 1 -30 1 -45 2c-32 1 -63 3 -82 4c83 -112 130 -201 178 -292zM1209 1415l6 12
c-136 36 -274 53 -417 53c-65 0 -132 -4 -196 -19c-65 -15 -129 -38 -186 -78c-55 -39 -92 -90 -115 -147s-32 -119 -32 -178c0 -88 19 -178 78 -242c39 -40 86 -69 136 -90s104 -36 157 -47l33 -7c56 -11 135 -27 201 -58c66 -32 117 -77 117 -145c0 -25 -13 -48 -30 -68
c-17 -21 -41 -40 -62 -53c-73 -47 -163 -61 -247 -61c-148 0 -295 40 -435 121c-5 -48 -14 -106 -22 -165c-9 -59 -18 -117 -26 -165c153 -47 307 -68 460 -68c71 1 144 4 216 18s145 38 213 83c57 41 95 98 117 159s29 129 29 190c0 59 -11 117 -34 170
c-24 53 -60 100 -112 136c-88 60 -186 81 -285 101l-59 12c-33 8 -69 16 -104 28c-35 11 -67 26 -94 47c-27 29 -40 75 -40 118c0 68 27 136 100 184l-2 -1c75 40 156 50 233 50c129 0 260 -36 389 -91c3 20 6 46 10 71l6 38c1 12 3 23 4 32l9 59z" />
    <glyph glyph-name="scaron" unicode="&#x161;" horiz-adv-x="1165" 
d="M627 1245h156c11 15 27 40 38 56c65 92 142 203 257 326l-107 -6h1l-65 -2c-61 -63 -107 -118 -154 -178l-37 -46l-1 2c-47 73 -90 146 -151 222c-9 0 -21 0 -35 1c-15 1 -30 1 -45 2c-32 1 -63 3 -82 4c83 -112 130 -201 178 -292zM989 1068l-12 4
c-109 35 -223 42 -339 42c-87 0 -170 -8 -267 -47c-59 -24 -99 -65 -125 -115s-38 -108 -38 -163c0 -64 13 -133 58 -177c29 -28 67 -47 105 -62c38 -16 77 -26 116 -35l38 -9c31 -7 65 -14 98 -24s67 -23 91 -42c16 -17 32 -40 39 -74c10 -50 -34 -79 -74 -99
s-90 -27 -131 -27h-11c-4 0 -8 0 -13 1h-23c-113 0 -229 32 -341 92c-5 -40 -12 -90 -19 -140c-8 -50 -15 -101 -22 -141c123 -31 247 -49 364 -49c57 0 118 2 178 13s118 30 171 63c47 29 79 71 100 116c20 45 29 97 29 146c0 65 -17 136 -66 183c-33 32 -73 54 -115 71
c-42 16 -88 28 -132 39l-19 5c-44 8 -106 21 -157 45c-52 24 -91 60 -91 117c0 65 36 108 85 133s111 34 166 34c108 0 216 -15 329 -67c1 7 2 15 4 24l4 28c3 19 6 39 9 52z" />
    <glyph glyph-name="Ydieresis" unicode="&#x178;" horiz-adv-x="1544" 
d="M1094 1844l-18 -14c-12 -47 -17 -90 -17 -134c0 -15 1 -48 2 -61h39c16 -1 29 -1 39 -1h34c13 -1 26 -1 39 -1c13 -1 25 -1 38 -1c13 -1 24 -1 34 -1c-13 38 -20 67 -20 88c0 35 15 79 40 130c-15 -1 -31 -1 -49 -1c-19 -1 -37 -1 -56 -2c-37 -1 -76 -2 -105 -2z
M719 1848l-20 -25c7 -21 10 -40 10 -63c0 -35 -11 -78 -38 -129c10 0 22 0 35 1c13 0 26 0 40 1c13 0 27 0 40 1h33c9 0 22 0 38 1h37c12 56 19 107 19 158v7c-1 2 -1 5 -1 8v36c-30 1 -62 1 -96 2c-35 0 -67 1 -97 2zM361 1484l-19 -28c145 -307 267 -619 391 -932
c-7 -79 -15 -161 -24 -244s-17 -165 -25 -244h22c8 0 16 0 25 1h25h21h70c35 0 89 -1 124 -2c9 157 19 330 34 489c14 25 28 50 43 75l44 75c76 132 159 272 243 411s170 275 257 402l-79 -7c-51 -5 -108 -9 -159 -12c-160 -232 -312 -477 -460 -717
c-55 124 -107 243 -162 360s-112 234 -173 354c-63 5 -134 11 -198 19z" />
    <glyph glyph-name="Zcaron" unicode="&#x17d;" horiz-adv-x="1669" 
d="M792 1592h156c11 15 27 40 38 56c65 92 142 203 257 326l-107 -6h1l-65 -2c-61 -63 -107 -118 -154 -178l-37 -46l-1 2c-47 73 -90 146 -151 222c-9 0 -21 0 -35 1c-15 1 -30 1 -45 2c-32 1 -63 3 -82 4c83 -112 130 -201 178 -292zM343 1462v-165
c191 -17 370 -23 546 -23c103 0 207 2 311 6c-167 -167 -325 -326 -482 -486c-157 -161 -312 -323 -475 -492c-7 -44 -16 -96 -25 -148s-19 -103 -28 -147c217 20 421 30 612 30c195 0 394 -10 601 -29c-3 59 -4 138 -4 197c0 33 1 84 2 116c-180 12 -377 18 -560 18
c-108 0 -218 -2 -326 -5c42 42 82 82 120 121l224 228c37 39 77 79 118 121c83 85 167 171 251 256s168 171 251 256l14 75c1 12 5 30 9 47c2 9 4 17 5 26c1 8 3 15 4 21c-213 -20 -415 -30 -604 -30c-183 0 -362 7 -543 26z" />
    <glyph glyph-name="zcaron" unicode="&#x17e;" horiz-adv-x="1281" 
d="M573 1245h156c11 15 27 40 38 56c65 92 142 203 257 326l-107 -6h1l-65 -2c-61 -63 -107 -118 -154 -178l-37 -46l-1 2c-47 73 -90 146 -151 222c-9 0 -21 0 -35 1c-15 1 -30 1 -45 2c-32 1 -63 3 -82 4c83 -112 130 -201 178 -292zM263 1086v-131
c128 -11 252 -15 377 -15c76 0 153 1 229 4l-179 -167c-58 -54 -115 -108 -172 -161c-114 -108 -227 -216 -347 -333l-23 -138c-9 -49 -18 -98 -27 -138c167 15 319 23 460 23c139 0 284 -7 434 -21c-1 45 -2 112 -2 157c0 28 1 74 2 102c-125 8 -269 13 -396 13h-80
c-26 0 -53 0 -80 -1c35 35 69 69 100 101c63 64 123 127 184 192l98 102c41 42 82 85 124 129l125 128c2 13 5 27 8 43l9 48c6 32 12 65 17 90c-167 -17 -319 -25 -462 -25c-127 0 -252 6 -377 17z" />
    <glyph glyph-name="florin" unicode="&#x192;" horiz-adv-x="1303" 
d="M1324 1480l10 15c-41 13 -84 17 -127 17h-21c-8 0 -15 0 -22 -1h-10c-4 -1 -8 -1 -11 -1c-103 -4 -194 -51 -266 -121c-73 -70 -125 -164 -149 -257v1c-19 -64 -35 -124 -52 -188l-16 -56c-6 -20 -11 -39 -15 -56l-258 -17c-3 -19 -6 -53 -7 -74c-1 -5 -1 -11 -1 -18
c-1 -7 -1 -15 -2 -22c-1 -16 -2 -31 -2 -40l225 18c-19 -84 -36 -161 -54 -239s-37 -156 -57 -240v1c-21 -67 -46 -136 -85 -191c-40 -55 -94 -92 -171 -92c-53 0 -111 21 -167 56l-37 -116c-21 -68 -49 -149 -73 -216c56 -20 107 -27 152 -27c141 0 276 48 380 152
c63 65 105 143 137 224c31 81 51 166 71 247c5 25 11 51 18 77c6 26 12 52 17 77h-1c23 99 44 191 65 290c97 7 193 14 289 22l15 155l-155 -14l-104 -11c13 53 26 100 39 147c7 23 13 47 20 71l22 76c16 67 46 129 91 174c44 44 104 73 176 73c39 0 83 -15 130 -45
c1 5 2 11 3 20c3 16 6 34 8 50l3 20c4 20 8 41 11 62z" />
    <glyph glyph-name="circumflex" unicode="&#x2c6;" horiz-adv-x="974" 
d="M745 1617h-157c-13 -18 -27 -37 -41 -58l-42 -58c-27 -39 -53 -77 -86 -120s-72 -89 -123 -142l102 2l65 2c65 68 114 129 165 190h-1l27 34l17 -28c41 -65 83 -131 135 -196l65 -2l99 -2c-44 56 -79 108 -108 157s-54 96 -78 144z" />
    <glyph glyph-name="caron" unicode="&#x2c7;" horiz-adv-x="976" 
d="M603 1245h156c11 15 27 40 38 56c65 92 142 203 257 326l-107 -6h1l-65 -2c-61 -63 -107 -118 -154 -178l-37 -46l-1 2c-47 73 -90 146 -151 222c-9 0 -21 0 -35 1c-15 1 -30 1 -45 2c-32 1 -63 3 -82 4c83 -112 130 -201 178 -292z" />
    <glyph glyph-name="breve" unicode="&#x2d8;" horiz-adv-x="931" 
d="M503 1576l-16 15c-5 1 -12 2 -20 2c-8 -1 -17 -1 -26 -1c-16 -1 -32 -1 -35 -10l-38 -2c3 -7 5 -15 7 -22l6 -23c13 -57 29 -118 80 -177c51 -47 126 -57 198 -57c73 0 156 12 224 75c39 41 62 90 85 142l34 77h-12h-18c-7 -1 -13 -1 -18 -1h-13c-23 -1 -56 -2 -76 -2
c-16 -40 -43 -76 -75 -102s-70 -42 -109 -42h-7c-1 0 -2 0 -3 1h-3h-3c-1 -1 -3 -1 -4 -1h-6c-37 0 -72 13 -99 37c-27 23 -46 55 -53 91z" />
    <glyph glyph-name="dotaccent" unicode="&#x2d9;" horiz-adv-x="545" 
d="M356 1521v-17c0 -3 0 -5 1 -8v-8c0 -43 -8 -99 -23 -168c8 1 17 1 28 2c11 0 22 0 33 1c22 1 44 2 60 2c13 0 33 -1 52 -2c9 -1 19 -1 28 -1c9 -1 16 -1 23 -2v7v11c-1 3 -1 7 -1 10v6v13c0 47 8 105 23 176c-48 -4 -88 -7 -115 -7c-29 0 -59 1 -88 4z" />
    <glyph glyph-name="ring" unicode="&#x2da;" horiz-adv-x="827" 
d="M876 1503c0 5 0 10 1 15v17c0 71 -25 130 -68 171c-43 40 -101 64 -168 64c-89 0 -160 -34 -210 -88s-78 -130 -78 -210c0 -72 25 -131 66 -172s101 -64 170 -64c80 0 148 27 198 75c50 47 82 113 89 192zM743 1511v-6c-7 -36 -23 -70 -47 -94c-25 -25 -58 -40 -95 -40
c-67 0 -115 44 -115 113c0 43 15 80 40 107s61 43 102 43c68 -3 116 -47 116 -115v-4c-1 -1 -1 -3 -1 -4z" />
    <glyph glyph-name="ogonek" unicode="&#x2db;" horiz-adv-x="693" 
d="M113 22l-15 -6c-21 -24 -49 -60 -70 -100c-21 -41 -38 -89 -38 -134c0 -47 15 -96 68 -125c43 -19 89 -22 136 -25h8c2 -1 4 -1 7 -1c43 0 90 6 141 15v31v8c-1 2 -1 5 -1 8c0 6 0 14 1 24c0 9 0 19 1 29c0 10 0 20 1 30v23c-59 -27 -103 -34 -140 -34
c-39 0 -72 24 -72 61c0 28 16 62 37 96s48 68 72 99h-30h-38s-26 0 -38 1h-30z" />
    <glyph glyph-name="tilde" unicode="&#x2dc;" horiz-adv-x="946" 
d="M595 1401l46 -51c39 -40 89 -62 148 -62c53 0 88 22 115 57s45 80 64 128v-1c5 13 14 34 23 54l12 29c4 9 8 17 11 23h-13h-19c-7 -1 -14 -1 -20 -1h-14h-40c-15 -1 -29 -1 -40 -1c-7 -17 -12 -29 -14 -35c-3 -7 -6 -14 -9 -23c-15 -39 -33 -81 -69 -90
c-20 3 -36 17 -51 33l-49 52c-39 39 -90 62 -147 62c-56 0 -113 -38 -144 -102c-11 -23 -23 -53 -32 -78c-2 -5 -3 -7 -2 -7s2 0 3 1c1 0 1 -1 1 -2c-1 -1 -2 -5 -5 -12s-8 -18 -15 -32l-30 -59h17h24c8 0 16 0 24 1h19c17 0 45 2 62 3c12 27 17 40 22 55v-1
c7 20 15 40 27 57c11 17 24 31 41 35c20 -3 38 -17 54 -33z" />
    <glyph glyph-name="hungarumlaut" unicode="&#x2dd;" horiz-adv-x="989" 
d="M870 1619l-16 -7c-57 -72 -105 -154 -156 -235v1l-83 -133h105c13 0 37 -1 50 -2c83 124 169 248 296 381h-58c-11 -1 -20 -1 -26 -2h1c-38 -2 -76 -3 -113 -3zM542 1618l-17 -10c-57 -117 -122 -238 -230 -371c19 1 50 3 82 4c15 0 30 0 45 1s27 1 36 1
c64 75 124 165 171 236c6 9 13 19 21 32l25 37c16 25 34 50 47 69h-41h-49s-33 0 -48 1h-42z" />
    <glyph glyph-name="pi" unicode="&#x3c0;" horiz-adv-x="1444" 
d="M1318 899l16 11c11 26 22 53 35 82l34 75c-99 -8 -204 -15 -310 -19s-212 -7 -309 -7c-88 0 -173 1 -261 4c-39 0 -78 1 -118 -6s-79 -19 -115 -47c-27 -24 -45 -55 -58 -89s-22 -71 -30 -107l-7 -32c28 -1 77 -4 105 -5l60 -2c3 21 9 54 25 81c15 27 37 49 73 49h20h7
c3 -1 6 -1 9 -1l-8 -22v1c-48 -140 -96 -278 -150 -420s-115 -285 -186 -433l71 3c26 1 53 3 80 4l80 3c26 1 50 1 71 2c88 281 161 574 232 859c21 -1 40 -1 56 0h54h88s58 0 87 1c-25 -61 -47 -116 -69 -171c-22 -56 -44 -112 -67 -173v1c-23 -56 -46 -113 -65 -172
s-31 -118 -31 -177c0 -73 36 -136 90 -180c54 -45 125 -71 197 -71c29 0 65 6 100 13c2 15 4 32 7 51c4 38 10 79 15 117c3 19 5 36 7 51c-36 -5 -69 -8 -92 -8h-12c-3 -1 -6 -1 -11 -1c-40 0 -70 33 -70 72c0 44 14 91 27 138l15 56v-1c47 153 92 310 148 462l45 2l58 3z
" />
    <glyph glyph-name="endash" unicode="&#x2013;" horiz-adv-x="1411" 
d="M212 646l-13 -34c12 -10 18 -23 18 -40c0 -21 -27 -49 -81 -86c41 0 85 0 132 1c95 0 194 1 290 1h132h133c95 0 195 -1 291 -1c47 -1 92 -1 133 -1c-51 31 -76 55 -76 72c0 9 8 22 23 38s36 33 64 51c-83 -1 -180 -2 -279 -2c-49 -1 -98 -1 -145 -1
c-48 -1 -92 -1 -133 -1c-164 0 -327 1 -489 3z" />
    <glyph glyph-name="emdash" unicode="&#x2014;" horiz-adv-x="2306" 
d="M170 646l-8 -37c17 -9 39 -21 44 -46c-7 -16 -29 -27 -48 -36l-15 -8l8 -33c331 1 665 2 996 2s664 -1 995 -2l7 34c-21 11 -50 20 -54 48c8 15 31 26 50 37l-3 -1l15 6l-6 36c-331 -3 -662 -3 -993 -3c-329 0 -658 1 -988 3z" />
    <glyph glyph-name="quoteleft" unicode="&#x2018;" horiz-adv-x="619" 
d="M498 909l20 18c3 63 7 128 12 191c20 63 44 131 69 199s50 135 74 196c-64 -8 -123 -12 -180 -15c-24 -39 -53 -87 -81 -135c-29 -49 -57 -99 -80 -139l-62 -106l-6 -52c-3 -19 -5 -39 -8 -58c-5 -40 -12 -79 -17 -111c69 9 131 13 187 13h36c12 -1 24 -1 36 -1z" />
    <glyph glyph-name="quoteright" unicode="&#x2019;" horiz-adv-x="614" 
d="M398 1491l-20 -19c-1 -27 -3 -54 -5 -81l-6 -82l-19 -62c-17 -51 -38 -108 -58 -165c-21 -57 -43 -115 -63 -164l54 8c30 3 51 5 68 6c8 0 16 0 24 1c3 0 8 0 15 1h14c23 36 46 74 70 114l110 187c14 25 28 49 42 72c2 14 4 30 7 47c4 34 10 70 15 104c3 17 5 32 7 46
c-76 -11 -133 -14 -189 -14h-33c-11 0 -22 0 -33 1z" />
    <glyph glyph-name="quotesinglbase" unicode="&#x201a;" horiz-adv-x="562" 
d="M131 268l-20 -19c-3 -51 -6 -102 -11 -153c-16 -49 -36 -106 -56 -162s-41 -113 -60 -161c20 3 37 5 52 7c28 3 52 5 70 6c9 1 17 1 26 2c61 97 126 209 183 309c3 25 7 59 12 92c3 17 5 33 8 49c2 15 4 29 7 42c-64 -9 -116 -13 -160 -13h-25c-8 0 -17 0 -26 1z" />
    <glyph glyph-name="quotedblleft" unicode="&#x201c;" horiz-adv-x="1108" 
d="M975 872l20 22c-4 35 -5 66 -5 101c0 30 1 61 3 92c37 124 83 250 163 398c-11 -1 -25 -1 -41 -2l-49 -3c-34 -1 -68 -3 -91 -4c-84 -113 -148 -226 -216 -339l-28 -45c-5 -64 -8 -150 -11 -214c13 0 29 0 49 -1c40 -1 76 -2 128 -2zM478 876l20 17c11 64 20 128 27 193
c24 68 44 132 65 200l14 44c5 16 11 32 16 49l31 91c-6 0 -13 0 -22 1c-17 0 -37 1 -53 1h-22c-23 0 -57 2 -80 3c-64 -125 -137 -264 -210 -385c-9 -69 -25 -143 -48 -224c40 3 86 5 132 6s91 3 130 4z" />
    <glyph glyph-name="quotedblright" unicode="&#x201d;" horiz-adv-x="1057" 
d="M859 1474l-20 -16c-11 -61 -18 -119 -26 -179c-10 -28 -20 -57 -30 -88c-20 -61 -40 -123 -59 -185c-9 -31 -18 -61 -27 -89h19c16 -1 34 -2 51 -2h20h38c14 -1 27 -1 38 -1c60 129 127 245 196 361c11 64 23 132 46 209c-36 -3 -79 -4 -122 -6c-44 -2 -87 -4 -124 -4z
M395 1478l-20 -19c0 -7 0 -13 1 -20v-20c1 -27 2 -51 2 -78c0 -23 -1 -41 -2 -64c-35 -116 -75 -234 -152 -373c13 1 35 3 58 4c11 0 23 0 34 1s20 1 27 1l51 2c75 101 135 201 195 304l34 57c4 59 9 139 12 198c-11 1 -26 1 -45 2l-121 3c-25 0 -49 1 -74 2z" />
    <glyph glyph-name="quotedblbase" unicode="&#x201e;" horiz-adv-x="1115" 
d="M666 390l-20 -16c-5 -31 -10 -63 -14 -97c-5 -34 -9 -66 -13 -97c-21 -60 -44 -128 -65 -195l-61 -196h16h21c7 -1 13 -1 20 -1h16c31 0 72 -1 103 -2c64 131 133 261 213 389c12 72 26 145 50 226c-40 -3 -87 -5 -133 -7s-93 -4 -133 -4zM164 393l-20 -20
c2 -33 3 -66 3 -98c0 -35 -1 -64 -2 -97c-39 -128 -84 -257 -160 -400l78 2l51 3c18 0 35 0 50 1c73 99 137 205 196 306l50 82c5 60 8 124 11 184c0 2 0 7 1 16v16c-20 0 -41 0 -62 1c-22 0 -44 0 -66 1c-45 0 -90 2 -130 3z" />
    <glyph glyph-name="dagger" unicode="&#x2020;" horiz-adv-x="1181" 
d="M649 1451l-20 -19c-3 -50 -7 -100 -11 -150l-12 -150c-1 -24 -4 -53 -7 -76c-108 1 -218 7 -338 19l-4 -72c-1 -27 -4 -71 -7 -96c104 -8 229 -14 336 -15c-29 -351 -62 -694 -95 -1045h65c7 0 15 0 22 1h22c21 0 61 -1 82 -2c24 345 55 701 86 1046c113 1 225 6 338 13
c1 21 5 52 9 84l6 47c1 15 3 27 4 38c-108 -9 -232 -17 -341 -18c1 16 3 31 4 46c1 14 3 28 4 42c2 27 4 55 8 88l22 220c-23 -1 -65 -2 -86 -2h-43c-14 0 -29 0 -44 1z" />
    <glyph glyph-name="daggerdbl" unicode="&#x2021;" horiz-adv-x="1278" 
d="M1027 160l21 18c1 22 3 44 4 66c1 21 3 43 4 65l5 86c-104 7 -215 9 -319 10l9 155l9 166c2 55 5 111 8 166c113 1 225 6 338 13c1 21 5 52 9 84l6 47c1 15 3 27 4 38c-108 -9 -232 -17 -341 -18c3 32 5 60 8 88c1 13 3 27 4 42c1 14 3 29 5 46c3 33 6 70 10 110l11 110
c-21 -1 -63 -2 -86 -2c-29 0 -77 1 -106 2c-7 -100 -15 -220 -24 -320c-1 -24 -4 -53 -7 -76c-108 1 -218 7 -338 19l-4 -72c-1 -27 -4 -71 -7 -96c105 -8 228 -14 336 -15c-2 -17 -4 -31 -5 -42s-3 -25 -5 -42c-16 -135 -33 -268 -52 -403c-107 -3 -213 -5 -318 -10
c-3 -37 -9 -90 -14 -127l-3 -25c-1 -10 -3 -20 -4 -30c-3 -20 -5 -42 -6 -55c96 8 208 14 304 17c-5 -27 -9 -51 -12 -71c-3 -21 -6 -45 -11 -72l-30 -188l79 3c14 0 28 0 41 1h37c47 0 110 -1 155 -2v51c-1 20 -1 37 -1 50v83v73c0 23 1 47 2 72c95 -1 189 -7 284 -15z" />
    <glyph glyph-name="bullet" unicode="&#x2022;" horiz-adv-x="868" 
d="M197 763c-1 -5 -1 -10 -1 -15v-17c0 -84 27 -148 73 -191c46 -44 110 -67 186 -67s153 24 212 80c65 64 94 157 94 242c0 76 -27 139 -71 183c-45 44 -110 69 -183 69c-76 0 -159 -23 -220 -79c-51 -55 -83 -133 -90 -205z" />
    <glyph glyph-name="ellipsis" unicode="&#x2026;" horiz-adv-x="2046" 
d="M295 381l-181 4c36 -60 52 -115 52 -163c0 -64 -27 -138 -87 -213c25 1 52 1 82 2c30 0 61 0 92 1c63 1 125 2 173 2c35 72 55 148 55 220c0 45 -9 94 -25 145c-24 0 -51 0 -80 1c-30 1 -57 1 -81 1zM1477 380l-18 -11c-35 -65 -53 -137 -53 -209c0 -47 10 -95 29 -146
c49 0 111 -1 173 -2c31 -1 61 -1 91 -1c29 -1 56 -1 81 -2c-40 59 -59 113 -59 158c0 67 31 143 91 218c-49 -1 -108 -3 -167 -3c-30 -1 -59 -1 -88 -1c-29 -1 -55 -1 -80 -1zM1131 377h-338c0 -117 -8 -236 -33 -361h340c-4 43 -4 62 -4 82c0 87 12 179 35 279z" />
    <glyph glyph-name="perthousand" unicode="&#x2030;" horiz-adv-x="2778" 
d="M601 1495h-12c-2 0 -4 0 -5 1h-5c-40 0 -81 -8 -119 -24c-38 -17 -75 -42 -100 -78c-32 -43 -50 -92 -61 -141s-14 -101 -14 -150c3 -104 19 -211 74 -296c51 -69 135 -109 223 -109c93 0 187 29 252 105v-1c41 44 68 97 85 152c16 55 22 112 22 167
c0 100 -32 192 -91 260c-60 68 -145 111 -249 114zM1658 1480h-182c-63 -82 -125 -166 -186 -252s-122 -171 -183 -255c-116 -163 -231 -324 -354 -487c-124 -164 -257 -328 -406 -495c33 1 80 3 127 4s94 3 127 4c120 144 230 289 335 437c104 147 203 294 302 442
c33 48 66 98 101 149s70 103 106 154c72 103 144 206 213 299zM596 1353h9c49 0 93 -22 122 -56s47 -81 47 -129v-5c-1 -2 -1 -4 -1 -5v-23c0 -43 -16 -87 -43 -122c-28 -35 -66 -58 -111 -58c-4 0 -8 0 -11 1h-10c-48 0 -86 24 -110 60c-25 36 -38 83 -38 127v7
c0 1 0 3 1 4v4v13c0 41 9 87 37 134c28 32 68 48 108 48zM2269 793c-92 0 -182 -33 -246 -108v1c-40 -43 -67 -94 -83 -148s-23 -113 -23 -166c0 -96 25 -191 89 -262h-1c68 -84 173 -115 282 -115c40 0 82 8 119 24s70 42 94 78l-1 -1c33 43 51 92 62 142s13 101 13 150
c0 104 -16 207 -76 294c-52 75 -137 111 -229 111zM1537 791c-89 0 -182 -34 -247 -106c-43 -49 -72 -108 -91 -168c-19 -61 -27 -124 -27 -183c0 -77 18 -156 65 -217c29 -39 69 -66 114 -82c44 -17 94 -25 142 -25c43 0 88 9 130 27s81 42 110 77c37 44 63 99 79 156
c16 56 23 114 23 166c0 91 -17 176 -69 248s-137 107 -229 107zM1516 652h24c40 0 73 -18 97 -45c23 -28 36 -65 36 -104c0 -48 -13 -99 -40 -138c-27 -40 -67 -67 -122 -67h-4c-1 0 -5 1 -10 2l-9 -2h-5c-39 0 -72 16 -96 43s-39 61 -39 100c0 48 15 101 43 142
c28 40 70 69 125 69zM2248 651h23c43 0 77 -19 101 -49s37 -71 37 -112v-9c0 -3 0 -7 -1 -10v-10c0 -1 0 -2 1 -3v-4c0 -40 -16 -81 -41 -112c-25 -32 -61 -53 -102 -53h-7c-3 0 -6 0 -9 1h-13c-43 0 -81 19 -108 48s-43 68 -43 111c0 3 0 7 1 11v10v11c0 43 19 85 48 117
s69 53 113 53z" />
    <glyph glyph-name="guilsinglleft" unicode="&#x2039;" horiz-adv-x="834" 
d="M667 1025l-33 18c-88 -84 -178 -158 -271 -234c-63 -51 -130 -108 -193 -161l-7 -88c57 -61 125 -124 186 -183c36 -35 80 -78 124 -122c44 -45 87 -90 120 -127v49c0 19 0 39 1 60c0 40 2 82 3 109c-72 80 -154 158 -230 233c-4 3 -7 7 -10 11l-11 11l58 49
c80 67 163 136 239 208c3 17 7 42 8 61c3 18 5 36 8 54c2 17 5 35 8 52z" />
    <glyph glyph-name="guilsinglright" unicode="&#x203a;" horiz-adv-x="822" 
d="M285 1043l-34 -13c0 -53 -2 -115 -5 -168c60 -72 128 -135 189 -195l63 -62l-48 -41c-13 -12 -30 -26 -49 -41c-67 -56 -137 -114 -201 -174c-1 -10 -3 -21 -4 -34s-3 -24 -4 -34l-5 -33c-2 -15 -4 -30 -7 -45s-5 -30 -7 -44c-3 -15 -5 -26 -6 -34c39 36 92 83 148 131
c55 48 111 96 155 133c67 55 138 114 203 171l7 87c-47 47 -102 100 -150 147c-84 80 -166 161 -245 249z" />
    <glyph glyph-name="fraction" unicode="&#x2044;" horiz-adv-x="1215" 
d="M1090 1497l-13 -8c-177 -243 -356 -505 -523 -753c-41 -61 -84 -123 -127 -188c-44 -65 -88 -129 -133 -194c-90 -130 -180 -259 -267 -378c8 1 18 2 31 4c13 1 26 3 40 4l40 4c13 1 23 2 31 3l43 4c172 236 338 481 501 724c87 128 179 265 274 401s190 272 282 396
c-11 -1 -25 -3 -40 -5c-16 -2 -32 -4 -49 -5c-17 -2 -33 -4 -49 -5c-16 -2 -30 -3 -41 -4z" />
    <glyph glyph-name="trademark" unicode="&#x2122;" horiz-adv-x="1713" 
d="M874 1453l-19 19c-163 3 -346 5 -507 12l10 -60c3 -13 8 -41 11 -53c56 -3 125 -4 185 -4c-4 -149 -29 -302 -92 -461h22h28s20 0 29 1h25c12 0 27 0 44 1s32 1 45 1c21 113 31 224 31 329c0 43 -1 82 -4 126c19 -1 35 -1 47 0h47h49c19 -1 35 -1 48 -1v55c0 5 0 11 1 17
v18zM977 1472l-15 -94c-23 -149 -49 -318 -74 -467h192c-3 40 -3 100 -3 140c0 89 2 178 6 267c35 -117 72 -237 127 -361h105c43 123 92 241 156 350c-23 -89 -34 -178 -34 -269c0 -41 3 -85 9 -132h19c7 -1 15 -1 24 -1h26c8 -1 15 -1 21 -1l101 -4
c-25 87 -37 166 -37 241c0 105 22 220 67 341h-18c-16 0 -33 -1 -49 -1c-9 -1 -16 -1 -22 -1c-31 -1 -67 -2 -98 -2c-85 -97 -148 -192 -212 -299c-20 45 -35 84 -48 121s-26 75 -42 123v-1l-17 50h-184z" />
    <glyph glyph-name="Omega" unicode="&#x2126;" horiz-adv-x="1745" 
d="M1473 242l-19 20c-88 7 -176 11 -265 14c36 32 75 67 112 106c36 39 70 79 97 119c37 60 61 130 75 200s18 140 18 204c0 143 -33 279 -124 387c-55 64 -124 109 -200 138c-77 29 -162 42 -247 42c-91 0 -181 -12 -268 -40c-87 -29 -169 -75 -240 -140
c-72 -79 -124 -172 -157 -271c-33 -100 -48 -204 -48 -301c0 -76 9 -151 41 -219c43 -85 101 -158 168 -226c-52 -1 -98 -3 -143 -5s-90 -5 -142 -9c-3 -18 -7 -38 -11 -59c-5 -22 -9 -44 -13 -67c-9 -46 -19 -91 -27 -127c95 8 201 14 306 19s210 8 305 9l8 87
c5 45 11 107 15 154c-100 33 -175 96 -224 177c-49 80 -74 177 -74 281c0 75 8 161 31 245c23 83 60 163 117 226c44 43 99 75 157 97s120 33 177 33s117 -10 170 -30c52 -21 100 -53 135 -97c60 -80 79 -183 79 -287c0 -131 -26 -269 -88 -386s-161 -213 -304 -258
c-1 -23 -3 -49 -4 -76c-1 -28 -3 -53 -4 -76l-5 -90c203 -1 402 -11 602 -28c-3 72 -6 162 -6 234z" />
    <glyph glyph-name="partialdiff" unicode="&#x2202;" horiz-adv-x="1076" 
d="M530 810c-89 0 -166 -30 -228 -78s-111 -115 -143 -190s-49 -157 -49 -236c0 -75 15 -146 66 -202h-1c56 -69 144 -95 235 -95c75 0 146 19 210 55s118 87 161 151v-1c69 96 114 211 142 327s38 235 38 339c0 96 -13 189 -60 272l1 -1c-24 45 -61 81 -105 105
s-96 37 -148 37c-48 0 -115 -10 -170 -34c-56 -25 -100 -65 -103 -124c0 -12 0 -22 7 -32s22 -17 51 -21l12 -1c24 0 47 14 58 37c37 29 88 33 136 38c9 1 19 3 29 4l28 3c40 -1 65 -21 81 -49c15 -29 20 -67 20 -106c0 -113 -25 -232 -53 -347c-35 88 -116 149 -215 149z
M649 549v-1c-8 -84 -34 -174 -81 -244c-48 -70 -117 -120 -209 -120c-31 0 -64 7 -90 27s-44 53 -44 105c0 14 1 28 3 42c11 84 37 177 84 249c47 71 115 122 210 122c40 0 72 -18 95 -45c23 -28 35 -66 35 -103c0 -9 -1 -20 -3 -32z" />
    <glyph glyph-name="Delta" unicode="&#x2206;" horiz-adv-x="1684" 
d="M1313 276c32 -89 67 -179 105 -269c-239 19 -459 29 -674 29c-112 0 -234 -3 -355 -8s-243 -13 -355 -21c196 333 347 664 494 983c32 71 67 148 103 225c35 76 71 152 104 221h141c25 0 64 1 91 2c17 -59 35 -120 52 -183c35 -127 75 -271 125 -447s105 -353 169 -532z
M946 335c58 -1 116 -3 181 -4c-65 203 -122 406 -181 613c-35 123 -70 244 -106 368c-64 -135 -127 -270 -189 -405c-88 -195 -174 -384 -271 -577c128 4 256 6 383 6h94c30 0 60 0 89 -1z" />
    <glyph glyph-name="product" unicode="&#x220f;" horiz-adv-x="1755" 
d="M361 1464l-22 -20c-3 -595 -57 -1203 -162 -1820c18 2 38 4 60 7s45 5 68 7c46 4 91 7 127 10c76 527 123 1053 147 1574c119 -7 219 -9 339 -9c121 0 241 3 362 10c-65 -515 -111 -1037 -124 -1573c17 -1 37 -3 59 -5c44 -4 89 -9 133 -14c22 -3 42 -5 59 -7
c0 608 55 1225 162 1842c-219 -26 -431 -39 -636 -39c-192 0 -381 10 -572 37z" />
    <glyph glyph-name="summation" unicode="&#x2211;" horiz-adv-x="1800" 
d="M338 1405v-46c0 -17 0 -32 -1 -46c152 -157 325 -324 484 -475c97 -92 192 -184 288 -277c-115 -88 -213 -161 -329 -246c-199 -145 -399 -295 -591 -448l-16 -100c-7 -36 -13 -69 -18 -100l-10 -43c232 24 451 38 662 38c207 0 420 -13 645 -38v30c-1 23 -2 45 -2 68
c-1 11 -1 21 -1 30c0 12 0 24 1 36v35v87c-213 19 -414 27 -611 27c-104 0 -208 -1 -312 -5l82 60c49 36 97 70 147 106l82 60c180 129 376 272 553 407c-236 231 -493 475 -736 703l78 -3c23 -1 46 -1 69 -2c22 -1 45 -1 69 -1h79c196 0 396 9 607 30c3 25 10 62 15 87
l3 19c1 7 3 15 4 23s3 16 4 24l3 19c-225 -25 -436 -37 -643 -37c-196 0 -389 10 -584 33l-21 -20v-35z" />
    <glyph glyph-name="minus" unicode="&#x2212;" horiz-adv-x="1666" 
d="M229 737l-11 -35c16 -12 23 -30 23 -50c0 -12 -7 -27 -22 -45s-39 -37 -70 -56l341 3c60 0 119 0 177 1h164h165c58 -1 117 -1 177 -1l342 -3c-29 18 -51 34 -64 49c-13 14 -20 26 -20 36c0 13 8 28 25 46c16 18 40 37 71 56c-103 -1 -222 -2 -342 -2
c-60 -1 -119 -1 -177 -1c-59 -1 -113 -1 -164 -1c-205 0 -410 1 -615 3z" />
    <glyph glyph-name="middot.001" unicode="&#x2219;" horiz-adv-x="626" 
d="M244 917l-21 -19c0 -100 -8 -206 -31 -323c61 7 112 9 148 9c40 0 86 -3 141 -8v37v9c-1 3 -1 6 -1 9c0 87 13 185 32 289c-60 -7 -114 -10 -151 -10c-39 0 -77 3 -117 7z" />
    <glyph glyph-name="radical" unicode="&#x221a;" horiz-adv-x="1404" 
d="M1288 1630l-16 -11c-153 -293 -298 -614 -431 -915c-27 -62 -55 -125 -84 -188s-57 -126 -85 -188c-7 25 -14 48 -19 70c-12 43 -22 83 -33 126c-5 21 -11 44 -18 68c-31 123 -69 261 -102 384l-82 -27c-62 -21 -97 -33 -141 -49c-22 -8 -41 -15 -58 -20l9 -46l11 -53
c4 1 9 3 15 6c6 2 12 4 19 7l32 11c9 3 18 6 26 9c7 2 16 5 25 9c29 -113 55 -216 82 -327c40 -161 84 -337 127 -498c5 0 11 0 18 1c15 0 31 1 46 1h17c49 101 96 205 143 310s93 209 139 311c135 305 266 602 421 901c19 1 38 3 58 6s39 5 56 7c1 6 3 14 4 25s3 19 4 25
c1 3 2 8 3 14c3 12 6 25 8 37c1 6 1 11 2 14c-59 -7 -139 -15 -196 -20z" />
    <glyph glyph-name="infinity" unicode="&#x221e;" horiz-adv-x="1489" 
d="M879 299c53 -40 115 -60 186 -60c76 0 133 31 175 78s69 111 86 177c16 66 22 132 22 188c0 79 -18 157 -57 217c-40 59 -100 99 -185 99c-79 0 -146 -29 -204 -74s-108 -105 -145 -168c-28 63 -66 122 -115 166s-113 72 -193 72c-76 0 -133 -31 -175 -78
c-42 -48 -69 -112 -85 -178s-22 -134 -22 -189c0 -80 17 -158 57 -217c39 -59 99 -97 186 -97c77 0 146 28 203 72c57 43 105 102 142 165c33 -64 69 -126 124 -173zM828 649h1c35 63 74 131 123 184c49 52 107 89 179 89c44 0 78 -17 102 -46c23 -29 35 -70 35 -115
c0 -64 -18 -131 -54 -182s-90 -86 -161 -86c-107 0 -186 64 -225 156zM688 641l1 1c-17 -32 -34 -64 -56 -92s-48 -53 -80 -66l2 1c-51 -17 -98 -23 -147 -23c-51 0 -87 25 -111 61s-35 85 -35 133c0 57 17 115 50 159c32 44 80 73 143 73s113 -33 146 -80
c35 -52 68 -104 92 -159z" />
    <glyph glyph-name="integral" unicode="&#x222b;" horiz-adv-x="1054" 
d="M243 -173c0 68 -28 114 -92 114c-45 0 -86 -17 -114 -45c-29 -28 -47 -68 -47 -112c0 -40 17 -68 43 -87c26 -20 60 -29 96 -29c132 0 227 58 296 149c68 91 111 212 140 340c29 127 46 258 62 369l18 155c16 157 33 314 72 481v-1c3 9 6 18 8 28s4 20 7 29
c8 32 18 67 32 98s33 57 62 73c3 -3 3 -14 3 -22c0 -77 25 -122 97 -122c44 0 82 18 110 47c28 28 44 67 44 108s-17 70 -42 90c-25 19 -59 28 -95 28c-131 0 -225 -57 -294 -145c-69 -89 -113 -210 -144 -337c-31 -128 -48 -263 -63 -379c-1 -9 -3 -19 -4 -30
s-3 -22 -4 -31c-2 -14 -4 -29 -5 -45c-1 -17 -3 -32 -4 -47c-17 -145 -36 -308 -69 -472c-1 -5 -3 -10 -4 -15s-3 -10 -4 -15l1 1c-7 -28 -14 -58 -31 -103c-7 -19 -15 -41 -26 -60c-12 -20 -26 -35 -45 -39c-4 3 -4 15 -4 26z" />
    <glyph glyph-name="approxequal" unicode="&#x2248;" horiz-adv-x="1563" 
d="M1432 1018l33 -19c-17 -52 -33 -110 -44 -174c-57 -41 -118 -78 -181 -105c-64 -27 -130 -43 -198 -43c-83 3 -161 24 -233 55l2 -1c-9 3 -19 8 -30 13h-2c-73 33 -151 68 -232 68c-55 0 -113 -19 -171 -48s-117 -70 -170 -115c2 19 3 36 4 51c1 14 1 27 2 38s1 20 1 29
v26v59c108 87 238 138 367 138c84 -12 165 -36 244 -67l15 -7h-1l21 -8c68 -28 145 -52 221 -55c63 0 135 22 200 54c64 32 120 74 152 111zM1225 532c53 27 103 63 150 102l25 -29c-5 -5 -8 -20 -9 -38c-1 -9 -1 -19 -1 -28v-25v-32c0 -13 0 -24 1 -33
c-101 -84 -223 -140 -346 -140c-88 0 -187 27 -267 58l-25 10l-6 3c-72 32 -147 65 -227 65c-63 0 -130 -22 -198 -56s-136 -79 -201 -122c27 81 47 151 58 207c57 40 119 77 183 105c64 27 130 44 198 44c80 -11 167 -33 240 -68h1v-1l18 -8h-1c1 -1 2 -1 3 -1
c76 -31 153 -59 236 -59c57 0 115 18 168 46z" />
    <glyph glyph-name="notequal" unicode="&#x2260;" horiz-adv-x="1576" 
d="M248 934l-21 -19c-1 -24 -3 -52 -4 -81s-3 -57 -4 -81c183 -7 382 -7 567 -7l-47 -53c-13 -16 -27 -32 -47 -53l-88 -99c-67 -1 -134 -1 -203 -1c-69 -1 -136 -1 -202 -2c-1 -12 -3 -26 -4 -42l-6 -51c-5 -35 -10 -69 -14 -93c40 1 83 3 130 4s91 3 133 4
c-17 -18 -32 -35 -47 -50l-43 -47c-15 -15 -29 -31 -44 -46s-30 -32 -47 -50c39 -39 67 -66 92 -87l27 -21c93 95 198 203 287 303h163c181 0 377 -3 557 -10c1 17 1 36 2 59l3 58l2 69c-181 3 -382 4 -566 4c17 19 32 37 47 54c29 34 58 66 87 99c15 16 30 33 46 51
c133 1 274 3 407 6l13 102l3 18c2 15 4 31 5 45c1 7 1 13 2 18c-42 -1 -86 -3 -132 -4c-46 -2 -91 -4 -135 -5l13 13c2 3 4 5 6 7c1 2 3 4 6 7c2 3 6 7 12 13c45 49 103 112 150 160c-19 13 -50 41 -66 56c-13 13 -40 36 -55 48l-48 -50c-83 -87 -160 -168 -240 -257h-36
c-10 -1 -22 -1 -35 -1h-79c-185 0 -364 3 -547 12z" />
    <glyph glyph-name="lessequal" unicode="&#x2264;" horiz-adv-x="1639" 
d="M1439 1011l7 30c4 20 10 49 17 78l19 78c-185 -64 -381 -124 -577 -180c-197 -56 -395 -109 -584 -158l-113 -30l-3 -45c-1 -17 -1 -32 -2 -44l-5 -89c171 -56 355 -113 528 -164c103 -31 212 -63 321 -97s218 -70 319 -105c0 13 0 28 1 45c0 34 2 70 4 104
c1 17 1 31 2 44c-185 60 -390 122 -578 178l-256 77c159 44 302 84 445 125s285 85 441 138zM156 196l-19 -16c-3 -13 -5 -26 -8 -41c-6 -30 -13 -62 -20 -91c-3 -15 -6 -28 -9 -40c211 15 441 23 652 23c203 0 420 -8 621 -23l-2 50c-3 39 -5 97 -5 137
c-195 11 -405 16 -600 16c-204 0 -407 -5 -610 -15z" />
    <glyph glyph-name="greaterequal" unicode="&#x2265;" horiz-adv-x="1721" 
d="M292 1016l13 -19c240 -88 500 -165 748 -237l88 -26l-84 -24c-50 -14 -96 -27 -146 -42l-85 -24h1c-93 -27 -187 -54 -283 -81s-190 -55 -282 -84l-11 -98c-5 -36 -10 -72 -14 -97c116 37 241 76 366 113c125 36 251 73 368 106c161 47 335 98 496 146c1 13 3 27 5 42
l6 47c4 32 8 64 12 89l-250 70c-305 87 -629 177 -954 298c1 -25 3 -58 4 -90c0 -16 0 -32 1 -47s1 -29 1 -42zM1448 176l-19 20c-192 10 -386 15 -581 15c-204 0 -421 -5 -626 -16c-3 -13 -6 -27 -9 -43c-7 -33 -14 -69 -21 -101l-10 -43c211 15 441 23 652 23
c203 0 420 -8 621 -23l-2 50c-3 39 -5 78 -5 118z" />
    <glyph glyph-name="lozenge" unicode="&#x25ca;" horiz-adv-x="1235" 
d="M696 1575l35 -3c125 -324 246 -651 363 -978c-87 -164 -180 -338 -274 -513s-190 -349 -281 -510c-64 161 -131 335 -195 511c-65 175 -129 350 -185 515c173 328 353 654 537 978zM581 85l62 82c112 148 214 282 322 430c-88 244 -181 491 -273 735
c-140 -248 -272 -490 -405 -739c79 -145 159 -282 244 -426z" />
    <glyph glyph-name="c6459" horiz-adv-x="925" 
d="M735 1471l-18 -14c-12 -47 -17 -90 -17 -134c0 -15 1 -48 2 -61h39c16 -1 29 -1 39 -1h34c13 -1 26 -1 39 -1c13 -1 25 -1 38 -1c13 -1 24 -1 34 -1c-13 38 -20 67 -20 88c0 35 15 79 40 130c-15 -1 -31 -1 -49 -1c-19 -1 -37 -1 -56 -2c-37 -1 -76 -2 -105 -2zM360 1475
l-20 -25c7 -21 10 -40 10 -63c0 -35 -11 -78 -38 -129c10 0 22 0 35 1c13 0 26 0 40 1c13 0 27 0 40 1h33c9 0 22 0 38 1h37c12 56 19 107 19 158v7c-1 2 -1 5 -1 8v36c-30 1 -62 1 -96 2c-35 0 -67 1 -97 2z" />
    <glyph glyph-name="c6460" horiz-adv-x="692" 
d="M536 1497l-14 -7c-24 -28 -49 -59 -73 -88v1c-21 -27 -43 -53 -67 -81c-25 -29 -54 -61 -90 -98c12 1 37 3 62 4c12 1 24 1 35 2s20 1 27 1c16 0 40 1 57 2c17 16 34 34 53 53c36 38 61 65 81 87c10 11 22 23 35 36c26 26 58 57 102 97c-25 -3 -65 -5 -104 -6
c-19 -1 -38 -1 -57 -2s-34 -1 -47 -1z" />
    <glyph glyph-name="c6461" horiz-adv-x="934" 
d="M626 1303h1c47 -23 85 -41 149 -41c51 0 87 24 116 58c28 34 48 77 67 117l24 53h-14h-18c-7 -1 -13 -1 -19 -1h-14c-24 0 -50 -1 -75 -2l11 -35c-5 -3 -13 -8 -23 -13c-21 -12 -41 -25 -54 -34c-7 -5 -9 -8 -8 -9c-29 0 -48 9 -67 21c-3 3 -8 6 -12 9l1 -1
c-53 32 -103 61 -170 61h-16c-49 0 -104 -24 -137 -76c-9 -14 -16 -28 -22 -43c-7 -15 -13 -30 -20 -44l-26 -64h17c7 0 14 0 22 1h21c13 0 26 1 37 2c5 1 8 3 8 8l36 -6c5 20 15 43 28 61s29 31 49 31c27 0 51 -17 76 -33z" />
    <glyph glyph-name="c6462" horiz-adv-x="758" 
d="M567 1489l-15 8c-13 0 -28 0 -45 1c-18 1 -36 1 -55 2c-37 1 -75 3 -100 6c9 -10 19 -22 30 -35l70 -86c11 -15 21 -27 30 -38l46 -57c17 -21 32 -40 47 -57c10 0 23 0 39 -1c15 -1 32 -1 49 -2c34 -1 67 -3 88 -4c-32 39 -55 68 -74 95s-32 49 -47 73
c-20 32 -40 64 -63 95z" />
    <glyph glyph-name="c6463" horiz-adv-x="949" 
d="M500 1445h1c-27 -32 -53 -64 -85 -99s-71 -73 -123 -118h18c8 0 17 0 27 1h27h17c24 1 55 2 79 2c60 49 107 98 155 146l16 16c5 -7 9 -12 11 -14s6 -6 12 -13v-1c37 -47 73 -91 120 -134c24 0 57 -1 81 -2h17h26c9 -1 17 -1 26 -1h17c-47 44 -79 82 -106 119
c-28 36 -49 70 -70 105v-1l-30 48h-192z" />
    <glyph glyph-name="c6466" horiz-adv-x="946" 
d="M980 1504h18c-56 -48 -99 -90 -135 -130s-67 -79 -96 -116l-21 -26c-15 1 -30 1 -47 1h-48h-48c-18 0 -34 0 -48 -1l-41 62c-20 32 -41 64 -66 98s-56 71 -96 112h17h24c9 -1 17 -1 25 -1h16c24 -1 56 -2 80 -2c52 -52 94 -101 134 -152c3 -3 5 -5 5 -4l4 -5l13 13
c47 48 102 101 159 148c24 0 55 1 79 2h17c9 0 18 0 28 1h27zM654 1345c-1 0 -1 0 0 0z" />
    <glyph glyph-name="c6467" horiz-adv-x="968" 
d="M864 958c9 -1 17 -1 24 -1c-1 -8 -2 -19 -3 -34l-3 -36c0 -11 -1 -32 -4 -52h-28c-9 1 -18 1 -25 2c-7 0 -14 0 -21 1c-14 1 -29 2 -48 2c-3 -56 -4 -126 -4 -177c-10 1 -22 1 -36 2c-14 0 -28 0 -43 1c-30 1 -60 2 -80 2c1 19 3 42 4 68s3 49 4 68l3 38h-58
c-101 0 -225 -4 -326 -9c1 9 2 19 4 31l9 71c1 11 3 21 4 30c129 167 264 333 401 493l15 7c49 1 120 3 169 6c-31 -184 -45 -347 -58 -510h10c3 -1 7 -1 10 -1c13 0 33 -1 52 -1c9 -1 19 -1 28 -1zM547 962h65c9 115 19 232 32 348c-35 -41 -68 -83 -101 -124l-101 -125
l-81 -100c12 0 26 0 43 1h50h51h42z" />
    <glyph glyph-name="c6468" horiz-adv-x="908" 
d="M464 1488l-14 14c-5 1 -12 2 -21 2s-18 0 -26 -1c-4 0 -8 -1 -11 -2c-8 -3 -17 -12 -25 -32c-5 -11 -9 -26 -14 -45c15 -43 33 -82 73 -118c56 -43 127 -50 198 -51c35 1 72 3 109 11s75 22 111 50c43 35 62 81 85 126l31 63h-12h-19c-7 -1 -13 -1 -18 -1h-13
c-23 0 -52 -1 -75 -2c-20 -35 -47 -61 -78 -79c-32 -18 -66 -27 -99 -27h-7c-1 0 -2 0 -3 1h-4h-4c-1 -1 -3 -1 -4 -1h-6c-68 0 -133 31 -154 92zM353 1424l-2 -8l-9 42z" />
    <glyph glyph-name="c6469" horiz-adv-x="546" 
d="M342 1457v-25c0 -51 -7 -107 -20 -175c8 1 17 1 27 2c10 0 21 0 32 1c22 1 43 2 59 2c28 0 77 -2 105 -5c-1 12 -3 45 -3 58c0 45 7 101 22 165c-47 -5 -88 -8 -115 -8c-28 0 -57 2 -86 5z" />
    <glyph glyph-name="Abreve" unicode="&#x102;" horiz-adv-x="1670" 
d="M658 1923l-16 15c-5 1 -12 2 -20 2c-8 -1 -17 -1 -26 -1c-16 -1 -32 -1 -35 -10l-38 -2c3 -7 5 -15 7 -22l6 -23c13 -57 29 -118 80 -177c51 -47 126 -57 198 -57c73 0 156 12 224 75c39 41 62 90 85 142l34 77h-12h-18c-7 -1 -13 -1 -18 -1h-13c-23 -1 -56 -2 -76 -2
c-16 -40 -43 -76 -75 -102s-70 -42 -109 -42h-7c-1 0 -2 0 -3 1h-3h-3c-1 -1 -3 -1 -4 -1h-6c-37 0 -72 13 -99 37c-27 23 -46 55 -53 91zM945 1455h-197c-69 -141 -143 -303 -210 -447c-149 -324 -307 -664 -504 -1001l69 6c25 1 51 3 78 5l77 6c25 1 48 3 68 4
c17 37 36 75 56 116c19 41 37 80 52 118c108 3 201 3 309 3c103 0 203 0 306 -3c15 -79 32 -156 51 -233c44 -3 99 -6 153 -10s108 -8 151 -12c-76 181 -139 360 -195 537c-56 176 -105 350 -154 525c-35 125 -73 262 -110 386zM902 917c17 -69 33 -137 49 -205
c15 -68 32 -136 49 -205h-107c-22 0 -44 0 -66 1h-67h-117c-39 0 -78 0 -118 -1c63 149 121 287 181 435l120 297l39 -161c12 -53 24 -107 37 -161z" />
    <glyph glyph-name="Abreveacute" unicode="&#x1eae;" horiz-adv-x="1670" 
d="M1087 2323l-14 -6c-47 -53 -91 -106 -136 -162c-31 -37 -69 -83 -108 -128c-40 -45 -80 -90 -113 -125l45 3c17 1 35 2 54 3c37 2 75 3 99 3c60 57 125 126 181 187l54 57c20 21 41 42 62 64c43 43 85 84 120 116c-32 -3 -77 -5 -122 -7l-66 -3c-21 -1 -40 -2 -56 -2z
M658 1923l-16 15c-5 1 -12 2 -20 2c-8 -1 -17 -1 -26 -1c-16 -1 -32 -1 -35 -10l-38 -2c3 -7 5 -15 7 -22l6 -23c13 -57 29 -118 80 -177c51 -47 126 -57 198 -57c73 0 156 12 224 75c39 41 62 90 85 142l34 77h-12h-18c-7 -1 -13 -1 -18 -1h-13c-23 -1 -56 -2 -76 -2
c-16 -40 -43 -76 -75 -102s-70 -42 -109 -42h-7c-1 0 -2 0 -3 1h-3h-3c-1 -1 -3 -1 -4 -1h-6c-37 0 -72 13 -99 37c-27 23 -46 55 -53 91zM945 1455h-197c-69 -141 -143 -303 -210 -447c-149 -324 -307 -664 -504 -1001l69 6c25 1 51 3 78 5l77 6c25 1 48 3 68 4
c17 37 36 75 56 116c19 41 37 80 52 118c108 3 201 3 309 3c103 0 203 0 306 -3c15 -79 32 -156 51 -233c44 -3 99 -6 153 -10s108 -8 151 -12c-76 181 -139 360 -195 537c-56 176 -105 350 -154 525c-35 125 -73 262 -110 386zM902 917c17 -69 33 -137 49 -205
c15 -68 32 -136 49 -205h-107c-22 0 -44 0 -66 1h-67h-117c-39 0 -78 0 -118 -1c63 149 121 287 181 435l120 297l39 -161c12 -53 24 -107 37 -161z" />
    <glyph glyph-name="Abrevedotbelow" unicode="&#x1eb6;" horiz-adv-x="1670" 
d="M658 1923l-16 15c-5 1 -12 2 -20 2c-8 -1 -17 -1 -26 -1c-16 -1 -32 -1 -35 -10l-38 -2c3 -7 5 -15 7 -22l6 -23c13 -57 29 -118 80 -177c51 -47 126 -57 198 -57c73 0 156 12 224 75c39 41 62 90 85 142l34 77h-12h-18c-7 -1 -13 -1 -18 -1h-13c-23 -1 -56 -2 -76 -2
c-16 -40 -43 -76 -75 -102s-70 -42 -109 -42h-7c-1 0 -2 0 -3 1h-3h-3c-1 -1 -3 -1 -4 -1h-6c-37 0 -72 13 -99 37c-27 23 -46 55 -53 91zM945 1455h-197c-69 -141 -143 -303 -210 -447c-149 -324 -307 -664 -504 -1001l69 6c25 1 51 3 78 5l77 6c25 1 48 3 68 4
c17 37 36 75 56 116c19 41 37 80 52 118c108 3 201 3 309 3c103 0 203 0 306 -3c15 -79 32 -156 51 -233c44 -3 99 -6 153 -10s108 -8 151 -12c-76 181 -139 360 -195 537c-56 176 -105 350 -154 525c-35 125 -73 262 -110 386zM902 917c17 -69 33 -137 49 -205
c15 -68 32 -136 49 -205h-107c-22 0 -44 0 -66 1h-67h-117c-39 0 -78 0 -118 -1c63 149 121 287 181 435l120 297l39 -161c12 -53 24 -107 37 -161zM584 -55v-17c0 -3 0 -5 1 -8v-8c0 -43 -8 -99 -23 -168c8 1 17 1 28 2c11 0 22 0 33 1c22 1 44 2 60 2c13 0 33 -1 52 -2
c9 -1 19 -1 28 -1c9 -1 16 -1 23 -2v7v11c-1 3 -1 7 -1 10v6v13c0 47 8 105 23 176c-48 -4 -88 -7 -115 -7c-29 0 -59 1 -88 4z" />
    <glyph glyph-name="Abrevegrave" unicode="&#x1eb0;" horiz-adv-x="1670" 
d="M821 2387l-16 7c-28 0 -66 2 -103 4s-74 3 -102 6c32 -53 55 -98 75 -138c19 -40 35 -77 51 -114c9 -19 19 -41 29 -64s20 -45 29 -64h44c17 0 37 0 59 -1c21 -1 43 -1 66 -2l67 -3c22 -1 42 -2 59 -3c-37 45 -69 86 -94 123c-51 75 -87 132 -117 180
c-15 23 -31 46 -47 69zM658 1923l-16 15c-5 1 -12 2 -20 2c-8 -1 -17 -1 -26 -1c-16 -1 -32 -1 -35 -10l-38 -2c3 -7 5 -15 7 -22l6 -23c13 -57 29 -118 80 -177c51 -47 126 -57 198 -57c73 0 156 12 224 75c39 41 62 90 85 142l34 77h-12h-18c-7 -1 -13 -1 -18 -1h-13
c-23 -1 -56 -2 -76 -2c-16 -40 -43 -76 -75 -102s-70 -42 -109 -42h-7c-1 0 -2 0 -3 1h-3h-3c-1 -1 -3 -1 -4 -1h-6c-37 0 -72 13 -99 37c-27 23 -46 55 -53 91zM945 1455h-197c-69 -141 -143 -303 -210 -447c-149 -324 -307 -664 -504 -1001l69 6c25 1 51 3 78 5l77 6
c25 1 48 3 68 4c17 37 36 75 56 116c19 41 37 80 52 118c108 3 201 3 309 3c103 0 203 0 306 -3c15 -79 32 -156 51 -233c44 -3 99 -6 153 -10s108 -8 151 -12c-76 181 -139 360 -195 537c-56 176 -105 350 -154 525c-35 125 -73 262 -110 386zM902 917
c17 -69 33 -137 49 -205c15 -68 32 -136 49 -205h-107c-22 0 -44 0 -66 1h-67h-117c-39 0 -78 0 -118 -1c63 149 121 287 181 435l120 297l39 -161c12 -53 24 -107 37 -161z" />
    <glyph glyph-name="Abrevehookabove" unicode="&#x1eb2;" horiz-adv-x="1670" 
d="M536 1882l-6 23c-2 7 -4 15 -7 22l38 2c3 9 19 9 35 10c9 0 18 0 26 1c8 0 15 -1 20 -2l16 -15c7 -36 26 -68 53 -91c27 -24 62 -37 99 -37h6c1 0 3 0 4 1h3h3c1 -1 2 -1 3 -1h7c39 0 77 16 109 42s59 62 75 102c20 0 53 1 76 2h13c5 0 11 0 18 1h18h12l-34 -77
c-23 -52 -46 -101 -85 -142c-33 -30 -69 -49 -106 -60l9 -5c20 -14 31 -31 31 -53c0 -20 -14 -41 -43 -62l-22 -15c-11 -9 -17 -14 -19 -17c-2 -6 -3 -14 -3 -24h-58v6c0 13 2 24 7 33s16 19 32 31l22 17c15 11 23 23 23 36s-19 28 -65 28c-30 0 -60 -9 -93 -26v39
c-51 6 -100 20 -137 54c-51 59 -67 120 -80 177zM1209 544c56 -177 119 -356 195 -537c-43 4 -97 8 -151 12s-109 7 -153 10c-19 77 -36 154 -51 233c-103 3 -203 3 -306 3c-108 0 -201 0 -309 -3c-15 -38 -33 -77 -52 -118c-20 -41 -39 -79 -56 -116c-20 -1 -43 -3 -68 -4
l-77 -6c-27 -2 -53 -4 -78 -5l-69 -6c197 337 355 677 504 1001c67 144 141 306 210 447h197c37 -124 75 -261 110 -386c49 -175 98 -349 154 -525zM893 507h107c-17 69 -34 137 -49 205c-16 68 -32 136 -49 205c-13 54 -25 108 -37 161l-39 161l-120 -297
c-60 -148 -118 -286 -181 -435c40 1 79 1 118 1h117h67c22 -1 44 -1 66 -1z" />
    <glyph glyph-name="Abrevetilde" unicode="&#x1eb4;" horiz-adv-x="1670" 
d="M858 2090l46 -51c39 -40 89 -62 148 -62c53 0 88 22 115 57s45 80 64 128v-1c5 13 14 34 23 54l12 29c4 9 8 17 11 23h-13h-19c-7 -1 -14 -1 -20 -1h-14h-40c-15 -1 -29 -1 -40 -1c-7 -17 -12 -29 -14 -35c-3 -7 -6 -14 -9 -23c-15 -39 -33 -81 -69 -90
c-20 3 -36 17 -51 33l-49 52c-39 39 -90 62 -147 62c-56 0 -113 -38 -144 -102c-11 -23 -23 -53 -32 -78c-2 -5 -3 -7 -2 -7s2 0 3 1c1 0 1 -1 1 -2c-1 -1 -2 -5 -5 -12s-8 -18 -15 -32l-30 -59h17h24c8 0 16 0 24 1h19c17 0 45 2 62 3c12 27 17 40 22 55v-1
c7 20 15 40 27 57c11 17 24 31 41 35c20 -3 38 -17 54 -33zM658 1923l-16 15c-5 1 -12 2 -20 2c-8 -1 -17 -1 -26 -1c-16 -1 -32 -1 -35 -10l-38 -2c3 -7 5 -15 7 -22l6 -23c13 -57 29 -118 80 -177c51 -47 126 -57 198 -57c73 0 156 12 224 75c39 41 62 90 85 142l34 77
h-12h-18c-7 -1 -13 -1 -18 -1h-13c-23 -1 -56 -2 -76 -2c-16 -40 -43 -76 -75 -102s-70 -42 -109 -42h-7c-1 0 -2 0 -3 1h-3h-3c-1 -1 -3 -1 -4 -1h-6c-37 0 -72 13 -99 37c-27 23 -46 55 -53 91zM945 1455h-197c-69 -141 -143 -303 -210 -447
c-149 -324 -307 -664 -504 -1001l69 6c25 1 51 3 78 5l77 6c25 1 48 3 68 4c17 37 36 75 56 116c19 41 37 80 52 118c108 3 201 3 309 3c103 0 203 0 306 -3c15 -79 32 -156 51 -233c44 -3 99 -6 153 -10s108 -8 151 -12c-76 181 -139 360 -195 537
c-56 176 -105 350 -154 525c-35 125 -73 262 -110 386zM902 917c17 -69 33 -137 49 -205c15 -68 32 -136 49 -205h-107c-22 0 -44 0 -66 1h-67h-117c-39 0 -78 0 -118 -1c63 149 121 287 181 435l120 297l39 -161c12 -53 24 -107 37 -161z" />
    <glyph glyph-name="Acaron" unicode="&#x1cd;" horiz-adv-x="1670" 
d="M771 1592h156c11 15 27 40 38 56c65 92 142 203 257 326l-107 -6h1l-65 -2c-61 -63 -107 -118 -154 -178l-37 -46l-1 2c-47 73 -90 146 -151 222c-9 0 -21 0 -35 1c-15 1 -30 1 -45 2c-32 1 -63 3 -82 4c83 -112 130 -201 178 -292zM945 1455h-197
c-69 -141 -143 -303 -210 -447c-149 -324 -307 -664 -504 -1001l69 6c25 1 51 3 78 5l77 6c25 1 48 3 68 4c17 37 36 75 56 116c19 41 37 80 52 118c108 3 201 3 309 3c103 0 203 0 306 -3c15 -79 32 -156 51 -233c44 -3 99 -6 153 -10s108 -8 151 -12
c-76 181 -139 360 -195 537c-56 176 -105 350 -154 525c-35 125 -73 262 -110 386zM902 917c17 -69 33 -137 49 -205c15 -68 32 -136 49 -205h-107c-22 0 -44 0 -66 1h-67h-117c-39 0 -78 0 -118 -1c63 149 121 287 181 435l120 297l39 -161c12 -53 24 -107 37 -161z" />
    <glyph glyph-name="Acircumflexacute" unicode="&#x1ea4;" horiz-adv-x="1670" 
d="M605 1588l-102 -2c51 53 90 99 123 142s59 81 86 120l41 57c-15 -1 -27 -2 -37 -3c33 35 73 80 113 125c39 45 77 91 108 128c45 56 89 109 136 162l14 6c16 0 35 1 56 2l66 3c45 2 90 4 122 7c-35 -32 -77 -73 -120 -116l-62 -64c-20 -21 -38 -40 -54 -57
c-43 -47 -91 -98 -138 -145l34 -66c24 -48 49 -95 78 -144s64 -101 108 -157l-99 2l-65 2c-52 65 -94 131 -135 196l-17 28l-27 -34h1c-51 -61 -100 -122 -165 -190zM1209 544c56 -177 119 -356 195 -537c-43 4 -97 8 -151 12s-109 7 -153 10c-19 77 -36 154 -51 233
c-103 3 -203 3 -306 3c-108 0 -201 0 -309 -3c-15 -38 -33 -77 -52 -118c-20 -41 -39 -79 -56 -116c-20 -1 -43 -3 -68 -4l-77 -6c-27 -2 -53 -4 -78 -5l-69 -6c197 337 355 677 504 1001c67 144 141 306 210 447h197c37 -124 75 -261 110 -386c49 -175 98 -349 154 -525z
M893 507h107c-17 69 -34 137 -49 205c-16 68 -32 136 -49 205c-13 54 -25 108 -37 161l-39 161l-120 -297c-60 -148 -118 -286 -181 -435c40 1 79 1 118 1h117h67c22 -1 44 -1 66 -1z" />
    <glyph glyph-name="Acircumflexdotbelow" unicode="&#x1eac;" horiz-adv-x="1670" 
d="M952 1964h-157c-13 -18 -27 -37 -41 -58l-42 -58c-27 -39 -53 -77 -86 -120s-72 -89 -123 -142l102 2l65 2c65 68 114 129 165 190h-1l27 34l17 -28c41 -65 83 -131 135 -196l65 -2l99 -2c-44 56 -79 108 -108 157s-54 96 -78 144zM945 1455h-197
c-69 -141 -143 -303 -210 -447c-149 -324 -307 -664 -504 -1001l69 6c25 1 51 3 78 5l77 6c25 1 48 3 68 4c17 37 36 75 56 116c19 41 37 80 52 118c108 3 201 3 309 3c103 0 203 0 306 -3c15 -79 32 -156 51 -233c44 -3 99 -6 153 -10s108 -8 151 -12
c-76 181 -139 360 -195 537c-56 176 -105 350 -154 525c-35 125 -73 262 -110 386zM902 917c17 -69 33 -137 49 -205c15 -68 32 -136 49 -205h-107c-22 0 -44 0 -66 1h-67h-117c-39 0 -78 0 -118 -1c63 149 121 287 181 435l120 297l39 -161c12 -53 24 -107 37 -161z
M584 -55v-17c0 -3 0 -5 1 -8v-8c0 -43 -8 -99 -23 -168c8 1 17 1 28 2c11 0 22 0 33 1c22 1 44 2 60 2c13 0 33 -1 52 -2c9 -1 19 -1 28 -1c9 -1 16 -1 23 -2v7v11c-1 3 -1 7 -1 10v6v13c0 47 8 105 23 176c-48 -4 -88 -7 -115 -7c-29 0 -59 1 -88 4z" />
    <glyph glyph-name="Acircumflexgrave" unicode="&#x1ea6;" horiz-adv-x="1670" 
d="M821 2387l-16 7c-28 0 -66 2 -103 4s-74 3 -102 6c32 -53 55 -98 75 -138c19 -40 35 -77 51 -114c9 -19 19 -41 29 -64s20 -45 29 -64h44c17 0 37 0 59 -1c21 -1 43 -1 66 -2l67 -3c22 -1 42 -2 59 -3c-37 45 -69 86 -94 123c-51 75 -87 132 -117 180
c-15 23 -31 46 -47 69zM952 1964h-157c-13 -18 -27 -37 -41 -58l-42 -58c-27 -39 -53 -77 -86 -120s-72 -89 -123 -142l102 2l65 2c65 68 114 129 165 190h-1l27 34l17 -28c41 -65 83 -131 135 -196l65 -2l99 -2c-44 56 -79 108 -108 157s-54 96 -78 144zM945 1455h-197
c-69 -141 -143 -303 -210 -447c-149 -324 -307 -664 -504 -1001l69 6c25 1 51 3 78 5l77 6c25 1 48 3 68 4c17 37 36 75 56 116c19 41 37 80 52 118c108 3 201 3 309 3c103 0 203 0 306 -3c15 -79 32 -156 51 -233c44 -3 99 -6 153 -10s108 -8 151 -12
c-76 181 -139 360 -195 537c-56 176 -105 350 -154 525c-35 125 -73 262 -110 386zM902 917c17 -69 33 -137 49 -205c15 -68 32 -136 49 -205h-107c-22 0 -44 0 -66 1h-67h-117c-39 0 -78 0 -118 -1c63 149 121 287 181 435l120 297l39 -161c12 -53 24 -107 37 -161z" />
    <glyph glyph-name="Acircumflexhookabove" unicode="&#x1ea8;" horiz-adv-x="1670" 
d="M952 1964h-157c-13 -18 -27 -37 -41 -58l-42 -58c-27 -39 -53 -77 -86 -120s-72 -89 -123 -142l102 2l65 2c65 68 114 129 165 190h-1l27 34l17 -28c41 -65 83 -131 135 -196l65 -2l99 -2c-44 56 -79 108 -108 157s-54 96 -78 144zM753 1654v-42c33 17 63 26 93 26
c46 0 65 -15 65 -28s-8 -25 -23 -36l-22 -17c-16 -12 -27 -22 -32 -31s-7 -20 -7 -33v-6h58c0 10 1 18 3 24c2 3 8 8 19 17l22 15c29 21 43 42 43 62c0 22 -11 39 -31 53c-21 14 -48 21 -82 21s-69 -8 -106 -25zM945 1455h-197c-69 -141 -143 -303 -210 -447
c-149 -324 -307 -664 -504 -1001l69 6c25 1 51 3 78 5l77 6c25 1 48 3 68 4c17 37 36 75 56 116c19 41 37 80 52 118c108 3 201 3 309 3c103 0 203 0 306 -3c15 -79 32 -156 51 -233c44 -3 99 -6 153 -10s108 -8 151 -12c-76 181 -139 360 -195 537
c-56 176 -105 350 -154 525c-35 125 -73 262 -110 386zM902 917c17 -69 33 -137 49 -205c15 -68 32 -136 49 -205h-107c-22 0 -44 0 -66 1h-67h-117c-39 0 -78 0 -118 -1c63 149 121 287 181 435l120 297l39 -161c12 -53 24 -107 37 -161z" />
    <glyph glyph-name="Acircumflextilde" unicode="&#x1eaa;" horiz-adv-x="1670" 
d="M858 2090l46 -51c39 -40 89 -62 148 -62c53 0 88 22 115 57s45 80 64 128v-1c5 13 14 34 23 54l12 29c4 9 8 17 11 23h-13h-19c-7 -1 -14 -1 -20 -1h-14h-40c-15 -1 -29 -1 -40 -1c-7 -17 -12 -29 -14 -35c-3 -7 -6 -14 -9 -23c-15 -39 -33 -81 -69 -90
c-20 3 -36 17 -51 33l-49 52c-39 39 -90 62 -147 62c-56 0 -113 -38 -144 -102c-11 -23 -23 -53 -32 -78c-2 -5 -3 -7 -2 -7s2 0 3 1c1 0 1 -1 1 -2c-1 -1 -2 -5 -5 -12s-8 -18 -15 -32l-30 -59h17h24c8 0 16 0 24 1h19c17 0 45 2 62 3c12 27 17 40 22 55v-1
c7 20 15 40 27 57c11 17 24 31 41 35c20 -3 38 -17 54 -33zM952 1964h-157c-13 -18 -27 -37 -41 -58l-42 -58c-27 -39 -53 -77 -86 -120s-72 -89 -123 -142l102 2l65 2c65 68 114 129 165 190h-1l27 34l17 -28c41 -65 83 -131 135 -196l65 -2l99 -2c-44 56 -79 108 -108 157
s-54 96 -78 144zM945 1455h-197c-69 -141 -143 -303 -210 -447c-149 -324 -307 -664 -504 -1001l69 6c25 1 51 3 78 5l77 6c25 1 48 3 68 4c17 37 36 75 56 116c19 41 37 80 52 118c108 3 201 3 309 3c103 0 203 0 306 -3c15 -79 32 -156 51 -233c44 -3 99 -6 153 -10
s108 -8 151 -12c-76 181 -139 360 -195 537c-56 176 -105 350 -154 525c-35 125 -73 262 -110 386zM902 917c17 -69 33 -137 49 -205c15 -68 32 -136 49 -205h-107c-22 0 -44 0 -66 1h-67h-117c-39 0 -78 0 -118 -1c63 149 121 287 181 435l120 297l39 -161
c12 -53 24 -107 37 -161z" />
    <glyph glyph-name="Adieresismacron" unicode="&#x1de;" horiz-adv-x="1670" 
d="M555 1672c-21 -1 -40 -1 -57 -2c31 56 42 103 42 140c0 23 -3 46 -9 68l19 25c32 -1 67 -2 104 -2c37 -1 72 -1 104 -2c1 -8 1 -25 2 -40h85c23 0 49 0 77 1h12c1 8 3 16 5 24l17 15c32 1 65 2 97 2l130 2c-7 -14 -13 -27 -19 -40h2c-1 -2 -3 -4 -4 -5
c-14 -36 -22 -68 -22 -94c0 -17 4 -38 11 -63l2 -2h-1c3 -9 6 -18 10 -28l-124 2c-32 0 -82 2 -114 3l-3 25h-10h-76h-76h-12c-2 -9 -3 -17 -5 -26c-32 0 -77 -1 -121 -2c-23 -1 -45 -1 -66 -1zM1209 544c56 -177 119 -356 195 -537c-43 4 -97 8 -151 12s-109 7 -153 10
c-19 77 -36 154 -51 233c-103 3 -203 3 -306 3c-108 0 -201 0 -309 -3c-15 -38 -33 -77 -52 -118c-20 -41 -39 -79 -56 -116c-20 -1 -43 -3 -68 -4l-77 -6c-27 -2 -53 -4 -78 -5l-69 -6c197 337 355 677 504 1001c67 144 141 306 210 447h197c37 -124 75 -261 110 -386
c49 -175 98 -349 154 -525zM893 507h107c-17 69 -34 137 -49 205c-16 68 -32 136 -49 205c-13 54 -25 108 -37 161l-39 161l-120 -297c-60 -148 -118 -286 -181 -435c40 1 79 1 118 1h117h67c22 -1 44 -1 66 -1z" />
    <glyph glyph-name="Adotbelow" unicode="&#x1ea0;" horiz-adv-x="1670" 
d="M945 1455h-197c-69 -141 -143 -303 -210 -447c-149 -324 -307 -664 -504 -1001l69 6c25 1 51 3 78 5l77 6c25 1 48 3 68 4c17 37 36 75 56 116c19 41 37 80 52 118c108 3 201 3 309 3c103 0 203 0 306 -3c15 -79 32 -156 51 -233c44 -3 99 -6 153 -10s108 -8 151 -12
c-76 181 -139 360 -195 537c-56 176 -105 350 -154 525c-35 125 -73 262 -110 386zM902 917c17 -69 33 -137 49 -205c15 -68 32 -136 49 -205h-107c-22 0 -44 0 -66 1h-67h-117c-39 0 -78 0 -118 -1c63 149 121 287 181 435l120 297l39 -161c12 -53 24 -107 37 -161z
M584 -55v-17c0 -3 0 -5 1 -8v-8c0 -43 -8 -99 -23 -168c8 1 17 1 28 2c11 0 22 0 33 1c22 1 44 2 60 2c13 0 33 -1 52 -2c9 -1 19 -1 28 -1c9 -1 16 -1 23 -2v7v11c-1 3 -1 7 -1 10v6v13c0 47 8 105 23 176c-48 -4 -88 -7 -115 -7c-29 0 -59 1 -88 4z" />
    <glyph glyph-name="Ahookabove" unicode="&#x1ea2;" horiz-adv-x="1670" 
d="M753 1654v-42c33 17 63 26 93 26c46 0 65 -15 65 -28s-8 -25 -23 -36l-22 -17c-16 -12 -27 -22 -32 -31s-7 -20 -7 -33v-6h58c0 10 1 18 3 24c2 3 8 8 19 17l22 15c29 21 43 42 43 62c0 22 -11 39 -31 53c-21 14 -48 21 -82 21s-69 -8 -106 -25zM945 1455h-197
c-69 -141 -143 -303 -210 -447c-149 -324 -307 -664 -504 -1001l69 6c25 1 51 3 78 5l77 6c25 1 48 3 68 4c17 37 36 75 56 116c19 41 37 80 52 118c108 3 201 3 309 3c103 0 203 0 306 -3c15 -79 32 -156 51 -233c44 -3 99 -6 153 -10s108 -8 151 -12
c-76 181 -139 360 -195 537c-56 176 -105 350 -154 525c-35 125 -73 262 -110 386zM902 917c17 -69 33 -137 49 -205c15 -68 32 -136 49 -205h-107c-22 0 -44 0 -66 1h-67h-117c-39 0 -78 0 -118 -1c63 149 121 287 181 435l120 297l39 -161c12 -53 24 -107 37 -161z" />
    <glyph glyph-name="Amacron" unicode="&#x100;" horiz-adv-x="1670" 
d="M564 1862l-17 -29c7 -13 10 -27 10 -42c0 -23 -14 -53 -43 -92c23 0 49 0 77 1c55 0 112 1 168 1h76h76c55 0 111 -1 166 -1c27 -1 53 -1 76 -1c-23 33 -31 55 -31 70c0 21 16 55 44 94c-48 -1 -104 -2 -160 -2c-29 -1 -57 -1 -84 -1c-28 -1 -54 -1 -77 -1
c-95 0 -188 1 -281 3zM945 1455h-197c-69 -141 -143 -303 -210 -447c-149 -324 -307 -664 -504 -1001l69 6c25 1 51 3 78 5l77 6c25 1 48 3 68 4c17 37 36 75 56 116c19 41 37 80 52 118c108 3 201 3 309 3c103 0 203 0 306 -3c15 -79 32 -156 51 -233c44 -3 99 -6 153 -10
s108 -8 151 -12c-76 181 -139 360 -195 537c-56 176 -105 350 -154 525c-35 125 -73 262 -110 386zM902 917c17 -69 33 -137 49 -205c15 -68 32 -136 49 -205h-107c-22 0 -44 0 -66 1h-67h-117c-39 0 -78 0 -118 -1c63 149 121 287 181 435l120 297l39 -161
c12 -53 24 -107 37 -161z" />
    </font>
</defs>
</svg>
