<?xml version="1.0" standalone="no"?>
<!DOCTYPE svg PUBLIC "-//W3C//DTD SVG 20010904//EN"
 "http://www.w3.org/TR/2001/REC-SVG-20010904/DTD/svg10.dtd">
<svg version="1.0" xmlns="http://www.w3.org/2000/svg"
 width="57.000000pt" height="87.000000pt" viewBox="0 0 57.000000 87.000000"
 preserveAspectRatio="xMidYMid meet">
<metadata>
Created by potrace 1.15, written by Peter Selinger 2001-2017
</metadata>
<g transform="translate(0.000000,87.000000) scale(0.100000,-0.100000)"
fill="#000000" stroke="none">
<path d="M53 673 c4 -75 7 -213 7 -307 l0 -171 82 -52 c97 -62 144 -73 217
-48 121 40 180 198 136 362 -40 146 -181 213 -302 142 l-33 -18 0 114 0 115
-57 0 -56 0 6 -137z m327 -161 c46 -46 61 -125 36 -186 -19 -45 -52 -66 -104
-66 -59 0 -80 14 -104 66 -17 39 -18 51 -8 97 12 57 22 74 60 100 38 26 87 22
120 -11z"/>
</g>
</svg>
