<?xml version="1.0" standalone="no"?>
<!DOCTYPE svg PUBLIC "-//W3C//DTD SVG 20010904//EN"
 "http://www.w3.org/TR/2001/REC-SVG-20010904/DTD/svg10.dtd">
<svg version="1.0" xmlns="http://www.w3.org/2000/svg"
 width="57.000000pt" height="87.000000pt" viewBox="0 0 57.000000 87.000000"
 preserveAspectRatio="xMidYMid meet">
<metadata>
Created by potrace 1.15, written by Peter Selinger 2001-2017
</metadata>
<g transform="translate(0.000000,87.000000) scale(0.100000,-0.100000)"
fill="#000000" stroke="none">
<path d="M407 703 c-4 -38 -7 -89 -7 -115 l0 -48 -42 22 c-58 30 -138 30 -196
-1 -113 -58 -155 -256 -86 -399 30 -62 72 -96 136 -112 55 -14 98 -8 151 20
l37 20 0 -20 c0 -18 7 -20 53 -20 l54 0 6 197 c4 108 7 270 7 360 l0 163 -54
0 -53 0 -6 -67z m-96 -229 c48 -44 65 -192 26 -231 -21 -21 -109 -29 -147 -13
-60 25 -78 115 -40 198 30 67 112 90 161 46z"/>
</g>
</svg>
