<?xml version="1.0" standalone="no"?>
<!DOCTYPE svg PUBLIC "-//W3C//DTD SVG 20010904//EN"
 "http://www.w3.org/TR/2001/REC-SVG-20010904/DTD/svg10.dtd">
<svg version="1.0" xmlns="http://www.w3.org/2000/svg"
 width="58.000000pt" height="67.000000pt" viewBox="0 0 58.000000 67.000000"
 preserveAspectRatio="xMidYMid meet">
<metadata>
Created by potrace 1.15, written by Peter Selinger 2001-2017
</metadata>
<g transform="translate(0.000000,67.000000) scale(0.100000,-0.100000)"
fill="#000000" stroke="none">
<path d="M249 619 c-84 -13 -142 -57 -178 -139 -62 -141 -19 -300 99 -364 83
-45 205 -47 313 -4 26 10 27 13 27 79 0 38 -3 69 -7 69 -5 0 -26 -7 -48 -15
-55 -20 -175 -19 -225 1 -42 17 -70 55 -70 94 0 19 5 20 180 20 l180 0 0 44
c0 81 -42 161 -101 192 -42 21 -115 31 -170 23z m135 -111 l40 -43 -123 -3
c-68 -1 -126 -1 -128 2 -3 2 1 14 7 26 18 33 70 60 119 60 39 0 49 -5 85 -42z"/>
</g>
</svg>
