<?xml version="1.0" standalone="no"?>
<!DOCTYPE svg PUBLIC "-//W3C//DTD SVG 20010904//EN"
 "http://www.w3.org/TR/2001/REC-SVG-20010904/DTD/svg10.dtd">
<svg version="1.0" xmlns="http://www.w3.org/2000/svg"
 width="68.000000pt" height="82.000000pt" viewBox="0 0 68.000000 82.000000"
 preserveAspectRatio="xMidYMid meet">
<metadata>
Created by potrace 1.15, written by Peter Selinger 2001-2017
</metadata>
<g transform="translate(0.000000,82.000000) scale(0.100000,-0.100000)"
fill="#000000" stroke="none">
<path d="M156 573 c-3 -104 -8 -263 -12 -355 l-5 -168 66 0 66 0 -2 173 c-2
145 0 177 15 204 33 64 123 84 167 37 24 -26 24 -28 23 -220 l-1 -194 63 0 64
0 0 123 c-1 323 -33 397 -179 405 -55 3 -76 0 -109 -17 l-42 -21 0 110 0 110
-54 0 -54 0 -6 -187z"/>
</g>
</svg>
