<?xml version="1.0" standalone="no"?>
<!DOCTYPE svg PUBLIC "-//W3C//DTD SVG 20010904//EN"
 "http://www.w3.org/TR/2001/REC-SVG-20010904/DTD/svg10.dtd">
<svg version="1.0" xmlns="http://www.w3.org/2000/svg"
 width="88.000000pt" height="65.000000pt" viewBox="0 0 88.000000 65.000000"
 preserveAspectRatio="xMidYMid meet">
<metadata>
Created by potrace 1.15, written by Peter Selinger 2001-2017
</metadata>
<g transform="translate(0.000000,65.000000) scale(0.100000,-0.100000)"
fill="#000000" stroke="none">
<path d="M283 589 c-23 -4 -53 -15 -67 -25 -24 -15 -26 -15 -26 0 0 13 -11 16
-54 16 l-54 0 -6 -137 c-3 -76 -8 -193 -11 -260 l-6 -123 71 0 71 0 -3 178
c-3 168 -2 179 19 213 52 82 158 78 179 -8 6 -24 -7 -220 -23 -340 l-6 -43 71
0 70 0 4 178 c3 153 6 181 23 209 38 64 118 78 152 26 16 -25 15 -104 -4 -335
l-6 -78 73 0 73 0 -6 188 c-3 103 -11 203 -17 223 -23 79 -79 120 -165 120
-60 0 -103 -18 -134 -57 l-21 -27 -21 27 c-38 48 -101 68 -176 55z"/>
</g>
</svg>
