<?xml version="1.0" standalone="no"?>
<!DOCTYPE svg PUBLIC "-//W3C//DTD SVG 20010904//EN"
 "http://www.w3.org/TR/2001/REC-SVG-20010904/DTD/svg10.dtd">
<svg version="1.0" xmlns="http://www.w3.org/2000/svg"
 width="63.000000pt" height="66.000000pt" viewBox="0 0 63.000000 66.000000"
 preserveAspectRatio="xMidYMid meet">
<metadata>
Created by potrace 1.15, written by Peter Selinger 2001-2017
</metadata>
<g transform="translate(0.000000,66.000000) scale(0.100000,-0.100000)"
fill="#000000" stroke="none">
<path d="M320 610 c-19 -4 -49 -14 -67 -23 -41 -21 -43 -21 -43 3 0 18 -7 20
-55 20 l-55 0 0 -68 c0 -38 -3 -157 -7 -265 l-6 -197 72 0 73 0 -7 173 c-8
198 -1 227 60 253 64 27 108 17 132 -29 13 -26 14 -55 9 -186 -4 -86 -9 -168
-12 -184 l-6 -27 76 0 76 0 0 58 c-1 31 -5 119 -9 194 -10 152 -29 211 -81
248 -35 25 -103 38 -150 30z"/>
</g>
</svg>
