<?xml version="1.0" standalone="no"?>
<!DOCTYPE svg PUBLIC "-//W3C//DTD SVG 20010904//EN"
 "http://www.w3.org/TR/2001/REC-SVG-20010904/DTD/svg10.dtd">
<svg version="1.0" xmlns="http://www.w3.org/2000/svg"
 width="59.000000pt" height="84.000000pt" viewBox="0 0 59.000000 84.000000"
 preserveAspectRatio="xMidYMid meet">
<metadata>
Created by potrace 1.15, written by Peter Selinger 2001-2017
</metadata>
<g transform="translate(0.000000,84.000000) scale(0.100000,-0.100000)"
fill="#000000" stroke="none">
<path d="M243 789 c-18 -5 -35 -14 -38 -19 -10 -16 -25 -12 -19 5 5 12 -5 15
-53 15 l-60 0 -6 -242 c-6 -214 -16 -348 -32 -440 l-4 -28 69 0 70 0 0 94 c0
127 2 131 51 106 24 -13 58 -20 94 -20 135 0 215 101 215 271 0 189 -128 304
-287 258z m159 -90 c49 -25 76 -175 43 -238 -18 -36 -32 -41 -105 -41 -47 0
-64 5 -86 24 -24 20 -28 32 -32 89 -9 139 77 218 180 166z"/>
</g>
</svg>
