<?xml version="1.0" standalone="no"?>
<!DOCTYPE svg PUBLIC "-//W3C//DTD SVG 20010904//EN"
 "http://www.w3.org/TR/2001/REC-SVG-20010904/DTD/svg10.dtd">
<svg version="1.0" xmlns="http://www.w3.org/2000/svg"
 width="79.000000pt" height="84.000000pt" viewBox="0 0 79.000000 84.000000"
 preserveAspectRatio="xMidYMid meet">
<metadata>
Created by potrace 1.15, written by Peter Selinger 2001-2017
</metadata>
<g transform="translate(0.000000,84.000000) scale(0.100000,-0.100000)"
fill="#000000" stroke="none">
<path d="M347 753 c-2 -4 -64 -159 -137 -343 -72 -184 -134 -338 -137 -342 -2
-5 32 -8 76 -8 l80 0 16 55 16 55 139 0 139 0 12 -55 12 -55 84 0 83 0 -15 38
c-8 20 -70 176 -138 347 l-122 310 -52 3 c-28 2 -53 -1 -56 -5z m149 -425 c5
-16 -4 -18 -95 -18 l-100 0 45 133 c24 72 47 139 50 147 5 12 51 -109 100
-262z"/>
</g>
</svg>
