<?xml version="1.0" standalone="no"?>
<!DOCTYPE svg PUBLIC "-//W3C//DTD SVG 20010904//EN"
 "http://www.w3.org/TR/2001/REC-SVG-20010904/DTD/svg10.dtd">
<svg version="1.0" xmlns="http://www.w3.org/2000/svg"
 width="74.000000pt" height="83.000000pt" viewBox="0 0 74.000000 83.000000"
 preserveAspectRatio="xMidYMid meet">
<metadata>
Created by potrace 1.15, written by Peter Selinger 2001-2017
</metadata>
<g transform="translate(0.000000,83.000000) scale(0.100000,-0.100000)"
fill="#000000" stroke="none">
<path d="M368 769 c-129 -19 -215 -84 -258 -195 -33 -85 -33 -234 0 -319 72
-185 288 -256 488 -159 l52 25 0 101 0 100 -32 -24 c-75 -57 -119 -73 -203
-73 -103 0 -150 22 -183 86 -21 39 -23 54 -19 130 7 141 60 211 170 224 64 8
132 -7 200 -43 29 -15 55 -28 60 -30 4 -2 7 28 7 66 l0 69 -44 17 c-40 15
-148 37 -171 35 -5 -1 -36 -5 -67 -10z"/>
</g>
</svg>
