<?xml version="1.0" standalone="no"?>
<!DOCTYPE svg PUBLIC "-//W3C//DTD SVG 20010904//EN"
 "http://www.w3.org/TR/2001/REC-SVG-20010904/DTD/svg10.dtd">
<svg version="1.0" xmlns="http://www.w3.org/2000/svg"
 width="51.000000pt" height="81.000000pt" viewBox="0 0 51.000000 81.000000"
 preserveAspectRatio="xMidYMid meet">
<metadata>
Created by potrace 1.15, written by Peter Selinger 2001-2017
</metadata>
<g transform="translate(0.000000,81.000000) scale(0.100000,-0.100000)"
fill="#000000" stroke="none">
<path d="M65 718 c-2 -7 -6 -123 -9 -258 -4 -135 -9 -284 -12 -332 l-7 -88 78
0 77 0 -4 150 -4 150 128 0 128 0 0 60 0 60 -130 0 -130 0 0 49 c0 27 3 63 6
80 l6 31 134 0 134 0 0 55 0 55 -195 0 c-148 0 -197 -3 -200 -12z"/>
</g>
</svg>
