<?xml version="1.0" standalone="no"?>
<!DOCTYPE svg PUBLIC "-//W3C//DTD SVG 20010904//EN"
 "http://www.w3.org/TR/2001/REC-SVG-20010904/DTD/svg10.dtd">
<svg version="1.0" xmlns="http://www.w3.org/2000/svg"
 width="74.000000pt" height="83.000000pt" viewBox="0 0 74.000000 83.000000"
 preserveAspectRatio="xMidYMid meet">
<metadata>
Created by potrace 1.15, written by Peter Selinger 2001-2017
</metadata>
<g transform="translate(0.000000,83.000000) scale(0.100000,-0.100000)"
fill="#000000" stroke="none">
<path d="M307 780 c-79 -20 -155 -71 -192 -129 -83 -132 -71 -364 24 -473 101
-115 301 -139 469 -57 l62 30 0 150 0 149 -140 0 -140 0 0 -60 0 -60 70 0 70
0 0 -30 c0 -43 -33 -53 -147 -47 -152 7 -197 52 -196 197 0 154 76 239 213
240 72 0 113 -12 184 -55 32 -19 60 -35 62 -35 2 0 4 26 4 59 0 50 -3 61 -23
74 -67 44 -235 68 -320 47z"/>
</g>
</svg>
