<?xml version="1.0" standalone="no"?>
<!DOCTYPE svg PUBLIC "-//W3C//DTD SVG 20010904//EN"
 "http://www.w3.org/TR/2001/REC-SVG-20010904/DTD/svg10.dtd">
<svg version="1.0" xmlns="http://www.w3.org/2000/svg"
 width="67.000000pt" height="79.000000pt" viewBox="0 0 67.000000 79.000000"
 preserveAspectRatio="xMidYMid meet">
<metadata>
Created by potrace 1.15, written by Peter Selinger 2001-2017
</metadata>
<g transform="translate(0.000000,79.000000) scale(0.100000,-0.100000)"
fill="#000000" stroke="none">
<path d="M87 508 c-4 -128 -7 -286 -7 -350 l0 -118 70 0 70 0 0 110 0 110 135
0 135 0 0 -110 0 -110 72 0 71 0 -6 167 c-4 91 -7 249 -7 350 l0 183 -65 0
-65 0 0 -160 0 -160 -135 0 -135 0 0 160 0 160 -63 0 -64 0 -6 -232z"/>
</g>
</svg>
