<?xml version="1.0" standalone="no"?>
<!DOCTYPE svg PUBLIC "-//W3C//DTD SVG 20010904//EN"
 "http://www.w3.org/TR/2001/REC-SVG-20010904/DTD/svg10.dtd">
<svg version="1.0" xmlns="http://www.w3.org/2000/svg"
 width="75.000000pt" height="82.000000pt" viewBox="0 0 75.000000 82.000000"
 preserveAspectRatio="xMidYMid meet">
<metadata>
Created by potrace 1.15, written by Peter Selinger 2001-2017
</metadata>
<g transform="translate(0.000000,82.000000) scale(0.100000,-0.100000)"
fill="#000000" stroke="none">
<path d="M120 420 l0 -350 70 0 70 0 0 140 0 140 56 0 c49 0 59 -4 84 -30 15
-16 40 -60 55 -97 16 -38 36 -87 46 -110 l18 -43 81 0 80 0 -65 129 c-35 72
-78 145 -95 164 l-30 35 29 31 c68 72 63 213 -9 282 -50 48 -100 59 -259 59
l-131 0 0 -350z m309 244 c32 -27 48 -76 37 -119 -10 -38 -72 -65 -151 -65
l-65 0 0 105 0 105 74 0 c65 0 78 -3 105 -26z"/>
</g>
</svg>
