<?xml version="1.0" standalone="no"?>
<!DOCTYPE svg PUBLIC "-//W3C//DTD SVG 20010904//EN"
 "http://www.w3.org/TR/2001/REC-SVG-20010904/DTD/svg10.dtd">
<svg version="1.0" xmlns="http://www.w3.org/2000/svg"
 width="71.000000pt" height="86.000000pt" viewBox="0 0 71.000000 86.000000"
 preserveAspectRatio="xMidYMid meet">
<metadata>
Created by potrace 1.15, written by Peter Selinger 2001-2017
</metadata>
<g transform="translate(0.000000,86.000000) scale(0.100000,-0.100000)"
fill="#000000" stroke="none">
<path d="M89 753 c10 -21 56 -103 100 -183 45 -79 79 -150 77 -157 -3 -7 -55
-80 -116 -163 -60 -83 -110 -153 -110 -155 0 -3 41 -4 91 -3 l91 3 63 108 c45
78 65 104 72 95 6 -7 36 -57 67 -110 l57 -98 89 0 c50 0 90 2 90 4 0 3 -50 75
-110 160 -61 85 -110 159 -110 165 0 5 47 91 104 190 l105 181 -68 0 -67 0
-75 -130 c-41 -71 -77 -129 -80 -130 -4 0 -41 59 -83 130 l-77 130 -64 0 -65
0 19 -37z"/>
</g>
</svg>
