<?xml version="1.0" standalone="no"?>
<!DOCTYPE svg PUBLIC "-//W3C//DTD SVG 20010904//EN"
 "http://www.w3.org/TR/2001/REC-SVG-20010904/DTD/svg10.dtd">
<svg version="1.0" xmlns="http://www.w3.org/2000/svg"
 width="65.000000pt" height="96.000000pt" viewBox="0 0 65.000000 96.000000"
 preserveAspectRatio="xMidYMid meet">
<metadata>
Created by potrace 1.15, written by Peter Selinger 2001-2017
</metadata>
<g transform="translate(0.000000,96.000000) scale(0.100000,-0.100000)"
fill="#000000" stroke="none">
<path d="M221 808 c-111 -55 -153 -240 -86 -385 50 -110 165 -149 289 -98 16
7 17 6 7 -14 -7 -12 -27 -31 -44 -42 -41 -26 -133 -22 -194 8 l-43 21 0 -89
c0 -88 0 -90 28 -101 15 -6 67 -13 115 -16 142 -7 216 34 251 141 16 47 34
323 36 535 l0 52 -55 0 c-42 0 -55 -3 -55 -15 0 -20 -13 -19 -52 5 -46 28
-138 27 -197 -2z m153 -93 c36 -33 46 -65 46 -141 0 -97 -22 -112 -160 -104
-45 2 -57 13 -71 63 -17 64 -2 136 36 174 43 43 107 47 149 8z"/>
</g>
</svg>
