<?xml version="1.0" standalone="no"?>
<!DOCTYPE svg PUBLIC "-//W3C//DTD SVG 20010904//EN"
 "http://www.w3.org/TR/2001/REC-SVG-20010904/DTD/svg10.dtd">
<svg version="1.0" xmlns="http://www.w3.org/2000/svg"
 width="23.000000pt" height="81.000000pt" viewBox="0 0 23.000000 81.000000"
 preserveAspectRatio="xMidYMid meet">
<metadata>
Created by potrace 1.15, written by Peter Selinger 2001-2017
</metadata>
<g transform="translate(0.000000,81.000000) scale(0.100000,-0.100000)"
fill="#000000" stroke="none">
<path d="M76 713 c-3 -21 -6 -53 -6 -70 l0 -33 61 0 c52 0 60 2 55 16 -3 9 -6
40 -6 70 l0 54 -49 0 c-48 0 -48 0 -55 -37z"/>
<path d="M77 383 c-4 -91 -7 -208 -7 -260 l0 -93 55 0 55 0 0 260 0 260 -48 0
-49 0 -6 -167z"/>
</g>
</svg>
