<?xml version="1.0" standalone="no"?>
<!DOCTYPE svg PUBLIC "-//W3C//DTD SVG 20010904//EN"
 "http://www.w3.org/TR/2001/REC-SVG-20010904/DTD/svg10.dtd">
<svg version="1.0" xmlns="http://www.w3.org/2000/svg"
 width="59.000000pt" height="93.000000pt" viewBox="0 0 59.000000 93.000000"
 preserveAspectRatio="xMidYMid meet">
<metadata>
Created by potrace 1.15, written by Peter Selinger 2001-2017
</metadata>
<g transform="translate(0.000000,93.000000) scale(0.100000,-0.100000)"
fill="#000000" stroke="none">
<path d="M56 643 c-3 -115 -8 -274 -11 -355 l-6 -148 72 0 72 0 -6 95 c-3 52
-2 93 3 90 5 -3 41 -46 81 -95 l73 -90 105 0 106 1 -144 139 -144 140 79 97
c44 54 87 108 97 120 l18 23 -73 -1 -73 0 -68 -80 -67 -80 0 175 0 176 -54 0
-54 0 -6 -207z"/>
</g>
</svg>
