<?xml version="1.0" standalone="no"?>
<!DOCTYPE svg PUBLIC "-//W3C//DTD SVG 20010904//EN"
 "http://www.w3.org/TR/2001/REC-SVG-20010904/DTD/svg10.dtd">
<svg version="1.0" xmlns="http://www.w3.org/2000/svg"
 width="57.000000pt" height="64.000000pt" viewBox="0 0 57.000000 64.000000"
 preserveAspectRatio="xMidYMid meet">
<metadata>
Created by potrace 1.15, written by Peter Selinger 2001-2017
</metadata>
<g transform="translate(0.000000,64.000000) scale(0.100000,-0.100000)"
fill="#000000" stroke="none">
<path d="M197 596 c-60 -16 -120 -73 -144 -135 -22 -56 -24 -188 -4 -245 7
-22 32 -59 54 -83 91 -99 272 -93 352 11 54 71 70 200 39 305 -20 70 -75 125
-145 145 -62 19 -88 19 -152 2z m118 -90 c64 -27 100 -129 73 -211 -11 -33
-20 -42 -53 -53 -61 -21 -134 -11 -162 22 -50 58 -18 212 49 241 42 18 51 18
93 1z"/>
</g>
</svg>
