<?xml version="1.0" standalone="no"?>
<!DOCTYPE svg PUBLIC "-//W3C//DTD SVG 20010904//EN"
 "http://www.w3.org/TR/2001/REC-SVG-20010904/DTD/svg10.dtd">
<svg version="1.0" xmlns="http://www.w3.org/2000/svg"
 width="66.000000pt" height="68.000000pt" viewBox="0 0 66.000000 68.000000"
 preserveAspectRatio="xMidYMid meet">
<metadata>
Created by potrace 1.15, written by Peter Selinger 2001-2017
</metadata>
<g transform="translate(0.000000,68.000000) scale(0.100000,-0.100000)"
fill="#000000" stroke="none">
<path d="M80 613 c0 -5 42 -122 92 -260 l93 -253 70 0 70 0 89 248 c49 136 91
253 94 260 3 9 -12 12 -55 12 l-59 0 -64 -153 c-36 -84 -69 -154 -75 -156 -5
-2 -39 67 -75 153 l-65 155 -57 1 c-32 0 -58 -3 -58 -7z"/>
</g>
</svg>
