<?xml version="1.0" standalone="no"?>
<!DOCTYPE svg PUBLIC "-//W3C//DTD SVG 20010904//EN"
 "http://www.w3.org/TR/2001/REC-SVG-20010904/DTD/svg10.dtd">
<svg version="1.0" xmlns="http://www.w3.org/2000/svg"
 width="82.000000pt" height="67.000000pt" viewBox="0 0 82.000000 67.000000"
 preserveAspectRatio="xMidYMid meet">
<metadata>
Created by potrace 1.15, written by Peter Selinger 2001-2017
</metadata>
<g transform="translate(0.000000,67.000000) scale(0.100000,-0.100000)"
fill="#000000" stroke="none">
<path d="M60 598 c0 -9 110 -437 126 -490 4 -15 17 -18 69 -18 l63 0 32 78
c54 129 48 128 90 21 l38 -94 68 0 69 0 62 235 c34 129 64 245 68 258 5 22 4
23 -52 20 l-57 -3 -42 -143 c-23 -79 -45 -146 -48 -149 -2 -3 -21 27 -40 66
l-36 71 -68 0 -68 0 -34 -70 c-19 -38 -37 -70 -40 -70 -3 0 -25 68 -49 150
l-44 150 -53 0 c-34 0 -54 -4 -54 -12z"/>
</g>
</svg>
