<?xml version="1.0" standalone="no"?>
<!DOCTYPE svg PUBLIC "-//W3C//DTD SVG 20010904//EN"
 "http://www.w3.org/TR/2001/REC-SVG-20010904/DTD/svg10.dtd">
<svg version="1.0" xmlns="http://www.w3.org/2000/svg"
 width="68.000000pt" height="87.000000pt" viewBox="0 0 68.000000 87.000000"
 preserveAspectRatio="xMidYMid meet">
<metadata>
Created by potrace 1.15, written by Peter Selinger 2001-2017
</metadata>
<g transform="translate(0.000000,87.000000) scale(0.100000,-0.100000)"
fill="#000000" stroke="none">
<path d="M103 713 c13 -26 63 -133 111 -236 l88 -188 -32 -48 c-35 -56 -44
-61 -106 -61 l-44 0 0 -70 0 -70 60 0 c97 0 144 29 189 115 11 22 70 167 130
323 l109 283 -60 -3 -61 -3 -57 -123 c-31 -68 -61 -124 -66 -125 -5 0 -43 55
-85 124 l-76 124 -62 3 -62 3 24 -48z"/>
</g>
</svg>
