<?xml version="1.0" standalone="no"?>
<!DOCTYPE svg PUBLIC "-//W3C//DTD SVG 20010904//EN"
 "http://www.w3.org/TR/2001/REC-SVG-20010904/DTD/svg10.dtd">
<svg version="1.0" xmlns="http://www.w3.org/2000/svg"
 width="140.000000pt" height="115.000000pt" viewBox="0 0 140.000000 115.000000"
 preserveAspectRatio="xMidYMid meet">

<g transform="translate(0.000000,115.000000) scale(0.100000,-0.100000)"
fill="#000000" stroke="none">
<path d="M1108 972 c2 -43 5 -78 6 -78 0 -1 38 -4 83 -5 68 -4 78 -2 60 8 -12
7 -48 12 -79 13 l-58 0 0 64 c0 36 -3 67 -8 70 -4 2 -6 -30 -4 -72z"/>
<path d="M1302 493 l-2 -353 -577 -3 -578 -2 578 -3 c456 -1 579 1 582 11 3 6
4 167 2 357 l-2 345 -3 -352z"/>
<path d="M440 612 c0 -11 -17 -47 -38 -79 -21 -32 -58 -101 -82 -153 -52 -114
-68 -140 -86 -140 -8 0 -14 -4 -14 -10 0 -6 30 -10 70 -10 40 0 70 4 70 10 0
6 -11 10 -25 10 -28 0 -32 20 -15 64 9 25 14 26 80 26 l70 0 15 -36 c17 -41
13 -54 -16 -54 -10 0 -19 -4 -19 -10 0 -6 40 -10 100 -10 55 0 100 2 100 5 0
3 -11 16 -24 28 -13 12 -58 101 -101 197 -42 96 -79 177 -81 179 -2 2 -4 -5
-4 -17z m10 -243 c0 -5 -22 -9 -50 -9 -27 0 -50 2 -50 5 0 2 12 30 26 62 l26
58 24 -54 c13 -29 24 -57 24 -62z"/>
</g>
</svg>
