<?xml version="1.0" standalone="no"?>
<!DOCTYPE svg PUBLIC "-//W3C//DTD SVG 1.1//EN" "http://www.w3.org/Graphics/SVG/1.1/DTD/svg11.dtd" >
<svg xmlns="http://www.w3.org/2000/svg" xmlns:xlink="http://www.w3.org/1999/xlink" version="1.1">
<metadata>
Created by FontForge 20170924 at Mon Sep 16 10:17:28 2019
 By www-data
Copyright \(c\) 2019 by Abbie Gonzalez. All rights reserved.
</metadata>
<defs>
<font id="OpenDyslexic-Regular" horiz-adv-x="0" >
  <font-face 
    font-family="OpenDyslexic"
    font-weight="400"
    font-stretch="normal"
    units-per-em="1000"
    panose-1="0 0 5 0 0 0 0 0 0 0"
    ascent="800"
    descent="-200"
    x-height="547"
    cap-height="750"
    bbox="-1025 -409 1990 1242"
    underline-thickness="50"
    underline-position="-100"
    stemh="88"
    stemv="106"
    unicode-range="U+0020-FB02"
  />
<missing-glyph horiz-adv-x="615" 
d="M504 960v-1230h-390v1230h390zM410 878h-203v-41h80v-46h-82v-40h205v40h-82v46h82v41zM328 719h-123v-128h205v42h-82v86zM287 677v-44h-41v44h41zM410 558h-205v-41h82v-45h-82v-41h123v86h82v41zM410 484h-41v-81h-164v-42h205v123zM410 334h-123v-69h41v28h41v-57
h-123v98h-41v-139h205v139zM410 121h-205v-139h205v139zM369 81v-58h-123v58h123zM410 -46h-205v-41h87l-87 -58v-40h205v40h-126l86 58h40v41z" />
    <glyph glyph-name="f_f" unicode="ff" horiz-adv-x="968" 
d="M146 -1l15 459h-81v89h81c0 214 51 248 154 248h80v-75h-81c-89 0 -74 -136 -65 -175l155 2v-89h-143l15 -459h-130zM630 -1l15 459h-81v89h81c0 214 51 248 154 248h80v-75h-81c-89 0 -74 -136 -65 -175l155 2v-89h-143l15 -459h-130z" />
    <glyph glyph-name="f_f_i" unicode="ffi" horiz-adv-x="1250" 
d="M146 -1l15 459h-81v89h81c0 214 51 248 154 248h80v-75h-81c-89 0 -74 -136 -65 -175l155 2v-89h-143l15 -459h-130zM630 -1l15 459h-81v89h81c0 214 51 248 154 248h80v-75h-81c-89 0 -74 -136 -65 -175l155 2v-89h-143l15 -459h-130zM1062 646l15 114h60l15 -114h-90z
M1048 0c13 192 19 330 19 551h80c-7 -165 -7 -359 23 -551h-122z" />
    <glyph glyph-name="f_f_l" unicode="ffl" horiz-adv-x="1358" 
d="M146 -1l15 459h-81v89h81c0 214 51 248 154 248h80v-75h-81c-89 0 -74 -136 -65 -175l155 2v-89h-143l15 -459h-130zM630 -1l15 459h-81v89h81c0 214 51 248 154 248h80v-75h-81c-89 0 -74 -136 -65 -175l155 2v-89h-143l15 -459h-130zM1048 0c-12 111 1 506 42 784h85
c-27 -240 -42 -430 -32 -673h119l16 -111h-230z" />
    <glyph glyph-name="fi" unicode="fi" horiz-adv-x="766" 
d="M146 -1l15 459h-81v89h81c0 214 51 248 154 248h80v-75h-81c-89 0 -74 -136 -65 -175l155 2v-89h-143l15 -459h-130zM578 646l15 114h60l15 -114h-90zM564 0c13 192 19 330 19 551h80c-7 -165 -7 -359 23 -551h-122z" />
    <glyph glyph-name="fl" unicode="fl" horiz-adv-x="874" 
d="M146 -1l15 459h-81v89h81c0 214 51 248 154 248h80v-75h-81c-89 0 -74 -136 -65 -175l155 2v-89h-143l15 -459h-130zM564 0c-12 111 1 506 42 784h85c-27 -240 -42 -430 -32 -673h119l16 -111h-230z" />
    <glyph glyph-name=".notdef" horiz-adv-x="615" 
d="M504 960v-1230h-390v1230h390zM410 878h-203v-41h80v-46h-82v-40h205v40h-82v46h82v41zM328 719h-123v-128h205v42h-82v86zM287 677v-44h-41v44h41zM410 558h-205v-41h82v-45h-82v-41h123v86h82v41zM410 484h-41v-81h-164v-42h205v123zM410 334h-123v-69h41v28h41v-57
h-123v98h-41v-139h205v139zM410 121h-205v-139h205v139zM369 81v-58h-123v58h123zM410 -46h-205v-41h87l-87 -58v-40h205v40h-126l86 58h40v41z" />
    <glyph glyph-name="space" unicode=" " horiz-adv-x="828" 
 />
    <glyph glyph-name="A" unicode="A" horiz-adv-x="828" 
d="M80 -1l288 750h93l287 -750h-141l-28 120h-328l-37 -120h-134zM280 235h269l-136 393z" />
    <glyph glyph-name="Aacute" unicode="&#xc1;" horiz-adv-x="828" 
d="M80 -1l288 750h93l287 -750h-141l-28 120h-328l-37 -120h-134zM280 235h269l-136 393zM389 -11h51l-51 -154h-76z" />
    <glyph glyph-name="Abreve" unicode="&#x102;" horiz-adv-x="828" 
d="M410 791c-107 0 -192 74 -192 197h65c0 -88 48 -102 127 -102c93 0 136 15 136 102h65c0 -123 -95 -197 -201 -197zM461 749l287 -750h-141l-28 120h-328l-37 -120h-134l288 750h93zM280 235h269l-136 393z" />
    <glyph glyph-name="uni1EAE" unicode="&#x1eae;" horiz-adv-x="828" 
d="M485 1201l-51 -154h-76l76 154h51zM410 791c-107 0 -192 74 -192 197h65c0 -88 48 -102 127 -102c93 0 136 15 136 102h65c0 -123 -95 -197 -201 -197zM461 749l287 -750h-141l-28 120h-328l-37 -120h-134l288 750h93zM280 235h269l-136 393z" />
    <glyph glyph-name="uni1EB6" unicode="&#x1eb6;" horiz-adv-x="828" 
d="M410 791c-107 0 -192 74 -192 197h65c0 -88 48 -102 127 -102c93 0 136 15 136 102h65c0 -123 -95 -197 -201 -197zM461 749l287 -750h-141l-28 120h-328l-37 -120h-134l288 750h93zM280 235h269l-136 393zM368 -136l16 111h95v-111h-111z" />
    <glyph glyph-name="uni1EB0" unicode="&#x1eb0;" horiz-adv-x="828" 
d="M519 988l-134 15l-116 112h79zM410 791c-107 0 -192 74 -192 197h65c0 -88 48 -102 127 -102c93 0 136 15 136 102h65c0 -123 -95 -197 -201 -197zM461 749l287 -750h-141l-28 120h-328l-37 -120h-134l288 750h93zM280 235h269l-136 393z" />
    <glyph glyph-name="uni1EB2" unicode="&#x1eb2;" horiz-adv-x="828" 
d="M441 1044c0 6 -9 14 -32 14c-15 0 -29 -5 -45 -13v21c18 8 35 12 51 12c17 0 30 -4 40 -10s16 -16 16 -26s-6 -21 -21 -31l-11 -7c-6 -4 -8 -7 -9 -8c-1 -3 -2 -7 -2 -12h-28v3c0 6 1 12 3 16c3 5 8 9 16 15l11 9c7 5 11 11 11 17zM410 791c-107 0 -192 74 -192 197h65
c0 -88 48 -102 127 -102c93 0 136 15 136 102h65c0 -123 -95 -197 -201 -197zM461 749l287 -750h-141l-28 120h-328l-37 -120h-134l288 750h93zM280 235h269l-136 393z" />
    <glyph glyph-name="uni1EB4" unicode="&#x1eb4;" horiz-adv-x="828" 
d="M352 1105c-39 1 -39 -62 -39 -105h-55c8 117 23 150 94 150c66 0 83 -100 127 -100c50 0 39 51 41 100h46c-2 -146 -32 -151 -86 -150c-72 1 -91 104 -128 105zM410 791c-107 0 -192 74 -192 197h65c0 -88 48 -102 127 -102c93 0 136 15 136 102h65
c0 -123 -95 -197 -201 -197zM461 749l287 -750h-141l-28 120h-328l-37 -120h-134l288 750h93zM280 235h269l-136 393z" />
    <glyph glyph-name="uni01CD" unicode="&#x1cd;" horiz-adv-x="828" 
d="M392 809l-44 64l-133 131h54l143 -99l145 99h54l-132 -131l-39 -64h-48zM80 -1l288 750h93l287 -750h-141l-28 120h-328l-37 -120h-134zM280 235h269l-136 393z" />
    <glyph glyph-name="Acircumflex" unicode="&#xc2;" horiz-adv-x="828" 
d="M395 947h48l39 -64l132 -131h-54l-145 99l-143 -99h-54l133 131zM80 -1l288 750h93l287 -750h-141l-28 120h-328l-37 -120h-134zM280 235h269l-136 393z" />
    <glyph glyph-name="uni1EA4" unicode="&#x1ea4;" horiz-adv-x="828" 
d="M653 1019h51l-51 -154h-76zM391 988h48l39 -64l132 -131h-54l-145 99l-143 -99h-54l133 131zM80 -1l288 750h93l287 -750h-141l-28 120h-328l-37 -120h-134zM280 235h269l-136 393z" />
    <glyph glyph-name="uni1EAC" unicode="&#x1eac;" horiz-adv-x="828" 
d="M393 1007h48l39 -64l132 -131h-54l-145 99l-143 -99h-54l133 131zM80 -1l288 750h93l287 -750h-141l-28 120h-328l-37 -120h-134zM280 235h269l-136 393zM368 -136l16 111h95v-111h-111z" />
    <glyph glyph-name="uni1EA6" unicode="&#x1ea6;" horiz-adv-x="828" 
d="M639 905l-116 112h79l171 -127zM391 988h48l39 -64l132 -131h-54l-145 99l-143 -99h-54l133 131zM80 -1l288 750h93l287 -750h-141l-28 120h-328l-37 -120h-134zM280 235h269l-136 393z" />
    <glyph glyph-name="uni1EA8" unicode="&#x1ea8;" horiz-adv-x="828" 
d="M499 1031v-21c16 8 30 13 45 13c23 0 32 -8 32 -14s-4 -12 -11 -17l-11 -9c-8 -6 -13 -10 -16 -15c-2 -4 -3 -10 -3 -16v-3h28c0 5 1 9 2 12c1 1 3 4 9 8l11 7c15 10 21 21 21 31s-6 20 -16 26s-23 10 -40 10c-16 0 -33 -4 -51 -12zM391 988h48l39 -64l132 -131h-54
l-145 99l-143 -99h-54l133 131zM80 -1l288 750h93l287 -750h-141l-28 120h-328l-37 -120h-134zM280 235h269l-136 393z" />
    <glyph glyph-name="uni1EAA" unicode="&#x1eaa;" horiz-adv-x="828" 
d="M330 1036h-55c8 117 23 150 94 150c66 0 83 -100 127 -100c50 0 39 51 41 100h46c-2 -146 -32 -151 -86 -150c-72 1 -91 104 -128 105c-39 1 -39 -62 -39 -105zM396 1001h48l39 -64l132 -131h-54l-145 99l-143 -99h-54l133 131zM80 -1l288 750h93l287 -750h-141l-28 120
h-328l-37 -120h-134zM280 235h269l-136 393z" />
    <glyph glyph-name="Adieresis" unicode="&#xc4;" horiz-adv-x="828" 
d="M224 800l16 111h95v-111h-111zM496 800l16 111h95v-111h-111zM80 -1l288 750h93l287 -750h-141l-28 120h-328l-37 -120h-134zM280 235h269l-136 393z" />
    <glyph glyph-name="uni01DE" unicode="&#x1de;" horiz-adv-x="828" 
d="M225 983l386 24l29 -77l-446 -17zM224 730l16 111h95v-111h-111zM496 730l16 111h95v-111h-111zM80 -1l288 750h93l287 -750h-141l-28 120h-328l-37 -120h-134zM280 235h269l-136 393z" />
    <glyph glyph-name="uni1EA0" unicode="&#x1ea0;" horiz-adv-x="828" 
d="M80 -1l288 750h93l287 -750h-141l-28 120h-328l-37 -120h-134zM280 235h269l-136 393zM368 -136l16 111h95v-111h-111z" />
    <glyph glyph-name="Agrave" unicode="&#xc0;" horiz-adv-x="828" 
d="M361 816l-116 112h79l171 -127zM80 -1l288 750h93l287 -750h-141l-28 120h-328l-37 -120h-134zM280 235h269l-136 393z" />
    <glyph glyph-name="uni1EA2" unicode="&#x1ea2;" horiz-adv-x="828" 
d="M203 838v-21c16 8 30 13 45 13c23 0 32 -8 32 -14s-4 -12 -11 -17l-11 -9c-8 -6 -13 -10 -16 -15c-2 -4 -3 -10 -3 -16v-3h28c0 5 1 9 2 12c1 1 3 4 9 8l11 7c15 10 21 21 21 31s-6 20 -16 26s-23 10 -40 10c-16 0 -33 -4 -51 -12zM80 -1l288 750h93l287 -750h-141
l-28 120h-328l-37 -120h-134zM280 235h269l-136 393z" />
    <glyph glyph-name="uni2C6D" unicode="&#x2c6d;" horiz-adv-x="762" 
d="M563 602l24 71h95c0 -73 -33 -68 -33 -344c0 -269 20 -254 20 -329h-108v82c-38 -65 -110 -96 -190 -96c-127 0 -291 27 -291 228c0 47 9 104 30 173c49 161 175 273 272 287c12 2 23 3 33 3c53 0 93 -22 148 -75zM165 352c-6 -19 -9 -38 -9 -56c0 -91 79 -158 203 -158
c181 0 171 35 185 161c4 36 6 69 6 97c0 185 -76 217 -135 217c-13 0 -24 -1 -34 -3c-61 -10 -174 -125 -216 -258z" />
    <glyph glyph-name="Amacron" unicode="&#x100;" horiz-adv-x="828" 
d="M223 891l386 24l29 -77l-446 -17zM80 -1l288 750h93l287 -750h-141l-28 120h-328l-37 -120h-134zM280 235h269l-136 393z" />
    <glyph glyph-name="Aogonek" unicode="&#x104;" horiz-adv-x="600" 
d="M461 749l287 -750h-141l-28 120h-328l-37 -120h-74c-58 -55 -88 -94 -88 -118c0 -20 20 -31 61 -31c15 0 34 2 55 5c3 -20 8 -53 11 -70c-115 -2 -183 30 -183 86c0 35 26 78 85 128h-1l288 750h93zM280 235h269l-136 393z" />
    <glyph glyph-name="Aring" unicode="&#xc5;" horiz-adv-x="828" 
d="M415 810c-50 0 -90 43 -90 96c0 52 40 95 90 95s90 -43 90 -95c0 -53 -40 -96 -90 -96zM415 865c28 0 51 1 51 54c0 29 -23 53 -51 53s-51 -24 -51 -53c0 -53 23 -54 51 -54zM80 -1l288 750h93l287 -750h-141l-28 120h-328l-37 -120h-134zM280 235h269l-136 393z" />
    <glyph glyph-name="Atilde" unicode="&#xc3;" horiz-adv-x="828" 
d="M314 789h-55c8 117 23 150 94 150c66 0 83 -100 127 -100c50 0 39 51 41 100h46c-2 -146 -32 -151 -86 -150c-72 1 -91 104 -128 105c-39 1 -39 -62 -39 -105zM80 -1l288 750h93l287 -750h-141l-28 120h-328l-37 -120h-134zM280 235h269l-136 393z" />
    <glyph glyph-name="AE" unicode="&#xc6;" horiz-adv-x="1169" 
d="M1089 0h-341v-1h-141v1h-1l1 42l1 75h-328l-66 -118h-134l471 734h79v3l444 14l-21 -94l-330 -19v-198l245 11v-103l-245 -16v-156l3 -24h330zM337 230h269l-39 385z" />
    <glyph glyph-name="B" unicode="B" horiz-adv-x="687" 
d="M80 0v750h228c150 0 229 -65 235 -170c5 -87 -43 -135 -113 -146c129 -21 181 -82 177 -230c-5 -174 -101 -204 -265 -204h-262zM325 674h-146v-195h146c96 0 133 28 133 90c0 64 -37 105 -133 105zM337 389h-158v-244h158c106 0 161 36 161 124c0 51 -18 61 -43 88
c-12 13 -47 32 -118 32z" />
    <glyph glyph-name="uni1E04" unicode="&#x1e04;" horiz-adv-x="687" 
d="M80 0v750h228c150 0 229 -65 235 -170c5 -87 -43 -135 -113 -146c129 -21 181 -82 177 -230c-5 -174 -101 -204 -265 -204h-262zM325 674h-146v-195h146c96 0 133 28 133 90c0 64 -37 105 -133 105zM337 389h-158v-244h158c106 0 161 36 161 124c0 51 -18 61 -43 88
c-12 13 -47 32 -118 32zM286 -160l16 111h95v-111h-111z" />
    <glyph glyph-name="uni0181" unicode="&#x181;" horiz-adv-x="687" 
d="M430 434c129 -21 181 -82 177 -230c-5 -174 -101 -204 -265 -204h-262v600c-63 -4 -93 -48 -102 -100c-6 -36 -6 -106 -6 -142l-65 99v67c0 87 55 194 173 204v22h228c150 0 229 -65 235 -170c5 -87 -43 -135 -113 -146zM179 674v-195h146c96 0 133 28 133 90
c0 64 -37 105 -133 105h-146zM337 145c106 0 161 36 161 124c0 51 -18 61 -43 88c-12 13 -47 32 -118 32h-158v-244h158z" />
    <glyph glyph-name="uni0243" unicode="&#x243;" horiz-adv-x="687" 
d="M430 434c129 -21 181 -82 177 -230c-5 -174 -101 -204 -265 -204h-262v193h-89v91h89v466h228c150 0 229 -65 235 -170c5 -87 -43 -135 -113 -146zM179 674v-195h146c96 0 133 28 133 90c0 64 -37 105 -133 105h-146zM337 145c106 0 161 36 161 124c0 51 -18 61 -43 88
c-12 13 -47 32 -118 32h-158v-105h203v-91h-203v-48h158z" />
    <glyph glyph-name="C" unicode="C" horiz-adv-x="717" 
d="M611 733l-14 -96c-57 10 -122 20 -165 17c-104 -7 -222 -105 -246 -236c-31 -168 91 -246 256 -240c85 3 115 23 164 38l2 -207c-56 -17 -219 -30 -303 -22c-190 18 -278 204 -235 431c24 126 112 300 356 330c88 11 116 -5 185 -15z" />
    <glyph glyph-name="Cacute" unicode="&#x106;" horiz-adv-x="717" 
d="M408 942h51l-51 -154h-76zM611 733l-14 -96c-57 10 -122 20 -165 17c-104 -7 -222 -105 -246 -236c-31 -168 91 -246 256 -240c85 3 115 23 164 38l2 -207c-56 -17 -219 -30 -303 -22c-190 18 -278 204 -235 431c24 126 112 300 356 330c88 11 116 -5 185 -15z" />
    <glyph glyph-name="Ccaron" unicode="&#x10c;" horiz-adv-x="717" 
d="M366 779l-44 64l-133 131h54l143 -99l145 99h54l-132 -131l-39 -64h-48zM611 733l-14 -96c-57 10 -122 20 -165 17c-104 -7 -222 -105 -246 -236c-31 -168 91 -246 256 -240c85 3 115 23 164 38l2 -207c-56 -17 -219 -30 -303 -22c-190 18 -278 204 -235 431
c24 126 112 300 356 330c88 11 116 -5 185 -15z" />
    <glyph glyph-name="Ccedilla" unicode="&#xc7;" horiz-adv-x="717" 
d="M608 9c-38 -12 -127 -21 -206 -24l-20 -55h31c39 0 100 -16 90 -76c-8 -49 -47 -78 -104 -78h-62l11 53c23 -5 31 -5 53 -5c36 0 65 19 65 35c0 44 -38 46 -63 46c-17 0 -37 -2 -61 -5l28 85c-24 -1 -46 0 -65 2c-190 18 -278 204 -235 431c24 126 112 300 356 330
c88 11 116 -5 185 -15l-14 -96c-57 10 -122 20 -165 17c-104 -7 -222 -105 -246 -236c-31 -168 91 -246 256 -240c85 3 115 23 164 38z" />
    <glyph glyph-name="Cdotaccent" unicode="&#x10a;" horiz-adv-x="717" 
d="M329 810l16 111h95v-111h-111zM611 733l-14 -96c-57 10 -122 20 -165 17c-104 -7 -222 -105 -246 -236c-31 -168 91 -246 256 -240c85 3 115 23 164 38l2 -207c-56 -17 -219 -30 -303 -22c-190 18 -278 204 -235 431c24 126 112 300 356 330c88 11 116 -5 185 -15z" />
    <glyph glyph-name="uni0187" unicode="&#x187;" horiz-adv-x="717" 
d="M597 831c2 43 13 46 74 45v-33c-33 0 -34 -1 -34 -20v-12v-21v-132h-37l-3 -21c-57 10 -122 20 -165 17c-104 -7 -222 -105 -246 -236c-31 -168 91 -246 256 -240c85 3 115 23 164 38l2 -207c-56 -17 -219 -30 -303 -22c-190 18 -278 204 -235 431
c24 126 112 300 356 330c81 10 111 -3 170 -13v55v2v19c0 6 0 8 1 20z" />
    <glyph glyph-name="D" unicode="D" horiz-adv-x="773" 
d="M80 0v751h203c283 0 394 -194 419 -379c43 -314 -207 -372 -419 -372h-203zM184 190h119c252 0 289 71 270 203c-16 112 -69 239 -270 239h-119v-442z" />
    <glyph glyph-name="uni01F1" unicode="&#x1f1;" horiz-adv-x="1578" 
d="M80 0v751h203c283 0 394 -194 419 -379c43 -314 -207 -372 -419 -372h-203zM980 624l355 4l-482 -489v-139l663 6l-47 140h-383l402 460l10 145h-563zM184 190h119c252 0 289 71 270 203c-16 112 -69 239 -270 239h-119v-442z" />
    <glyph glyph-name="uni01C4" unicode="&#x1c4;" horiz-adv-x="1578" 
d="M1152 797l-44 64l-133 131h54l143 -99l145 99h54l-132 -131l-39 -64h-48zM80 0v751h203c283 0 394 -194 419 -379c43 -314 -207 -372 -419 -372h-203zM980 624l355 4l-482 -489v-139l663 6l-47 140h-383l402 460l10 145h-563zM184 190h119c252 0 289 71 270 203
c-16 112 -69 239 -270 239h-119v-442z" />
    <glyph glyph-name="uni0189" unicode="&#x189;" horiz-adv-x="773" 
d="M702 372c43 -314 -207 -372 -419 -372h-203v348h-108v91h108v312h203c283 0 394 -194 419 -379zM303 190c252 0 289 71 270 203c-16 112 -69 239 -270 239h-119v-193h179v-91h-179v-158h119z" />
    <glyph glyph-name="Eth" unicode="&#xd0;" horiz-adv-x="773" 
d="M702 372c43 -314 -207 -372 -419 -372h-203v358h-93v91h93v302h203c283 0 394 -194 419 -379zM303 190c252 0 289 71 270 203c-16 112 -69 239 -270 239h-119v-183h194v-91h-194v-168h119z" />
    <glyph glyph-name="Dcaron" unicode="&#x10e;" horiz-adv-x="773" 
d="M338 841l-44 64l-133 131h54l143 -99l145 99h54l-132 -131l-39 -64h-48zM80 0v751h203c283 0 394 -194 419 -379c43 -314 -207 -372 -419 -372h-203zM184 190h119c252 0 289 71 270 203c-16 112 -69 239 -270 239h-119v-442z" />
    <glyph glyph-name="uni1E12" unicode="&#x1e12;" horiz-adv-x="773" 
d="M80 0v751h203c283 0 394 -194 419 -379c43 -314 -207 -372 -419 -372h-203zM184 190h119c252 0 289 71 270 203c-16 112 -69 239 -270 239h-119v-442zM371 -113h48l39 -64l132 -131h-54l-145 99l-143 -99h-54l133 131z" />
    <glyph glyph-name="Dcroat" unicode="&#x110;" horiz-adv-x="773" 
d="M702 372c43 -314 -207 -372 -419 -372h-203v358h-93v91h93v302h203c283 0 394 -194 419 -379zM303 190c252 0 289 71 270 203c-16 112 -69 239 -270 239h-119v-183h194v-91h-194v-168h119z" />
    <glyph glyph-name="uni1E0A" unicode="&#x1e0a;" horiz-adv-x="773" 
d="M301 872l16 111h95v-111h-111zM80 0v751h203c283 0 394 -194 419 -379c43 -314 -207 -372 -419 -372h-203zM184 190h119c252 0 289 71 270 203c-16 112 -69 239 -270 239h-119v-442z" />
    <glyph glyph-name="uni1E0C" unicode="&#x1e0c;" horiz-adv-x="773" 
d="M80 0v751h203c283 0 394 -194 419 -379c43 -314 -207 -372 -419 -372h-203zM184 190h119c252 0 289 71 270 203c-16 112 -69 239 -270 239h-119v-442zM331 -160l16 111h95v-111h-111z" />
    <glyph glyph-name="uni018A" unicode="&#x18a;" horiz-adv-x="773" 
d="M702 372c43 -314 -207 -372 -419 -372h-203v675c0 -3 -1 -6 -1 -9c-69 0 -102 -46 -111 -100c-6 -36 -6 -106 -6 -142l-65 99v67c0 91 61 205 191 205c0 -17 -1 -31 -1 -44h196c283 0 394 -194 419 -379zM303 190c252 0 289 71 270 203c-16 112 -69 239 -270 239h-119
v-442h119z" />
    <glyph glyph-name="uni1E0E" unicode="&#x1e0e;" horiz-adv-x="773" 
d="M80 0v751h203c283 0 394 -194 419 -379c43 -314 -207 -372 -419 -372h-203zM184 190h119c252 0 289 71 270 203c-16 112 -69 239 -270 239h-119v-442zM234 -56l307 18l23 -57l-354 -13z" />
    <glyph glyph-name="uni01F2" unicode="&#x1f2;" horiz-adv-x="1424" 
d="M80 0v751h203c283 0 394 -194 419 -379c43 -314 -207 -372 -419 -372h-203zM184 190h119c252 0 289 71 270 203c-16 112 -69 239 -270 239h-119v-442zM833 0l24 131l351 333h-291v96h414l13 -90l-332 -349h265l57 -121h-501z" />
    <glyph glyph-name="uni01C5" unicode="&#x1c5;" horiz-adv-x="1444" 
d="M1099 607l-44 64l-133 131h54l143 -99l145 99h54l-132 -131l-39 -64h-48zM80 0v751h203c283 0 394 -194 419 -379c43 -314 -207 -372 -419 -372h-203zM184 190h119c252 0 289 71 270 203c-16 112 -69 239 -270 239h-119v-442zM853 0l24 131l351 333h-291v96h414l13 -90
l-332 -349h265l57 -121h-501z" />
    <glyph glyph-name="E" unicode="E" horiz-adv-x="643" 
d="M80 0l24 736l444 14l-21 -94l-330 -19v-198l245 11v-103l-245 -16v-180h333l33 -151h-483z" />
    <glyph glyph-name="Eacute" unicode="&#xc9;" horiz-adv-x="643" 
d="M345 1032h51l-51 -154h-76zM80 0l24 736l444 14l-21 -94l-330 -19v-198l245 11v-103l-245 -16v-180h333l33 -151h-483z" />
    <glyph glyph-name="Ebreve" unicode="&#x114;" horiz-adv-x="643" 
d="M327 827c-107 0 -192 74 -192 197h65c0 -88 48 -102 127 -102c93 0 136 15 136 102h65c0 -123 -95 -197 -201 -197zM530 151l33 -151h-483l24 736l444 14l-21 -94l-330 -19v-198l245 11v-103l-245 -16v-180h333z" />
    <glyph glyph-name="Ecaron" unicode="&#x11a;" horiz-adv-x="643" 
d="M309 848l-44 64l-133 131h54l143 -99l145 99h54l-132 -131l-39 -64h-48zM80 0l24 736l444 14l-21 -94l-330 -19v-198l245 11v-103l-245 -16v-180h333l33 -151h-483z" />
    <glyph glyph-name="uni0228" unicode="&#x228;" horiz-adv-x="643" 
d="M342 -80c39 0 100 -16 90 -76c-8 -49 -47 -78 -104 -78h-62l11 53c23 -5 31 -5 53 -5c36 0 65 19 65 35c0 44 -38 46 -63 46c-17 0 -37 -2 -61 -5l37 110h-228l24 736l444 14l-21 -94l-330 -19v-198l245 11v-103l-245 -16v-180h333l33 -151h-223l-29 -80h31z" />
    <glyph glyph-name="Ecircumflex" unicode="&#xca;" horiz-adv-x="643" 
d="M312 986h48l39 -64l132 -131h-54l-145 99l-143 -99h-54l133 131zM80 0l24 736l444 14l-21 -94l-330 -19v-198l245 11v-103l-245 -16v-180h333l33 -151h-483z" />
    <glyph glyph-name="uni1EBE" unicode="&#x1ebe;" horiz-adv-x="643" 
d="M570 1058h51l-51 -154h-76zM308 1027h48l39 -64l132 -131h-54l-145 99l-143 -99h-54l133 131zM80 0l24 736l444 14l-21 -94l-330 -19v-198l245 11v-103l-245 -16v-180h333l33 -151h-483z" />
    <glyph glyph-name="uni1EC6" unicode="&#x1ec6;" horiz-adv-x="643" 
d="M302 969h48l39 -64l132 -131h-54l-145 99l-143 -99h-54l133 131zM80 0l24 736l444 14l-21 -94l-330 -19v-198l245 11v-103l-245 -16v-180h333l33 -151h-483zM275 -160l16 111h95v-111h-111z" />
    <glyph glyph-name="uni1EC0" unicode="&#x1ec0;" horiz-adv-x="643" 
d="M556 944l-116 112h79l171 -127zM308 1027h48l39 -64l132 -131h-54l-145 99l-143 -99h-54l133 131zM80 0l24 736l444 14l-21 -94l-330 -19v-198l245 11v-103l-245 -16v-180h333l33 -151h-483z" />
    <glyph glyph-name="uni1EC2" unicode="&#x1ec2;" horiz-adv-x="643" 
d="M416 1070v-21c16 8 30 13 45 13c23 0 32 -8 32 -14s-4 -12 -11 -17l-11 -9c-8 -6 -13 -10 -16 -15c-2 -4 -3 -10 -3 -16v-3h28c0 5 1 9 2 12c1 1 3 4 9 8l11 7c15 10 21 21 21 31s-6 20 -16 26s-23 10 -40 10c-16 0 -33 -4 -51 -12zM308 1027h48l39 -64l132 -131h-54
l-145 99l-143 -99h-54l133 131zM80 0l24 736l444 14l-21 -94l-330 -19v-198l245 11v-103l-245 -16v-180h333l33 -151h-483z" />
    <glyph glyph-name="uni1EC4" unicode="&#x1ec4;" horiz-adv-x="643" 
d="M247 1075h-55c8 117 23 150 94 150c66 0 83 -100 127 -100c50 0 39 51 41 100h46c-2 -146 -32 -151 -86 -150c-72 1 -91 104 -128 105c-39 1 -39 -62 -39 -105zM313 1040h48l39 -64l132 -131h-54l-145 99l-143 -99h-54l133 131zM80 0l24 736l444 14l-21 -94l-330 -19
v-198l245 11v-103l-245 -16v-180h333l33 -151h-483z" />
    <glyph glyph-name="Edieresis" unicode="&#xcb;" horiz-adv-x="643" 
d="M141 839l16 111h95v-111h-111zM413 839l16 111h95v-111h-111zM80 0l24 736l444 14l-21 -94l-330 -19v-198l245 11v-103l-245 -16v-180h333l33 -151h-483z" />
    <glyph glyph-name="Edotaccent" unicode="&#x116;" horiz-adv-x="643" 
d="M272 879l16 111h95v-111h-111zM80 0l24 736l444 14l-21 -94l-330 -19v-198l245 11v-103l-245 -16v-180h333l33 -151h-483z" />
    <glyph glyph-name="uni1EB8" unicode="&#x1eb8;" horiz-adv-x="643" 
d="M80 0l24 736l444 14l-21 -94l-330 -19v-198l245 11v-103l-245 -16v-180h333l33 -151h-483zM275 -160l16 111h95v-111h-111z" />
    <glyph glyph-name="Egrave" unicode="&#xc8;" horiz-adv-x="643" 
d="M278 855l-116 112h79l171 -127zM80 0l24 736l444 14l-21 -94l-330 -19v-198l245 11v-103l-245 -16v-180h333l33 -151h-483z" />
    <glyph glyph-name="uni1EBA" unicode="&#x1eba;" horiz-adv-x="643" 
d="M281 876v-21c16 8 30 13 45 13c23 0 32 -8 32 -14s-4 -12 -11 -17l-11 -9c-8 -6 -13 -10 -16 -15c-2 -4 -3 -10 -3 -16v-3h28c0 5 1 9 2 12c1 1 3 4 9 8l11 7c15 10 21 21 21 31s-6 20 -16 26s-23 10 -40 10c-16 0 -33 -4 -51 -12zM80 0l24 736l444 14l-21 -94l-330 -19
v-198l245 11v-103l-245 -16v-180h333l33 -151h-483z" />
    <glyph glyph-name="Emacron" unicode="&#x112;" horiz-adv-x="643" 
d="M140 930l386 24l29 -77l-446 -17zM80 0l24 736l444 14l-21 -94l-330 -19v-198l245 11v-103l-245 -16v-180h333l33 -151h-483z" />
    <glyph glyph-name="Eogonek" unicode="&#x118;" horiz-adv-x="600" 
d="M479 -150c15 0 34 2 55 5c3 -20 8 -53 11 -70c-115 -2 -183 30 -183 86c0 35 27 79 86 129h-368l24 736l444 14l-21 -94l-330 -19v-198l245 11v-103l-245 -16v-180h333l33 -151h-56c-59 -55 -89 -95 -89 -119c0 -20 20 -31 61 -31z" />
    <glyph glyph-name="uni0190" unicode="&#x190;" horiz-adv-x="697" 
d="M358 -17c-130 0 -245 74 -245 225c0 89 33 149 145 165c-91 32 -129 77 -129 154c0 112 89 181 234 181c56 0 179 -34 179 -158l-63 -13c1 83 -55 109 -106 109c-97 0 -176 -36 -176 -112c0 -89 66 -116 160 -116h33l17 -75h-32c-104 1 -160 -46 -160 -109
c0 -64 37 -121 133 -122c70 -2 142 0 105 146l114 10c82 -244 -149 -285 -209 -285z" />
    <glyph glyph-name="uni018E" unicode="&#x18e;" horiz-adv-x="643" 
d="M563 0h-483l33 151h333v180l-245 16v103l245 -11v198l-330 19l-21 94l444 -14z" />
    <glyph glyph-name="uni01A9" unicode="&#x1a9;" horiz-adv-x="599" 
d="M519 629h-371l237 -246v-1l1 -1v-72l-1 2l-199 -208h333v-109h-438l-1 -1v110l268 246l-267 278v2h-1v71h439v-71z" />
    <glyph glyph-name="uni1EBC" unicode="&#x1ebc;" horiz-adv-x="643" 
d="M230 810h-55c8 117 23 150 94 150c66 0 83 -100 127 -100c50 0 39 51 41 100h46c-2 -146 -32 -151 -86 -150c-72 1 -91 104 -128 105c-39 1 -39 -62 -39 -105zM80 0l24 736l444 14l-21 -94l-330 -19v-198l245 11v-103l-245 -16v-180h333l33 -151h-483z" />
    <glyph glyph-name="uni01B7" unicode="&#x1b7;" horiz-adv-x="686" 
d="M369 314c120 -9 226 -111 234 -207c14 -164 -24 -307 -238 -307c-33 0 -158 -2 -285 123l127 104c141 -138 274 -50 271 99c-7 79 -121 119 -261 106v93c112 105 167 143 261 248c-113 -1 -248 -1 -395 0v94c98 0 395 4 475 0c12 -69 10 -69 18 -140
c-90 -100 -115 -121 -207 -213z" />
    <glyph glyph-name="uni01EE" unicode="&#x1ee;" horiz-adv-x="686" 
d="M314 743l-44 64l-133 131h54l143 -99l145 99h54l-132 -131l-39 -64h-48zM369 314c120 -9 226 -111 234 -207c14 -164 -24 -307 -238 -307c-33 0 -158 -2 -285 123l127 104c141 -138 274 -50 271 99c-7 79 -121 119 -261 106v93c112 105 167 143 261 248
c-113 -1 -248 -1 -395 0v94c98 0 395 4 475 0c12 -69 10 -69 18 -140c-90 -100 -115 -121 -207 -213z" />
    <glyph glyph-name="F" unicode="F" horiz-adv-x="583" 
d="M80 0l39 738l384 12v-66l-289 -17l-24 -196l267 18v-102l-262 -18l22 -369h-137z" />
    <glyph glyph-name="uni1E1E" unicode="&#x1e1e;" horiz-adv-x="583" 
d="M232 781l16 111h95v-111h-111zM80 0l39 738l384 12v-66l-289 -17l-24 -196l267 18v-102l-262 -18l22 -369h-137z" />
    <glyph glyph-name="uni0191" unicode="&#x191;" horiz-adv-x="583" 
d="M503 684l-289 -17l-24 -196l267 18v-102l-262 -18l22 -364c7 -14 13 -26 13 -34c0 -80 -134 -161 -264 -161c1 53 3 77 9 129c60 0 92 34 106 78l38 721l384 12v-66z" />
    <glyph glyph-name="G" unicode="G" horiz-adv-x="839" 
d="M444 -14c-308 0 -354 130 -364 378c-14 343 153 376 364 386c95 4 175 -3 199 -24l11 -87c-46 30 -153 31 -202 30c-178 -5 -247 -71 -247 -295c0 -190 69 -227 247 -227c70 0 129 10 153 35l2 90l-133 23l-14 78l282 -32l17 -96l-67 12l10 -207
c-82 -54 -186 -64 -258 -64z" />
    <glyph glyph-name="uni01F4" unicode="&#x1f4;" horiz-adv-x="839" 
d="M455 1012h51l-51 -154h-76zM444 -14c-308 0 -354 130 -364 378c-14 343 153 376 364 386c95 4 175 -3 199 -24l11 -87c-46 30 -153 31 -202 30c-178 -5 -247 -71 -247 -295c0 -190 69 -227 247 -227c70 0 129 10 153 35l2 90l-133 23l-14 78l282 -32l17 -96l-67 12
l10 -207c-82 -54 -186 -64 -258 -64z" />
    <glyph glyph-name="Gbreve" unicode="&#x11e;" horiz-adv-x="839" 
d="M431 828c-107 0 -192 74 -192 197h65c0 -88 48 -102 127 -102c93 0 136 15 136 102h65c0 -123 -95 -197 -201 -197zM759 245l-67 12l10 -207c-82 -54 -186 -64 -258 -64c-308 0 -354 130 -364 378c-14 343 153 376 364 386c95 4 175 -3 199 -24l11 -87
c-46 30 -153 31 -202 30c-178 -5 -247 -71 -247 -295c0 -190 69 -227 247 -227c70 0 129 10 153 35l2 90l-133 23l-14 78l282 -32z" />
    <glyph glyph-name="Gcaron" unicode="&#x1e6;" horiz-adv-x="839" 
d="M413 849l-44 64l-133 131h54l143 -99l145 99h54l-132 -131l-39 -64h-48zM444 -14c-308 0 -354 130 -364 378c-14 343 153 376 364 386c95 4 175 -3 199 -24l11 -87c-46 30 -153 31 -202 30c-178 -5 -247 -71 -247 -295c0 -190 69 -227 247 -227c70 0 129 10 153 35l2 90
l-133 23l-14 78l282 -32l17 -96l-67 12l10 -207c-82 -54 -186 -64 -258 -64z" />
    <glyph glyph-name="uni0122" unicode="&#x122;" horiz-adv-x="839" 
d="M472 844h-105l51 142h-15l11 95h124zM759 245l-67 12l10 -207c-82 -54 -186 -64 -258 -64c-308 0 -354 130 -364 378c-14 343 153 376 364 386c95 4 175 -3 199 -24l11 -87c-46 30 -153 31 -202 30c-178 -5 -247 -71 -247 -295c0 -190 69 -227 247 -227
c70 0 129 10 153 35l2 90l-133 23l-14 78l282 -32z" />
    <glyph glyph-name="Gdotaccent" unicode="&#x120;" horiz-adv-x="839" 
d="M376 880l16 111h95v-111h-111zM444 -14c-308 0 -354 130 -364 378c-14 343 153 376 364 386c95 4 175 -3 199 -24l11 -87c-46 30 -153 31 -202 30c-178 -5 -247 -71 -247 -295c0 -190 69 -227 247 -227c70 0 129 10 153 35l2 90l-133 23l-14 78l282 -32l17 -96l-67 12
l10 -207c-82 -54 -186 -64 -258 -64z" />
    <glyph glyph-name="uni0193" unicode="&#x193;" horiz-adv-x="839" 
d="M759 245l-67 12l10 -207c-82 -54 -186 -64 -258 -64c-308 0 -354 130 -364 378c-14 343 153 376 364 386c54 2 102 1 139 -4v123v2v27c0 8 0 12 1 28c4 61 23 65 125 64v-47c-55 0 -57 -1 -57 -28v-17v-29v-188h-3l5 -42c-46 30 -153 31 -202 30
c-178 -5 -247 -71 -247 -295c0 -190 69 -227 247 -227c70 0 129 10 153 35l2 90l-133 23l-14 78l282 -32z" />
    <glyph glyph-name="H" unicode="H" horiz-adv-x="771" 
d="M691 0h-159l6 187h-313l7 -187h-152l20 750h104l15 -397h324l13 397h104z" />
    <glyph glyph-name="Hbar" unicode="&#x126;" horiz-adv-x="927" 
d="M774 567l-8 -91h-95l20 -476h-159l6 187h-313l7 -187h-152l13 478h-86l7 91h81l5 181h104l7 -182h339l6 182h104l8 -183h106zM543 353l4 124h-333l5 -124h324z" />
    <glyph glyph-name="uni1E24" unicode="&#x1e24;" horiz-adv-x="771" 
d="M691 0h-159l6 187h-313l7 -187h-152l20 750h104l15 -397h324l13 397h104zM330 -160l16 111h95v-111h-111z" />
    <glyph glyph-name="uniA7AA" unicode="&#xa7aa;" horiz-adv-x="771" 
d="M691 0h-159l6 187h-313l7 -187h-152l16 601c-53 -9 -80 -50 -88 -98c-6 -36 -6 -106 -6 -142l-65 99v67c0 84 52 188 162 203l1 20h104l15 -397h324l13 397h104z" />
    <glyph glyph-name="uniA78D" unicode="&#xa78d;" horiz-adv-x="663" 
d="M80 430l5 300h80l5 -271c1 -57 15 -97 42 -120c22 -18 54 -27 97 -27c48 0 86 14 114 42c29 29 44 70 45 123l12 253h83l20 -730h-125l7 278c-35 -55 -97 -82 -186 -82c-63 0 -112 20 -147 60c-35 41 -52 99 -52 174z" />
    <glyph glyph-name="I" unicode="I" horiz-adv-x="300" 
d="M80 0c31 292 15 653 5 750h109c-10 -237 0 -507 26 -750h-140z" />
    <glyph glyph-name="Iacute" unicode="&#xcd;" horiz-adv-x="300" 
d="M157 1013h51l-51 -154h-76zM80 0c31 292 15 653 5 750h109c-10 -237 0 -507 26 -750h-140z" />
    <glyph glyph-name="uni01CF" unicode="&#x1cf;" horiz-adv-x="300" 
d="M121 829l-44 64l-133 131h54l143 -99l145 99h54l-132 -131l-39 -64h-48zM80 0c31 292 15 653 5 750h109c-10 -237 0 -507 26 -750h-140z" />
    <glyph glyph-name="Icircumflex" unicode="&#xce;" horiz-adv-x="300" 
d="M124 967h48l39 -64l132 -131h-54l-145 99l-143 -99h-54l133 131zM80 0c31 292 15 653 5 750h109c-10 -237 0 -507 26 -750h-140z" />
    <glyph glyph-name="Idieresis" unicode="&#xcf;" horiz-adv-x="300" 
d="M-47 820l16 111h95v-111h-111zM225 820l16 111h95v-111h-111zM80 0c31 292 15 653 5 750h109c-10 -237 0 -507 26 -750h-140z" />
    <glyph glyph-name="uni1E2E" unicode="&#x1e2e;" horiz-adv-x="300" 
d="M165 1084h51l-51 -154h-76zM-47 750l16 111h95v-111h-111zM225 750l16 111h95v-111h-111zM80 0c31 292 15 653 5 750h109c-10 -237 0 -507 26 -750h-140z" />
    <glyph glyph-name="Idotaccent" unicode="&#x130;" horiz-adv-x="300" 
d="M84 860l16 111h95v-111h-111zM80 0c31 292 15 653 5 750h109c-10 -237 0 -507 26 -750h-140z" />
    <glyph glyph-name="uni1ECA" unicode="&#x1eca;" horiz-adv-x="300" 
d="M80 0c31 292 15 653 5 750h109c-10 -237 0 -507 26 -750h-140zM99 -156l16 111h95v-111h-111z" />
    <glyph glyph-name="Igrave" unicode="&#xcc;" horiz-adv-x="300" 
d="M90 836l-116 112h79l171 -127zM80 0c31 292 15 653 5 750h109c-10 -237 0 -507 26 -750h-140z" />
    <glyph glyph-name="uni1EC8" unicode="&#x1ec8;" horiz-adv-x="300" 
d="M93 857v-21c16 8 30 13 45 13c23 0 32 -8 32 -14s-4 -12 -11 -17l-11 -9c-8 -6 -13 -10 -16 -15c-2 -4 -3 -10 -3 -16v-3h28c0 5 1 9 2 12c1 1 3 4 9 8l11 7c15 10 21 21 21 31s-6 20 -16 26s-23 10 -40 10c-16 0 -33 -4 -51 -12zM80 0c31 292 15 653 5 750h109
c-10 -237 0 -507 26 -750h-140z" />
    <glyph glyph-name="Imacron" unicode="&#x12a;" horiz-adv-x="300" 
d="M-48 911l386 24l29 -77l-446 -17zM80 0c31 292 15 653 5 750h109c-10 -237 0 -507 26 -750h-140z" />
    <glyph glyph-name="Iogonek" unicode="&#x12e;" horiz-adv-x="600" 
d="M302 -144c15 0 34 2 55 5c3 -20 8 -53 11 -70c-115 -2 -183 30 -183 86c0 34 25 75 79 123h-34c31 292 15 653 5 750h109c-10 -237 0 -507 26 -750h-46c-55 -52 -83 -89 -83 -113c0 -20 20 -31 61 -31z" />
    <glyph glyph-name="uni0196" unicode="&#x196;" horiz-adv-x="358" 
d="M200 137c8 -69 45 -64 78 -60v-84h-134c-54 0 -64 51 -64 111v38c13 225 19 335 19 595h80c-7 -196 -7 -372 23 -600h-2z" />
    <glyph glyph-name="uni0197" unicode="&#x197;" horiz-adv-x="398" 
d="M325 397v-91h-72c5 -104 13 -207 24 -306h-140c10 98 16 205 17 306h-67v91h68c0 161 -7 299 -13 353h109c-5 -112 -5 -232 -1 -353h75z" />
    <glyph glyph-name="Itilde" unicode="&#x128;" horiz-adv-x="300" 
d="M42 791h-55c8 117 23 150 94 150c66 0 83 -100 127 -100c50 0 39 51 41 100h46c-2 -146 -32 -151 -86 -150c-72 1 -91 104 -128 105c-39 1 -39 -62 -39 -105zM80 0c31 292 15 653 5 750h109c-10 -237 0 -507 26 -750h-140z" />
    <glyph glyph-name="J" unicode="J" horiz-adv-x="481" 
d="M263 60c-2 -53 -41 -134 -126 -115l-50 11l-7 -161l66 -6c166 2 222 89 231 265l34 696h-125z" />
    <glyph glyph-name="K" unicode="K" horiz-adv-x="730" 
d="M80 0l65 751h88l-13 -350l208 350h127l-243 -402l338 -349h-233l-197 291l-12 -291h-128z" />
    <glyph glyph-name="uni0136" unicode="&#x136;" horiz-adv-x="730" 
d="M367 804h-105l51 142h-15l11 95h124zM312 349l338 -349h-233l-197 291l-12 -291h-128l65 751h88l-13 -350l208 350h127z" />
    <glyph glyph-name="uni0198" unicode="&#x198;" horiz-adv-x="730" 
d="M670 558v-67l-65 -99c0 36 0 106 -6 142c-9 54 -42 100 -111 100c0 2 0 3 -1 5l-175 -290l338 -349h-233l-197 291l-12 -291h-128l65 751h88l-13 -350l208 350h51v12c25 0 48 -4 68 -12h8l-2 -3c79 -33 117 -119 117 -190z" />
    <glyph glyph-name="L" unicode="L" horiz-adv-x="629" 
d="M80 0l36 750h88l-20 -605l365 16v-161h-469z" />
    <glyph glyph-name="uni01C7" unicode="&#x1c7;" horiz-adv-x="980" 
d="M80 0l36 750h88l-20 -605l365 16v-161h-469zM762 60c-2 -53 -41 -134 -126 -115l-50 11l-7 -161l66 -6c166 2 222 89 231 265l34 696h-125z" />
    <glyph glyph-name="Lacute" unicode="&#x139;" horiz-adv-x="629" 
d="M170 984h51l-51 -154h-76zM80 0l36 750h88l-20 -605l365 16v-161h-469z" />
    <glyph glyph-name="Lcaron" unicode="&#x13d;" horiz-adv-x="629" 
d="M80 0l36 750h88l-20 -605l365 16v-161h-469zM412 526h-95l28 213h79z" />
    <glyph glyph-name="uni1E3C" unicode="&#x1e3c;" horiz-adv-x="629" 
d="M80 0l36 750h88l-20 -605l365 16v-161h-469zM301 -134h48l39 -64l132 -131h-54l-145 99l-143 -99h-54l133 131z" />
    <glyph glyph-name="uni013B" unicode="&#x13b;" horiz-adv-x="629" 
d="M187 816h-105l51 142h-15l11 95h124zM184 145l365 16v-161h-469l36 750h88z" />
    <glyph glyph-name="Ldot" unicode="&#x13f;" horiz-adv-x="629" 
d="M80 0l36 750h88l-20 -605l365 16v-161h-469zM319 597l16 111h95v-111h-111z" />
    <glyph glyph-name="uni1E36" unicode="&#x1e36;" horiz-adv-x="629" 
d="M80 0l36 750h88l-20 -605l365 16v-161h-469zM261 -181l16 111h95v-111h-111z" />
    <glyph glyph-name="uni01C8" unicode="&#x1c8;" horiz-adv-x="629" 
d="M80 0l36 750h88l-20 -605l365 16v-161h-469zM694 607l16 111h95v-111h-111zM684 -78c17 59 17 193 28 595h95l-30 -571c-6 -107 -22 -149 -57 -176c-33 -26 -168 -46 -253 -29l46 94c50 -9 144 -4 171 87z" />
    <glyph glyph-name="uni2C62" unicode="&#x2c62;" horiz-adv-x="629" 
d="M184 145l365 16v-161h-469l17 354c-10 -22 -10 -54 -10 -79h-71c8 99 24 138 84 148l16 327h88l-11 -342c43 -29 66 -83 108 -83c64 0 50 51 53 100h59c-3 -146 -41 -151 -111 -150c-55 1 -86 37 -112 66z" />
    <glyph glyph-name="Lslash" unicode="&#x141;" horiz-adv-x="629" 
d="M184 145l365 16v-161h-469l13 264l-1 -1l-100 22l105 79l19 386h88l-10 -314l229 171l57 -26l-289 -237z" />
    <glyph glyph-name="M" unicode="M" horiz-adv-x="874" 
d="M62 0l41 750h150l189 -461l184 461h137l60 -750h-190l40 552l-179 -489h-109l-198 489l36 -552h-161z" />
    <glyph glyph-name="uni1E3E" unicode="&#x1e3e;" horiz-adv-x="874" 
d="M462 932h51l-51 -154h-76zM62 0l41 750h150l189 -461l184 461h137l60 -750h-190l40 552l-179 -489h-109l-198 489l36 -552h-161z" />
    <glyph glyph-name="uni1E40" unicode="&#x1e40;" horiz-adv-x="874" 
d="M383 800l16 111h95v-111h-111zM62 0l41 750h150l189 -461l184 461h137l60 -750h-190l40 552l-179 -489h-109l-198 489l36 -552h-161z" />
    <glyph glyph-name="N" unicode="N" horiz-adv-x="757" 
d="M80 0l58 722h123l276 -583l49 610h111l-40 -749h-174l-249 522l9 -522h-163z" />
    <glyph glyph-name="uni01CA" unicode="&#x1ca;" horiz-adv-x="1088" 
d="M870 60c-2 -53 -41 -134 -126 -115l-50 11l-7 -161l66 -6c166 2 222 89 231 265l34 696h-125zM80 0l58 722h123l276 -583l49 610h111l-40 -749h-174l-249 522l9 -522h-163z" />
    <glyph glyph-name="Nacute" unicode="&#x143;" horiz-adv-x="757" 
d="M434 942h51l-51 -154h-76zM80 0l58 722h123l276 -583l49 610h111l-40 -749h-174l-249 522l9 -522h-163z" />
    <glyph glyph-name="Ncaron" unicode="&#x147;" horiz-adv-x="757" 
d="M392 779l-44 64l-133 131h54l143 -99l145 99h54l-132 -131l-39 -64h-48zM80 0l58 722h123l276 -583l49 610h111l-40 -749h-174l-249 522l9 -522h-163z" />
    <glyph glyph-name="uni1E4A" unicode="&#x1e4a;" horiz-adv-x="757" 
d="M80 0l58 722h123l276 -583l49 610h111l-40 -749h-174l-249 522l9 -522h-163zM363 -113h48l39 -64l132 -131h-54l-145 99l-143 -99h-54l133 131z" />
    <glyph glyph-name="uni0145" unicode="&#x145;" horiz-adv-x="757" 
d="M586 749h111l-40 -749h-174l-249 522l9 -522h-163l58 722h123l276 -583zM628 -55l-66 -237h-105l51 142h-15l11 95h124z" />
    <glyph glyph-name="uni1E44" unicode="&#x1e44;" horiz-adv-x="757" 
d="M355 810l16 111h95v-111h-111zM80 0l58 722h123l276 -583l49 610h111l-40 -749h-174l-249 522l9 -522h-163z" />
    <glyph glyph-name="uni1E46" unicode="&#x1e46;" horiz-adv-x="757" 
d="M80 0l58 722h123l276 -583l49 610h111l-40 -749h-174l-249 522l9 -522h-163zM323 -160l16 111h95v-111h-111z" />
    <glyph glyph-name="uni01F8" unicode="&#x1f8;" horiz-adv-x="757" 
d="M385 744l-116 112h79l171 -127zM80 0l58 722h123l276 -583l49 610h111l-40 -749h-174l-249 522l9 -522h-163z" />
    <glyph glyph-name="Eng" unicode="&#x14a;" horiz-adv-x="757" 
d="M697 749l-40 -749h-19c0 -88 -17 -124 -36 -139c-29 -24 -227 -36 -275 -22c4 9 20 62 24 73h54c71 0 71 19 71 91c0 2 1 4 3 6l-245 513l9 -522h-163l58 722h123l276 -583l49 610h111z" />
    <glyph glyph-name="uni019D" unicode="&#x19d;" horiz-adv-x="757" 
d="M697 749l-40 -749h-153c1 -2 1 -3 1 -5c0 -80 -134 -161 -264 -161c1 53 3 77 9 129c69 0 102 46 111 100c6 36 6 106 6 142l37 -39l-170 356l9 -522h-163l58 722h123l276 -583l49 610h111z" />
    <glyph glyph-name="uni01CB" unicode="&#x1cb;" horiz-adv-x="858" 
d="M483 0l-249 522l9 -522h-163l58 722h123l276 -583l49 610h111l-1 -10h87v-111h-92l-34 -628h-174zM690 538h95l-30 -571c-6 -107 -22 -149 -57 -176c-33 -26 -168 -46 -253 -29l46 94c50 -9 144 -4 171 87c17 59 17 193 28 595z" />
    <glyph glyph-name="Ntilde" unicode="&#xd1;" horiz-adv-x="757" 
d="M586 749h111l-40 -749h-174l-157 329c-8 -22 -8 -55 -8 -80h-55c5 75 13 115 37 135l-66 138l9 -522h-163l58 722h123l192 -405c9 -11 19 -18 31 -18c50 0 39 51 41 100h33zM485 249l52 -110l10 130c-14 -20 -35 -20 -62 -20z" />
    <glyph glyph-name="O" unicode="O" horiz-adv-x="835" 
d="M418 752c205 0 343 -108 337 -378c-6 -260 -83 -390 -337 -388c-233 2 -338 128 -338 388s133 378 338 378zM418 672c-143 0 -234 -156 -234 -308c0 -151 91 -191 234 -191s233 40 233 191c0 152 -90 308 -233 308z" />
    <glyph glyph-name="Oacute" unicode="&#xd3;" horiz-adv-x="835" 
d="M6 832h51l-51 -154h-76zM418 752c205 0 343 -108 337 -378c-6 -260 -83 -390 -337 -388c-233 2 -338 128 -338 388s133 378 338 378zM418 672c-143 0 -234 -156 -234 -308c0 -151 91 -191 234 -191s233 40 233 191c0 152 -90 308 -233 308z" />
    <glyph glyph-name="Obreve" unicode="&#x14e;" horiz-adv-x="835" 
d="M407 836c-107 0 -192 74 -192 197h65c0 -88 48 -102 127 -102c93 0 136 15 136 102h65c0 -123 -95 -197 -201 -197zM418 752c205 0 343 -108 337 -378c-6 -260 -83 -390 -337 -388c-233 2 -338 128 -338 388s133 378 338 378zM418 173c143 0 233 40 233 191
c0 152 -90 308 -233 308s-234 -156 -234 -308c0 -151 91 -191 234 -191z" />
    <glyph glyph-name="uni01D1" unicode="&#x1d1;" horiz-adv-x="835" 
d="M391 865l-44 64l-133 131h54l143 -99l145 99h54l-132 -131l-39 -64h-48zM418 752c205 0 343 -108 337 -378c-6 -260 -83 -390 -337 -388c-233 2 -338 128 -338 388s133 378 338 378zM418 672c-143 0 -234 -156 -234 -308c0 -151 91 -191 234 -191s233 40 233 191
c0 152 -90 308 -233 308z" />
    <glyph glyph-name="Ocircumflex" unicode="&#xd4;" horiz-adv-x="835" 
d="M394 1003h48l39 -64l132 -131h-54l-145 99l-143 -99h-54l133 131zM418 752c205 0 343 -108 337 -378c-6 -260 -83 -390 -337 -388c-233 2 -338 128 -338 388s133 378 338 378zM418 672c-143 0 -234 -156 -234 -308c0 -151 91 -191 234 -191s233 40 233 191
c0 152 -90 308 -233 308z" />
    <glyph glyph-name="uni1ED0" unicode="&#x1ed0;" horiz-adv-x="835" 
d="M652 1075h51l-51 -154h-76zM390 1044h48l39 -64l132 -131h-54l-145 99l-143 -99h-54l133 131zM418 752c205 0 343 -108 337 -378c-6 -260 -83 -390 -337 -388c-233 2 -338 128 -338 388s133 378 338 378zM418 672c-143 0 -234 -156 -234 -308c0 -151 91 -191 234 -191
s233 40 233 191c0 152 -90 308 -233 308z" />
    <glyph glyph-name="uni1ED8" unicode="&#x1ed8;" horiz-adv-x="835" 
d="M397 1046h48l39 -64l132 -131h-54l-145 99l-143 -99h-54l133 131zM418 752c205 0 343 -108 337 -378c-6 -260 -83 -390 -337 -388c-233 2 -338 128 -338 388s133 378 338 378zM418 672c-143 0 -234 -156 -234 -308c0 -151 91 -191 234 -191s233 40 233 191
c0 152 -90 308 -233 308zM362 -214l16 111h95v-111h-111z" />
    <glyph glyph-name="uni1ED2" unicode="&#x1ed2;" horiz-adv-x="835" 
d="M638 969l-116 112h79l171 -127zM390 1052h48l39 -64l132 -131h-54l-145 99l-143 -99h-54l133 131zM418 752c205 0 343 -108 337 -378c-6 -260 -83 -390 -337 -388c-233 2 -338 128 -338 388s133 378 338 378zM418 672c-143 0 -234 -156 -234 -308
c0 -151 91 -191 234 -191s233 40 233 191c0 152 -90 308 -233 308z" />
    <glyph glyph-name="uni1ED4" unicode="&#x1ed4;" horiz-adv-x="835" 
d="M498 1095v-21c16 8 30 13 45 13c23 0 32 -8 32 -14s-4 -12 -11 -17l-11 -9c-8 -6 -13 -10 -16 -15c-2 -4 -3 -10 -3 -16v-3h28c0 5 1 9 2 12c1 1 3 4 9 8l11 7c15 10 21 21 21 31s-6 20 -16 26s-23 10 -40 10c-16 0 -33 -4 -51 -12zM390 1052h48l39 -64l132 -131h-54
l-145 99l-143 -99h-54l133 131zM418 752c205 0 343 -108 337 -378c-6 -260 -83 -390 -337 -388c-233 2 -338 128 -338 388s133 378 338 378zM418 672c-143 0 -234 -156 -234 -308c0 -151 91 -191 234 -191s233 40 233 191c0 152 -90 308 -233 308z" />
    <glyph glyph-name="uni1ED6" unicode="&#x1ed6;" horiz-adv-x="835" 
d="M329 1092h-55c8 117 23 150 94 150c66 0 83 -100 127 -100c50 0 39 51 41 100h46c-2 -146 -32 -151 -86 -150c-72 1 -91 104 -128 105c-39 1 -39 -62 -39 -105zM395 1057h48l39 -64l132 -131h-54l-145 99l-143 -99h-54l133 131zM418 752c205 0 343 -108 337 -378
c-6 -260 -83 -390 -337 -388c-233 2 -338 128 -338 388s133 378 338 378zM418 672c-143 0 -234 -156 -234 -308c0 -151 91 -191 234 -191s233 40 233 191c0 152 -90 308 -233 308z" />
    <glyph glyph-name="Odieresis" unicode="&#xd6;" horiz-adv-x="835" 
d="M223 856l16 111h95v-111h-111zM495 856l16 111h95v-111h-111zM418 752c205 0 343 -108 337 -378c-6 -260 -83 -390 -337 -388c-233 2 -338 128 -338 388s133 378 338 378zM418 672c-143 0 -234 -156 -234 -308c0 -151 91 -191 234 -191s233 40 233 191
c0 152 -90 308 -233 308z" />
    <glyph glyph-name="uni022A" unicode="&#x22a;" horiz-adv-x="835" 
d="M224 1039l386 24l29 -77l-446 -17zM223 786l16 111h95v-111h-111zM495 786l16 111h95v-111h-111zM418 752c205 0 343 -108 337 -378c-6 -260 -83 -390 -337 -388c-233 2 -338 128 -338 388s133 378 338 378zM418 672c-143 0 -234 -156 -234 -308c0 -151 91 -191 234 -191
s233 40 233 191c0 152 -90 308 -233 308z" />
    <glyph glyph-name="uni1ECC" unicode="&#x1ecc;" horiz-adv-x="835" 
d="M418 752c205 0 343 -108 337 -378c-6 -260 -83 -390 -337 -388c-233 2 -338 128 -338 388s133 378 338 378zM418 672c-143 0 -234 -156 -234 -308c0 -151 91 -191 234 -191s233 40 233 191c0 152 -90 308 -233 308zM362 -214l16 111h95v-111h-111z" />
    <glyph glyph-name="Ograve" unicode="&#xd2;" horiz-adv-x="835" 
d="M360 872l-116 112h79l171 -127zM418 752c205 0 343 -108 337 -378c-6 -260 -83 -390 -337 -388c-233 2 -338 128 -338 388s133 378 338 378zM418 672c-143 0 -234 -156 -234 -308c0 -151 91 -191 234 -191s233 40 233 191c0 152 -90 308 -233 308z" />
    <glyph glyph-name="uni1ECE" unicode="&#x1ece;" horiz-adv-x="835" 
d="M363 893v-21c16 8 30 13 45 13c23 0 32 -8 32 -14s-4 -12 -11 -17l-11 -9c-8 -6 -13 -10 -16 -15c-2 -4 -3 -10 -3 -16v-3h28c0 5 1 9 2 12c1 1 3 4 9 8l11 7c15 10 21 21 21 31s-6 20 -16 26s-23 10 -40 10c-16 0 -33 -4 -51 -12zM418 752c205 0 343 -108 337 -378
c-6 -260 -83 -390 -337 -388c-233 2 -338 128 -338 388s133 378 338 378zM418 672c-143 0 -234 -156 -234 -308c0 -151 91 -191 234 -191s233 40 233 191c0 152 -90 308 -233 308z" />
    <glyph glyph-name="Ohorn" unicode="&#x1a0;" horiz-adv-x="835" 
d="M680 648c50 -61 78 -151 75 -274c-6 -260 -83 -390 -337 -388c-233 2 -338 128 -338 388s133 378 338 378c93 0 173 -22 231 -72c16 22 14 61 14 76c0 11 -3 20 -7 30l48 -6c3 -12 5 -23 5 -32c0 -33 -8 -73 -29 -100zM418 173c143 0 233 40 233 191
c0 152 -90 308 -233 308s-234 -156 -234 -308c0 -151 91 -191 234 -191z" />
    <glyph glyph-name="uni1EDA" unicode="&#x1eda;" horiz-adv-x="835" 
d="M484 1028l-51 -154h-76l76 154h51zM680 648c50 -61 78 -151 75 -274c-6 -260 -83 -390 -337 -388c-233 2 -338 128 -338 388s133 378 338 378c93 0 173 -22 231 -72c16 22 14 61 14 76c0 11 -3 20 -7 30l48 -6c3 -12 5 -23 5 -32c0 -33 -8 -73 -29 -100zM418 173
c143 0 233 40 233 191c0 152 -90 308 -233 308s-234 -156 -234 -308c0 -151 91 -191 234 -191z" />
    <glyph glyph-name="uni1EE2" unicode="&#x1ee2;" horiz-adv-x="835" 
d="M680 648c50 -61 78 -151 75 -274c-6 -260 -83 -390 -337 -388c-233 2 -338 128 -338 388s133 378 338 378c93 0 173 -22 231 -72c16 22 14 61 14 76c0 11 -3 20 -7 30l48 -6c3 -12 5 -23 5 -32c0 -33 -8 -73 -29 -100zM418 173c143 0 233 40 233 191
c0 152 -90 308 -233 308s-234 -156 -234 -308c0 -151 91 -191 234 -191zM362 -214l16 111h95v-111h-111z" />
    <glyph glyph-name="uni1EDC" unicode="&#x1edc;" horiz-adv-x="835" 
d="M518 815l-134 15l-116 112h79zM680 648c50 -61 78 -151 75 -274c-6 -260 -83 -390 -337 -388c-233 2 -338 128 -338 388s133 378 338 378c93 0 173 -22 231 -72c16 22 14 61 14 76c0 11 -3 20 -7 30l48 -6c3 -12 5 -23 5 -32c0 -33 -8 -73 -29 -100zM418 173
c143 0 233 40 233 191c0 152 -90 308 -233 308s-234 -156 -234 -308c0 -151 91 -191 234 -191z" />
    <glyph glyph-name="uni1EDE" unicode="&#x1ede;" horiz-adv-x="835" 
d="M440 871c0 6 -9 14 -32 14c-15 0 -29 -5 -45 -13v21c18 8 35 12 51 12c17 0 30 -4 40 -10s16 -16 16 -26s-6 -21 -21 -31l-11 -7c-6 -4 -8 -7 -9 -8c-1 -3 -2 -7 -2 -12h-28v3c0 6 1 12 3 16c3 5 8 9 16 15l11 9c7 5 11 11 11 17zM680 648c50 -61 78 -151 75 -274
c-6 -260 -83 -390 -337 -388c-233 2 -338 128 -338 388s133 378 338 378c93 0 173 -22 231 -72c16 22 14 61 14 76c0 11 -3 20 -7 30l48 -6c3 -12 5 -23 5 -32c0 -33 -8 -73 -29 -100zM418 173c143 0 233 40 233 191c0 152 -90 308 -233 308s-234 -156 -234 -308
c0 -151 91 -191 234 -191z" />
    <glyph glyph-name="uni1EE0" unicode="&#x1ee0;" horiz-adv-x="835" 
d="M351 932c-39 1 -39 -62 -39 -105h-55c8 117 23 150 94 150c66 0 83 -100 127 -100c50 0 39 51 41 100h46c-2 -146 -32 -151 -86 -150c-72 1 -91 104 -128 105zM680 648c50 -61 78 -151 75 -274c-6 -260 -83 -390 -337 -388c-233 2 -338 128 -338 388s133 378 338 378
c93 0 173 -22 231 -72c16 22 14 61 14 76c0 11 -3 20 -7 30l48 -6c3 -12 5 -23 5 -32c0 -33 -8 -73 -29 -100zM418 173c143 0 233 40 233 191c0 152 -90 308 -233 308s-234 -156 -234 -308c0 -151 91 -191 234 -191z" />
    <glyph glyph-name="Ohungarumlaut" unicode="&#x150;" horiz-adv-x="835" 
d="M354 837l-134 -15l171 127h79zM537 837l-134 -15l171 127h79zM418 752c205 0 343 -108 337 -378c-6 -260 -83 -390 -337 -388c-233 2 -338 128 -338 388s133 378 338 378zM418 672c-143 0 -234 -156 -234 -308c0 -151 91 -191 234 -191s233 40 233 191
c0 152 -90 308 -233 308z" />
    <glyph glyph-name="Omacron" unicode="&#x14c;" horiz-adv-x="835" 
d="M222 947l386 24l29 -77l-446 -17zM418 752c205 0 343 -108 337 -378c-6 -260 -83 -390 -337 -388c-233 2 -338 128 -338 388s133 378 338 378zM418 672c-143 0 -234 -156 -234 -308c0 -151 91 -191 234 -191s233 40 233 191c0 152 -90 308 -233 308z" />
    <glyph glyph-name="uni1E52" unicode="&#x1e52;" horiz-adv-x="835" 
d="M434 1223h51l-51 -154h-76zM222 947l386 24l29 -77l-446 -17zM418 752c205 0 343 -108 337 -378c-6 -260 -83 -390 -337 -388c-233 2 -338 128 -338 388s133 378 338 378zM418 672c-143 0 -234 -156 -234 -308c0 -151 91 -191 234 -191s233 40 233 191
c0 152 -90 308 -233 308z" />
    <glyph glyph-name="uni1E50" unicode="&#x1e50;" horiz-adv-x="835" 
d="M385 1025l-116 112h79l171 -127zM222 947l386 24l29 -77l-446 -17zM418 752c205 0 343 -108 337 -378c-6 -260 -83 -390 -337 -388c-233 2 -338 128 -338 388s133 378 338 378zM418 672c-143 0 -234 -156 -234 -308c0 -151 91 -191 234 -191s233 40 233 191
c0 152 -90 308 -233 308z" />
    <glyph glyph-name="uni0186" unicode="&#x186;" horiz-adv-x="717" 
d="M106 733c69 10 97 26 185 15c244 -30 332 -204 356 -330c43 -227 -45 -413 -235 -431c-84 -8 -247 5 -303 22l2 207c49 -15 79 -35 164 -38c165 -6 287 72 256 240c-24 131 -142 229 -246 236c-43 3 -108 -7 -165 -17z" />
    <glyph glyph-name="Oslash" unicode="&#xd8;" horiz-adv-x="825" 
d="M788 845l-116 -187c55 -61 86 -154 83 -284c-6 -260 -83 -390 -337 -388c-57 0 -106 8 -148 24l-17 -28l-217 -78l123 182c-54 64 -79 160 -79 288c0 260 133 378 338 378c64 0 121 -10 169 -33l68 100zM184 364c0 -74 22 -122 61 -151l285 422c-32 23 -70 37 -112 37
c-143 0 -234 -156 -234 -308zM651 364c0 65 -16 131 -47 185l-232 -374c15 -2 30 -2 46 -2c143 0 233 40 233 191z" />
    <glyph glyph-name="Oslashacute" unicode="&#x1fe;" horiz-adv-x="825" 
d="M484 1028l-51 -154h-76l76 154h51zM788 845l-116 -187c55 -61 86 -154 83 -284c-6 -260 -83 -390 -337 -388c-57 0 -106 8 -148 24l-17 -28l-217 -78l123 182c-54 64 -79 160 -79 288c0 260 133 378 338 378c64 0 121 -10 169 -33l68 100zM184 364c0 -74 22 -122 61 -151
l285 422c-32 23 -70 37 -112 37c-143 0 -234 -156 -234 -308zM651 364c0 65 -16 131 -47 185l-232 -374c15 -2 30 -2 46 -2c143 0 233 40 233 191z" />
    <glyph glyph-name="Otilde" unicode="&#xd5;" horiz-adv-x="835" 
d="M313 845h-55c8 117 23 150 94 150c66 0 83 -100 127 -100c50 0 39 51 41 100h46c-2 -146 -32 -151 -86 -150c-72 1 -91 104 -128 105c-39 1 -39 -62 -39 -105zM418 752c205 0 343 -108 337 -378c-6 -260 -83 -390 -337 -388c-233 2 -338 128 -338 388s133 378 338 378z
M418 672c-143 0 -234 -156 -234 -308c0 -151 91 -191 234 -191s233 40 233 191c0 152 -90 308 -233 308z" />
    <glyph glyph-name="uni1E4C" unicode="&#x1e4c;" horiz-adv-x="835" 
d="M504 1190h51l-51 -154h-76zM312 827h-55c8 117 23 150 94 150c66 0 83 -100 127 -100c50 0 39 51 41 100h46c-2 -146 -32 -151 -86 -150c-72 1 -91 104 -128 105c-39 1 -39 -62 -39 -105zM418 752c205 0 343 -108 337 -378c-6 -260 -83 -390 -337 -388
c-233 2 -338 128 -338 388s133 378 338 378zM418 672c-143 0 -234 -156 -234 -308c0 -151 91 -191 234 -191s233 40 233 191c0 152 -90 308 -233 308z" />
    <glyph glyph-name="OE" unicode="&#x152;" horiz-adv-x="1203" 
d="M1123 -11h-483l2 56c-52 -40 -124 -60 -224 -59c-233 2 -338 128 -338 388s133 378 338 378c101 0 185 -26 244 -84l2 57l444 14l-21 -94l-330 -19v-198l245 11v-103l-245 -16v-180h333zM418 173c143 0 233 40 233 191c0 152 -90 308 -233 308s-234 -156 -234 -308
c0 -151 91 -191 234 -191z" />
    <glyph glyph-name="P" unicode="P" horiz-adv-x="646" 
d="M80 0l41 791h186c184 0 248 -95 259 -221c13 -152 -75 -217 -239 -225l-119 -6l20 -339h-148zM203 478l134 6c98 4 133 22 133 130c0 40 -29 112 -159 112h-108v-248z" />
    <glyph glyph-name="uni1E56" unicode="&#x1e56;" horiz-adv-x="646" 
d="M566 570c13 -152 -75 -217 -239 -225l-119 -6l20 -339h-148l41 791h143l15 101h95v-106c133 -21 182 -107 192 -216zM337 484c98 4 133 22 133 130c0 40 -29 112 -159 112h-108v-248z" />
    <glyph glyph-name="uni01A4" unicode="&#x1a4;" horiz-adv-x="646" 
d="M566 570c13 -152 -75 -217 -239 -225l-119 -6l20 -339h-148l30 585c-68 -1 -100 -46 -109 -100c-6 -36 -6 -106 -6 -142l-65 99v67c0 90 60 203 187 205l4 77h186c184 0 248 -95 259 -221zM337 484c98 4 133 22 133 130c0 40 -29 112 -159 112h-108v-248z" />
    <glyph glyph-name="Thorn" unicode="&#xde;" horiz-adv-x="560" 
d="M480 371c0 -123 -169 -221 -312 -227v-144h-88v700h88v-103c142 -6 312 -104 312 -226zM208 231c52 0 201 98 201 144s-154 145 -206 145c-12 0 -24 -5 -35 -14v-257c12 -11 26 -18 40 -18zM107 384v-9v-6v15z" />
    <glyph glyph-name="Q" unicode="Q" horiz-adv-x="869" 
d="M558 -129l-104 118c-21 -2 -30 -2 -41 -2c-200 0 -337 55 -337 382c0 203 135 382 342 382s337 -150 337 -382c0 -172 -60 -261 -119 -325l157 -173h-235zM354 159l54 2l33 77c54 -29 109 -50 150 -50c30 0 59 104 59 181c0 186 -88 301 -232 301
c-145 0 -233 -145 -233 -301c0 -213 113 -212 169 -210z" />
    <glyph glyph-name="R" unicode="R" horiz-adv-x="685" 
d="M426 383c42 -29 91 -42 122 -163l57 -220h-180l9 208c5 107 -102 114 -162 104l-52 -9l17 -303h-157l45 750h178c147 0 233 -69 233 -210c0 -97 -42 -146 -110 -157zM313 668h-124v-222h124c75 0 143 51 143 94c0 95 -68 128 -143 128z" />
    <glyph glyph-name="Racute" unicode="&#x154;" horiz-adv-x="685" 
d="M339 942h51l-51 -154h-76zM426 383c42 -29 91 -42 122 -163l57 -220h-180l9 208c5 107 -102 114 -162 104l-52 -9l17 -303h-157l45 750h178c147 0 233 -69 233 -210c0 -97 -42 -146 -110 -157zM313 668h-124v-222h124c75 0 143 51 143 94c0 95 -68 128 -143 128z" />
    <glyph glyph-name="Rcaron" unicode="&#x158;" horiz-adv-x="685" 
d="M297 779l-44 64l-133 131h54l143 -99l145 99h54l-132 -131l-39 -64h-48zM426 383c42 -29 91 -42 122 -163l57 -220h-180l9 208c5 107 -102 114 -162 104l-52 -9l17 -303h-157l45 750h178c147 0 233 -69 233 -210c0 -97 -42 -146 -110 -157zM313 668h-124v-222h124
c75 0 143 51 143 94c0 95 -68 128 -143 128z" />
    <glyph glyph-name="uni0156" unicode="&#x156;" horiz-adv-x="685" 
d="M356 774h-105l51 142h-15l11 95h124zM425 0l9 208c5 107 -102 114 -162 104l-52 -9l17 -303h-157l45 750h178c147 0 233 -69 233 -210c0 -97 -42 -146 -110 -157c42 -29 91 -42 122 -163l57 -220h-180zM313 446c75 0 143 51 143 94c0 95 -68 128 -143 128h-124v-222h124z
" />
    <glyph glyph-name="uni1E5A" unicode="&#x1e5a;" horiz-adv-x="685" 
d="M426 383c42 -29 91 -42 122 -163l57 -220h-180l9 208c5 107 -102 114 -162 104l-52 -9l17 -303h-157l45 750h178c147 0 233 -69 233 -210c0 -97 -42 -146 -110 -157zM313 668h-124v-222h124c75 0 143 51 143 94c0 95 -68 128 -143 128zM264 -160l16 111h95v-111h-111z
" />
    <glyph glyph-name="uni024C" unicode="&#x24c;" horiz-adv-x="685" 
d="M425 0l9 208c5 107 -102 114 -162 104l-52 -9l17 -303h-157l19 317l-172 1l4 125l176 -1l18 308h178c147 0 233 -69 233 -210c0 -97 -42 -146 -110 -157c42 -29 91 -42 122 -163l57 -220h-180zM313 446c75 0 143 51 143 94c0 95 -68 128 -143 128h-124v-222h124z" />
    <glyph glyph-name="uni2C64" unicode="&#x2c64;" horiz-adv-x="685" 
d="M425 0l9 208c5 107 -102 114 -162 104l-52 -9l17 -298c2 -6 4 -12 4 -16c0 -80 -134 -161 -264 -161c1 53 3 77 9 129c47 0 77 21 95 52l44 741h178c147 0 233 -69 233 -210c0 -97 -42 -146 -110 -157c42 -29 91 -42 122 -163l57 -220h-180zM313 446c75 0 143 51 143 94
c0 95 -68 128 -143 128h-124v-222h124z" />
    <glyph glyph-name="S" unicode="S" horiz-adv-x="760" 
d="M591 741l-15 -105c-50 5 -53 23 -152 16c-106 -8 -187 -36 -193 -113c-5 -64 48 -72 135 -90l59 -12c150 -30 289 -111 289 -230c0 -120 -118 -221 -353 -221c-129 0 -222 -8 -306 51l107 150c38 -29 176 -29 231 -29c50 0 119 -3 121 70c1 47 -29 77 -118 95l-60 12
c-147 29 -209 88 -209 199c0 129 72 225 256 225c38 0 144 -4 208 -18z" />
    <glyph glyph-name="Sacute" unicode="&#x15a;" horiz-adv-x="760" 
d="M394 942h51l-51 -154h-76zM591 741l-15 -105c-50 5 -53 23 -152 16c-106 -8 -187 -36 -193 -113c-5 -64 48 -72 135 -90l59 -12c150 -30 289 -111 289 -230c0 -120 -118 -221 -353 -221c-129 0 -222 -8 -306 51l107 150c38 -29 176 -29 231 -29c50 0 119 -3 121 70
c1 47 -29 77 -118 95l-60 12c-147 29 -209 88 -209 199c0 129 72 225 256 225c38 0 144 -4 208 -18z" />
    <glyph glyph-name="uniA78B" unicode="&#xa78b;" horiz-adv-x="392" 
d="M80 763h232l-51 -643h-103z" />
    <glyph glyph-name="Scaron" unicode="&#x160;" horiz-adv-x="760" 
d="M352 779l-44 64l-133 131h54l143 -99l145 99h54l-132 -131l-39 -64h-48zM591 741l-15 -105c-50 5 -53 23 -152 16c-106 -8 -187 -36 -193 -113c-5 -64 48 -72 135 -90l59 -12c150 -30 289 -111 289 -230c0 -120 -118 -221 -353 -221c-129 0 -222 -8 -306 51l107 150
c38 -29 176 -29 231 -29c50 0 119 -3 121 70c1 47 -29 77 -118 95l-60 12c-147 29 -209 88 -209 199c0 129 72 225 256 225c38 0 144 -4 208 -18z" />
    <glyph glyph-name="Scedilla" unicode="&#x15e;" horiz-adv-x="760" 
d="M714 207c0 -118 -114 -217 -340 -221l-19 -53h31c39 0 100 -16 90 -76c-8 -49 -47 -78 -104 -78h-62l11 53c23 -5 31 -5 53 -5c36 0 65 19 65 35c0 44 -38 46 -63 46c-17 0 -37 -2 -61 -5l28 83c-120 -1 -208 -5 -288 51l107 150c38 -29 176 -29 231 -29
c50 0 119 -3 121 70c1 47 -29 77 -118 95l-60 12c-147 29 -209 88 -209 199c0 129 72 225 256 225c38 0 144 -4 208 -18l-15 -105c-50 5 -53 23 -152 16c-106 -8 -187 -36 -193 -113c-5 -64 48 -72 135 -90l59 -12c150 -30 289 -111 289 -230z" />
    <glyph glyph-name="Scircumflex" unicode="&#x15c;" horiz-adv-x="760" 
d="M351 958h48l39 -64l132 -131h-54l-145 99l-143 -99h-54l133 131zM591 741l-15 -105c-50 5 -53 23 -152 16c-106 -8 -187 -36 -193 -113c-5 -64 48 -72 135 -90l59 -12c150 -30 289 -111 289 -230c0 -120 -118 -221 -353 -221c-129 0 -222 -8 -306 51l107 150
c38 -29 176 -29 231 -29c50 0 119 -3 121 70c1 47 -29 77 -118 95l-60 12c-147 29 -209 88 -209 199c0 129 72 225 256 225c38 0 144 -4 208 -18z" />
    <glyph glyph-name="uni0218" unicode="&#x218;" horiz-adv-x="760" 
d="M411 774h-105l51 142h-15l11 95h124zM425 437c150 -30 289 -111 289 -230c0 -120 -118 -221 -353 -221c-129 0 -222 -8 -306 51l107 150c38 -29 176 -29 231 -29c50 0 119 -3 121 70c1 47 -29 77 -118 95l-60 12c-147 29 -209 88 -209 199c0 129 72 225 256 225
c38 0 144 -4 208 -18l-15 -105c-50 5 -53 23 -152 16c-106 -8 -187 -36 -193 -113c-5 -64 48 -72 135 -90z" />
    <glyph glyph-name="uni1E60" unicode="&#x1e60;" horiz-adv-x="760" 
d="M315 810l16 111h95v-111h-111zM591 741l-15 -105c-50 5 -53 23 -152 16c-106 -8 -187 -36 -193 -113c-5 -64 48 -72 135 -90l59 -12c150 -30 289 -111 289 -230c0 -120 -118 -221 -353 -221c-129 0 -222 -8 -306 51l107 150c38 -29 176 -29 231 -29c50 0 119 -3 121 70
c1 47 -29 77 -118 95l-60 12c-147 29 -209 88 -209 199c0 129 72 225 256 225c38 0 144 -4 208 -18z" />
    <glyph glyph-name="uni1E62" unicode="&#x1e62;" horiz-adv-x="760" 
d="M591 741l-15 -105c-50 5 -53 23 -152 16c-106 -8 -187 -36 -193 -113c-5 -64 48 -72 135 -90l59 -12c150 -30 289 -111 289 -230c0 -120 -118 -221 -353 -221c-129 0 -222 -8 -306 51l107 150c38 -29 176 -29 231 -29c50 0 119 -3 121 70c1 47 -29 77 -118 95l-60 12
c-147 29 -209 88 -209 199c0 129 72 225 256 225c38 0 144 -4 208 -18zM319 -147l16 111h95v-111h-111z" />
    <glyph glyph-name="uni1E9E" unicode="&#x1e9e;" horiz-adv-x="1520" 
d="M591 741l-15 -105c-50 5 -53 23 -152 16c-106 -8 -187 -36 -193 -113c-5 -64 48 -72 135 -90l59 -12c150 -30 289 -111 289 -230c0 -120 -118 -221 -353 -221c-129 0 -222 -8 -306 51l107 150c38 -29 176 -29 231 -29c50 0 119 -3 121 70c1 47 -29 77 -118 95l-60 12
c-147 29 -209 88 -209 199c0 129 72 225 256 225c38 0 144 -4 208 -18zM1351 741l-15 -105c-50 5 -53 23 -152 16c-106 -8 -187 -36 -193 -113c-5 -64 48 -72 135 -90l59 -12c150 -30 289 -111 289 -230c0 -120 -118 -221 -353 -221c-129 0 -222 -8 -306 51l107 150
c38 -29 176 -29 231 -29c50 0 119 -3 121 70c1 47 -29 77 -118 95l-60 12c-147 29 -209 88 -209 199c0 129 72 225 256 225c38 0 144 -4 208 -18z" />
    <glyph glyph-name="uni018F" unicode="&#x18f;" horiz-adv-x="656" 
d="M60 209l434 11c3 95 -59 155 -199 176c-74 11 -121 5 -200 -25l5 124c66 25 132 36 203 34c174 -7 289 -121 282 -294c-14 -179 -126 -307 -291 -301c-112 14 -209 93 -234 275zM478 143l-321 -18c7 -61 36 -126 140 -124c102 3 178 76 181 142z" />
    <glyph glyph-name="T" unicode="T" horiz-adv-x="777" 
d="M310 0l29 657l-259 -20v113h617v-103l-259 10l20 -657h-148z" />
    <glyph glyph-name="Tbar" unicode="&#x166;" horiz-adv-x="777" 
d="M697 647l-259 10l8 -247h136v-91h-134l10 -319h-148l14 319h-133v91h137l11 247l-259 -20v113h617v-103z" />
    <glyph glyph-name="Tcaron" unicode="&#x164;" horiz-adv-x="777" 
d="M365 779l-44 64l-133 131h54l143 -99l145 99h54l-132 -131l-39 -64h-48zM310 0l29 657l-259 -20v113h617v-103l-259 10l20 -657h-148z" />
    <glyph glyph-name="uni0162" unicode="&#x162;" horiz-adv-x="777" 
d="M697 750v-103l-259 10l20 -657h-61l-29 -80h31c39 0 100 -16 90 -76c-8 -49 -47 -78 -104 -78h-62l11 53c23 -5 31 -5 53 -5c36 0 65 19 65 35c0 44 -38 46 -63 46c-17 0 -37 -2 -61 -5l37 110h-55l29 657l-259 -20v113h617z" />
    <glyph glyph-name="uni1E70" unicode="&#x1e70;" horiz-adv-x="777" 
d="M310 0l29 657l-259 -20v113h617v-103l-259 10l20 -657h-148zM372 -113h48l39 -64l132 -131h-54l-145 99l-143 -99h-54l133 131z" />
    <glyph glyph-name="uni021A" unicode="&#x21a;" horiz-adv-x="777" 
d="M424 774h-105l51 142h-15l11 95h124zM697 750v-103l-259 10l20 -657h-148l29 657l-259 -20v113h617z" />
    <glyph glyph-name="uni1E6A" unicode="&#x1e6a;" horiz-adv-x="777" 
d="M328 810l16 111h95v-111h-111zM310 0l29 657l-259 -20v113h617v-103l-259 10l20 -657h-148z" />
    <glyph glyph-name="uni1E6C" unicode="&#x1e6c;" horiz-adv-x="777" 
d="M310 0l29 657l-259 -20v113h617v-103l-259 10l20 -657h-148zM332 -160l16 111h95v-111h-111z" />
    <glyph glyph-name="uni01AC" unicode="&#x1ac;" horiz-adv-x="777" 
d="M697 750v-103l-259 10l20 -657h-148l29 657l-259 -20v7c-38 -9 -58 -33 -64 -59c-6 -22 -6 -66 -6 -89l-59 62v42c0 50 42 110 129 125v25h617z" />
    <glyph glyph-name="uni1E6E" unicode="&#x1e6e;" horiz-adv-x="777" 
d="M310 0l29 657l-259 -20v113h617v-103l-259 10l20 -657h-148zM235 -56l307 18l23 -57l-354 -13z" />
    <glyph glyph-name="uni01AE" unicode="&#x1ae;" horiz-adv-x="777" 
d="M697 647l-259 10l20 -650c16 -35 48 -59 98 -59c6 -52 8 -76 9 -129c-130 0 -264 81 -264 161c0 6 4 16 9 26l29 651l-259 -20v113h617v-103z" />
    <glyph glyph-name="U" unicode="U" horiz-adv-x="756" 
d="M96 274l-16 476h144l-14 -376c-8 -212 59 -212 166 -212c106 0 172 0 164 212l-14 376h150l-22 -476c-13 -288 -95 -277 -278 -277c-185 0 -270 -11 -280 277z" />
    <glyph glyph-name="Uacute" unicode="&#xda;" horiz-adv-x="756" 
d="M393 1043h51l-51 -154h-76zM96 274l-16 476h144l-14 -376c-8 -212 59 -212 166 -212c106 0 172 0 164 212l-14 376h150l-22 -476c-13 -288 -95 -277 -278 -277c-185 0 -270 -11 -280 277z" />
    <glyph glyph-name="uni0244" unicode="&#x244;" horiz-adv-x="1126" 
d="M1046 560l-10 -91h-202l-9 -195c-13 -288 -95 -277 -278 -277c-185 0 -270 -11 -280 277l-7 197h-181l9 91h169l-6 188h144l-7 -189h316l-7 189h150l-9 -190h208zM711 374l-4 96h-322l-4 -96c-8 -212 59 -212 166 -212c106 0 172 0 164 212z" />
    <glyph glyph-name="uni01D3" unicode="&#x1d3;" horiz-adv-x="756" 
d="M357 859l-44 64l-133 131h54l143 -99l145 99h54l-132 -131l-39 -64h-48zM96 274l-16 476h144l-14 -376c-8 -212 59 -212 166 -212c106 0 172 0 164 212l-14 376h150l-22 -476c-13 -288 -95 -277 -278 -277c-185 0 -270 -11 -280 277z" />
    <glyph glyph-name="Ucircumflex" unicode="&#xdb;" horiz-adv-x="756" 
d="M360 997h48l39 -64l132 -131h-54l-145 99l-143 -99h-54l133 131zM96 274l-16 476h144l-14 -376c-8 -212 59 -212 166 -212c106 0 172 0 164 212l-14 376h150l-22 -476c-13 -288 -95 -277 -278 -277c-185 0 -270 -11 -280 277z" />
    <glyph glyph-name="Udieresis" unicode="&#xdc;" horiz-adv-x="756" 
d="M189 850l16 111h95v-111h-111zM461 850l16 111h95v-111h-111zM96 274l-16 476h144l-14 -376c-8 -212 59 -212 166 -212c106 0 172 0 164 212l-14 376h150l-22 -476c-13 -288 -95 -277 -278 -277c-185 0 -270 -11 -280 277z" />
    <glyph glyph-name="uni01D7" unicode="&#x1d7;" horiz-adv-x="756" 
d="M401 1114h51l-51 -154h-76zM189 780l16 111h95v-111h-111zM461 780l16 111h95v-111h-111zM96 274l-16 476h144l-14 -376c-8 -212 59 -212 166 -212c106 0 172 0 164 212l-14 376h150l-22 -476c-13 -288 -95 -277 -278 -277c-185 0 -270 -11 -280 277z" />
    <glyph glyph-name="uni01D9" unicode="&#x1d9;" horiz-adv-x="756" 
d="M359 951l-44 64l-133 131h54l143 -99l145 99h54l-132 -131l-39 -64h-48zM189 780l16 111h95v-111h-111zM461 780l16 111h95v-111h-111zM96 274l-16 476h144l-14 -376c-8 -212 59 -212 166 -212c106 0 172 0 164 212l-14 376h150l-22 -476c-13 -288 -95 -277 -278 -277
c-185 0 -270 -11 -280 277z" />
    <glyph glyph-name="uni01DB" unicode="&#x1db;" horiz-adv-x="756" 
d="M352 916l-116 112h79l171 -127zM189 780l16 111h95v-111h-111zM461 780l16 111h95v-111h-111zM96 274l-16 476h144l-14 -376c-8 -212 59 -212 166 -212c106 0 172 0 164 212l-14 376h150l-22 -476c-13 -288 -95 -277 -278 -277c-185 0 -270 -11 -280 277z" />
    <glyph glyph-name="uni01D5" unicode="&#x1d5;" horiz-adv-x="756" 
d="M190 1033l386 24l29 -77l-446 -17zM189 780l16 111h95v-111h-111zM461 780l16 111h95v-111h-111zM96 274l-16 476h144l-14 -376c-8 -212 59 -212 166 -212c106 0 172 0 164 212l-14 376h150l-22 -476c-13 -288 -95 -277 -278 -277c-185 0 -270 -11 -280 277z" />
    <glyph glyph-name="uni1EE4" unicode="&#x1ee4;" horiz-adv-x="756" 
d="M96 274l-16 476h144l-14 -376c-8 -212 59 -212 166 -212c106 0 172 0 164 212l-14 376h150l-22 -476c-13 -288 -95 -277 -278 -277c-185 0 -270 -11 -280 277zM322 -160l16 111h95v-111h-111z" />
    <glyph glyph-name="Ugrave" unicode="&#xd9;" horiz-adv-x="756" 
d="M326 866l-116 112h79l171 -127zM96 274l-16 476h144l-14 -376c-8 -212 59 -212 166 -212c106 0 172 0 164 212l-14 376h150l-22 -476c-13 -288 -95 -277 -278 -277c-185 0 -270 -11 -280 277z" />
    <glyph glyph-name="uni1EE6" unicode="&#x1ee6;" horiz-adv-x="756" 
d="M329 887v-21c16 8 30 13 45 13c23 0 32 -8 32 -14s-4 -12 -11 -17l-11 -9c-8 -6 -13 -10 -16 -15c-2 -4 -3 -10 -3 -16v-3h28c0 5 1 9 2 12c1 1 3 4 9 8l11 7c15 10 21 21 21 31s-6 20 -16 26s-23 10 -40 10c-16 0 -33 -4 -51 -12zM96 274l-16 476h144l-14 -376
c-8 -212 59 -212 166 -212c106 0 172 0 164 212l-14 376h150l-22 -476c-13 -288 -95 -277 -278 -277c-185 0 -270 -11 -280 277z" />
    <glyph glyph-name="Uhorn" unicode="&#x1af;" horiz-adv-x="756" 
d="M751 813c3 -12 5 -23 5 -32c0 -39 -11 -87 -41 -114c-21 -17 -24 -21 -44 -32l-17 -361c-13 -288 -95 -277 -278 -277c-185 0 -270 -11 -280 277l-16 476h144l-14 -376c-8 -212 59 -212 166 -212c106 0 172 0 164 212l-14 376h150l-3 -55c7 4 12 6 17 11
c22 20 20 66 20 83c0 11 -3 20 -7 30z" />
    <glyph glyph-name="uni1EE8" unicode="&#x1ee8;" horiz-adv-x="756" 
d="M450 1022l-51 -154h-76l76 154h51zM751 813c3 -12 5 -23 5 -32c0 -39 -11 -87 -41 -114c-21 -17 -24 -21 -44 -32l-17 -361c-13 -288 -95 -277 -278 -277c-185 0 -270 -11 -280 277l-16 476h144l-14 -376c-8 -212 59 -212 166 -212c106 0 172 0 164 212l-14 376h150
l-3 -55c7 4 12 6 17 11c22 20 20 66 20 83c0 11 -3 20 -7 30z" />
    <glyph glyph-name="uni1EF0" unicode="&#x1ef0;" horiz-adv-x="756" 
d="M751 813c3 -12 5 -23 5 -32c0 -39 -11 -87 -41 -114c-21 -17 -24 -21 -44 -32l-17 -361c-13 -288 -95 -277 -278 -277c-185 0 -270 -11 -280 277l-16 476h144l-14 -376c-8 -212 59 -212 166 -212c106 0 172 0 164 212l-14 376h150l-3 -55c7 4 12 6 17 11
c22 20 20 66 20 83c0 11 -3 20 -7 30zM322 -160l16 111h95v-111h-111z" />
    <glyph glyph-name="uni1EEA" unicode="&#x1eea;" horiz-adv-x="756" 
d="M484 809l-134 15l-116 112h79zM751 813c3 -12 5 -23 5 -32c0 -39 -11 -87 -41 -114c-21 -17 -24 -21 -44 -32l-17 -361c-13 -288 -95 -277 -278 -277c-185 0 -270 -11 -280 277l-16 476h144l-14 -376c-8 -212 59 -212 166 -212c106 0 172 0 164 212l-14 376h150l-3 -55
c7 4 12 6 17 11c22 20 20 66 20 83c0 11 -3 20 -7 30z" />
    <glyph glyph-name="uni1EEC" unicode="&#x1eec;" horiz-adv-x="756" 
d="M406 865c0 6 -9 14 -32 14c-15 0 -29 -5 -45 -13v21c18 8 35 12 51 12c17 0 30 -4 40 -10s16 -16 16 -26s-6 -21 -21 -31l-11 -7c-6 -4 -8 -7 -9 -8c-1 -3 -2 -7 -2 -12h-28v3c0 6 1 12 3 16c3 5 8 9 16 15l11 9c7 5 11 11 11 17zM751 813c3 -12 5 -23 5 -32
c0 -39 -11 -87 -41 -114c-21 -17 -24 -21 -44 -32l-17 -361c-13 -288 -95 -277 -278 -277c-185 0 -270 -11 -280 277l-16 476h144l-14 -376c-8 -212 59 -212 166 -212c106 0 172 0 164 212l-14 376h150l-3 -55c7 4 12 6 17 11c22 20 20 66 20 83c0 11 -3 20 -7 30z" />
    <glyph glyph-name="uni1EEE" unicode="&#x1eee;" horiz-adv-x="756" 
d="M317 926c-39 1 -39 -62 -39 -105h-55c8 117 23 150 94 150c66 0 83 -100 127 -100c50 0 39 51 41 100h46c-2 -146 -32 -151 -86 -150c-72 1 -91 104 -128 105zM751 813c3 -12 5 -23 5 -32c0 -39 -11 -87 -41 -114c-21 -17 -24 -21 -44 -32l-17 -361
c-13 -288 -95 -277 -278 -277c-185 0 -270 -11 -280 277l-16 476h144l-14 -376c-8 -212 59 -212 166 -212c106 0 172 0 164 212l-14 376h150l-3 -55c7 4 12 6 17 11c22 20 20 66 20 83c0 11 -3 20 -7 30z" />
    <glyph glyph-name="Uhungarumlaut" unicode="&#x170;" horiz-adv-x="756" 
d="M320 831l-134 -15l171 127h79zM503 831l-134 -15l171 127h79zM96 274l-16 476h144l-14 -376c-8 -212 59 -212 166 -212c106 0 172 0 164 212l-14 376h150l-22 -476c-13 -288 -95 -277 -278 -277c-185 0 -270 -11 -280 277z" />
    <glyph glyph-name="Umacron" unicode="&#x16a;" horiz-adv-x="756" 
d="M188 941l386 24l29 -77l-446 -17zM96 274l-16 476h144l-14 -376c-8 -212 59 -212 166 -212c106 0 172 0 164 212l-14 376h150l-22 -476c-13 -288 -95 -277 -278 -277c-185 0 -270 -11 -280 277z" />
    <glyph glyph-name="Uogonek" unicode="&#x172;" horiz-adv-x="756" 
d="M526 750h150l-22 -476c-9 -204 -53 -258 -142 -272c-55 -52 -82 -89 -82 -112c0 -20 20 -31 61 -31c15 0 34 2 55 5c3 -20 8 -53 11 -70c-115 -2 -183 30 -183 86c0 32 23 72 73 117h-71c-185 0 -270 -11 -280 277l-16 476h144l-14 -376c-8 -212 59 -212 166 -212
c106 0 172 0 164 212z" />
    <glyph glyph-name="uni01B1" unicode="&#x1b1;" horiz-adv-x="858" 
d="M778 762v-95c-37 -5 -43 -5 -133 -19c64 -42 128 -74 128 -262c0 -230 -132 -378 -337 -378s-338 148 -338 378c0 185 76 220 115 262c-52 6 -97 12 -133 19v95c24 1 56 0 98 0h178c0 -42 -1 -61 -9 -123c-105 10 -145 -153 -145 -253c0 -184 91 -308 234 -308
s233 124 233 308c0 100 -60 216 -162 248c-7 53 -11 86 -11 128h164c38 0 99 4 118 0z" />
    <glyph glyph-name="Uring" unicode="&#x16e;" horiz-adv-x="756" 
d="M380 863c-50 0 -90 43 -90 96c0 52 40 95 90 95s90 -43 90 -95c0 -53 -40 -96 -90 -96zM380 918c28 0 51 1 51 54c0 29 -23 53 -51 53s-51 -24 -51 -53c0 -53 23 -54 51 -54zM96 274l-16 476h144l-14 -376c-8 -212 59 -212 166 -212c106 0 172 0 164 212l-14 376h150
l-22 -476c-13 -288 -95 -277 -278 -277c-185 0 -270 -11 -280 277z" />
    <glyph glyph-name="Utilde" unicode="&#x168;" horiz-adv-x="756" 
d="M278 821h-55c8 117 23 150 94 150c66 0 83 -100 127 -100c50 0 39 51 41 100h46c-2 -146 -32 -151 -86 -150c-72 1 -91 104 -128 105c-39 1 -39 -62 -39 -105zM96 274l-16 476h144l-14 -376c-8 -212 59 -212 166 -212c106 0 172 0 164 212l-14 376h150l-22 -476
c-13 -288 -95 -277 -278 -277c-185 0 -270 -11 -280 277z" />
    <glyph glyph-name="V" unicode="V" horiz-adv-x="828" 
d="M511 0h-204l-237 750h113l198 -536h47l218 536h112z" />
    <glyph glyph-name="uni0194" unicode="&#x194;" horiz-adv-x="962" 
d="M882 800c-13 -17 -62 -77 -69 -87c-124 -167 -222 -301 -295 -408c215 -377 281 -509 -50 -505c-386 4 -317 159 -89 508c-65 108 -148 244 -253 418c-8 12 -33 54 -46 74h159c17 -25 21 -29 33 -51c65 -124 126 -233 180 -329c68 103 145 220 226 352c10 17 8 11 20 28
h184zM464 -73c110 -3 114 36 -19 267c-122 -198 -113 -263 19 -267z" />
    <glyph glyph-name="uni01B2" unicode="&#x1b2;" horiz-adv-x="756" 
d="M665 750h11l-22 -476c-13 -288 -95 -277 -278 -277c-185 0 -270 -11 -280 277l-16 476h144l-14 -376c-8 -212 59 -212 166 -212c106 0 172 0 164 212l-14 376h11c-26 26 -66 43 -126 43c-8 52 -11 76 -13 129c162 0 249 -89 267 -172z" />
    <glyph glyph-name="uni1E7C" unicode="&#x1e7c;" horiz-adv-x="828" 
d="M312 751h-55c8 117 23 150 94 150c66 0 83 -100 127 -100c50 0 39 51 41 100h46c-2 -146 -32 -151 -86 -150c-72 1 -91 104 -128 105c-39 1 -39 -62 -39 -105zM511 0h-204l-237 750h113l198 -536h47l218 536h112z" />
    <glyph glyph-name="uni0245" unicode="&#x245;" horiz-adv-x="828" 
d="M511 750l247 -750h-112l-218 536h-47l-198 -536h-113l237 750h204z" />
    <glyph glyph-name="W" unicode="W" horiz-adv-x="1083" 
d="M243 0l-163 750h115l128 -534l173 327h86l158 -337l148 545h115l-183 -751h-144l-134 364l-145 -364h-154z" />
    <glyph glyph-name="Wacute" unicode="&#x1e82;" horiz-adv-x="1083" 
d="M243 0l-163 750h115l128 -534l173 327h86l158 -337l148 545h115l-183 -751h-144l-134 364l-145 -364h-154zM517 -11h51l-51 -154h-76z" />
    <glyph glyph-name="Wcircumflex" unicode="&#x174;" horiz-adv-x="1083" 
d="M519 917h48l39 -64l132 -131h-54l-145 99l-143 -99h-54l133 131zM243 0l-163 750h115l128 -534l173 327h86l158 -337l148 545h115l-183 -751h-144l-134 364l-145 -364h-154z" />
    <glyph glyph-name="Wdieresis" unicode="&#x1e84;" horiz-adv-x="1083" 
d="M348 770l16 111h95v-111h-111zM620 770l16 111h95v-111h-111zM243 0l-163 750h115l128 -534l173 327h86l158 -337l148 545h115l-183 -751h-144l-134 364l-145 -364h-154z" />
    <glyph glyph-name="Wgrave" unicode="&#x1e80;" horiz-adv-x="1083" 
d="M485 786l-116 112h79l171 -127zM243 0l-163 750h115l128 -534l173 327h86l158 -337l148 545h115l-183 -751h-144l-134 364l-145 -364h-154z" />
    <glyph glyph-name="uni2C72" unicode="&#x2c72;" horiz-adv-x="1083" 
d="M1000 737c68 -38 100 -117 100 -183v-67l-65 -99c0 36 0 106 -6 142c-6 38 -24 72 -58 89l-151 -619h-144l-134 364l-145 -364h-154l-163 750h115l128 -534l173 327h86l158 -337l148 545h21v8c21 0 39 -3 56 -8h38z" />
    <glyph glyph-name="X" unicode="X" horiz-adv-x="789" 
d="M729 -1h-169l-162 264l-167 -264h-171l271 372l-233 379h99l202 -285l208 285h98l-239 -379z" />
    <glyph glyph-name="Y" unicode="Y" horiz-adv-x="764" 
d="M314 262l-234 489h106l197 -343l195 343h106l-237 -489v-263h-183z" />
    <glyph glyph-name="Yacute" unicode="&#xdd;" horiz-adv-x="764" 
d="M6 832h51l-51 -154h-76zM314 262l-234 489h106l197 -343l195 343h106l-237 -489v-263h-183z" />
    <glyph glyph-name="Ycircumflex" unicode="&#x176;" horiz-adv-x="764" 
d="M362 973h48l39 -64l132 -131h-54l-145 99l-143 -99h-54l133 131zM314 262l-234 489h106l197 -343l195 343h106l-237 -489v-263h-183z" />
    <glyph glyph-name="Ydieresis" unicode="&#x178;" horiz-adv-x="764" 
d="M191 826l16 111h95v-111h-111zM463 826l16 111h95v-111h-111zM314 262l-234 489h106l197 -343l195 343h106l-237 -489v-263h-183z" />
    <glyph glyph-name="uni1EF4" unicode="&#x1ef4;" horiz-adv-x="764" 
d="M314 262l-234 489h106l197 -343l195 343h106l-237 -489v-263h-183zM326 -160l16 111h95v-111h-111z" />
    <glyph glyph-name="Ygrave" unicode="&#x1ef2;" horiz-adv-x="764" 
d="M328 842l-116 112h79l171 -127zM314 262l-234 489h106l197 -343l195 343h106l-237 -489v-263h-183z" />
    <glyph glyph-name="uni01B3" unicode="&#x1b3;" horiz-adv-x="764" 
d="M675 733c64 -39 94 -115 94 -179v-67l-65 -99c0 36 0 106 -6 142c-7 44 -30 82 -75 95l-176 -363v-263h-183l50 263l-234 489h106l197 -343l195 343v8c21 0 39 -3 56 -8h50z" />
    <glyph glyph-name="uni1EF6" unicode="&#x1ef6;" horiz-adv-x="764" 
d="M331 863v-21c16 8 30 13 45 13c23 0 32 -8 32 -14s-4 -12 -11 -17l-11 -9c-8 -6 -13 -10 -16 -15c-2 -4 -3 -10 -3 -16v-3h28c0 5 1 9 2 12c1 1 3 4 9 8l11 7c15 10 21 21 21 31s-6 20 -16 26s-23 10 -40 10c-16 0 -33 -4 -51 -12zM314 262l-234 489h106l197 -343
l195 343h106l-237 -489v-263h-183z" />
    <glyph glyph-name="uni1EF8" unicode="&#x1ef8;" horiz-adv-x="764" 
d="M280 797h-55c8 117 23 150 94 150c66 0 83 -100 127 -100c50 0 39 51 41 100h46c-2 -146 -32 -151 -86 -150c-72 1 -91 104 -128 105c-39 1 -39 -62 -39 -105zM314 262l-234 489h106l197 -343l195 343h106l-237 -489v-263h-183z" />
    <glyph glyph-name="Z" unicode="Z" horiz-adv-x="805" 
d="M207 624l355 4l-482 -489v-139l663 6l-47 140h-383l402 460l10 145h-563z" />
    <glyph glyph-name="Zacute" unicode="&#x179;" horiz-adv-x="805" 
d="M419 942h51l-51 -154h-76zM207 624l355 4l-482 -489v-139l663 6l-47 140h-383l402 460l10 145h-563z" />
    <glyph glyph-name="Zcaron" unicode="&#x17d;" horiz-adv-x="805" 
d="M377 779l-44 64l-133 131h54l143 -99l145 99h54l-132 -131l-39 -64h-48zM207 624l355 4l-482 -489v-139l663 6l-47 140h-383l402 460l10 145h-563z" />
    <glyph glyph-name="uni1E90" unicode="&#x1e90;" horiz-adv-x="805" 
d="M376 958h48l39 -64l132 -131h-54l-145 99l-143 -99h-54l133 131zM207 624l355 4l-482 -489v-139l663 6l-47 140h-383l402 460l10 145h-563z" />
    <glyph glyph-name="Zdotaccent" unicode="&#x17b;" horiz-adv-x="805" 
d="M340 810l16 111h95v-111h-111zM207 624l355 4l-482 -489v-139l663 6l-47 140h-383l402 460l10 145h-563z" />
    <glyph glyph-name="uni1E92" unicode="&#x1e92;" horiz-adv-x="805" 
d="M207 624l355 4l-482 -489v-139l663 6l-47 140h-383l402 460l10 145h-563zM347 -160l16 111h95v-111h-111z" />
    <glyph glyph-name="A.ss04" horiz-adv-x="828" 
d="M80 -1l288 750h93l287 -750h-141l-28 120h-328l-37 -120h-134zM280 235h269l-136 393z" />
    <glyph glyph-name="B.ss04" horiz-adv-x="687" 
d="M80 0v750h228c150 0 229 -65 235 -170c5 -87 -43 -135 -113 -146c129 -21 181 -82 177 -230c-5 -174 -101 -204 -265 -204h-262zM325 674h-146v-195h146c96 0 133 28 133 90c0 64 -37 105 -133 105zM337 389h-158v-244h158c106 0 161 36 161 124c0 51 -18 61 -43 88
c-12 13 -47 32 -118 32z" />
    <glyph glyph-name="C.ss04" horiz-adv-x="717" 
d="M611 733l-14 -96c-57 10 -122 20 -165 17c-104 -7 -222 -105 -246 -236c-31 -168 91 -246 256 -240c85 3 115 23 164 38l2 -207c-56 -17 -219 -30 -303 -22c-190 18 -278 204 -235 431c24 126 112 300 356 330c88 11 116 -5 185 -15z" />
    <glyph glyph-name="D.ss04" horiz-adv-x="773" 
d="M80 0v751h203c283 0 394 -194 419 -379c43 -314 -207 -372 -419 -372h-203zM184 190h119c252 0 289 71 270 203c-16 112 -69 239 -270 239h-119v-442z" />
    <glyph glyph-name="E.ss04" horiz-adv-x="643" 
d="M80 0l24 736l444 14l-21 -94l-330 -19v-198l245 11v-103l-245 -16v-180h333l33 -151h-483z" />
    <glyph glyph-name="F.ss04" horiz-adv-x="583" 
d="M80 0l39 738l384 12v-66l-289 -17l-24 -196l267 18v-102l-262 -18l22 -369h-137z" />
    <glyph glyph-name="G.ss04" horiz-adv-x="839" 
d="M444 -14c-308 0 -354 130 -364 378c-14 343 153 376 364 386c95 4 175 -3 199 -24l11 -87c-46 30 -153 31 -202 30c-178 -5 -247 -71 -247 -295c0 -190 69 -227 247 -227c70 0 129 10 153 35l2 90l-133 23l-14 78l282 -32l17 -96l-67 12l10 -207
c-82 -54 -186 -64 -258 -64z" />
    <glyph glyph-name="H.ss04" horiz-adv-x="771" 
d="M691 0h-159l6 187h-313l7 -187h-152l20 750h104l15 -397h324l13 397h104z" />
    <glyph glyph-name="I.ss04" horiz-adv-x="300" 
d="M80 0c31 292 15 653 5 750h109c-10 -237 0 -507 26 -750h-140z" />
    <glyph glyph-name="J.ss04" horiz-adv-x="481" 
d="M263 60c-2 -53 -41 -134 -126 -115l-50 11l-7 -161l66 -6c166 2 222 89 231 265l34 696h-125z" />
    <glyph glyph-name="K.ss04" horiz-adv-x="730" 
d="M80 0l65 751h88l-13 -350l208 350h127l-243 -402l338 -349h-233l-197 291l-12 -291h-128z" />
    <glyph glyph-name="L.ss04" horiz-adv-x="629" 
d="M80 0l36 750h88l-20 -605l365 16v-161h-469z" />
    <glyph glyph-name="M.ss04" horiz-adv-x="874" 
d="M62 0l41 750h150l189 -461l184 461h137l60 -750h-190l40 552l-179 -489h-109l-198 489l36 -552h-161z" />
    <glyph glyph-name="N.ss04" horiz-adv-x="757" 
d="M80 0l58 722h123l276 -583l49 610h111l-40 -749h-174l-249 522l9 -522h-163z" />
    <glyph glyph-name="O.ss04" horiz-adv-x="835" 
d="M418 752c205 0 343 -108 337 -378c-6 -260 -83 -390 -337 -388c-233 2 -338 128 -338 388s133 378 338 378zM418 672c-143 0 -234 -156 -234 -308c0 -151 91 -191 234 -191s233 40 233 191c0 152 -90 308 -233 308z" />
    <glyph glyph-name="P.ss04" horiz-adv-x="646" 
d="M80 0l41 791h186c184 0 248 -95 259 -221c13 -152 -75 -217 -239 -225l-119 -6l20 -339h-148zM203 478l134 6c98 4 133 22 133 130c0 40 -29 112 -159 112h-108v-248z" />
    <glyph glyph-name="Q.ss04" horiz-adv-x="869" 
d="M558 -129l-104 118c-21 -2 -30 -2 -41 -2c-200 0 -337 55 -337 382c0 203 135 382 342 382s337 -150 337 -382c0 -172 -60 -261 -119 -325l157 -173h-235zM354 159l54 2l33 77c54 -29 109 -50 150 -50c30 0 59 104 59 181c0 186 -88 301 -232 301
c-145 0 -233 -145 -233 -301c0 -213 113 -212 169 -210z" />
    <glyph glyph-name="R.ss04" horiz-adv-x="685" 
d="M426 383c42 -29 91 -42 122 -163l57 -220h-180l9 208c5 107 -102 114 -162 104l-52 -9l17 -303h-157l45 750h178c147 0 233 -69 233 -210c0 -97 -42 -146 -110 -157zM313 668h-124v-222h124c75 0 143 51 143 94c0 95 -68 128 -143 128z" />
    <glyph glyph-name="S.ss04" horiz-adv-x="760" 
d="M591 741l-15 -105c-50 5 -53 23 -152 16c-106 -8 -187 -36 -193 -113c-5 -64 48 -72 135 -90l59 -12c150 -30 289 -111 289 -230c0 -120 -118 -221 -353 -221c-129 0 -222 -8 -306 51l107 150c38 -29 176 -29 231 -29c50 0 119 -3 121 70c1 47 -29 77 -118 95l-60 12
c-147 29 -209 88 -209 199c0 129 72 225 256 225c38 0 144 -4 208 -18z" />
    <glyph glyph-name="T.ss04" horiz-adv-x="777" 
d="M310 0l29 657l-259 -20v113h617v-103l-259 10l20 -657h-148z" />
    <glyph glyph-name="U.ss04" horiz-adv-x="756" 
d="M96 274l-16 476h144l-14 -376c-8 -212 59 -212 166 -212c106 0 172 0 164 212l-14 376h150l-22 -476c-13 -288 -95 -277 -278 -277c-185 0 -270 -11 -280 277z" />
    <glyph glyph-name="V.ss04" horiz-adv-x="828" 
d="M511 0h-204l-237 750h113l198 -536h47l218 536h112z" />
    <glyph glyph-name="W.ss04" horiz-adv-x="1083" 
d="M243 0l-163 750h115l128 -534l173 327h86l158 -337l148 545h115l-183 -751h-144l-134 364l-145 -364h-154z" />
    <glyph glyph-name="X.ss04" horiz-adv-x="789" 
d="M729 -1h-169l-162 264l-167 -264h-171l271 372l-233 379h99l202 -285l208 285h98l-239 -379z" />
    <glyph glyph-name="Y.ss04" horiz-adv-x="764" 
d="M314 262l-234 489h106l197 -343l195 343h106l-237 -489v-263h-183z" />
    <glyph glyph-name="Z.ss04" horiz-adv-x="805" 
d="M207 624l355 4l-482 -489v-139l663 6l-47 140h-383l402 460l10 145h-563z" />
    <glyph glyph-name="uni0299" unicode="&#x299;" horiz-adv-x="467" 
d="M54 0v510h155c102 0 156 -44 160 -116c4 -59 -29 -91 -77 -99c88 -14 123 -56 121 -156c-4 -119 -69 -139 -181 -139h-178zM221 458h-99v-132h99c65 0 90 19 90 61c0 43 -25 71 -90 71zM229 264h-107v-165h107c72 0 110 24 110 84c0 35 -13 41 -30 60c-8 9 -32 21 -80 21
z" />
    <glyph glyph-name="uni0262" unicode="&#x262;" horiz-adv-x="567" 
d="M300 -9c-208 0 -239 87 -246 255c-9 232 104 254 246 261c65 3 119 -2 135 -16l7 -59c-31 20 -103 21 -136 20c-121 -3 -167 -48 -167 -199c0 -129 46 -154 167 -154c47 0 87 7 103 24l2 61l-90 16l-10 52l191 -21l11 -65l-45 8l7 -140c-56 -37 -126 -43 -175 -43z" />
    <glyph glyph-name="uni029B" unicode="&#x29b;" horiz-adv-x="619" 
d="M539 166l-45 8l7 -140c-56 -37 -126 -43 -175 -43c-208 0 -239 87 -246 255c-9 232 104 254 246 261c14 1 27 1 40 1c0 20 1 24 2 57c4 112 28 118 154 117v-85c-68 0 -71 -3 -71 -51v-49c4 -2 8 -4 10 -6l7 -59c-31 20 -103 21 -136 20c-121 -3 -167 -48 -167 -199
c0 -129 46 -154 167 -154c47 0 87 7 103 24l2 61l-90 16l-10 52l191 -21z" />
    <glyph glyph-name="uni029C" unicode="&#x29c;" horiz-adv-x="529" 
d="M474 0h-109l4 128h-215l5 -128h-104l14 514h71l10 -272h223l8 272h72z" />
    <glyph glyph-name="uni026A" unicode="&#x26a;" horiz-adv-x="206" 
d="M55 0c21 201 10 449 3 516h75c-6 -163 0 -349 18 -516h-96z" />
    <glyph glyph-name="uni029F" unicode="&#x29f;" horiz-adv-x="431" 
d="M55 0l25 514h60l-14 -415l251 11v-110h-322z" />
    <glyph glyph-name="uni0274" unicode="&#x274;" horiz-adv-x="522" 
d="M55 0l40 498h85l191 -402l33 421h77l-28 -517h-120l-172 360l7 -360h-113z" />
    <glyph glyph-name="uni0276" unicode="&#x276;" horiz-adv-x="818" 
d="M764 -7h-329l1 37c-35 -27 -84 -40 -152 -40c-158 2 -230 88 -230 264c0 177 91 257 230 257c68 0 126 -17 166 -57l1 39l302 9l-14 -63l-224 -13v-135l166 8v-71l-166 -10v-123h226zM284 118c97 0 159 27 159 130s-62 209 -159 209s-159 -106 -159 -209
s62 -130 159 -130z" />
    <glyph glyph-name="uni0280" unicode="&#x280;" horiz-adv-x="473" 
d="M294 264c29 -20 63 -29 84 -112l40 -152h-125l7 144c3 73 -71 78 -112 71l-36 -6l12 -209h-109l31 518h123c102 0 161 -48 161 -145c0 -67 -29 -101 -76 -109zM216 461h-86v-153h86c52 0 99 35 99 65c0 65 -47 88 -99 88z" />
    <glyph glyph-name="uni0281" unicode="&#x281;" horiz-adv-x="473" 
d="M179 296c-29 20 -63 29 -84 112l-40 152h125l-7 -144c-3 -73 71 -78 112 -71l36 6l-12 209h109l-31 -518h-123c-102 0 -161 48 -161 145c0 67 29 101 76 109zM257 99h86v153h-86c-52 0 -99 -35 -99 -65c0 -65 47 -88 99 -88z" />
    <glyph glyph-name="uni028F" unicode="&#x28f;" horiz-adv-x="523" 
d="M215 179l-160 335h72l135 -235l134 235h72l-162 -335v-180h-125z" />
    <glyph glyph-name="a" unicode="a" horiz-adv-x="656" 
d="M296 -14c-157 0 -254 114 -216 326c37 207 153 238 210 246c79 11 134 -11 170 -69l-2 58h71l57 -547h-100v82c-38 -65 -110 -96 -190 -96zM284 138c161 0 168 112 168 161c0 152 -74 175 -141 175c-56 0 -138 -50 -157 -188c-12 -89 12 -148 130 -148z" />
    <glyph glyph-name="aacute" unicode="&#xe1;" horiz-adv-x="656" 
d="M586 0h-100v82c-31 -53 -85 -84 -148 -93h1l-51 -154h-76l75 151c-152 5 -244 118 -207 326c37 207 153 238 210 246c79 11 134 -11 170 -69l-2 58h71zM284 138c161 0 168 112 168 161c0 152 -74 175 -141 175c-56 0 -138 -50 -157 -188c-12 -89 12 -148 130 -148z" />
    <glyph glyph-name="abreve" unicode="&#x103;" horiz-adv-x="656" 
d="M308 605c-107 0 -192 74 -192 197h65c0 -88 48 -102 127 -102c93 0 136 15 136 102h65c0 -123 -95 -197 -201 -197zM586 0h-100v82c-38 -65 -110 -96 -190 -96c-157 0 -254 114 -216 326c37 207 153 238 210 246c79 11 134 -11 170 -69l-2 58h71zM284 138
c161 0 168 112 168 161c0 152 -74 175 -141 175c-56 0 -138 -50 -157 -188c-12 -89 12 -148 130 -148z" />
    <glyph glyph-name="uni1EAF" unicode="&#x1eaf;" horiz-adv-x="656" 
d="M383 1015l-51 -154h-76l76 154h51zM308 605c-107 0 -192 74 -192 197h65c0 -88 48 -102 127 -102c93 0 136 15 136 102h65c0 -123 -95 -197 -201 -197zM586 0h-100v82c-38 -65 -110 -96 -190 -96c-157 0 -254 114 -216 326c37 207 153 238 210 246c79 11 134 -11 170 -69
l-2 58h71zM284 138c161 0 168 112 168 161c0 152 -74 175 -141 175c-56 0 -138 -50 -157 -188c-12 -89 12 -148 130 -148z" />
    <glyph glyph-name="uni1EB7" unicode="&#x1eb7;" horiz-adv-x="656" 
d="M308 605c-107 0 -192 74 -192 197h65c0 -88 48 -102 127 -102c93 0 136 15 136 102h65c0 -123 -95 -197 -201 -197zM586 0h-100v82c-38 -65 -110 -96 -190 -96c-157 0 -254 114 -216 326c37 207 153 238 210 246c79 11 134 -11 170 -69l-2 58h71zM284 138
c161 0 168 112 168 161c0 152 -74 175 -141 175c-56 0 -138 -50 -157 -188c-12 -89 12 -148 130 -148zM254 -150l16 111h95v-111h-111z" />
    <glyph glyph-name="uni1EB1" unicode="&#x1eb1;" horiz-adv-x="656" 
d="M417 802l-134 15l-116 112h79zM308 605c-107 0 -192 74 -192 197h65c0 -88 48 -102 127 -102c93 0 136 15 136 102h65c0 -123 -95 -197 -201 -197zM586 0h-100v82c-38 -65 -110 -96 -190 -96c-157 0 -254 114 -216 326c37 207 153 238 210 246c79 11 134 -11 170 -69
l-2 58h71zM284 138c161 0 168 112 168 161c0 152 -74 175 -141 175c-56 0 -138 -50 -157 -188c-12 -89 12 -148 130 -148z" />
    <glyph glyph-name="uni1EB3" unicode="&#x1eb3;" horiz-adv-x="656" 
d="M343 863c0 6 -9 14 -32 14c-15 0 -29 -5 -45 -13v21c18 8 35 12 51 12c17 0 30 -4 40 -10s16 -16 16 -26s-6 -21 -21 -31l-11 -7c-6 -4 -8 -7 -9 -8c-1 -3 -2 -7 -2 -12h-28v3c0 6 1 12 3 16c3 5 8 9 16 15l11 9c7 5 11 11 11 17zM312 610c-107 0 -192 74 -192 197h65
c0 -88 48 -102 127 -102c93 0 136 15 136 102h65c0 -123 -95 -197 -201 -197zM586 0h-100v82c-38 -65 -110 -96 -190 -96c-157 0 -254 114 -216 326c37 207 153 238 210 246c79 11 134 -11 170 -69l-2 58h71zM284 138c161 0 168 112 168 161c0 152 -74 175 -141 175
c-56 0 -138 -50 -157 -188c-12 -89 12 -148 130 -148z" />
    <glyph glyph-name="uni1EB5" unicode="&#x1eb5;" horiz-adv-x="656" 
d="M250 919c-39 1 -39 -62 -39 -105h-55c8 117 23 150 94 150c66 0 83 -100 127 -100c50 0 39 51 41 100h46c-2 -146 -32 -151 -86 -150c-72 1 -91 104 -128 105zM308 605c-107 0 -192 74 -192 197h65c0 -88 48 -102 127 -102c93 0 136 15 136 102h65
c0 -123 -95 -197 -201 -197zM586 0h-100v82c-38 -65 -110 -96 -190 -96c-157 0 -254 114 -216 326c37 207 153 238 210 246c79 11 134 -11 170 -69l-2 58h71zM284 138c161 0 168 112 168 161c0 152 -74 175 -141 175c-56 0 -138 -50 -157 -188c-12 -89 12 -148 130 -148z
" />
    <glyph glyph-name="uni01CE" unicode="&#x1ce;" horiz-adv-x="656" 
d="M294 631l-44 64l-133 131h54l143 -99l145 99h54l-132 -131l-39 -64h-48zM296 -14c-157 0 -254 114 -216 326c37 207 153 238 210 246c79 11 134 -11 170 -69l-2 58h71l57 -547h-100v82c-38 -65 -110 -96 -190 -96zM284 138c161 0 168 112 168 161c0 152 -74 175 -141 175
c-56 0 -138 -50 -157 -188c-12 -89 12 -148 130 -148z" />
    <glyph glyph-name="acircumflex" unicode="&#xe2;" horiz-adv-x="656" 
d="M297 769h48l39 -64l132 -131h-54l-145 99l-143 -99h-54l133 131zM296 -14c-157 0 -254 114 -216 326c37 207 153 238 210 246c79 11 134 -11 170 -69l-2 58h71l57 -547h-100v82c-38 -65 -110 -96 -190 -96zM284 138c161 0 168 112 168 161c0 152 -74 175 -141 175
c-56 0 -138 -50 -157 -188c-12 -89 12 -148 130 -148z" />
    <glyph glyph-name="uni1EA5" unicode="&#x1ea5;" horiz-adv-x="656" 
d="M555 841h51l-51 -154h-76zM293 810h48l39 -64l132 -131h-54l-145 99l-143 -99h-54l133 131zM296 -14c-157 0 -254 114 -216 326c37 207 153 238 210 246c79 11 134 -11 170 -69l-2 58h71l57 -547h-100v82c-38 -65 -110 -96 -190 -96zM284 138c161 0 168 112 168 161
c0 152 -74 175 -141 175c-56 0 -138 -50 -157 -188c-12 -89 12 -148 130 -148z" />
    <glyph glyph-name="uni1EAD" unicode="&#x1ead;" horiz-adv-x="656" 
d="M293 810h48l39 -64l132 -131h-54l-145 99l-143 -99h-54l133 131zM296 -14c-157 0 -254 114 -216 326c37 207 153 238 210 246c79 11 134 -11 170 -69l-2 58h71l57 -547h-100v82c-38 -65 -110 -96 -190 -96zM284 138c161 0 168 112 168 161c0 152 -74 175 -141 175
c-56 0 -138 -50 -157 -188c-12 -89 12 -148 130 -148zM254 -150l16 111h95v-111h-111z" />
    <glyph glyph-name="uni1EA7" unicode="&#x1ea7;" horiz-adv-x="656" 
d="M541 727l-116 112h79l171 -127zM293 810h48l39 -64l132 -131h-54l-145 99l-143 -99h-54l133 131zM296 -14c-157 0 -254 114 -216 326c37 207 153 238 210 246c79 11 134 -11 170 -69l-2 58h71l57 -547h-100v82c-38 -65 -110 -96 -190 -96zM284 138c161 0 168 112 168 161
c0 152 -74 175 -141 175c-56 0 -138 -50 -157 -188c-12 -89 12 -148 130 -148z" />
    <glyph glyph-name="uni1EA9" unicode="&#x1ea9;" horiz-adv-x="656" 
d="M494 762c0 6 -9 14 -32 14c-15 0 -29 -5 -45 -13v21c18 8 35 12 51 12c17 0 30 -4 40 -10s16 -16 16 -26s-6 -21 -21 -31l-11 -7c-6 -4 -8 -7 -9 -8c-1 -3 -2 -7 -2 -12h-28v3c0 6 1 12 3 16c3 5 8 9 16 15l11 9c7 5 11 11 11 17zM586 0h-100v82
c-38 -65 -110 -96 -190 -96c-157 0 -254 114 -216 326c37 207 153 238 210 246c79 11 134 -11 170 -69l-2 58h15l-144 98l-143 -99h-54l133 131l44 64h48l39 -64l131 -130h2zM284 138c161 0 168 112 168 161c0 152 -74 175 -141 175c-56 0 -138 -50 -157 -188
c-12 -89 12 -148 130 -148z" />
    <glyph glyph-name="uni1EAB" unicode="&#x1eab;" horiz-adv-x="656" 
d="M232 858h-55c8 117 23 150 94 150c66 0 83 -100 127 -100c50 0 39 51 41 100h46c-2 -146 -32 -151 -86 -150c-72 1 -91 104 -128 105c-39 1 -39 -62 -39 -105zM298 823h48l39 -64l132 -131h-54l-145 99l-143 -99h-54l133 131zM296 -14c-157 0 -254 114 -216 326
c37 207 153 238 210 246c79 11 134 -11 170 -69l-2 58h71l57 -547h-100v82c-38 -65 -110 -96 -190 -96zM284 138c161 0 168 112 168 161c0 152 -74 175 -141 175c-56 0 -138 -50 -157 -188c-12 -89 12 -148 130 -148z" />
    <glyph glyph-name="adieresis" unicode="&#xe4;" horiz-adv-x="656" 
d="M126 622l16 111h95v-111h-111zM398 622l16 111h95v-111h-111zM296 -14c-157 0 -254 114 -216 326c37 207 153 238 210 246c79 11 134 -11 170 -69l-2 58h71l57 -547h-100v82c-38 -65 -110 -96 -190 -96zM284 138c161 0 168 112 168 161c0 152 -74 175 -141 175
c-56 0 -138 -50 -157 -188c-12 -89 12 -148 130 -148z" />
    <glyph glyph-name="uni01DF" unicode="&#x1df;" horiz-adv-x="656" 
d="M127 805l386 24l29 -77l-446 -17zM126 552l16 111h95v-111h-111zM398 552l16 111h95v-111h-111zM296 -14c-157 0 -254 114 -216 326c37 207 153 238 210 246c79 11 134 -11 170 -69l-2 58h71l57 -547h-100v82c-38 -65 -110 -96 -190 -96zM284 138c161 0 168 112 168 161
c0 152 -74 175 -141 175c-56 0 -138 -50 -157 -188c-12 -89 12 -148 130 -148z" />
    <glyph glyph-name="uni1EA1" unicode="&#x1ea1;" horiz-adv-x="656" 
d="M296 -14c-157 0 -254 114 -216 326c37 207 153 238 210 246c79 11 134 -11 170 -69l-2 58h71l57 -547h-100v82c-38 -65 -110 -96 -190 -96zM284 138c161 0 168 112 168 161c0 152 -74 175 -141 175c-56 0 -138 -50 -157 -188c-12 -89 12 -148 130 -148zM254 -150l16 111
h95v-111h-111z" />
    <glyph glyph-name="agrave" unicode="&#xe0;" horiz-adv-x="656" 
d="M263 638l-116 112h79l171 -127zM296 -14c-157 0 -254 114 -216 326c37 207 153 238 210 246c79 11 134 -11 170 -69l-2 58h71l57 -547h-100v82c-38 -65 -110 -96 -190 -96zM284 138c161 0 168 112 168 161c0 152 -74 175 -141 175c-56 0 -138 -50 -157 -188
c-12 -89 12 -148 130 -148z" />
    <glyph glyph-name="uni1EA3" unicode="&#x1ea3;" horiz-adv-x="656" 
d="M266 659v-21c16 8 30 13 45 13c23 0 32 -8 32 -14s-4 -12 -11 -17l-11 -9c-8 -6 -13 -10 -16 -15c-2 -4 -3 -10 -3 -16v-3h28c0 5 1 9 2 12c1 1 3 4 9 8l11 7c15 10 21 21 21 31s-6 20 -16 26s-23 10 -40 10c-16 0 -33 -4 -51 -12zM296 -14c-157 0 -254 114 -216 326
c37 207 153 238 210 246c79 11 134 -11 170 -69l-2 58h71l57 -547h-100v82c-38 -65 -110 -96 -190 -96zM284 138c161 0 168 112 168 161c0 152 -74 175 -141 175c-56 0 -138 -50 -157 -188c-12 -89 12 -148 130 -148z" />
    <glyph glyph-name="uni0251" unicode="&#x251;" horiz-adv-x="656" 
d="M296 -14c-157 0 -254 114 -216 326c37 207 153 238 210 246c79 11 134 -11 170 -69l-2 58h71l57 -547h-100v82c-38 -65 -110 -96 -190 -96zM284 138c161 0 168 112 168 161c0 152 -74 175 -141 175c-56 0 -138 -50 -157 -188c-12 -89 12 -148 130 -148z" />
    <glyph glyph-name="uni0252" unicode="&#x252;" horiz-adv-x="656" 
d="M360 574c157 0 254 -114 216 -326c-37 -207 -153 -238 -210 -246c-79 -11 -134 11 -170 69l2 -58h-71l-57 547h100v-82c38 65 110 96 190 96zM372 422c-161 0 -168 -112 -168 -161c0 -152 74 -175 141 -175c56 0 138 50 157 188c12 89 -12 148 -130 148z" />
    <glyph glyph-name="amacron" unicode="&#x101;" horiz-adv-x="656" 
d="M125 713l386 24l29 -77l-446 -17zM296 -14c-157 0 -254 114 -216 326c37 207 153 238 210 246c79 11 134 -11 170 -69l-2 58h71l57 -547h-100v82c-38 -65 -110 -96 -190 -96zM284 138c161 0 168 112 168 161c0 152 -74 175 -141 175c-56 0 -138 -50 -157 -188
c-12 -89 12 -148 130 -148z" />
    <glyph glyph-name="aogonek" unicode="&#x105;" horiz-adv-x="656" 
d="M582 -105c3 -20 8 -53 11 -70c-115 -2 -183 30 -183 86c0 33 24 74 76 120v51c-38 -65 -110 -96 -190 -96c-157 0 -254 114 -216 326c37 207 153 238 210 246c79 11 134 -11 170 -69l-2 58h71l57 -547h-71c-33 -35 -49 -61 -49 -79c0 -20 20 -31 61 -31c15 0 34 2 55 5z
M284 138c161 0 168 112 168 161c0 152 -74 175 -141 175c-56 0 -138 -50 -157 -188c-12 -89 12 -148 130 -148z" />
    <glyph glyph-name="aring" unicode="&#xe5;" horiz-adv-x="656" 
d="M317 632c-50 0 -90 43 -90 96c0 52 40 95 90 95s90 -43 90 -95c0 -53 -40 -96 -90 -96zM317 687c28 0 51 1 51 54c0 29 -23 53 -51 53s-51 -24 -51 -53c0 -53 23 -54 51 -54zM296 -14c-157 0 -254 114 -216 326c37 207 153 238 210 246c79 11 134 -11 170 -69l-2 58h71
l57 -547h-100v82c-38 -65 -110 -96 -190 -96zM284 138c161 0 168 112 168 161c0 152 -74 175 -141 175c-56 0 -138 -50 -157 -188c-12 -89 12 -148 130 -148z" />
    <glyph glyph-name="atilde" unicode="&#xe3;" horiz-adv-x="656" 
d="M216 611h-55c8 117 23 150 94 150c66 0 83 -100 127 -100c50 0 39 51 41 100h46c-2 -146 -32 -151 -86 -150c-72 1 -91 104 -128 105c-39 1 -39 -62 -39 -105zM296 -14c-157 0 -254 114 -216 326c37 207 153 238 210 246c79 11 134 -11 170 -69l-2 58h71l57 -547h-100v82
c-38 -65 -110 -96 -190 -96zM284 138c161 0 168 112 168 161c0 152 -74 175 -141 175c-56 0 -138 -50 -157 -188c-12 -89 12 -148 130 -148z" />
    <glyph glyph-name="uni0250" unicode="&#x250;" horiz-adv-x="656" 
d="M360 574c157 0 254 -114 216 -326c-37 -207 -153 -238 -210 -246c-79 -11 -134 11 -170 69l2 -58h-71l-57 547h100v-82c38 65 110 96 190 96zM372 422c-161 0 -168 -112 -168 -161c0 -152 74 -175 141 -175c56 0 138 50 157 188c12 89 -12 148 -130 148z" />
    <glyph glyph-name="ae" unicode="&#xe6;" horiz-adv-x="1048" 
d="M761 119c74 -8 121 0 198 33v-124c-65 -28 -130 -42 -201 -42c-68 0 -128 17 -175 47l3 -33h-100v82c-38 -65 -110 -96 -190 -96c-157 0 -254 114 -216 326c37 207 153 238 210 246c79 11 134 -11 170 -69l-2 58h71l7 -66c48 62 120 99 207 99c112 -9 213 -84 245 -265
l-432 -28l5 -46c19 -68 83 -110 200 -122zM743 513c-102 -7 -175 -83 -175 -149l320 31c-10 61 -41 125 -145 118zM284 138c161 0 168 112 168 161c0 152 -74 175 -141 175c-56 0 -138 -50 -157 -188c-12 -89 12 -148 130 -148z" />
    <glyph glyph-name="b" unicode="b" horiz-adv-x="653" 
d="M348 -14c-143 0 -206 41 -232 113c-21 45 -26 338 -56 701h134v-272c0 -75 46 25 154 28c148 4 265 -119 265 -263c0 -172 -132 -307 -265 -307zM369 146c80 6 146 65 146 147c0 99 -50 175 -146 175c-95 0 -152 -73 -152 -179c0 -102 22 -143 152 -143z" />
    <glyph glyph-name="uni1E03" unicode="&#x1e03;" horiz-adv-x="653" 
d="M267 881l16 111h95v-111h-111zM348 -14c-143 0 -206 41 -232 113c-21 45 -26 338 -56 701h134v-272c0 -75 46 25 154 28c148 4 265 -119 265 -263c0 -172 -132 -307 -265 -307zM369 146c80 6 146 65 146 147c0 99 -50 175 -146 175c-95 0 -152 -73 -152 -179
c0 -102 22 -143 152 -143z" />
    <glyph glyph-name="uni1E05" unicode="&#x1e05;" horiz-adv-x="653" 
d="M348 -14c-143 0 -206 41 -232 113c-21 45 -26 338 -56 701h134v-272c0 -75 46 25 154 28c148 4 265 -119 265 -263c0 -172 -132 -307 -265 -307zM369 146c80 6 146 65 146 147c0 99 -50 175 -146 175c-95 0 -152 -73 -152 -179c0 -102 22 -143 152 -143zM271 -197l16 111
h95v-111h-111z" />
    <glyph glyph-name="uni0253" unicode="&#x253;" horiz-adv-x="643" 
d="M348 556c148 4 265 -119 265 -263c0 -172 -132 -307 -265 -307c-143 0 -206 41 -232 113c-21 45 -26 338 -56 701h15c1 84 60 180 194 191c5 -51 6 -75 5 -126c-56 -5 -88 -31 -104 -65h24v-272c0 -75 46 25 154 28zM369 146c80 6 146 65 146 147c0 99 -50 175 -146 175
c-95 0 -152 -73 -152 -179c0 -102 22 -143 152 -143z" />
    <glyph glyph-name="uni02AD" unicode="&#x2ad;" horiz-adv-x="444" 
d="M364 504v-154h-69v94h-146v-94h-69v154h284zM364 162v-154h-69v94h-146v-94h-69v154h284z" />
    <glyph glyph-name="uni0298" unicode="&#x298;" horiz-adv-x="835" 
d="M418 752c205 0 343 -108 337 -378c-6 -260 -83 -390 -337 -388c-233 2 -338 128 -338 388s133 378 338 378zM418 672c-143 0 -234 -156 -234 -308c0 -151 91 -191 234 -191s233 40 233 191c0 152 -90 308 -233 308zM363 -173l16 111h95v-111h-111z" />
    <glyph glyph-name="uni02AC" unicode="&#x2ac;" horiz-adv-x="611" 
d="M168 384l-88 336h74l50 -208l82 113h38l83 -113l50 208h73l-87 -336h-77l-61 104l-63 -104h-74zM168 0l-88 336h74l50 -208l82 113h38l83 -113l50 208h74l-88 -336h-77l-61 104l-63 -104h-74z" />
    <glyph glyph-name="uni1D6C" unicode="&#x1d6c;" horiz-adv-x="653" 
d="M348 556c148 4 265 -119 265 -263c0 -172 -132 -307 -265 -307c-143 0 -206 41 -232 113c-18 39 -24 265 -45 562c-39 1 -39 -62 -39 -105h-55c8 115 22 149 90 150c-2 31 -4 62 -7 94h134v-194h4c50 0 39 51 41 100h46c-2 -146 -32 -151 -86 -150h-5v-28
c0 -75 46 25 154 28zM369 146c80 6 146 65 146 147c0 99 -50 175 -146 175c-95 0 -152 -73 -152 -179c0 -102 22 -143 152 -143z" />
    <glyph glyph-name="c" unicode="c" horiz-adv-x="593" 
d="M444 548v-81c-32 10 -77 15 -105 15c-97 -1 -159 -60 -159 -209c10 -130 141 -199 246 -147l94 -102c-47 -28 -110 -35 -171 -31c-207 14 -270 104 -270 280c0 198 71 283 240 287c48 1 104 -5 125 -12z" />
    <glyph glyph-name="cacute" unicode="&#x107;" horiz-adv-x="593" 
d="M336 760h51l-51 -154h-76zM444 548v-81c-32 10 -77 15 -105 15c-97 -1 -159 -60 -159 -209c10 -130 141 -199 246 -147l94 -102c-47 -28 -110 -35 -171 -31c-207 14 -270 104 -270 280c0 198 71 283 240 287c48 1 104 -5 125 -12z" />
    <glyph glyph-name="ccaron" unicode="&#x10d;" horiz-adv-x="593" 
d="M294 597l-44 64l-133 131h54l143 -99l145 99h54l-132 -131l-39 -64h-48zM444 548v-81c-32 10 -77 15 -105 15c-97 -1 -159 -60 -159 -209c10 -130 141 -199 246 -147l94 -102c-47 -28 -110 -35 -171 -31c-207 14 -270 104 -270 280c0 198 71 283 240 287
c48 1 104 -5 125 -12z" />
    <glyph glyph-name="ccedilla" unicode="&#xe7;" horiz-adv-x="593" 
d="M341 -70c39 0 100 -16 90 -76c-8 -49 -47 -78 -104 -78h-62l11 53c23 -5 31 -5 53 -5c36 0 65 19 65 35c0 44 -38 46 -63 46c-17 0 -37 -2 -61 -5l33 98c-171 24 -224 113 -224 275c0 198 71 283 240 287c48 1 104 -5 125 -12v-81c-32 10 -77 15 -105 15
c-97 -1 -159 -60 -159 -209c10 -130 141 -199 246 -147l94 -102c-47 -28 -110 -35 -171 -31c-5 0 -11 1 -16 1l-23 -64h31z" />
    <glyph glyph-name="uni0255" unicode="&#x255;" horiz-adv-x="686" 
d="M606 183c0 -84 -94 -166 -198 -190v-3c4 -65 8 -127 8 -190h-110v188c-172 15 -226 122 -226 285c0 178 109 287 279 287c27 0 64 -5 85 -12v-71c-32 10 -77 12 -105 12c-117 0 -159 -83 -159 -216c1 -66 29 -164 126 -175v78c0 93 52 158 127 158c31 0 66 -11 102 -36
c50 -35 71 -75 71 -115zM401 108c66 19 104 60 104 89c0 9 -3 17 -11 23c-16 12 -32 19 -46 19c-27 0 -48 -26 -48 -87c0 -15 0 -30 1 -44z" />
    <glyph glyph-name="cdotaccent" unicode="&#x10b;" horiz-adv-x="593" 
d="M257 628l16 111h95v-111h-111zM444 548v-81c-32 10 -77 15 -105 15c-97 -1 -159 -60 -159 -209c10 -130 141 -199 246 -147l94 -102c-47 -28 -110 -35 -171 -31c-207 14 -270 104 -270 280c0 198 71 283 240 287c48 1 104 -5 125 -12z" />
    <glyph glyph-name="uniAB53" unicode="&#xab53;" horiz-adv-x="757" 
d="M522 6c26 -53 60 -66 161 -66v-123c-161 0 -192 0 -239 101l-69 152l-154 -253l-148 2l254 357l-44 97c-14 29 -62 115 -186 115v105c172 0 245 -120 259 -149l37 -75l154 217h81l-189 -311z" />
    <glyph glyph-name="uni0188" unicode="&#x188;" horiz-adv-x="593" 
d="M426 126l94 -102c-47 -28 -110 -35 -171 -31c-207 14 -270 104 -270 280c0 198 71 283 240 287c12 0 25 0 38 -1v82v1v20c0 5 1 8 2 19c4 43 28 46 154 45v-33c-68 0 -71 -1 -71 -19v-12v-21v-92c1 -1 1 -1 2 -1v-81c-32 10 -77 15 -105 15c-97 -1 -159 -60 -159 -209
c10 -130 141 -199 246 -147z" />
    <glyph glyph-name="d" unicode="d" horiz-adv-x="666" 
d="M479 470l17 330h90l-24 -565l12 -237l-95 2v72c-37 -65 -95 -88 -175 -86c-157 3 -264 115 -254 287c9 158 122 297 254 304c80 4 138 -42 175 -107zM145 283c0 -95 55 -134 150 -134c75 0 144 20 144 141c0 108 -46 181 -141 181c-96 0 -153 -80 -153 -188z" />
    <glyph glyph-name="eth" unicode="&#xf0;" horiz-adv-x="836" 
d="M756 572v-91h-154c-4 -28 -10 -63 -18 -117c-37 -240 -92 -378 -260 -378c-147 0 -244 98 -244 248c0 153 91 248 238 248c69 0 138 -26 184 -146c10 58 19 102 26 145h-163v91h169c0 19 -1 38 -3 60c-7 72 -57 88 -130 88l31 67c58 0 176 -19 177 -131v-84h147zM324 116
c88 0 154 54 144 118c-14 92 -56 170 -144 170c-89 0 -145 -65 -145 -170c0 -66 56 -118 145 -118z" />
    <glyph glyph-name="dcaron" unicode="&#x10f;" horiz-adv-x="666" 
d="M479 470l17 330h90l-24 -565l12 -237l-95 2v72c-37 -65 -95 -88 -175 -86c-157 3 -264 115 -254 287c9 158 122 297 254 304c80 4 138 -42 175 -107zM769 556h-95l28 213h79zM145 283c0 -95 55 -134 150 -134c75 0 144 20 144 141c0 108 -46 181 -141 181
c-96 0 -153 -80 -153 -188z" />
    <glyph glyph-name="uni1E13" unicode="&#x1e13;" horiz-adv-x="666" 
d="M479 470l17 330h90l-24 -565l12 -237l-95 2v72c-37 -65 -95 -88 -175 -86c-157 3 -264 115 -254 287c9 158 122 297 254 304c80 4 138 -42 175 -107zM145 283c0 -95 55 -134 150 -134c75 0 144 20 144 141c0 108 -46 181 -141 181c-96 0 -153 -80 -153 -188zM286 -152h48
l39 -64l132 -131h-54l-145 99l-143 -99h-54l133 131z" />
    <glyph glyph-name="dcroat" unicode="&#x111;" horiz-adv-x="666" 
d="M721 580h-144l-15 -345l12 -237l-95 2v72c-37 -65 -95 -88 -175 -86c-157 3 -264 115 -254 287c9 158 122 297 254 304c80 4 138 -42 175 -107l6 110h-155v91h159l7 129h90l-5 -129h140v-91zM295 149c75 0 144 20 144 141c0 108 -46 181 -141 181
c-96 0 -153 -80 -153 -188c0 -95 55 -134 150 -134z" />
    <glyph glyph-name="uni1E0B" unicode="&#x1e0b;" horiz-adv-x="666" 
d="M479 470l17 330h90l-24 -565l12 -237l-95 2v72c-37 -65 -95 -88 -175 -86c-157 3 -264 115 -254 287c9 158 122 297 254 304c80 4 138 -42 175 -107zM244 671l16 111h95v-111h-111zM145 283c0 -95 55 -134 150 -134c75 0 144 20 144 141c0 108 -46 181 -141 181
c-96 0 -153 -80 -153 -188z" />
    <glyph glyph-name="uni1E0D" unicode="&#x1e0d;" horiz-adv-x="666" 
d="M479 470l17 330h90l-24 -565l12 -237l-95 2v72c-37 -65 -95 -88 -175 -86c-157 3 -264 115 -254 287c9 158 122 297 254 304c80 4 138 -42 175 -107zM145 283c0 -95 55 -134 150 -134c75 0 144 20 144 141c0 108 -46 181 -141 181c-96 0 -153 -80 -153 -188zM242 -193
l16 111h95v-111h-111z" />
    <glyph glyph-name="uni02A4" unicode="&#x2a4;" horiz-adv-x="666" 
d="M1048 85c14 -164 -24 -307 -238 -307c-33 0 -158 -2 -285 123l127 104c141 -138 274 -50 271 99c-7 79 -121 119 -261 106v93c112 105 167 143 261 248c-101 -1 -219 -1 -348 0l-13 -316l12 -237l-95 2v72c-37 -65 -95 -88 -175 -86c-157 3 -264 115 -254 287
c9 158 122 297 254 304c80 4 138 -42 175 -107l17 330h90l-7 -155c126 1 355 3 424 0c12 -69 10 -69 18 -140c-90 -100 -115 -121 -207 -213c120 -9 226 -111 234 -207zM295 149c75 0 144 20 144 141c0 108 -46 181 -141 181c-96 0 -153 -80 -153 -188
c0 -95 55 -134 150 -134z" />
    <glyph glyph-name="uni0257" unicode="&#x257;" horiz-adv-x="666" 
d="M491 754c0 91 61 205 191 205c-1 -53 -3 -77 -9 -129c-41 0 -69 -16 -87 -41l-24 -554l12 -237l-95 2v72c-37 -65 -95 -88 -175 -86c-157 3 -264 115 -254 287c9 158 122 297 254 304c80 4 138 -42 175 -107l12 233v51zM295 149c75 0 144 20 144 141
c0 108 -46 181 -141 181c-96 0 -153 -80 -153 -188c0 -95 55 -134 150 -134z" />
    <glyph glyph-name="uni1E0F" unicode="&#x1e0f;" horiz-adv-x="666" 
d="M479 470l17 330h90l-24 -565l12 -237l-95 2v72c-37 -65 -95 -88 -175 -86c-157 3 -264 115 -254 287c9 158 122 297 254 304c80 4 138 -42 175 -107zM145 283c0 -95 55 -134 150 -134c75 0 144 20 144 141c0 108 -46 181 -141 181c-96 0 -153 -80 -153 -188zM145 -98
l307 18l23 -57l-354 -13z" />
    <glyph glyph-name="uni1D6D" unicode="&#x1d6d;" horiz-adv-x="656" 
d="M626 745c-1 -108 -18 -139 -49 -147l-15 -363l12 -237l-95 2v72c-37 -65 -95 -88 -175 -86c-157 3 -264 115 -254 287c9 158 122 297 254 304c80 4 138 -42 175 -107l8 149c-32 31 -49 80 -75 81c-39 1 -39 -62 -39 -105h-55c8 117 23 150 94 150c37 0 59 -31 78 -59
l6 114h90l-2 -55h42zM295 149c75 0 144 20 144 141c0 108 -46 181 -141 181c-96 0 -153 -80 -153 -188c0 -95 55 -134 150 -134z" />
    <glyph glyph-name="uni0256" unicode="&#x256;" horiz-adv-x="666" 
d="M661 -143c-128 0 -189 110 -191 201c-37 -54 -92 -74 -166 -72c-157 3 -264 115 -254 287c9 158 122 297 254 304c80 4 138 -42 175 -107l17 330h90l-24 -565l11 -218c18 -19 44 -31 79 -31c6 -52 8 -76 9 -129zM295 149c75 0 144 20 144 141c0 108 -46 181 -141 181
c-96 0 -153 -80 -153 -188c0 -95 55 -134 150 -134z" />
    <glyph glyph-name="uni01F3" unicode="&#x1f3;" horiz-adv-x="666" 
d="M479 470l17 330h90l-24 -565l12 -237l-95 2v72c-37 -65 -95 -88 -175 -86c-157 3 -264 115 -254 287c9 158 122 297 254 304c80 4 138 -42 175 -107zM576 -13l24 131l351 333h-291v96h414l13 -90l-332 -349h265l57 -121h-501zM145 283c0 -95 55 -134 150 -134
c75 0 144 20 144 141c0 108 -46 181 -141 181c-96 0 -153 -80 -153 -188z" />
    <glyph glyph-name="uni02A3" unicode="&#x2a3;" horiz-adv-x="1167" 
d="M755 108h265l57 -121h-501l24 131l351 333h-291v18h-88l-10 -234l12 -237l-95 2v72c-37 -65 -95 -88 -175 -86c-157 3 -264 115 -254 287c9 158 122 297 254 304c80 4 138 -42 175 -107l17 330h90l-11 -264h85v11h414l13 -90zM295 149c75 0 144 20 144 141
c0 108 -46 181 -141 181c-96 0 -153 -80 -153 -188c0 -95 55 -134 150 -134z" />
    <glyph glyph-name="uni01C6" unicode="&#x1c6;" horiz-adv-x="666" 
d="M479 470l17 330h90l-24 -565l12 -237l-95 2v72c-37 -65 -95 -88 -175 -86c-157 3 -264 115 -254 287c9 158 122 297 254 304c80 4 138 -42 175 -107zM822 594l-44 64l-133 131h54l143 -99l145 99h54l-132 -131l-39 -64h-48zM576 -13l24 131l351 333h-291v96h414l13 -90
l-332 -349h265l57 -121h-501zM145 283c0 -95 55 -134 150 -134c75 0 144 20 144 141c0 108 -46 181 -141 181c-96 0 -153 -80 -153 -188z" />
    <glyph glyph-name="uni02A5" unicode="&#x2a5;" horiz-adv-x="1229" 
d="M1072 254c138 -36 72 -255 -60 -255h-22c-3 -50 -5 -113 -5 -193h-99c0 74 2 139 6 193h-309l24 131l378 351h-413l-10 -246l12 -237l-95 2v72c-37 -65 -95 -88 -175 -86c-157 3 -264 115 -254 287c9 158 122 297 254 304c80 4 138 -42 175 -107l17 330h90l-11 -252h506
l13 -67l-352 -361h167c26 122 78 157 163 134zM295 149c75 0 144 20 144 141c0 108 -46 181 -141 181c-96 0 -153 -80 -153 -188c0 -95 55 -134 150 -134zM1003 121c70 5 56 38 45 47c-15 12 -32 13 -45 -47z" />
    <glyph glyph-name="e" unicode="e" horiz-adv-x="654" 
d="M594 315l-433 -28c0 -95 65 -153 206 -168c74 -8 121 0 198 33v-124c-65 -28 -130 -42 -201 -42c-174 0 -294 109 -294 282c7 179 114 312 279 312c112 -9 213 -84 245 -265zM174 364l320 31c-10 61 -41 125 -145 118c-102 -7 -175 -83 -175 -149z" />
    <glyph glyph-name="eacute" unicode="&#xe9;" horiz-adv-x="654" 
d="M367 119c74 -8 121 0 198 33v-124c-65 -28 -130 -42 -201 -42h-3l-50 -151h-76l76 154h4c-147 19 -245 123 -245 279c7 179 114 312 279 312c112 -9 213 -84 245 -265l-433 -28c0 -95 65 -153 206 -168zM349 513c-102 -7 -175 -83 -175 -149l320 31
c-10 61 -41 125 -145 118z" />
    <glyph glyph-name="ebreve" unicode="&#x115;" horiz-adv-x="654" 
d="M331 628c-107 0 -192 74 -192 197h65c0 -88 48 -102 127 -102c93 0 136 15 136 102h65c0 -123 -95 -197 -201 -197zM367 119c74 -8 121 0 198 33v-124c-65 -28 -130 -42 -201 -42c-174 0 -294 109 -294 282c7 179 114 312 279 312c112 -9 213 -84 245 -265l-433 -28
c0 -95 65 -153 206 -168zM349 513c-102 -7 -175 -83 -175 -149l320 31c-10 61 -41 125 -145 118z" />
    <glyph glyph-name="ecaron" unicode="&#x11b;" horiz-adv-x="654" 
d="M313 649l-44 64l-133 131h54l143 -99l145 99h54l-132 -131l-39 -64h-48zM594 315l-433 -28c0 -95 65 -153 206 -168c74 -8 121 0 198 33v-124c-65 -28 -130 -42 -201 -42c-174 0 -294 109 -294 282c7 179 114 312 279 312c112 -9 213 -84 245 -265zM174 364l320 31
c-10 61 -41 125 -145 118c-102 -7 -175 -83 -175 -149z" />
    <glyph glyph-name="uni0229" unicode="&#x229;" horiz-adv-x="654" 
d="M367 119c74 -8 121 0 198 33v-124c-65 -28 -130 -42 -201 -42c-8 0 -16 0 -24 1l-24 -67h31c39 0 100 -16 90 -76c-8 -49 -47 -78 -104 -78h-62l11 53c23 -5 31 -5 53 -5c36 0 65 19 65 35c0 44 -38 46 -63 46c-17 0 -37 -2 -61 -5l34 100c-145 20 -240 124 -240 278
c7 179 114 312 279 312c112 -9 213 -84 245 -265l-433 -28c0 -95 65 -153 206 -168zM349 513c-102 -7 -175 -83 -175 -149l320 31c-10 61 -41 125 -145 118z" />
    <glyph glyph-name="ecircumflex" unicode="&#xea;" horiz-adv-x="654" 
d="M316 787h48l39 -64l132 -131h-54l-145 99l-143 -99h-54l133 131zM594 315l-433 -28c0 -95 65 -153 206 -168c74 -8 121 0 198 33v-124c-65 -28 -130 -42 -201 -42c-174 0 -294 109 -294 282c7 179 114 312 279 312c112 -9 213 -84 245 -265zM174 364l320 31
c-10 61 -41 125 -145 118c-102 -7 -175 -83 -175 -149z" />
    <glyph glyph-name="uni1EBF" unicode="&#x1ebf;" horiz-adv-x="654" 
d="M574 859h51l-51 -154h-76zM312 828h48l39 -64l132 -131h-54l-145 99l-143 -99h-54l133 131zM594 315l-433 -28c0 -95 65 -153 206 -168c74 -8 121 0 198 33v-124c-65 -28 -130 -42 -201 -42c-174 0 -294 109 -294 282c7 179 114 312 279 312c112 -9 213 -84 245 -265z
M174 364l320 31c-10 61 -41 125 -145 118c-102 -7 -175 -83 -175 -149z" />
    <glyph glyph-name="uni1EC7" unicode="&#x1ec7;" horiz-adv-x="654" 
d="M312 828h48l39 -64l132 -131h-54l-145 99l-143 -99h-54l133 131zM594 315l-433 -28c0 -95 65 -153 206 -168c74 -8 121 0 198 33v-124c-65 -28 -130 -42 -201 -42c-174 0 -294 109 -294 282c7 179 114 312 279 312c112 -9 213 -84 245 -265zM174 364l320 31
c-10 61 -41 125 -145 118c-102 -7 -175 -83 -175 -149zM294 -164l16 111h95v-111h-111z" />
    <glyph glyph-name="uni1EC1" unicode="&#x1ec1;" horiz-adv-x="654" 
d="M560 745l-116 112h79l171 -127zM312 828h48l39 -64l132 -131h-54l-145 99l-143 -99h-54l133 131zM594 315l-433 -28c0 -95 65 -153 206 -168c74 -8 121 0 198 33v-124c-65 -28 -130 -42 -201 -42c-174 0 -294 109 -294 282c7 179 114 312 279 312
c112 -9 213 -84 245 -265zM174 364l320 31c-10 61 -41 125 -145 118c-102 -7 -175 -83 -175 -149z" />
    <glyph glyph-name="uni1EC3" unicode="&#x1ec3;" horiz-adv-x="654" 
d="M425 883v-21c16 8 30 13 45 13c23 0 32 -8 32 -14s-4 -12 -11 -17l-11 -9c-8 -6 -13 -10 -16 -15c-2 -4 -3 -10 -3 -16v-3h28c0 5 1 9 2 12c1 1 3 4 9 8l11 7c15 10 21 21 21 31s-6 20 -16 26s-23 10 -40 10c-16 0 -33 -4 -51 -12zM317 840h48l39 -64l132 -131h-54
l-145 99l-143 -99h-54l133 131zM594 315l-433 -28c0 -95 65 -153 206 -168c74 -8 121 0 198 33v-124c-65 -28 -130 -42 -201 -42c-174 0 -294 109 -294 282c7 179 114 312 279 312c112 -9 213 -84 245 -265zM174 364l320 31c-10 61 -41 125 -145 118
c-102 -7 -175 -83 -175 -149z" />
    <glyph glyph-name="uni1EC5" unicode="&#x1ec5;" horiz-adv-x="654" 
d="M251 876h-55c8 117 23 150 94 150c66 0 83 -100 127 -100c50 0 39 51 41 100h46c-2 -146 -32 -151 -86 -150c-72 1 -91 104 -128 105c-39 1 -39 -62 -39 -105zM317 841h48l39 -64l132 -131h-54l-145 99l-143 -99h-54l133 131zM594 315l-433 -28c0 -95 65 -153 206 -168
c74 -8 121 0 198 33v-124c-65 -28 -130 -42 -201 -42c-174 0 -294 109 -294 282c7 179 114 312 279 312c112 -9 213 -84 245 -265zM174 364l320 31c-10 61 -41 125 -145 118c-102 -7 -175 -83 -175 -149z" />
    <glyph glyph-name="edieresis" unicode="&#xeb;" horiz-adv-x="654" 
d="M145 640l16 111h95v-111h-111zM417 640l16 111h95v-111h-111zM594 315l-433 -28c0 -95 65 -153 206 -168c74 -8 121 0 198 33v-124c-65 -28 -130 -42 -201 -42c-174 0 -294 109 -294 282c7 179 114 312 279 312c112 -9 213 -84 245 -265zM174 364l320 31
c-10 61 -41 125 -145 118c-102 -7 -175 -83 -175 -149z" />
    <glyph glyph-name="edotaccent" unicode="&#x117;" horiz-adv-x="654" 
d="M276 680l16 111h95v-111h-111zM594 315l-433 -28c0 -95 65 -153 206 -168c74 -8 121 0 198 33v-124c-65 -28 -130 -42 -201 -42c-174 0 -294 109 -294 282c7 179 114 312 279 312c112 -9 213 -84 245 -265zM174 364l320 31c-10 61 -41 125 -145 118
c-102 -7 -175 -83 -175 -149z" />
    <glyph glyph-name="uni1EB9" unicode="&#x1eb9;" horiz-adv-x="654" 
d="M594 315l-433 -28c0 -95 65 -153 206 -168c74 -8 121 0 198 33v-124c-65 -28 -130 -42 -201 -42c-174 0 -294 109 -294 282c7 179 114 312 279 312c112 -9 213 -84 245 -265zM174 364l320 31c-10 61 -41 125 -145 118c-102 -7 -175 -83 -175 -149zM294 -164l16 111h95
v-111h-111z" />
    <glyph glyph-name="egrave" unicode="&#xe8;" horiz-adv-x="654" 
d="M282 656l-116 112h79l171 -127zM594 315l-433 -28c0 -95 65 -153 206 -168c74 -8 121 0 198 33v-124c-65 -28 -130 -42 -201 -42c-174 0 -294 109 -294 282c7 179 114 312 279 312c112 -9 213 -84 245 -265zM174 364l320 31c-10 61 -41 125 -145 118
c-102 -7 -175 -83 -175 -149z" />
    <glyph glyph-name="uni1EBB" unicode="&#x1ebb;" horiz-adv-x="654" 
d="M285 677v-21c16 8 30 13 45 13c23 0 32 -8 32 -14s-4 -12 -11 -17l-11 -9c-8 -6 -13 -10 -16 -15c-2 -4 -3 -10 -3 -16v-3h28c0 5 1 9 2 12c1 1 3 4 9 8l11 7c15 10 21 21 21 31s-6 20 -16 26s-23 10 -40 10c-16 0 -33 -4 -51 -12zM594 315l-433 -28
c0 -95 65 -153 206 -168c74 -8 121 0 198 33v-124c-65 -28 -130 -42 -201 -42c-174 0 -294 109 -294 282c7 179 114 312 279 312c112 -9 213 -84 245 -265zM174 364l320 31c-10 61 -41 125 -145 118c-102 -7 -175 -83 -175 -149z" />
    <glyph glyph-name="emacron" unicode="&#x113;" horiz-adv-x="654" 
d="M144 731l386 24l29 -77l-446 -17zM594 315l-433 -28c0 -95 65 -153 206 -168c74 -8 121 0 198 33v-124c-65 -28 -130 -42 -201 -42c-174 0 -294 109 -294 282c7 179 114 312 279 312c112 -9 213 -84 245 -265zM174 364l320 31c-10 61 -41 125 -145 118
c-102 -7 -175 -83 -175 -149z" />
    <glyph glyph-name="eogonek" unicode="&#x119;" horiz-adv-x="600" 
d="M594 315l-433 -28c0 -95 65 -153 206 -168c74 -8 121 0 198 33v-124c-65 -28 -130 -42 -201 -42c-174 0 -294 109 -294 282c7 179 114 312 279 312c112 -9 213 -84 245 -265zM174 364l320 31c-10 61 -41 125 -145 118c-102 -7 -175 -83 -175 -149zM225 -145
c3 -20 8 -53 11 -70c-115 -2 -183 30 -183 86c0 38 31 86 101 141c24 0 43 0 56 -1c-67 -61 -101 -104 -101 -130c0 -20 20 -31 61 -31c15 0 34 2 55 5z" />
    <glyph glyph-name="uni025B" unicode="&#x25b;" horiz-adv-x="492" 
d="M253 -12c-92 0 -173 52 -173 159c0 63 23 105 102 116c-64 23 -91 55 -91 109c0 79 63 128 165 128c40 0 127 -24 127 -112l-45 -9c1 59 -39 77 -75 77c-68 0 -124 -25 -124 -79c0 -63 47 -82 113 -82h23l12 -53h-22c-74 1 -113 -32 -113 -77s26 -85 94 -86
c49 -1 100 0 74 103l80 7c58 -172 -105 -201 -147 -201z" />
    <glyph glyph-name="uni025C" unicode="&#x25c;" horiz-adv-x="492" 
d="M239 -12c-42 0 -205 29 -147 201l80 -7c-26 -103 25 -104 74 -103c68 1 94 41 94 86s-39 78 -113 77h-22l12 53h23c66 0 113 19 113 82c0 54 -56 79 -124 79c-36 0 -76 -18 -75 -77l-45 9c0 88 87 112 127 112c102 0 165 -49 165 -128c0 -54 -27 -86 -91 -109
c79 -11 102 -53 102 -116c0 -107 -81 -159 -173 -159z" />
    <glyph glyph-name="uni025E" unicode="&#x25e;" horiz-adv-x="580" 
d="M80 249c0 120 46 251 244 251c102 0 165 -49 165 -128c0 -54 -4 -82 -91 -109c79 -11 102 -53 102 -116c0 -107 -81 -163 -173 -159c-178 8 -247 131 -247 261zM142 252c0 -58 42 -173 192 -173c68 0 94 41 94 86s-39 78 -113 77h-22l12 53h23c66 0 113 19 113 82
c0 54 -56 79 -124 79c-126 0 -175 -110 -175 -204z" />
    <glyph glyph-name="uni025D" unicode="&#x25d;" horiz-adv-x="492" 
d="M239 -12c-42 0 -205 29 -147 201l80 -7c-26 -103 25 -104 74 -103c68 1 94 41 94 86s-39 78 -113 77h-22l12 53h23c66 0 113 19 113 82c0 54 -56 79 -124 79c-36 0 -76 -18 -75 -77l-45 9c0 88 87 112 127 112c102 0 165 -49 165 -128c0 -54 -27 -86 -91 -109
c79 -11 102 -53 102 -116c0 -107 -81 -159 -173 -159z" />
    <glyph glyph-name="uni0258" unicode="&#x258;" horiz-adv-x="654" 
d="M305 580c165 0 272 -133 279 -312c0 -173 -120 -282 -294 -282c-71 0 -136 14 -201 42v124c77 -33 124 -41 198 -33c141 15 206 73 206 168l-433 28c32 181 133 256 245 265zM480 364c0 66 -73 142 -175 149c-104 7 -135 -57 -145 -118z" />
    <glyph glyph-name="uni0283" unicode="&#x283;" horiz-adv-x="859" 
d="M779 742v-70c-25 19 -50 28 -79 28c-63 0 -101 -38 -115 -124l-37 -232l-32 -237c-44 -323 -127 -315 -241 -315c-37 0 -146 28 -195 110l125 65c33 -21 64 -32 95 -32c63 0 95 40 117 148l38 261l39 231c20 119 90 185 188 185c35 0 67 -6 97 -18z" />
    <glyph glyph-name="uni1EBD" unicode="&#x1ebd;" horiz-adv-x="654" 
d="M234 611h-55c8 117 23 150 94 150c66 0 83 -100 127 -100c50 0 39 51 41 100h46c-2 -146 -32 -151 -86 -150c-72 1 -91 104 -128 105c-39 1 -39 -62 -39 -105zM594 315l-433 -28c0 -95 65 -153 206 -168c74 -8 121 0 198 33v-124c-65 -28 -130 -42 -201 -42
c-174 0 -294 109 -294 282c7 179 114 312 279 312c112 -9 213 -84 245 -265zM174 364l320 31c-10 61 -41 125 -145 118c-102 -7 -175 -83 -175 -149z" />
    <glyph glyph-name="uni01DD" unicode="&#x1dd;" horiz-adv-x="654" 
d="M60 219l433 27c0 95 -65 153 -205 168c-74 9 -121 1 -199 -32l1 124c65 28 130 42 201 41c174 0 294 -110 293 -283c-8 -179 -115 -311 -280 -311c-112 10 -213 85 -244 266zM480 169l-321 -30c10 -61 41 -125 145 -119c102 7 175 83 176 149z" />
    <glyph glyph-name="uni0259" unicode="&#x259;" horiz-adv-x="654" 
d="M60 245l433 28c0 95 -65 153 -206 168c-74 8 -121 0 -198 -33v124c65 28 130 42 201 42c174 0 294 -109 294 -282c-7 -179 -114 -312 -279 -312c-112 9 -213 84 -245 265zM480 196l-320 -31c10 -61 41 -125 145 -118c102 7 175 83 175 149z" />
    <glyph glyph-name="uni025A" unicode="&#x25a;" horiz-adv-x="654" 
d="M708 212c4 -28 5 -38 5 -55c-60 0 -76 48 -76 90v31l-54 -6c-14 -169 -119 -292 -278 -292c-112 9 -213 84 -245 265l433 28c0 95 -65 153 -206 168c-74 8 -121 0 -198 -33v124c65 28 130 42 201 42c165 0 282 -98 293 -257l84 7c0 -17 0 -49 3 -66c4 -25 6 -46 38 -46z
M305 47c102 7 175 83 175 149l-320 -31c10 -61 41 -125 145 -118z" />
    <glyph glyph-name="uni0292" unicode="&#x292;" horiz-adv-x="686" 
d="M369 314c120 -9 226 -111 234 -207c14 -164 -24 -307 -238 -307c-33 0 -158 -2 -285 123l127 104c141 -138 274 -50 271 99c-7 79 -121 119 -261 106v93c112 105 167 143 261 248c-113 -1 -248 -1 -395 0v94c98 0 395 4 475 0c12 -69 10 -69 18 -140
c-90 -100 -115 -121 -207 -213z" />
    <glyph glyph-name="uni01EF" unicode="&#x1ef;" horiz-adv-x="686" 
d="M314 743l-44 64l-133 131h54l143 -99l145 99h54l-132 -131l-39 -64h-48zM369 314c120 -9 226 -111 234 -207c14 -164 -24 -307 -238 -307c-33 0 -158 -2 -285 123l127 104c141 -138 274 -50 271 99c-7 79 -121 119 -261 106v93c112 105 167 143 261 248
c-113 -1 -248 -1 -395 0v94c98 0 395 4 475 0c12 -69 10 -69 18 -140c-90 -100 -115 -121 -207 -213z" />
    <glyph glyph-name="f" unicode="f" horiz-adv-x="484" 
d="M146 -1l15 459h-81v89h81c0 214 51 248 154 248h80v-75h-81c-89 0 -74 -136 -65 -175l155 2v-89h-143l15 -459h-130z" />
    <glyph glyph-name="uni1E1F" unicode="&#x1e1f;" horiz-adv-x="484" 
d="M182 881l16 111h95v-111h-111zM146 -1l15 459h-81v89h81c0 214 51 248 154 248h80v-75h-81c-89 0 -74 -136 -65 -175l155 2v-89h-143l15 -459h-130z" />
    <glyph glyph-name="uni02A9" unicode="&#x2a9;" horiz-adv-x="931" 
d="M851 -6h-1c-1 -83 -15 -117 -31 -132c-25 -24 -193 -36 -234 -22c3 9 17 62 20 73h46c61 0 61 19 61 91v2l11 317c3 97 -27 143 -107 143c-110 0 -144 -78 -140 -168l14 -304h-148l34 464h-115l15 -459h-130l15 459h-81v89h81c0 214 51 248 154 248h80v-75h-81
c-89 0 -74 -136 -65 -175l155 2v-7h44l17 -44c47 22 85 55 161 55c125 0 193 -90 203 -234l19 -281c1 -1 1 -2 1 -3v-16z" />
    <glyph glyph-name="uni1D6E" unicode="&#x1d6e;" horiz-adv-x="484" 
d="M404 458h-143l7 -216c3 -1 7 -2 10 -2c50 0 39 51 41 100h46c-2 -146 -32 -151 -86 -150c-3 0 -6 0 -9 1l6 -192h-130l10 295c-2 1 -3 1 -5 1c-39 1 -39 -62 -39 -105h-55c8 117 23 150 94 150h6l4 118h-81v89h81c0 214 51 248 154 248h80v-75h-81
c-89 0 -74 -136 -65 -175l155 2v-89z" />
    <glyph glyph-name="g" unicode="g" horiz-adv-x="659" 
d="M301 -261c-63 0 -140 16 -202 47l37 132c53 -29 104 -49 157 -42c78 10 136 75 159 140l12 46c-50 -45 -100 -72 -160 -72c-134 0 -224 121 -224 290s90 280 224 280c80 0 109 -42 164 -83l21 70h90l-21 -478c-10 -221 -86 -330 -257 -330zM280 146c97 0 160 26 160 129
c0 98 -56 185 -153 185c-96 0 -118 -87 -125 -175c-9 -113 21 -139 118 -139z" />
    <glyph glyph-name="uni01F5" unicode="&#x1f5;" horiz-adv-x="659" 
d="M359 760h51l-51 -154h-76zM301 -261c-63 0 -140 16 -202 47l37 132c53 -29 104 -49 157 -42c78 10 136 75 159 140l12 46c-50 -45 -100 -72 -160 -72c-134 0 -224 121 -224 290s90 280 224 280c80 0 109 -42 164 -83l21 70h90l-21 -478c-10 -221 -86 -330 -257 -330z
M280 146c97 0 160 26 160 129c0 98 -56 185 -153 185c-96 0 -118 -87 -125 -175c-9 -113 21 -139 118 -139z" />
    <glyph glyph-name="uni0263" unicode="&#x263;" horiz-adv-x="704" 
d="M549 515l75 -67c-7 -9 -10 -15 -17 -21c-82 -76 -148 -143 -200 -202c191 -256 193 -424 -56 -422c-297 3 -247 168 -52 418c-50 61 -116 132 -202 214c-8 7 -7 8 -17 20l73 60c12 -15 17 -22 29 -34c66 -67 124 -130 174 -190c50 61 107 126 169 194c9 10 15 20 24 30z
M348 -100c88 -2 133 70 2 255c-128 -169 -111 -252 -2 -255z" />
    <glyph glyph-name="gbreve" unicode="&#x11f;" horiz-adv-x="659" 
d="M335 576c-107 0 -192 74 -192 197h65c0 -88 48 -102 127 -102c93 0 136 15 136 102h65c0 -123 -95 -197 -201 -197zM489 547h90l-21 -478c-10 -221 -86 -330 -257 -330c-63 0 -140 16 -202 47l37 132c53 -29 104 -49 157 -42c78 10 136 75 159 140l12 46
c-50 -45 -100 -72 -160 -72c-134 0 -224 121 -224 290s90 280 224 280c80 0 109 -42 164 -83zM280 146c97 0 160 26 160 129c0 98 -56 185 -153 185c-96 0 -118 -87 -125 -175c-9 -113 21 -139 118 -139z" />
    <glyph glyph-name="gcaron" unicode="&#x1e7;" horiz-adv-x="659" 
d="M317 597l-44 64l-133 131h54l143 -99l145 99h54l-132 -131l-39 -64h-48zM301 -261c-63 0 -140 16 -202 47l37 132c53 -29 104 -49 157 -42c78 10 136 75 159 140l12 46c-50 -45 -100 -72 -160 -72c-134 0 -224 121 -224 290s90 280 224 280c80 0 109 -42 164 -83l21 70
h90l-21 -478c-10 -221 -86 -330 -257 -330zM280 146c97 0 160 26 160 129c0 98 -56 185 -153 185c-96 0 -118 -87 -125 -175c-9 -113 21 -139 118 -139z" />
    <glyph glyph-name="uni0123" unicode="&#x123;" horiz-adv-x="659" 
d="M376 592h-105l51 142h-15l11 95h124zM489 547h90l-21 -478c-10 -221 -86 -330 -257 -330c-63 0 -140 16 -202 47l37 132c53 -29 104 -49 157 -42c78 10 136 75 159 140l12 46c-50 -45 -100 -72 -160 -72c-134 0 -224 121 -224 290s90 280 224 280c80 0 109 -42 164 -83z
M280 146c97 0 160 26 160 129c0 98 -56 185 -153 185c-96 0 -118 -87 -125 -175c-9 -113 21 -139 118 -139z" />
    <glyph glyph-name="gdotaccent" unicode="&#x121;" horiz-adv-x="659" 
d="M280 628l16 111h95v-111h-111zM301 -261c-63 0 -140 16 -202 47l37 132c53 -29 104 -49 157 -42c78 10 136 75 159 140l12 46c-50 -45 -100 -72 -160 -72c-134 0 -224 121 -224 290s90 280 224 280c80 0 109 -42 164 -83l21 70h90l-21 -478c-10 -221 -86 -330 -257 -330z
M280 146c97 0 160 26 160 129c0 98 -56 185 -153 185c-96 0 -118 -87 -125 -175c-9 -113 21 -139 118 -139z" />
    <glyph glyph-name="uni0260" unicode="&#x260;" horiz-adv-x="649" 
d="M447 707c10 111 36 116 172 108l-4 -85c-74 4 -77 1 -80 -47c0 -11 -1 -21 -1 -31l-1 -19c0 -7 -1 -13 -1 -19l-4 -67h51l-21 -478c-10 -221 -86 -330 -257 -330c-63 0 -140 16 -202 47l37 132c53 -29 104 -49 157 -42c78 10 136 75 159 140l12 46
c-50 -45 -100 -72 -160 -72c-134 0 -224 121 -224 290s90 280 224 280c62 0 93 -25 130 -56l5 99c1 13 1 23 2 31l1 23c1 14 2 21 5 50zM280 146c93 0 154 24 160 115l-19 1l5 94c-22 60 -70 104 -139 104c-96 0 -118 -87 -125 -175c-9 -113 21 -139 118 -139z" />
    <glyph glyph-name="uni0294" unicode="&#x294;" horiz-adv-x="478" 
d="M172 32l1 240c0 57 3 71 29 112c29 45 135 62 135 133c0 53 -20 90 -65 99c-67 14 -110 4 -110 -63h-82c0 116 140 141 204 126c83 -19 111 -79 114 -151c6 -155 -139 -163 -139 -203l-1 -264c0 -7 -45 -18 -86 -29z" />
    <glyph glyph-name="uni0295" unicode="&#x295;" horiz-adv-x="478" 
d="M306 32c-41 11 -86 22 -86 29l-1 264c0 40 -145 48 -139 203c3 72 31 132 114 151c64 15 204 -10 204 -126h-82c0 67 -43 77 -110 63c-45 -9 -65 -46 -65 -99c0 -71 106 -88 135 -133c26 -41 29 -55 29 -112z" />
    <glyph glyph-name="uni0242" unicode="&#x242;" horiz-adv-x="478" 
d="M166 220c0 57 10 138 36 179c29 45 135 62 135 133c0 53 -20 90 -65 99c-67 13 -110 4 -110 -63h-82c0 116 140 141 204 126c83 -19 111 -79 114 -151c6 -155 -139 -163 -139 -203s7 -82 4 -120h-97z" />
    <glyph glyph-name="uni02A1" unicode="&#x2a1;" horiz-adv-x="478" 
d="M398 528c6 -155 -139 -163 -139 -203v-65h78v-78h-79v-121c0 -7 -45 -18 -86 -29c0 21 0 90 1 150h-93v78h93v12c0 57 3 71 29 112c29 45 135 62 135 133c0 53 -20 90 -65 99c-67 14 -110 4 -110 -63h-82c0 116 140 141 204 126c83 -19 111 -79 114 -151z" />
    <glyph glyph-name="uni02A2" unicode="&#x2a2;" horiz-adv-x="478" 
d="M305 272v-12h93v-78h-93c1 -60 1 -129 1 -150c-41 11 -86 22 -86 29v121h-79v78h78v65c0 40 -145 48 -139 203c3 72 31 132 114 151c64 15 204 -10 204 -126h-82c0 67 -43 77 -110 63c-45 -9 -65 -46 -65 -99c0 -71 106 -88 135 -133c26 -41 29 -55 29 -112z" />
    <glyph glyph-name="uni0261" unicode="&#x261;" horiz-adv-x="659" 
d="M301 -261c-63 0 -140 16 -202 47l37 132c53 -29 104 -49 157 -42c78 10 136 75 159 140l12 46c-50 -45 -100 -72 -160 -72c-134 0 -224 121 -224 290s90 280 224 280c80 0 109 -42 164 -83l21 70h90l-21 -478c-10 -221 -86 -330 -257 -330zM280 146c97 0 160 26 160 129
c0 98 -56 185 -153 185c-96 0 -118 -87 -125 -175c-9 -113 21 -139 118 -139z" />
    <glyph glyph-name="h" unicode="h" horiz-adv-x="676" 
d="M575 330l21 -330h-138c54 325 45 446 -94 446c-119 0 -190 -81 -136 -446h-148l58 800h90l-20 -314c69 54 90 68 176 62c85 -6 179 -26 191 -218z" />
    <glyph glyph-name="hbar" unicode="&#x127;" horiz-adv-x="666" 
d="M596 0h-138c54 325 45 446 -94 446c-119 0 -190 -81 -136 -446h-148l47 652l-83 -8v65l88 8l6 83h90l-5 -74l219 21v-65l-223 -21l-11 -175c69 54 90 68 176 62c85 -6 179 -26 191 -218z" />
    <glyph glyph-name="uni1E25" unicode="&#x1e25;" horiz-adv-x="676" 
d="M575 330l21 -330h-138c54 325 45 446 -94 446c-119 0 -190 -81 -136 -446h-148l58 800h90l-20 -314c69 54 90 68 176 62c85 -6 179 -26 191 -218zM282 -160l16 111h95v-111h-111z" />
    <glyph glyph-name="uni0267" unicode="&#x267;" horiz-adv-x="676" 
d="M588 130c0 -35 46 -96 46 -120c0 -85 -134 -172 -264 -172c1 57 3 82 9 138c36 0 63 14 81 35c52 317 41 435 -96 435c-119 0 -190 -81 -136 -446h-148l55 759v125v2v52c0 14 1 21 2 50c4 112 28 118 154 117v-85c-68 0 -71 -3 -71 -51v-31v-54v-84h8l-8 -126v-131h-8
l-4 -57c69 54 90 68 176 62c85 -6 179 -26 191 -218z" />
    <glyph glyph-name="uni0266" unicode="&#x266;" horiz-adv-x="676" 
d="M596 0h-138c54 325 45 446 -94 446c-119 0 -190 -81 -136 -446h-148l55 759v125v2v52c0 14 1 21 2 50c4 112 28 118 154 117v-85c-68 0 -71 -3 -71 -51v-31v-54v-84h8l-8 -126v-131h-8l-4 -57c69 54 90 68 176 62c85 -6 179 -26 191 -218z" />
    <glyph glyph-name="uni0265" unicode="&#x265;" horiz-adv-x="676" 
d="M101 230l-21 330h138c-54 -325 -45 -446 94 -446c119 0 190 81 136 446h148l-58 -800h-90l20 314c-69 -54 -90 -68 -176 -62c-85 6 -179 26 -191 218z" />
    <glyph glyph-name="i" unicode="i" horiz-adv-x="282" 
d="M94 646l15 114h60l15 -114h-90zM80 0c13 192 19 330 19 551h80c-7 -165 -7 -359 23 -551h-122z" />
    <glyph glyph-name="dotlessi" unicode="&#x131;" horiz-adv-x="282" 
d="M80 0c13 192 19 285 19 506h80c-7 -165 -7 -314 23 -506h-122z" />
    <glyph glyph-name="iacute" unicode="&#xed;" horiz-adv-x="282" 
d="M150 800h51l-51 -154h-76zM80 0c13 192 19 285 19 506h80c-7 -165 -7 -314 23 -506h-122z" />
    <glyph glyph-name="uni01D0" unicode="&#x1d0;" horiz-adv-x="282" 
d="M114 616l-44 64l-133 131h54l143 -99l145 99h54l-132 -131l-39 -64h-48zM80 0c13 192 19 285 19 506h80c-7 -165 -7 -314 23 -506h-122z" />
    <glyph glyph-name="icircumflex" unicode="&#xee;" horiz-adv-x="282" 
d="M113 795h48l39 -64l132 -131h-54l-145 99l-143 -99h-54l133 131zM80 0c13 192 19 285 19 506h80c-7 -165 -7 -314 23 -506h-122z" />
    <glyph glyph-name="idieresis" unicode="&#xef;" horiz-adv-x="282" 
d="M-54 537l16 111h95v-111h-111zM218 537l16 111h95v-111h-111zM80 0c13 192 19 285 19 506h80c-7 -165 -7 -314 23 -506h-122z" />
    <glyph glyph-name="uni1E2F" unicode="&#x1e2f;" horiz-adv-x="282" 
d="M158 871h51l-51 -154h-76zM-54 537l16 111h95v-111h-111zM218 537l16 111h95v-111h-111zM80 0c13 192 19 285 19 506h80c-7 -165 -7 -314 23 -506h-122z" />
    <glyph glyph-name="i.loclTRK" horiz-adv-x="282" 
d="M77 647l16 111h95v-111h-111zM80 0c13 192 19 285 19 506h80c-7 -165 -7 -314 23 -506h-122z" />
    <glyph glyph-name="uni1ECB" unicode="&#x1ecb;" horiz-adv-x="282" 
d="M94 646l15 114h60l15 -114h-90zM80 0c13 192 19 330 19 551h80c-7 -165 -7 -359 23 -551h-122zM85 -160l16 111h95v-111h-111z" />
    <glyph glyph-name="igrave" unicode="&#xec;" horiz-adv-x="282" 
d="M83 623l-116 112h79l171 -127zM80 0c13 192 19 285 19 506h80c-7 -165 -7 -314 23 -506h-122z" />
    <glyph glyph-name="uni1EC9" unicode="&#x1ec9;" horiz-adv-x="282" 
d="M86 644v-21c16 8 30 13 45 13c23 0 32 -8 32 -14s-4 -12 -11 -17l-11 -9c-8 -6 -13 -10 -16 -15c-2 -4 -3 -10 -3 -16v-3h28c0 5 1 9 2 12c1 1 3 4 9 8l11 7c15 10 21 21 21 31s-6 20 -16 26s-23 10 -40 10c-16 0 -33 -4 -51 -12zM80 0c13 192 19 285 19 506h80
c-7 -165 -7 -314 23 -506h-122z" />
    <glyph glyph-name="imacron" unicode="&#x12b;" horiz-adv-x="282" 
d="M-55 698l386 24l29 -77l-446 -17zM80 0c13 192 19 285 19 506h80c-7 -165 -7 -314 23 -506h-122z" />
    <glyph glyph-name="iogonek" unicode="&#x12f;" horiz-adv-x="282" 
d="M188 758v-111h-111l16 111h95zM130 -160c15 0 34 2 55 5c3 -20 8 -53 11 -70c-115 -2 -183 30 -183 86c0 38 30 85 98 139h-31c13 192 19 285 19 506h80c-7 -165 -7 -314 23 -506h-33c-66 -60 -100 -103 -100 -129c0 -20 20 -31 61 -31z" />
    <glyph glyph-name="uni0269" unicode="&#x269;" horiz-adv-x="334" 
d="M247 0c-153 0 -143 0 -167 44c22 219 5 345 5 462h80c-4 -94 1 -334 -1 -427c48 -23 54 -12 90 -12z" />
    <glyph glyph-name="uni0268" unicode="&#x268;" horiz-adv-x="282" 
d="M169 760l15 -114h-90l15 114h60zM349 330v-91h-171c4 -79 11 -159 24 -239h-122c6 86 10 162 13 239h-135v91h138c2 67 3 138 3 221h80c-3 -69 -5 -144 -3 -221h173z" />
    <glyph glyph-name="itilde" unicode="&#x129;" horiz-adv-x="282" 
d="M35 578h-55c8 117 23 150 94 150c66 0 83 -100 127 -100c50 0 39 51 41 100h46c-2 -146 -32 -151 -86 -150c-72 1 -91 104 -128 105c-39 1 -39 -62 -39 -105zM80 0c13 192 19 285 19 506h80c-7 -165 -7 -314 23 -506h-122z" />
    <glyph glyph-name="j" unicode="j" horiz-adv-x="414" 
d="M228 647l16 111h95v-111h-111zM218 -38c17 59 17 193 28 595h95l-30 -571c-6 -107 -22 -149 -57 -176c-33 -26 -168 -46 -253 -29l46 94c50 -9 144 -4 171 87z" />
    <glyph glyph-name="uni0237" unicode="&#x237;" horiz-adv-x="416" 
d="M223 -38c17 59 17 193 28 595h95l-30 -571c-6 -107 -22 -149 -57 -176c-33 -26 -168 -46 -253 -29l46 94c50 -9 144 -4 171 87z" />
    <glyph glyph-name="uni029D" unicode="&#x29d;" horiz-adv-x="694" 
d="M407 85h207v-110c-63 0 -147 4 -212 8c0 -1 -1 -3 -1 -4l-3 -41c-16 -156 -41 -162 -167 -162c-38 0 -68 -2 -91 3c-17 1 -33 3 -48 6l10 21c-15 26 -22 71 -22 152c0 75 65 127 158 127h85c5 90 7 235 14 476h95zM262 -9c-100 0 -116 -105 -45 -105c29 0 70 38 89 104
c-13 1 -27 1 -44 1z" />
    <glyph glyph-name="uni025F" unicode="&#x25f;" horiz-adv-x="551" 
d="M471 297v-91h-143l-12 -220c-6 -107 -22 -149 -57 -176c-33 -26 -168 -46 -253 -29l46 94c50 -9 144 -4 171 87c11 37 15 103 19 244h-162v91h164l7 260h95l-14 -260h139z" />
    <glyph glyph-name="uni0284" unicode="&#x284;" horiz-adv-x="493" 
d="M403 601c-67 2 -70 0 -72 -44h6l-15 -299h62v-91h-67l-9 -181c-6 -107 -22 -149 -56 -176c-32 -26 -163 -46 -246 -29l45 94c48 -9 140 -4 166 87c10 33 14 90 17 205h-147v91h148l5 126c1 51 2 109 4 173h4c1 5 1 12 2 20c8 101 32 106 156 101z" />
    <glyph glyph-name="k" unicode="k" horiz-adv-x="660" 
d="M70 0l42 793h100l-23 -442l135 169h118l-173 -221l311 -299h-205l-186 238l11 -238h-130z" />
    <glyph glyph-name="uni01E9" unicode="&#x1e9;" horiz-adv-x="660" 
d="M307 850l-44 64l-133 131h54l143 -99l145 99h54l-132 -131l-39 -64h-48zM70 0l42 793h100l-23 -442l135 169h118l-173 -221l311 -299h-205l-186 238l11 -238h-130z" />
    <glyph glyph-name="uni0137" unicode="&#x137;" horiz-adv-x="660" 
d="M366 845h-105l51 142h-15l11 95h124zM580 0h-205l-186 238l11 -238h-130l42 793h100l-23 -442l135 169h118l-173 -221z" />
    <glyph glyph-name="uni0199" unicode="&#x199;" horiz-adv-x="660" 
d="M580 0h-205l-186 238l11 -238h-130l42 793h10c8 81 39 86 152 85v-85c-36 0 -54 -1 -62 -9l-9 -164v-251l121 151h118l-173 -221z" />
    <glyph glyph-name="uni029E" unicode="&#x29e;" horiz-adv-x="660" 
d="M590 504l-42 -793h-100l23 442l-135 -169h-118l173 221l-311 299h205l186 -238l-11 238h130z" />
    <glyph glyph-name="l" unicode="l" horiz-adv-x="390" 
d="M80 0c-12 111 1 506 42 784h85c-27 -240 -42 -430 -32 -673h119l16 -111h-230z" />
    <glyph glyph-name="lacute" unicode="&#x13a;" horiz-adv-x="390" 
d="M175 963h51l-51 -154h-76zM80 0c-12 111 1 506 42 784h85c-27 -240 -42 -430 -32 -673h119l16 -111h-230z" />
    <glyph glyph-name="uni026C" unicode="&#x26c;" horiz-adv-x="672" 
d="M592 290c-85 1 -159 3 -222 9c-1 -60 0 -122 3 -188h119l16 -111h-230c-6 54 -6 173 0 314c-96 22 -157 64 -186 142c-25 68 -10 117 40 152c36 25 79 30 110 30c22 0 41 -5 58 -15c6 56 13 110 20 161h85c-15 -138 -27 -259 -32 -383c97 0 154 -3 219 -3v-108zM170 501
c0 -29 48 -71 113 -90c2 24 4 48 5 72c-9 42 -38 60 -61 60c-14 0 -30 -7 -46 -19c-8 -6 -11 -14 -11 -23z" />
    <glyph glyph-name="lcaron" unicode="&#x13e;" horiz-adv-x="390" 
d="M80 0c-12 111 1 506 42 784h85c-27 -240 -42 -430 -32 -673h119l16 -111h-230zM412 369h-95l28 213h79z" />
    <glyph glyph-name="uni1E3D" unicode="&#x1e3d;" horiz-adv-x="390" 
d="M80 0c-12 111 1 506 42 784h85c-27 -240 -42 -430 -32 -673h119l16 -111h-230zM182 -113h48l39 -64l132 -131h-54l-145 99l-143 -99h-54l133 131z" />
    <glyph glyph-name="uni013C" unicode="&#x13c;" horiz-adv-x="390" 
d="M192 795h-105l51 142h-15l11 95h124zM294 111l16 -111h-230c-12 111 1 506 42 784h85c-27 -240 -42 -430 -32 -673h119z" />
    <glyph glyph-name="ldot" unicode="&#x140;" horiz-adv-x="390" 
d="M80 0c-12 111 1 506 42 784h85c-27 -240 -42 -430 -32 -673h119l16 -111h-230zM319 440l16 111h95v-111h-111z" />
    <glyph glyph-name="uni1E37" unicode="&#x1e37;" horiz-adv-x="390" 
d="M80 0c-12 111 1 506 42 784h85c-27 -240 -42 -430 -32 -673h119l16 -111h-230zM142 -160l16 111h95v-111h-111z" />
    <glyph glyph-name="uni026E" unicode="&#x26e;" horiz-adv-x="779" 
d="M696 31c14 -164 -24 -307 -238 -307c-33 0 -158 -2 -285 123l127 104c141 -138 274 -50 271 99c-7 79 -121 119 -261 106v93c112 105 167 143 261 248c-112 -1 -246 -1 -391 0c-8 -124 -11 -246 -5 -386h5l80 -111h-180c-12 111 1 506 42 784h85
c-8 -68 -14 -131 -20 -193c108 0 387 4 464 0c12 -69 10 -69 18 -140c-90 -100 -115 -121 -207 -213c120 -9 226 -111 234 -207z" />
    <glyph glyph-name="uni026D" unicode="&#x26d;" horiz-adv-x="555" 
d="M475 20c-11 -278 -103 -265 -336 -265c-66 0 -60 123 -57 190c14 281 39 663 57 839h85c-17 -147 -13 -634 -14 -839c-1 -108 152 -113 152 55z" />
    <glyph glyph-name="uni01C9" unicode="&#x1c9;" horiz-adv-x="474" 
d="M306 427h95l-30 -571c-6 -107 -22 -149 -57 -176c-33 -26 -168 -46 -253 -29l46 94c50 -9 144 -4 171 87c8 29 13 77 16 168h-214c-12 111 1 506 42 784h85c-27 -240 -42 -430 -32 -673h119l3 -22c3 84 5 194 9 338zM399 628v-111h-111l16 111h95z" />
    <glyph glyph-name="uni026B" unicode="&#x26b;" horiz-adv-x="390" 
d="M294 111l16 -111h-230c-7 68 -5 241 7 429c-2 1 -4 1 -6 1c-39 1 -39 -62 -39 -105h-55c8 117 23 150 94 150c3 0 6 0 9 -1c7 107 18 215 32 310h85c-16 -140 -27 -262 -32 -389c10 -12 20 -20 33 -20c50 0 39 51 41 100h46c-2 -146 -32 -151 -86 -150
c-14 0 -26 4 -36 10c-2 -71 -1 -145 2 -224h119z" />
    <glyph glyph-name="uni02AA" unicode="&#x2aa;" horiz-adv-x="858" 
d="M582 335c165 -51 194 -93 194 -171c0 -138 -77 -169 -228 -169c-45 0 -79 2 -107 5h-361c-12 111 1 506 42 784h85c-27 -240 -42 -429 -32 -672h182l50 57c58 -22 82 -28 143 -33c35 -3 101 -7 101 50c0 32 -61 52 -131 66c-45 7 -167 37 -167 168c0 73 35 162 208 162
c67 0 127 -13 177 -24l-46 -60c-62 8 -85 6 -120 8c-129 0 -145 -37 -144 -82c1 -32 67 -62 154 -89z" />
    <glyph glyph-name="lslash" unicode="&#x142;" horiz-adv-x="390" 
d="M175 111h119l16 -111h-230c-8 71 -5 261 9 461l-83 16l87 40c7 92 17 185 29 267h85c-9 -79 -16 -153 -22 -225l125 58l73 -21l-204 -111c-7 -120 -10 -239 -4 -374z" />
    <glyph glyph-name="uni02AB" unicode="&#x2ab;" horiz-adv-x="858" 
d="M446 120h265l57 -121h-501v1h-5l20 111h6l3 19l351 333h-291v19h-172c-7 -119 -10 -237 -4 -371h40l12 -111h-147c-12 111 1 506 42 784h85c-9 -83 -17 -160 -23 -235h167v10h414l13 -90z" />
    <glyph glyph-name="m" unicode="m" horiz-adv-x="1024" 
d="M574 442c45 80 104 119 181 119c124 0 172 -101 178 -261l11 -300h-135l34 312c11 104 -22 153 -98 153c-94 0 -129 -76 -146 -186l-42 -279h-124l71 317c20 88 -37 154 -114 154c-92 0 -155 -93 -159 -148l-26 -323h-125l65 547h90l-10 -85c41 67 106 99 176 99
c80 0 146 -42 173 -119z" />
    <glyph glyph-name="uni1E3F" unicode="&#x1e3f;" horiz-adv-x="1024" 
d="M593 773h51l-51 -154h-76zM574 442c45 80 104 119 181 119c124 0 172 -101 178 -261l11 -300h-135l34 312c11 104 -22 153 -98 153c-94 0 -129 -76 -146 -186l-42 -279h-124l71 317c20 88 -37 154 -114 154c-92 0 -155 -93 -159 -148l-26 -323h-125l65 547h90l-10 -85
c41 67 106 99 176 99c80 0 146 -42 173 -119z" />
    <glyph glyph-name="uni1E41" unicode="&#x1e41;" horiz-adv-x="1024" 
d="M514 641l16 111h95v-111h-111zM574 442c45 80 104 119 181 119c124 0 172 -101 178 -261l11 -300h-135l34 312c11 104 -22 153 -98 153c-94 0 -129 -76 -146 -186l-42 -279h-124l71 317c20 88 -37 154 -114 154c-92 0 -155 -93 -159 -148l-26 -323h-125l65 547h90
l-10 -85c41 67 106 99 176 99c80 0 146 -42 173 -119z" />
    <glyph glyph-name="uni0271" unicode="&#x271;" horiz-adv-x="1024" 
d="M944 0c0 -87 -15 -122 -30 -137c-25 -23 -192 -35 -233 -21c3 8 17 60 20 71h46c60 0 60 19 60 89c0 2 1 4 3 6l33 304c11 104 -22 153 -98 153c-94 0 -129 -76 -146 -186l-42 -279h-124l71 317c20 88 -37 154 -114 154c-92 0 -155 -93 -159 -148l-26 -323h-125l65 547
h90l-10 -85c41 67 106 99 176 99c80 0 146 -42 173 -119c45 80 104 119 181 119c124 0 172 -101 178 -261l10 -269v-1v-14z" />
    <glyph glyph-name="uni0270" unicode="&#x270;" horiz-adv-x="1024" 
d="M944 560l-8 -64h2l-55 -696h-109l16 285c-41 -58 -102 -86 -167 -86c-80 0 -146 42 -173 119c-45 -80 -104 -119 -181 -119c-124 0 -172 101 -178 261l-11 300h135l-34 -312c-11 -104 22 -153 98 -153c94 0 129 76 146 186l42 279h124l-71 -317c-20 -88 37 -154 114 -154
c92 0 155 93 159 148l26 323h125z" />
    <glyph glyph-name="uni1D6F" unicode="&#x1d6f;" horiz-adv-x="1024" 
d="M1058 354c-4 -92 -46 -128 -122 -142l8 -212h-135l22 204h-62c-74 0 -131 10 -178 23l-34 -227h-124l59 264c-53 23 -97 45 -153 45c-62 0 -95 -13 -112 -33l-22 -276h-125l24 204h-80c15 65 37 104 95 126l26 217h90l-10 -85c41 67 106 99 176 99c80 0 146 -42 173 -119
c45 80 104 119 181 119c109 0 160 -79 174 -207h129zM237 351c30 2 63 3 102 3c69 0 123 -10 168 -23c11 81 -44 140 -117 140c-78 0 -135 -66 -153 -120zM766 254c30 0 53 2 71 4l6 54c11 104 -22 153 -98 153c-89 0 -125 -69 -143 -170c51 -22 99 -41 164 -41z" />
    <glyph glyph-name="uni026F" unicode="&#x26f;" horiz-adv-x="1024" 
d="M450 118c-45 -80 -104 -119 -181 -119c-124 0 -172 101 -178 261l-11 300h135l-34 -312c-11 -104 22 -153 98 -153c94 0 129 76 146 186l42 279h124l-71 -317c-20 -88 37 -154 114 -154c92 0 155 93 159 148l26 323h125l-65 -547h-90l10 85c-41 -67 -106 -99 -176 -99
c-80 0 -146 42 -173 119z" />
    <glyph glyph-name="n" unicode="n" horiz-adv-x="669" 
d="M567 323l22 -323h-139l11 329c3 97 -27 143 -107 143c-110 0 -144 -78 -140 -168l14 -304h-148l40 546h66l17 -44c47 22 85 55 161 55c125 0 193 -90 203 -234z" />
    <glyph glyph-name="nacute" unicode="&#x144;" horiz-adv-x="669" 
d="M334 798h51l-51 -154h-76zM567 323l22 -323h-139l11 329c3 97 -27 143 -107 143c-110 0 -144 -78 -140 -168l14 -304h-148l40 546h66l17 -44c47 22 85 55 161 55c125 0 193 -90 203 -234z" />
    <glyph glyph-name="napostrophe" unicode="&#x149;" horiz-adv-x="669" 
d="M214 596l-134 -20l171 170h79zM567 323l22 -323h-139l11 329c3 97 -27 143 -107 143c-110 0 -144 -78 -140 -168l14 -304h-148l40 546h66l17 -44c47 22 85 55 161 55c125 0 193 -90 203 -234z" />
    <glyph glyph-name="ncaron" unicode="&#x148;" horiz-adv-x="669" 
d="M292 635l-44 64l-133 131h54l143 -99l145 99h54l-132 -131l-39 -64h-48zM567 323l22 -323h-139l11 329c3 97 -27 143 -107 143c-110 0 -144 -78 -140 -168l14 -304h-148l40 546h66l17 -44c47 22 85 55 161 55c125 0 193 -90 203 -234z" />
    <glyph glyph-name="uni1E4B" unicode="&#x1e4b;" horiz-adv-x="669" 
d="M567 323l22 -323h-139l11 329c3 97 -27 143 -107 143c-110 0 -144 -78 -140 -168l14 -304h-148l40 546h66l17 -44c47 22 85 55 161 55c125 0 193 -90 203 -234zM305 -113h48l39 -64l132 -131h-54l-145 99l-143 -99h-54l133 131z" />
    <glyph glyph-name="uni0146" unicode="&#x146;" horiz-adv-x="669" 
d="M461 329c3 97 -27 143 -107 143c-110 0 -144 -78 -140 -168l14 -304h-148l40 546h66l17 -44c47 22 85 55 161 55c125 0 193 -90 203 -234l22 -323h-139zM589 -48l-66 -237h-105l51 142h-15l11 95h124z" />
    <glyph glyph-name="uni1E45" unicode="&#x1e45;" horiz-adv-x="669" 
d="M255 666l16 111h95v-111h-111zM567 323l22 -323h-139l11 329c3 97 -27 143 -107 143c-110 0 -144 -78 -140 -168l14 -304h-148l40 546h66l17 -44c47 22 85 55 161 55c125 0 193 -90 203 -234z" />
    <glyph glyph-name="uni1E47" unicode="&#x1e47;" horiz-adv-x="669" 
d="M567 323l22 -323h-139l11 329c3 97 -27 143 -107 143c-110 0 -144 -78 -140 -168l14 -304h-148l40 546h66l17 -44c47 22 85 55 161 55c125 0 193 -90 203 -234zM265 -160l16 111h95v-111h-111z" />
    <glyph glyph-name="uni01F9" unicode="&#x1f9;" horiz-adv-x="669" 
d="M285 600l-116 112h79l171 -127zM567 323l22 -323h-139l11 329c3 97 -27 143 -107 143c-110 0 -144 -78 -140 -168l14 -304h-148l40 546h66l17 -44c47 22 85 55 161 55c125 0 193 -90 203 -234z" />
    <glyph glyph-name="eng" unicode="&#x14b;" horiz-adv-x="669" 
d="M589 0h-1c-1 -83 -15 -117 -31 -132c-25 -24 -193 -36 -234 -22c3 9 17 62 20 73h46c61 0 61 19 61 91v2l11 317c3 97 -27 143 -107 143c-110 0 -144 -78 -140 -168l14 -304h-148l40 546h66l17 -44c47 22 85 55 161 55c125 0 193 -90 203 -234l19 -281c1 -1 1 -2 1 -3
v-16z" />
    <glyph glyph-name="uni0272" unicode="&#x272;" horiz-adv-x="751" 
d="M532 0l11 329c3 97 -27 143 -107 143c-110 0 -144 -78 -140 -168l14 -304h-16c0 -145 0 -198 -47 -198h-167v108c76 0 77 11 77 90h5l40 546h66l17 -44c47 22 85 55 161 55c125 0 193 -90 203 -234l22 -323h-139z" />
    <glyph glyph-name="uni0273" unicode="&#x273;" horiz-adv-x="741" 
d="M584 0c0 -76 2 -87 77 -87v-108h-167c-47 0 -47 53 -47 198h3l11 326c3 97 -27 143 -107 143c-110 0 -144 -78 -140 -168l14 -304h-148l40 546h66l17 -44c47 22 85 55 161 55c125 0 193 -90 203 -234l22 -323h-5z" />
    <glyph glyph-name="uni01CC" unicode="&#x1cc;" horiz-adv-x="669" 
d="M751 633l16 111h95v-111h-111zM567 323l22 -323h-139l11 329c3 97 -27 143 -107 143c-110 0 -144 -78 -140 -168l14 -304h-148l40 546h66l17 -44c47 22 85 55 161 55c125 0 193 -90 203 -234zM741 -52c17 59 17 193 28 595h95l-30 -571c-6 -107 -22 -149 -57 -176
c-33 -26 -168 -46 -253 -29l46 94c50 -9 144 -4 171 87z" />
    <glyph glyph-name="uni1D70" unicode="&#x1d70;" horiz-adv-x="669" 
d="M684 344c-3 -107 -40 -138 -108 -147l13 -197h-139l7 196c-128 12 -173 91 -243 102l14 -298h-148l14 194h-107c14 89 37 129 118 144l15 208h66l17 -44c47 22 85 55 161 55c125 0 193 -90 203 -234l4 -54c14 19 7 47 9 75h104zM215 344c122 -6 167 -81 243 -97l3 82
c3 97 -27 143 -107 143c-93 0 -132 -56 -139 -128z" />
    <glyph glyph-name="ntilde" unicode="&#xf1;" horiz-adv-x="669" 
d="M214 615h-55c8 117 23 150 94 150c66 0 83 -100 127 -100c50 0 39 51 41 100h46c-2 -146 -32 -151 -86 -150c-72 1 -91 104 -128 105c-39 1 -39 -62 -39 -105zM567 323l22 -323h-139l11 329c3 97 -27 143 -107 143c-110 0 -144 -78 -140 -168l14 -304h-148l40 546h66
l17 -44c47 22 85 55 161 55c125 0 193 -90 203 -234z" />
    <glyph glyph-name="o" unicode="o" horiz-adv-x="662" 
d="M331 -13c-163 0 -261 117 -261 286c0 176 98 287 261 287c162 0 261 -111 261 -287c0 -169 -99 -286 -261 -286zM331 136c120 0 162 23 162 154c0 139 -62 182 -162 182s-162 -43 -162 -182c0 -131 42 -154 162 -154z" />
    <glyph glyph-name="oacute" unicode="&#xf3;" horiz-adv-x="662" 
d="M592 273c0 -160 -89 -273 -235 -285l-51 -153h-76l76 153c-148 12 -236 125 -236 285c0 176 98 287 261 287c162 0 261 -111 261 -287zM331 136c120 0 162 23 162 154c0 139 -62 182 -162 182s-162 -43 -162 -182c0 -131 42 -154 162 -154z" />
    <glyph glyph-name="uni0275" unicode="&#x275;" horiz-adv-x="652" 
d="M331 560c162 0 261 -111 261 -287c0 -169 -99 -286 -261 -286c-163 0 -261 117 -261 286c0 176 98 287 261 287zM331 472c-92 0 -152 -37 -161 -152l303 17l20 -47c0 139 -62 182 -162 182zM331 136c117 0 160 22 162 144l-324 -11c5 -113 49 -133 162 -133z" />
    <glyph glyph-name="obreve" unicode="&#x14f;" horiz-adv-x="662" 
d="M326 628c-107 0 -192 74 -192 197h65c0 -88 48 -102 127 -102c93 0 136 15 136 102h65c0 -123 -95 -197 -201 -197zM331 560c162 0 261 -111 261 -287c0 -169 -99 -286 -261 -286c-163 0 -261 117 -261 286c0 176 98 287 261 287zM331 136c120 0 162 23 162 154
c0 139 -62 182 -162 182s-162 -43 -162 -182c0 -131 42 -154 162 -154z" />
    <glyph glyph-name="uni01D2" unicode="&#x1d2;" horiz-adv-x="662" 
d="M308 649l-44 64l-133 131h54l143 -99l145 99h54l-132 -131l-39 -64h-48zM331 -13c-163 0 -261 117 -261 286c0 176 98 287 261 287c162 0 261 -111 261 -287c0 -169 -99 -286 -261 -286zM331 136c120 0 162 23 162 154c0 139 -62 182 -162 182s-162 -43 -162 -182
c0 -131 42 -154 162 -154z" />
    <glyph glyph-name="ocircumflex" unicode="&#xf4;" horiz-adv-x="662" 
d="M311 787h48l39 -64l132 -131h-54l-145 99l-143 -99h-54l133 131zM331 -13c-163 0 -261 117 -261 286c0 176 98 287 261 287c162 0 261 -111 261 -287c0 -169 -99 -286 -261 -286zM331 136c120 0 162 23 162 154c0 139 -62 182 -162 182s-162 -43 -162 -182
c0 -131 42 -154 162 -154z" />
    <glyph glyph-name="uni1ED1" unicode="&#x1ed1;" horiz-adv-x="662" 
d="M569 859h51l-51 -154h-76zM307 828h48l39 -64l132 -131h-54l-145 99l-143 -99h-54l133 131zM331 -13c-163 0 -261 117 -261 286c0 176 98 287 261 287c162 0 261 -111 261 -287c0 -169 -99 -286 -261 -286zM331 136c120 0 162 23 162 154c0 139 -62 182 -162 182
s-162 -43 -162 -182c0 -131 42 -154 162 -154z" />
    <glyph glyph-name="uni1ED9" unicode="&#x1ed9;" horiz-adv-x="662" 
d="M307 828h48l39 -64l132 -131h-54l-145 99l-143 -99h-54l133 131zM331 -13c-163 0 -261 117 -261 286c0 176 98 287 261 287c162 0 261 -111 261 -287c0 -169 -99 -286 -261 -286zM331 136c120 0 162 23 162 154c0 139 -62 182 -162 182s-162 -43 -162 -182
c0 -131 42 -154 162 -154zM281 -177l16 111h95v-111h-111z" />
    <glyph glyph-name="uni1ED3" unicode="&#x1ed3;" horiz-adv-x="662" 
d="M555 745l-116 112h79l171 -127zM307 828h48l39 -64l132 -131h-54l-145 99l-143 -99h-54l133 131zM331 -13c-163 0 -261 117 -261 286c0 176 98 287 261 287c162 0 261 -111 261 -287c0 -169 -99 -286 -261 -286zM331 136c120 0 162 23 162 154c0 139 -62 182 -162 182
s-162 -43 -162 -182c0 -131 42 -154 162 -154z" />
    <glyph glyph-name="uni1ED5" unicode="&#x1ed5;" horiz-adv-x="662" 
d="M420 883v-21c16 8 30 13 45 13c23 0 32 -8 32 -14s-4 -12 -11 -17l-11 -9c-8 -6 -13 -10 -16 -15c-2 -4 -3 -10 -3 -16v-3h28c0 5 1 9 2 12c1 1 3 4 9 8l11 7c15 10 21 21 21 31s-6 20 -16 26s-23 10 -40 10c-16 0 -33 -4 -51 -12zM312 840h48l39 -64l132 -131h-54
l-145 99l-143 -99h-54l133 131zM331 -13c-163 0 -261 117 -261 286c0 176 98 287 261 287c162 0 261 -111 261 -287c0 -169 -99 -286 -261 -286zM331 136c120 0 162 23 162 154c0 139 -62 182 -162 182s-162 -43 -162 -182c0 -131 42 -154 162 -154z" />
    <glyph glyph-name="uni1ED7" unicode="&#x1ed7;" horiz-adv-x="662" 
d="M246 876h-55c8 117 23 150 94 150c66 0 83 -100 127 -100c50 0 39 51 41 100h46c-2 -146 -32 -151 -86 -150c-72 1 -91 104 -128 105c-39 1 -39 -62 -39 -105zM312 841h48l39 -64l132 -131h-54l-145 99l-143 -99h-54l133 131zM331 -13c-163 0 -261 117 -261 286
c0 176 98 287 261 287c162 0 261 -111 261 -287c0 -169 -99 -286 -261 -286zM331 136c120 0 162 23 162 154c0 139 -62 182 -162 182s-162 -43 -162 -182c0 -131 42 -154 162 -154z" />
    <glyph glyph-name="odieresis" unicode="&#xf6;" horiz-adv-x="662" 
d="M140 583l16 111h95v-111h-111zM412 583l16 111h95v-111h-111zM331 -13c-163 0 -261 117 -261 286c0 176 98 287 261 287c162 0 261 -111 261 -287c0 -169 -99 -286 -261 -286zM331 136c120 0 162 23 162 154c0 139 -62 182 -162 182s-162 -43 -162 -182
c0 -131 42 -154 162 -154z" />
    <glyph glyph-name="uni022B" unicode="&#x22b;" horiz-adv-x="662" 
d="M141 823l386 24l29 -77l-446 -17zM140 570l16 111h95v-111h-111zM412 570l16 111h95v-111h-111zM331 -13c-163 0 -261 117 -261 286c0 176 98 287 261 287c162 0 261 -111 261 -287c0 -169 -99 -286 -261 -286zM331 136c120 0 162 23 162 154c0 139 -62 182 -162 182
s-162 -43 -162 -182c0 -131 42 -154 162 -154z" />
    <glyph glyph-name="uni1ECD" unicode="&#x1ecd;" horiz-adv-x="662" 
d="M331 -13c-163 0 -261 117 -261 286c0 176 98 287 261 287c162 0 261 -111 261 -287c0 -169 -99 -286 -261 -286zM331 136c120 0 162 23 162 154c0 139 -62 182 -162 182s-162 -43 -162 -182c0 -131 42 -154 162 -154zM281 -177l16 111h95v-111h-111z" />
    <glyph glyph-name="ograve" unicode="&#xf2;" horiz-adv-x="662" 
d="M277 656l-116 112h79l171 -127zM331 -13c-163 0 -261 117 -261 286c0 176 98 287 261 287c162 0 261 -111 261 -287c0 -169 -99 -286 -261 -286zM331 136c120 0 162 23 162 154c0 139 -62 182 -162 182s-162 -43 -162 -182c0 -131 42 -154 162 -154z" />
    <glyph glyph-name="uni1ECF" unicode="&#x1ecf;" horiz-adv-x="662" 
d="M280 677v-21c16 8 30 13 45 13c23 0 32 -8 32 -14s-4 -12 -11 -17l-11 -9c-8 -6 -13 -10 -16 -15c-2 -4 -3 -10 -3 -16v-3h28c0 5 1 9 2 12c1 1 3 4 9 8l11 7c15 10 21 21 21 31s-6 20 -16 26s-23 10 -40 10c-16 0 -33 -4 -51 -12zM331 -13c-163 0 -261 117 -261 286
c0 176 98 287 261 287c162 0 261 -111 261 -287c0 -169 -99 -286 -261 -286zM331 136c120 0 162 23 162 154c0 139 -62 182 -162 182s-162 -43 -162 -182c0 -131 42 -154 162 -154z" />
    <glyph glyph-name="ohorn" unicode="&#x1a1;" horiz-adv-x="662" 
d="M576 430l-13 -11c19 -41 29 -90 29 -146c0 -169 -99 -286 -261 -286c-163 0 -261 117 -261 286c0 176 98 287 261 287c92 0 164 -36 208 -99c4 2 8 5 12 8c22 20 20 66 20 83c0 11 -3 20 -7 30l48 -6c3 -12 5 -23 5 -32c0 -39 -11 -87 -41 -114zM331 136
c120 0 162 23 162 154c0 139 -62 182 -162 182s-162 -43 -162 -182c0 -131 42 -154 162 -154z" />
    <glyph glyph-name="uni1EDB" unicode="&#x1edb;" horiz-adv-x="662" 
d="M401 812l-51 -154h-76l76 154h51zM576 430l-13 -11c19 -41 29 -90 29 -146c0 -169 -99 -286 -261 -286c-163 0 -261 117 -261 286c0 176 98 287 261 287c92 0 164 -36 208 -99c4 2 8 5 12 8c22 20 20 66 20 83c0 11 -3 20 -7 30l48 -6c3 -12 5 -23 5 -32
c0 -39 -11 -87 -41 -114zM331 136c120 0 162 23 162 154c0 139 -62 182 -162 182s-162 -43 -162 -182c0 -131 42 -154 162 -154z" />
    <glyph glyph-name="uni1EE3" unicode="&#x1ee3;" horiz-adv-x="662" 
d="M576 430l-13 -11c19 -41 29 -90 29 -146c0 -169 -99 -286 -261 -286c-163 0 -261 117 -261 286c0 176 98 287 261 287c92 0 164 -36 208 -99c4 2 8 5 12 8c22 20 20 66 20 83c0 11 -3 20 -7 30l48 -6c3 -12 5 -23 5 -32c0 -39 -11 -87 -41 -114zM331 136
c120 0 162 23 162 154c0 139 -62 182 -162 182s-162 -43 -162 -182c0 -131 42 -154 162 -154zM281 -177l16 111h95v-111h-111z" />
    <glyph glyph-name="uni1EDD" unicode="&#x1edd;" horiz-adv-x="662" 
d="M435 599l-134 15l-116 112h79zM576 430l-13 -11c19 -41 29 -90 29 -146c0 -169 -99 -286 -261 -286c-163 0 -261 117 -261 286c0 176 98 287 261 287c92 0 164 -36 208 -99c4 2 8 5 12 8c22 20 20 66 20 83c0 11 -3 20 -7 30l48 -6c3 -12 5 -23 5 -32
c0 -39 -11 -87 -41 -114zM331 136c120 0 162 23 162 154c0 139 -62 182 -162 182s-162 -43 -162 -182c0 -131 42 -154 162 -154z" />
    <glyph glyph-name="uni1EDF" unicode="&#x1edf;" horiz-adv-x="662" 
d="M357 655c0 6 -9 14 -32 14c-15 0 -29 -5 -45 -13v21c18 8 35 12 51 12c17 0 30 -4 40 -10s16 -16 16 -26s-6 -21 -21 -31l-11 -7c-6 -4 -8 -7 -9 -8c-1 -3 -2 -7 -2 -12h-28v3c0 6 1 12 3 16c3 5 8 9 16 15l11 9c7 5 11 11 11 17zM576 430l-13 -11c19 -41 29 -90 29 -146
c0 -169 -99 -286 -261 -286c-163 0 -261 117 -261 286c0 176 98 287 261 287c92 0 164 -36 208 -99c4 2 8 5 12 8c22 20 20 66 20 83c0 11 -3 20 -7 30l48 -6c3 -12 5 -23 5 -32c0 -39 -11 -87 -41 -114zM331 136c120 0 162 23 162 154c0 139 -62 182 -162 182
s-162 -43 -162 -182c0 -131 42 -154 162 -154z" />
    <glyph glyph-name="uni1EE1" unicode="&#x1ee1;" horiz-adv-x="662" 
d="M268 716c-39 1 -39 -62 -39 -105h-55c8 117 23 150 94 150c66 0 83 -100 127 -100c50 0 39 51 41 100h46c-2 -146 -32 -151 -86 -150c-72 1 -91 104 -128 105zM576 430l-13 -11c19 -41 29 -90 29 -146c0 -169 -99 -286 -261 -286c-163 0 -261 117 -261 286
c0 176 98 287 261 287c92 0 164 -36 208 -99c4 2 8 5 12 8c22 20 20 66 20 83c0 11 -3 20 -7 30l48 -6c3 -12 5 -23 5 -32c0 -39 -11 -87 -41 -114zM331 136c120 0 162 23 162 154c0 139 -62 182 -162 182s-162 -43 -162 -182c0 -131 42 -154 162 -154z" />
    <glyph glyph-name="ohungarumlaut" unicode="&#x151;" horiz-adv-x="662" 
d="M271 621l-134 -15l171 127h79zM454 621l-134 -15l171 127h79zM331 -13c-163 0 -261 117 -261 286c0 176 98 287 261 287c162 0 261 -111 261 -287c0 -169 -99 -286 -261 -286zM331 136c120 0 162 23 162 154c0 139 -62 182 -162 182s-162 -43 -162 -182
c0 -131 42 -154 162 -154z" />
    <glyph glyph-name="omacron" unicode="&#x14d;" horiz-adv-x="662" 
d="M139 731l386 24l29 -77l-446 -17zM331 -13c-163 0 -261 117 -261 286c0 176 98 287 261 287c162 0 261 -111 261 -287c0 -169 -99 -286 -261 -286zM331 136c120 0 162 23 162 154c0 139 -62 182 -162 182s-162 -43 -162 -182c0 -131 42 -154 162 -154z" />
    <glyph glyph-name="uni1E53" unicode="&#x1e53;" horiz-adv-x="662" 
d="M351 1007h51l-51 -154h-76zM139 731l386 24l29 -77l-446 -17zM331 -13c-163 0 -261 117 -261 286c0 176 98 287 261 287c162 0 261 -111 261 -287c0 -169 -99 -286 -261 -286zM331 136c120 0 162 23 162 154c0 139 -62 182 -162 182s-162 -43 -162 -182
c0 -131 42 -154 162 -154z" />
    <glyph glyph-name="uni1E51" unicode="&#x1e51;" horiz-adv-x="662" 
d="M302 809l-116 112h79l171 -127zM139 731l386 24l29 -77l-446 -17zM331 -13c-163 0 -261 117 -261 286c0 176 98 287 261 287c162 0 261 -111 261 -287c0 -169 -99 -286 -261 -286zM331 136c120 0 162 23 162 154c0 139 -62 182 -162 182s-162 -43 -162 -182
c0 -131 42 -154 162 -154z" />
    <glyph glyph-name="uni0254" unicode="&#x254;" horiz-adv-x="593" 
d="M149 12v81c32 -10 77 -15 105 -15c97 1 159 60 159 209c-10 130 -141 199 -246 147l-94 102c47 28 110 35 171 31c207 -14 270 -104 270 -280c0 -198 -71 -283 -240 -287c-48 -1 -104 5 -125 12z" />
    <glyph glyph-name="oslash" unicode="&#xf8;" horiz-adv-x="662" 
d="M436 542c99 -39 156 -135 156 -269c0 -169 -99 -286 -261 -286c-15 0 -30 1 -43 3l-9 -32l-142 -104l53 170c-77 48 -120 137 -120 249c0 176 98 287 261 287c9 0 17 0 25 -1l37 118l92 47zM169 290c0 -83 17 -123 60 -141l100 323c-99 -1 -160 -44 -160 -182zM331 136
c120 0 162 23 162 154c0 95 -29 145 -80 168l-86 -322h4z" />
    <glyph glyph-name="oslashacute" unicode="&#x1ff;" horiz-adv-x="662" 
d="M401 812l-51 -154h-76l76 154h51zM436 542c99 -39 156 -135 156 -269c0 -169 -99 -286 -261 -286c-15 0 -30 1 -43 3l-9 -32l-142 -104l53 170c-77 48 -120 137 -120 249c0 176 98 287 261 287c9 0 17 0 25 -1l37 118l92 47zM169 290c0 -83 17 -123 60 -141l100 323
c-99 -1 -160 -44 -160 -182zM331 136c120 0 162 23 162 154c0 95 -29 145 -80 168l-86 -322h4z" />
    <glyph glyph-name="otilde" unicode="&#xf5;" horiz-adv-x="662" 
d="M230 629h-55c8 117 23 150 94 150c66 0 83 -100 127 -100c50 0 39 51 41 100h46c-2 -146 -32 -151 -86 -150c-72 1 -91 104 -128 105c-39 1 -39 -62 -39 -105zM331 -13c-163 0 -261 117 -261 286c0 176 98 287 261 287c162 0 261 -111 261 -287
c0 -169 -99 -286 -261 -286zM331 136c120 0 162 23 162 154c0 139 -62 182 -162 182s-162 -43 -162 -182c0 -131 42 -154 162 -154z" />
    <glyph glyph-name="uni1E4D" unicode="&#x1e4d;" horiz-adv-x="662" 
d="M421 974h51l-51 -154h-76zM229 611h-55c8 117 23 150 94 150c66 0 83 -100 127 -100c50 0 39 51 41 100h46c-2 -146 -32 -151 -86 -150c-72 1 -91 104 -128 105c-39 1 -39 -62 -39 -105zM331 -13c-163 0 -261 117 -261 286c0 176 98 287 261 287c162 0 261 -111 261 -287
c0 -169 -99 -286 -261 -286zM331 136c120 0 162 23 162 154c0 139 -62 182 -162 182s-162 -43 -162 -182c0 -131 42 -154 162 -154z" />
    <glyph glyph-name="oe" unicode="&#x153;" horiz-adv-x="1070" 
d="M783 119c74 -8 121 0 198 33v-124c-65 -28 -130 -42 -201 -42c-103 0 -187 38 -239 105c-44 -65 -117 -104 -210 -104c-163 0 -261 117 -261 286c0 176 98 287 261 287c93 0 166 -37 211 -102c48 75 125 122 223 122c112 -9 213 -84 245 -265l-418 -27v-15
c0 -17 -1 -34 -3 -49c25 -58 88 -94 194 -105zM765 513c-102 -7 -175 -83 -175 -149l320 31c-10 61 -41 125 -145 118zM331 136c98 0 144 15 157 91c-1 13 -2 27 -2 41c1 19 3 38 6 56c-10 112 -70 148 -161 148c-100 0 -162 -43 -162 -182c0 -131 42 -154 162 -154z" />
    <glyph glyph-name="p" unicode="p" horiz-adv-x="731" 
d="M252 82l-43 -286l-129 -8l80 449l-16 295h90l18 -75c37 65 95 98 175 96c133 -4 224 -105 224 -270c0 -157 -66 -298 -224 -298c-80 0 -148 32 -175 97zM563 302c-4 106 -40 171 -123 171s-162 -65 -162 -171s72 -168 167 -168s122 62 118 168z" />
    <glyph glyph-name="uni1E57" unicode="&#x1e57;" horiz-adv-x="731" 
d="M306 581l16 111h95v-111h-111zM252 82l-43 -286l-129 -8l80 449l-16 295h90l18 -75c37 65 95 98 175 96c133 -4 224 -105 224 -270c0 -157 -66 -298 -224 -298c-80 0 -148 32 -175 97zM563 302c-4 106 -40 171 -123 171s-162 -65 -162 -171s72 -168 167 -168
s122 62 118 168z" />
    <glyph glyph-name="uni0278" unicode="&#x278;" horiz-adv-x="835" 
d="M437 752c194 -7 324 -116 318 -378c-6 -259 -83 -389 -335 -388l-5 -228h-70l5 233c-186 24 -270 150 -270 383c0 238 111 357 287 375l4 198h70zM424 173c140 1 227 42 227 191c0 146 -83 295 -216 307zM184 364c0 -127 64 -176 170 -188l11 488
c-112 -33 -181 -168 -181 -300z" />
    <glyph glyph-name="uni01A5" unicode="&#x1a5;" horiz-adv-x="731" 
d="M427 553c133 -4 224 -105 224 -270c0 -157 -66 -298 -224 -298c-80 0 -148 32 -175 97l-43 -286l-129 -8l64 359v388c0 14 0 21 2 50c4 112 30 118 166 117v-85c-73 0 -77 -3 -77 -51v-31v-7l17 -71c37 65 95 98 175 96zM445 134c95 0 122 62 118 168s-40 171 -123 171
s-162 -65 -162 -171s72 -168 167 -168z" />
    <glyph glyph-name="thorn" unicode="&#xfe;" horiz-adv-x="560" 
d="M171 636c141 -7 312 -107 309 -265c-4 -205 -161 -307 -300 -320l4 -231h-88l-16 980h88zM409 375c2 85 -154 184 -206 184c-11 0 -21 -4 -31 -12l7 -403c8 -5 16 -7 24 -7c52 0 203 98 206 238z" />
    <glyph glyph-name="uni1D71" unicode="&#x1d71;" horiz-adv-x="731" 
d="M427 553c133 -4 224 -105 224 -270c0 -157 -66 -298 -224 -298c-80 0 -148 32 -175 97l-31 -203c3 -1 5 -1 7 -1c50 0 39 51 41 100h46c-2 -146 -32 -151 -86 -150c-5 0 -10 1 -15 2l-5 -34l-129 -8l26 144c-2 1 -3 1 -5 1c-39 1 -39 -62 -39 -105h-55
c8 117 23 150 94 150c4 0 9 0 13 -1l46 260l-16 295h90l18 -75c37 65 95 98 175 96zM445 134c95 0 122 62 118 168s-40 171 -123 171s-162 -65 -162 -171s72 -168 167 -168z" />
    <glyph glyph-name="q" unicode="q" horiz-adv-x="770" 
d="M452 -208l27 290c-38 -65 -95 -100 -175 -96c-132 7 -235 116 -235 288s100 265 232 283c96 13 139 -25 193 -110v100h107l-35 -361l-12 -256l70 20l86 30l-26 -120zM290 127c95 0 144 46 156 159c12 112 -31 196 -126 196c-96 0 -148 -84 -160 -196
c-12 -113 35 -159 130 -159z" />
    <glyph glyph-name="uni02A0" unicode="&#x2a0;" horiz-adv-x="760" 
d="M624 -50l86 30l-26 -120l-232 -68l27 290c-38 -65 -95 -100 -175 -96c-132 7 -235 116 -235 288s100 265 232 283c88 12 132 -19 180 -91l12 108v2l6 51l7 50c17 111 43 114 174 100l-10 -84c-70 7 -74 4 -79 -44l-4 -30c-1 -18 -3 -35 -5 -54l-2 -18h21l-35 -361
l-12 -256zM446 286c12 112 -31 196 -126 196c-96 0 -148 -84 -160 -196c-12 -113 35 -159 130 -159s144 46 156 159z" />
    <glyph glyph-name="uni024B" unicode="&#x24b;" horiz-adv-x="874" 
d="M718 -92c33 -40 48 -60 76 -104c-110 -69 -266 -72 -309 -4c-11 19 -3 92 -20 120l8 43l-5 -2l-16 -169l27 290c-38 -65 -95 -100 -175 -96c-132 7 -235 116 -235 288s100 265 232 283c96 13 139 -25 193 -110v100h107l-35 -361l-11 -232l12 -15l-13 -3v-6l16 5l1 -1
c30 -33 70 -53 115 -41l4 80l20 7l-18 -85c8 3 17 7 26 13zM446 286c12 112 -31 196 -126 196c-96 0 -148 -84 -160 -196c-12 -113 35 -159 130 -159s144 46 156 159zM624 -50l-54 -15l-3 4l37 11l86 30v-7z" />
    <glyph glyph-name="r" unicode="r" horiz-adv-x="512" 
d="M418 549l15 -126c-177 37 -195 -40 -195 -137c0 -58 -6 -123 23 -287h-181c41 196 46 318 46 546h93v-59c55 42 83 57 199 63z" />
    <glyph glyph-name="racute" unicode="&#x155;" horiz-adv-x="512" 
d="M240 760h51l-51 -154h-76zM418 549l15 -126c-177 37 -195 -40 -195 -137c0 -58 -6 -123 23 -287h-181c41 196 46 318 46 546h93v-59c55 42 83 57 199 63z" />
    <glyph glyph-name="uni0264" unicode="&#x264;" horiz-adv-x="696" 
d="M489 513c122 2 127 -116 127 -174h-65c-4 58 -19 114 -62 114c-42 0 -67 -50 -97 -126c10 -19 19 -39 29 -59c47 -96 86 -166 51 -217c-35 -50 -87 -59 -130 -59c-60 0 -84 8 -118 59c-30 45 15 127 64 244c8 20 16 38 23 55c-23 59 -48 98 -85 98
c-76 0 -84 -26 -84 -109h-62c0 83 0 172 143 172c48 0 85 -37 119 -90c30 57 67 91 147 92zM342 57c64 0 41 60 9 167c-45 -109 -61 -167 -9 -167z" />
    <glyph glyph-name="rcaron" unicode="&#x159;" horiz-adv-x="512" 
d="M198 597l-44 64l-133 131h54l143 -99l145 99h54l-132 -131l-39 -64h-48zM418 549l15 -126c-177 37 -195 -40 -195 -137c0 -58 -6 -123 23 -287h-181c41 196 46 318 46 546h93v-59c55 42 83 57 199 63z" />
    <glyph glyph-name="uni0157" unicode="&#x157;" horiz-adv-x="512" 
d="M257 592h-105l51 142h-15l11 95h124zM418 549l15 -126c-177 37 -195 -40 -195 -137c0 -58 -6 -123 23 -287h-181c41 196 46 318 46 546h93v-59c55 42 83 57 199 63z" />
    <glyph glyph-name="uni1E5B" unicode="&#x1e5b;" horiz-adv-x="512" 
d="M418 549l15 -126c-177 37 -195 -40 -195 -137c0 -58 -6 -123 23 -287h-181c41 196 46 318 46 546h93v-59c55 42 83 57 199 63zM116 -160l16 111h95v-111h-111z" />
    <glyph glyph-name="uni027E" unicode="&#x27e;" horiz-adv-x="316" 
d="M82 449c4 112 28 118 154 117v-85c-68 0 -71 -3 -71 -51v-31v-54v-341h-85v395c0 14 1 21 2 50z" />
    <glyph glyph-name="uni1D73" unicode="&#x1d73;" horiz-adv-x="316" 
d="M232 374h46c-2 -146 -32 -151 -86 -150c-10 0 -19 2 -27 6v-226h-85v318c-5 4 -10 7 -16 7c-39 1 -39 -62 -39 -105h-55c8 117 23 150 94 150c6 0 11 -1 16 -2v27c0 14 1 21 2 50c4 112 28 118 154 117v-85c-68 0 -71 -3 -71 -51v-31v-54v-59c8 -7 16 -12 26 -12
c50 0 39 51 41 100z" />
    <glyph glyph-name="uni027D" unicode="&#x27d;" horiz-adv-x="512" 
d="M433 423c-177 37 -195 -40 -195 -137c0 -58 -6 -123 23 -287h-6c18 -20 44 -33 81 -33c6 -52 8 -76 9 -129c-130 0 -264 81 -264 161v1h-1c41 196 46 318 46 546h93v-59c55 42 83 57 199 63z" />
    <glyph glyph-name="uni027B" unicode="&#x27b;" horiz-adv-x="512" 
d="M469 -76c6 -52 8 -76 9 -129c-130 0 -191 114 -191 205v69c-51 -38 -81 -52 -193 -58l-15 126c177 -37 195 40 195 137c0 58 6 123 -23 287h181c-41 -196 -46 -318 -46 -546h-26c11 -50 44 -91 109 -91z" />
    <glyph glyph-name="uni027A" unicode="&#x27a;" horiz-adv-x="529" 
d="M429 561h3c-2 -8 -3 -16 -5 -24l-3 -37h-4c-30 -163 -34 -282 -34 -485h-93v59c-55 -42 -83 -57 -199 -63l-15 126c177 -37 195 40 195 137c0 50 4 106 -13 226h-5l-32 300h225z" />
    <glyph glyph-name="uni1D72" unicode="&#x1d72;" horiz-adv-x="512" 
d="M433 423c-177 37 -195 -40 -195 -137v-37c42 5 32 53 34 100h46c-2 -141 -30 -150 -80 -150c1 -46 7 -107 23 -200h-181c23 112 35 200 41 297c-6 5 -11 8 -17 8c-39 1 -39 -62 -39 -105h-55c8 117 23 150 94 150c7 0 13 -1 19 -3c2 59 3 123 3 199h93v-59
c55 42 83 57 199 63z" />
    <glyph glyph-name="uni0279" unicode="&#x279;" horiz-adv-x="512" 
d="M94 11l-15 126c177 -37 195 40 195 137c0 58 6 123 -23 287h181c-41 -196 -46 -318 -46 -546h-93v59c-55 -42 -83 -57 -199 -63z" />
    <glyph glyph-name="s" unicode="s" horiz-adv-x="629" 
d="M509 549l-46 -60c-62 8 -85 6 -120 8c-129 0 -145 -37 -144 -82c1 -32 67 -62 154 -89c165 -51 194 -93 194 -171c0 -138 -77 -169 -228 -169c-183 0 -195 30 -239 63l98 111c58 -22 82 -28 143 -33c35 -3 101 -7 101 50c0 32 -61 52 -131 66c-45 7 -167 37 -167 168
c0 73 35 162 208 162c67 0 127 -13 177 -24z" />
    <glyph glyph-name="sacute" unicode="&#x15b;" horiz-adv-x="629" 
d="M347 760h51l-51 -154h-76zM509 549l-46 -60c-62 8 -85 6 -120 8c-129 0 -145 -37 -144 -82c1 -32 67 -62 154 -89c165 -51 194 -93 194 -171c0 -138 -77 -169 -228 -169c-183 0 -195 30 -239 63l98 111c58 -22 82 -28 143 -33c35 -3 101 -7 101 50c0 32 -61 52 -131 66
c-45 7 -167 37 -167 168c0 73 35 162 208 162c67 0 127 -13 177 -24z" />
    <glyph glyph-name="uniA78C" unicode="&#xa78c;" horiz-adv-x="281" 
d="M80 758h121l-38 -422h-47z" />
    <glyph glyph-name="scaron" unicode="&#x161;" horiz-adv-x="760" 
d="M356 775l-44 64l-133 131h54l143 -99l145 99h54l-132 -131l-39 -64h-48zM591 741l-15 -105c-50 5 -53 23 -152 16c-106 -8 -187 -36 -193 -113c-5 -64 48 -72 135 -90l59 -12c150 -30 289 -111 289 -230c0 -120 -118 -221 -353 -221c-129 0 -222 -8 -306 51l107 150
c38 -29 176 -29 231 -29c50 0 119 -3 121 70c1 47 -29 77 -118 95l-60 12c-147 29 -209 88 -209 199c0 129 72 225 256 225c38 0 144 -4 208 -18z" />
    <glyph glyph-name="scedilla" unicode="&#x15f;" horiz-adv-x="629" 
d="M319 -14l-20 -54h31c39 0 100 -16 90 -76c-8 -49 -47 -78 -104 -78h-62l11 53c23 -5 31 -5 53 -5c36 0 65 19 65 35c0 44 -38 46 -63 46c-17 0 -37 -2 -61 -5l28 84c-153 4 -166 32 -207 63l98 111c58 -22 82 -28 143 -33c35 -3 101 -7 101 50c0 32 -61 52 -131 66
c-45 7 -167 37 -167 168c0 73 35 162 208 162c67 0 127 -13 177 -24l-46 -60c-62 8 -85 6 -120 8c-129 0 -145 -37 -144 -82c1 -32 67 -62 154 -89c165 -51 194 -93 194 -171c0 -138 -77 -169 -228 -169z" />
    <glyph glyph-name="scircumflex" unicode="&#x15d;" horiz-adv-x="629" 
d="M304 776h48l39 -64l132 -131h-54l-145 99l-143 -99h-54l133 131zM509 549l-46 -60c-62 8 -85 6 -120 8c-129 0 -145 -37 -144 -82c1 -32 67 -62 154 -89c165 -51 194 -93 194 -171c0 -138 -77 -169 -228 -169c-183 0 -195 30 -239 63l98 111c58 -22 82 -28 143 -33
c35 -3 101 -7 101 50c0 32 -61 52 -131 66c-45 7 -167 37 -167 168c0 73 35 162 208 162c67 0 127 -13 177 -24z" />
    <glyph glyph-name="uni0219" unicode="&#x219;" horiz-adv-x="629" 
d="M364 592h-105l51 142h-15l11 95h124zM353 326c165 -51 194 -93 194 -171c0 -138 -77 -169 -228 -169c-183 0 -195 30 -239 63l98 111c58 -22 82 -28 143 -33c35 -3 101 -7 101 50c0 32 -61 52 -131 66c-45 7 -167 37 -167 168c0 73 35 162 208 162c67 0 127 -13 177 -24
l-46 -60c-62 8 -85 6 -120 8c-129 0 -145 -37 -144 -82c1 -32 67 -62 154 -89z" />
    <glyph glyph-name="uni1E61" unicode="&#x1e61;" horiz-adv-x="629" 
d="M268 628l16 111h95v-111h-111zM509 549l-46 -60c-62 8 -85 6 -120 8c-129 0 -145 -37 -144 -82c1 -32 67 -62 154 -89c165 -51 194 -93 194 -171c0 -138 -77 -169 -228 -169c-183 0 -195 30 -239 63l98 111c58 -22 82 -28 143 -33c35 -3 101 -7 101 50
c0 32 -61 52 -131 66c-45 7 -167 37 -167 168c0 73 35 162 208 162c67 0 127 -13 177 -24z" />
    <glyph glyph-name="uni1E63" unicode="&#x1e63;" horiz-adv-x="629" 
d="M509 549l-46 -60c-62 8 -85 6 -120 8c-129 0 -145 -37 -144 -82c1 -32 67 -62 154 -89c165 -51 194 -93 194 -171c0 -138 -77 -169 -228 -169c-183 0 -195 30 -239 63l98 111c58 -22 82 -28 143 -33c35 -3 101 -7 101 50c0 32 -61 52 -131 66c-45 7 -167 37 -167 168
c0 73 35 162 208 162c67 0 127 -13 177 -24zM263 -148l16 111h95v-111h-111z" />
    <glyph glyph-name="germandbls" unicode="&#xdf;" horiz-adv-x="682" 
d="M80 0l29 555c0 131 81 205 223 205c136 0 210 -77 210 -223c-98 -5 -155 -44 -155 -107c0 -31 17 -55 60 -83l28 -18c107 -69 127 -105 127 -170c0 -112 -75 -173 -212 -173c-42 0 -86 8 -134 24v119c53 -20 97 -29 139 -29c76 0 116 22 116 62c0 14 -5 27 -14 41
c-10 14 -32 31 -64 51l-40 27c-30 38 -65 85 -65 139c0 82 29 141 160 160c-51 119 -84 125 -158 125c-84 0 -126 -40 -139 -152l24 -553h-135z" />
    <glyph glyph-name="uni0282" unicode="&#x282;" horiz-adv-x="629" 
d="M353 326c165 -51 194 -93 194 -171c0 -138 -77 -169 -228 -169c-91 0 -140 7 -172 19c1 -22 3 -45 6 -61c9 -39 42 -72 111 -72c6 -38 8 -55 9 -94c-130 0 -191 83 -191 149v120h1l-3 2l98 111c58 -22 82 -28 143 -33c35 -3 101 -7 101 50c0 32 -61 52 -131 66
c-45 7 -167 37 -167 168c0 73 35 162 208 162c67 0 127 -13 177 -24l-46 -60c-62 8 -85 6 -120 8c-129 0 -145 -37 -144 -82c1 -32 67 -62 154 -89z" />
    <glyph glyph-name="uni1D74" unicode="&#x1d74;" horiz-adv-x="629" 
d="M505 257c34 -28 42 -60 42 -102c0 -138 -77 -169 -228 -169c-183 0 -195 30 -239 63l98 111c58 -22 82 -28 143 -33c35 -3 101 -7 101 50c0 32 -61 52 -131 66c-21 3 -60 12 -95 34c-15 -14 -15 -38 -15 -56h-72c7 49 17 75 51 87c-21 25 -36 58 -36 103
c0 73 35 162 208 162c67 0 127 -13 177 -24l-46 -60c-62 8 -85 6 -120 8c-129 0 -145 -37 -144 -82c1 -32 67 -62 154 -89c42 -13 75 -25 101 -38c1 9 0 19 1 29h61c-1 -27 -5 -46 -11 -60z" />
    <glyph glyph-name="t" unicode="t" horiz-adv-x="566" 
d="M282 221c-4 -89 0 -87 159 -91l19 -128c-37 -2 -213 -2 -260 -2c-34 0 -38 43 -38 50c0 19 9 204 25 430h-127l29 67h103c3 43 6 86 10 130l104 60l-9 -190h151l18 -67h-172z" />
    <glyph glyph-name="tbar" unicode="&#x167;" horiz-adv-x="566" 
d="M282 221c-4 -89 0 -87 159 -91l19 -128c-37 -2 -213 -2 -260 -2c-34 0 -38 43 -38 50c0 13 5 110 13 245h-130v91h136l6 94h-127l29 67h103c3 43 6 86 10 130l104 60l-9 -190h151l18 -67h-172l-4 -94h146v-91h-151z" />
    <glyph glyph-name="tcaron" unicode="&#x165;" horiz-adv-x="566" 
d="M243 758l-44 64l-133 131h54l143 -99l145 99h54l-132 -131l-39 -64h-48zM282 221c-4 -89 0 -87 159 -91l19 -128c-37 -2 -213 -2 -260 -2c-34 0 -38 43 -38 50c0 19 9 204 25 430h-127l29 67h103c3 43 6 86 10 130l104 60l-9 -190h151l18 -67h-172z" />
    <glyph glyph-name="uni02A8" unicode="&#x2a8;" horiz-adv-x="566" 
d="M901 308c0 -84 -94 -166 -198 -190v-3c4 -65 8 -127 8 -190h-110v188c-172 15 -226 122 -226 285c0 29 3 57 9 82h-90l-12 -259c-4 -89 0 -87 159 -91l19 -128c-37 -2 -213 -2 -260 -2c-34 0 -38 43 -38 50c0 19 9 204 25 430h-127l29 67h103c3 43 6 86 10 130l104 60
l-9 -190h110c44 88 132 138 247 138c27 0 64 -5 85 -12v-71c-32 10 -77 12 -105 12c-117 0 -159 -83 -159 -216c1 -66 29 -164 126 -175v78c0 93 52 158 127 158c31 0 66 -11 102 -36c50 -35 71 -75 71 -115zM696 233c66 19 104 60 104 89c0 9 -3 17 -11 23
c-16 12 -32 19 -46 19c-27 0 -48 -26 -48 -87c0 -15 0 -30 1 -44z" />
    <glyph glyph-name="uni0163" unicode="&#x163;" horiz-adv-x="566" 
d="M460 2c-18 -1 -67 -1 -119 -2l-28 -77h31c39 0 100 -16 90 -76c-8 -49 -47 -78 -104 -78h-62l11 53c23 -5 31 -5 53 -5c36 0 65 19 65 35c0 44 -38 46 -63 46c-17 0 -37 -2 -61 -5l36 107h-109c-34 0 -38 43 -38 50c0 19 9 204 25 430h-127l29 67h103c3 43 6 86 10 130
l104 60l-9 -190h151l18 -67h-172l-12 -259c-4 -89 0 -87 159 -91z" />
    <glyph glyph-name="uni1E71" unicode="&#x1e71;" horiz-adv-x="566" 
d="M162 50c0 19 9 204 25 430h-127l29 67h103c3 43 6 86 10 130l104 60l-9 -190h151l18 -67h-172l-12 -259c-4 -89 0 -87 159 -91l19 -128c-37 -2 -213 -2 -260 -2c-34 0 -38 43 -38 50zM400 -150l132 -131h-54l-145 99l-143 -99h-54l133 131l44 64h48z" />
    <glyph glyph-name="uni021B" unicode="&#x21b;" horiz-adv-x="566" 
d="M302 753h-105l51 142h-15l11 95h124zM282 221c-4 -89 0 -87 159 -91l19 -128c-37 -2 -213 -2 -260 -2c-34 0 -38 43 -38 50c0 19 9 204 25 430h-127l29 67h103c3 43 6 86 10 130l104 60l-9 -190h151l18 -67h-172z" />
    <glyph glyph-name="uni1E6B" unicode="&#x1e6b;" horiz-adv-x="566" 
d="M317 900v-111h-111l16 111h95zM282 221c-4 -89 0 -87 159 -91l19 -128c-37 -2 -213 -2 -260 -2c-34 0 -38 43 -38 50c0 19 9 204 25 430h-127l29 67h103c3 43 6 86 10 130l104 60l-9 -190h151l18 -67h-172z" />
    <glyph glyph-name="uni1E6D" unicode="&#x1e6d;" horiz-adv-x="566" 
d="M282 221c-4 -89 0 -87 159 -91l19 -128c-37 -2 -213 -2 -260 -2c-34 0 -38 43 -38 50c0 19 9 204 25 430h-127l29 67h103c3 43 6 86 10 130l104 60l-9 -190h151l18 -67h-172zM277 -157l16 111h95v-111h-111z" />
    <glyph glyph-name="uni02A7" unicode="&#x2a7;" horiz-adv-x="921" 
d="M825 831l16 -68c-29 13 -55 16 -83 10c-62 -15 -90 -60 -85 -147l17 -235l22 -238c29 -324 -53 -335 -164 -361c-36 -8 -149 -5 -215 64l107 91c37 -13 70 -17 100 -10c61 14 83 61 81 171l-22 263l-14 233c-7 121 46 201 141 223c35 8 67 9 99 4zM427 130l14 -128
c-37 -2 -213 -2 -260 -2c-34 0 -36 43 -36 50c1 19 16 204 40 430h-127l31 67h103l15 130l106 60l-15 -190h150l16 -67h-172l-21 -259c-7 -89 -3 -87 156 -91zM546 615v-66h-150v66h150z" />
    <glyph glyph-name="uni01AD" unicode="&#x1ad;" horiz-adv-x="566" 
d="M282 221c-4 -89 0 -87 159 -91l19 -128c-37 -2 -213 -2 -260 -2c-34 0 -38 43 -38 50c0 19 9 204 25 430h-127l29 67h103c3 43 6 86 10 130l16 9v7c0 91 61 205 191 205c-1 -53 -3 -77 -9 -129c-47 0 -78 -22 -95 -53l-8 -169h151l18 -67h-172z" />
    <glyph glyph-name="uni1E6F" unicode="&#x1e6f;" horiz-adv-x="566" 
d="M162 50c0 19 9 204 25 430h-127l29 67h103c3 43 6 86 10 130l104 60l-9 -190h151l18 -67h-172l-12 -259c-4 -89 0 -87 159 -91l19 -128c-37 -2 -213 -2 -260 -2c-34 0 -38 43 -38 50zM487 -35l23 -57l-354 -13l24 52z" />
    <glyph glyph-name="uni1D75" unicode="&#x1d75;" horiz-adv-x="566" 
d="M282 221c-4 -89 0 -87 159 -91l19 -128c-37 -2 -213 -2 -260 -2c-34 0 -38 43 -38 50c0 16 6 147 18 321c-38 0 -38 -62 -38 -105h-55c8 117 23 150 94 150h2c1 21 3 42 4 64h-127l29 67h103c3 43 6 86 10 130l104 60l-9 -190h151l18 -67h-172l-7 -156c6 -5 13 -8 21 -8
c50 0 39 51 41 100h46c-2 -146 -32 -151 -86 -150c-9 0 -17 2 -25 5z" />
    <glyph glyph-name="uni0288" unicode="&#x288;" horiz-adv-x="566" 
d="M282 11c51 0 122 0 140 -1l8 -148c-37 -2 -183 -2 -230 -2c-34 0 -38 43 -38 50c0 19 22 372 43 638h-125l29 67h102c4 46 7 87 11 122h94l-6 -122h158l18 -67h-179z" />
    <glyph glyph-name="uni02A6" unicode="&#x2a6;" horiz-adv-x="986" 
d="M268 221c-4 -89 0 -87 148 -91l17 -128c-34 -2 -198 -2 -242 -2c-31 0 -35 43 -35 50c0 19 9 204 23 430h-118l27 67h96l9 130l97 60l-8 -190h140l17 -67h-160zM710 360c165 -54 194 -99 194 -181c0 -146 -77 -179 -228 -179c-183 0 -195 32 -239 67l98 117
c58 -23 82 -29 143 -35c35 -3 101 -7 101 53c0 34 -61 55 -131 70c-45 7 -167 39 -167 177c0 33 6 69 27 100h-173v66l274 -2c23 5 49 8 80 8c67 0 127 -14 177 -26l-46 -63c-62 8 -85 6 -120 8c-129 0 -145 -39 -144 -86c1 -34 67 -66 154 -94z" />
    <glyph glyph-name="u" unicode="u" horiz-adv-x="654" 
d="M293 -16c-123 0 -180 43 -192 232l-21 344h96l20 -263c8 -109 0 -137 117 -136c127 1 132 28 135 144l7 255h99l20 -560h-109l4 84c-34 -90 -118 -100 -176 -100z" />
    <glyph glyph-name="uacute" unicode="&#xfa;" horiz-adv-x="654" 
d="M574 0h-109l4 84c-23 -62 -71 -86 -117 -95h1l-51 -154h-76l74 149h-7c-123 0 -180 43 -192 232l-21 344h96l20 -263c8 -109 0 -137 117 -136c127 1 132 28 135 144l7 255h99z" />
    <glyph glyph-name="uni0289" unicode="&#x289;" horiz-adv-x="644" 
d="M647 346l-85 -2l12 -344h-109l4 84c-34 -90 -118 -100 -176 -100c-123 0 -180 43 -192 232l-7 119l-97 -2l45 52l49 2l-11 173h96l13 -170l262 8l4 162h99l6 -158l45 1zM448 305l1 37l-256 -5l3 -40c8 -109 0 -137 117 -136c127 1 132 28 135 144z" />
    <glyph glyph-name="uni01D4" unicode="&#x1d4;" horiz-adv-x="654" 
d="M291 680l-44 64l-133 131h54l143 -99l145 99h54l-132 -131l-39 -64h-48zM293 -16c-123 0 -180 43 -192 232l-21 344h96l20 -263c8 -109 0 -137 117 -136c127 1 132 28 135 144l7 255h99l20 -560h-109l4 84c-34 -90 -118 -100 -176 -100z" />
    <glyph glyph-name="ucircumflex" unicode="&#xfb;" horiz-adv-x="654" 
d="M294 818h48l39 -64l132 -131h-54l-145 99l-143 -99h-54l133 131zM293 -16c-123 0 -180 43 -192 232l-21 344h96l20 -263c8 -109 0 -137 117 -136c127 1 132 28 135 144l7 255h99l20 -560h-109l4 84c-34 -90 -118 -100 -176 -100z" />
    <glyph glyph-name="udieresis" unicode="&#xfc;" horiz-adv-x="654" 
d="M123 671l16 111h95v-111h-111zM395 671l16 111h95v-111h-111zM293 -16c-123 0 -180 43 -192 232l-21 344h96l20 -263c8 -109 0 -137 117 -136c127 1 132 28 135 144l7 255h99l20 -560h-109l4 84c-34 -90 -118 -100 -176 -100z" />
    <glyph glyph-name="uni01D8" unicode="&#x1d8;" horiz-adv-x="654" 
d="M335 935h51l-51 -154h-76zM123 601l16 111h95v-111h-111zM395 601l16 111h95v-111h-111zM293 -16c-123 0 -180 43 -192 232l-21 344h96l20 -263c8 -109 0 -137 117 -136c127 1 132 28 135 144l7 255h99l20 -560h-109l4 84c-34 -90 -118 -100 -176 -100z" />
    <glyph glyph-name="uni01DA" unicode="&#x1da;" horiz-adv-x="654" 
d="M293 772l-44 64l-133 131h54l143 -99l145 99h54l-132 -131l-39 -64h-48zM123 601l16 111h95v-111h-111zM395 601l16 111h95v-111h-111zM293 -16c-123 0 -180 43 -192 232l-21 344h96l20 -263c8 -109 0 -137 117 -136c127 1 132 28 135 144l7 255h99l20 -560h-109l4 84
c-34 -90 -118 -100 -176 -100z" />
    <glyph glyph-name="uni01DC" unicode="&#x1dc;" horiz-adv-x="654" 
d="M286 737l-116 112h79l171 -127zM123 601l16 111h95v-111h-111zM395 601l16 111h95v-111h-111zM293 -16c-123 0 -180 43 -192 232l-21 344h96l20 -263c8 -109 0 -137 117 -136c127 1 132 28 135 144l7 255h99l20 -560h-109l4 84c-34 -90 -118 -100 -176 -100z" />
    <glyph glyph-name="uni01D6" unicode="&#x1d6;" horiz-adv-x="654" 
d="M124 854l386 24l29 -77l-446 -17zM123 601l16 111h95v-111h-111zM395 601l16 111h95v-111h-111zM293 -16c-123 0 -180 43 -192 232l-21 344h96l20 -263c8 -109 0 -137 117 -136c127 1 132 28 135 144l7 255h99l20 -560h-109l4 84c-34 -90 -118 -100 -176 -100z" />
    <glyph glyph-name="uni1EE5" unicode="&#x1ee5;" horiz-adv-x="654" 
d="M293 -16c-123 0 -180 43 -192 232l-21 344h96l20 -263c8 -109 0 -137 117 -136c127 1 132 28 135 144l7 255h99l20 -560h-109l4 84c-34 -90 -118 -100 -176 -100zM271 -160l16 111h95v-111h-111z" />
    <glyph glyph-name="ugrave" unicode="&#xf9;" horiz-adv-x="654" 
d="M260 687l-116 112h79l171 -127zM293 -16c-123 0 -180 43 -192 232l-21 344h96l20 -263c8 -109 0 -137 117 -136c127 1 132 28 135 144l7 255h99l20 -560h-109l4 84c-34 -90 -118 -100 -176 -100z" />
    <glyph glyph-name="uni1EE7" unicode="&#x1ee7;" horiz-adv-x="654" 
d="M263 708v-21c16 8 30 13 45 13c23 0 32 -8 32 -14s-4 -12 -11 -17l-11 -9c-8 -6 -13 -10 -16 -15c-2 -4 -3 -10 -3 -16v-3h28c0 5 1 9 2 12c1 1 3 4 9 8l11 7c15 10 21 21 21 31s-6 20 -16 26s-23 10 -40 10c-16 0 -33 -4 -51 -12zM293 -16c-123 0 -180 43 -192 232
l-21 344h96l20 -263c8 -109 0 -137 117 -136c127 1 132 28 135 144l7 255h99l20 -560h-109l4 84c-34 -90 -118 -100 -176 -100z" />
    <glyph glyph-name="uhorn" unicode="&#x1b0;" horiz-adv-x="654" 
d="M634 597c3 -12 5 -23 5 -32c0 -39 -11 -87 -41 -114c-19 -15 -23 -20 -39 -29l15 -422h-109l4 84c-34 -90 -118 -100 -176 -100c-123 0 -180 43 -192 232l-21 344h96l20 -263c8 -109 0 -137 117 -136c127 1 132 28 135 144l7 255h99l3 -80c6 3 11 6 16 10
c22 20 20 66 20 83c0 11 -3 20 -7 30z" />
    <glyph glyph-name="uni1EE9" unicode="&#x1ee9;" horiz-adv-x="654" 
d="M384 843l-51 -154h-76l76 154h51zM634 597c3 -12 5 -23 5 -32c0 -39 -11 -87 -41 -114c-19 -15 -23 -20 -39 -29l15 -422h-109l4 84c-34 -90 -118 -100 -176 -100c-123 0 -180 43 -192 232l-21 344h96l20 -263c8 -109 0 -137 117 -136c127 1 132 28 135 144l7 255h99
l3 -80c6 3 11 6 16 10c22 20 20 66 20 83c0 11 -3 20 -7 30z" />
    <glyph glyph-name="uni1EF1" unicode="&#x1ef1;" horiz-adv-x="654" 
d="M634 597c3 -12 5 -23 5 -32c0 -39 -11 -87 -41 -114c-19 -15 -23 -20 -39 -29l15 -422h-109l4 84c-34 -90 -118 -100 -176 -100c-123 0 -180 43 -192 232l-21 344h96l20 -263c8 -109 0 -137 117 -136c127 1 132 28 135 144l7 255h99l3 -80c6 3 11 6 16 10
c22 20 20 66 20 83c0 11 -3 20 -7 30zM271 -160l16 111h95v-111h-111z" />
    <glyph glyph-name="uni1EEB" unicode="&#x1eeb;" horiz-adv-x="654" 
d="M418 630l-134 15l-116 112h79zM634 597c3 -12 5 -23 5 -32c0 -39 -11 -87 -41 -114c-19 -15 -23 -20 -39 -29l15 -422h-109l4 84c-34 -90 -118 -100 -176 -100c-123 0 -180 43 -192 232l-21 344h96l20 -263c8 -109 0 -137 117 -136c127 1 132 28 135 144l7 255h99l3 -80
c6 3 11 6 16 10c22 20 20 66 20 83c0 11 -3 20 -7 30z" />
    <glyph glyph-name="uni1EED" unicode="&#x1eed;" horiz-adv-x="654" 
d="M340 686c0 6 -9 14 -32 14c-15 0 -29 -5 -45 -13v21c18 8 35 12 51 12c17 0 30 -4 40 -10s16 -16 16 -26s-6 -21 -21 -31l-11 -7c-6 -4 -8 -7 -9 -8c-1 -3 -2 -7 -2 -12h-28v3c0 6 1 12 3 16c3 5 8 9 16 15l11 9c7 5 11 11 11 17zM634 597c3 -12 5 -23 5 -32
c0 -39 -11 -87 -41 -114c-19 -15 -23 -20 -39 -29l15 -422h-109l4 84c-34 -90 -118 -100 -176 -100c-123 0 -180 43 -192 232l-21 344h96l20 -263c8 -109 0 -137 117 -136c127 1 132 28 135 144l7 255h99l3 -80c6 3 11 6 16 10c22 20 20 66 20 83c0 11 -3 20 -7 30z" />
    <glyph glyph-name="uni1EEF" unicode="&#x1eef;" horiz-adv-x="654" 
d="M251 747c-39 1 -39 -62 -39 -105h-55c8 117 23 150 94 150c66 0 83 -100 127 -100c50 0 39 51 41 100h46c-2 -146 -32 -151 -86 -150c-72 1 -91 104 -128 105zM634 597c3 -12 5 -23 5 -32c0 -39 -11 -87 -41 -114c-19 -15 -23 -20 -39 -29l15 -422h-109l4 84
c-34 -90 -118 -100 -176 -100c-123 0 -180 43 -192 232l-21 344h96l20 -263c8 -109 0 -137 117 -136c127 1 132 28 135 144l7 255h99l3 -80c6 3 11 6 16 10c22 20 20 66 20 83c0 11 -3 20 -7 30z" />
    <glyph glyph-name="uhungarumlaut" unicode="&#x171;" horiz-adv-x="654" 
d="M254 652l-134 -15l171 127h79zM437 652l-134 -15l171 127h79zM293 -16c-123 0 -180 43 -192 232l-21 344h96l20 -263c8 -109 0 -137 117 -136c127 1 132 28 135 144l7 255h99l20 -560h-109l4 84c-34 -90 -118 -100 -176 -100z" />
    <glyph glyph-name="umacron" unicode="&#x16b;" horiz-adv-x="654" 
d="M122 762l386 24l29 -77l-446 -17zM293 -16c-123 0 -180 43 -192 232l-21 344h96l20 -263c8 -109 0 -137 117 -136c127 1 132 28 135 144l7 255h99l20 -560h-109l4 84c-34 -90 -118 -100 -176 -100z" />
    <glyph glyph-name="uogonek" unicode="&#x173;" horiz-adv-x="600" 
d="M500 -150c15 0 34 2 55 5c3 -20 8 -53 11 -70c-115 -2 -183 30 -183 86c0 35 27 79 86 129h-4l4 84c-34 -90 -118 -100 -176 -100c-123 0 -180 43 -192 232l-21 344h96l20 -263c8 -109 0 -137 117 -136c127 1 132 28 135 144l7 255h99l20 -560h-46
c-59 -55 -89 -95 -89 -119c0 -20 20 -31 61 -31z" />
    <glyph glyph-name="uni028A" unicode="&#x28a;" horiz-adv-x="858" 
d="M778 542v-95c-37 -5 -43 -5 -133 -19c64 -42 128 -74 128 -262c0 -230 -132 -378 -337 -378s-338 148 -338 378c0 185 76 220 115 262c-52 6 -97 12 -133 19v95c24 1 56 0 98 0h178c0 -42 -1 -61 -9 -123c-105 10 -145 -153 -145 -253c0 -184 91 -308 234 -308
s233 124 233 308c0 100 -60 216 -162 248c-7 53 -11 86 -11 128h164c38 0 99 4 118 0z" />
    <glyph glyph-name="uring" unicode="&#x16f;" horiz-adv-x="654" 
d="M314 684c-50 0 -90 43 -90 96c0 52 40 95 90 95s90 -43 90 -95c0 -53 -40 -96 -90 -96zM314 739c28 0 51 1 51 54c0 29 -23 53 -51 53s-51 -24 -51 -53c0 -53 23 -54 51 -54zM293 -16c-123 0 -180 43 -192 232l-21 344h96l20 -263c8 -109 0 -137 117 -136
c127 1 132 28 135 144l7 255h99l20 -560h-109l4 84c-34 -90 -118 -100 -176 -100z" />
    <glyph glyph-name="utilde" unicode="&#x169;" horiz-adv-x="654" 
d="M212 642h-55c8 117 23 150 94 150c66 0 83 -100 127 -100c50 0 39 51 41 100h46c-2 -146 -32 -151 -86 -150c-72 1 -91 104 -128 105c-39 1 -39 -62 -39 -105zM293 -16c-123 0 -180 43 -192 232l-21 344h96l20 -263c8 -109 0 -137 117 -136c127 1 132 28 135 144l7 255
h99l20 -560h-109l4 84c-34 -90 -118 -100 -176 -100z" />
    <glyph glyph-name="v" unicode="v" horiz-adv-x="754" 
d="M290 0l-28 144l-182 403h95l212 -401l192 401h95l-180 -403l-20 -144h-184z" />
    <glyph glyph-name="uni028B" unicode="&#x28b;" horiz-adv-x="560" 
d="M80 216v331h85v-250c0 -157 47 -157 128 -157c97 0 98 57 98 214c0 56 11 141 -82 141v75c189 0 171 -101 171 -312c0 -97 19 -274 -187 -274c-123 0 -213 43 -213 232z" />
    <glyph glyph-name="uni1E7D" unicode="&#x1e7d;" horiz-adv-x="754" 
d="M275 512h-55c8 117 23 150 94 150c66 0 83 -100 127 -100c50 0 39 51 41 100h46c-2 -146 -32 -151 -86 -150c-72 1 -91 104 -128 105c-39 1 -39 -62 -39 -105zM290 0l-28 144l-182 403h95l212 -401l192 401h95l-180 -403l-20 -144h-184z" />
    <glyph glyph-name="uni028C" unicode="&#x28c;" horiz-adv-x="828" 
d="M317 728h204l237 -750h-113l-198 536h-47l-218 -536h-112z" />
    <glyph glyph-name="w" unicode="w" horiz-adv-x="894" 
d="M223 0l-143 547h120l82 -339l134 185h62l134 -185l82 339h120l-143 -547h-125l-99 169l-103 -169h-121z" />
    <glyph glyph-name="wacute" unicode="&#x1e83;" horiz-adv-x="894" 
d="M223 0l-143 547h120l82 -339l134 185h62l134 -185l82 339h120l-143 -547h-125l-99 169l-103 -169h-121zM422 -11h51l-51 -154h-76z" />
    <glyph glyph-name="wcircumflex" unicode="&#x175;" horiz-adv-x="894" 
d="M427 815h48l39 -64l132 -131h-54l-145 99l-143 -99h-54l133 131zM223 0l-143 547h120l82 -339l134 185h62l134 -185l82 339h120l-143 -547h-125l-99 169l-103 -169h-121z" />
    <glyph glyph-name="wdieresis" unicode="&#x1e85;" horiz-adv-x="894" 
d="M256 668l16 111h95v-111h-111zM528 668l16 111h95v-111h-111zM223 0l-143 547h120l82 -339l134 185h62l134 -185l82 339h120l-143 -547h-125l-99 169l-103 -169h-121z" />
    <glyph glyph-name="wgrave" unicode="&#x1e81;" horiz-adv-x="894" 
d="M393 684l-116 112h79l171 -127zM223 0l-143 547h120l82 -339l134 185h62l134 -185l82 339h120l-143 -547h-125l-99 169l-103 -169h-121z" />
    <glyph glyph-name="uni2C73" unicode="&#x2c73;" horiz-adv-x="894" 
d="M796 547c87 8 129 -64 129 -139v-67l-65 -127c0 36 0 106 -6 139c-7 40 -30 69 -74 63l-109 -416h-125l-99 169l-103 -169h-121l-143 547h120l82 -339l134 185h62l134 -185l82 339h102z" />
    <glyph glyph-name="uni028D" unicode="&#x28d;" horiz-adv-x="894" 
d="M223 560h121l103 -169l99 169h125l143 -547h-120l-82 339l-134 -185h-62l-134 185l-82 -339h-120z" />
    <glyph glyph-name="x" unicode="x" horiz-adv-x="789" 
d="M674 -1h-150l-133 206l-153 -206h-149l241 299l-169 262h116l124 -175l141 175h111l-192 -260z" />
    <glyph glyph-name="y" unicode="y" horiz-adv-x="692" 
d="M110 -258v129h63c77 0 205 79 155 182l-248 508h95l224 -382l117 382h96l-139 -595c-37 -159 -201 -224 -281 -224h-82z" />
    <glyph glyph-name="yacute" unicode="&#xfd;" horiz-adv-x="692" 
d="M370 934h51l-51 -154h-76zM110 -258v129h63c77 0 205 79 155 182l-248 508h95l224 -382l117 382h96l-139 -595c-37 -159 -201 -224 -281 -224h-82z" />
    <glyph glyph-name="ycircumflex" unicode="&#x177;" horiz-adv-x="692" 
d="M337 888h48l39 -64l132 -131h-54l-145 99l-143 -99h-54l133 131zM110 -258v129h63c77 0 205 79 155 182l-248 508h95l224 -382l117 382h96l-139 -595c-37 -159 -201 -224 -281 -224h-82z" />
    <glyph glyph-name="ydieresis" unicode="&#xff;" horiz-adv-x="692" 
d="M166 741l16 111h95v-111h-111zM438 741l16 111h95v-111h-111zM110 -258v129h63c77 0 205 79 155 182l-248 508h95l224 -382l117 382h96l-139 -595c-37 -159 -201 -224 -281 -224h-82z" />
    <glyph glyph-name="uni1EF5" unicode="&#x1ef5;" horiz-adv-x="692" 
d="M612 561l-139 -595c-10 -45 -31 -82 -57 -113v-13h-12c-66 -68 -158 -98 -212 -98h-82v129h63c48 0 116 31 148 78v2h1c19 29 25 64 6 102l-248 508h95l224 -382l117 382h96z" />
    <glyph glyph-name="ygrave" unicode="&#x1ef3;" horiz-adv-x="692" 
d="M303 757l-116 112h79l171 -127zM110 -258v129h63c77 0 205 79 155 182l-248 508h95l224 -382l117 382h96l-139 -595c-37 -159 -201 -224 -281 -224h-82z" />
    <glyph glyph-name="uni01B4" unicode="&#x1b4;" horiz-adv-x="692" 
d="M610 554c66 -39 97 -116 97 -181v-67l-65 -99c0 36 0 106 -6 142s-23 68 -53 86l-110 -469c-37 -159 -201 -224 -281 -224h-82v129h63c77 0 205 79 155 182l-248 508h95l224 -382l117 382v17c30 0 57 -6 80 -17h16z" />
    <glyph glyph-name="uni1EF7" unicode="&#x1ef7;" horiz-adv-x="692" 
d="M306 778v-21c16 8 30 13 45 13c23 0 32 -8 32 -14s-4 -12 -11 -17l-11 -9c-8 -6 -13 -10 -16 -15c-2 -4 -3 -10 -3 -16v-3h28c0 5 1 9 2 12c1 1 3 4 9 8l11 7c15 10 21 21 21 31s-6 20 -16 26s-23 10 -40 10c-16 0 -33 -4 -51 -12zM110 -258v129h63c77 0 205 79 155 182
l-248 508h95l224 -382l117 382h96l-139 -595c-37 -159 -201 -224 -281 -224h-82z" />
    <glyph glyph-name="uni1EF9" unicode="&#x1ef9;" horiz-adv-x="692" 
d="M255 712h-55c8 117 23 150 94 150c66 0 83 -100 127 -100c50 0 39 51 41 100h46c-2 -146 -32 -151 -86 -150c-72 1 -91 104 -128 105c-39 1 -39 -62 -39 -105zM110 -258v129h63c77 0 205 79 155 182l-248 508h95l224 -382l117 382h96l-139 -595
c-37 -159 -201 -224 -281 -224h-82z" />
    <glyph glyph-name="uni028E" unicode="&#x28e;" horiz-adv-x="692" 
d="M582 808v-129h-63c-77 0 -205 -79 -155 -182l248 -508h-95l-224 382l-117 -382h-96l139 595c37 159 201 224 281 224h82z" />
    <glyph glyph-name="z" unicode="z" horiz-adv-x="671" 
d="M80 0l24 131l351 333h-291v96h414l13 -90l-332 -349h265l57 -121h-501z" />
    <glyph glyph-name="zacute" unicode="&#x17a;" horiz-adv-x="671" 
d="M368 770h51l-51 -154h-76zM80 0l24 131l351 333h-291v96h414l13 -90l-332 -349h265l57 -121h-501z" />
    <glyph glyph-name="zcaron" unicode="&#x17e;" horiz-adv-x="671" 
d="M326 607l-44 64l-133 131h54l143 -99l145 99h54l-132 -131l-39 -64h-48zM80 0l24 131l351 333h-291v96h414l13 -90l-332 -349h265l57 -121h-501z" />
    <glyph glyph-name="uni1E91" unicode="&#x1e91;" horiz-adv-x="671" 
d="M325 786h48l39 -64l132 -131h-54l-145 99l-143 -99h-54l133 131zM80 0l24 131l351 333h-291v96h414l13 -90l-332 -349h265l57 -121h-501z" />
    <glyph glyph-name="uni0291" unicode="&#x291;" horiz-adv-x="726" 
d="M569 255c138 -36 72 -255 -60 -255h-22c-3 -50 -5 -113 -5 -193h-99c0 74 2 139 6 193h-309l24 131l378 351h-313v67h409l13 -67l-352 -361h167c26 122 78 157 163 134zM500 122c70 5 56 38 45 47c-15 12 -32 13 -45 -47z" />
    <glyph glyph-name="zdotaccent" unicode="&#x17c;" horiz-adv-x="671" 
d="M289 638l16 111h95v-111h-111zM80 0l24 131l351 333h-291v96h414l13 -90l-332 -349h265l57 -121h-501z" />
    <glyph glyph-name="uni1E93" unicode="&#x1e93;" horiz-adv-x="671" 
d="M80 0l24 131l351 333h-291v96h414l13 -90l-332 -349h265l57 -121h-501zM280 -160l16 111h95v-111h-111z" />
    <glyph glyph-name="uni1D76" unicode="&#x1d76;" horiz-adv-x="671" 
d="M259 121h265l57 -121h-501l24 131l177 168c-11 6 -22 10 -34 10c-58 0 -58 -42 -58 -71h-80c11 79 33 101 138 101c26 0 46 -5 64 -12l144 137h-291v96h414l13 -90l-185 -195c8 -2 17 -4 27 -4c74 0 58 35 61 68h67c-3 -99 -47 -102 -126 -101c-22 0 -41 3 -57 8z" />
    <glyph glyph-name="uni0290" unicode="&#x290;" horiz-adv-x="679" 
d="M599 121v-121h-137c0 -3 1 -5 1 -7c4 -25 6 -46 38 -46c4 -28 5 -38 5 -55c-60 0 -76 48 -76 90v18h-350l24 131l351 333h-291v96h414l13 -90l-332 -349h340z" />
    <glyph glyph-name="a.ss01" horiz-adv-x="576" 
d="M283 554c143 0 213 -80 213 -245v-285v-24h-81v24v11c0 21 -10 25 -25 10c-35 -39 -82 -59 -146 -59c-99 0 -164 67 -164 171c0 122 74 185 221 185h92c14 0 22 3 22 8c0 83 -45 132 -140 139c-47 0 -92 -11 -133 -31c-15 -8 -13 -6 -26 -17v75c3 1 6 3 18 8
c52 21 102 30 149 30zM257 122c80 0 112 19 113 131c0 15 -9 23 -22 23h-51c-110 0 -144 -24 -149 -80c-1 -10 -1 -18 3 -29c13 -41 53 -45 106 -45z" />
    <glyph glyph-name="a.ss04" horiz-adv-x="656" 
d="M296 -14c-157 0 -254 114 -216 326c37 207 153 238 210 246c79 11 134 -11 170 -69l-2 58h71l57 -547h-100v82c-38 -65 -110 -96 -190 -96zM284 138c161 0 168 112 168 161c0 152 -74 175 -141 175c-56 0 -138 -50 -157 -188c-12 -89 12 -148 130 -148z" />
    <glyph glyph-name="b.ss04" horiz-adv-x="653" 
d="M348 -14c-143 0 -206 41 -232 113c-21 45 -26 338 -56 701h134v-272c0 -75 46 25 154 28c148 4 265 -119 265 -263c0 -172 -132 -307 -265 -307zM369 146c80 6 146 65 146 147c0 99 -50 175 -146 175c-95 0 -152 -73 -152 -179c0 -102 22 -143 152 -143z" />
    <glyph glyph-name="c.ss04" horiz-adv-x="593" 
d="M444 548v-81c-32 10 -77 15 -105 15c-97 -1 -159 -60 -159 -209c10 -130 141 -199 246 -147l94 -102c-47 -28 -110 -35 -171 -31c-207 14 -270 104 -270 280c0 198 71 283 240 287c48 1 104 -5 125 -12z" />
    <glyph glyph-name="d.ss04" horiz-adv-x="666" 
d="M479 470l17 330h90l-24 -565l12 -237l-95 2v72c-37 -65 -95 -88 -175 -86c-157 3 -264 115 -254 287c9 158 122 297 254 304c80 4 138 -42 175 -107zM145 283c0 -95 55 -134 150 -134c75 0 144 20 144 141c0 108 -46 181 -141 181c-96 0 -153 -80 -153 -188z" />
    <glyph glyph-name="e.ss04" horiz-adv-x="654" 
d="M594 315l-433 -28c0 -95 65 -153 206 -168c74 -8 121 0 198 33v-124c-65 -28 -130 -42 -201 -42c-174 0 -294 109 -294 282c7 179 114 312 279 312c112 -9 213 -84 245 -265zM174 364l320 31c-10 61 -41 125 -145 118c-102 -7 -175 -83 -175 -149z" />
    <glyph glyph-name="f.ss04" horiz-adv-x="484" 
d="M146 -1l15 459h-81v89h81c0 214 51 248 154 248h80v-75h-81c-89 0 -74 -136 -65 -175l155 2v-89h-143l15 -459h-130z" />
    <glyph glyph-name="g.ss04" horiz-adv-x="659" 
d="M301 -261c-63 0 -140 16 -202 47l37 132c53 -29 104 -49 157 -42c78 10 136 75 159 140l12 46c-50 -45 -100 -72 -160 -72c-134 0 -224 121 -224 290s90 280 224 280c80 0 109 -42 164 -83l21 70h90l-21 -478c-10 -221 -86 -330 -257 -330zM280 146c97 0 160 26 160 129
c0 98 -56 185 -153 185c-96 0 -118 -87 -125 -175c-9 -113 21 -139 118 -139z" />
    <glyph glyph-name="h.ss04" horiz-adv-x="676" 
d="M575 330l21 -330h-138c54 325 45 446 -94 446c-119 0 -190 -81 -136 -446h-148l58 800h90l-20 -314c69 54 90 68 176 62c85 -6 179 -26 191 -218z" />
    <glyph glyph-name="i.ss04" horiz-adv-x="282" 
d="M94 646l15 114h60l15 -114h-90zM80 0c13 192 19 330 19 551h80c-7 -165 -7 -359 23 -551h-122z" />
    <glyph glyph-name="j.ss04" horiz-adv-x="414" 
d="M228 647l16 111h95v-111h-111zM218 -38c17 59 17 193 28 595h95l-30 -571c-6 -107 -22 -149 -57 -176c-33 -26 -168 -46 -253 -29l46 94c50 -9 144 -4 171 87z" />
    <glyph glyph-name="k.ss04" horiz-adv-x="660" 
d="M70 0l42 793h100l-23 -442l135 169h118l-173 -221l311 -299h-205l-186 238l11 -238h-130z" />
    <glyph glyph-name="l.ss04" horiz-adv-x="390" 
d="M80 0c-12 111 1 506 42 784h85c-27 -240 -42 -430 -32 -673h119l16 -111h-230z" />
    <glyph glyph-name="m.ss04" horiz-adv-x="1024" 
d="M574 442c45 80 104 119 181 119c124 0 172 -101 178 -261l11 -300h-135l34 312c11 104 -22 153 -98 153c-94 0 -129 -76 -146 -186l-42 -279h-124l71 317c20 88 -37 154 -114 154c-92 0 -155 -93 -159 -148l-26 -323h-125l65 547h90l-10 -85c41 67 106 99 176 99
c80 0 146 -42 173 -119z" />
    <glyph glyph-name="n.ss04" horiz-adv-x="669" 
d="M567 323l22 -323h-139l11 329c3 97 -27 143 -107 143c-110 0 -144 -78 -140 -168l14 -304h-148l40 546h66l17 -44c47 22 85 55 161 55c125 0 193 -90 203 -234z" />
    <glyph glyph-name="o.ss04" horiz-adv-x="662" 
d="M331 -13c-163 0 -261 117 -261 286c0 176 98 287 261 287c162 0 261 -111 261 -287c0 -169 -99 -286 -261 -286zM331 136c120 0 162 23 162 154c0 139 -62 182 -162 182s-162 -43 -162 -182c0 -131 42 -154 162 -154z" />
    <glyph glyph-name="p.ss04" horiz-adv-x="731" 
d="M252 82l-43 -286l-129 -8l80 449l-16 295h90l18 -75c37 65 95 98 175 96c133 -4 224 -105 224 -270c0 -157 -66 -298 -224 -298c-80 0 -148 32 -175 97zM563 302c-4 106 -40 171 -123 171s-162 -65 -162 -171s72 -168 167 -168s122 62 118 168z" />
    <glyph glyph-name="q.ss04" horiz-adv-x="770" 
d="M452 -208l27 290c-38 -65 -95 -100 -175 -96c-132 7 -235 116 -235 288s100 265 232 283c96 13 139 -25 193 -110v100h107l-35 -361l-12 -256l70 20l86 30l-26 -120zM290 127c95 0 144 46 156 159c12 112 -31 196 -126 196c-96 0 -148 -84 -160 -196
c-12 -113 35 -159 130 -159z" />
    <glyph glyph-name="r.ss04" horiz-adv-x="512" 
d="M418 549l15 -126c-177 37 -195 -40 -195 -137c0 -58 -6 -123 23 -287h-181c41 196 46 318 46 546h93v-59c55 42 83 57 199 63z" />
    <glyph glyph-name="s.ss04" horiz-adv-x="629" 
d="M509 549l-46 -60c-62 8 -85 6 -120 8c-129 0 -145 -37 -144 -82c1 -32 67 -62 154 -89c165 -51 194 -93 194 -171c0 -138 -77 -169 -228 -169c-183 0 -195 30 -239 63l98 111c58 -22 82 -28 143 -33c35 -3 101 -7 101 50c0 32 -61 52 -131 66c-45 7 -167 37 -167 168
c0 73 35 162 208 162c67 0 127 -13 177 -24z" />
    <glyph glyph-name="t.ss04" horiz-adv-x="566" 
d="M282 221c-4 -89 0 -87 159 -91l19 -128c-37 -2 -213 -2 -260 -2c-34 0 -38 43 -38 50c0 19 9 204 25 430h-127l29 67h103c3 43 6 86 10 130l104 60l-9 -190h151l18 -67h-172z" />
    <glyph glyph-name="u.ss04" horiz-adv-x="654" 
d="M293 -16c-123 0 -180 43 -192 232l-21 344h96l20 -263c8 -109 0 -137 117 -136c127 1 132 28 135 144l7 255h99l20 -560h-109l4 84c-34 -90 -118 -100 -176 -100z" />
    <glyph glyph-name="v.ss04" horiz-adv-x="754" 
d="M290 0l-28 144l-182 403h95l212 -401l192 401h95l-180 -403l-20 -144h-184z" />
    <glyph glyph-name="w.ss04" horiz-adv-x="894" 
d="M223 0l-143 547h120l82 -339l134 185h62l134 -185l82 339h120l-143 -547h-125l-99 169l-103 -169h-121z" />
    <glyph glyph-name="x.ss04" horiz-adv-x="789" 
d="M674 -1h-150l-133 206l-153 -206h-149l241 299l-169 262h116l124 -175l141 175h111l-192 -260z" />
    <glyph glyph-name="y.ss04" horiz-adv-x="789" 
d="M674 -1h-150l-133 206l-153 -206h-149l241 299l-169 262h116l124 -175l141 175h111l-192 -260z" />
    <glyph glyph-name="z.ss04" horiz-adv-x="671" 
d="M80 0l24 131l351 333h-291v96h414l13 -90l-332 -349h265l57 -121h-501z" />
    <glyph glyph-name="longs_t" horiz-adv-x="849" 
d="M314 720c-89 0 -74 -136 -65 -175l12 -87l15 -458h-130l15 458h-81v89h81c0 214 51 248 154 248h80v-75h-81zM565 229c-4 -89 0 -87 159 -91l19 -128c-37 -2 -213 -2 -260 -2c-34 0 -38 43 -38 50c0 19 9 204 25 430h-127l29 67h103c3 43 6 86 10 130l104 60l-9 -190h151
l18 -67h-172z" />
    <glyph glyph-name="s_t" horiz-adv-x="1185" 
d="M901 221c-4 -89 0 -87 159 -91l19 -128c-37 -2 -213 -2 -260 -2c-34 0 -38 43 -38 50c0 19 9 204 25 430h-127l29 67h103c3 43 6 86 10 130l104 60l-9 -190h151l18 -67h-172zM353 326c165 -51 194 -93 194 -171c0 -138 -77 -169 -228 -169c-183 0 -195 30 -239 63l98 111
c58 -22 82 -28 143 -33c35 -3 101 -7 101 50c0 32 -61 52 -131 66c-45 7 -167 37 -167 168c0 73 35 162 208 162c67 0 127 -13 177 -24l-46 -60c-62 8 -85 6 -120 8c-129 0 -145 -37 -144 -82c1 -32 67 -62 154 -89z" />
    <glyph glyph-name="ordfeminine" unicode="&#xaa;" horiz-adv-x="419" 
d="M193 415c-82 0 -133 59 -113 170c19 108 80 125 110 129c41 6 70 -6 89 -36l-1 30h37l29 -286h-52v43c-20 -34 -57 -50 -99 -50zM187 494c84 0 87 59 87 84c0 80 -38 92 -73 92c-30 0 -73 -26 -82 -98c-7 -47 6 -78 68 -78z" />
    <glyph glyph-name="ordmasculine" unicode="&#xba;" horiz-adv-x="420" 
d="M210 408c-84 0 -135 61 -135 148c0 91 51 148 135 148s135 -57 135 -148c0 -87 -51 -148 -135 -148zM210 485c62 0 84 12 84 80c0 72 -32 94 -84 94s-84 -22 -84 -94c0 -68 22 -80 84 -80z" />
    <glyph glyph-name="uni01C2" unicode="&#x1c2;" horiz-adv-x="607" 
d="M498 337l29 -77l-204 -8l-12 -402h-70l12 400l-172 -7l31 70l143 9l5 153l-179 -7l31 70l150 9l5 153h70l-5 -148l166 10l29 -77l-197 -8l-4 -151z" />
    <glyph glyph-name="uni01C0" unicode="&#x1c0;" horiz-adv-x="256" 
d="M106 700h70l-26 -850h-70z" />
    <glyph glyph-name="uni01C1" unicode="&#x1c1;" horiz-adv-x="545" 
d="M106 700h70l-26 -850h-70zM395 700h70l-26 -850h-70z" />
    <glyph glyph-name="uni01C3" unicode="&#x1c3;" horiz-adv-x="282" 
d="M80 750h122c-30 -192 -30 -386 -23 -551h-80c0 221 -6 359 -19 551zM94 104h90l-15 -114h-60z" />
    <glyph glyph-name="uni02B0" unicode="&#x2b0;" horiz-adv-x="676" 
d="M575 330l21 -330h-138c54 325 45 446 -94 446c-119 0 -190 -81 -136 -446h-148l58 800h90l-20 -314c69 54 90 68 176 62c85 -6 179 -26 191 -218z" />
    <glyph glyph-name="uni02B2" unicode="&#x2b2;" horiz-adv-x="414" 
d="M228 647l16 111h95v-111h-111zM218 -38c17 59 17 193 28 595h95l-30 -571c-6 -107 -22 -149 -57 -176c-33 -26 -168 -46 -253 -29l46 94c50 -9 144 -4 171 87z" />
    <glyph glyph-name="uni02E1" unicode="&#x2e1;" horiz-adv-x="390" 
d="M80 0c-12 111 1 506 42 784h85c-27 -240 -42 -430 -32 -673h119l16 -111h-230z" />
    <glyph glyph-name="uni207F" unicode="&#x207f;" horiz-adv-x="669" 
d="M567 323l22 -323h-139l11 329c3 97 -27 143 -107 143c-110 0 -144 -78 -140 -168l14 -304h-148l40 546h66l17 -44c47 22 85 55 161 55c125 0 193 -90 203 -234z" />
    <glyph glyph-name="uni02B7" unicode="&#x2b7;" horiz-adv-x="600" 
d="M166 376l-86 328h72l49 -203l80 110h37l81 -110l49 203h72l-86 -328h-75l-59 101l-62 -101h-72z" />
    <glyph glyph-name="uni0410" unicode="&#x410;" horiz-adv-x="828" 
d="M80 -1l288 750h93l287 -750h-141l-28 120h-328l-37 -120h-134zM280 235h269l-136 393z" />
    <glyph glyph-name="uni0411" unicode="&#x411;" horiz-adv-x="655" 
d="M337 141l-124 1l-6 234l130 4c49 0 87 -12 114 -36s40 -58 40 -102c0 -28 -13 -51 -40 -70c-29 -21 -67 -31 -114 -31zM574 729h-494l30 -729h217c165 0 248 73 248 218c0 73 -21 129 -62 168c-43 40 -105 60 -186 60l-123 1l-8 213h345z" />
    <glyph glyph-name="uni0412" unicode="&#x412;" horiz-adv-x="687" 
d="M342 0h-262v729h228c75 0 133 -16 174 -47s61 -76 61 -133c0 -91 -41 -143 -123 -156c125 -20 187 -83 187 -189c0 -65 -24 -115 -71 -151c-47 -35 -111 -53 -194 -53zM325 663h-146v-235h146c95 0 143 37 143 110c0 38 -12 68 -35 90c-25 23 -61 35 -108 35zM337 348
h-158v-203h158c55 0 95 8 118 23c25 17 38 47 38 91c0 17 -13 36 -38 57c-27 21 -66 32 -118 32z" />
    <glyph glyph-name="uni0413" unicode="&#x413;" horiz-adv-x="655" 
d="M575 648h-377l34 -648h-152l14 729h471z" />
    <glyph glyph-name="uni0403" unicode="&#x403;" horiz-adv-x="655" 
d="M575 648h-377l34 -648h-152l11 580h-11l12 23l2 126h60l2 5h51l-2 -5h360z" />
    <glyph glyph-name="uni0490" unicode="&#x490;" horiz-adv-x="655" 
d="M489 821h86v-173h-377l34 -648h-152l14 729h395v92z" />
    <glyph glyph-name="uni0414" unicode="&#x414;" horiz-adv-x="836" 
d="M660 638l21 -524h75l-44 -209h-110l25 99h-409l17 -99h-105l-50 209h60l56 78l34 44l24 489l406 1v-88zM275 114l283 -1l7 525h-223l-18 -414z" />
    <glyph glyph-name="uni0415" unicode="&#x415;" horiz-adv-x="630" 
d="M550 151v-151h-470v729h461v-83h-362v-216h347v-83h-347v-196h371z" />
    <glyph glyph-name="uni0400" unicode="&#x400;" horiz-adv-x="630" 
d="M289 783l-116 112h79l171 -127zM550 151v-151h-470v729h461v-83h-362v-216h347v-83h-347v-196h371z" />
    <glyph glyph-name="uni0401" unicode="&#x401;" horiz-adv-x="630" 
d="M227 937l5 -104h-90l5 104h80zM490 937l5 -104h-90l5 104h80zM550 151v-151h-470v729h461v-83h-362v-216h347v-83h-347v-196h371z" />
    <glyph glyph-name="uni0416" unicode="&#x416;" horiz-adv-x="1110" 
d="M1030 0h-233l-169 249l22 -249h-190l22 249l-169 -249h-233l338 349l-243 402h127l195 -328l8 102l-8 226h116l-8 -226l8 -102l195 328h127l-243 -402z" />
    <glyph glyph-name="uni0417" unicode="&#x417;" horiz-adv-x="640" 
d="M410 393c46 -3 83 -21 110 -53c27 -31 40 -71 40 -118c0 -157 -95 -236 -285 -236c-61 0 -126 12 -195 36v154c69 -40 135 -60 199 -60c61 0 107 14 140 42c29 24 43 50 43 78c0 35 -15 63 -45 86c-31 24 -73 36 -126 37l-112 3l-8 76l124 2c99 1 148 35 148 100
c0 76 -49 114 -146 114c-63 0 -129 -7 -196 -20l1 77c74 21 140 31 198 31c75 0 134 -17 178 -51c43 -34 65 -80 65 -138c0 -84 -44 -137 -133 -160z" />
    <glyph glyph-name="uni0418" unicode="&#x418;" horiz-adv-x="757" 
d="M677 0h-163l9 522l-249 -522h-174l-40 749h111l49 -610l276 583h123z" />
    <glyph glyph-name="uni0419" unicode="&#x419;" horiz-adv-x="757" 
d="M343 865c-107 0 -192 74 -192 197h65c0 -88 48 -102 127 -102c93 0 136 15 136 102h65c0 -123 -95 -197 -201 -197zM677 0h-163l9 522l-249 -522h-174l-40 749h111l49 -610l276 583h123z" />
    <glyph glyph-name="uni040D" unicode="&#x40d;" horiz-adv-x="757" 
d="M318 851l-116 112h79l171 -127zM677 0h-163l9 522l-249 -522h-174l-40 749h111l49 -610l276 583h123z" />
    <glyph glyph-name="uni041A" unicode="&#x41a;" horiz-adv-x="730" 
d="M80 0l65 751h88l-13 -350l208 350h127l-243 -402l338 -349h-233l-197 291l-12 -291h-128z" />
    <glyph glyph-name="uni040C" unicode="&#x40c;" horiz-adv-x="730" 
d="M366 929h51l-51 -154h-76zM80 0l65 751h88l-13 -350l208 350h127l-243 -402l338 -349h-233l-197 291l-12 -291h-128z" />
    <glyph glyph-name="uni041B" unicode="&#x41b;" horiz-adv-x="828" 
d="M597 0l-183 604l-171 -604h-163l281 729h103l284 -729h-151z" />
    <glyph glyph-name="uni041C" unicode="&#x41c;" horiz-adv-x="847" 
d="M186 640l19 -640h-125l15 729h147l181 -433l192 433h137l15 -729h-126l20 640l-178 -524h-119z" />
    <glyph glyph-name="uni041D" unicode="&#x41d;" horiz-adv-x="771" 
d="M691 0h-159l6 187h-313l7 -187h-152l20 750h104l15 -397h324l13 397h104z" />
    <glyph glyph-name="uni041E" unicode="&#x41e;" horiz-adv-x="835" 
d="M418 752c205 0 343 -108 337 -378c-6 -260 -83 -390 -337 -388c-233 2 -338 128 -338 388s133 378 338 378zM418 672c-143 0 -234 -156 -234 -308c0 -151 91 -191 234 -191s233 40 233 191c0 152 -90 308 -233 308z" />
    <glyph glyph-name="uni041F" unicode="&#x41f;" horiz-adv-x="680" 
d="M587 642l13 -642h-120l11 642h-303l12 -642h-120l4 729l503 -3v-84z" />
    </font>
</defs>
</svg>
