<?xml version="1.0" standalone="no"?>
<!DOCTYPE svg PUBLIC "-//W3C//DTD SVG 20010904//EN"
 "http://www.w3.org/TR/2001/REC-SVG-20010904/DTD/svg10.dtd">
<svg version="1.0" xmlns="http://www.w3.org/2000/svg"
 width="56.000000pt" height="106.000000pt" viewBox="0 0 56.000000 106.000000"
 preserveAspectRatio="xMidYMid meet">
<metadata>
Created by potrace 1.15, written by Peter Selinger 2001-2017
</metadata>
<g transform="translate(0.000000,106.000000) scale(0.100000,-0.100000)"
fill="#000000" stroke="none">
<path d="M236 938 c-3 -13 -10 -160 -16 -328 -8 -234 -14 -310 -25 -327 -17
-25 -70 -38 -115 -29 l-30 5 0 -88 c0 -100 1 -101 78 -101 54 1 114 20 144 47
12 10 30 38 41 62 20 46 25 115 42 582 l7 186 -23 6 c-13 4 -41 7 -61 7 -31 0
-38 -4 -42 -22z"/>
</g>
</svg>
