<?xml version="1.0" standalone="no"?>
<!DOCTYPE svg PUBLIC "-//W3C//DTD SVG 20010904//EN"
 "http://www.w3.org/TR/2001/REC-SVG-20010904/DTD/svg10.dtd">
<svg version="1.0" xmlns="http://www.w3.org/2000/svg"
 width="65.000000pt" height="81.000000pt" viewBox="0 0 65.000000 81.000000"
 preserveAspectRatio="xMidYMid meet">
<metadata>
Created by potrace 1.15, written by Peter Selinger 2001-2017
</metadata>
<g transform="translate(0.000000,81.000000) scale(0.100000,-0.100000)"
fill="#000000" stroke="none">
<path d="M46 553 c-3 -115 -9 -272 -12 -351 l-6 -142 77 0 77 0 -7 135 c-4 74
-6 135 -3 135 2 0 46 -61 98 -135 l94 -135 130 0 131 0 -185 185 -185 186 65
62 c36 34 114 108 175 165 l109 102 -81 0 -81 0 -134 -126 -133 -125 -3 125
-3 126 -58 0 -59 0 -6 -207z"/>
</g>
</svg>
