<?xml version="1.0" standalone="no"?>
<!DOCTYPE svg PUBLIC "-//W3C//DTD SVG 20010904//EN"
 "http://www.w3.org/TR/2001/REC-SVG-20010904/DTD/svg10.dtd">
<svg version="1.0" xmlns="http://www.w3.org/2000/svg"
 width="69.000000pt" height="78.000000pt" viewBox="0 0 69.000000 78.000000"
 preserveAspectRatio="xMidYMid meet">
<metadata>
Created by potrace 1.15, written by Peter Selinger 2001-2017
</metadata>
<g transform="translate(0.000000,78.000000) scale(0.100000,-0.100000)"
fill="#000000" stroke="none">
<path d="M516 688 c-3 -29 -6 -135 -6 -235 0 -100 -3 -184 -8 -186 -4 -3 -58
88 -121 201 -156 282 -139 262 -216 262 l-63 0 -6 -197 c-3 -109 -8 -264 -11
-345 l-6 -148 81 0 c73 0 81 2 76 18 -2 9 -7 105 -11 212 -3 107 -8 211 -11
230 -5 30 -3 33 8 18 7 -9 67 -120 133 -247 l120 -231 78 0 77 0 0 350 0 350
-54 0 -53 0 -7 -52z"/>
</g>
</svg>
