<?xml version="1.0" standalone="no"?>
<!DOCTYPE svg PUBLIC "-//W3C//DTD SVG 20010904//EN"
 "http://www.w3.org/TR/2001/REC-SVG-20010904/DTD/svg10.dtd">
<svg version="1.0" xmlns="http://www.w3.org/2000/svg"
 width="70.000000pt" height="84.000000pt" viewBox="0 0 70.000000 84.000000"
 preserveAspectRatio="xMidYMid meet">
<metadata>
Created by potrace 1.15, written by Peter Selinger 2001-2017
</metadata>
<g transform="translate(0.000000,84.000000) scale(0.100000,-0.100000)"
fill="#000000" stroke="none">
<path d="M72 493 l3 -258 30 -60 c39 -78 86 -111 181 -127 61 -10 81 -9 139 5
83 21 126 52 156 114 23 46 24 58 27 316 l3 267 -61 0 -60 0 -1 -212 c0 -231
-6 -268 -51 -301 -38 -29 -123 -33 -168 -10 -64 33 -70 60 -70 306 l0 217 -66
0 -66 0 4 -257z"/>
</g>
</svg>
