<?xml version="1.0" standalone="no"?>
<!DOCTYPE svg PUBLIC "-//W3C//DTD SVG 1.1//EN" "http://www.w3.org/Graphics/SVG/1.1/DTD/svg11.dtd" >
<svg xmlns="http://www.w3.org/2000/svg" xmlns:xlink="http://www.w3.org/1999/xlink" version="1.1">
<metadata>
Created by FontForge 20170924 at Tue Nov  4 22:30:54 2014
 By www-data
Original Fonts are (c) Bitstream. OpenDyslexic changes and additional glyphs by Abelardo Gonzalez are licensed under a Creative Commons Attribution 3.0 Unported License.
Based on a work at http://dyslexicfonts.com. 2012 by Abelardo Gonzalez. Copying is an act of love. Please copy.
Bitstream license available here: http://opendyslexic.org/legal/
</metadata>
<defs>
<font id="OpenDyslexicMono-Regular" horiz-adv-x="732" >
  <font-face 
    font-family="OpenDyslexicMono"
    font-weight="400"
    font-stretch="normal"
    units-per-em="1000"
    panose-1="0 0 5 0 0 0 0 0 0 0"
    ascent="800"
    descent="-200"
    x-height="547"
    cap-height="729"
    bbox="-250 -522 1167.08 1182"
    underline-thickness="50"
    underline-position="-213"
    stemh="66"
    stemv="502"
    unicode-range="U+0020-FB02"
  />
<missing-glyph 
d="M616 705h-500v-882h500v882zM561 649v-682h-389v682h389z" />
    <glyph glyph-name=".notdef" 
d="M616 705h-500v-882h500v882zM561 649v-682h-389v682h389z" />
    <glyph glyph-name="NULL" 
 />
    <glyph glyph-name="NULL" 
 />
    <glyph glyph-name="space" unicode=" " 
 />
    <glyph glyph-name="exclam" unicode="!" 
d="M310 409l-8 -149c-1 -16 7 -25 23 -25h83c16 0 24 9 23 25l-13 149l-4 296c0 16 -9 24 -25 24h-46c-15 0 -24 -8 -25 -24zM313 101l-6 -76c-2 -16 7 -25 23 -25h73c16 0 25 9 23 25l-6 76c-1 15 -9 23 -25 23h-57c-16 0 -24 -8 -25 -23z" />
    <glyph glyph-name="quotedbl" unicode="&#x22;" 
d="M288 729h-38c-17 0 -25 -8 -25 -24l-5 -238c0 -16 9 -25 24 -25h49c16 0 25 9 24 25l-4 238c0 16 -9 24 -25 24zM483 729h-39c-16 0 -24 -8 -25 -24l-3 -238c-1 -16 8 -25 23 -25h50c15 0 24 9 24 25l-5 238c0 16 -8 24 -25 24z" />
    <glyph glyph-name="numbersign" unicode="#" 
d="M345 718h-29c-15 0 -24 -7 -27 -21l-39 -161c-4 -14 -13 -21 -28 -21h-155c-16 0 -24 -8 -24 -24v-27c0 -16 9 -24 24 -24h130c17 0 26 -10 21 -27l-29 -115c-3 -14 -12 -21 -26 -21h-151c-16 0 -25 -8 -25 -25v-25c0 -17 9 -25 25 -25h126c17 0 26 -10 21 -27l-37 -148
c-4 -17 4 -27 21 -27h29c15 0 24 7 27 21l40 160c3 14 12 21 27 21h118c17 0 25 -10 21 -27l-37 -148c-4 -17 4 -27 21 -27h28c15 0 24 7 28 21l40 160c3 14 13 21 27 21h153c15 0 24 9 24 25v25c0 17 -8 25 -24 25h-128c-17 0 -25 10 -21 27l28 115c4 14 13 21 27 21h150
c15 0 24 9 24 24v27c0 16 -8 24 -24 24h-125c-17 0 -25 10 -21 27l37 148c4 18 -4 28 -21 28h-29c-14 0 -23 -7 -27 -21l-40 -161c-4 -14 -13 -21 -27 -21h-118c-17 0 -25 10 -21 27l37 148c5 18 -4 28 -21 28zM464 413l-28 -115c-4 -14 -13 -21 -27 -21h-118
c-17 0 -25 10 -21 27l29 115c3 14 13 21 27 21h117c17 0 25 -10 21 -27z" />
    <glyph glyph-name="dollar" unicode="$" 
d="M404 -118l-5 98c0 16 8 25 23 27c108 14 179 76 181 179c-5 96 -59 145 -190 171c-15 3 -23 12 -22 27l3 179c0 17 9 25 25 24c41 -5 80 -15 117 -32c17 -8 28 -1 28 17l1 24c0 14 -6 23 -20 28c-40 12 -82 20 -126 24c-16 1 -24 10 -23 26v65c1 16 -7 24 -23 25
c-16 0 -25 -9 -25 -24l-1 -67c-1 -16 -9 -24 -25 -26c-117 -12 -183 -72 -185 -172c4 -92 55 -146 176 -174c15 -3 22 -12 22 -27l-2 -146c-1 -16 -10 -24 -26 -23c-48 5 -98 21 -146 48c-17 10 -29 3 -30 -16l-1 -63c0 -14 6 -24 19 -29c53 -22 106 -34 156 -39
c16 -1 24 -10 23 -26l-8 -97c-2 -16 7 -25 23 -26h37c17 -1 25 8 24 25zM337 559l-4 -166c0 -17 -11 -25 -27 -21c-65 17 -99 53 -99 103s38 92 104 107c16 3 26 -6 26 -23zM391 126l-4 128c0 17 10 26 28 21c61 -17 91 -48 91 -98c0 -51 -34 -63 -89 -73
c-16 -2 -26 6 -26 22z" />
    <glyph glyph-name="percent" unicode="%" 
d="M227 858c-103 0 -169 -77 -169 -198c0 -122 65 -199 169 -199c103 0 169 76 169 199c0 122 -66 198 -169 198zM227 796c56 0 90 -51 90 -133c0 -84 -34 -105 -90 -105c-57 0 -91 21 -91 105c0 83 34 133 91 133zM525 726l-433 -711c-10 -16 -4 -29 16 -29h26
c13 0 22 5 29 16l432 711c10 16 4 29 -16 29h-25c-13 0 -22 -5 -29 -16zM506 343c-103 0 -169 -76 -169 -198s65 -199 169 -199c102 0 168 77 168 199c0 121 -65 198 -168 198zM506 281c56 0 90 -48 90 -127c0 -78 -34 -98 -90 -98s-90 20 -90 98c0 80 34 127 90 127z" />
    <glyph glyph-name="ampersand" unicode="&#x26;" 
d="M482 221l-218 245c-29 33 -50 55 -59 72c-10 16 -15 33 -15 49c0 58 47 98 116 98c38 0 59 -15 100 -38c14 -8 27 -5 34 10l12 24c7 14 3 27 -13 32c-46 17 -88 26 -109 29c-117 17 -198 -70 -198 -175c0 -33 12 -67 34 -102c8 -13 7 -24 -5 -34
c-75 -61 -112 -129 -112 -206c0 -140 109 -229 267 -239c51 -3 116 19 178 67c12 10 24 10 34 -1l42 -43c9 -9 17 -12 30 -12h63c22 0 28 14 13 30l-92 93c-10 10 -10 22 -2 34c43 68 51 138 57 208c2 16 -7 26 -23 26h-41c-16 0 -25 -9 -26 -24c-4 -52 -10 -96 -33 -139
c-8 -17 -22 -17 -34 -4zM222 393l198 -233c11 -13 10 -25 -3 -35c-42 -31 -87 -46 -115 -43c-105 10 -183 71 -183 167c0 52 21 98 68 145c12 12 24 11 35 -1z" />
    <glyph glyph-name="quotesingle" unicode="'" 
d="M406 729h-36c-16 0 -24 -7 -27 -22l-40 -223c-3 -16 5 -26 22 -26h81c15 0 24 9 24 24v223c0 15 -8 24 -24 24z" />
    <glyph glyph-name="parenleft" unicode="(" 
d="M471 758l-26 3c-13 1 -22 -3 -30 -14c-104 -140 -161 -275 -173 -415c0 -140 26 -285 85 -438c5 -13 13 -19 27 -20l50 -4c19 -1 27 10 19 28c-62 145 -75 285 -81 426c6 140 55 272 143 404c11 16 5 29 -14 30z" />
    <glyph glyph-name="parenright" unicode=")" 
d="M364 770l-25 2c-20 2 -27 -10 -20 -28c61 -145 77 -283 77 -423c-13 -140 -62 -273 -149 -405c-11 -17 -4 -29 15 -30l58 -4c13 -1 23 4 30 16c74 139 140 274 140 415c0 139 -21 283 -98 438c-6 12 -15 18 -28 19z" />
    <glyph glyph-name="asterisk" unicode="*" 
d="M582 629l-2 16c-3 19 -15 25 -31 15l-128 -83c-16 -11 -29 -4 -29 16v121c0 17 -10 25 -27 21l-26 -6c-15 -4 -21 -14 -19 -29l12 -104c2 -21 -10 -29 -28 -18l-111 67c-13 8 -25 5 -33 -8l-16 -25c-9 -14 -5 -27 11 -32l128 -52c20 -7 21 -23 2 -32l-118 -65
c-15 -8 -18 -20 -8 -33l18 -26c10 -13 22 -15 34 -4l96 78c16 13 29 7 29 -14v-119c0 -17 10 -25 27 -21l26 4c15 3 22 13 20 28l-13 109c-2 20 11 28 28 18l112 -68c13 -8 25 -6 34 7l18 26c10 14 6 26 -10 33l-132 51c-20 8 -21 23 -2 33l122 66c13 7 17 16 16 30z" />
    <glyph glyph-name="plus" unicode="+" 
d="M383 627h-33c-17 0 -25 -9 -25 -24v-224c0 -16 -8 -24 -24 -24h-223c-16 0 -25 -8 -25 -24v-35c0 -16 9 -24 25 -24h223c16 0 24 -8 24 -24v-224c0 -16 9 -24 25 -24h33c15 0 24 9 24 24v224c0 16 9 24 25 24h223c16 0 24 9 24 24v35c0 16 -9 24 -24 24h-223
c-16 0 -25 9 -25 24v224c0 16 -9 24 -24 24z" />
    <glyph glyph-name="comma" unicode="," 
d="M326 95v-64c0 -11 -1 -19 -4 -30l-37 -114c-5 -17 3 -28 21 -28h15c12 0 22 5 29 16l89 127c7 10 10 19 10 30v63c0 16 -9 24 -25 24h-73c-17 0 -25 -8 -25 -24z" />
    <glyph glyph-name="hyphen" unicode="-" 
d="M232 260l6 37c2 15 11 22 26 22l214 4c17 1 25 -9 22 -26l-5 -36c-3 -15 -11 -23 -26 -23l-214 -4c-17 0 -26 10 -23 26z" />
    <glyph glyph-name="period" unicode="." 
d="M296 139l-6 -114c-1 -16 7 -25 23 -25h97c16 0 25 8 26 23l6 114c1 16 -7 25 -24 25h-96c-16 0 -25 -8 -26 -23z" />
    <glyph glyph-name="slash" unicode="/" 
d="M463 700l-266 -765c-5 -17 2 -28 20 -29l62 -2c14 0 23 6 28 20l229 766c5 17 -3 28 -21 28l-24 1c-14 1 -23 -6 -28 -19z" />
    <glyph glyph-name="zero" unicode="0" 
d="M371 742c-163 0 -250 -132 -257 -378c0 -246 84 -378 247 -378c164 0 251 132 257 378c0 246 -83 378 -247 378zM371 703c102 0 153 -89 153 -268c-13 -179 -61 -268 -163 -268c-101 0 -143 83 -143 268c0 179 52 268 153 268zM366 324c-41 0 -52 49 -52 86
c0 57 6 113 52 113c42 0 51 -43 51 -113c0 -37 -9 -86 -51 -86z" />
    <glyph glyph-name="one" unicode="1" 
d="M164 112v-88c0 -15 8 -24 24 -24h371c16 0 24 9 24 24v88c0 16 -8 25 -24 25h-112c-16 0 -25 9 -25 24v544c0 16 -8 24 -24 24h-60c-10 0 -18 -1 -29 -3l-138 -28c-14 -3 -22 -11 -22 -26v-41c0 -17 10 -25 27 -22l122 25c17 3 27 -5 27 -22v-451c0 -15 -9 -24 -25 -24
h-112c-16 0 -24 -9 -24 -25z" />
    <glyph glyph-name="two" unicode="2" 
d="M573 142h-187c-18 0 -28 11 -20 27c14 34 38 68 72 103c43 45 69 73 78 82c59 73 78 120 78 180c0 127 -97 208 -248 208c-53 0 -116 -14 -187 -41c-13 -5 -19 -13 -19 -28v-46c0 -19 11 -26 29 -17c66 33 124 49 179 49c87 0 147 -54 147 -131c0 -24 -7 -48 -19 -72
c-25 -50 -62 -97 -178 -185c-52 -40 -102 -79 -149 -118c-10 -8 -14 -17 -14 -29v-100c0 -16 9 -24 24 -24h414c16 0 25 9 25 24v93c0 16 -9 25 -25 25z" />
    <glyph glyph-name="three" unicode="3" 
d="M481 389c-16 4 -16 6 -1 12c71 25 109 80 109 152c0 116 -93 189 -243 189c-53 0 -111 -8 -177 -25c-14 -4 -21 -13 -21 -28v-27c0 -18 11 -25 28 -20c62 19 114 27 161 27c100 0 154 -42 154 -116c0 -73 -53 -113 -150 -113h-64c-16 0 -25 -8 -25 -24v-33
c0 -16 9 -24 25 -24h60c108 0 171 -56 171 -123c0 -17 -16 -39 -48 -67c-33 -28 -80 -42 -142 -42c-59 0 -114 12 -163 34c-17 8 -29 2 -29 -17v-101c0 -14 7 -23 20 -28c62 -19 120 -29 175 -29c182 0 285 79 285 236c0 85 -45 151 -125 167z" />
    <glyph glyph-name="four" unicode="4" 
d="M394 713l-284 -432c-7 -10 -9 -18 -9 -31v-20c0 -15 8 -24 24 -24h270c16 0 24 -9 24 -25l-8 -156c0 -16 8 -25 24 -25h83c16 0 24 9 24 25l-8 156c-1 16 8 25 24 25h49c17 0 25 9 25 24v34c0 15 -8 24 -25 24h-50c-16 0 -24 8 -25 25l-4 392c0 16 -8 24 -25 24h-80
c-13 0 -22 -5 -29 -16zM429 621l-4 -308c0 -17 -8 -25 -25 -25h-184c-20 0 -27 13 -16 29l199 313c14 20 30 16 30 -9z" />
    <glyph glyph-name="five" unicode="5" 
d="M161 705v-311c0 -19 11 -26 28 -19c45 16 88 24 131 24c113 0 179 -49 179 -150c0 -50 -66 -126 -179 -126c-58 0 -111 11 -161 33c-17 8 -29 1 -29 -18v-99c0 -15 7 -24 21 -28c60 -17 117 -25 171 -25c178 0 280 91 280 248c0 152 -102 248 -265 248
c-22 0 -42 -3 -68 -8c-17 -4 -27 4 -27 21v136c0 16 8 25 24 25h258c16 0 24 9 24 24v25c0 16 -8 24 -24 24h-338c-16 0 -25 -8 -25 -24z" />
    <glyph glyph-name="six" unicode="6" 
d="M571 654v38c0 14 -7 23 -20 28c-47 15 -91 22 -134 22c-184 0 -303 -148 -303 -378c0 -246 93 -378 261 -378c147 0 243 98 243 248c0 153 -91 248 -237 248c-57 0 -108 -21 -145 -60c-14 -15 -22 -12 -20 9c17 153 84 228 205 228c40 0 81 -8 121 -24c18 -7 29 0 29 19z
M375 404c88 0 144 -65 144 -170c0 -66 -56 -107 -144 -107s-144 41 -144 107c0 105 56 170 144 170z" />
    <glyph glyph-name="seven" unicode="7" 
d="M134 705v-25c0 -15 9 -24 25 -24h319c19 0 27 -11 19 -29l-274 -599c-8 -17 0 -28 19 -28h124c14 0 22 7 27 21l201 651c4 11 4 19 4 30v3c0 15 -8 24 -24 24h-415c-16 0 -25 -8 -25 -24z" />
    <glyph glyph-name="eight" unicode="8" 
d="M241 396c16 -6 16 -10 0 -16c-81 -27 -135 -90 -135 -175c0 -141 100 -219 260 -219c161 0 260 78 260 219c0 85 -54 148 -134 176c-16 5 -16 9 -1 15c67 27 98 83 98 157c0 104 -78 179 -223 179c-144 0 -223 -75 -223 -179c0 -74 32 -130 98 -157zM231 573
c0 63 50 111 135 111s135 -48 135 -111c0 -75 -50 -120 -135 -120s-135 45 -135 120zM366 356c94 0 152 -53 152 -141c0 -48 -58 -107 -152 -107s-151 58 -151 107c0 88 57 141 151 141z" />
    <glyph glyph-name="nine" unicode="9" 
d="M178 93v-82c0 -14 6 -23 20 -28c244 0 405 118 405 381c0 248 -91 378 -260 378c-117 0 -213 -98 -213 -248c0 -153 91 -181 206 -181c58 0 126 12 163 40c17 13 22 12 20 -9c-18 -150 -158 -219 -313 -219c-18 0 -28 -14 -28 -32zM334 425c-107 0 -145 23 -145 85
c0 105 38 170 145 170c108 0 176 -65 176 -170c0 -69 -68 -85 -176 -85z" />
    <glyph glyph-name="colon" unicode=":" 
d="M303 513v-90c0 -16 9 -25 24 -25h79c16 0 24 9 24 25v90c0 16 -8 25 -24 25h-79c-16 0 -24 -9 -24 -25zM303 125v-101c0 -15 9 -24 24 -24h79c16 0 24 9 24 24v101c0 16 -8 24 -24 24h-79c-16 0 -24 -8 -24 -24z" />
    <glyph glyph-name="semicolon" unicode=";" 
d="M325 511v-94c0 -16 9 -25 25 -25h69c17 0 25 9 25 25v94c0 16 -8 24 -25 24h-69c-17 0 -25 -8 -25 -24zM328 82v-54c0 -11 -1 -19 -4 -29l-34 -132c-4 -17 4 -27 21 -27h22c14 0 23 5 29 17l73 142c5 10 7 19 7 30v53c0 16 -8 24 -25 24h-65c-16 0 -24 -8 -24 -24z" />
    <glyph glyph-name="less" unicode="&#x3c;" 
d="M687 502l3 39c2 18 -8 26 -26 22l-594 -159c-14 -4 -21 -12 -22 -26l-6 -69c-1 -14 4 -23 17 -29l558 -259c16 -8 28 -1 29 17l6 67c2 14 -4 24 -17 30l-424 193c-21 9 -20 26 2 31l452 118c14 3 21 12 22 25z" />
    <glyph glyph-name="equal" unicode="=" 
d="M53 430v-34c0 -16 9 -24 25 -24h577c16 0 24 9 24 24v34c0 15 -8 24 -24 24h-577c-16 0 -25 -9 -25 -24zM53 245v-49c0 -15 9 -24 25 -24h577c16 0 24 9 24 24v49c0 16 -8 25 -24 25h-577c-16 0 -25 -9 -25 -25z" />
    <glyph glyph-name="greater" unicode="&#x3e;" 
d="M100 532l423 -194c21 -9 19 -26 -2 -31l-451 -117c-14 -4 -21 -12 -22 -26l-6 -67c-1 -18 9 -27 26 -22l595 158c14 4 21 12 22 26l6 69c1 14 -4 24 -18 29l-557 260c-16 8 -28 1 -30 -17l-3 -38c-1 -15 4 -24 17 -30z" />
    <glyph glyph-name="question" unicode="?" 
d="M395 220v36c0 17 0 30 1 40c2 19 5 33 18 50l15 23c6 9 10 16 17 24l29 31c52 56 84 97 84 146c0 103 -75 172 -194 172c-61 0 -118 -15 -174 -45c-12 -7 -17 -16 -17 -30v-22c0 -20 13 -26 30 -16c52 31 101 48 144 48c64 0 108 -45 115 -97c2 -11 1 -19 -3 -29
c-9 -24 -30 -42 -73 -77l-49 -43c-58 -56 -71 -94 -71 -160v-51c0 -16 9 -24 25 -24h78c16 0 25 9 25 24zM264 109v-89c0 -16 9 -25 25 -25h79c16 0 25 9 25 25v89c0 16 -9 25 -25 25h-79c-17 0 -25 -9 -25 -25z" />
    <glyph glyph-name="at" unicode="@" 
d="M506 76v-17c0 -12 9 -18 26 -17c167 13 266 116 266 279c0 80 -26 156 -75 220c-80 104 -202 163 -341 163c-123 0 -236 -45 -320 -128c-82 -81 -128 -192 -128 -311c0 -123 45 -232 128 -314c84 -81 192 -125 313 -125c92 0 184 30 261 85c12 8 15 20 9 33l-23 44
c-7 15 -19 18 -33 9c-64 -42 -139 -62 -214 -62c-102 0 -185 22 -253 89c-84 89 -119 138 -119 241c0 126 61 239 163 306c63 41 137 63 217 63c115 0 215 -47 283 -132c42 -52 62 -113 62 -183c0 -104 -46 -176 -125 -200c-17 -5 -27 4 -27 21v308c0 15 -8 24 -24 24h-21
c-16 0 -25 -4 -25 -12v-11c0 -22 -11 -26 -27 -11c-35 29 -76 44 -128 44c-111 0 -189 -89 -189 -220c0 -130 77 -219 189 -219c52 0 93 14 128 43c16 15 27 11 27 -10zM226 302c0 82 50 134 128 134c80 0 130 -52 130 -134s-48 -134 -129 -134c-80 0 -129 51 -129 134z" />
    <glyph glyph-name="A" unicode="A" 
d="M313 710l-270 -682c-6 -17 1 -28 20 -28h82c14 0 22 6 27 20l24 79c5 13 13 20 28 20h285c15 0 24 -7 27 -22l18 -76c3 -14 12 -21 27 -21h89c18 0 26 11 19 28l-269 682c-5 13 -14 19 -28 19h-51c-14 0 -23 -6 -28 -19zM382 592l109 -329c6 -17 -2 -28 -20 -28h-209
c-18 0 -26 11 -20 28l109 329c7 22 24 22 31 0z" />
    <glyph glyph-name="B" unicode="B" 
d="M103 705v-681c0 -15 8 -24 24 -24h238c163 0 265 74 265 204c0 92 -50 158 -162 184c-16 4 -16 6 0 11c64 19 97 70 97 150c0 115 -84 180 -234 180h-204c-16 0 -24 -8 -24 -24zM226 663h122c96 0 143 -51 143 -125s-47 -110 -143 -110h-122c-16 0 -24 9 -24 25v185
c0 16 8 25 24 25zM226 348h134c53 0 92 -11 118 -32c25 -22 38 -41 38 -57c0 -91 -50 -114 -156 -114h-134c-16 0 -24 8 -24 24v155c0 16 8 24 24 24z" />
    <glyph glyph-name="C" unicode="C" 
d="M660 607v47c0 13 -4 22 -16 29c-63 40 -135 59 -216 59c-220 0 -356 -144 -356 -378s136 -378 356 -378c80 0 152 20 216 60c11 7 16 16 16 29v114c0 21 -13 26 -29 14c-59 -46 -125 -68 -197 -68c-166 0 -255 58 -258 229c0 193 92 297 258 297c72 0 138 -22 197 -67
c16 -13 29 -8 29 13z" />
    <glyph glyph-name="D" unicode="D" 
d="M85 705v-681c0 -15 9 -24 24 -24h179c231 0 360 114 360 365c0 250 -127 364 -360 364h-179c-15 0 -24 -8 -24 -24zM213 648h95c146 0 236 -86 241 -258c0 -11 -1 -19 -4 -30c-33 -137 -93 -176 -237 -176h-95c-16 0 -24 8 -24 24v416c0 16 9 24 24 24z" />
    <glyph glyph-name="E" unicode="E" 
d="M131 705v-681c0 -15 9 -24 25 -24h421c16 0 24 9 24 24v103c0 16 -8 24 -24 24h-323c-15 0 -24 9 -24 25v147c0 16 9 24 24 24h299c15 0 24 9 24 25v34c0 16 -8 24 -24 24h-299c-15 0 -24 9 -24 25v167c0 16 9 24 24 24h314c15 0 24 9 24 24v35c0 16 -8 24 -24 24h-412
c-16 0 -25 -8 -25 -24z" />
    <glyph glyph-name="F" unicode="F" 
d="M176 705l-19 -680c0 -16 9 -25 25 -25h73c16 0 24 9 24 25l-8 279c0 16 8 25 24 25h230c16 0 24 8 24 24v54c0 16 -8 24 -24 24h-235c-16 0 -24 9 -24 25l8 161c0 16 9 24 25 24h252c16 0 25 9 25 25v39c0 15 -9 24 -25 24h-351c-15 0 -24 -8 -24 -24z" />
    <glyph glyph-name="G" unicode="G" 
d="M548 236v-36c0 -12 -3 -22 -14 -29c-29 -18 -80 -26 -138 -26c-149 0 -213 49 -220 229c0 197 95 297 220 297c78 0 150 -24 216 -70c16 -13 29 -7 29 14v39c0 13 -5 22 -16 29c-69 39 -150 59 -238 59c-174 0 -315 -140 -315 -378s66 -364 315 -378c97 -6 184 24 258 71
c11 7 15 17 15 30v255c0 15 -8 24 -24 24h-235c-15 0 -24 -8 -24 -24v-57c0 -15 9 -24 24 -24h122c17 0 25 -9 25 -25z" />
    <glyph glyph-name="H" unicode="H" 
d="M93 705l-9 -681c-1 -15 8 -24 24 -24h64c16 0 25 8 25 24v196c0 16 9 25 24 25h290c16 0 25 -9 25 -25v-196c0 -16 8 -24 24 -24h65c15 0 24 9 23 24l-8 681c-1 16 -9 24 -25 24h-55c-16 0 -24 -9 -24 -24v-299c0 -16 -9 -25 -25 -25h-290c-16 0 -24 9 -24 25v299
c0 15 -9 24 -25 24h-54c-16 0 -25 -8 -25 -24z" />
    <glyph glyph-name="I" unicode="I" 
d="M309 25c-1 -16 7 -25 24 -25h67c17 0 25 9 24 25c-11 226 -10 453 -13 680c0 16 -9 24 -25 24h-35c-16 0 -24 -8 -25 -24c-4 -227 -5 -453 -17 -680z" />
    <glyph glyph-name="J" unicode="J" 
d="M332 705l-40 -668c-3 -39 -35 -82 -111 -91c-12 -1 -19 0 -30 2l-8 2c-17 4 -27 -4 -27 -22l1 -110c1 -15 8 -24 24 -26l34 -3c154 3 222 66 230 242l30 668c1 16 -7 25 -23 26l-55 4c-16 0 -24 -8 -25 -24z" />
    <glyph glyph-name="K" unicode="K" 
d="M102 705l-19 -680c0 -16 8 -25 24 -25h79c16 0 24 9 23 25l-15 270c-1 24 15 30 29 11l205 -291c7 -11 16 -15 29 -15h171c22 0 28 15 13 30l-340 342c-11 11 -11 23 0 34l312 293c16 15 11 30 -12 30h-65c-13 0 -21 -3 -31 -12l-283 -267c-16 -15 -31 -9 -30 13l8 241
c0 16 -8 25 -24 25h-50c-16 0 -24 -8 -24 -24z" />
    <glyph glyph-name="L" unicode="L" 
d="M146 705l-8 -681c-1 -15 8 -24 24 -24h401c15 0 23 8 24 23l7 103c1 17 -7 25 -24 25h-305c-15 0 -24 9 -24 25l5 529c0 15 -9 24 -25 24h-50c-16 0 -24 -8 -25 -24z" />
    <glyph glyph-name="M" unicode="M" 
d="M62 705l-14 -680c-1 -16 8 -25 24 -25h85c16 0 25 9 24 25l-15 523c-1 21 21 25 26 5l108 -427c3 -14 13 -20 28 -20h76c14 0 25 6 28 20l108 427c5 20 27 16 26 -5l-15 -523c-1 -16 8 -25 24 -25h85c16 0 25 9 25 25l-14 680c-1 16 -9 24 -25 24h-93
c-13 0 -23 -6 -28 -19l-143 -376c-7 -20 -25 -20 -32 0l-133 376c-5 13 -14 19 -29 19h-102c-16 0 -24 -8 -24 -24z" />
    <glyph glyph-name="N" unicode="N" 
d="M104 690l-18 -665c-1 -16 8 -25 24 -25h76c16 0 24 9 23 25l-24 517c-2 25 16 30 28 8l282 -532c6 -13 15 -18 29 -18h99c15 0 24 9 24 24v681c0 15 -8 24 -24 24h-43c-16 0 -24 -8 -24 -24l-13 -508c-1 -24 -18 -28 -30 -7l-276 507c-6 12 -15 17 -29 17h-79
c-16 0 -24 -8 -25 -24z" />
    <glyph glyph-name="O" unicode="O" 
d="M367 742c-186 0 -314 -148 -314 -378c0 -231 128 -378 314 -378c185 0 312 148 312 378s-127 378 -312 378zM367 662c123 0 208 -114 208 -298c0 -151 -85 -191 -208 -191c-124 0 -210 40 -210 191c0 184 86 298 210 298z" />
    <glyph glyph-name="P" unicode="P" 
d="M146 705l-27 -680c0 -16 8 -25 24 -25h69c16 0 25 8 25 24l8 235c1 16 9 24 25 24h95c164 0 248 84 248 228c0 143 -84 218 -248 218h-194c-15 0 -24 -8 -25 -24zM275 687h100c98 0 154 -49 154 -137s-56 -137 -154 -137h-109c-16 0 -24 9 -24 25l8 225c0 16 9 24 25 24z
" />
    <glyph glyph-name="Q" unicode="Q" 
d="M688 -99l-111 124c-11 12 -11 23 -1 35c52 62 106 149 106 304c0 230 -128 378 -323 378s-323 -148 -323 -378s120 -378 318 -378c7 0 13 0 22 1c14 0 23 -3 32 -13l79 -89c8 -10 17 -14 30 -14h158c21 0 28 14 13 30zM359 662c134 0 219 -114 219 -298
c0 -70 -12 -101 -63 -135c-41 -27 -73 7 -112 27c-14 7 -25 4 -33 -9c-42 -63 -28 -67 -62 -61l-26 3c-58 7 -142 24 -142 175c0 184 86 298 219 298z" />
    <glyph glyph-name="R" unicode="R" 
d="M457 331c-14 8 -14 13 1 21c54 29 86 86 86 167c0 141 -86 210 -233 210h-199c-16 0 -24 -8 -24 -24v-681c0 -15 9 -24 24 -24h70c16 0 24 9 24 24v260c0 16 9 24 24 24h49c78 0 115 -23 163 -121l66 -168c5 -13 14 -19 28 -19h88c19 0 26 12 17 29l-85 170
c-34 67 -65 110 -99 132zM221 677h99c76 0 154 -33 154 -158c0 -59 -78 -110 -154 -110h-99c-16 0 -25 8 -25 24v220c0 15 9 24 25 24z" />
    <glyph glyph-name="S" unicode="S" 
d="M579 640v44c0 14 -6 24 -20 27c-67 21 -131 31 -193 31c-160 0 -257 -79 -257 -208c0 -111 63 -170 210 -199l60 -12c100 -20 141 -66 141 -105c0 -43 -63 -98 -176 -98c-65 0 -133 17 -202 52c-17 9 -30 2 -30 -17v-102c0 -14 7 -23 21 -28c75 -26 147 -39 211 -39
c183 0 279 74 279 215c0 119 -68 188 -215 216l-60 12c-108 20 -139 49 -139 113c0 77 61 120 168 120c54 0 110 -13 173 -40c17 -8 29 0 29 18z" />
    <glyph glyph-name="T" unicode="T" 
d="M58 705v-34c0 -16 8 -25 25 -24l209 8c16 0 24 -8 24 -25l-23 -605c0 -16 8 -25 24 -25h99c16 0 24 9 23 25l-22 605c0 17 8 25 24 25l209 -8c16 -1 25 8 25 24v34c0 15 -8 24 -25 24h-568c-16 0 -24 -8 -24 -24z" />
    <glyph glyph-name="U" unicode="U" 
d="M82 705l5 -431c2 -190 96 -288 280 -288c183 0 277 98 279 288l4 431c0 15 -8 24 -24 24h-55c-16 0 -24 -9 -24 -25l4 -350c2 -156 -58 -220 -184 -220c-127 0 -187 64 -185 220l4 350c0 16 -8 25 -24 25h-56c-16 0 -24 -8 -24 -24z" />
    <glyph glyph-name="V" unicode="V" 
d="M307 0h119c14 0 24 6 28 20l202 681c5 17 -2 28 -20 28h-52c-14 0 -24 -6 -28 -19l-174 -488c-7 -20 -25 -20 -32 0l-173 488c-4 13 -14 19 -28 19h-53c-18 0 -25 -11 -20 -28l203 -681c4 -14 14 -20 28 -20z" />
    <glyph glyph-name="W" unicode="W" 
d="M49 702l41 -680c1 -15 12 -22 27 -22h111c14 0 23 5 29 18l91 194c10 22 22 22 31 0l87 -193c6 -13 14 -19 28 -19h102c14 0 25 7 27 21l65 681c1 17 -5 27 -22 27h-46c-15 0 -26 -7 -28 -21l-50 -469c-2 -22 -22 -23 -32 -2l-97 206c-6 12 -15 17 -29 17h-47
c-13 0 -23 -5 -29 -17l-108 -203c-12 -21 -32 -18 -33 3l-23 465c0 14 -13 21 -27 21h-46c-17 0 -23 -10 -22 -27z" />
    <glyph glyph-name="X" unicode="X" 
d="M103 700l191 -342c7 -12 6 -23 -2 -34l-216 -294c-13 -17 -6 -30 15 -30h103c14 0 23 5 30 17l126 215c9 17 24 17 33 0l125 -215c7 -12 16 -17 30 -17h104c20 0 26 13 15 30l-208 293c-8 12 -9 22 -1 34l197 343c10 17 3 29 -17 29h-52c-14 0 -23 -5 -30 -17l-155 -264
c-10 -17 -24 -17 -34 0l-154 264c-7 12 -16 17 -30 17h-53c-19 0 -26 -12 -17 -29z" />
    <glyph glyph-name="Y" unicode="Y" 
d="M73 700l217 -436c5 -11 7 -19 7 -31v-209c0 -16 9 -24 25 -24h84c16 0 25 9 25 24v209c0 12 2 20 7 31l221 436c9 17 2 29 -17 29h-55c-13 0 -22 -5 -28 -17l-175 -325c-9 -17 -24 -17 -33 0l-177 325c-6 12 -15 17 -28 17h-55c-19 0 -26 -12 -18 -29z" />
    <glyph glyph-name="Z" unicode="Z" 
d="M63 705v-35c0 -15 8 -24 24 -24h385c22 0 28 -14 13 -30l-412 -465c-8 -9 -12 -17 -12 -30v-97c0 -15 9 -24 24 -24h552c16 0 25 9 25 24v98c0 16 -9 24 -25 24h-412c-21 0 -27 15 -13 30l412 465c8 9 12 18 12 30v34c0 15 -9 24 -25 24h-524c-16 0 -24 -8 -24 -24z" />
    <glyph glyph-name="bracketleft" unicode="[" 
d="M276 736l-27 -843c-1 -16 7 -25 23 -25h168c16 0 24 8 24 25v60c0 15 -8 24 -24 24h-68c-17 0 -25 8 -25 24l20 665c0 15 8 24 24 24h68c16 0 25 9 25 24v21c0 16 -8 25 -25 25h-158c-16 0 -25 -9 -25 -24z" />
    <glyph glyph-name="backslash" unicode="\" 
d="M183 727l-34 1c-17 1 -29 -10 -21 -27l362 -782c6 -14 12 -21 27 -22l66 -2c18 0 29 10 21 27l-394 784c-7 14 -13 21 -27 21z" />
    <glyph glyph-name="bracketright" unicode="]" 
d="M418 760h-159c-16 0 -24 -9 -24 -25v-21c0 -15 9 -24 24 -24h68c16 0 23 -8 25 -24l56 -669c2 -16 -33 -25 -49 -25h-67c-16 0 -25 -9 -25 -24v-55c0 -16 9 -25 25 -25h181c17 0 25 9 24 26l-54 842c-1 15 -9 24 -25 24z" />
    <glyph glyph-name="asciicircum" unicode="^" 
d="M387 729h-41c-13 0 -21 -3 -31 -12l-232 -230c-15 -15 -9 -30 13 -30h91c13 0 21 4 29 15l133 184c10 14 24 14 34 0l134 -184c7 -11 16 -15 29 -15h90c22 0 29 15 13 30l-232 230c-9 9 -18 12 -30 12z" />
    <glyph glyph-name="underscore" unicode="_" 
d="M602 -129h-471c-16 0 -25 -9 -25 -24v-39c0 -16 9 -24 25 -24h471c16 0 24 8 24 24v39c0 15 -9 24 -24 24z" />
    <glyph glyph-name="grave" unicode="`" 
d="M329 839h-44c-19 0 -27 -12 -17 -29l75 -137c6 -11 15 -17 29 -17h76c21 0 27 13 15 30l-104 138c-8 10 -17 15 -30 15z" />
    <glyph glyph-name="a" unicode="a" 
d="M361 560c159 0 236 -81 236 -248v-288c0 -15 -8 -24 -24 -24h-41c-16 0 -25 8 -25 24v11c0 22 -11 26 -27 10c-39 -39 -91 -59 -162 -59c-111 0 -183 68 -183 173c0 123 83 186 246 186h102c16 0 24 3 24 9c0 83 -50 133 -155 140c-52 0 -102 -11 -148 -31
c-17 -8 -29 -1 -29 17v21c0 14 7 23 20 28c58 21 114 31 166 31zM332 123c89 0 124 19 125 133c0 15 -9 23 -24 23h-57c-122 0 -160 -24 -165 -81c-1 -10 -1 -18 3 -29c15 -42 59 -46 118 -46z" />
    <glyph glyph-name="b" unicode="b" 
d="M169 99c-19 41 -24 329 -42 635c-1 16 8 26 24 26h40c17 0 25 -9 24 -25l-7 -218c-1 -22 9 -25 24 -9c37 38 86 52 149 52c133 0 224 -115 224 -287s-91 -287 -224 -287c-143 0 -186 41 -212 113zM546 278c2 12 2 19 2 31c-7 117 -54 187 -146 187
c-95 0 -152 -75 -152 -207c13 -101 21 -143 152 -143c77 5 126 32 144 132z" />
    <glyph glyph-name="c" unicode="c" 
d="M583 479v28c0 14 -6 23 -19 28c-44 17 -91 25 -139 25c-171 0 -275 -109 -275 -287c0 -176 104 -287 269 -287c53 0 100 9 145 27c13 5 19 14 18 29l-1 90c0 18 -11 24 -28 18c-42 -14 -85 -9 -128 -9c-117 6 -166 38 -175 132c0 133 62 216 179 216c42 0 84 -9 125 -27
c17 -8 29 -1 29 17z" />
    <glyph glyph-name="d" unicode="d" 
d="M550 760h41c16 0 25 -9 24 -25l-9 -711c0 -16 -8 -24 -24 -24h-41c-17 0 -25 9 -25 24v14c0 22 -11 25 -26 8c-36 -41 -85 -60 -149 -60c-133 0 -224 115 -224 287s91 287 224 287c64 0 114 -20 150 -60c14 -18 26 -15 27 7l7 229c0 15 9 24 25 24zM334 495
c-91 0 -148 -74 -152 -197c0 -11 0 -19 2 -30c17 -84 58 -119 148 -119c95 0 141 20 144 141c-3 132 -46 205 -142 205z" />
    <glyph glyph-name="e" unicode="e" 
d="M617 310v9c-12 157 -87 235 -233 241c-165 0 -262 -123 -269 -303c0 -173 106 -265 280 -271c63 0 125 12 184 30c13 4 19 14 18 28l-1 73c0 18 -11 23 -28 18c-55 -16 -111 -16 -170 -16c-111 6 -178 17 -188 141c-1 16 8 25 24 25h359c15 0 24 9 24 25zM511 359
l-266 -1c-17 0 -27 10 -23 26c14 58 75 129 162 129c76 0 128 -73 148 -127c6 -16 -4 -27 -21 -27z" />
    <glyph glyph-name="f" unicode="f" 
d="M523 838l-57 7c-84 0 -153 -43 -155 -260l-2 -15c-2 -15 -11 -23 -26 -23h-103c-16 0 -25 -8 -25 -25v-40c0 -16 9 -24 25 -24h101c16 0 26 -9 24 -25l-34 -408c-2 -16 7 -25 23 -25h102c16 0 24 9 24 25l-13 408c0 16 8 25 24 25h122c15 0 24 8 24 24v40
c0 17 -8 25 -24 25h-123c-16 0 -25 8 -26 23l-3 25c2 163 19 176 64 176l55 -7c17 -2 26 6 26 23v26c0 15 -8 23 -23 25z" />
    <glyph glyph-name="g" unicode="g" 
d="M601 68l14 454c0 16 -8 25 -24 25h-42c-15 0 -24 -7 -26 -21l-2 -21c-2 -22 -15 -24 -29 -7c-36 42 -86 62 -151 62c-134 0 -224 -111 -224 -280s90 -280 224 -280c61 0 110 21 143 51c29 26 21 -3 15 -41c-23 -153 -75 -218 -169 -218c-43 0 -85 8 -128 27
c-17 8 -29 1 -29 -17v-108c0 -14 7 -23 20 -27c47 -15 96 -22 151 -22c171 0 247 78 257 423zM477 285c0 -129 -63 -139 -160 -139c-96 0 -133 10 -146 139c0 131 57 205 153 205c97 0 153 -74 153 -205z" />
    <glyph glyph-name="h" unicode="h" 
d="M614 25l-9 305c0 151 -65 230 -190 230c-61 0 -110 -20 -149 -62c-16 -17 -27 -13 -27 9l8 328c1 16 -8 25 -24 25h-41c-16 0 -24 -8 -25 -24l-38 -811c-1 -16 8 -25 24 -25h80c16 0 24 9 24 25l-9 284c0 107 59 183 157 183c80 0 126 -40 121 -165l-14 -302
c-1 -16 8 -25 24 -25h64c16 0 25 9 24 25z" />
    <glyph glyph-name="i" unicode="i" 
d="M318 741l-3 -65c0 -16 8 -25 24 -25h50c16 0 25 9 24 25l-3 65c0 15 -9 24 -25 24h-42c-15 0 -24 -9 -25 -24zM269 20c-4 -17 7 -25 24 -25h133c16 0 30 9 23 26c-47 116 -43 322 -18 496c3 16 -8 25 -24 25h-82c-16 0 -30 -9 -25 -22c71 -204 29 -265 -31 -500z" />
    <glyph glyph-name="j" unicode="j" 
d="M331 736l-3 -65c-1 -16 7 -25 24 -25h40c16 0 24 9 24 25l-3 65c-1 15 -10 24 -25 24h-33c-15 0 -24 -9 -24 -24zM306 521l-7 -475c-2 -179 -101 -217 -169 -223h-14c-16 1 -25 -8 -25 -24l-2 -125c0 -16 8 -24 24 -25h25c117 4 240 139 250 279l43 591
c1 15 -8 24 -23 24l-77 2c-16 0 -25 -8 -25 -24z" />
    <glyph glyph-name="k" unicode="k" 
d="M146 736l-19 -711c0 -16 9 -25 25 -25h70c16 0 24 9 23 25l-10 182c-2 23 15 29 29 11l166 -204c8 -10 17 -14 29 -14h124c23 0 29 15 13 30l-254 245c-11 11 -12 22 -3 34l168 208c14 16 7 30 -14 30h-58c-13 0 -21 -4 -30 -14l-143 -167c-14 -17 -30 -12 -30 11l4 358
c1 16 -8 25 -24 25h-42c-15 0 -24 -9 -24 -24z" />
    <glyph glyph-name="l" unicode="l" 
d="M203 25c1 -16 8 -25 24 -25h231c16 0 25 9 25 24v62c0 17 -8 25 -25 25h-104c-16 0 -21 9 -24 25c-33 169 -23 330 -23 577c0 16 -7 25 -23 25h-75c-15 0 -27 -8 -25 -24c46 -292 -3 -439 19 -689z" />
    <glyph glyph-name="m" unicode="m" 
d="M416 468c-6 -17 -20 -14 -28 2c-33 59 -50 90 -97 90c-62 0 -78 -31 -91 -52c-12 -20 -26 -22 -24 1l2 12c2 17 -7 26 -23 26h-29c-15 0 -23 -8 -24 -24l-41 -498c-2 -16 7 -25 23 -25h82c16 0 24 9 23 25l-8 284c-4 106 46 186 111 186c40 0 81 -44 62 -148l-40 -321
c-2 -17 6 -26 22 -26h73c16 0 25 8 25 24l1 285c0 73 37 188 86 188c57 0 79 -50 79 -155l-32 -317c-1 -16 -3 -25 14 -25h65c16 0 24 9 24 25l1 305c0 147 -46 230 -140 230c-58 0 -99 -44 -116 -92z" />
    <glyph glyph-name="n" unicode="n" 
d="M611 25l-13 305c-7 151 -71 230 -196 230c-60 0 -109 -25 -148 -52c-16 -12 -29 -6 -29 15v4c0 16 -8 25 -24 25h-42c-16 0 -24 -9 -25 -24l-13 -503c-1 -16 8 -25 24 -25h75c16 0 24 9 24 25l-14 289c0 107 52 173 162 173c80 0 111 -51 111 -155l-18 -307
c-1 -16 7 -25 24 -25h78c17 0 25 9 24 25z" />
    <glyph glyph-name="o" unicode="o" 
d="M366 560c-157 0 -251 -107 -251 -287c0 -179 94 -287 251 -287c156 0 251 108 251 287c0 180 -95 287 -251 287zM366 494c96 0 156 -80 156 -205c0 -127 -60 -148 -156 -148c-97 0 -156 20 -156 148c0 127 60 205 156 205z" />
    <glyph glyph-name="p" unicode="p" 
d="M221 -184l3 222c0 22 11 25 26 8c37 -41 86 -60 149 -60c133 0 225 115 225 287s-92 287 -225 287c-63 0 -111 -19 -147 -59c-16 -17 -23 -14 -18 8v3c4 17 -5 27 -22 27h-38c-16 0 -25 -9 -25 -25v-387l-40 -309c-2 -17 7 -26 23 -26h64c16 0 25 8 25 24zM566 289
c0 -133 -53 -155 -148 -155s-158 22 -158 155c0 132 58 211 153 211s153 -79 153 -211z" />
    <glyph glyph-name="q" unicode="q" 
d="M484 36l-37 -318c-2 -17 7 -26 23 -26l84 1c12 0 21 3 30 12l49 41c13 10 13 23 1 34l-78 75c-10 9 -14 18 -13 31l46 636c1 16 -7 25 -24 25h-39c-15 0 -24 -7 -26 -22l-4 -22c-4 -21 -16 -23 -30 -6c-37 42 -87 63 -153 63c-132 0 -223 -115 -223 -287
s91 -287 223 -287c63 0 112 19 149 59c15 17 25 14 22 -9zM149 286c0 132 58 212 153 212s154 -80 154 -212c0 -133 -61 -150 -156 -150s-151 17 -151 150z" />
    <glyph glyph-name="r" unicode="r" 
d="M530 482l-1 41c0 15 -7 24 -20 26c-8 1 -13 1 -20 1c-60 0 -110 -24 -141 -43c-16 -11 -29 -5 -29 15c0 13 -8 20 -24 20h-34c-16 0 -24 -9 -24 -25c6 -206 1 -292 -34 -490c-3 -17 5 -27 22 -27h88c17 0 25 9 24 25l-18 248c0 118 42 192 143 192c17 0 29 0 41 -2
c18 -3 27 1 27 19z" />
    <glyph glyph-name="s" unicode="s" 
d="M546 487v23c0 14 -6 23 -20 28c-45 15 -97 22 -155 22c-134 0 -210 -58 -210 -161c0 -85 47 -121 158 -144l31 -7c56 -13 88 -23 95 -32c6 -7 13 -16 20 -28c6 -11 9 -19 7 -31c-9 -36 -47 -57 -121 -57c-54 0 -109 13 -165 38c-17 8 -29 1 -29 -18v-79
c0 -14 7 -23 21 -27c62 -19 118 -28 171 -28c141 0 226 63 226 165c0 89 -49 130 -176 157l-31 7c-96 21 -125 44 -125 93c0 54 49 87 139 87c48 0 93 -9 136 -26c17 -8 28 -1 28 18z" />
    <glyph glyph-name="t" unicode="t" 
d="M337 683h-46c-16 0 -25 -9 -25 -24l-3 -88c-1 -16 -10 -24 -25 -24h-18c-16 0 -24 -8 -24 -25v-21c0 -15 7 -24 21 -24h20c16 0 25 -9 24 -24l-13 -273c-7 -137 58 -180 197 -180h68c15 0 24 9 24 24v85c0 16 -8 25 -24 25h-68c-75 0 -93 15 -93 105l4 214
c1 16 9 24 25 24h78c16 0 24 9 24 24v21c0 16 -8 25 -24 25h-77c-16 0 -25 9 -24 25l3 86c0 16 -8 25 -24 25z" />
    <glyph glyph-name="u" unicode="u" 
d="M135 522v-306c0 -151 66 -230 192 -230c60 0 108 20 147 61c16 17 27 13 26 -9v-13c-1 -16 7 -25 23 -25l37 1c16 1 24 9 25 25l9 498c0 16 -9 25 -24 24l-48 -1c-16 -1 -24 -8 -25 -24l-9 -208c-6 -107 -60 -173 -157 -173c-81 0 -115 52 -121 155v225
c0 17 -8 25 -24 25h-27c-16 0 -24 -8 -24 -25z" />
    <glyph glyph-name="v" unicode="v" 
d="M110 519l183 -499c5 -14 14 -20 28 -20h90c14 0 24 6 28 20l183 499c6 17 -1 28 -19 28h-45c-15 0 -23 -6 -29 -19l-147 -343c-8 -20 -24 -20 -32 0l-147 343c-5 13 -14 19 -28 19h-45c-18 0 -26 -11 -20 -28z" />
    <glyph glyph-name="w" unicode="w" 
d="M59 520l88 -499c2 -14 12 -21 27 -21h79c14 0 23 6 28 18l69 156c9 21 24 21 32 0l65 -155c5 -13 14 -19 28 -19h84c15 0 24 7 27 21l87 499c3 17 -3 27 -21 27h-40c-14 0 -25 -6 -27 -21l-51 -320c-3 -21 -21 -22 -32 -3l-73 127c-7 11 -15 17 -29 17h-72
c-14 0 -23 -5 -29 -17l-68 -127c-10 -20 -28 -18 -32 3l-52 320c-2 15 -13 21 -27 21h-40c-18 0 -24 -10 -21 -27z" />
    <glyph glyph-name="x" unicode="x" 
d="M585 547h-37c-13 0 -22 -5 -29 -15l-136 -185c-11 -15 -24 -14 -34 1l-123 183c-8 11 -17 16 -30 16h-41c-20 0 -27 -13 -16 -30l158 -238c8 -11 8 -23 -2 -34l-189 -215c-14 -16 -6 -30 15 -30h97c13 0 22 4 30 15l106 141c11 14 23 14 34 -1l97 -139
c8 -12 17 -16 30 -16h97c21 0 28 14 14 30l-184 210c-10 10 -10 22 -2 34l162 243c10 17 3 30 -17 30z" />
    <glyph glyph-name="y" unicode="y" 
d="M401 -51l220 570c6 17 -2 28 -20 28h-45c-14 0 -22 -6 -28 -18l-125 -268c-9 -18 -23 -19 -34 -2l-165 271c-7 12 -16 17 -29 17h-44c-19 0 -27 -12 -19 -29l213 -456c6 -12 6 -21 0 -33l-24 -48c-5 -10 -9 -16 -16 -25c-28 -35 -77 -104 -121 -104h-38
c-16 0 -24 -9 -24 -24v-71c0 -16 8 -24 24 -24h57c81 0 154 73 218 216z" />
    <glyph glyph-name="z" unicode="z" 
d="M167 522v-18c0 -16 8 -24 24 -24h259c22 0 28 -15 12 -30l-315 -307c-8 -9 -12 -18 -12 -30v-89c0 -16 9 -24 24 -24h415c16 0 24 9 24 24v72c0 16 -8 25 -24 25h-263c-22 0 -28 14 -14 29l280 302c8 9 11 18 11 30v40c0 17 -8 25 -24 25h-373c-16 0 -24 -9 -24 -25z" />
    <glyph glyph-name="braceleft" unicode="{" 
d="M501 -55h-8c-92 2 -104 28 -109 94l2 107c6 78 15 121 -38 143c-15 6 -15 8 -10 14c41 41 76 59 78 150l2 121c2 92 15 105 113 110h9c16 -1 24 7 24 24l1 21c0 15 -5 24 -15 24h-15c-162 -3 -205 -32 -207 -176l-2 -117c-2 -97 -32 -122 -125 -127h-6
c-15 1 -24 -7 -26 -22l-2 -21c0 -17 4 -26 14 -26h14c93 -2 106 -35 100 -133l-2 -116c4 -144 40 -181 202 -184h5c16 -1 25 8 25 23v66c1 16 -7 24 -24 25z" />
    <glyph glyph-name="bar" unicode="|" 
d="M410 257l19 687c1 16 -8 25 -24 25h-34c-16 0 -25 -8 -25 -24l-42 -1239c-1 -16 8 -25 24 -25h44c15 0 24 8 24 24z" />
    <glyph glyph-name="braceright" unicode="}" 
d="M188 -103v-50c0 -16 5 -25 16 -25h15c162 0 210 46 203 205l-5 107c-4 98 20 130 112 130h6c16 0 25 9 25 25v21c0 15 -6 24 -16 24h-15c-92 0 -122 32 -122 129v117c0 144 -41 180 -203 180h-6c-16 0 -25 -9 -25 -25v-21c0 -15 6 -24 17 -24h18c91 0 109 -20 109 -112
v-121c0 -90 21 -132 76 -152c14 -5 14 -8 0 -13c-55 -21 -70 -63 -66 -147l5 -111c4 -94 -19 -112 -110 -112h-10c-15 0 -24 -9 -24 -25z" />
    <glyph glyph-name="asciitilde" unicode="~" 
d="M679 340v22c0 20 -13 26 -30 14c-53 -39 -97 -55 -145 -55c-30 0 -71 10 -121 30l-18 7c-48 19 -90 29 -126 29c-58 0 -109 -18 -171 -61c-10 -8 -15 -16 -15 -30v-44c0 -21 14 -27 30 -13c52 43 97 77 145 77c28 0 64 -11 108 -33c10 -5 15 -8 19 -9c2 -1 4 -2 5 -2
c0 0 12 -5 21 -10c42 -24 80 -36 112 -36c58 0 110 38 171 85c11 7 15 16 15 29z" />
    <glyph glyph-name="uni00A0" unicode="&#xa0;" 
 />
    <glyph glyph-name="exclamdown" unicode="&#xa1;" 
d="M408 641l-10 85c-1 15 -10 23 -25 23h-43c-16 0 -24 -8 -26 -23l-9 -85c-2 -17 6 -26 23 -26h67c16 0 25 9 23 26zM422 322l-13 150c-2 15 -11 23 -26 23l-51 -2c-16 0 -24 -9 -24 -25l-4 -150l6 -296c1 -15 9 -23 25 -23l79 2c16 0 24 10 24 26z" />
    <glyph glyph-name="cent" unicode="&#xa2;" 
d="M585 481v17c0 14 -5 23 -18 28c-30 13 -61 21 -93 25c-16 2 -23 11 -23 26l1 92c1 17 -8 25 -24 25h-1c-15 1 -24 -8 -25 -24l-1 -92c-1 -15 -8 -24 -24 -26c-143 -19 -226 -119 -229 -279c-2 -159 77 -263 219 -287c15 -2 23 -10 23 -26l-2 -93c0 -16 8 -24 24 -25h1
c16 0 25 9 25 24l1 92c1 15 9 23 24 25c34 4 65 12 95 23c13 5 19 14 19 28l2 70c0 18 -12 25 -29 18c-28 -12 -55 -20 -82 -24c-17 -2 -26 7 -26 24l7 346c0 16 9 25 26 23c26 -5 53 -13 81 -27c17 -8 28 -2 29 17zM398 465l-5 -340c-1 -17 -11 -25 -27 -21
c-79 21 -124 82 -123 167c3 120 49 196 130 216c16 5 26 -5 25 -22z" />
    <glyph glyph-name="sterling" unicode="&#xa3;" 
d="M612 647l1 37c0 14 -6 23 -20 28c-44 15 -87 24 -121 24c-152 -4 -220 -72 -224 -242l-3 -92c0 -16 -9 -24 -25 -24l-49 1c-16 0 -24 -8 -25 -24v-11c0 -16 8 -25 24 -25l48 -1c16 0 25 -9 24 -25l-5 -163c0 -16 -8 -25 -25 -24l-66 1c-16 0 -24 -8 -25 -24l-2 -59
c0 -15 8 -24 24 -24l436 -8c16 0 25 8 25 24l2 59c0 15 -8 24 -24 25l-223 3c-16 1 -25 9 -24 25l5 164c0 16 9 24 25 23l142 -2c16 0 24 8 25 24v11c1 16 -8 25 -24 25l-142 2c-15 1 -24 10 -24 25l3 81c4 138 37 172 134 177c31 0 66 -10 104 -28c17 -8 28 -1 29 17z" />
    <glyph glyph-name="currency" unicode="&#xa4;" 
d="M566 569l-68 -69c-11 -10 -21 -11 -35 -4c-32 17 -64 25 -97 25c-34 0 -66 -8 -96 -25c-13 -8 -24 -7 -34 4l-69 68c-11 11 -22 11 -34 0l-22 -22c-11 -11 -11 -23 1 -34l68 -68c10 -11 11 -22 4 -34c-17 -31 -26 -62 -26 -97c0 -32 9 -64 26 -97c6 -13 5 -24 -5 -34
l-69 -69c-11 -11 -11 -23 0 -34l21 -21c12 -12 23 -12 35 -1l68 69c11 10 21 11 35 4c33 -16 65 -25 97 -25c33 0 65 9 97 26c13 8 23 7 34 -4l68 -68c12 -11 23 -11 35 0l21 21c11 11 11 23 0 34l-69 69c-10 10 -11 21 -4 34c18 31 26 62 26 96s-8 66 -25 98
c-7 13 -6 24 5 34l68 69c11 11 11 23 0 34l-21 21c-12 12 -23 12 -35 0zM498 314c0 -74 -58 -95 -132 -95s-132 21 -132 95c0 73 59 130 132 130c74 0 132 -57 132 -130z" />
    <glyph glyph-name="yen" unicode="&#xa5;" 
d="M623 227v31c0 15 -9 24 -25 24h-154c-15 0 -24 9 -24 25l8 15l24 44c6 11 15 17 28 17h118c16 0 25 9 25 24v11c0 16 -9 25 -25 25h-71c-20 0 -27 12 -18 29l124 228c9 17 2 29 -17 29h-51c-13 0 -22 -5 -28 -18l-154 -292c-9 -18 -24 -18 -33 0l-154 292
c-7 13 -15 18 -29 18h-50c-19 0 -27 -12 -18 -29l120 -228c9 -17 1 -29 -18 -29h-72c-16 0 -24 -8 -24 -25v-11c0 -15 9 -24 24 -24h119c13 0 22 -5 30 -16l31 -46c6 -10 9 -18 9 -30c0 -6 -8 -9 -25 -9h-154c-15 0 -24 -8 -24 -24v-31c0 -16 9 -24 24 -24h153
c17 0 25 -10 24 -26l-11 -152c-1 -16 8 -25 24 -25h77c16 0 24 9 23 25l-7 153c-1 16 8 25 24 25h152c16 0 25 8 25 24z" />
    <glyph glyph-name="brokenbar" unicode="&#xa6;" 
d="M356 405h34c16 0 25 8 25 24l28 579c0 16 -8 25 -24 25h-34c-16 0 -25 -8 -25 -24l-28 -579c0 -16 8 -25 24 -25zM382 -376l26 608c0 16 -8 25 -24 25h-34c-16 0 -25 -8 -26 -24l-34 -608c-1 -17 7 -25 23 -25h44c16 0 25 8 25 24z" />
    <glyph glyph-name="section" unicode="&#xa7;" 
d="M521 665v28c0 14 -6 23 -20 28c-43 14 -87 21 -128 21c-108 0 -179 -56 -179 -141c0 -36 12 -67 37 -92c12 -12 12 -22 -2 -32c-44 -31 -67 -73 -67 -124c0 -33 10 -62 31 -87s66 -57 136 -96l12 -7c41 -23 87 -39 87 -66c0 -49 -38 -63 -105 -63c-31 0 -70 8 -114 26
c-18 6 -33 -1 -29 -19l21 -87c3 -14 6 -23 20 -27c49 -15 92 -22 133 -22c113 0 185 59 185 151c0 34 -12 64 -39 91c-11 13 -11 23 3 34c45 32 68 72 68 123c0 33 -11 62 -32 87s-66 57 -135 96l-20 11c-67 38 -100 71 -100 100c0 47 37 74 100 74c30 0 67 -8 109 -26
c17 -7 28 0 28 19zM286 471c10 9 22 9 34 3c70 -39 116 -69 137 -89c23 -22 35 -45 35 -70s-15 -51 -45 -76c-11 -9 -22 -10 -34 -3c-72 39 -118 69 -138 89c-23 22 -34 45 -34 70s14 50 45 76z" />
    <glyph glyph-name="dieresis" unicode="&#xa8;" 
d="M211 741v-57c0 -16 9 -25 24 -25h58c16 0 24 9 24 25v57c0 16 -8 24 -24 24h-58c-16 0 -24 -8 -24 -24zM416 741v-57c0 -16 8 -25 24 -25h58c16 0 24 9 24 25v57c0 16 -8 24 -24 24h-58c-16 0 -24 -8 -24 -24z" />
    <glyph glyph-name="copyright" unicode="&#xa9;" 
d="M366 725c-99 0 -185 -36 -256 -107c-70 -71 -106 -156 -106 -256c0 -99 36 -184 106 -255c71 -71 157 -107 256 -107s185 36 256 107s106 156 106 255c0 100 -35 185 -106 256s-157 107 -256 107zM366 675c86 0 160 -31 221 -92c60 -61 91 -135 91 -221
s-30 -158 -91 -205c-61 -42 -135 -68 -221 -68c-85 0 -159 26 -220 68c-61 54 -93 121 -93 205s32 160 93 221s135 92 220 92zM512 535c0 14 -6 23 -19 28c-36 12 -75 19 -115 19c-140 0 -228 -84 -228 -220c0 -135 88 -221 228 -221c39 0 78 6 115 20c13 5 19 14 19 28v40
c0 19 -11 25 -28 18c-32 -13 -63 -18 -95 -18c-101 0 -159 68 -159 133c0 102 57 177 154 177c34 0 67 -7 100 -19c17 -7 28 -2 28 15z" />
    <glyph glyph-name="ordfeminine" unicode="&#xaa;" 
d="M377 595h65c16 0 24 1 24 2c0 59 -38 89 -114 89c-32 0 -66 -7 -102 -20c-17 -7 -28 0 -28 18v10c0 14 7 23 20 28c41 13 82 20 120 20c119 0 177 -56 177 -173v-194c0 -16 -8 -25 -24 -25h-24c-16 0 -25 6 -25 16c0 21 -9 24 -26 10c-28 -22 -66 -35 -111 -35
c-83 0 -137 47 -137 121c0 88 63 133 185 133zM347 431c66 0 111 48 114 119c-1 14 -9 21 -24 21h-38c-52 0 -88 -6 -109 -16c-20 -12 -31 -30 -31 -55c0 -42 35 -69 88 -69zM229 289h287c16 0 24 -9 24 -24v-12c0 -15 -9 -24 -24 -24h-287c-16 0 -25 8 -25 24v12
c0 15 9 24 25 24z" />
    <glyph glyph-name="guillemotleft" unicode="&#xab;" 
d="M356 482l-192 -160c-9 -7 -14 -14 -18 -25l-9 -25c-5 -13 -3 -23 8 -33l182 -174c14 -13 27 -9 32 10l12 60c3 12 0 22 -10 32l-110 104c-11 12 -11 24 2 35l118 97c9 9 13 17 14 30l1 35c1 21 -13 28 -30 14zM568 475l-192 -160c-9 -7 -14 -15 -18 -25l-9 -25
c-5 -13 -3 -23 7 -33l183 -174c14 -14 27 -9 32 10l12 59c3 13 0 23 -10 32l-110 105c-12 11 -11 24 1 34l119 98c9 8 13 17 14 30l1 35c1 21 -14 28 -30 14z" />
    <glyph glyph-name="logicalnot" unicode="&#xac;" 
d="M46 396v-43c0 -16 9 -25 25 -24l493 8c17 1 25 -9 23 -25l-18 -146c-2 -17 6 -26 23 -26h70c16 0 25 9 24 25l-12 232c-1 16 -10 24 -26 24h-577c-16 0 -25 -8 -25 -25z" />
    <glyph glyph-name="registered" unicode="&#xae;" 
d="M366 725c-99 0 -185 -36 -256 -107c-70 -71 -106 -156 -106 -256c0 -99 36 -184 106 -255c71 -71 157 -107 256 -107s185 36 256 107s106 156 106 255c0 100 -35 185 -106 256s-157 107 -256 107zM366 675c86 0 160 -29 221 -85c60 -56 91 -125 91 -204
s-30 -147 -91 -203c-61 -57 -135 -86 -221 -86c-85 0 -159 29 -220 86c-61 56 -93 125 -93 203s32 147 93 204c61 56 135 85 220 85zM356 573h-114c-16 0 -25 -8 -25 -24v-360c0 -16 9 -24 25 -24h51c16 0 24 9 24 24v125c0 17 9 25 25 25h3c4 0 12 -4 25 -12
c11 -9 27 -29 46 -60l53 -86c7 -11 16 -16 29 -16h30c20 0 27 13 17 29l-49 80c-15 24 -28 42 -38 55l-5 4c-13 13 -12 20 5 26c45 16 69 50 69 97c0 79 -56 117 -171 117zM342 547h35c71 0 97 -18 97 -68c0 -48 -25 -66 -97 -66h-35c-16 0 -25 8 -25 24v86c0 16 9 24 25 24
z" />
    <glyph glyph-name="macron" unicode="&#xaf;" 
d="M220 721v-24c0 -15 9 -24 25 -24h243c16 0 24 9 24 24v24c0 16 -8 24 -24 24h-243c-16 0 -25 -8 -25 -24z" />
    <glyph glyph-name="degree" unicode="&#xb0;" 
d="M366 742c-86 0 -155 -69 -155 -156c0 -88 66 -154 154 -154s156 68 156 154c0 43 -15 81 -45 110c-28 30 -68 46 -110 46zM366 704c51 0 93 -38 93 -85s-41 -84 -93 -84s-93 37 -93 84s41 85 93 85z" />
    <glyph glyph-name="plusminus" unicode="&#xb1;" 
d="M383 627h-33c-17 0 -25 -8 -25 -24v-141c0 -15 -8 -24 -24 -24h-199c-16 0 -24 -8 -24 -24v-35c0 -16 8 -24 24 -24h199c16 0 24 -8 24 -24v-141c0 -15 9 -24 25 -24h33c15 0 24 8 24 24v141c0 15 9 24 25 24h198c16 0 25 9 25 24v35c0 16 -9 24 -25 24h-198
c-16 0 -25 9 -25 24v141c0 15 -9 24 -24 24zM78 68v-44c0 -15 8 -24 24 -24h528c16 0 25 9 25 24v44c0 16 -9 25 -25 25h-528c-16 0 -24 -9 -24 -25z" />
    <glyph glyph-name="twosuperior" unicode="&#xb2;" 
d="M488 407h-137c-22 0 -28 15 -11 30l8 6c108 93 161 137 161 182c0 70 -61 117 -155 117c-33 0 -69 -7 -111 -20c-14 -5 -20 -14 -20 -28v-8c0 -19 11 -25 29 -18c35 14 65 21 91 21c55 0 93 -29 93 -72c0 -31 -57 -71 -168 -170c-14 -11 -25 -22 -35 -30
c-9 -9 -13 -18 -13 -30v-36c0 -16 9 -25 25 -25h243c16 0 24 9 24 25v31c0 16 -8 25 -24 25z" />
    <glyph glyph-name="threesuperior" unicode="&#xb3;" 
d="M446 541c-15 5 -15 7 0 13c39 15 60 45 60 82c0 65 -59 106 -152 106c-31 0 -65 -4 -104 -12c-15 -3 -21 -12 -21 -27v-6c0 -17 10 -25 27 -20c37 9 60 12 81 12c62 0 96 -21 96 -58c0 -39 -33 -60 -94 -60h-21c-16 0 -25 -8 -25 -25v-4c0 -16 8 -24 21 -24h21
c71 0 107 -25 107 -73c0 -46 -36 -51 -107 -51c-32 0 -62 4 -89 14c-17 6 -28 0 -29 -18l-1 -29c-1 -15 5 -24 20 -28c36 -9 70 -14 101 -14c116 0 180 45 180 126c0 45 -26 79 -71 96z" />
    <glyph glyph-name="acute" unicode="&#xb4;" 
d="M378 834l-118 -160c-13 -16 -6 -29 14 -29h28c13 0 22 3 30 13l140 161c13 15 7 30 -14 30h-50c-13 0 -22 -5 -30 -15z" />
    <glyph glyph-name="mu" unicode="&#xb5;" 
d="M136 -271h41c16 0 25 9 24 25l-13 267c-1 21 7 24 22 8c28 -29 67 -43 117 -43c54 0 96 19 128 56c10 13 16 12 22 -4c13 -36 37 -52 74 -52c11 0 26 6 45 17c11 8 21 14 30 19c12 7 17 16 17 30v22c0 18 -4 29 -11 26c-4 -2 -7 -3 -10 -4c0 0 -17 -3 -27 -1
c-27 4 -40 14 -40 31l4 396c1 16 -8 25 -24 25h-41c-16 0 -24 -8 -25 -24l-4 -192c0 -110 -49 -164 -145 -164c-88 0 -131 48 -133 143l-7 229c-1 16 -10 24 -26 24l-41 -2c-15 -1 -24 -10 -23 -26l21 -781c1 -16 9 -25 25 -25z" />
    <glyph glyph-name="paragraph" unicode="&#xb6;" 
d="M514 729h-191c-140 0 -232 -83 -232 -206c0 -107 79 -179 145 -201c14 -4 21 -12 19 -28l-30 -365c-1 -16 7 -25 24 -25h107c16 0 24 8 24 24v717c0 15 9 24 25 24h44c15 0 24 -9 24 -24l-5 -717c0 -15 9 -24 25 -24h125c17 0 25 9 23 26l-101 776c-2 15 -11 23 -26 23z
" />
    <glyph glyph-name="periodcentered" unicode="&#xb7;" 
d="M315 385v-75c0 -17 9 -25 24 -25h55c16 0 24 9 24 25v75c0 15 -8 24 -24 24h-55c-16 0 -24 -9 -24 -24z" />
    <glyph glyph-name="cedilla" unicode="&#xb8;" 
d="M396 0h-11c-16 0 -19 -13 -9 -30c16 -24 23 -43 23 -57c0 -30 -20 -46 -58 -46c-19 0 -34 2 -49 6c-17 4 -27 -1 -27 -19v-13c0 -15 7 -24 21 -28c21 -4 43 -6 65 -6c77 0 116 30 116 88c0 27 -13 57 -41 91c-8 10 -17 14 -30 14z" />
    <glyph glyph-name="onesuperior" unicode="&#xb9;" 
d="M236 392v-41c0 -17 9 -25 24 -25h221c17 0 25 9 25 25v41c0 16 -8 24 -25 24h-51c-15 0 -24 9 -24 24v269c0 17 -9 25 -25 25h-27c-11 0 -19 -1 -30 -3l-75 -12c-15 -3 -22 -11 -22 -27v-7c0 -17 9 -25 26 -22l56 10c17 3 26 -5 26 -22v-211c0 -15 -8 -24 -24 -24h-51
c-16 0 -24 -9 -24 -24z" />
    <glyph glyph-name="ordmasculine" unicode="&#xba;" 
d="M367 742c-117 0 -189 -76 -189 -201c0 -124 72 -200 189 -200c116 0 188 76 188 200c0 125 -72 201 -188 201zM367 704c69 0 112 -47 112 -122c0 -74 -44 -122 -112 -122s-113 48 -113 122s44 122 113 122zM535 229v60h-336v-60h336z" />
    <glyph glyph-name="guillemotright" unicode="&#xbb;" 
d="M151 489l-2 -35c0 -13 3 -22 12 -31l109 -108c12 -11 11 -23 -2 -34l-118 -94c-11 -9 -15 -19 -13 -32l8 -60c1 -20 15 -25 30 -13l197 158c11 9 14 19 10 32l-7 25c-2 12 -7 19 -15 27l-178 176c-15 16 -30 10 -31 -11zM363 478l-2 -36c-1 -12 3 -22 12 -30l108 -108
c12 -11 12 -24 -2 -34l-118 -95c-10 -8 -14 -18 -12 -31l7 -60c2 -20 16 -25 31 -13l196 158c11 8 15 19 11 32l-7 25c-3 11 -7 19 -16 27l-178 176c-15 15 -29 10 -30 -11z" />
    <glyph glyph-name="onequarter" unicode="&#xbc;" 
d="M574 726l-428 -711c-10 -16 -3 -29 17 -29h25c13 0 21 5 28 16l428 711c10 16 3 29 -17 29h-24c-14 0 -22 -5 -29 -16zM-33 355v-4c0 -16 9 -25 25 -25h221c16 0 24 9 24 25v4c0 17 -8 25 -24 25h-51c-16 0 -25 9 -25 24v305c0 16 -8 25 -24 25h-28c-11 0 -19 -1 -29 -3
l-76 -12c-15 -3 -22 -11 -22 -27v-7c0 -17 10 -25 26 -22l57 10c16 3 26 -5 26 -22v-247c0 -15 -8 -24 -25 -24h-50c-16 0 -25 -8 -25 -25zM616 394l-170 -229c-7 -10 -10 -19 -10 -31v-18c0 -16 8 -24 24 -24h154c15 0 24 -9 24 -25v-42c0 -16 9 -24 25 -24h21
c16 0 24 8 24 24v42c0 16 9 25 25 25h17c16 0 24 9 24 24v5c0 15 -7 24 -21 24h-20c-16 0 -25 9 -25 24v215c0 16 -8 25 -24 25h-38c-13 0 -22 -5 -30 -15zM638 299v-130c0 -16 -8 -24 -24 -24h-90c-20 0 -27 13 -15 30l99 134c14 19 30 14 30 -10z" />
    <glyph glyph-name="onehalf" unicode="&#xbd;" 
d="M547 726l-427 -711c-11 -16 -3 -29 16 -29h25c13 0 22 5 29 16l428 711c10 16 3 29 -17 29h-25c-13 0 -22 -5 -29 -16zM-35 355v-4c0 -16 9 -25 24 -25h222c16 0 24 9 24 25v4c0 17 -8 25 -24 25h-51c-16 0 -25 9 -25 24v305c0 16 -8 25 -25 25h-27c-11 0 -19 -1 -30 -3
l-75 -12c-15 -3 -22 -11 -22 -27v-7c0 -17 9 -25 26 -22l56 10c17 3 26 -5 26 -22v-247c0 -15 -8 -24 -24 -24h-51c-16 0 -24 -8 -24 -25zM752 57h-136c-23 0 -29 15 -12 30l8 6c108 93 162 161 162 207c0 70 -62 117 -156 117c-32 0 -68 -7 -110 -21
c-14 -4 -20 -13 -20 -27v-8c0 -19 11 -26 29 -18c34 14 65 21 91 21c55 0 92 -29 92 -72c0 -31 -56 -96 -168 -195c-13 -12 -25 -22 -34 -30c-9 -9 -13 -18 -13 -30v-12c0 -15 9 -24 24 -24h243c17 0 25 9 25 24v7c0 16 -8 25 -25 25z" />
    <glyph glyph-name="threequarters" unicode="&#xbe;" 
d="M193 541c-15 5 -15 7 0 13c38 15 60 45 60 82c0 65 -59 106 -153 106c-30 0 -65 -4 -103 -12c-15 -3 -22 -12 -22 -27v-6c0 -17 11 -25 28 -20c37 9 60 12 81 12c62 0 95 -21 95 -58c0 -39 -32 -60 -93 -60h-22c-16 0 -24 -8 -24 -25v-4c0 -16 7 -24 21 -24h21
c70 0 107 -25 107 -73c0 -46 -41 -73 -112 -73c-32 0 -61 4 -88 14c-17 6 -28 0 -28 -17v-9c0 -14 7 -23 21 -27c37 -9 71 -14 102 -14c115 0 179 45 179 126c0 45 -25 79 -70 96zM590 726l-427 -711c-11 -16 -3 -29 16 -29h25c13 0 22 5 29 16l428 711c10 16 3 29 -17 29
h-25c-13 0 -22 -5 -29 -16zM613 394l-170 -229c-7 -10 -10 -19 -10 -31v-18c0 -16 8 -24 25 -24h153c15 0 24 -9 24 -25v-42c0 -16 9 -24 25 -24h21c16 0 25 8 25 24v42c0 16 8 25 24 25h17c16 0 24 9 24 24v5c0 15 -7 24 -21 24h-20c-16 0 -24 9 -24 24v215
c0 16 -9 25 -25 25h-38c-13 0 -22 -5 -30 -15zM635 299v-130c0 -16 -8 -24 -24 -24h-90c-20 0 -27 13 -15 30l99 134c14 19 30 14 30 -10z" />
    <glyph glyph-name="questiondown" unicode="&#xbf;" 
d="M442 629v76c0 16 -8 24 -25 24h-49c-16 0 -25 -8 -25 -24v-76c0 -15 9 -24 25 -24h49c17 0 25 9 25 24zM346 509v-36c0 -35 -2 -52 -6 -66c-6 -16 -15 -30 -46 -61l-43 -42c-58 -56 -79 -96 -79 -146c0 -103 79 -172 199 -172c61 0 118 15 173 45c12 7 17 16 17 30v66
c0 20 -12 26 -30 16c-51 -31 -100 -48 -143 -48c-71 0 -117 39 -117 97c0 32 16 61 53 96l44 43c46 50 56 60 56 126v52c0 15 -8 24 -24 24h-29c-16 0 -25 -8 -25 -24z" />
    <glyph glyph-name="Agrave" unicode="&#xc0;" 
d="M288 1122h-44c-19 0 -27 -12 -17 -29l75 -137c6 -11 15 -17 29 -17h76c21 0 27 13 15 30l-104 138c-8 10 -17 15 -30 15zM313 710l-270 -682c-6 -17 1 -28 20 -28h82c14 0 22 6 27 20l24 79c5 13 13 20 28 20h285c15 0 24 -7 27 -22l18 -76c3 -14 12 -21 27 -21h89
c18 0 26 11 19 28l-269 682c-5 13 -14 19 -28 19h-51c-14 0 -23 -6 -28 -19zM382 592l109 -329c6 -17 -2 -28 -20 -28h-209c-18 0 -26 11 -20 28l109 329c7 22 24 22 31 0z" />
    <glyph glyph-name="Aacute" unicode="&#xc1;" 
d="M473 1119l-118 -160c-13 -16 -6 -29 14 -29h28c13 0 22 3 30 13l140 161c13 15 7 30 -14 30h-50c-13 0 -22 -5 -30 -15zM313 710l-270 -682c-6 -17 1 -28 20 -28h82c14 0 22 6 27 20l24 79c5 13 13 20 28 20h285c15 0 24 -7 27 -22l18 -76c3 -14 12 -21 27 -21h89
c18 0 26 11 19 28l-269 682c-5 13 -14 19 -28 19h-51c-14 0 -23 -6 -28 -19zM382 592l109 -329c6 -17 -2 -28 -20 -28h-209c-18 0 -26 11 -20 28l109 329c7 22 24 22 31 0z" />
    <glyph glyph-name="Acircumflex" unicode="&#xc2;" 
d="M284 733l71 96c10 15 24 15 34 0l71 -96h68l-120 184h-72l-120 -184h68zM313 710l-270 -682c-6 -17 1 -28 20 -28h82c14 0 22 6 27 20l24 79c5 13 13 20 28 20h285c15 0 24 -7 27 -22l18 -76c3 -14 12 -21 27 -21h89c18 0 26 11 19 28l-269 682c-5 13 -14 19 -28 19h-51
c-14 0 -23 -6 -28 -19zM382 592l109 -329c6 -17 -2 -28 -20 -28h-209c-18 0 -26 11 -20 28l109 329c7 22 24 22 31 0z" />
    <glyph glyph-name="Atilde" unicode="&#xc3;" 
d="M342 977l28 -27c24 -22 43 -30 68 -30c53 0 87 40 94 112c1 17 -7 26 -24 26h-12c-15 0 -23 -8 -25 -24c-2 -15 -5 -26 -8 -34c-6 -12 -16 -18 -28 -18c-8 0 -19 6 -33 19l-28 27c-24 22 -43 30 -68 30c-53 0 -86 -40 -93 -112c-2 -17 7 -26 23 -26h12c16 0 24 8 26 24
c1 15 4 26 8 34c6 12 15 18 27 18c9 0 19 -6 33 -19zM313 710l-270 -682c-6 -17 1 -28 20 -28h82c14 0 22 6 27 20l24 79c5 13 13 20 28 20h285c15 0 24 -7 27 -22l18 -76c3 -14 12 -21 27 -21h89c18 0 26 11 19 28l-269 682c-5 13 -14 19 -28 19h-51c-14 0 -23 -6 -28 -19z
M382 592l109 -329c6 -17 -2 -28 -20 -28h-209c-18 0 -26 11 -20 28l109 329c7 22 24 22 31 0z" />
    <glyph glyph-name="Adieresis" unicode="&#xc4;" 
d="M216 875v-57c0 -16 9 -25 24 -25h58c16 0 24 9 24 25v57c0 16 -8 24 -24 24h-58c-16 0 -24 -8 -24 -24zM421 875v-57c0 -16 8 -25 24 -25h58c16 0 24 9 24 25v57c0 16 -8 24 -24 24h-58c-16 0 -24 -8 -24 -24zM313 710l-270 -682c-6 -17 1 -28 20 -28h82c14 0 22 6 27 20
l24 79c5 13 13 20 28 20h285c15 0 24 -7 27 -22l18 -76c3 -14 12 -21 27 -21h89c18 0 26 11 19 28l-269 682c-5 13 -14 19 -28 19h-51c-14 0 -23 -6 -28 -19zM382 592l109 -329c6 -17 -2 -28 -20 -28h-209c-18 0 -26 11 -20 28l109 329c7 22 24 22 31 0z" />
    <glyph glyph-name="Aring" unicode="&#xc5;" 
d="M506 878c0 75 -59 134 -134 134c-74 0 -134 -59 -134 -134s60 -134 134 -134c75 0 134 59 134 134zM446 878c0 -41 -32 -74 -74 -74s-74 32 -74 74s32 74 74 74s74 -33 74 -74zM313 710l-270 -682c-6 -17 1 -28 20 -28h82c14 0 22 6 27 20l24 79c5 13 13 20 28 20h285
c15 0 24 -7 27 -22l18 -76c3 -14 12 -21 27 -21h89c18 0 26 11 19 28l-269 682c-5 13 -14 19 -28 19h-51c-14 0 -23 -6 -28 -19zM382 592l109 -329c6 -17 -2 -28 -20 -28h-209c-18 0 -26 11 -20 28l109 329c7 22 24 22 31 0z" />
    <glyph glyph-name="AE" unicode="&#xc6;" 
d="M659 729h-420c-14 0 -25 -6 -29 -19l-168 -682c-4 -17 0 -28 19 -28h113c16 0 24 9 24 25l-3 79c-1 16 8 24 24 24h106c16 0 24 -8 24 -24v-80c0 -16 9 -24 25 -24h294c16 0 24 9 24 24v79c0 15 -8 24 -24 24h-200c-16 0 -25 9 -25 24v89c0 16 9 24 25 24h176
c16 0 24 9 24 25v34c0 16 -8 24 -24 24h-176c-16 0 -25 9 -25 25v250c0 16 9 24 25 24h191c16 0 24 9 24 24v35c0 16 -8 24 -24 24zM307 652h18c15 0 24 -8 24 -25v-392c0 -16 -8 -25 -24 -25h-97c-18 0 -22 12 -20 28l71 394c2 14 14 20 28 20z" />
    <glyph glyph-name="Ccedilla" unicode="&#xc7;" 
d="M434 661c-166 0 -258 -104 -258 -297c3 -171 92 -229 258 -229c72 0 138 22 197 68c16 12 29 7 29 -14v-114c0 -13 -5 -22 -16 -29c-61 -38 -128 -58 -203 -60c28 -34 41 -64 41 -91c0 -58 -39 -88 -116 -88c-22 0 -44 2 -65 6c-14 4 -21 13 -21 28v13c0 18 10 23 27 19
c15 -4 30 -6 49 -6c38 0 58 16 58 46c0 14 -7 33 -23 57c-4 7 -6 13 -6 18c-194 18 -313 158 -313 376c0 234 136 378 356 378c81 0 153 -19 216 -59c12 -7 16 -16 16 -29v-47c0 -21 -13 -26 -29 -13c-59 45 -125 67 -197 67z" />
    <glyph glyph-name="Egrave" unicode="&#xc8;" 
d="M267 1146h-44c-19 0 -27 -12 -17 -29l75 -137c6 -11 15 -17 29 -17h76c21 0 27 13 15 30l-104 138c-8 10 -17 15 -30 15zM131 705v-681c0 -15 9 -24 25 -24h421c16 0 24 9 24 24v103c0 16 -8 24 -24 24h-323c-15 0 -24 9 -24 25v147c0 16 9 24 24 24h299c15 0 24 9 24 25
v34c0 16 -8 24 -24 24h-299c-15 0 -24 9 -24 25v167c0 16 9 24 24 24h314c15 0 24 9 24 24v35c0 16 -8 24 -24 24h-412c-16 0 -25 -8 -25 -24z" />
    <glyph glyph-name="Eacute" unicode="&#xc9;" 
d="M452 1143l-118 -160c-13 -16 -6 -29 14 -29h28c13 0 22 3 30 13l140 161c13 15 7 30 -14 30h-50c-13 0 -22 -5 -30 -15zM131 705v-681c0 -15 9 -24 25 -24h421c16 0 24 9 24 24v103c0 16 -8 24 -24 24h-323c-15 0 -24 9 -24 25v147c0 16 9 24 24 24h299c15 0 24 9 24 25
v34c0 16 -8 24 -24 24h-299c-15 0 -24 9 -24 25v167c0 16 9 24 24 24h314c15 0 24 9 24 24v35c0 16 -8 24 -24 24h-412c-16 0 -25 -8 -25 -24z" />
    <glyph glyph-name="Ecircumflex" unicode="&#xca;" 
d="M263 757l71 96c10 15 24 15 34 0l71 -96h68l-120 184h-72l-120 -184h68zM131 705v-681c0 -15 9 -24 25 -24h421c16 0 24 9 24 24v103c0 16 -8 24 -24 24h-323c-15 0 -24 9 -24 25v147c0 16 9 24 24 24h299c15 0 24 9 24 25v34c0 16 -8 24 -24 24h-299c-15 0 -24 9 -24 25
v167c0 16 9 24 24 24h314c15 0 24 9 24 24v35c0 16 -8 24 -24 24h-412c-16 0 -25 -8 -25 -24z" />
    <glyph glyph-name="Edieresis" unicode="&#xcb;" 
d="M195 899v-57c0 -16 9 -25 24 -25h58c16 0 24 9 24 25v57c0 16 -8 24 -24 24h-58c-16 0 -24 -8 -24 -24zM400 899v-57c0 -16 8 -25 24 -25h58c16 0 24 9 24 25v57c0 16 -8 24 -24 24h-58c-16 0 -24 -8 -24 -24zM131 705v-681c0 -15 9 -24 25 -24h421c16 0 24 9 24 24v103
c0 16 -8 24 -24 24h-323c-15 0 -24 9 -24 25v147c0 16 9 24 24 24h299c15 0 24 9 24 25v34c0 16 -8 24 -24 24h-299c-15 0 -24 9 -24 25v167c0 16 9 24 24 24h314c15 0 24 9 24 24v35c0 16 -8 24 -24 24h-412c-16 0 -25 -8 -25 -24z" />
    <glyph glyph-name="Igrave" unicode="&#xcc;" 
d="M287 1170h-44c-19 0 -27 -12 -17 -29l75 -137c6 -11 15 -17 29 -17h76c21 0 27 13 15 30l-104 138c-8 10 -17 15 -30 15zM309 25c-1 -16 7 -25 24 -25h67c17 0 25 9 24 25c-11 226 -10 453 -13 680c0 16 -9 24 -25 24h-35c-16 0 -24 -8 -25 -24c-4 -227 -5 -453 -17 -680
z" />
    <glyph glyph-name="Iacute" unicode="&#xcd;" 
d="M472 1167l-118 -160c-13 -16 -6 -29 14 -29h28c13 0 22 3 30 13l140 161c13 15 7 30 -14 30h-50c-13 0 -22 -5 -30 -15zM309 25c-1 -16 7 -25 24 -25h67c17 0 25 9 24 25c-11 226 -10 453 -13 680c0 16 -9 24 -25 24h-35c-16 0 -24 -8 -25 -24c-4 -227 -5 -453 -17 -680z
" />
    <glyph glyph-name="Icircumflex" unicode="&#xce;" 
d="M283 781l71 96c10 15 24 15 34 0l71 -96h68l-120 184h-72l-120 -184h68zM309 25c-1 -16 7 -25 24 -25h67c17 0 25 9 24 25c-11 226 -10 453 -13 680c0 16 -9 24 -25 24h-35c-16 0 -24 -8 -25 -24c-4 -227 -5 -453 -17 -680z" />
    <glyph glyph-name="Idieresis" unicode="&#xcf;" 
d="M215 923v-57c0 -16 9 -25 24 -25h58c16 0 24 9 24 25v57c0 16 -8 24 -24 24h-58c-16 0 -24 -8 -24 -24zM420 923v-57c0 -16 8 -25 24 -25h58c16 0 24 9 24 25v57c0 16 -8 24 -24 24h-58c-16 0 -24 -8 -24 -24zM309 25c-1 -16 7 -25 24 -25h67c17 0 25 9 24 25
c-11 226 -10 453 -13 680c0 16 -9 24 -25 24h-35c-16 0 -24 -8 -25 -24c-4 -227 -5 -453 -17 -680z" />
    <glyph glyph-name="Eth" unicode="&#xd0;" 
d="M147 705v-268c0 -16 -8 -25 -24 -25h-49c-16 0 -25 -8 -25 -24v-22c0 -16 9 -24 25 -24h49c16 0 24 -9 24 -25v-293c0 -15 9 -24 25 -24h164c219 0 347 114 347 365c0 250 -128 364 -347 364h-164c-16 0 -25 -8 -25 -24zM271 648h80c138 0 228 -87 228 -283
c0 -197 -90 -216 -228 -216h-80c-16 0 -24 9 -24 25v143c0 16 8 25 24 25h101c15 0 24 9 24 24v22c0 16 -9 24 -24 24h-101c-16 0 -24 9 -24 25v187c0 15 8 24 24 24z" />
    <glyph glyph-name="Ntilde" unicode="&#xd1;" 
d="M342 1025l28 -27c24 -22 43 -30 68 -30c53 0 87 40 94 112c1 17 -7 26 -24 26h-12c-15 0 -23 -8 -25 -24c-2 -15 -5 -26 -8 -34c-6 -12 -16 -18 -28 -18c-8 0 -19 6 -33 19l-28 27c-24 22 -43 30 -68 30c-53 0 -86 -40 -93 -112c-2 -17 7 -26 23 -26h12c16 0 24 8 26 24
c1 15 4 26 8 34c6 12 15 18 27 18c9 0 19 -6 33 -19zM104 690l-18 -665c-1 -16 8 -25 24 -25h76c16 0 24 9 23 25l-24 517c-2 25 16 30 28 8l282 -532c6 -13 15 -18 29 -18h99c15 0 24 9 24 24v681c0 15 -8 24 -24 24h-43c-16 0 -24 -8 -24 -24l-13 -508
c-1 -24 -18 -28 -30 -7l-276 507c-6 12 -15 17 -29 17h-79c-16 0 -24 -8 -25 -24z" />
    <glyph glyph-name="Ograve" unicode="&#xd2;" 
d="M282 1170h-44c-19 0 -27 -12 -17 -29l75 -137c6 -11 15 -17 29 -17h76c21 0 27 13 15 30l-104 138c-8 10 -17 15 -30 15zM367 742c-186 0 -314 -148 -314 -378c0 -231 128 -378 314 -378c185 0 312 148 312 378s-127 378 -312 378zM367 662c123 0 208 -114 208 -298
c0 -151 -85 -191 -208 -191c-124 0 -210 40 -210 191c0 184 86 298 210 298z" />
    <glyph glyph-name="Oacute" unicode="&#xd3;" 
d="M467 1167l-118 -160c-13 -16 -6 -29 14 -29h28c13 0 22 3 30 13l140 161c13 15 7 30 -14 30h-50c-13 0 -22 -5 -30 -15zM367 742c-186 0 -314 -148 -314 -378c0 -231 128 -378 314 -378c185 0 312 148 312 378s-127 378 -312 378zM367 662c123 0 208 -114 208 -298
c0 -151 -85 -191 -208 -191c-124 0 -210 40 -210 191c0 184 86 298 210 298z" />
    <glyph glyph-name="Ocircumflex" unicode="&#xd4;" 
d="M278 781l71 96c10 15 24 15 34 0l71 -96h68l-120 184h-72l-120 -184h68zM367 742c-186 0 -314 -148 -314 -378c0 -231 128 -378 314 -378c185 0 312 148 312 378s-127 378 -312 378zM367 662c123 0 208 -114 208 -298c0 -151 -85 -191 -208 -191c-124 0 -210 40 -210 191
c0 184 86 298 210 298z" />
    <glyph glyph-name="Otilde" unicode="&#xd5;" 
d="M336 1025l28 -27c24 -22 43 -30 68 -30c53 0 87 40 94 112c1 17 -7 26 -24 26h-12c-15 0 -23 -8 -25 -24c-2 -15 -5 -26 -8 -34c-6 -12 -16 -18 -28 -18c-8 0 -19 6 -33 19l-28 27c-24 22 -43 30 -68 30c-53 0 -86 -40 -93 -112c-2 -17 7 -26 23 -26h12c16 0 24 8 26 24
c1 15 4 26 8 34c6 12 15 18 27 18c9 0 19 -6 33 -19zM367 742c-186 0 -314 -148 -314 -378c0 -231 128 -378 314 -378c185 0 312 148 312 378s-127 378 -312 378zM367 662c123 0 208 -114 208 -298c0 -151 -85 -191 -208 -191c-124 0 -210 40 -210 191c0 184 86 298 210 298
z" />
    <glyph glyph-name="Odieresis" unicode="&#xd6;" 
d="M210 923v-57c0 -16 9 -25 24 -25h58c16 0 24 9 24 25v57c0 16 -8 24 -24 24h-58c-16 0 -24 -8 -24 -24zM415 923v-57c0 -16 8 -25 24 -25h58c16 0 24 9 24 25v57c0 16 -8 24 -24 24h-58c-16 0 -24 -8 -24 -24zM367 742c-186 0 -314 -148 -314 -378
c0 -231 128 -378 314 -378c185 0 312 148 312 378s-127 378 -312 378zM367 662c123 0 208 -114 208 -298c0 -151 -85 -191 -208 -191c-124 0 -210 40 -210 191c0 184 86 298 210 298z" />
    <glyph glyph-name="multiply" unicode="&#xd7;" 
d="M624 530l-48 49c-12 11 -23 11 -34 0l-156 -156c-11 -11 -23 -11 -34 0l-141 141c-12 12 -23 11 -35 0l-48 -49c-11 -11 -11 -23 0 -34l140 -141c11 -11 11 -23 0 -34l-160 -165c-10 -11 -10 -23 1 -34l48 -49c11 -11 23 -12 34 0l151 150c11 12 23 12 34 0l151 -150
c11 -12 23 -11 34 0l49 49c11 11 11 23 1 35l-142 164c-10 12 -11 23 0 34l155 156c11 11 11 23 0 34z" />
    <glyph glyph-name="Oslash" unicode="&#xd8;" 
d="M512 768l-16 -54c112 -53 183 -179 183 -350c0 -230 -127 -378 -312 -378c-30 0 -59 4 -86 11c-5 -10 -14 -15 -26 -15l-62 2c-18 1 -25 12 -20 29l11 33c-82 63 -131 174 -131 318c0 230 128 378 314 378c20 0 39 -2 58 -5l14 41c5 13 14 20 28 19l24 -1
c18 0 26 -11 21 -28zM157 364c0 -89 30 -140 80 -166l161 462c-10 1 -20 2 -31 2c-124 0 -210 -114 -210 -298zM367 173c123 0 208 40 208 191c0 126 -40 219 -105 265l-136 -455c11 -1 21 -1 33 -1z" />
    <glyph glyph-name="Ugrave" unicode="&#xd9;" 
d="M282 1170h-44c-19 0 -27 -12 -17 -29l75 -137c6 -11 15 -17 29 -17h76c21 0 27 13 15 30l-104 138c-8 10 -17 15 -30 15zM82 705l5 -431c2 -190 96 -288 280 -288c183 0 277 98 279 288l4 431c0 15 -8 24 -24 24h-55c-16 0 -24 -9 -24 -25l4 -350
c2 -156 -58 -220 -184 -220c-127 0 -187 64 -185 220l4 350c0 16 -8 25 -24 25h-56c-16 0 -24 -8 -24 -24z" />
    <glyph glyph-name="Uacute" unicode="&#xda;" 
d="M467 1167l-118 -160c-13 -16 -6 -29 14 -29h28c13 0 22 3 30 13l140 161c13 15 7 30 -14 30h-50c-13 0 -22 -5 -30 -15zM82 705l5 -431c2 -190 96 -288 280 -288c183 0 277 98 279 288l4 431c0 15 -8 24 -24 24h-55c-16 0 -24 -9 -24 -25l4 -350
c2 -156 -58 -220 -184 -220c-127 0 -187 64 -185 220l4 350c0 16 -8 25 -24 25h-56c-16 0 -24 -8 -24 -24z" />
    <glyph glyph-name="Ucircumflex" unicode="&#xdb;" 
d="M278 781l71 96c10 15 24 15 34 0l71 -96h68l-120 184h-72l-120 -184h68zM82 705l5 -431c2 -190 96 -288 280 -288c183 0 277 98 279 288l4 431c0 15 -8 24 -24 24h-55c-16 0 -24 -9 -24 -25l4 -350c2 -156 -58 -220 -184 -220c-127 0 -187 64 -185 220l4 350
c0 16 -8 25 -24 25h-56c-16 0 -24 -8 -24 -24z" />
    <glyph glyph-name="Udieresis" unicode="&#xdc;" 
d="M210 923v-57c0 -16 9 -25 24 -25h58c16 0 24 9 24 25v57c0 16 -8 24 -24 24h-58c-16 0 -24 -8 -24 -24zM415 923v-57c0 -16 8 -25 24 -25h58c16 0 24 9 24 25v57c0 16 -8 24 -24 24h-58c-16 0 -24 -8 -24 -24zM82 705l5 -431c2 -190 96 -288 280 -288
c183 0 277 98 279 288l4 431c0 15 -8 24 -24 24h-55c-16 0 -24 -9 -24 -25l4 -350c2 -156 -58 -220 -184 -220c-127 0 -187 64 -185 220l4 350c0 16 -8 25 -24 25h-56c-16 0 -24 -8 -24 -24z" />
    <glyph glyph-name="Yacute" unicode="&#xdd;" 
d="M467 1167l-118 -160c-13 -16 -6 -29 14 -29h28c13 0 22 3 30 13l140 161c13 15 7 30 -14 30h-50c-13 0 -22 -5 -30 -15zM73 700l217 -436c5 -11 7 -19 7 -31v-209c0 -16 9 -24 25 -24h84c16 0 25 9 25 24v209c0 12 2 20 7 31l221 436c9 17 2 29 -17 29h-55
c-13 0 -22 -5 -28 -17l-175 -325c-9 -17 -24 -17 -33 0l-177 325c-6 12 -15 17 -28 17h-55c-19 0 -26 -12 -18 -29z" />
    <glyph glyph-name="Thorn" unicode="&#xde;" 
d="M229 0v141c0 15 9 24 25 24h100c163 0 248 75 248 218s-85 217 -248 217h-100c-16 0 -25 9 -25 25v104h-98v-729h98zM254 519h100c92 0 144 -49 144 -136c0 -88 -53 -137 -144 -137h-100c-16 0 -25 9 -25 25v224c0 15 9 24 25 24z" />
    <glyph glyph-name="germandbls" unicode="&#xdf;" 
d="M240 0l-24 539c0 10 0 18 2 29c15 100 57 137 137 137c68 0 102 -5 145 -98c8 -17 2 -28 -16 -32c-107 -23 -131 -79 -131 -155c0 -59 35 -101 64 -139l41 -27c32 -20 54 -37 63 -51c10 -14 15 -27 15 -41c0 -40 -40 -62 -116 -62c-42 0 -87 9 -139 29v-119
c48 -16 92 -24 134 -24c137 0 212 61 212 173c0 65 -20 101 -127 170l-28 18c-43 28 -60 52 -60 83c0 63 57 102 155 107c-2 146 -74 223 -210 223c-142 0 -223 -74 -223 -205l-29 -555h135z" />
    <glyph glyph-name="agrave" unicode="&#xe0;" 
d="M310 822l-75 137c-10 17 -2 29 17 29h44c13 0 22 -5 30 -15l104 -138c12 -17 6 -30 -15 -30h-76c-14 0 -23 6 -29 17zM361 560c159 0 236 -81 236 -248v-288c0 -15 -8 -24 -24 -24h-41c-16 0 -25 8 -25 24v11c0 22 -11 26 -27 10c-39 -39 -91 -59 -162 -59
c-111 0 -183 68 -183 173c0 123 83 186 246 186h102c16 0 24 3 24 9c0 83 -50 133 -155 140c-52 0 -102 -11 -148 -31c-17 -8 -29 -1 -29 17v21c0 14 7 23 20 28c58 21 114 31 166 31zM332 123c89 0 124 19 125 133c0 15 -9 23 -24 23h-57c-122 0 -160 -24 -165 -81
c-1 -10 -1 -18 3 -29c15 -42 59 -46 118 -46z" />
    <glyph glyph-name="aacute" unicode="&#xe1;" 
d="M405 796h-28c-20 0 -27 13 -14 29l118 160c8 10 17 15 30 15h50c21 0 27 -15 14 -30l-140 -161c-8 -10 -17 -13 -30 -13zM361 560c159 0 236 -81 236 -248v-288c0 -15 -8 -24 -24 -24h-41c-16 0 -25 8 -25 24v11c0 22 -11 26 -27 10c-39 -39 -91 -59 -162 -59
c-111 0 -183 68 -183 173c0 123 83 186 246 186h102c16 0 24 3 24 9c0 83 -50 133 -155 140c-52 0 -102 -11 -148 -31c-17 -8 -29 -1 -29 17v21c0 14 7 23 20 28c58 21 114 31 166 31zM332 123c89 0 124 19 125 133c0 15 -9 23 -24 23h-57c-122 0 -160 -24 -165 -81
c-1 -10 -1 -18 3 -29c15 -42 59 -46 118 -46z" />
    <glyph glyph-name="acircumflex" unicode="&#xe2;" 
d="M292 599h-68l120 184h72l120 -184h-68l-71 96c-10 15 -24 15 -34 0zM361 560c159 0 236 -81 236 -248v-288c0 -15 -8 -24 -24 -24h-41c-16 0 -25 8 -25 24v11c0 22 -11 26 -27 10c-39 -39 -91 -59 -162 -59c-111 0 -183 68 -183 173c0 123 83 186 246 186h102
c16 0 24 3 24 9c0 83 -50 133 -155 140c-52 0 -102 -11 -148 -31c-17 -8 -29 -1 -29 17v21c0 14 7 23 20 28c58 21 114 31 166 31zM332 123c89 0 124 19 125 133c0 15 -9 23 -24 23h-57c-122 0 -160 -24 -165 -81c-1 -10 -1 -18 3 -29c15 -42 59 -46 118 -46z" />
    <glyph glyph-name="atilde" unicode="&#xe3;" 
d="M256 786h-12c-16 0 -25 9 -23 26c7 72 40 112 93 112c25 0 44 -8 68 -30l28 -27c14 -13 25 -19 33 -19c12 0 22 6 28 18c3 8 6 19 8 34c2 16 10 24 25 24h12c17 0 25 -9 24 -26c-7 -72 -41 -112 -94 -112c-25 0 -44 8 -68 30l-28 27c-14 13 -24 19 -33 19
c-12 0 -21 -6 -27 -18c-4 -8 -7 -19 -8 -34c-2 -16 -10 -24 -26 -24zM361 560c159 0 236 -81 236 -248v-288c0 -15 -8 -24 -24 -24h-41c-16 0 -25 8 -25 24v11c0 22 -11 26 -27 10c-39 -39 -91 -59 -162 -59c-111 0 -183 68 -183 173c0 123 83 186 246 186h102
c16 0 24 3 24 9c0 83 -50 133 -155 140c-52 0 -102 -11 -148 -31c-17 -8 -29 -1 -29 17v21c0 14 7 23 20 28c58 21 114 31 166 31zM332 123c89 0 124 19 125 133c0 15 -9 23 -24 23h-57c-122 0 -160 -24 -165 -81c-1 -10 -1 -18 3 -29c15 -42 59 -46 118 -46z" />
    <glyph glyph-name="adieresis" unicode="&#xe4;" 
d="M306 659h-58c-15 0 -24 9 -24 25v57c0 16 8 24 24 24h58c16 0 24 -8 24 -24v-57c0 -16 -8 -25 -24 -25zM511 659h-58c-16 0 -24 9 -24 25v57c0 16 8 24 24 24h58c16 0 24 -8 24 -24v-57c0 -16 -8 -25 -24 -25zM361 560c159 0 236 -81 236 -248v-288c0 -15 -8 -24 -24 -24
h-41c-16 0 -25 8 -25 24v11c0 22 -11 26 -27 10c-39 -39 -91 -59 -162 -59c-111 0 -183 68 -183 173c0 123 83 186 246 186h102c16 0 24 3 24 9c0 83 -50 133 -155 140c-52 0 -102 -11 -148 -31c-17 -8 -29 -1 -29 17v21c0 14 7 23 20 28c58 21 114 31 166 31zM332 123
c89 0 124 19 125 133c0 15 -9 23 -24 23h-57c-122 0 -160 -24 -165 -81c-1 -10 -1 -18 3 -29c15 -42 59 -46 118 -46z" />
    <glyph glyph-name="aring" unicode="&#xe5;" 
d="M380 610c-74 0 -134 59 -134 134s60 134 134 134c75 0 134 -59 134 -134s-59 -134 -134 -134zM380 818c-42 0 -74 -32 -74 -74s32 -74 74 -74s74 33 74 74s-32 74 -74 74zM361 560c159 0 236 -81 236 -248v-288c0 -15 -8 -24 -24 -24h-41c-16 0 -25 8 -25 24v11
c0 22 -11 26 -27 10c-39 -39 -91 -59 -162 -59c-111 0 -183 68 -183 173c0 123 83 186 246 186h102c16 0 24 3 24 9c0 83 -50 133 -155 140c-52 0 -102 -11 -148 -31c-17 -8 -29 -1 -29 17v21c0 14 7 23 20 28c58 21 114 31 166 31zM332 123c89 0 124 19 125 133
c0 15 -9 23 -24 23h-57c-122 0 -160 -24 -165 -81c-1 -10 -1 -18 3 -29c15 -42 59 -46 118 -46z" />
    <glyph glyph-name="ae" unicode="&#xe6;" 
d="M801 281h-386c-18 0 -27 -10 -23 -26c18 -74 84 -135 191 -135c67 0 132 17 197 51v-129c-65 -27 -134 -56 -202 -56c-98 0 -173 32 -224 94c-11 14 -22 14 -33 0c-46 -63 -111 -94 -195 -94c-123 0 -194 64 -194 173c0 162 82 216 246 216h101c16 0 25 2 25 8
c0 44 -57 120 -156 120c-62 0 -122 -15 -176 -45v64c66 25 127 38 186 38c80 0 145 -25 184 -69c11 -12 21 -13 33 -2c47 47 110 71 187 71c146 0 239 -111 239 -235v-44zM396 377c-4 -16 5 -26 22 -26l267 1c16 0 26 9 23 25c-12 65 -66 133 -145 133
c-88 0 -148 -65 -167 -133zM139 110c97 0 163 51 165 172c-1 15 -10 22 -25 22h-65c-145 0 -193 -16 -193 -111c0 -51 45 -83 118 -83z" />
    <glyph glyph-name="ccedilla" unicode="&#xe7;" 
d="M429 489c-117 0 -179 -83 -179 -216c9 -94 58 -126 175 -132c43 0 86 -5 128 9c17 6 28 0 28 -18l1 -90c1 -15 -5 -24 -18 -29c-37 -15 -76 -24 -118 -26l1 -1c28 -34 41 -64 41 -91c0 -58 -39 -88 -116 -88c-22 0 -44 2 -65 6c-14 4 -21 13 -21 28v13c0 18 10 23 27 19
c15 -4 30 -6 49 -6c38 0 58 16 58 46c0 14 -7 33 -23 57c-4 6 -6 12 -6 17c-149 12 -241 120 -241 286c0 178 104 287 275 287c48 0 95 -8 139 -25c13 -5 19 -14 19 -28v-28c0 -18 -12 -25 -29 -17c-41 18 -83 27 -125 27z" />
    <glyph glyph-name="egrave" unicode="&#xe8;" 
d="M283 988h-44c-19 0 -27 -12 -17 -29l75 -137c6 -11 15 -17 29 -17h76c21 0 27 13 15 30l-104 138c-8 10 -17 15 -30 15zM617 310v9c-12 157 -87 235 -233 241c-165 0 -262 -123 -269 -303c0 -173 106 -265 280 -271c63 0 125 12 184 30c13 4 19 14 18 28l-1 73
c0 18 -11 23 -28 18c-55 -16 -111 -16 -170 -16c-111 6 -178 17 -188 141c-1 16 8 25 24 25h359c15 0 24 9 24 25zM511 359l-266 -1c-17 0 -27 10 -23 26c14 58 75 129 162 129c76 0 128 -73 148 -127c6 -16 -4 -27 -21 -27z" />
    <glyph glyph-name="eacute" unicode="&#xe9;" 
d="M468 985l-118 -160c-13 -16 -6 -29 14 -29h28c13 0 22 3 30 13l140 161c13 15 7 30 -14 30h-50c-13 0 -22 -5 -30 -15zM617 310v9c-12 157 -87 235 -233 241c-165 0 -262 -123 -269 -303c0 -173 106 -265 280 -271c63 0 125 12 184 30c13 4 19 14 18 28l-1 73
c0 18 -11 23 -28 18c-55 -16 -111 -16 -170 -16c-111 6 -178 17 -188 141c-1 16 8 25 24 25h359c15 0 24 9 24 25zM511 359l-266 -1c-17 0 -27 10 -23 26c14 58 75 129 162 129c76 0 128 -73 148 -127c6 -16 -4 -27 -21 -27z" />
    <glyph glyph-name="ecircumflex" unicode="&#xea;" 
d="M279 599l71 96c10 15 24 15 34 0l71 -96h68l-120 184h-72l-120 -184h68zM617 310v9c-12 157 -87 235 -233 241c-165 0 -262 -123 -269 -303c0 -173 106 -265 280 -271c63 0 125 12 184 30c13 4 19 14 18 28l-1 73c0 18 -11 23 -28 18c-55 -16 -111 -16 -170 -16
c-111 6 -178 17 -188 141c-1 16 8 25 24 25h359c15 0 24 9 24 25zM511 359l-266 -1c-17 0 -27 10 -23 26c14 58 75 129 162 129c76 0 128 -73 148 -127c6 -16 -4 -27 -21 -27z" />
    <glyph glyph-name="edieresis" unicode="&#xeb;" 
d="M211 741v-57c0 -16 9 -25 24 -25h58c16 0 24 9 24 25v57c0 16 -8 24 -24 24h-58c-16 0 -24 -8 -24 -24zM416 741v-57c0 -16 8 -25 24 -25h58c16 0 24 9 24 25v57c0 16 -8 24 -24 24h-58c-16 0 -24 -8 -24 -24zM617 310v9c-12 157 -87 235 -233 241
c-165 0 -262 -123 -269 -303c0 -173 106 -265 280 -271c63 0 125 12 184 30c13 4 19 14 18 28l-1 73c0 18 -11 23 -28 18c-55 -16 -111 -16 -170 -16c-111 6 -178 17 -188 141c-1 16 8 25 24 25h359c15 0 24 9 24 25zM511 359l-266 -1c-17 0 -27 10 -23 26
c14 58 75 129 162 129c76 0 128 -73 148 -127c6 -16 -4 -27 -21 -27z" />
    <glyph glyph-name="igrave" unicode="&#xec;" 
d="M319 800h-44c-19 0 -26 -12 -17 -29l75 -137c6 -11 15 -17 29 -17h76c21 0 27 13 15 30l-104 138c-8 10 -16 15 -30 15zM389 522l-36 -498c-1 -15 9 -24 24 -24h77c16 0 25 9 25 24v498c0 16 -9 25 -25 25h-41c-16 0 -23 -8 -24 -25z" />
    <glyph glyph-name="iacute" unicode="&#xed;" 
d="M378 785l-118 -160c-13 -16 -6 -29 14 -29h28c13 0 22 4 30 13l140 161c13 16 7 30 -14 30h-50c-13 0 -22 -5 -30 -15zM291 522v-498c0 -15 8 -24 24 -24h74c16 0 26 9 25 24l-34 498c-1 16 -8 25 -24 25h-41c-16 0 -24 -8 -24 -25z" />
    <glyph glyph-name="icircumflex" unicode="&#xee;" 
d="M320 784l-91 -138c-10 -17 -4 -30 16 -30h15c13 0 22 5 30 15l59 81c10 15 24 15 34 0l60 -81c8 -10 16 -15 30 -15h14c20 0 27 13 16 30l-90 138c-8 11 -17 16 -30 16h-34c-13 0 -22 -5 -29 -16zM333 522l-9 -498c-1 -15 9 -24 24 -24h61c16 0 25 9 24 24l-10 498
c0 16 -8 25 -24 25h-41c-16 0 -24 -8 -25 -25z" />
    <glyph glyph-name="idieresis" unicode="&#xef;" 
d="M211 741v-57c0 -16 9 -25 24 -25h58c16 0 24 9 24 25v57c0 16 -8 24 -24 24h-58c-16 0 -24 -8 -24 -24zM416 741v-57c0 -16 8 -25 24 -25h58c16 0 24 9 24 25v57c0 16 -8 24 -24 24h-58c-16 0 -24 -8 -24 -24zM321 522l-10 -498c0 -15 9 -24 24 -24h51c16 0 25 9 25 24
v498c0 16 -9 25 -25 25h-41c-16 0 -24 -8 -24 -25z" />
    <glyph glyph-name="eth" unicode="&#xf0;" 
d="M500 557l-60 68c-12 14 -8 27 9 33l92 30c15 5 20 16 15 31v1c-5 15 -16 20 -31 15l-120 -40c-14 -4 -24 -1 -33 9l-37 42c-8 10 -17 14 -30 14h-53c-21 0 -27 -14 -13 -30l41 -46c12 -15 9 -28 -9 -34l-84 -27c-16 -5 -21 -16 -16 -31v-2c5 -15 17 -20 31 -15l113 38
c14 4 24 1 34 -9l35 -40c14 -17 15 -31 1 -29c-12 1 -20 1 -27 1c-144 0 -243 -111 -243 -274c0 -166 101 -276 251 -276s251 110 251 276c0 113 -35 202 -117 295zM453 452c12 -4 19 -9 26 -18c29 -43 43 -100 43 -172c0 -122 -62 -128 -156 -128c-95 0 -156 6 -156 128
c0 127 63 201 172 201c22 0 45 -4 71 -11z" />
    <glyph glyph-name="ntilde" unicode="&#xf1;" 
d="M327 843l28 -27c24 -22 43 -30 68 -30c53 0 87 40 94 112c1 17 -7 26 -24 26h-12c-15 0 -23 -8 -25 -24c-2 -15 -5 -26 -8 -34c-6 -12 -16 -18 -28 -18c-8 0 -19 6 -33 19l-28 27c-24 22 -43 30 -68 30c-53 0 -86 -40 -93 -112c-2 -17 7 -26 23 -26h12c16 0 24 8 26 24
c1 15 4 26 8 34c6 12 15 18 27 18c9 0 19 -6 33 -19zM611 25l-13 305c-7 151 -71 230 -196 230c-60 0 -109 -25 -148 -52c-16 -12 -29 -6 -29 15v4c0 16 -8 25 -24 25h-42c-16 0 -24 -9 -25 -24l-13 -503c-1 -16 8 -25 24 -25h75c16 0 24 9 24 25l-14 289
c0 107 52 173 162 173c80 0 111 -51 111 -155l-18 -307c-1 -16 7 -25 24 -25h78c17 0 25 9 24 25z" />
    <glyph glyph-name="ograve" unicode="&#xf2;" 
d="M253 988h-44c-19 0 -27 -12 -17 -29l75 -137c6 -11 15 -17 29 -17h76c21 0 27 13 15 30l-104 138c-8 10 -17 15 -30 15zM366 560c-157 0 -251 -107 -251 -287c0 -179 94 -287 251 -287c156 0 251 108 251 287c0 180 -95 287 -251 287zM366 494c96 0 156 -80 156 -205
c0 -127 -60 -148 -156 -148c-97 0 -156 20 -156 148c0 127 60 205 156 205z" />
    <glyph glyph-name="oacute" unicode="&#xf3;" 
d="M438 985l-118 -160c-13 -16 -6 -29 14 -29h28c13 0 22 3 30 13l140 161c13 15 7 30 -14 30h-50c-13 0 -22 -5 -30 -15zM366 560c-157 0 -251 -107 -251 -287c0 -179 94 -287 251 -287c156 0 251 108 251 287c0 180 -95 287 -251 287zM366 494c96 0 156 -80 156 -205
c0 -127 -60 -148 -156 -148c-97 0 -156 20 -156 148c0 127 60 205 156 205z" />
    <glyph glyph-name="ocircumflex" unicode="&#xf4;" 
d="M249 599l71 96c10 15 24 15 34 0l71 -96h68l-120 184h-72l-120 -184h68zM366 560c-157 0 -251 -107 -251 -287c0 -179 94 -287 251 -287c156 0 251 108 251 287c0 180 -95 287 -251 287zM366 494c96 0 156 -80 156 -205c0 -127 -60 -148 -156 -148
c-97 0 -156 20 -156 148c0 127 60 205 156 205z" />
    <glyph glyph-name="otilde" unicode="&#xf5;" 
d="M307 843l28 -27c24 -22 43 -30 68 -30c53 0 87 40 94 112c1 17 -7 26 -24 26h-12c-15 0 -23 -8 -25 -24c-2 -15 -5 -26 -8 -34c-6 -12 -16 -18 -28 -18c-8 0 -19 6 -33 19l-28 27c-24 22 -43 30 -68 30c-53 0 -86 -40 -93 -112c-2 -17 7 -26 23 -26h12c16 0 24 8 26 24
c1 15 4 26 8 34c6 12 15 18 27 18c9 0 19 -6 33 -19zM366 560c-157 0 -251 -107 -251 -287c0 -179 94 -287 251 -287c156 0 251 108 251 287c0 180 -95 287 -251 287zM366 494c96 0 156 -80 156 -205c0 -127 -60 -148 -156 -148c-97 0 -156 20 -156 148
c0 127 60 205 156 205z" />
    <glyph glyph-name="odieresis" unicode="&#xf6;" 
d="M181 741v-57c0 -16 9 -25 24 -25h58c16 0 24 9 24 25v57c0 16 -8 24 -24 24h-58c-16 0 -24 -8 -24 -24zM386 741v-57c0 -16 8 -25 24 -25h58c16 0 24 9 24 25v57c0 16 -8 24 -24 24h-58c-16 0 -24 -8 -24 -24zM366 560c-157 0 -251 -107 -251 -287
c0 -179 94 -287 251 -287c156 0 251 108 251 287c0 180 -95 287 -251 287zM366 494c96 0 156 -80 156 -205c0 -127 -60 -148 -156 -148c-97 0 -156 20 -156 148c0 127 60 205 156 205z" />
    <glyph glyph-name="divide" unicode="&#xf7;" 
d="M294 559v-96c0 -15 9 -24 24 -24h96c16 0 24 9 24 24v96c0 16 -8 20 -24 20h-96c-16 0 -24 -4 -24 -20zM41 335v-58c0 -16 9 -25 24 -25h602c16 0 24 9 24 25v58c0 16 -8 25 -24 25h-602c-15 0 -24 -8 -24 -25zM294 144v-95c0 -16 9 -25 24 -25h96c16 0 24 9 24 25v95
c0 16 -8 24 -24 24h-96c-16 0 -24 -8 -24 -24z" />
    <glyph glyph-name="oslash" unicode="&#xf8;" 
d="M536 690l-47 -158c81 -43 128 -133 128 -259c0 -179 -95 -287 -251 -287c-14 0 -27 1 -40 2l-19 -64c-5 -14 -14 -20 -28 -20l-62 2c-18 1 -25 12 -20 29l31 88c-73 46 -113 133 -113 250c0 180 94 287 251 287c16 0 32 -1 47 -4l50 144c5 13 14 20 28 19l24 -1
c18 0 26 -11 21 -28zM210 289c0 -80 23 -117 63 -135l118 338c-8 1 -16 2 -25 2c-96 0 -156 -78 -156 -205zM466 455l-94 -314c93 1 150 24 150 148c0 73 -20 130 -56 166z" />
    <glyph glyph-name="ugrave" unicode="&#xf9;" 
d="M286 988h-44c-19 0 -27 -12 -17 -29l75 -137c6 -11 15 -17 29 -17h76c21 0 27 13 15 30l-104 138c-8 10 -17 15 -30 15zM135 522v-306c0 -151 66 -230 192 -230c60 0 108 20 147 61c16 17 27 13 26 -9v-13c-1 -16 7 -25 23 -25l37 1c16 1 24 9 25 25l9 498
c0 16 -9 25 -24 24l-48 -1c-16 -1 -24 -8 -25 -24l-9 -208c-6 -107 -60 -173 -157 -173c-81 0 -115 52 -121 155v225c0 17 -8 25 -24 25h-27c-16 0 -24 -8 -24 -25z" />
    <glyph glyph-name="uacute" unicode="&#xfa;" 
d="M471 985l-118 -160c-13 -16 -6 -29 14 -29h28c13 0 22 3 30 13l140 161c13 15 7 30 -14 30h-50c-13 0 -22 -5 -30 -15zM135 522v-306c0 -151 66 -230 192 -230c60 0 108 20 147 61c16 17 27 13 26 -9v-13c-1 -16 7 -25 23 -25l37 1c16 1 24 9 25 25l9 498
c0 16 -9 25 -24 24l-48 -1c-16 -1 -24 -8 -25 -24l-9 -208c-6 -107 -60 -173 -157 -173c-81 0 -115 52 -121 155v225c0 17 -8 25 -24 25h-27c-16 0 -24 -8 -24 -25z" />
    <glyph glyph-name="ucircumflex" unicode="&#xfb;" 
d="M282 599l71 96c10 15 24 15 34 0l71 -96h68l-120 184h-72l-120 -184h68zM135 522v-306c0 -151 66 -230 192 -230c60 0 108 20 147 61c16 17 27 13 26 -9v-13c-1 -16 7 -25 23 -25l37 1c16 1 24 9 25 25l9 498c0 16 -9 25 -24 24l-48 -1c-16 -1 -24 -8 -25 -24l-9 -208
c-6 -107 -60 -173 -157 -173c-81 0 -115 52 -121 155v225c0 17 -8 25 -24 25h-27c-16 0 -24 -8 -24 -25z" />
    <glyph glyph-name="udieresis" unicode="&#xfc;" 
d="M214 741v-57c0 -16 9 -25 24 -25h58c16 0 24 9 24 25v57c0 16 -8 24 -24 24h-58c-16 0 -24 -8 -24 -24zM419 741v-57c0 -16 8 -25 24 -25h58c16 0 24 9 24 25v57c0 16 -8 24 -24 24h-58c-16 0 -24 -8 -24 -24zM135 522v-306c0 -151 66 -230 192 -230c60 0 108 20 147 61
c16 17 27 13 26 -9v-13c-1 -16 7 -25 23 -25l37 1c16 1 24 9 25 25l9 498c0 16 -9 25 -24 24l-48 -1c-16 -1 -24 -8 -25 -24l-9 -208c-6 -107 -60 -173 -157 -173c-81 0 -115 52 -121 155v225c0 17 -8 25 -24 25h-27c-16 0 -24 -8 -24 -25z" />
    <glyph glyph-name="yacute" unicode="&#xfd;" 
d="M423 985l-118 -160c-13 -16 -6 -29 14 -29h28c13 0 22 3 30 13l140 161c13 15 7 30 -14 30h-50c-13 0 -22 -5 -30 -15zM401 -51l220 570c6 17 -2 28 -20 28h-45c-14 0 -22 -6 -28 -18l-125 -268c-9 -18 -23 -19 -34 -2l-165 271c-7 12 -16 17 -29 17h-44
c-19 0 -27 -12 -19 -29l213 -456c6 -12 6 -21 0 -33l-24 -48c-5 -10 -9 -16 -16 -25c-28 -35 -77 -104 -121 -104h-38c-16 0 -24 -9 -24 -24v-71c0 -16 8 -24 24 -24h57c81 0 154 73 218 216z" />
    <glyph glyph-name="thorn" unicode="&#xfe;" 
d="M217 -228l-5 266c-1 22 11 25 26 8c36 -41 85 -60 149 -60c133 0 224 115 224 287s-91 287 -224 287c-64 0 -113 -19 -149 -60c-15 -17 -26 -14 -26 8v227c0 16 -8 25 -24 25h-42c-16 0 -24 -9 -24 -25l4 -963c0 -15 9 -24 25 -24h41c16 0 25 8 25 24zM518 273
c0 -132 -58 -156 -153 -156s-153 24 -153 156s58 212 153 212s153 -80 153 -212z" />
    <glyph glyph-name="ydieresis" unicode="&#xff;" 
d="M166 741v-57c0 -16 9 -25 24 -25h58c16 0 24 9 24 25v57c0 16 -8 24 -24 24h-58c-16 0 -24 -8 -24 -24zM371 741v-57c0 -16 8 -25 24 -25h58c16 0 24 9 24 25v57c0 16 -8 24 -24 24h-58c-16 0 -24 -8 -24 -24zM401 -51l220 570c6 17 -2 28 -20 28h-45
c-14 0 -22 -6 -28 -18l-125 -268c-9 -18 -23 -19 -34 -2l-165 271c-7 12 -16 17 -29 17h-44c-19 0 -27 -12 -19 -29l213 -456c6 -12 6 -21 0 -33l-24 -48c-5 -10 -9 -16 -16 -25c-28 -35 -77 -104 -121 -104h-38c-16 0 -24 -9 -24 -24v-71c0 -16 8 -24 24 -24h57
c81 0 154 73 218 216z" />
    <glyph glyph-name="Cacute" unicode="&#x106;" 
d="M482 1167l-118 -160c-13 -16 -6 -29 14 -29h28c13 0 22 3 30 13l140 161c13 15 7 30 -14 30h-50c-13 0 -22 -5 -30 -15zM660 607v47c0 13 -4 22 -16 29c-63 40 -135 59 -216 59c-220 0 -356 -144 -356 -378s136 -378 356 -378c80 0 152 20 216 60c11 7 16 16 16 29v114
c0 21 -13 26 -29 14c-59 -46 -125 -68 -197 -68c-166 0 -255 58 -258 229c0 193 92 297 258 297c72 0 138 -22 197 -67c16 -13 29 -8 29 13z" />
    <glyph glyph-name="cacute" unicode="&#x107;" 
d="M488 985l-118 -160c-13 -16 -6 -29 14 -29h28c13 0 22 3 30 13l140 161c13 15 7 30 -14 30h-50c-13 0 -22 -5 -30 -15zM583 479v28c0 14 -6 23 -19 28c-44 17 -91 25 -139 25c-171 0 -275 -109 -275 -287c0 -176 104 -287 269 -287c53 0 100 9 145 27c13 5 19 14 18 29
l-1 90c0 18 -11 24 -28 18c-42 -14 -85 -9 -128 -9c-117 6 -166 38 -175 132c0 133 62 216 179 216c42 0 84 -9 125 -27c17 -8 29 -1 29 17z" />
    <glyph glyph-name="Ccaron" unicode="&#x10c;" 
d="M364 798h34c13 0 22 5 30 16l90 139c11 16 4 29 -15 29h-15c-14 0 -22 -5 -30 -15l-60 -81c-10 -15 -24 -15 -34 0l-59 81c-8 10 -17 15 -30 15h-14c-20 0 -27 -13 -17 -29l91 -139c7 -11 16 -16 29 -16zM660 607v47c0 13 -4 22 -16 29c-63 40 -135 59 -216 59
c-220 0 -356 -144 -356 -378s136 -378 356 -378c80 0 152 20 216 60c11 7 16 16 16 29v114c0 21 -13 26 -29 14c-59 -46 -125 -68 -197 -68c-166 0 -255 58 -258 229c0 193 92 297 258 297c72 0 138 -22 197 -67c16 -13 29 -8 29 13z" />
    <glyph glyph-name="ccaron" unicode="&#x10d;" 
d="M370 616h34c13 0 22 5 30 16l90 139c11 16 4 29 -15 29h-15c-14 0 -22 -5 -30 -15l-60 -81c-10 -15 -24 -15 -34 0l-59 81c-8 10 -17 15 -30 15h-14c-20 0 -27 -13 -17 -29l91 -139c7 -11 16 -16 29 -16zM583 479v28c0 14 -6 23 -19 28c-44 17 -91 25 -139 25
c-171 0 -275 -109 -275 -287c0 -176 104 -287 269 -287c53 0 100 9 145 27c13 5 19 14 18 29l-1 90c0 18 -11 24 -28 18c-42 -14 -85 -9 -128 -9c-117 6 -166 38 -175 132c0 133 62 216 179 216c42 0 84 -9 125 -27c17 -8 29 -1 29 17z" />
    <glyph glyph-name="dcroat" unicode="&#x111;" 
d="M550 760h41c16 0 25 -9 24 -25l-9 -711c0 -16 -8 -24 -24 -24h-41c-17 0 -25 9 -25 24v14c0 22 -11 25 -26 8c-36 -41 -85 -60 -149 -60c-133 0 -224 115 -224 287s91 287 224 287c64 0 114 -20 150 -60c14 -18 26 -15 27 7l7 229c0 15 9 24 25 24zM332 149
c52 0 89 6 112 31l-194 -4c-17 0 -26 10 -23 26l6 37c2 15 11 22 26 22l214 4h2c0 8 1 16 1 25c-3 132 -46 205 -142 205c-91 0 -148 -74 -152 -197c0 -11 0 -19 2 -30c17 -84 58 -119 148 -119z" />
    <glyph glyph-name="Gbreve" unicode="&#x11e;" 
d="M237 940h-10c-16 0 -26 -10 -22 -26c13 -76 64 -114 149 -114s136 38 150 114c3 16 -6 26 -23 26h-10c-14 0 -22 -7 -27 -21c-13 -35 -42 -52 -90 -52s-77 17 -90 52c-5 14 -12 21 -27 21zM548 236v-36c0 -12 -3 -22 -14 -29c-29 -18 -80 -26 -138 -26
c-149 0 -213 49 -220 229c0 197 95 297 220 297c78 0 150 -24 216 -70c16 -13 29 -7 29 14v39c0 13 -5 22 -16 29c-69 39 -150 59 -238 59c-174 0 -315 -140 -315 -378s66 -364 315 -378c97 -6 184 24 258 71c11 7 15 17 15 30v255c0 15 -8 24 -24 24h-235
c-15 0 -24 -8 -24 -24v-57c0 -15 9 -24 24 -24h122c17 0 25 -9 25 -25z" />
    <glyph glyph-name="gbreve" unicode="&#x11f;" 
d="M260 758h-10c-16 0 -26 -10 -22 -26c13 -76 64 -114 149 -114s136 38 150 114c3 16 -6 26 -23 26h-10c-14 0 -22 -7 -27 -21c-13 -35 -42 -52 -90 -52s-77 17 -90 52c-5 14 -12 21 -27 21zM601 68l14 454c0 16 -8 25 -24 25h-42c-15 0 -24 -7 -26 -21l-2 -21
c-2 -22 -15 -24 -29 -7c-36 42 -86 62 -151 62c-134 0 -224 -111 -224 -280s90 -280 224 -280c61 0 110 21 143 51c29 26 21 -3 15 -41c-23 -153 -75 -218 -169 -218c-43 0 -85 8 -128 27c-17 8 -29 1 -29 -17v-108c0 -14 7 -23 20 -27c47 -15 96 -22 151 -22
c171 0 247 78 257 423zM477 285c0 -129 -63 -139 -160 -139c-96 0 -133 10 -146 139c0 131 57 205 153 205c97 0 153 -74 153 -205z" />
    <glyph glyph-name="Idotaccent" unicode="&#x130;" 
d="M321 915v-50c0 -16 9 -25 25 -25h51c16 0 24 9 24 25v50c0 17 -8 25 -24 25h-51c-16 0 -25 -8 -25 -25zM309 25c-1 -16 7 -25 24 -25h67c17 0 25 9 24 25c-11 226 -10 453 -13 680c0 16 -9 24 -25 24h-35c-16 0 -24 -8 -25 -24c-4 -227 -5 -453 -17 -680z" />
    <glyph glyph-name="dotlessi" unicode="&#x131;" 
d="M311 25c-1 -16 7 -25 24 -25h63c17 0 25 9 23 26c-17 180 -22 346 -18 496c1 16 -7 25 -24 25h-30c-16 0 -25 -8 -25 -22c2 -158 -1 -325 -13 -500z" />
    <glyph glyph-name="Lslash" unicode="&#x141;" 
d="M190 705v-329c0 -12 -4 -22 -15 -29l-75 -52c-13 -9 -15 -21 -6 -34l10 -14c9 -13 21 -15 34 -6l22 16c17 13 30 6 30 -15v-218c0 -15 9 -24 24 -24h406c15 0 24 9 24 24v35c0 16 -9 24 -24 24h-307c-16 0 -24 9 -24 24v222c0 12 4 22 16 29l156 109c13 9 15 21 6 34
l-11 15c-9 12 -21 14 -34 5l-103 -72c-17 -11 -30 -5 -30 15v241c0 16 -8 24 -24 24h-51c-15 0 -24 -8 -24 -24z" />
    <glyph glyph-name="lslash" unicode="&#x142;" 
d="M320 735v-314c0 -13 -4 -22 -15 -29l-61 -44c-13 -9 -15 -21 -6 -34l8 -12c9 -13 20 -16 29 -9l16 11c16 12 29 5 29 -15v-265c0 -15 9 -24 25 -24h41c16 0 24 9 24 24v347c0 12 5 22 15 29l63 44c13 9 15 21 6 34l-9 12c-9 13 -19 16 -29 9l-16 -12
c-17 -12 -30 -5 -30 15v233c0 16 -8 25 -24 25h-41c-16 0 -25 -9 -25 -25z" />
    <glyph glyph-name="OE" unicode="&#x152;" 
d="M750 729h-371c-282 0 -430 -126 -430 -364c0 -240 148 -365 430 -365h380c16 0 25 9 25 24v88c0 16 -9 25 -25 25h-207c-15 0 -24 9 -24 24v196c0 16 9 24 24 24h193c16 0 25 9 25 25v34c0 16 -9 24 -25 24h-193c-16 0 -24 9 -24 25v152c0 16 9 25 24 25h198
c16 0 25 8 25 24v15c0 16 -8 24 -25 24zM429 641v-480c0 -16 -8 -24 -24 -24h-39c-209 0 -313 112 -313 228c0 214 104 301 313 301h39c15 0 24 -9 24 -25z" />
    <glyph glyph-name="oe" unicode="&#x153;" 
d="M731 350v19c0 65 -63 191 -176 191c-78 0 -119 -30 -160 -85c-10 -14 -25 -15 -33 1c-29 55 -92 84 -158 84c-94 0 -203 -107 -203 -287c0 -179 95 -287 203 -287c67 0 129 28 159 85c8 14 23 14 33 1c43 -57 121 -86 175 -86c57 0 80 9 139 32c14 5 19 14 19 28v96
c0 19 -11 25 -28 18c-55 -25 -71 -35 -125 -35c-99 0 -142 31 -154 174c-2 17 7 26 23 26h262c15 0 24 9 24 25zM642 391l-193 -1c-18 0 -29 12 -19 28c23 42 50 90 126 90c38 0 90 -50 107 -91c7 -16 -3 -26 -21 -26zM204 496c81 0 141 -73 141 -192s-60 -175 -141 -175
c-49 0 -109 55 -109 175c0 121 58 192 109 192z" />
    <glyph glyph-name="Scedilla" unicode="&#x15e;" 
d="M623 201c0 -122 -72 -194 -210 -211l4 -4c28 -34 41 -64 41 -91c0 -58 -39 -88 -116 -88c-22 0 -44 2 -65 6c-14 4 -21 13 -21 28v13c0 18 10 23 27 19c15 -4 30 -6 49 -6c38 0 58 16 58 46c0 14 -7 33 -23 57c-4 6 -5 12 -6 16h-17c-64 0 -136 13 -211 39
c-14 5 -21 14 -21 28v102c0 19 13 26 30 17c69 -35 137 -52 202 -52c113 0 176 55 176 98c0 39 -41 85 -141 105l-60 12c-147 29 -210 88 -210 199c0 129 97 208 257 208c62 0 126 -10 193 -31c14 -3 20 -13 20 -27v-44c0 -18 -12 -26 -29 -18c-63 27 -119 40 -173 40
c-107 0 -168 -43 -168 -120c0 -64 31 -93 139 -113l60 -12c147 -28 215 -97 215 -216z" />
    <glyph glyph-name="scedilla" unicode="&#x15f;" 
d="M575 151c0 -85 -60 -143 -162 -160l5 -5c28 -34 41 -64 41 -91c0 -58 -39 -88 -116 -88c-22 0 -44 2 -65 6c-14 4 -21 13 -21 28v13c0 18 10 23 27 19c15 -4 30 -6 49 -6c38 0 58 16 58 46c0 14 -7 33 -23 57c-4 6 -5 12 -6 16h-13c-53 0 -109 9 -171 28
c-14 4 -21 13 -21 27v79c0 19 12 26 29 18c56 -25 111 -38 165 -38c74 0 112 21 121 57c2 12 -1 20 -7 31c-7 12 -14 21 -20 28c-7 9 -39 19 -95 32l-31 7c-111 23 -158 59 -158 144c0 103 76 161 210 161c58 0 110 -7 155 -22c14 -5 20 -14 20 -28v-23
c0 -19 -11 -26 -28 -18c-43 17 -88 26 -136 26c-90 0 -139 -33 -139 -87c0 -49 29 -72 125 -93l31 -7c127 -27 176 -68 176 -157z" />
    <glyph glyph-name="Scaron" unicode="&#x160;" 
d="M340 798h34c13 0 22 5 30 16l90 139c11 16 4 29 -15 29h-15c-14 0 -22 -5 -30 -15l-60 -81c-10 -15 -24 -15 -34 0l-59 81c-8 10 -17 15 -30 15h-14c-20 0 -27 -13 -17 -29l91 -139c7 -11 16 -16 29 -16zM579 640v44c0 14 -6 24 -20 27c-67 21 -131 31 -193 31
c-160 0 -257 -79 -257 -208c0 -111 63 -170 210 -199l60 -12c100 -20 141 -66 141 -105c0 -43 -63 -98 -176 -98c-65 0 -133 17 -202 52c-17 9 -30 2 -30 -17v-102c0 -14 7 -23 21 -28c75 -26 147 -39 211 -39c183 0 279 74 279 215c0 119 -68 188 -215 216l-60 12
c-108 20 -139 49 -139 113c0 77 61 120 168 120c54 0 110 -13 173 -40c17 -8 29 0 29 18z" />
    <glyph glyph-name="scaron" unicode="&#x161;" 
d="M341 616h34c13 0 22 5 30 16l90 139c11 16 4 29 -15 29h-15c-14 0 -22 -5 -30 -15l-60 -81c-10 -15 -24 -15 -34 0l-59 81c-8 10 -17 15 -30 15h-14c-20 0 -27 -13 -17 -29l91 -139c7 -11 16 -16 29 -16zM546 487v23c0 14 -6 23 -20 28c-45 15 -97 22 -155 22
c-134 0 -210 -58 -210 -161c0 -85 47 -121 158 -144l31 -7c56 -13 88 -23 95 -32c6 -7 13 -16 20 -28c6 -11 9 -19 7 -31c-9 -36 -47 -57 -121 -57c-54 0 -109 13 -165 38c-17 8 -29 1 -29 -18v-79c0 -14 7 -23 21 -27c62 -19 118 -28 171 -28c141 0 226 63 226 165
c0 89 -49 130 -176 157l-31 7c-96 21 -125 44 -125 93c0 54 49 87 139 87c48 0 93 -9 136 -26c17 -8 28 -1 28 18z" />
    <glyph glyph-name="Ydieresis" unicode="&#x178;" 
d="M210 923v-57c0 -16 9 -25 24 -25h58c16 0 24 9 24 25v57c0 16 -8 24 -24 24h-58c-16 0 -24 -8 -24 -24zM415 923v-57c0 -16 8 -25 24 -25h58c16 0 24 9 24 25v57c0 16 -8 24 -24 24h-58c-16 0 -24 -8 -24 -24zM73 700l217 -436c5 -11 7 -19 7 -31v-209
c0 -16 9 -24 25 -24h84c16 0 25 9 25 24v209c0 12 2 20 7 31l221 436c9 17 2 29 -17 29h-55c-13 0 -22 -5 -28 -17l-175 -325c-9 -17 -24 -17 -33 0l-177 325c-6 12 -15 17 -28 17h-55c-19 0 -26 -12 -18 -29z" />
    <glyph glyph-name="Zcaron" unicode="&#x17d;" 
d="M354 798h34c13 0 22 5 30 16l90 139c11 16 4 29 -15 29h-15c-14 0 -22 -5 -30 -15l-60 -81c-10 -15 -24 -15 -34 0l-59 81c-8 10 -17 15 -30 15h-14c-20 0 -27 -13 -17 -29l91 -139c7 -11 16 -16 29 -16zM63 705v-35c0 -15 8 -24 24 -24h385c22 0 28 -14 13 -30
l-412 -465c-8 -9 -12 -17 -12 -30v-97c0 -15 9 -24 24 -24h552c16 0 25 9 25 24v98c0 16 -9 24 -25 24h-412c-21 0 -27 15 -13 30l412 465c8 9 12 18 12 30v34c0 15 -9 24 -25 24h-524c-16 0 -24 -8 -24 -24z" />
    <glyph glyph-name="zcaron" unicode="&#x17e;" 
d="M372 616h34c13 0 22 5 30 16l90 139c11 16 4 29 -15 29h-15c-14 0 -22 -5 -30 -15l-60 -81c-10 -15 -24 -15 -34 0l-59 81c-8 10 -17 15 -30 15h-14c-20 0 -27 -13 -17 -29l91 -139c7 -11 16 -16 29 -16zM167 522v-18c0 -16 8 -24 24 -24h259c22 0 28 -15 12 -30
l-315 -307c-8 -9 -12 -18 -12 -30v-89c0 -16 9 -24 24 -24h415c16 0 24 9 24 24v72c0 16 -8 25 -24 25h-263c-22 0 -28 14 -14 29l280 302c8 9 11 18 11 30v40c0 17 -8 25 -24 25h-373c-16 0 -24 -9 -24 -25z" />
    <glyph glyph-name="florin" unicode="&#x192;" 
d="M670 705v16c0 14 -6 24 -20 28c-24 7 -50 11 -77 11c-98 0 -165 -66 -188 -185l-27 -140c-3 -14 -11 -21 -25 -22l-92 -7c-15 -1 -23 -10 -23 -25v-21c0 -16 9 -25 25 -24l69 6c17 1 25 -8 23 -25l-34 -234c-22 -108 -54 -148 -117 -148c-23 0 -46 6 -70 18
c-16 8 -28 3 -31 -15l-20 -103c-2 -15 2 -25 17 -30c24 -9 50 -13 79 -13c121 0 197 6 240 315l30 215c2 15 10 23 25 24l109 7c16 1 24 9 24 24v21c0 17 -9 25 -25 24l-87 -6c-17 -1 -26 8 -23 25l24 135c16 86 52 124 115 124c18 0 35 -4 51 -11c17 -8 28 -3 28 16z" />
    <glyph glyph-name="circumflex" unicode="&#x2c6;" 
d="M278 616l71 96c10 15 24 15 34 0l71 -96h68l-120 184h-72l-120 -184h68z" />
    <glyph glyph-name="caron" unicode="&#x2c7;" 
d="M349 616h34c13 0 22 5 30 16l90 139c11 16 4 29 -15 29h-15c-14 0 -22 -5 -30 -15l-60 -81c-10 -15 -24 -15 -34 0l-59 81c-8 10 -17 15 -30 15h-14c-20 0 -27 -13 -17 -29l91 -139c7 -11 16 -16 29 -16z" />
    <glyph glyph-name="breve" unicode="&#x2d8;" 
d="M249 785h-10c-16 0 -26 -10 -22 -26c13 -76 64 -114 149 -114s136 38 150 114c3 16 -6 26 -23 26h-10c-14 0 -22 -7 -27 -21c-13 -35 -42 -52 -90 -52s-77 17 -90 52c-5 14 -12 21 -27 21z" />
    <glyph glyph-name="dotaccent" unicode="&#x2d9;" 
d="M316 733v-50c0 -16 9 -25 25 -25h51c16 0 24 9 24 25v50c0 17 -8 25 -24 25h-51c-16 0 -25 -8 -25 -25z" />
    <glyph glyph-name="ring" unicode="&#x2da;" 
d="M500 744c0 75 -59 134 -134 134c-74 0 -134 -59 -134 -134s60 -134 134 -134c75 0 134 59 134 134zM440 744c0 -41 -32 -74 -74 -74s-74 32 -74 74s32 74 74 74s74 -33 74 -74z" />
    <glyph glyph-name="ogonek" unicode="&#x2db;" 
d="M351 0h-5c-13 0 -22 -4 -30 -14c-27 -34 -41 -64 -41 -91c0 -61 37 -88 116 -88c14 0 29 2 45 5c15 3 22 12 22 27v14c0 18 -11 23 -28 19c-11 -3 -22 -5 -34 -5c-35 0 -53 15 -53 45c0 15 8 34 23 58c10 17 5 30 -15 30z" />
    <glyph glyph-name="tilde" unicode="&#x2dc;" 
d="M336 696l28 -27c24 -22 43 -30 68 -30c53 0 87 40 94 112c1 17 -7 26 -24 26h-12c-15 0 -23 -8 -25 -24c-2 -15 -5 -26 -8 -34c-6 -12 -16 -18 -28 -18c-8 0 -19 6 -33 19l-28 27c-24 22 -43 30 -68 30c-53 0 -86 -40 -93 -112c-2 -17 7 -26 23 -26h12c16 0 24 8 26 24
c1 15 4 26 8 34c6 12 15 18 27 18c9 0 19 -6 33 -19z" />
    <glyph glyph-name="hungarumlaut" unicode="&#x2dd;" 
d="M280 782l-69 -137c-9 -17 -2 -29 18 -29h15c13 0 22 5 29 17l81 138c11 16 3 29 -16 29h-29c-14 0 -23 -6 -29 -18zM443 783l-75 -137c-9 -18 -2 -30 17 -30h14c13 0 22 5 29 16l92 139c11 16 3 29 -16 29h-32c-14 0 -23 -6 -29 -17z" />
    <glyph glyph-name="pi" unicode="&#x3c0;" 
d="M653 472l6 24c4 17 -4 27 -21 27h-407c-97 0 -138 -28 -158 -115c-4 -17 5 -27 22 -27h28c15 0 23 8 26 23c9 34 27 47 57 47c12 0 17 -11 11 -28l-117 -396c-6 -16 3 -27 20 -27h91c15 0 24 7 26 22l73 407c2 14 11 22 26 22h108c18 0 26 -11 21 -28l-46 -161
c-18 -52 -28 -90 -31 -114c-4 -23 -6 -42 -6 -57c0 -65 65 -133 141 -133c12 0 23 1 35 3c13 3 21 11 23 25l7 55c3 17 -5 26 -21 24c-9 -1 -17 -1 -24 -1c-35 0 -49 15 -49 52c0 8 1 18 4 33c2 16 5 35 10 59l47 221c3 14 12 22 27 22h44c15 0 24 7 27 21z" />
    <glyph glyph-name="endash" unicode="&#x2013;" 
d="M116 285v-22c0 -16 9 -24 25 -24h451c16 0 24 9 24 24v22c0 16 -8 24 -24 24h-451c-16 0 -25 -9 -25 -24z" />
    <glyph glyph-name="emdash" unicode="&#x2014;" 
d="M-134 285v-22c0 -16 9 -24 25 -24h951c16 0 24 9 24 24v22c0 16 -8 24 -24 24h-951c-16 0 -25 -9 -25 -24z" />
    <glyph glyph-name="quoteleft" unicode="&#x2018;" 
d="M408 471v64c0 11 1 19 4 29l38 150c5 17 -4 28 -21 28h-30c-13 0 -23 -6 -28 -18l-82 -160c-6 -10 -8 -19 -8 -30v-63c0 -16 9 -25 25 -25h78c15 0 24 9 24 25z" />
    <glyph glyph-name="quoteright" unicode="&#x2019;" 
d="M325 713v-51c0 -11 -1 -19 -4 -30l-37 -146c-5 -17 4 -28 21 -28h28c14 0 23 6 29 18l81 157c5 10 7 18 7 30v50c0 16 -8 24 -24 24h-76c-17 0 -25 -8 -25 -24z" />
    <glyph glyph-name="quotesinglbase" unicode="&#x201a;" 
d="M332 100v-45c0 -11 -1 -19 -4 -30l-29 -114c-5 -17 4 -27 21 -27h15c14 0 23 5 29 17l64 125c5 10 7 18 7 30v44c0 15 -8 24 -24 24h-55c-16 0 -24 -8 -24 -24z" />
    <glyph glyph-name="quotedblleft" unicode="&#x201c;" 
d="M284 455v65c0 11 1 19 4 30l39 152c4 17 -4 27 -21 27h-31c-13 0 -23 -5 -29 -18l-83 -162c-5 -10 -7 -18 -7 -30v-64c0 -16 9 -25 24 -25h79c16 0 25 9 25 25zM533 455v65c0 11 1 19 4 30l39 152c4 17 -4 27 -21 27h-31c-13 0 -23 -5 -29 -18l-83 -162
c-5 -10 -7 -18 -7 -30v-64c0 -16 9 -25 24 -25h79c16 0 25 9 25 25z" />
    <glyph glyph-name="quotedblright" unicode="&#x201d;" 
d="M210 705v-59c0 -11 -1 -19 -3 -29l-36 -140c-4 -17 4 -27 21 -27h26c13 0 22 5 28 17l77 150c6 10 8 19 8 30v58c0 16 -9 24 -25 24h-71c-16 0 -25 -8 -25 -24zM443 705v-59c0 -11 -1 -19 -4 -29l-36 -140c-4 -17 4 -27 22 -27h25c13 0 23 5 29 17l77 150c5 10 7 19 7 30
v58c0 16 -8 24 -24 24h-71c-16 0 -25 -8 -25 -24z" />
    <glyph glyph-name="quotedblbase" unicode="&#x201e;" 
d="M198 161v-66c0 -11 -1 -19 -4 -30l-39 -154c-5 -17 4 -27 21 -27h32c13 0 22 5 28 17l84 165c6 10 8 18 8 30v65c0 16 -9 25 -25 25h-80c-16 0 -25 -9 -25 -25zM450 161v-66c0 -11 -1 -19 -4 -30l-40 -154c-4 -17 4 -27 21 -27h32c13 0 22 5 28 17l85 165c5 10 7 18 7 30
v65c0 16 -8 25 -24 25h-81c-16 0 -24 -9 -24 -25z" />
    <glyph glyph-name="dagger" unicode="&#x2020;" 
d="M323 705v-157c0 -15 -8 -24 -24 -24h-131c-16 0 -24 -8 -24 -24v-26c0 -16 9 -25 24 -25h131c16 0 25 -8 24 -24l-16 -497c0 -16 9 -21 25 -24l70 -14c15 -3 25 8 24 24l-17 511c0 16 9 24 25 24h130c16 0 24 9 24 25v26c0 16 -8 24 -24 24h-130c-17 0 -25 9 -25 24v157
c0 16 -8 24 -24 24h-37c-16 0 -25 -8 -25 -24z" />
    <glyph glyph-name="daggerdbl" unicode="&#x2021;" 
d="M588 184h-145c-16 0 -25 8 -25 24l-8 216c0 16 8 25 24 25h154v75h-154c-17 0 -25 9 -25 24v181h-86v-181c0 -15 -8 -24 -24 -24h-155v-75h154c16 0 25 -9 24 -25l-8 -216c0 -16 -9 -24 -24 -24h-146v-109h134c17 0 25 -9 24 -25l-8 -146h144l-8 146c-1 16 8 25 24 25
h134v109z" />
    <glyph glyph-name="bullet" unicode="&#x2022;" 
d="M221 372c0 -81 64 -145 145 -145c82 0 145 64 145 145s-63 144 -144 144c-82 0 -146 -63 -146 -144z" />
    <glyph glyph-name="ellipsis" unicode="&#x2026;" 
d="M-45 153v-129c0 -15 8 -24 24 -24h109c16 0 24 9 24 24v129c0 16 -8 25 -24 25h-109c-16 0 -24 -9 -24 -25zM288 153v-129c0 -15 8 -24 24 -24h108c17 0 25 9 25 24v129c0 16 -8 25 -25 25h-108c-16 0 -24 -9 -24 -25zM620 153v-129c0 -15 9 -24 25 -24h108
c16 0 25 9 25 24v129c0 16 -8 25 -25 25h-108c-16 0 -25 -9 -25 -25z" />
    <glyph glyph-name="perthousand" unicode="&#x2030;" 
d="M-82 742c-103 0 -168 -77 -168 -198c0 -123 64 -199 168 -199s169 76 169 199c0 122 -66 198 -169 198zM349 726l-461 -711c-11 -16 -4 -29 16 -29h58c14 0 22 5 29 16l429 711c10 16 3 29 -17 29h-25c-13 0 -22 -5 -29 -16zM-82 680c57 0 91 -40 91 -106
c0 -67 -34 -107 -91 -107s-90 40 -90 107c0 66 34 106 90 106zM422 383c-103 0 -169 -76 -169 -199c0 -121 65 -198 169 -198c102 0 168 77 168 198c0 122 -65 199 -168 199zM814 383c-103 0 -168 -76 -168 -199c0 -121 64 -198 168 -198c103 0 168 77 168 198
c0 122 -65 199 -168 199zM422 321c56 0 90 -37 90 -98c0 -60 -34 -98 -90 -98s-90 38 -90 98c0 61 34 98 90 98zM814 321c56 0 90 -37 90 -98c0 -60 -34 -98 -90 -98s-91 38 -91 98c0 61 35 98 91 98z" />
    <glyph glyph-name="guilsinglleft" unicode="&#x2039;" 
d="M451 490l-185 -165c-10 -9 -14 -17 -14 -30v-4c0 -13 4 -21 14 -30l185 -165c16 -14 30 -8 30 13v35c0 13 -4 22 -13 30l-114 102c-13 11 -13 23 0 34l114 102c9 8 13 17 13 30v35c0 21 -14 27 -30 13z" />
    <glyph glyph-name="guilsinglright" unicode="&#x203a;" 
d="M252 477v-35c0 -13 4 -22 13 -30l114 -102c13 -11 13 -23 0 -34l-114 -102c-9 -8 -13 -17 -13 -30v-35c0 -21 14 -27 30 -13l185 165c10 9 14 17 14 30v4c0 13 -4 21 -14 30l-185 165c-16 14 -30 8 -30 -13z" />
    <glyph glyph-name="fraction" unicode="&#x2044;" 
d="M545 726l-428 -711c-10 -16 -3 -29 17 -29h25c13 0 22 5 29 16l427 711c10 16 3 29 -16 29h-25c-13 0 -22 -5 -29 -16z" />
    <glyph glyph-name="trademark" unicode="&#x2122;" 
d="M268 729h-205c-16 0 -24 -8 -24 -23s9 -23 24 -23h49c16 0 25 -9 24 -25l-12 -186c-1 -16 7 -25 24 -25h34c17 0 25 9 24 25l-12 186c-1 16 8 25 24 25h50c16 0 24 8 24 23s-9 23 -24 23zM416 729h-41c-15 0 -23 -8 -24 -23l-17 -234c-1 -16 8 -25 24 -25h34
c17 0 25 9 24 25l-8 128c-1 23 18 28 28 6l48 -116c6 -12 15 -18 29 -18h5c14 0 23 6 28 19l45 112c9 21 29 16 28 -6l-8 -125c-1 -16 7 -25 24 -25h34c16 0 24 9 24 25l-8 233c0 16 -9 24 -25 24h-39c-14 0 -23 -5 -29 -17l-59 -110c-10 -18 -24 -18 -33 0l-55 109
c-6 13 -15 18 -29 18z" />
    <glyph glyph-name="Omega" unicode="&#x2126;" 
d="M686 116h-87c-23 0 -28 15 -12 30c81 77 115 137 115 249c0 201 -139 343 -336 343c-199 0 -336 -141 -336 -348c0 -106 35 -168 115 -244c17 -15 11 -30 -11 -30h-88c-16 0 -24 -8 -24 -24v-68c0 -16 9 -24 24 -24h245c16 0 24 9 24 24v71c0 14 -6 23 -19 29
c-104 42 -165 147 -165 271c0 188 95 283 235 283c141 0 235 -94 235 -283c0 -124 -60 -229 -164 -271c-13 -6 -20 -15 -20 -29v-71c0 -15 9 -24 25 -24h244c16 0 24 9 24 24v68c0 16 -8 24 -24 24z" />
    <glyph glyph-name="partialdiff" unicode="&#x2202;" 
d="M482 349c-3 -23 -15 -24 -28 -5c-25 35 -60 51 -110 51c-105 0 -187 -93 -187 -222c0 -106 74 -185 174 -185c138 0 245 161 245 379c0 172 -76 280 -193 280c-66 0 -119 -38 -119 -78c0 -20 7 -22 31 -22c12 0 20 6 26 18c5 13 38 20 98 24c47 0 71 -43 71 -127
c0 -36 -2 -74 -8 -113zM433 263c0 -114 -57 -194 -135 -194c-58 0 -90 35 -90 100c0 115 57 194 135 194c57 0 90 -36 90 -100z" />
    <glyph glyph-name="Delta" unicode="&#x2206;" 
d="M304 700l-264 -672c-7 -17 1 -28 19 -28h614c18 0 26 11 19 28l-264 672c-5 13 -13 19 -28 19h-68c-14 0 -23 -6 -28 -19zM382 633l177 -459c6 -17 -1 -28 -19 -28h-348c-18 0 -26 11 -20 28l178 459c8 21 24 21 32 0z" />
    <glyph glyph-name="product" unicode="&#x220f;" 
d="M43 695l9 -862c0 -17 9 -25 25 -25h101c16 0 25 9 24 25l-41 761c-1 16 7 25 23 25h321c16 0 24 -8 25 -24l9 -762c0 -17 8 -25 24 -25h103c16 0 24 9 23 25l-42 862c0 16 -9 24 -24 24h-556c-16 0 -25 -9 -24 -24z" />
    <glyph glyph-name="summation" unicode="&#x2211;" 
d="M60 695v-25c0 -12 4 -21 14 -29l403 -351c12 -11 12 -24 -1 -35l-416 -324c-10 -8 -15 -16 -15 -30v-68c0 -16 9 -25 25 -25h593c16 0 24 8 24 25v84c0 16 -8 24 -24 24h-418c-24 0 -29 16 -11 30l376 287c14 11 14 24 1 35l-370 321c-17 15 -12 31 11 31h398
c16 0 24 8 24 24v26c0 16 -8 24 -24 24h-566c-16 0 -24 -8 -24 -24z" />
    <glyph glyph-name="minus" unicode="&#x2212;" 
d="M53 331v-35c0 -15 9 -24 25 -24h577c16 0 24 9 24 24v35c0 16 -8 24 -24 24h-577c-16 0 -25 -8 -25 -24z" />
    <glyph glyph-name="middot.001" unicode="&#x2219;" 
d="M300 420v-110c0 -17 9 -25 24 -25h84c16 0 25 9 25 25v110c0 17 -9 25 -25 25h-84c-16 0 -24 -9 -24 -25z" />
    <glyph glyph-name="radical" unicode="&#x221a;" 
d="M568 792l-229 -619c-7 -21 -24 -21 -31 1l-101 279c-6 15 -17 20 -32 15l-92 -32c-15 -5 -21 -15 -17 -27c4 -13 13 -17 25 -13l19 7c15 5 26 0 32 -15l140 -388c5 -14 14 -20 28 -20h35c14 0 23 6 28 20l231 745c4 13 14 19 28 19h11c16 0 24 8 24 24c0 15 -8 23 -24 23
h-47c-14 0 -23 -6 -28 -19z" />
    <glyph glyph-name="infinity" unicode="&#x221e;" 
d="M355 208c10 16 22 16 33 0c45 -70 86 -98 140 -98c88 0 147 76 147 190c0 109 -70 191 -157 191c-56 0 -101 -32 -142 -102c-10 -17 -22 -17 -32 0c-42 69 -85 100 -140 100c-87 0 -147 -77 -147 -191c0 -108 69 -190 157 -190c55 0 100 31 141 100zM406 301
c-8 11 -8 21 -2 33c45 93 83 128 133 128c58 0 101 -49 101 -115c0 -68 -46 -117 -112 -117c-49 0 -89 24 -120 71zM327 332c7 -12 7 -22 1 -34c-44 -87 -83 -84 -133 -84c-58 0 -101 49 -101 115c0 69 46 116 112 116c50 0 90 -60 121 -113z" />
    <glyph glyph-name="integral" unicode="&#x222b;" 
d="M258 -128c-6 0 -10 7 -11 21c-2 13 -4 23 -8 28c-10 18 -25 28 -47 28c-39 0 -63 -21 -63 -58c0 -42 37 -72 88 -72c64 0 112 34 142 101c31 67 49 179 55 335l3 148c5 201 25 302 60 302c5 0 8 -6 10 -17c1 -12 3 -21 5 -25c8 -23 26 -36 53 -36c36 0 59 22 59 57
c0 43 -36 73 -88 73c-66 0 -115 -36 -145 -109c-31 -72 -49 -192 -53 -359c0 -19 -1 -46 -1 -81c-4 -224 -24 -336 -59 -336z" />
    <glyph glyph-name="approxequal" unicode="&#x2248;" 
d="M679 426v31c0 21 -13 26 -30 14c-53 -38 -97 -55 -145 -55c-30 0 -71 10 -121 30l-11 4l-7 3c-48 19 -90 30 -126 34c-58 0 -109 -18 -171 -61c-10 -8 -15 -16 -15 -30v-30c0 -21 13 -27 30 -14c51 37 97 54 145 54c31 0 71 -12 122 -35c4 -2 8 -3 10 -4l8 -3
c48 -19 90 -29 125 -29c58 0 110 18 171 61c11 8 15 17 15 30zM679 235v32c0 21 -13 26 -30 14c-53 -38 -97 -55 -145 -55c-30 0 -71 10 -121 30l-10 4l-8 3c-48 19 -90 30 -126 34c-58 0 -109 -18 -171 -61c-10 -7 -15 -16 -15 -29v-32c0 -20 13 -26 30 -13
c51 37 97 54 145 54c31 0 71 -12 122 -35c4 -2 8 -3 10 -4l8 -3c48 -19 90 -29 125 -29c58 0 110 18 171 61c11 7 15 16 15 29z" />
    <glyph glyph-name="notequal" unicode="&#x2260;" 
d="M53 430v-34c0 -16 9 -24 25 -24h246c21 0 27 -14 14 -30l-59 -73c-8 -10 -17 -14 -30 -14h-171c-16 0 -25 -8 -25 -25v-34c0 -16 9 -24 25 -24h83c21 0 27 -14 13 -30l-44 -54c-10 -12 -9 -25 3 -35l23 -19c12 -10 25 -9 35 4l99 120c8 9 17 14 29 14h336
c16 0 24 9 24 24v34c0 17 -8 25 -24 25h-247c-21 0 -28 14 -14 30l59 73c8 10 17 14 29 14h173c15 0 24 9 24 24v34c0 15 -8 24 -24 24h-85c-21 0 -28 14 -14 30l45 55c10 12 8 24 -4 35l-23 18c-12 11 -24 9 -34 -3l-98 -121c-8 -10 -17 -14 -30 -14h-334
c-16 0 -25 -9 -25 -24z" />
    <glyph glyph-name="lessequal" unicode="&#x2264;" 
d="M679 518v36c0 17 -11 25 -27 20l-578 -165c-14 -4 -21 -13 -21 -28v-40c0 -14 7 -23 21 -27l578 -166c16 -5 27 3 27 20v38c0 14 -7 23 -20 27l-395 113c-23 6 -23 24 0 30l395 114c13 4 20 13 20 28zM53 59v-35c0 -15 9 -24 25 -24h577c16 0 24 9 24 24v35
c0 16 -8 24 -24 24h-577c-16 0 -25 -8 -25 -24z" />
    <glyph glyph-name="greaterequal" unicode="&#x2265;" 
d="M74 490l395 -114c23 -6 23 -24 0 -30l-395 -113c-14 -4 -21 -13 -21 -27v-38c0 -17 11 -25 28 -20l578 166c13 4 20 13 20 27v40c0 15 -7 24 -20 28l-578 165c-17 5 -28 -3 -28 -20v-36c0 -15 7 -24 21 -28zM655 83h-577c-16 0 -25 -8 -25 -24v-35c0 -16 9 -24 25 -24
h577c16 0 24 9 24 24v35c0 16 -8 24 -24 24z" />
    <glyph glyph-name="lozenge" unicode="&#x25ca;" 
d="M350 772l-220 -466c-5 -12 -5 -22 0 -34l220 -470c8 -19 24 -19 33 0l220 470c5 12 5 22 0 34l-220 466c-9 19 -25 19 -33 0zM383 653l163 -346c6 -13 5 -23 -3 -34l-160 -235c-10 -15 -24 -15 -34 0l-160 235c-7 11 -8 21 -2 34l163 346c8 19 24 19 33 0z" />
    <glyph glyph-name="fi" unicode="&#xfb01;" 
d="M584 547h-278c-16 0 -25 9 -25 24v24c0 51 18 88 71 94c11 1 19 2 30 4l50 12c14 3 21 12 21 26v27c0 17 -9 25 -26 23l-64 -7c-117 -19 -177 -70 -177 -189v-14c0 -15 -8 -24 -24 -24h-37c-16 0 -25 -8 -25 -25v-16c0 -15 9 -24 25 -24h36c16 0 25 -9 25 -25l-9 -432
c-1 -16 8 -25 24 -25h70c16 0 24 9 24 25l-13 432c0 16 8 25 24 25h187c16 0 25 -9 25 -25l-9 -432c-1 -16 8 -25 24 -25h65c16 0 25 9 25 25l-14 498c-1 16 -9 24 -25 24zM518 734v-65c0 -15 9 -24 24 -24h42c16 0 24 9 24 24v65c0 16 -8 25 -24 25h-42
c-16 0 -24 -9 -24 -25z" />
    <glyph glyph-name="fl" unicode="&#xfb02;" 
d="M571 760h-225c-123 0 -178 -53 -178 -175l-1 -15c-2 -15 -11 -23 -26 -23h-34c-16 0 -24 -8 -24 -25v-21c0 -15 8 -24 24 -24h32c16 0 24 -9 24 -25l-13 -427c-1 -16 8 -25 24 -25h94c16 0 24 9 24 25l-27 427c-1 16 7 25 24 25h93c16 0 25 9 25 24v21c0 16 -9 25 -25 25
h-95c-16 0 -24 8 -25 23l-3 35c0 68 21 90 86 90h136c16 0 24 -8 24 -25v-646c0 -16 9 -24 25 -24h95c16 0 25 9 25 24l-1 54c0 16 -5 25 -14 25l-15 -1c-16 0 -24 8 -24 24v609c0 16 -9 25 -25 25z" />
    <glyph glyph-name="c6459" 
d="M221 707v-51c0 -15 9 -24 25 -24h50c16 0 24 9 24 24v51c0 15 -8 24 -24 24h-50c-16 0 -25 -8 -25 -24zM412 707v-51c0 -15 9 -24 25 -24h50c15 0 24 9 24 24v51c0 15 -8 24 -24 24h-50c-16 0 -25 -8 -25 -24z" />
    <glyph glyph-name="c6460" 
d="M359 730l-63 -84c-12 -17 -5 -30 16 -30h19c13 0 22 4 30 14l74 85c13 16 7 30 -14 30h-32c-14 0 -22 -4 -30 -15z" />
    <glyph glyph-name="c6461" 
d="M336 669l28 -16c34 -18 49 -21 71 -21c47 0 81 31 90 81c3 16 -7 26 -24 26h-10c-16 0 -25 -1 -25 -2v-1c0 -27 -14 -45 -35 -45c-10 0 -20 4 -35 12l-28 15c-31 17 -47 21 -71 21c-48 0 -82 -31 -90 -82c-2 -16 7 -25 23 -25h12c15 0 24 0 24 1v2c0 29 14 46 37 46
c8 0 17 -3 33 -12z" />
    <glyph glyph-name="c6462" 
d="M344 745h-33c-21 0 -27 -14 -14 -30l75 -85c8 -10 17 -14 30 -14h19c21 0 28 13 16 30l-63 84c-8 11 -17 15 -30 15z" />
    <glyph glyph-name="c6463" 
d="M310 731l-68 -85c-13 -16 -9 -30 10 -30h16c12 0 21 4 30 13l52 56c10 11 23 11 34 0l52 -56c8 -9 17 -13 30 -13h12c21 0 27 14 14 30l-68 85c-8 11 -17 15 -30 15h-55c-13 0 -22 -4 -29 -15z" />
    <glyph glyph-name="c6466" 
d="M338 616h55c13 0 22 5 30 14l68 86c13 16 8 30 -10 30h-16c-13 0 -22 -4 -30 -13l-52 -55c-11 -12 -24 -12 -34 0l-52 55c-9 9 -18 13 -30 13h-12c-21 0 -27 -14 -14 -30l68 -85c7 -10 16 -15 29 -15z" />
    <glyph glyph-name="c6467" 
d="M377 719l-169 -229c-8 -10 -11 -19 -11 -31v-18c0 -16 9 -24 25 -24h153c16 0 24 -8 24 -24v-42c0 -17 9 -25 25 -25h21c16 0 25 8 25 25v42c0 15 9 24 24 24h17c16 0 25 9 25 24v5c0 15 -8 24 -21 24h-21c-16 0 -24 9 -24 25v214c0 16 -9 25 -25 25h-38
c-13 0 -22 -5 -30 -15zM399 625v-130c0 -16 -8 -25 -24 -25h-89c-21 0 -28 13 -15 30l99 134c13 19 29 14 29 -9z" />
    <glyph glyph-name="c6468" 
d="M250 746h-10c-17 0 -27 -10 -22 -26c15 -61 66 -92 148 -92s134 31 149 92c4 16 -6 26 -23 26h-10c-14 0 -21 -6 -28 -18c-16 -24 -44 -36 -88 -36c-43 0 -73 12 -87 36c-8 12 -14 18 -29 18z" />
    <glyph glyph-name="c6469" 
d="M316 708v-52c0 -15 9 -24 25 -24h51c16 0 24 9 24 24v52c0 16 -8 24 -24 24h-51c-16 0 -25 -8 -25 -24z" />
    <glyph glyph-name="glyph268" 
 />
    <glyph glyph-name="Abreve" unicode="&#x102;" 
d="M255 892h-10c-16 0 -26 -10 -22 -26c13 -76 64 -114 149 -114s136 38 150 114c3 16 -6 26 -23 26h-10c-14 0 -22 -7 -27 -21c-13 -35 -42 -52 -90 -52s-77 17 -90 52c-5 14 -12 21 -27 21zM313 710l-270 -682c-6 -17 1 -28 20 -28h82c14 0 22 6 27 20l24 79
c5 13 13 20 28 20h285c15 0 24 -7 27 -22l18 -76c3 -14 12 -21 27 -21h89c18 0 26 11 19 28l-269 682c-5 13 -14 19 -28 19h-51c-14 0 -23 -6 -28 -19zM382 592l109 -329c6 -17 -2 -28 -20 -28h-209c-18 0 -26 11 -20 28l109 329c7 22 24 22 31 0z" />
    <glyph glyph-name="Abreveacute" unicode="&#x1eae;" 
d="M473 1119l-118 -160c-13 -16 -6 -29 14 -29h28c13 0 22 3 30 13l140 161c13 15 7 30 -14 30h-50c-13 0 -22 -5 -30 -15zM255 892h-10c-16 0 -26 -10 -22 -26c13 -76 64 -114 149 -114s136 38 150 114c3 16 -6 26 -23 26h-10c-14 0 -22 -7 -27 -21
c-13 -35 -42 -52 -90 -52s-77 17 -90 52c-5 14 -12 21 -27 21zM313 710l-270 -682c-6 -17 1 -28 20 -28h82c14 0 22 6 27 20l24 79c5 13 13 20 28 20h285c15 0 24 -7 27 -22l18 -76c3 -14 12 -21 27 -21h89c18 0 26 11 19 28l-269 682c-5 13 -14 19 -28 19h-51
c-14 0 -23 -6 -28 -19zM382 592l109 -329c6 -17 -2 -28 -20 -28h-209c-18 0 -26 11 -20 28l109 329c7 22 24 22 31 0z" />
    <glyph glyph-name="Abrevedotbelow" unicode="&#x1eb6;" 
d="M255 892h-10c-16 0 -26 -10 -22 -26c13 -76 64 -114 149 -114s136 38 150 114c3 16 -6 26 -23 26h-10c-14 0 -22 -7 -27 -21c-13 -35 -42 -52 -90 -52s-77 17 -90 52c-5 14 -12 21 -27 21zM313 710l-270 -682c-6 -17 1 -28 20 -28h82c14 0 22 6 27 20l24 79
c5 13 13 20 28 20h285c15 0 24 -7 27 -22l18 -76c3 -14 12 -21 27 -21h89c18 0 26 11 19 28l-269 682c-5 13 -14 19 -28 19h-51c-14 0 -23 -6 -28 -19zM382 592l109 -329c6 -17 -2 -28 -20 -28h-209c-18 0 -26 11 -20 28l109 329c7 22 24 22 31 0zM331 -117v-59
c0 -16 9 -25 25 -25h51c16 0 25 9 25 25v59c0 16 -9 24 -25 24h-51c-16 0 -25 -8 -25 -24z" />
    <glyph glyph-name="Abrevegrave" unicode="&#x1eb0;" 
d="M288 1122h-44c-19 0 -27 -12 -17 -29l75 -137c6 -11 15 -17 29 -17h76c21 0 27 13 15 30l-104 138c-8 10 -17 15 -30 15zM255 892h-10c-16 0 -26 -10 -22 -26c13 -76 64 -114 149 -114s136 38 150 114c3 16 -6 26 -23 26h-10c-14 0 -22 -7 -27 -21
c-13 -35 -42 -52 -90 -52s-77 17 -90 52c-5 14 -12 21 -27 21zM313 710l-270 -682c-6 -17 1 -28 20 -28h82c14 0 22 6 27 20l24 79c5 13 13 20 28 20h285c15 0 24 -7 27 -22l18 -76c3 -14 12 -21 27 -21h89c18 0 26 11 19 28l-269 682c-5 13 -14 19 -28 19h-51
c-14 0 -23 -6 -28 -19zM382 592l109 -329c6 -17 -2 -28 -20 -28h-209c-18 0 -26 11 -20 28l109 329c7 22 24 22 31 0z" />
    <glyph glyph-name="Abrevehookabove" unicode="&#x1eb2;" 
d="M317 950v-21c16 8 31 13 45 13c23 0 32 -8 32 -14s-4 -12 -11 -17l-11 -9c-8 -6 -13 -10 -15 -15c-3 -4 -4 -10 -4 -16v-3h28s3 13 6 16c2 1 3 3 5 4l11 7c14 11 21 21 21 31s-5 19 -15 26c-10 6 -24 10 -40 10c-17 0 -34 -4 -52 -12zM255 892h-10c-16 0 -26 -10 -22 -26
c13 -76 64 -114 149 -114s136 38 150 114c3 16 -6 26 -23 26h-10c-14 0 -22 -7 -27 -21c-13 -35 -42 -52 -90 -52s-77 17 -90 52c-5 14 -12 21 -27 21zM313 710l-270 -682c-6 -17 1 -28 20 -28h82c14 0 22 6 27 20l24 79c5 13 13 20 28 20h285c15 0 24 -7 27 -22l18 -76
c3 -14 12 -21 27 -21h89c18 0 26 11 19 28l-269 682c-5 13 -14 19 -28 19h-51c-14 0 -23 -6 -28 -19zM382 592l109 -329c6 -17 -2 -28 -20 -28h-209c-18 0 -26 11 -20 28l109 329c7 22 24 22 31 0z" />
    <glyph glyph-name="Abrevetilde" unicode="&#x1eb4;" 
d="M342 977l28 -27c24 -22 43 -30 68 -30c53 0 87 40 94 112c1 17 -7 26 -24 26h-12c-15 0 -23 -8 -25 -24c-2 -15 -5 -26 -8 -34c-6 -12 -16 -18 -28 -18c-8 0 -19 6 -33 19l-28 27c-24 22 -43 30 -68 30c-53 0 -86 -40 -93 -112c-2 -17 7 -26 23 -26h12c16 0 24 8 26 24
c1 15 4 26 8 34c6 12 15 18 27 18c9 0 19 -6 33 -19zM255 892h-10c-16 0 -26 -10 -22 -26c13 -76 64 -114 149 -114s136 38 150 114c3 16 -6 26 -23 26h-10c-14 0 -22 -7 -27 -21c-13 -35 -42 -52 -90 -52s-77 17 -90 52c-5 14 -12 21 -27 21zM313 710l-270 -682
c-6 -17 1 -28 20 -28h82c14 0 22 6 27 20l24 79c5 13 13 20 28 20h285c15 0 24 -7 27 -22l18 -76c3 -14 12 -21 27 -21h89c18 0 26 11 19 28l-269 682c-5 13 -14 19 -28 19h-51c-14 0 -23 -6 -28 -19zM382 592l109 -329c6 -17 -2 -28 -20 -28h-209c-18 0 -26 11 -20 28
l109 329c7 22 24 22 31 0z" />
    <glyph glyph-name="Acaron" unicode="&#x1cd;" 
d="M355 750h34c13 0 22 5 30 16l90 139c11 16 4 29 -15 29h-15c-14 0 -22 -5 -30 -15l-60 -81c-10 -15 -24 -15 -34 0l-59 81c-8 10 -17 15 -30 15h-14c-20 0 -27 -13 -17 -29l91 -139c7 -11 16 -16 29 -16zM313 710l-270 -682c-6 -17 1 -28 20 -28h82c14 0 22 6 27 20
l24 79c5 13 13 20 28 20h285c15 0 24 -7 27 -22l18 -76c3 -14 12 -21 27 -21h89c18 0 26 11 19 28l-269 682c-5 13 -14 19 -28 19h-51c-14 0 -23 -6 -28 -19zM382 592l109 -329c6 -17 -2 -28 -20 -28h-209c-18 0 -26 11 -20 28l109 329c7 22 24 22 31 0z" />
    <glyph glyph-name="Acircumflexacute" unicode="&#x1ea4;" 
d="M473 1119l-118 -160c-13 -16 -6 -29 14 -29h28c13 0 22 3 30 13l140 161c13 15 7 30 -14 30h-50c-13 0 -22 -5 -30 -15zM284 733l71 96c10 15 24 15 34 0l71 -96h68l-120 184h-72l-120 -184h68zM313 710l-270 -682c-6 -17 1 -28 20 -28h82c14 0 22 6 27 20l24 79
c5 13 13 20 28 20h285c15 0 24 -7 27 -22l18 -76c3 -14 12 -21 27 -21h89c18 0 26 11 19 28l-269 682c-5 13 -14 19 -28 19h-51c-14 0 -23 -6 -28 -19zM382 592l109 -329c6 -17 -2 -28 -20 -28h-209c-18 0 -26 11 -20 28l109 329c7 22 24 22 31 0z" />
    <glyph glyph-name="Acircumflexdotbelow" unicode="&#x1eac;" 
d="M284 733l71 96c10 15 24 15 34 0l71 -96h68l-120 184h-72l-120 -184h68zM313 710l-270 -682c-6 -17 1 -28 20 -28h82c14 0 22 6 27 20l24 79c5 13 13 20 28 20h285c15 0 24 -7 27 -22l18 -76c3 -14 12 -21 27 -21h89c18 0 26 11 19 28l-269 682c-5 13 -14 19 -28 19h-51
c-14 0 -23 -6 -28 -19zM382 592l109 -329c6 -17 -2 -28 -20 -28h-209c-18 0 -26 11 -20 28l109 329c7 22 24 22 31 0zM331 -117v-59c0 -16 9 -25 25 -25h51c16 0 25 9 25 25v59c0 16 -9 24 -25 24h-51c-16 0 -25 -8 -25 -24z" />
    <glyph glyph-name="Acircumflexgrave" unicode="&#x1ea6;" 
d="M288 1122h-44c-19 0 -27 -12 -17 -29l75 -137c6 -11 15 -17 29 -17h76c21 0 27 13 15 30l-104 138c-8 10 -17 15 -30 15zM284 733l71 96c10 15 24 15 34 0l71 -96h68l-120 184h-72l-120 -184h68zM313 710l-270 -682c-6 -17 1 -28 20 -28h82c14 0 22 6 27 20l24 79
c5 13 13 20 28 20h285c15 0 24 -7 27 -22l18 -76c3 -14 12 -21 27 -21h89c18 0 26 11 19 28l-269 682c-5 13 -14 19 -28 19h-51c-14 0 -23 -6 -28 -19zM382 592l109 -329c6 -17 -2 -28 -20 -28h-209c-18 0 -26 11 -20 28l109 329c7 22 24 22 31 0z" />
    <glyph glyph-name="Acircumflexhookabove" unicode="&#x1ea8;" 
d="M283 873l71 96c10 15 24 15 34 0l71 -96h68l-120 184h-72l-120 -184h68zM312 876v-21c16 8 31 13 45 13c23 0 32 -8 32 -14s-4 -12 -11 -17l-11 -9c-8 -6 -13 -10 -15 -15c-3 -4 -4 -10 -4 -16v-3h28s3 13 6 16c2 1 3 3 5 4l11 7c14 11 21 21 21 31s-5 19 -15 26
c-10 6 -24 10 -40 10c-17 0 -34 -4 -52 -12zM313 710l-270 -682c-6 -17 1 -28 20 -28h82c14 0 22 6 27 20l24 79c5 13 13 20 28 20h285c15 0 24 -7 27 -22l18 -76c3 -14 12 -21 27 -21h89c18 0 26 11 19 28l-269 682c-5 13 -14 19 -28 19h-51c-14 0 -23 -6 -28 -19zM382 592
l109 -329c6 -17 -2 -28 -20 -28h-209c-18 0 -26 11 -20 28l109 329c7 22 24 22 31 0z" />
    <glyph glyph-name="Acircumflextilde" unicode="&#x1eaa;" 
d="M342 977l28 -27c24 -22 43 -30 68 -30c53 0 87 40 94 112c1 17 -7 26 -24 26h-12c-15 0 -23 -8 -25 -24c-2 -15 -5 -26 -8 -34c-6 -12 -16 -18 -28 -18c-8 0 -19 6 -33 19l-28 27c-24 22 -43 30 -68 30c-53 0 -86 -40 -93 -112c-2 -17 7 -26 23 -26h12c16 0 24 8 26 24
c1 15 4 26 8 34c6 12 15 18 27 18c9 0 19 -6 33 -19zM284 733l71 96c10 15 24 15 34 0l71 -96h68l-120 184h-72l-120 -184h68zM313 710l-270 -682c-6 -17 1 -28 20 -28h82c14 0 22 6 27 20l24 79c5 13 13 20 28 20h285c15 0 24 -7 27 -22l18 -76c3 -14 12 -21 27 -21h89
c18 0 26 11 19 28l-269 682c-5 13 -14 19 -28 19h-51c-14 0 -23 -6 -28 -19zM382 592l109 -329c6 -17 -2 -28 -20 -28h-209c-18 0 -26 11 -20 28l109 329c7 22 24 22 31 0z" />
    <glyph glyph-name="Adieresismacron" unicode="&#x1de;" 
d="M226 996v-24c0 -15 9 -24 25 -24h243c16 0 24 9 24 24v24c0 16 -8 24 -24 24h-243c-16 0 -25 -8 -25 -24zM216 875v-57c0 -16 9 -25 24 -25h58c16 0 24 9 24 25v57c0 16 -8 24 -24 24h-58c-16 0 -24 -8 -24 -24zM421 875v-57c0 -16 8 -25 24 -25h58c16 0 24 9 24 25v57
c0 16 -8 24 -24 24h-58c-16 0 -24 -8 -24 -24zM313 710l-270 -682c-6 -17 1 -28 20 -28h82c14 0 22 6 27 20l24 79c5 13 13 20 28 20h285c15 0 24 -7 27 -22l18 -76c3 -14 12 -21 27 -21h89c18 0 26 11 19 28l-269 682c-5 13 -14 19 -28 19h-51c-14 0 -23 -6 -28 -19z
M382 592l109 -329c6 -17 -2 -28 -20 -28h-209c-18 0 -26 11 -20 28l109 329c7 22 24 22 31 0z" />
    <glyph glyph-name="Adotbelow" unicode="&#x1ea0;" 
d="M313 710l-270 -682c-6 -17 1 -28 20 -28h82c14 0 22 6 27 20l24 79c5 13 13 20 28 20h285c15 0 24 -7 27 -22l18 -76c3 -14 12 -21 27 -21h89c18 0 26 11 19 28l-269 682c-5 13 -14 19 -28 19h-51c-14 0 -23 -6 -28 -19zM382 592l109 -329c6 -17 -2 -28 -20 -28h-209
c-18 0 -26 11 -20 28l109 329c7 22 24 22 31 0zM331 -117v-59c0 -16 9 -25 25 -25h51c16 0 25 9 25 25v59c0 16 -9 24 -25 24h-51c-16 0 -25 -8 -25 -24z" />
    <glyph glyph-name="Ahookabove" unicode="&#x1ea2;" 
d="M312 842v-21c16 8 31 13 45 13c23 0 32 -8 32 -14s-4 -12 -11 -17l-11 -9c-8 -6 -13 -10 -15 -15c-3 -4 -4 -10 -4 -16v-3h28s3 13 6 16c2 1 3 3 5 4l11 7c14 11 21 21 21 31s-5 19 -15 26c-10 6 -24 10 -40 10c-17 0 -34 -4 -52 -12zM313 710l-270 -682
c-6 -17 1 -28 20 -28h82c14 0 22 6 27 20l24 79c5 13 13 20 28 20h285c15 0 24 -7 27 -22l18 -76c3 -14 12 -21 27 -21h89c18 0 26 11 19 28l-269 682c-5 13 -14 19 -28 19h-51c-14 0 -23 -6 -28 -19zM382 592l109 -329c6 -17 -2 -28 -20 -28h-209c-18 0 -26 11 -20 28
l109 329c7 22 24 22 31 0z" />
    <glyph glyph-name="Amacron" unicode="&#x100;" 
d="M226 996v-24c0 -15 9 -24 25 -24h243c16 0 24 9 24 24v24c0 16 -8 24 -24 24h-243c-16 0 -25 -8 -25 -24zM313 710l-270 -682c-6 -17 1 -28 20 -28h82c14 0 22 6 27 20l24 79c5 13 13 20 28 20h285c15 0 24 -7 27 -22l18 -76c3 -14 12 -21 27 -21h89c18 0 26 11 19 28
l-269 682c-5 13 -14 19 -28 19h-51c-14 0 -23 -6 -28 -19zM382 592l109 -329c6 -17 -2 -28 -20 -28h-209c-18 0 -26 11 -20 28l109 329c7 22 24 22 31 0z" />
    <glyph glyph-name="Aogonek" unicode="&#x104;" 
d="M671 -128c17 4 28 -1 28 -19v-14c0 -15 -7 -24 -22 -27c-16 -3 -31 -5 -45 -5c-79 0 -116 27 -116 88c0 27 14 57 41 91c8 10 17 14 30 14h-6c-15 0 -24 7 -27 21l-18 76c-3 15 -12 22 -27 22h-285c-15 0 -23 -7 -28 -20l-24 -79c-5 -14 -13 -20 -27 -20h-82
c-19 0 -26 11 -20 28l270 682c5 13 14 19 28 19h51c14 0 23 -6 28 -19l269 -682c7 -17 -1 -28 -19 -28h-78c20 0 25 -13 15 -30c-15 -24 -23 -43 -23 -58c0 -30 18 -45 53 -45c12 0 23 2 34 5zM262 235h209c18 0 26 11 20 28l-109 329c-7 22 -24 22 -31 0l-109 -329
c-6 -17 2 -28 20 -28z" />
    <glyph glyph-name="Bdotbelow" unicode="&#x1e04;" 
d="M103 705v-681c0 -15 8 -24 24 -24h238c163 0 265 74 265 204c0 92 -50 158 -162 184c-16 4 -16 6 0 11c64 19 97 70 97 150c0 115 -84 180 -234 180h-204c-16 0 -24 -8 -24 -24zM226 663h122c96 0 143 -51 143 -125s-47 -110 -143 -110h-122c-16 0 -24 9 -24 25v185
c0 16 8 25 24 25zM226 348h134c53 0 92 -11 118 -32c25 -22 38 -41 38 -57c0 -91 -50 -114 -156 -114h-134c-16 0 -24 8 -24 24v155c0 16 8 24 24 24zM277 -57v-59c0 -16 9 -25 25 -25h51c16 0 25 9 25 25v59c0 16 -9 24 -25 24h-51c-16 0 -25 -8 -25 -24z" />
    <glyph glyph-name="Cdotaccent" unicode="&#x10a;" 
d="M331 915v-50c0 -16 9 -25 25 -25h51c16 0 24 9 24 25v50c0 17 -8 25 -24 25h-51c-16 0 -25 -8 -25 -25zM660 607v47c0 13 -4 22 -16 29c-63 40 -135 59 -216 59c-220 0 -356 -144 -356 -378s136 -378 356 -378c80 0 152 20 216 60c11 7 16 16 16 29v114
c0 21 -13 26 -29 14c-59 -46 -125 -68 -197 -68c-166 0 -255 58 -258 229c0 193 92 297 258 297c72 0 138 -22 197 -67c16 -13 29 -8 29 13z" />
    <glyph glyph-name="Dcaron" unicode="&#x10e;" 
d="M349 798h34c13 0 22 5 30 16l90 139c11 16 4 29 -15 29h-15c-14 0 -22 -5 -30 -15l-60 -81c-10 -15 -24 -15 -34 0l-59 81c-8 10 -17 15 -30 15h-14c-20 0 -27 -13 -17 -29l91 -139c7 -11 16 -16 29 -16zM85 705v-681c0 -15 9 -24 24 -24h179c231 0 360 114 360 365
c0 250 -127 364 -360 364h-179c-15 0 -24 -8 -24 -24zM213 648h95c146 0 236 -86 241 -258c0 -11 -1 -19 -4 -30c-33 -137 -93 -176 -237 -176h-95c-16 0 -24 8 -24 24v416c0 16 9 24 24 24z" />
    <glyph glyph-name="Dcircumflexbelow" unicode="&#x1e12;" 
d="M85 705v-681c0 -15 9 -24 24 -24h179c231 0 360 114 360 365c0 250 -127 364 -360 364h-179c-15 0 -24 -8 -24 -24zM213 648h95c146 0 236 -86 241 -258c0 -11 -1 -19 -4 -30c-33 -137 -93 -176 -237 -176h-95c-16 0 -24 8 -24 24v416c0 16 9 24 24 24zM205 -254l71 96
c10 15 24 15 34 0l71 -96h68l-120 184h-72l-120 -184h68z" />
    <glyph glyph-name="Dcroat" unicode="&#x110;" 
d="M220 1044v-24c0 -15 9 -24 25 -24h243c16 0 24 9 24 24v24c0 16 -8 24 -24 24h-243c-16 0 -25 -8 -25 -24zM85 705v-681c0 -15 9 -24 24 -24h179c231 0 360 114 360 365c0 250 -127 364 -360 364h-179c-15 0 -24 -8 -24 -24zM213 648h95c146 0 236 -86 241 -258
c0 -11 -1 -19 -4 -30c-33 -137 -93 -176 -237 -176h-95c-16 0 -24 8 -24 24v416c0 16 9 24 24 24z" />
    <glyph glyph-name="Ddotbelow" unicode="&#x1e0c;" 
d="M85 705v-681c0 -15 9 -24 24 -24h179c231 0 360 114 360 365c0 250 -127 364 -360 364h-179c-15 0 -24 -8 -24 -24zM213 648h95c146 0 236 -86 241 -258c0 -11 -1 -19 -4 -30c-33 -137 -93 -176 -237 -176h-95c-16 0 -24 8 -24 24v416c0 16 9 24 24 24zM266 -59v-59
c0 -16 9 -25 25 -25h51c16 0 25 9 25 25v59c0 16 -9 24 -25 24h-51c-16 0 -25 -8 -25 -24z" />
    <glyph glyph-name="Dlinebelow" unicode="&#x1e0e;" 
d="M85 705v-681c0 -15 9 -24 24 -24h179c231 0 360 114 360 365c0 250 -127 364 -360 364h-179c-15 0 -24 -8 -24 -24zM213 648h95c146 0 236 -86 241 -258c0 -11 -1 -19 -4 -30c-33 -137 -93 -176 -237 -176h-95c-16 0 -24 8 -24 24v416c0 16 9 24 24 24zM186 -173l6 37
c2 15 11 22 26 22l214 4c17 1 25 -9 22 -26l-5 -36c-3 -15 -11 -23 -26 -23l-214 -4c-17 0 -26 10 -23 26z" />
    <glyph glyph-name="Ecaron" unicode="&#x11a;" 
d="M334 774h34c13 0 22 5 30 16l90 139c11 16 4 29 -15 29h-15c-14 0 -22 -5 -30 -15l-60 -81c-10 -15 -24 -15 -34 0l-59 81c-8 10 -17 15 -30 15h-14c-20 0 -27 -13 -17 -29l91 -139c7 -11 16 -16 29 -16zM131 705v-681c0 -15 9 -24 25 -24h421c16 0 24 9 24 24v103
c0 16 -8 24 -24 24h-323c-15 0 -24 9 -24 25v147c0 16 9 24 24 24h299c15 0 24 9 24 25v34c0 16 -8 24 -24 24h-299c-15 0 -24 9 -24 25v167c0 16 9 24 24 24h314c15 0 24 9 24 24v35c0 16 -8 24 -24 24h-412c-16 0 -25 -8 -25 -24z" />
    <glyph glyph-name="uni0228" unicode="&#x228;" 
d="M131 705v-681c0 -15 9 -24 25 -24h421c16 0 24 9 24 24v103c0 16 -8 24 -24 24h-323c-15 0 -24 9 -24 25v147c0 16 9 24 24 24h299c15 0 24 9 24 25v34c0 16 -8 24 -24 24h-299c-15 0 -24 9 -24 25v167c0 16 9 24 24 24h314c15 0 24 9 24 24v35c0 16 -8 24 -24 24h-412
c-16 0 -25 -8 -25 -24zM420 -17h-11c-16 0 -19 -13 -9 -30c16 -24 23 -43 23 -57c0 -30 -20 -46 -58 -46c-19 0 -34 2 -49 6c-17 4 -27 -1 -27 -19v-13c0 -15 7 -24 21 -28c21 -4 43 -6 65 -6c77 0 116 30 116 88c0 27 -13 57 -41 91c-8 10 -17 14 -30 14z" />
    <glyph glyph-name="Ecircumflexacute" unicode="&#x1ebe;" 
d="M452 1143l-118 -160c-13 -16 -6 -29 14 -29h28c13 0 22 3 30 13l140 161c13 15 7 30 -14 30h-50c-13 0 -22 -5 -30 -15zM263 757l71 96c10 15 24 15 34 0l71 -96h68l-120 184h-72l-120 -184h68zM131 705v-681c0 -15 9 -24 25 -24h421c16 0 24 9 24 24v103
c0 16 -8 24 -24 24h-323c-15 0 -24 9 -24 25v147c0 16 9 24 24 24h299c15 0 24 9 24 25v34c0 16 -8 24 -24 24h-299c-15 0 -24 9 -24 25v167c0 16 9 24 24 24h314c15 0 24 9 24 24v35c0 16 -8 24 -24 24h-412c-16 0 -25 -8 -25 -24z" />
    <glyph glyph-name="Ecircumflexdotbelow" unicode="&#x1ec6;" 
d="M263 757l71 96c10 15 24 15 34 0l71 -96h68l-120 184h-72l-120 -184h68zM131 705v-681c0 -15 9 -24 25 -24h421c16 0 24 9 24 24v103c0 16 -8 24 -24 24h-323c-15 0 -24 9 -24 25v147c0 16 9 24 24 24h299c15 0 24 9 24 25v34c0 16 -8 24 -24 24h-299c-15 0 -24 9 -24 25
v167c0 16 9 24 24 24h314c15 0 24 9 24 24v35c0 16 -8 24 -24 24h-412c-16 0 -25 -8 -25 -24zM328 -42v-59c0 -16 9 -25 25 -25h51c16 0 25 9 25 25v59c0 16 -9 24 -25 24h-51c-16 0 -25 -8 -25 -24z" />
    <glyph glyph-name="Ecircumflexgrave" unicode="&#x1ec0;" 
d="M267 1146h-44c-19 0 -27 -12 -17 -29l75 -137c6 -11 15 -17 29 -17h76c21 0 27 13 15 30l-104 138c-8 10 -17 15 -30 15zM263 757l71 96c10 15 24 15 34 0l71 -96h68l-120 184h-72l-120 -184h68zM131 705v-681c0 -15 9 -24 25 -24h421c16 0 24 9 24 24v103
c0 16 -8 24 -24 24h-323c-15 0 -24 9 -24 25v147c0 16 9 24 24 24h299c15 0 24 9 24 25v34c0 16 -8 24 -24 24h-299c-15 0 -24 9 -24 25v167c0 16 9 24 24 24h314c15 0 24 9 24 24v35c0 16 -8 24 -24 24h-412c-16 0 -25 -8 -25 -24z" />
    <glyph glyph-name="Ecircumflexhookabove" unicode="&#x1ec2;" 
d="M262 875l71 96c10 15 24 15 34 0l71 -96h68l-120 184h-72l-120 -184h68zM298 853v-21c16 8 31 13 45 13c23 0 32 -8 32 -14s-4 -12 -11 -17l-11 -9c-8 -6 -13 -10 -15 -15c-3 -4 -4 -10 -4 -16v-3h28s3 13 6 16c2 1 3 3 5 4l11 7c14 11 21 21 21 31s-5 19 -15 26
c-10 6 -24 10 -40 10c-17 0 -34 -4 -52 -12zM131 705v-681c0 -15 9 -24 25 -24h421c16 0 24 9 24 24v103c0 16 -8 24 -24 24h-323c-15 0 -24 9 -24 25v147c0 16 9 24 24 24h299c15 0 24 9 24 25v34c0 16 -8 24 -24 24h-299c-15 0 -24 9 -24 25v167c0 16 9 24 24 24h314
c15 0 24 9 24 24v35c0 16 -8 24 -24 24h-412c-16 0 -25 -8 -25 -24z" />
    <glyph glyph-name="Ecircumflextilde" unicode="&#x1ec4;" 
d="M321 1001l28 -27c24 -22 43 -30 68 -30c53 0 87 40 94 112c1 17 -7 26 -24 26h-12c-15 0 -23 -8 -25 -24c-2 -15 -5 -26 -8 -34c-6 -12 -16 -18 -28 -18c-8 0 -19 6 -33 19l-28 27c-24 22 -43 30 -68 30c-53 0 -86 -40 -93 -112c-2 -17 7 -26 23 -26h12c16 0 24 8 26 24
c1 15 4 26 8 34c6 12 15 18 27 18c9 0 19 -6 33 -19zM263 757l71 96c10 15 24 15 34 0l71 -96h68l-120 184h-72l-120 -184h68zM131 705v-681c0 -15 9 -24 25 -24h421c16 0 24 9 24 24v103c0 16 -8 24 -24 24h-323c-15 0 -24 9 -24 25v147c0 16 9 24 24 24h299
c15 0 24 9 24 25v34c0 16 -8 24 -24 24h-299c-15 0 -24 9 -24 25v167c0 16 9 24 24 24h314c15 0 24 9 24 24v35c0 16 -8 24 -24 24h-412c-16 0 -25 -8 -25 -24z" />
    <glyph glyph-name="Edotaccent" unicode="&#x116;" 
d="M301 891v-50c0 -16 9 -25 25 -25h51c16 0 24 9 24 25v50c0 17 -8 25 -24 25h-51c-16 0 -25 -8 -25 -25zM131 705v-681c0 -15 9 -24 25 -24h421c16 0 24 9 24 24v103c0 16 -8 24 -24 24h-323c-15 0 -24 9 -24 25v147c0 16 9 24 24 24h299c15 0 24 9 24 25v34
c0 16 -8 24 -24 24h-299c-15 0 -24 9 -24 25v167c0 16 9 24 24 24h314c15 0 24 9 24 24v35c0 16 -8 24 -24 24h-412c-16 0 -25 -8 -25 -24z" />
    <glyph glyph-name="Edotbelow" unicode="&#x1eb8;" 
d="M131 705v-681c0 -15 9 -24 25 -24h421c16 0 24 9 24 24v103c0 16 -8 24 -24 24h-323c-15 0 -24 9 -24 25v147c0 16 9 24 24 24h299c15 0 24 9 24 25v34c0 16 -8 24 -24 24h-299c-15 0 -24 9 -24 25v167c0 16 9 24 24 24h314c15 0 24 9 24 24v35c0 16 -8 24 -24 24h-412
c-16 0 -25 -8 -25 -24zM328 -42v-59c0 -16 9 -25 25 -25h51c16 0 25 9 25 25v59c0 16 -9 24 -25 24h-51c-16 0 -25 -8 -25 -24z" />
    <glyph glyph-name="Ehookabove" unicode="&#x1eba;" 
d="M322 850v-21c16 8 31 13 45 13c23 0 32 -8 32 -14s-4 -12 -11 -17l-11 -9c-8 -6 -13 -10 -15 -15c-3 -4 -4 -10 -4 -16v-3h28s3 13 6 16c2 1 3 3 5 4l11 7c14 11 21 21 21 31s-5 19 -15 26c-10 6 -24 10 -40 10c-17 0 -34 -4 -52 -12zM131 705v-681c0 -15 9 -24 25 -24
h421c16 0 24 9 24 24v103c0 16 -8 24 -24 24h-323c-15 0 -24 9 -24 25v147c0 16 9 24 24 24h299c15 0 24 9 24 25v34c0 16 -8 24 -24 24h-299c-15 0 -24 9 -24 25v167c0 16 9 24 24 24h314c15 0 24 9 24 24v35c0 16 -8 24 -24 24h-412c-16 0 -25 -8 -25 -24z" />
    <glyph glyph-name="Emacron" unicode="&#x112;" 
d="M205 1020v-24c0 -15 9 -24 25 -24h243c16 0 24 9 24 24v24c0 16 -8 24 -24 24h-243c-16 0 -25 -8 -25 -24zM131 705v-681c0 -15 9 -24 25 -24h421c16 0 24 9 24 24v103c0 16 -8 24 -24 24h-323c-15 0 -24 9 -24 25v147c0 16 9 24 24 24h299c15 0 24 9 24 25v34
c0 16 -8 24 -24 24h-299c-15 0 -24 9 -24 25v167c0 16 9 24 24 24h314c15 0 24 9 24 24v35c0 16 -8 24 -24 24h-412c-16 0 -25 -8 -25 -24z" />
    <glyph glyph-name="Eogonek" unicode="&#x118;" 
d="M254 151h323c16 0 24 -8 24 -24v-103c0 -15 -8 -24 -24 -24h-191c20 0 25 -13 15 -30c-15 -24 -23 -43 -23 -58c0 -30 18 -45 53 -45c12 0 23 2 34 5c17 4 28 -1 28 -19v-14c0 -15 -7 -24 -22 -27c-16 -3 -31 -5 -45 -5c-79 0 -116 27 -116 88c0 27 14 57 41 91
c8 10 17 14 30 14h-225c-16 0 -25 9 -25 24v681c0 16 9 24 25 24h412c16 0 24 -8 24 -24v-35c0 -15 -9 -24 -24 -24h-314c-15 0 -24 -8 -24 -24v-167c0 -16 9 -25 24 -25h299c16 0 24 -8 24 -24v-34c0 -16 -9 -25 -24 -25h-299c-15 0 -24 -8 -24 -24v-147
c0 -16 9 -25 24 -25z" />
    <glyph glyph-name="Etilde" unicode="&#x1ebc;" 
d="M321 1001l28 -27c24 -22 43 -30 68 -30c53 0 87 40 94 112c1 17 -7 26 -24 26h-12c-15 0 -23 -8 -25 -24c-2 -15 -5 -26 -8 -34c-6 -12 -16 -18 -28 -18c-8 0 -19 6 -33 19l-28 27c-24 22 -43 30 -68 30c-53 0 -86 -40 -93 -112c-2 -17 7 -26 23 -26h12c16 0 24 8 26 24
c1 15 4 26 8 34c6 12 15 18 27 18c9 0 19 -6 33 -19zM131 705v-681c0 -15 9 -24 25 -24h421c16 0 24 9 24 24v103c0 16 -8 24 -24 24h-323c-15 0 -24 9 -24 25v147c0 16 9 24 24 24h299c15 0 24 9 24 25v34c0 16 -8 24 -24 24h-299c-15 0 -24 9 -24 25v167c0 16 9 24 24 24
h314c15 0 24 9 24 24v35c0 16 -8 24 -24 24h-412c-16 0 -25 -8 -25 -24z" />
    <glyph glyph-name="Gcaron" unicode="&#x1e6;" 
d="M337 798h34c13 0 22 5 30 16l90 139c11 16 4 29 -15 29h-15c-14 0 -22 -5 -30 -15l-60 -81c-10 -15 -24 -15 -34 0l-59 81c-8 10 -17 15 -30 15h-14c-20 0 -27 -13 -17 -29l91 -139c7 -11 16 -16 29 -16zM548 236v-36c0 -12 -3 -22 -14 -29c-29 -18 -80 -26 -138 -26
c-149 0 -213 49 -220 229c0 197 95 297 220 297c78 0 150 -24 216 -70c16 -13 29 -7 29 14v39c0 13 -5 22 -16 29c-69 39 -150 59 -238 59c-174 0 -315 -140 -315 -378s66 -364 315 -378c97 -6 184 24 258 71c11 7 15 17 15 30v255c0 15 -8 24 -24 24h-235
c-15 0 -24 -8 -24 -24v-57c0 -15 9 -24 24 -24h122c17 0 25 -9 25 -25z" />
    <glyph glyph-name="Gcommaaccent" unicode="&#x122;" 
d="M548 236v-36c0 -12 -3 -22 -14 -29c-29 -18 -80 -26 -138 -26c-149 0 -213 49 -220 229c0 197 95 297 220 297c78 0 150 -24 216 -70c16 -13 29 -7 29 14v39c0 13 -5 22 -16 29c-69 39 -150 59 -238 59c-174 0 -315 -140 -315 -378s66 -364 315 -378c97 -6 184 24 258 71
c11 7 15 17 15 30v255c0 15 -8 24 -24 24h-235c-15 0 -24 -8 -24 -24v-57c0 -15 9 -24 24 -24h122c17 0 25 -9 25 -25zM321 -78v-64c0 -11 -1 -19 -4 -30l-37 -114c-5 -17 3 -28 21 -28h15c12 0 22 5 29 16l89 127c7 10 10 19 10 30v63c0 16 -9 24 -25 24h-73
c-17 0 -25 -8 -25 -24z" />
    <glyph glyph-name="Gdotaccent" unicode="&#x120;" 
d="M304 915v-50c0 -16 9 -25 25 -25h51c16 0 24 9 24 25v50c0 17 -8 25 -24 25h-51c-16 0 -25 -8 -25 -25zM548 236v-36c0 -12 -3 -22 -14 -29c-29 -18 -80 -26 -138 -26c-149 0 -213 49 -220 229c0 197 95 297 220 297c78 0 150 -24 216 -70c16 -13 29 -7 29 14v39
c0 13 -5 22 -16 29c-69 39 -150 59 -238 59c-174 0 -315 -140 -315 -378s66 -364 315 -378c97 -6 184 24 258 71c11 7 15 17 15 30v255c0 15 -8 24 -24 24h-235c-15 0 -24 -8 -24 -24v-57c0 -15 9 -24 24 -24h122c17 0 25 -9 25 -25z" />
    <glyph glyph-name="Hbar" unicode="&#x126;" 
d="M636 543l6 -519c1 -15 -8 -24 -23 -24h-65c-16 0 -24 8 -24 24v196c0 16 -9 25 -25 25h-290c-15 0 -24 -9 -24 -25v-196c0 -16 -9 -24 -25 -24h-64c-16 0 -25 9 -24 24l7 519h-60l5 71h56l1 91c0 16 9 24 25 24h54c16 0 25 -9 25 -24v-91h339v91c0 15 8 24 24 24h55
c16 0 24 -8 25 -24l1 -91h61l5 -71h-65zM215 381h290c16 0 25 9 25 25v137h-339v-137c0 -16 8 -25 24 -25z" />
    <glyph glyph-name="Hdotbelow" unicode="&#x1e24;" 
d="M93 705l-9 -681c-1 -15 8 -24 24 -24h64c16 0 25 8 25 24v196c0 16 9 25 24 25h290c16 0 25 -9 25 -25v-196c0 -16 8 -24 24 -24h65c15 0 24 9 23 24l-8 681c-1 16 -9 24 -25 24h-55c-16 0 -24 -9 -24 -24v-299c0 -16 -9 -25 -25 -25h-290c-16 0 -24 9 -24 25v299
c0 15 -9 24 -25 24h-54c-16 0 -25 -8 -25 -24zM310 -62v-59c0 -16 9 -25 25 -25h51c16 0 25 9 25 25v59c0 16 -9 24 -25 24h-51c-16 0 -25 -8 -25 -24z" />
    <glyph glyph-name="IJ" unicode="&#x132;" horiz-adv-x="1464" 
d="M309 25c-1 -16 7 -25 24 -25h67c17 0 25 9 24 25c-11 226 -10 453 -13 680c0 16 -9 24 -25 24h-35c-16 0 -24 -8 -25 -24c-4 -227 -5 -453 -17 -680zM1064 705l-40 -668c-3 -39 -35 -82 -111 -91c-12 -1 -19 0 -30 2l-8 2c-17 4 -27 -4 -27 -22l1 -110
c1 -15 8 -24 24 -26l34 -3c154 3 222 66 230 242l30 668c1 16 -7 25 -23 26l-55 4c-16 0 -24 -8 -25 -24z" />
    <glyph glyph-name="Icaron" unicode="&#x1cf;" 
d="M354 798h34c13 0 22 5 30 16l90 139c11 16 4 29 -15 29h-15c-14 0 -22 -5 -30 -15l-60 -81c-10 -15 -24 -15 -34 0l-59 81c-8 10 -17 15 -30 15h-14c-20 0 -27 -13 -17 -29l91 -139c7 -11 16 -16 29 -16zM309 25c-1 -16 7 -25 24 -25h67c17 0 25 9 24 25
c-11 226 -10 453 -13 680c0 16 -9 24 -25 24h-35c-16 0 -24 -8 -25 -24c-4 -227 -5 -453 -17 -680z" />
    <glyph glyph-name="Idieresisacute" unicode="&#x1e2e;" 
d="M472 1167l-118 -160c-13 -16 -6 -29 14 -29h28c13 0 22 3 30 13l140 161c13 15 7 30 -14 30h-50c-13 0 -22 -5 -30 -15zM215 923v-57c0 -16 9 -25 24 -25h58c16 0 24 9 24 25v57c0 16 -8 24 -24 24h-58c-16 0 -24 -8 -24 -24zM420 923v-57c0 -16 8 -25 24 -25h58
c16 0 24 9 24 25v57c0 16 -8 24 -24 24h-58c-16 0 -24 -8 -24 -24zM309 25c-1 -16 7 -25 24 -25h67c17 0 25 9 24 25c-11 226 -10 453 -13 680c0 16 -9 24 -25 24h-35c-16 0 -24 -8 -25 -24c-4 -227 -5 -453 -17 -680z" />
    <glyph glyph-name="Idotbelow" unicode="&#x1eca;" 
d="M309 25c-1 -16 7 -25 24 -25h67c17 0 25 9 24 25c-11 226 -10 453 -13 680c0 16 -9 24 -25 24h-35c-16 0 -24 -8 -25 -24c-4 -227 -5 -453 -17 -680zM306 -62v-59c0 -16 9 -25 25 -25h51c16 0 25 9 25 25v59c0 16 -9 24 -25 24h-51c-16 0 -25 -8 -25 -24z" />
    <glyph glyph-name="Ihookabove" unicode="&#x1ec8;" 
d="M297 850v-21c16 8 31 13 45 13c23 0 32 -8 32 -14s-4 -12 -11 -17l-11 -9c-8 -6 -13 -10 -15 -15c-3 -4 -4 -10 -4 -16v-3h28s3 13 6 16c2 1 3 3 5 4l11 7c14 11 21 21 21 31s-5 19 -15 26c-10 6 -24 10 -40 10c-17 0 -34 -4 -52 -12zM309 25c-1 -16 7 -25 24 -25h67
c17 0 25 9 24 25c-11 226 -10 453 -13 680c0 16 -9 24 -25 24h-35c-16 0 -24 -8 -25 -24c-4 -227 -5 -453 -17 -680z" />
    <glyph glyph-name="Imacron" unicode="&#x12a;" 
d="M225 1044v-24c0 -15 9 -24 25 -24h243c16 0 24 9 24 24v24c0 16 -8 24 -24 24h-243c-16 0 -25 -8 -25 -24zM309 25c-1 -16 7 -25 24 -25h67c17 0 25 9 24 25c-11 226 -10 453 -13 680c0 16 -9 24 -25 24h-35c-16 0 -24 -8 -25 -24c-4 -227 -5 -453 -17 -680z" />
    <glyph glyph-name="Iogonek" unicode="&#x12e;" 
d="M443 -128c17 4 28 -1 28 -19v-14c0 -15 -7 -24 -22 -27c-16 -3 -31 -5 -45 -5c-79 0 -116 27 -116 88c0 27 14 57 41 91c8 10 17 14 30 14h-26c-17 0 -25 9 -24 25c12 227 13 453 17 680c1 16 9 24 25 24h35c16 0 25 -8 25 -24c3 -227 2 -454 13 -680
c1 -16 -7 -25 -24 -25h-36c20 0 25 -13 15 -30c-15 -24 -23 -43 -23 -58c0 -30 18 -45 53 -45c12 0 23 2 34 5z" />
    <glyph glyph-name="Itilde" unicode="&#x128;" 
d="M341 1025l28 -27c24 -22 43 -30 68 -30c53 0 87 40 94 112c1 17 -7 26 -24 26h-12c-15 0 -23 -8 -25 -24c-2 -15 -5 -26 -8 -34c-6 -12 -16 -18 -28 -18c-8 0 -19 6 -33 19l-28 27c-24 22 -43 30 -68 30c-53 0 -86 -40 -93 -112c-2 -17 7 -26 23 -26h12c16 0 24 8 26 24
c1 15 4 26 8 34c6 12 15 18 27 18c9 0 19 -6 33 -19zM309 25c-1 -16 7 -25 24 -25h67c17 0 25 9 24 25c-11 226 -10 453 -13 680c0 16 -9 24 -25 24h-35c-16 0 -24 -8 -25 -24c-4 -227 -5 -453 -17 -680z" />
    <glyph glyph-name="Kcommaaccent" unicode="&#x136;" 
d="M102 705l-19 -680c0 -16 8 -25 24 -25h79c16 0 24 9 23 25l-15 270c-1 24 15 30 29 11l205 -291c7 -11 16 -15 29 -15h171c22 0 28 15 13 30l-340 342c-11 11 -11 23 0 34l312 293c16 15 11 30 -12 30h-65c-13 0 -21 -3 -31 -12l-283 -267c-16 -15 -31 -9 -30 13l8 241
c0 16 -8 25 -24 25h-50c-16 0 -24 -8 -24 -24zM269 -84v-64c0 -11 -1 -19 -4 -30l-37 -114c-5 -17 3 -28 21 -28h15c12 0 22 5 29 16l89 127c7 10 10 19 10 30v63c0 16 -9 24 -25 24h-73c-17 0 -25 -8 -25 -24z" />
    <glyph glyph-name="Lacute" unicode="&#x139;" 
d="M315 1167l-118 -160c-13 -16 -6 -29 14 -29h28c13 0 22 3 30 13l140 161c13 15 7 30 -14 30h-50c-13 0 -22 -5 -30 -15zM146 705l-8 -681c-1 -15 8 -24 24 -24h401c15 0 23 8 24 23l7 103c1 17 -7 25 -24 25h-305c-15 0 -24 9 -24 25l5 529c0 15 -9 24 -25 24h-50
c-16 0 -24 -8 -25 -24z" />
    <glyph glyph-name="Lcaron" unicode="&#x13d;" 
d="M475 848v-51c0 -11 -1 -19 -4 -30l-37 -146c-5 -17 4 -28 21 -28h28c14 0 23 6 29 18l81 157c5 10 7 18 7 30v50c0 16 -8 24 -24 24h-76c-17 0 -25 -8 -25 -24zM146 705l-8 -681c-1 -15 8 -24 24 -24h401c15 0 23 8 24 23l7 103c1 17 -7 25 -24 25h-305
c-15 0 -24 9 -24 25l5 529c0 15 -9 24 -25 24h-50c-16 0 -24 -8 -25 -24z" />
    <glyph glyph-name="Lcircumflexbelow" unicode="&#x1e3c;" 
d="M146 705l-8 -681c-1 -15 8 -24 24 -24h401c15 0 23 8 24 23l7 103c1 17 -7 25 -24 25h-305c-15 0 -24 9 -24 25l5 529c0 15 -9 24 -25 24h-50c-16 0 -24 -8 -25 -24zM300 -220l71 96c10 15 24 15 34 0l71 -96h68l-120 184h-72l-120 -184h68z" />
    <glyph glyph-name="Lcommaaccent" unicode="&#x13b;" 
d="M146 705l-8 -681c-1 -15 8 -24 24 -24h401c15 0 23 8 24 23l7 103c1 17 -7 25 -24 25h-305c-15 0 -24 9 -24 25l5 529c0 15 -9 24 -25 24h-50c-16 0 -24 -8 -25 -24zM404 -81v-64c0 -11 -1 -19 -4 -30l-37 -114c-5 -17 3 -28 21 -28h15c12 0 22 5 29 16l89 127
c7 10 10 19 10 30v63c0 16 -9 24 -25 24h-73c-17 0 -25 -8 -25 -24z" />
    <glyph glyph-name="Ldot" unicode="&#x13f;" 
d="M146 705l-8 -681c-1 -15 8 -24 24 -24h401c15 0 23 8 24 23l7 103c1 17 -7 25 -24 25h-305c-15 0 -24 9 -24 25l5 529c0 15 -9 24 -25 24h-50c-16 0 -24 -8 -25 -24zM398 462v-75c0 -17 9 -25 24 -25h55c16 0 24 9 24 25v75c0 15 -8 24 -24 24h-55c-16 0 -24 -9 -24 -24z
" />
    <glyph glyph-name="Ldotbelow" unicode="&#x1e36;" 
d="M146 705l-8 -681c-1 -15 8 -24 24 -24h401c15 0 23 8 24 23l7 103c1 17 -7 25 -24 25h-305c-15 0 -24 9 -24 25l5 529c0 15 -9 24 -25 24h-50c-16 0 -24 -8 -25 -24zM314 -62v-59c0 -16 9 -25 25 -25h51c16 0 25 9 25 25v59c0 16 -9 24 -25 24h-51c-16 0 -25 -8 -25 -24z
" />
    <glyph glyph-name="Macute" unicode="&#x1e3e;" 
d="M437 925l-118 -160c-13 -16 -6 -29 14 -29h28c13 0 22 3 30 13l140 161c13 15 7 30 -14 30h-50c-13 0 -22 -5 -30 -15zM62 705l-14 -680c-1 -16 8 -25 24 -25h85c16 0 25 9 24 25l-15 523c-1 21 21 25 26 5l108 -427c3 -14 13 -20 28 -20h76c14 0 25 6 28 20l108 427
c5 20 27 16 26 -5l-15 -523c-1 -16 8 -25 24 -25h85c16 0 25 9 25 25l-14 680c-1 16 -9 24 -25 24h-93c-13 0 -23 -6 -28 -19l-143 -376c-7 -20 -25 -20 -32 0l-133 376c-5 13 -14 19 -29 19h-102c-16 0 -24 -8 -24 -24z" />
    <glyph glyph-name="Nacute" unicode="&#x143;" 
d="M473 1167l-118 -160c-13 -16 -6 -29 14 -29h28c13 0 22 3 30 13l140 161c13 15 7 30 -14 30h-50c-13 0 -22 -5 -30 -15zM104 690l-18 -665c-1 -16 8 -25 24 -25h76c16 0 24 9 23 25l-24 517c-2 25 16 30 28 8l282 -532c6 -13 15 -18 29 -18h99c15 0 24 9 24 24v681
c0 15 -8 24 -24 24h-43c-16 0 -24 -8 -24 -24l-13 -508c-1 -24 -18 -28 -30 -7l-276 507c-6 12 -15 17 -29 17h-79c-16 0 -24 -8 -25 -24z" />
    <glyph glyph-name="Ncaron" unicode="&#x147;" 
d="M355 798h34c13 0 22 5 30 16l90 139c11 16 4 29 -15 29h-15c-14 0 -22 -5 -30 -15l-60 -81c-10 -15 -24 -15 -34 0l-59 81c-8 10 -17 15 -30 15h-14c-20 0 -27 -13 -17 -29l91 -139c7 -11 16 -16 29 -16zM104 690l-18 -665c-1 -16 8 -25 24 -25h76c16 0 24 9 23 25
l-24 517c-2 25 16 30 28 8l282 -532c6 -13 15 -18 29 -18h99c15 0 24 9 24 24v681c0 15 -8 24 -24 24h-43c-16 0 -24 -8 -24 -24l-13 -508c-1 -24 -18 -28 -30 -7l-276 507c-6 12 -15 17 -29 17h-79c-16 0 -24 -8 -25 -24z" />
    <glyph glyph-name="Ncircumflexbelow" unicode="&#x1e4a;" 
d="M104 690l-18 -665c-1 -16 8 -25 24 -25h76c16 0 24 9 23 25l-24 517c-2 25 16 30 28 8l282 -532c6 -13 15 -18 29 -18h99c15 0 24 9 24 24v681c0 15 -8 24 -24 24h-43c-16 0 -24 -8 -24 -24l-13 -508c-1 -24 -18 -28 -30 -7l-276 507c-6 12 -15 17 -29 17h-79
c-16 0 -24 -8 -25 -24zM501 -220l71 96c10 15 24 15 34 0l71 -96h68l-120 184h-72l-120 -184h68z" />
    <glyph glyph-name="Ncommaaccent" unicode="&#x145;" 
d="M104 690l-18 -665c-1 -16 8 -25 24 -25h76c16 0 24 9 23 25l-24 517c-2 25 16 30 28 8l282 -532c6 -13 15 -18 29 -18h99c15 0 24 9 24 24v681c0 15 -8 24 -24 24h-43c-16 0 -24 -8 -24 -24l-13 -508c-1 -24 -18 -28 -30 -7l-276 507c-6 12 -15 17 -29 17h-79
c-16 0 -24 -8 -25 -24zM317 -59v-64c0 -11 -1 -19 -4 -30l-37 -114c-5 -17 3 -28 21 -28h15c12 0 22 5 29 16l89 127c7 10 10 19 10 30v63c0 16 -9 24 -25 24h-73c-17 0 -25 -8 -25 -24z" />
    <glyph glyph-name="Ndotaccent" unicode="&#x1e44;" 
d="M322 915v-50c0 -16 9 -25 25 -25h51c16 0 24 9 24 25v50c0 17 -8 25 -24 25h-51c-16 0 -25 -8 -25 -25zM104 690l-18 -665c-1 -16 8 -25 24 -25h76c16 0 24 9 23 25l-24 517c-2 25 16 30 28 8l282 -532c6 -13 15 -18 29 -18h99c15 0 24 9 24 24v681c0 15 -8 24 -24 24
h-43c-16 0 -24 -8 -24 -24l-13 -508c-1 -24 -18 -28 -30 -7l-276 507c-6 12 -15 17 -29 17h-79c-16 0 -24 -8 -25 -24z" />
    <glyph glyph-name="Ndotbelow" unicode="&#x1e46;" 
d="M104 690l-18 -665c-1 -16 8 -25 24 -25h76c16 0 24 9 23 25l-24 517c-2 25 16 30 28 8l282 -532c6 -13 15 -18 29 -18h99c15 0 24 9 24 24v681c0 15 -8 24 -24 24h-43c-16 0 -24 -8 -24 -24l-13 -508c-1 -24 -18 -28 -30 -7l-276 507c-6 12 -15 17 -29 17h-79
c-16 0 -24 -8 -25 -24zM511 -62v-59c0 -16 9 -25 25 -25h51c16 0 25 9 25 25v59c0 16 -9 24 -25 24h-51c-16 0 -25 -8 -25 -24z" />
    <glyph glyph-name="Eng" unicode="&#x14a;" 
d="M518 729h43c16 0 24 -9 24 -24v-681c0 -13 -7 -21 -18 -24c0 -1 -55 -117 -56 -118l-40 -70c-6 -10 -18 -14 -30 -9c-40 15 -113 35 -150 59c-14 9 -12 26 0 36c29 24 70 51 98 75c8 6 14 12 20 21c8 14 13 27 15 40l-273 516c-12 22 -30 17 -28 -8l24 -517
c1 -16 -7 -25 -23 -25h-76c-16 0 -25 9 -24 25l18 665c1 16 9 24 25 24h79c14 0 23 -5 29 -17l276 -507c12 -21 29 -17 30 7l13 508c0 16 8 24 24 24z" />
    <glyph glyph-name="Ocaron" unicode="&#x1d1;" 
d="M349 798h34c13 0 22 5 30 16l90 139c11 16 4 29 -15 29h-15c-14 0 -22 -5 -30 -15l-60 -81c-10 -15 -24 -15 -34 0l-59 81c-8 10 -17 15 -30 15h-14c-20 0 -27 -13 -17 -29l91 -139c7 -11 16 -16 29 -16zM367 742c-186 0 -314 -148 -314 -378c0 -231 128 -378 314 -378
c185 0 312 148 312 378s-127 378 -312 378zM367 662c123 0 208 -114 208 -298c0 -151 -85 -191 -208 -191c-124 0 -210 40 -210 191c0 184 86 298 210 298z" />
    <glyph glyph-name="Ocircumflexacute" unicode="&#x1ed0;" 
d="M467 1167l-118 -160c-13 -16 -6 -29 14 -29h28c13 0 22 3 30 13l140 161c13 15 7 30 -14 30h-50c-13 0 -22 -5 -30 -15zM278 781l71 96c10 15 24 15 34 0l71 -96h68l-120 184h-72l-120 -184h68zM367 742c-186 0 -314 -148 -314 -378c0 -231 128 -378 314 -378
c185 0 312 148 312 378s-127 378 -312 378zM367 662c123 0 208 -114 208 -298c0 -151 -85 -191 -208 -191c-124 0 -210 40 -210 191c0 184 86 298 210 298z" />
    <glyph glyph-name="Ocircumflexdotbelow" unicode="&#x1ed8;" 
d="M278 781l71 96c10 15 24 15 34 0l71 -96h68l-120 184h-72l-120 -184h68zM367 742c-186 0 -314 -148 -314 -378c0 -231 128 -378 314 -378c185 0 312 148 312 378s-127 378 -312 378zM367 662c123 0 208 -114 208 -298c0 -151 -85 -191 -208 -191c-124 0 -210 40 -210 191
c0 184 86 298 210 298zM308 -62v-59c0 -16 9 -25 25 -25h51c16 0 25 9 25 25v59c0 16 -9 24 -25 24h-51c-16 0 -25 -8 -25 -24z" />
    <glyph glyph-name="Ocircumflexgrave" unicode="&#x1ed2;" 
d="M282 1170h-44c-19 0 -27 -12 -17 -29l75 -137c6 -11 15 -17 29 -17h76c21 0 27 13 15 30l-104 138c-8 10 -17 15 -30 15zM278 781l71 96c10 15 24 15 34 0l71 -96h68l-120 184h-72l-120 -184h68zM367 742c-186 0 -314 -148 -314 -378c0 -231 128 -378 314 -378
c185 0 312 148 312 378s-127 378 -312 378zM367 662c123 0 208 -114 208 -298c0 -151 -85 -191 -208 -191c-124 0 -210 40 -210 191c0 184 86 298 210 298z" />
    <glyph glyph-name="Ocircumflexhookabove" unicode="&#x1ed4;" 
d="M278 860l71 96c10 15 24 15 34 0l71 -96h68l-120 184h-72l-120 -184h68zM316 888v-21c16 8 31 13 45 13c23 0 32 -8 32 -14s-4 -12 -11 -17l-11 -9c-8 -6 -13 -10 -15 -15c-3 -4 -4 -10 -4 -16v-3h28s3 13 6 16c2 1 3 3 5 4l11 7c14 11 21 21 21 31s-5 19 -15 26
c-10 6 -24 10 -40 10c-17 0 -34 -4 -52 -12zM367 742c-186 0 -314 -148 -314 -378c0 -231 128 -378 314 -378c185 0 312 148 312 378s-127 378 -312 378zM367 662c123 0 208 -114 208 -298c0 -151 -85 -191 -208 -191c-124 0 -210 40 -210 191c0 184 86 298 210 298z" />
    <glyph glyph-name="Ocircumflextilde" unicode="&#x1ed6;" 
d="M336 1025l28 -27c24 -22 43 -30 68 -30c53 0 87 40 94 112c1 17 -7 26 -24 26h-12c-15 0 -23 -8 -25 -24c-2 -15 -5 -26 -8 -34c-6 -12 -16 -18 -28 -18c-8 0 -19 6 -33 19l-28 27c-24 22 -43 30 -68 30c-53 0 -86 -40 -93 -112c-2 -17 7 -26 23 -26h12c16 0 24 8 26 24
c1 15 4 26 8 34c6 12 15 18 27 18c9 0 19 -6 33 -19zM278 781l71 96c10 15 24 15 34 0l71 -96h68l-120 184h-72l-120 -184h68zM367 742c-186 0 -314 -148 -314 -378c0 -231 128 -378 314 -378c185 0 312 148 312 378s-127 378 -312 378zM367 662c123 0 208 -114 208 -298
c0 -151 -85 -191 -208 -191c-124 0 -210 40 -210 191c0 184 86 298 210 298z" />
    <glyph glyph-name="uni022A" unicode="&#x22a;" 
d="M220 1044v-24c0 -15 9 -24 25 -24h243c16 0 24 9 24 24v24c0 16 -8 24 -24 24h-243c-16 0 -25 -8 -25 -24zM210 923v-57c0 -16 9 -25 24 -25h58c16 0 24 9 24 25v57c0 16 -8 24 -24 24h-58c-16 0 -24 -8 -24 -24zM415 923v-57c0 -16 8 -25 24 -25h58c16 0 24 9 24 25v57
c0 16 -8 24 -24 24h-58c-16 0 -24 -8 -24 -24zM367 742c-186 0 -314 -148 -314 -378c0 -231 128 -378 314 -378c185 0 312 148 312 378s-127 378 -312 378zM367 662c123 0 208 -114 208 -298c0 -151 -85 -191 -208 -191c-124 0 -210 40 -210 191c0 184 86 298 210 298z" />
    <glyph glyph-name="Odotbelow" unicode="&#x1ecc;" 
d="M367 742c-186 0 -314 -148 -314 -378c0 -231 128 -378 314 -378c185 0 312 148 312 378s-127 378 -312 378zM367 662c123 0 208 -114 208 -298c0 -151 -85 -191 -208 -191c-124 0 -210 40 -210 191c0 184 86 298 210 298zM308 -62v-59c0 -16 9 -25 25 -25h51
c16 0 25 9 25 25v59c0 16 -9 24 -25 24h-51c-16 0 -25 -8 -25 -24z" />
    <glyph glyph-name="Ohookabove" unicode="&#x1ece;" 
d="M323 854v-21c16 8 31 13 45 13c23 0 32 -8 32 -14s-4 -12 -11 -17l-11 -9c-8 -6 -13 -10 -15 -15c-3 -4 -4 -10 -4 -16v-3h28s3 13 6 16c2 1 3 3 5 4l11 7c14 11 21 21 21 31s-5 19 -15 26c-10 6 -24 10 -40 10c-17 0 -34 -4 -52 -12zM367 742
c-186 0 -314 -148 -314 -378c0 -231 128 -378 314 -378c185 0 312 148 312 378s-127 378 -312 378zM367 662c123 0 208 -114 208 -298c0 -151 -85 -191 -208 -191c-124 0 -210 40 -210 191c0 184 86 298 210 298z" />
    <glyph glyph-name="Ohorn" unicode="&#x1a0;" 
d="M722 684c14 -2 23 -9 25 -23v-12c0 -39 -10 -87 -41 -114c-12 -11 -18 -16 -26 -22c-7 -5 -15 -6 -21 -3c13 -43 20 -93 20 -146c0 -230 -127 -378 -312 -378c-186 0 -314 147 -314 378c0 230 128 378 314 378c129 0 229 -71 278 -192c3 3 7 7 12 9c10 6 17 8 25 15
c22 20 20 66 20 83c0 6 -1 11 -2 15c-3 10 5 14 22 12zM367 173c123 0 208 40 208 191c0 184 -85 298 -208 298c-124 0 -210 -114 -210 -298c0 -151 86 -191 210 -191z" />
    <glyph glyph-name="Ohornacute" unicode="&#x1eda;" 
d="M391 978h-28c-20 0 -27 13 -14 29l118 160c8 10 17 15 30 15h50c21 0 27 -15 14 -30l-140 -161c-8 -10 -17 -13 -30 -13zM722 684c14 -2 23 -9 25 -23v-12c0 -39 -10 -87 -41 -114c-12 -11 -18 -16 -26 -22c-7 -5 -15 -6 -21 -3c13 -43 20 -93 20 -146
c0 -230 -127 -378 -312 -378c-186 0 -314 147 -314 378c0 230 128 378 314 378c129 0 229 -71 278 -192c3 3 7 7 12 9c10 6 17 8 25 15c22 20 20 66 20 83c0 6 -1 11 -2 15c-3 10 5 14 22 12zM367 173c123 0 208 40 208 191c0 184 -85 298 -208 298
c-124 0 -210 -114 -210 -298c0 -151 86 -191 210 -191z" />
    <glyph glyph-name="Ohorndotbelow" unicode="&#x1ee2;" 
d="M722 684c14 -2 23 -9 25 -23v-12c0 -39 -10 -87 -41 -114c-12 -11 -18 -16 -26 -22c-7 -5 -15 -6 -21 -3c13 -43 20 -93 20 -146c0 -230 -127 -378 -312 -378c-186 0 -314 147 -314 378c0 230 128 378 314 378c129 0 229 -71 278 -192c3 3 7 7 12 9c10 6 17 8 25 15
c22 20 20 66 20 83c0 6 -1 11 -2 15c-3 10 5 14 22 12zM367 173c123 0 208 40 208 191c0 184 -85 298 -208 298c-124 0 -210 -114 -210 -298c0 -151 86 -191 210 -191zM336 -38h51c16 0 25 -8 25 -24v-59c0 -16 -9 -25 -25 -25h-51c-16 0 -25 9 -25 25v59c0 16 9 24 25 24z
" />
    <glyph glyph-name="Ohorngrave" unicode="&#x1edc;" 
d="M296 1004l-75 137c-10 17 -2 29 17 29h44c13 0 22 -5 30 -15l104 -138c12 -17 6 -30 -15 -30h-76c-14 0 -23 6 -29 17zM722 684c14 -2 23 -9 25 -23v-12c0 -39 -10 -87 -41 -114c-12 -11 -18 -16 -26 -22c-7 -5 -15 -6 -21 -3c13 -43 20 -93 20 -146
c0 -230 -127 -378 -312 -378c-186 0 -314 147 -314 378c0 230 128 378 314 378c129 0 229 -71 278 -192c3 3 7 7 12 9c10 6 17 8 25 15c22 20 20 66 20 83c0 6 -1 11 -2 15c-3 10 5 14 22 12zM367 173c123 0 208 40 208 191c0 184 -85 298 -208 298
c-124 0 -210 -114 -210 -298c0 -151 86 -191 210 -191z" />
    <glyph glyph-name="Ohornhookabove" unicode="&#x1ede;" 
d="M640 842c0 6 -9 14 -32 14c-14 0 -29 -5 -45 -13v21c18 8 35 12 52 12c16 0 30 -4 40 -10c10 -7 15 -16 15 -26s-7 -20 -21 -31l-11 -7c-2 -1 -3 -3 -5 -4c-3 -3 -6 -16 -6 -16h-28v3c0 6 1 12 4 16c2 5 7 9 15 15l11 9c7 5 11 11 11 17zM722 684c14 -2 23 -9 25 -23v-12
c0 -39 -10 -87 -41 -114c-12 -11 -18 -16 -26 -22c-7 -5 -15 -6 -21 -3c13 -43 20 -93 20 -146c0 -230 -127 -378 -312 -378c-186 0 -314 147 -314 378c0 230 128 378 314 378c129 0 229 -71 278 -192c3 3 7 7 12 9c10 6 17 8 25 15c22 20 20 66 20 83c0 6 -1 11 -2 15
c-3 10 5 14 22 12zM367 173c123 0 208 40 208 191c0 184 -85 298 -208 298c-124 0 -210 -114 -210 -298c0 -151 86 -191 210 -191z" />
    <glyph glyph-name="Ohorntilde" unicode="&#x1ee0;" 
d="M242 968h-12c-16 0 -25 9 -23 26c7 72 40 112 93 112c25 0 44 -8 68 -30l28 -27c14 -13 25 -19 33 -19c12 0 22 6 28 18c3 8 6 19 8 34c2 16 10 24 25 24h12c17 0 25 -9 24 -26c-7 -72 -41 -112 -94 -112c-25 0 -44 8 -68 30l-28 27c-14 13 -24 19 -33 19
c-12 0 -21 -6 -27 -18c-4 -8 -7 -19 -8 -34c-2 -16 -10 -24 -26 -24zM722 684c14 -2 23 -9 25 -23v-12c0 -39 -10 -87 -41 -114c-12 -11 -18 -16 -26 -22c-7 -5 -15 -6 -21 -3c13 -43 20 -93 20 -146c0 -230 -127 -378 -312 -378c-186 0 -314 147 -314 378
c0 230 128 378 314 378c129 0 229 -71 278 -192c3 3 7 7 12 9c10 6 17 8 25 15c22 20 20 66 20 83c0 6 -1 11 -2 15c-3 10 5 14 22 12zM367 173c123 0 208 40 208 191c0 184 -85 298 -208 298c-124 0 -210 -114 -210 -298c0 -151 86 -191 210 -191z" />
    <glyph glyph-name="Ohungarumlaut" unicode="&#x150;" 
d="M278 964l-69 -137c-9 -17 -2 -29 18 -29h15c13 0 22 5 29 17l81 138c11 16 3 29 -16 29h-29c-14 0 -23 -6 -29 -18zM441 965l-75 -137c-9 -18 -2 -30 17 -30h14c13 0 22 5 29 16l92 139c11 16 3 29 -16 29h-32c-14 0 -23 -6 -29 -17zM367 742c-186 0 -314 -148 -314 -378
c0 -231 128 -378 314 -378c185 0 312 148 312 378s-127 378 -312 378zM367 662c123 0 208 -114 208 -298c0 -151 -85 -191 -208 -191c-124 0 -210 40 -210 191c0 184 86 298 210 298z" />
    <glyph glyph-name="Omacron" unicode="&#x14c;" 
d="M220 1044v-24c0 -15 9 -24 25 -24h243c16 0 24 9 24 24v24c0 16 -8 24 -24 24h-243c-16 0 -25 -8 -25 -24zM367 742c-186 0 -314 -148 -314 -378c0 -231 128 -378 314 -378c185 0 312 148 312 378s-127 378 -312 378zM367 662c123 0 208 -114 208 -298
c0 -151 -85 -191 -208 -191c-124 0 -210 40 -210 191c0 184 86 298 210 298z" />
    <glyph glyph-name="Omacronacute" unicode="&#x1e52;" 
d="M467 1167l-118 -160c-13 -16 -6 -29 14 -29h28c13 0 22 3 30 13l140 161c13 15 7 30 -14 30h-50c-13 0 -22 -5 -30 -15zM251 893v-24c0 -15 9 -24 25 -24h243c16 0 24 9 24 24v24c0 16 -8 24 -24 24h-243c-16 0 -25 -8 -25 -24zM367 742c-186 0 -314 -148 -314 -378
c0 -231 128 -378 314 -378c185 0 312 148 312 378s-127 378 -312 378zM367 662c123 0 208 -114 208 -298c0 -151 -85 -191 -208 -191c-124 0 -210 40 -210 191c0 184 86 298 210 298z" />
    <glyph glyph-name="Omacrongrave" unicode="&#x1e50;" 
d="M283 1170h-44c-19 0 -27 -12 -17 -29l75 -137c6 -11 15 -17 29 -17h76c21 0 27 13 15 30l-104 138c-8 10 -17 15 -30 15zM233 897v-24c0 -15 9 -24 25 -24h243c16 0 24 9 24 24v24c0 16 -8 24 -24 24h-243c-16 0 -25 -8 -25 -24zM367 742c-186 0 -314 -148 -314 -378
c0 -231 128 -378 314 -378c185 0 312 148 312 378s-127 378 -312 378zM367 662c123 0 208 -114 208 -298c0 -151 -85 -191 -208 -191c-124 0 -210 40 -210 191c0 184 86 298 210 298z" />
    <glyph glyph-name="Oslashacute" unicode="&#x1fe;" 
d="M457 978h-28c-20 0 -27 13 -14 29l118 160c8 10 17 15 30 15h50c21 0 27 -15 14 -30l-140 -161c-8 -10 -17 -13 -30 -13zM512 768l-16 -54c112 -53 183 -179 183 -350c0 -230 -127 -378 -312 -378c-30 0 -59 4 -86 11c-5 -10 -14 -15 -26 -15l-62 2c-18 1 -25 12 -20 29
l11 33c-82 63 -131 174 -131 318c0 230 128 378 314 378c20 0 39 -2 58 -5l14 41c5 13 14 20 28 19l24 -1c18 0 26 -11 21 -28zM157 364c0 -89 30 -140 80 -166l161 462c-10 1 -20 2 -31 2c-124 0 -210 -114 -210 -298zM367 173c123 0 208 40 208 191
c0 126 -40 219 -105 265l-136 -455c11 -1 21 -1 33 -1z" />
    <glyph glyph-name="Otildeacute" unicode="&#x1e4c;" 
d="M467 1167l-118 -160c-13 -16 -6 -29 14 -29h28c13 0 22 3 30 13l140 161c13 15 7 30 -14 30h-50c-13 0 -22 -5 -30 -15zM384 865l28 -27c24 -22 43 -30 68 -30c53 0 87 40 94 112c1 17 -7 26 -24 26h-12c-15 0 -23 -8 -25 -24c-2 -15 -5 -26 -8 -34
c-6 -12 -16 -18 -28 -18c-8 0 -19 6 -33 19l-28 27c-24 22 -43 30 -68 30c-53 0 -86 -40 -93 -112c-2 -17 7 -26 23 -26h12c16 0 24 8 26 24c1 15 4 26 8 34c6 12 15 18 27 18c9 0 19 -6 33 -19zM367 742c-186 0 -314 -148 -314 -378c0 -231 128 -378 314 -378
c185 0 312 148 312 378s-127 378 -312 378zM367 662c123 0 208 -114 208 -298c0 -151 -85 -191 -208 -191c-124 0 -210 40 -210 191c0 184 86 298 210 298z" />
    <glyph glyph-name="Racute" unicode="&#x154;" 
d="M429 1167l-118 -160c-13 -16 -6 -29 14 -29h28c13 0 22 3 30 13l140 161c13 15 7 30 -14 30h-50c-13 0 -22 -5 -30 -15zM457 331c-14 8 -14 13 1 21c54 29 86 86 86 167c0 141 -86 210 -233 210h-199c-16 0 -24 -8 -24 -24v-681c0 -15 9 -24 24 -24h70c16 0 24 9 24 24
v260c0 16 9 24 24 24h49c78 0 115 -23 163 -121l66 -168c5 -13 14 -19 28 -19h88c19 0 26 12 17 29l-85 170c-34 67 -65 110 -99 132zM221 677h99c76 0 154 -33 154 -158c0 -59 -78 -110 -154 -110h-99c-16 0 -25 8 -25 24v220c0 15 9 24 25 24z" />
    <glyph glyph-name="Rcaron" unicode="&#x158;" 
d="M311 798h34c13 0 22 5 30 16l90 139c11 16 4 29 -15 29h-15c-14 0 -22 -5 -30 -15l-60 -81c-10 -15 -24 -15 -34 0l-59 81c-8 10 -17 15 -30 15h-14c-20 0 -27 -13 -17 -29l91 -139c7 -11 16 -16 29 -16zM457 331c-14 8 -14 13 1 21c54 29 86 86 86 167
c0 141 -86 210 -233 210h-199c-16 0 -24 -8 -24 -24v-681c0 -15 9 -24 24 -24h70c16 0 24 9 24 24v260c0 16 9 24 24 24h49c78 0 115 -23 163 -121l66 -168c5 -13 14 -19 28 -19h88c19 0 26 12 17 29l-85 170c-34 67 -65 110 -99 132zM221 677h99c76 0 154 -33 154 -158
c0 -59 -78 -110 -154 -110h-99c-16 0 -25 8 -25 24v220c0 15 9 24 25 24z" />
    <glyph glyph-name="Rcommaaccent" unicode="&#x156;" 
d="M457 331c-14 8 -14 13 1 21c54 29 86 86 86 167c0 141 -86 210 -233 210h-199c-16 0 -24 -8 -24 -24v-681c0 -15 9 -24 24 -24h70c16 0 24 9 24 24v260c0 16 9 24 24 24h49c78 0 115 -23 163 -121l66 -168c5 -13 14 -19 28 -19h88c19 0 26 12 17 29l-85 170
c-34 67 -65 110 -99 132zM221 677h99c76 0 154 -33 154 -158c0 -59 -78 -110 -154 -110h-99c-16 0 -25 8 -25 24v220c0 15 9 24 25 24zM326 -23v-64c0 -11 -1 -19 -4 -30l-37 -114c-5 -17 3 -28 21 -28h15c12 0 22 5 29 16l89 127c7 10 10 19 10 30v63c0 16 -9 24 -25 24
h-73c-17 0 -25 -8 -25 -24z" />
    <glyph glyph-name="Sacute" unicode="&#x15a;" 
d="M458 1167l-118 -160c-13 -16 -6 -29 14 -29h28c13 0 22 3 30 13l140 161c13 15 7 30 -14 30h-50c-13 0 -22 -5 -30 -15zM579 640v44c0 14 -6 24 -20 27c-67 21 -131 31 -193 31c-160 0 -257 -79 -257 -208c0 -111 63 -170 210 -199l60 -12c100 -20 141 -66 141 -105
c0 -43 -63 -98 -176 -98c-65 0 -133 17 -202 52c-17 9 -30 2 -30 -17v-102c0 -14 7 -23 21 -28c75 -26 147 -39 211 -39c183 0 279 74 279 215c0 119 -68 188 -215 216l-60 12c-108 20 -139 49 -139 113c0 77 61 120 168 120c54 0 110 -13 173 -40c17 -8 29 0 29 18z" />
    <glyph glyph-name="Scommaaccent" unicode="&#x218;" 
d="M579 640v44c0 14 -6 24 -20 27c-67 21 -131 31 -193 31c-160 0 -257 -79 -257 -208c0 -111 63 -170 210 -199l60 -12c100 -20 141 -66 141 -105c0 -43 -63 -98 -176 -98c-65 0 -133 17 -202 52c-17 9 -30 2 -30 -17v-102c0 -14 7 -23 21 -28c75 -26 147 -39 211 -39
c183 0 279 74 279 215c0 119 -68 188 -215 216l-60 12c-108 20 -139 49 -139 113c0 77 61 120 168 120c54 0 110 -13 173 -40c17 -8 29 0 29 18zM289 -58v-64c0 -11 -1 -19 -4 -30l-37 -114c-5 -17 3 -28 21 -28h15c12 0 22 5 29 16l89 127c7 10 10 19 10 30v63
c0 16 -9 24 -25 24h-73c-17 0 -25 -8 -25 -24z" />
    <glyph glyph-name="Sdotbelow" unicode="&#x1e62;" 
d="M579 640v44c0 14 -6 24 -20 27c-67 21 -131 31 -193 31c-160 0 -257 -79 -257 -208c0 -111 63 -170 210 -199l60 -12c100 -20 141 -66 141 -105c0 -43 -63 -98 -176 -98c-65 0 -133 17 -202 52c-17 9 -30 2 -30 -17v-102c0 -14 7 -23 21 -28c75 -26 147 -39 211 -39
c183 0 279 74 279 215c0 119 -68 188 -215 216l-60 12c-108 20 -139 49 -139 113c0 77 61 120 168 120c54 0 110 -13 173 -40c17 -8 29 0 29 18zM295 -98v-59c0 -16 9 -25 25 -25h51c16 0 25 9 25 25v59c0 16 -9 24 -25 24h-51c-16 0 -25 -8 -25 -24z" />
    <glyph glyph-name="Tbar" unicode="&#x166;" 
d="M220 1044v-24c0 -15 9 -24 25 -24h243c16 0 24 9 24 24v24c0 16 -8 24 -24 24h-243c-16 0 -25 -8 -25 -24zM58 705v-34c0 -16 8 -25 25 -24l209 8c16 0 24 -8 24 -25l-23 -605c0 -16 8 -25 24 -25h99c16 0 24 9 23 25l-22 605c0 17 8 25 24 25l209 -8c16 -1 25 8 25 24
v34c0 15 -8 24 -25 24h-568c-16 0 -24 -8 -24 -24z" />
    <glyph glyph-name="Tcaron" unicode="&#x164;" 
d="M349 798h34c13 0 22 5 30 16l90 139c11 16 4 29 -15 29h-15c-14 0 -22 -5 -30 -15l-60 -81c-10 -15 -24 -15 -34 0l-59 81c-8 10 -17 15 -30 15h-14c-20 0 -27 -13 -17 -29l91 -139c7 -11 16 -16 29 -16zM58 705v-34c0 -16 8 -25 25 -24l209 8c16 0 24 -8 24 -25
l-23 -605c0 -16 8 -25 24 -25h99c16 0 24 9 23 25l-22 605c0 17 8 25 24 25l209 -8c16 -1 25 8 25 24v34c0 15 -8 24 -25 24h-568c-16 0 -24 -8 -24 -24z" />
    <glyph glyph-name="Tcedilla" unicode="&#x162;" 
d="M82 729h568c17 0 25 -9 25 -24v-34c0 -16 -9 -25 -25 -24l-209 8c-16 0 -24 -8 -24 -25l22 -605c1 -16 -7 -25 -23 -25h-20c13 0 22 -4 30 -14c28 -34 41 -64 41 -91c0 -58 -39 -88 -116 -88c-22 0 -44 2 -65 6c-14 4 -21 13 -21 28v13c0 18 10 23 27 19
c15 -4 30 -6 49 -6c38 0 58 16 58 46c0 14 -7 33 -23 57c-10 17 -7 30 9 30h-68c-16 0 -24 9 -24 25l23 605c0 17 -8 25 -24 25l-209 -8c-17 -1 -25 8 -25 24v34c0 16 8 24 24 24z" />
    <glyph glyph-name="Tcircumflexbelow" unicode="&#x1e70;" 
d="M58 705v-34c0 -16 8 -25 25 -24l209 8c16 0 24 -8 24 -25l-23 -605c0 -16 8 -25 24 -25h99c16 0 24 9 23 25l-22 605c0 17 8 25 24 25l209 -8c16 -1 25 8 25 24v34c0 15 -8 24 -25 24h-568c-16 0 -24 -8 -24 -24zM243 -220l71 96c10 15 24 15 34 0l71 -96h68l-120 184
h-72l-120 -184h68z" />
    <glyph glyph-name="uni021A" unicode="&#x21a;" 
d="M58 705v-34c0 -16 8 -25 25 -24l209 8c16 0 24 -8 24 -25l-23 -605c0 -16 8 -25 24 -25h99c16 0 24 9 23 25l-22 605c0 17 8 25 24 25l209 -8c16 -1 25 8 25 24v34c0 15 -8 24 -25 24h-568c-16 0 -24 -8 -24 -24zM308 -50v-64c0 -11 -1 -19 -4 -30l-37 -114
c-5 -17 3 -28 21 -28h15c12 0 22 5 29 16l89 127c7 10 10 19 10 30v63c0 16 -9 24 -25 24h-73c-17 0 -25 -8 -25 -24z" />
    <glyph glyph-name="Tdotbelow" unicode="&#x1e6c;" 
d="M58 705v-34c0 -16 8 -25 25 -24l209 8c16 0 24 -8 24 -25l-23 -605c0 -16 8 -25 24 -25h99c16 0 24 9 23 25l-22 605c0 17 8 25 24 25l209 -8c16 -1 25 8 25 24v34c0 15 -8 24 -25 24h-568c-16 0 -24 -8 -24 -24zM312 -119v-59c0 -16 9 -25 25 -25h51c16 0 25 9 25 25v59
c0 16 -9 24 -25 24h-51c-16 0 -25 -8 -25 -24z" />
    <glyph glyph-name="Tlinebelow" unicode="&#x1e6e;" 
d="M58 705v-34c0 -16 8 -25 25 -24l209 8c16 0 24 -8 24 -25l-23 -605c0 -16 8 -25 24 -25h99c16 0 24 9 23 25l-22 605c0 17 8 25 24 25l209 -8c16 -1 25 8 25 24v34c0 15 -8 24 -25 24h-568c-16 0 -24 -8 -24 -24zM224 -139l6 37c2 15 11 22 26 22l214 4
c17 1 25 -9 22 -26l-5 -36c-3 -15 -11 -23 -26 -23l-214 -4c-17 0 -26 10 -23 26z" />
    <glyph glyph-name="Ucaron" unicode="&#x1d3;" 
d="M349 798h34c13 0 22 5 30 16l90 139c11 16 4 29 -15 29h-15c-14 0 -22 -5 -30 -15l-60 -81c-10 -15 -24 -15 -34 0l-59 81c-8 10 -17 15 -30 15h-14c-20 0 -27 -13 -17 -29l91 -139c7 -11 16 -16 29 -16zM82 705l5 -431c2 -190 96 -288 280 -288c183 0 277 98 279 288
l4 431c0 15 -8 24 -24 24h-55c-16 0 -24 -9 -24 -25l4 -350c2 -156 -58 -220 -184 -220c-127 0 -187 64 -185 220l4 350c0 16 -8 25 -24 25h-56c-16 0 -24 -8 -24 -24z" />
    <glyph glyph-name="Udieresisacute" unicode="&#x1d7;" 
d="M467 1167l-118 -160c-13 -16 -6 -29 14 -29h28c13 0 22 3 30 13l140 161c13 15 7 30 -14 30h-50c-13 0 -22 -5 -30 -15zM210 923v-57c0 -16 9 -25 24 -25h58c16 0 24 9 24 25v57c0 16 -8 24 -24 24h-58c-16 0 -24 -8 -24 -24zM415 923v-57c0 -16 8 -25 24 -25h58
c16 0 24 9 24 25v57c0 16 -8 24 -24 24h-58c-16 0 -24 -8 -24 -24zM82 705l5 -431c2 -190 96 -288 280 -288c183 0 277 98 279 288l4 431c0 15 -8 24 -24 24h-55c-16 0 -24 -9 -24 -25l4 -350c2 -156 -58 -220 -184 -220c-127 0 -187 64 -185 220l4 350c0 16 -8 25 -24 25
h-56c-16 0 -24 -8 -24 -24z" />
    <glyph glyph-name="Udieresiscaron" unicode="&#x1d9;" 
d="M349 969h34c13 0 22 5 30 16l90 139c11 16 4 29 -15 29h-15c-14 0 -22 -5 -30 -15l-60 -81c-10 -15 -24 -15 -34 0l-59 81c-8 10 -17 15 -30 15h-14c-20 0 -27 -13 -17 -29l91 -139c7 -11 16 -16 29 -16zM211 923v-57c0 -16 9 -25 24 -25h58c16 0 24 9 24 25v57
c0 16 -8 24 -24 24h-58c-16 0 -24 -8 -24 -24zM416 923v-57c0 -16 8 -25 24 -25h58c16 0 24 9 24 25v57c0 16 -8 24 -24 24h-58c-16 0 -24 -8 -24 -24zM82 705l5 -431c2 -190 96 -288 280 -288c183 0 277 98 279 288l4 431c0 15 -8 24 -24 24h-55c-16 0 -24 -9 -24 -25
l4 -350c2 -156 -58 -220 -184 -220c-127 0 -187 64 -185 220l4 350c0 16 -8 25 -24 25h-56c-16 0 -24 -8 -24 -24z" />
    <glyph glyph-name="Udieresisgrave" unicode="&#x1db;" 
d="M282 1170h-44c-19 0 -27 -12 -17 -29l75 -137c6 -11 15 -17 29 -17h76c21 0 27 13 15 30l-104 138c-8 10 -17 15 -30 15zM210 923v-57c0 -16 9 -25 24 -25h58c16 0 24 9 24 25v57c0 16 -8 24 -24 24h-58c-16 0 -24 -8 -24 -24zM415 923v-57c0 -16 8 -25 24 -25h58
c16 0 24 9 24 25v57c0 16 -8 24 -24 24h-58c-16 0 -24 -8 -24 -24zM82 705l5 -431c2 -190 96 -288 280 -288c183 0 277 98 279 288l4 431c0 15 -8 24 -24 24h-55c-16 0 -24 -9 -24 -25l4 -350c2 -156 -58 -220 -184 -220c-127 0 -187 64 -185 220l4 350c0 16 -8 25 -24 25
h-56c-16 0 -24 -8 -24 -24z" />
    <glyph glyph-name="Udieresismacron" unicode="&#x1d5;" 
d="M220 1044v-24c0 -15 9 -24 25 -24h243c16 0 24 9 24 24v24c0 16 -8 24 -24 24h-243c-16 0 -25 -8 -25 -24zM210 923v-57c0 -16 9 -25 24 -25h58c16 0 24 9 24 25v57c0 16 -8 24 -24 24h-58c-16 0 -24 -8 -24 -24zM415 923v-57c0 -16 8 -25 24 -25h58c16 0 24 9 24 25v57
c0 16 -8 24 -24 24h-58c-16 0 -24 -8 -24 -24zM82 705l5 -431c2 -190 96 -288 280 -288c183 0 277 98 279 288l4 431c0 15 -8 24 -24 24h-55c-16 0 -24 -9 -24 -25l4 -350c2 -156 -58 -220 -184 -220c-127 0 -187 64 -185 220l4 350c0 16 -8 25 -24 25h-56
c-16 0 -24 -8 -24 -24z" />
    <glyph glyph-name="Udotbelow" unicode="&#x1ee4;" 
d="M82 705l5 -431c2 -190 96 -288 280 -288c183 0 277 98 279 288l4 431c0 15 -8 24 -24 24h-55c-16 0 -24 -9 -24 -25l4 -350c2 -156 -58 -220 -184 -220c-127 0 -187 64 -185 220l4 350c0 16 -8 25 -24 25h-56c-16 0 -24 -8 -24 -24zM316 -62v-59c0 -16 9 -25 25 -25h51
c16 0 25 9 25 25v59c0 16 -9 24 -25 24h-51c-16 0 -25 -8 -25 -24z" />
    <glyph glyph-name="Uhookabove" unicode="&#x1ee6;" 
d="M504 815v-21c16 8 31 13 45 13c23 0 32 -8 32 -14s-4 -12 -11 -17l-11 -9c-8 -6 -13 -10 -15 -15c-3 -4 -4 -10 -4 -16v-3h28s3 13 6 16c2 1 3 3 5 4l11 7c14 11 21 21 21 31s-5 19 -15 26c-10 6 -24 10 -40 10c-17 0 -34 -4 -52 -12zM82 705l5 -431
c2 -190 96 -288 280 -288c183 0 277 98 279 288l4 431c0 15 -8 24 -24 24h-55c-16 0 -24 -9 -24 -25l4 -350c2 -156 -58 -220 -184 -220c-127 0 -187 64 -185 220l4 350c0 16 -8 25 -24 25h-56c-16 0 -24 -8 -24 -24z" />
    <glyph glyph-name="Uhorn" unicode="&#x1af;" 
d="M706 751c14 -2 23 -9 25 -23v-12c0 -39 -10 -87 -41 -114c-12 -11 -18 -16 -26 -22c-5 -4 -10 -5 -15 -4l-3 -302c-2 -190 -96 -288 -279 -288c-184 0 -278 98 -280 288l-5 431c0 16 8 24 24 24h56c16 0 24 -9 24 -25l-4 -350c-2 -156 58 -220 185 -220
c126 0 186 64 184 220l-4 350c0 16 8 25 24 25h55c16 0 24 -9 24 -24l-1 -74c6 3 11 5 17 10c22 20 20 66 20 83c0 6 -1 11 -2 15c-3 10 5 14 22 12z" />
    <glyph glyph-name="Uhornacute" unicode="&#x1ee8;" 
d="M391 978h-28c-20 0 -27 13 -14 29l118 160c8 10 17 15 30 15h50c21 0 27 -15 14 -30l-140 -161c-8 -10 -17 -13 -30 -13zM706 751c14 -2 23 -9 25 -23v-12c0 -39 -10 -87 -41 -114c-12 -11 -18 -16 -26 -22c-5 -4 -10 -5 -15 -4l-3 -302c-2 -190 -96 -288 -279 -288
c-184 0 -278 98 -280 288l-5 431c0 16 8 24 24 24h56c16 0 24 -9 24 -25l-4 -350c-2 -156 58 -220 185 -220c126 0 186 64 184 220l-4 350c0 16 8 25 24 25h55c16 0 24 -9 24 -24l-1 -74c6 3 11 5 17 10c22 20 20 66 20 83c0 6 -1 11 -2 15c-3 10 5 14 22 12z" />
    <glyph glyph-name="Uhorndotbelow" unicode="&#x1ef0;" 
d="M706 751c14 -2 23 -9 25 -23v-12c0 -39 -10 -87 -41 -114c-12 -11 -18 -16 -26 -22c-5 -4 -10 -5 -15 -4l-3 -302c-2 -190 -96 -288 -279 -288c-184 0 -278 98 -280 288l-5 431c0 16 8 24 24 24h56c16 0 24 -9 24 -25l-4 -350c-2 -156 58 -220 185 -220
c126 0 186 64 184 220l-4 350c0 16 8 25 24 25h55c16 0 24 -9 24 -24l-1 -74c6 3 11 5 17 10c22 20 20 66 20 83c0 6 -1 11 -2 15c-3 10 5 14 22 12zM334 -38h51c16 0 25 -8 25 -24v-59c0 -16 -9 -25 -25 -25h-51c-16 0 -25 9 -25 25v59c0 16 9 24 25 24z" />
    <glyph glyph-name="Uhorngrave" unicode="&#x1eea;" 
d="M296 1004l-75 137c-10 17 -2 29 17 29h44c13 0 22 -5 30 -15l104 -138c12 -17 6 -30 -15 -30h-76c-14 0 -23 6 -29 17zM706 751c14 -2 23 -9 25 -23v-12c0 -39 -10 -87 -41 -114c-12 -11 -18 -16 -26 -22c-5 -4 -10 -5 -15 -4l-3 -302c-2 -190 -96 -288 -279 -288
c-184 0 -278 98 -280 288l-5 431c0 16 8 24 24 24h56c16 0 24 -9 24 -25l-4 -350c-2 -156 58 -220 185 -220c126 0 186 64 184 220l-4 350c0 16 8 25 24 25h55c16 0 24 -9 24 -24l-1 -74c6 3 11 5 17 10c22 20 20 66 20 83c0 6 -1 11 -2 15c-3 10 5 14 22 12z" />
    <glyph glyph-name="Uhornhookabove" unicode="&#x1eec;" 
d="M706 751c14 -2 23 -9 25 -23v-12c0 -39 -10 -87 -41 -114c-12 -11 -18 -16 -26 -22c-5 -4 -10 -5 -15 -4l-3 -302c-2 -190 -96 -288 -279 -288c-184 0 -278 98 -280 288l-5 431c0 16 8 24 24 24h56c16 0 24 -9 24 -25l-4 -350c-2 -156 58 -220 185 -220
c126 0 186 64 184 220l-4 350c0 11 4 18 11 22h-9v3c0 6 1 12 4 16c2 5 7 9 15 15l11 9c7 5 11 11 11 17s-9 14 -32 14c-14 0 -29 -5 -45 -13v21c18 8 35 12 52 12c16 0 30 -4 40 -10c10 -7 15 -16 15 -26s-7 -20 -21 -31l-11 -7c-2 -1 -3 -3 -5 -4c-2 -2 -4 -9 -5 -13h48
c16 0 24 -9 24 -24l-1 -74c6 3 11 5 17 10c22 20 20 66 20 83c0 6 -1 11 -2 15c-3 10 5 14 22 12z" />
    <glyph glyph-name="Uhorntilde" unicode="&#x1eee;" 
d="M242 968h-12c-16 0 -25 9 -23 26c7 72 40 112 93 112c25 0 44 -8 68 -30l28 -27c14 -13 25 -19 33 -19c12 0 22 6 28 18c3 8 6 19 8 34c2 16 10 24 25 24h12c17 0 25 -9 24 -26c-7 -72 -41 -112 -94 -112c-25 0 -44 8 -68 30l-28 27c-14 13 -24 19 -33 19
c-12 0 -21 -6 -27 -18c-4 -8 -7 -19 -8 -34c-2 -16 -10 -24 -26 -24zM706 751c14 -2 23 -9 25 -23v-12c0 -39 -10 -87 -41 -114c-12 -11 -18 -16 -26 -22c-5 -4 -10 -5 -15 -4l-3 -302c-2 -190 -96 -288 -279 -288c-184 0 -278 98 -280 288l-5 431c0 16 8 24 24 24h56
c16 0 24 -9 24 -25l-4 -350c-2 -156 58 -220 185 -220c126 0 186 64 184 220l-4 350c0 16 8 25 24 25h55c16 0 24 -9 24 -24l-1 -74c6 3 11 5 17 10c22 20 20 66 20 83c0 6 -1 11 -2 15c-3 10 5 14 22 12z" />
    <glyph glyph-name="Uhungarumlaut" unicode="&#x170;" 
d="M278 964l-69 -137c-9 -17 -2 -29 18 -29h15c13 0 22 5 29 17l81 138c11 16 3 29 -16 29h-29c-14 0 -23 -6 -29 -18zM441 965l-75 -137c-9 -18 -2 -30 17 -30h14c13 0 22 5 29 16l92 139c11 16 3 29 -16 29h-32c-14 0 -23 -6 -29 -17zM82 705l5 -431
c2 -190 96 -288 280 -288c183 0 277 98 279 288l4 431c0 15 -8 24 -24 24h-55c-16 0 -24 -9 -24 -25l4 -350c2 -156 -58 -220 -184 -220c-127 0 -187 64 -185 220l4 350c0 16 -8 25 -24 25h-56c-16 0 -24 -8 -24 -24z" />
    <glyph glyph-name="Umacron" unicode="&#x16a;" 
d="M220 1044v-24c0 -15 9 -24 25 -24h243c16 0 24 9 24 24v24c0 16 -8 24 -24 24h-243c-16 0 -25 -8 -25 -24zM82 705l5 -431c2 -190 96 -288 280 -288c183 0 277 98 279 288l4 431c0 15 -8 24 -24 24h-55c-16 0 -24 -9 -24 -25l4 -350c2 -156 -58 -220 -184 -220
c-127 0 -187 64 -185 220l4 350c0 16 -8 25 -24 25h-56c-16 0 -24 -8 -24 -24z" />
    <glyph glyph-name="Uogonek" unicode="&#x172;" 
d="M571 729h55c16 0 24 -9 24 -24l-4 -431c-2 -181 -87 -279 -254 -287c0 -5 -1 -11 -5 -17c-15 -24 -23 -43 -23 -58c0 -30 18 -45 53 -45c12 0 23 2 34 5c17 4 28 -1 28 -19v-14c0 -15 -7 -24 -22 -27c-16 -3 -31 -5 -45 -5c-79 0 -116 27 -116 88c0 27 14 57 41 91l1 1
c-165 10 -249 107 -251 287l-5 431c0 16 8 24 24 24h56c16 0 24 -9 24 -25l-4 -350c-2 -156 58 -220 185 -220c126 0 186 64 184 220l-4 350c0 16 8 25 24 25z" />
    <glyph glyph-name="Uring" unicode="&#x16e;" 
d="M500 926c0 75 -59 134 -134 134c-74 0 -134 -59 -134 -134s60 -134 134 -134c75 0 134 59 134 134zM440 926c0 -41 -32 -74 -74 -74s-74 32 -74 74s32 74 74 74s74 -33 74 -74zM82 705l5 -431c2 -190 96 -288 280 -288c183 0 277 98 279 288l4 431c0 15 -8 24 -24 24h-55
c-16 0 -24 -9 -24 -25l4 -350c2 -156 -58 -220 -184 -220c-127 0 -187 64 -185 220l4 350c0 16 -8 25 -24 25h-56c-16 0 -24 -8 -24 -24z" />
    <glyph glyph-name="Utilde" unicode="&#x168;" 
d="M336 1025l28 -27c24 -22 43 -30 68 -30c53 0 87 40 94 112c1 17 -7 26 -24 26h-12c-15 0 -23 -8 -25 -24c-2 -15 -5 -26 -8 -34c-6 -12 -16 -18 -28 -18c-8 0 -19 6 -33 19l-28 27c-24 22 -43 30 -68 30c-53 0 -86 -40 -93 -112c-2 -17 7 -26 23 -26h12c16 0 24 8 26 24
c1 15 4 26 8 34c6 12 15 18 27 18c9 0 19 -6 33 -19zM82 705l5 -431c2 -190 96 -288 280 -288c183 0 277 98 279 288l4 431c0 15 -8 24 -24 24h-55c-16 0 -24 -9 -24 -25l4 -350c2 -156 -58 -220 -184 -220c-127 0 -187 64 -185 220l4 350c0 16 -8 25 -24 25h-56
c-16 0 -24 -8 -24 -24z" />
    <glyph glyph-name="Wacute" unicode="&#x1e82;" 
d="M462 1167l-118 -160c-13 -16 -6 -29 14 -29h28c13 0 22 3 30 13l140 161c13 15 7 30 -14 30h-50c-13 0 -22 -5 -30 -15zM49 702l41 -680c1 -15 12 -22 27 -22h111c14 0 23 5 29 18l91 194c10 22 22 22 31 0l87 -193c6 -13 14 -19 28 -19h102c14 0 25 7 27 21l65 681
c1 17 -5 27 -22 27h-46c-15 0 -26 -7 -28 -21l-50 -469c-2 -22 -22 -23 -32 -2l-97 206c-6 12 -15 17 -29 17h-47c-13 0 -23 -5 -29 -17l-108 -203c-12 -21 -32 -18 -33 3l-23 465c0 14 -13 21 -27 21h-46c-17 0 -23 -10 -22 -27z" />
    <glyph glyph-name="Wcircumflex" unicode="&#x174;" 
d="M273 781l71 96c10 15 24 15 34 0l71 -96h68l-120 184h-72l-120 -184h68zM49 702l41 -680c1 -15 12 -22 27 -22h111c14 0 23 5 29 18l91 194c10 22 22 22 31 0l87 -193c6 -13 14 -19 28 -19h102c14 0 25 7 27 21l65 681c1 17 -5 27 -22 27h-46c-15 0 -26 -7 -28 -21
l-50 -469c-2 -22 -22 -23 -32 -2l-97 206c-6 12 -15 17 -29 17h-47c-13 0 -23 -5 -29 -17l-108 -203c-12 -21 -32 -18 -33 3l-23 465c0 14 -13 21 -27 21h-46c-17 0 -23 -10 -22 -27z" />
    <glyph glyph-name="Wdieresis" unicode="&#x1e84;" 
d="M205 923v-57c0 -16 9 -25 24 -25h58c16 0 24 9 24 25v57c0 16 -8 24 -24 24h-58c-16 0 -24 -8 -24 -24zM410 923v-57c0 -16 8 -25 24 -25h58c16 0 24 9 24 25v57c0 16 -8 24 -24 24h-58c-16 0 -24 -8 -24 -24zM49 702l41 -680c1 -15 12 -22 27 -22h111c14 0 23 5 29 18
l91 194c10 22 22 22 31 0l87 -193c6 -13 14 -19 28 -19h102c14 0 25 7 27 21l65 681c1 17 -5 27 -22 27h-46c-15 0 -26 -7 -28 -21l-50 -469c-2 -22 -22 -23 -32 -2l-97 206c-6 12 -15 17 -29 17h-47c-13 0 -23 -5 -29 -17l-108 -203c-12 -21 -32 -18 -33 3l-23 465
c0 14 -13 21 -27 21h-46c-17 0 -23 -10 -22 -27z" />
    <glyph glyph-name="Wgrave" unicode="&#x1e80;" 
d="M277 1170h-44c-19 0 -27 -12 -17 -29l75 -137c6 -11 15 -17 29 -17h76c21 0 27 13 15 30l-104 138c-8 10 -17 15 -30 15zM49 702l41 -680c1 -15 12 -22 27 -22h111c14 0 23 5 29 18l91 194c10 22 22 22 31 0l87 -193c6 -13 14 -19 28 -19h102c14 0 25 7 27 21l65 681
c1 17 -5 27 -22 27h-46c-15 0 -26 -7 -28 -21l-50 -469c-2 -22 -22 -23 -32 -2l-97 206c-6 12 -15 17 -29 17h-47c-13 0 -23 -5 -29 -17l-108 -203c-12 -21 -32 -18 -33 3l-23 465c0 14 -13 21 -27 21h-46c-17 0 -23 -10 -22 -27z" />
    <glyph glyph-name="Ycircumflex" unicode="&#x176;" 
d="M278 781l71 96c10 15 24 15 34 0l71 -96h68l-120 184h-72l-120 -184h68zM73 700l217 -436c5 -11 7 -19 7 -31v-209c0 -16 9 -24 25 -24h84c16 0 25 9 25 24v209c0 12 2 20 7 31l221 436c9 17 2 29 -17 29h-55c-13 0 -22 -5 -28 -17l-175 -325c-9 -17 -24 -17 -33 0
l-177 325c-6 12 -15 17 -28 17h-55c-19 0 -26 -12 -18 -29z" />
    <glyph glyph-name="Ydotbelow" unicode="&#x1ef4;" 
d="M73 700l217 -436c5 -11 7 -19 7 -31v-209c0 -16 9 -24 25 -24h84c16 0 25 9 25 24v209c0 12 2 20 7 31l221 436c9 17 2 29 -17 29h-55c-13 0 -22 -5 -28 -17l-175 -325c-9 -17 -24 -17 -33 0l-177 325c-6 12 -15 17 -28 17h-55c-19 0 -26 -12 -18 -29zM321 -62v-59
c0 -16 9 -25 25 -25h51c16 0 25 9 25 25v59c0 16 -9 24 -25 24h-51c-16 0 -25 -8 -25 -24z" />
    <glyph glyph-name="Ygrave" unicode="&#x1ef2;" 
d="M282 1170h-44c-19 0 -27 -12 -17 -29l75 -137c6 -11 15 -17 29 -17h76c21 0 27 13 15 30l-104 138c-8 10 -17 15 -30 15zM73 700l217 -436c5 -11 7 -19 7 -31v-209c0 -16 9 -24 25 -24h84c16 0 25 9 25 24v209c0 12 2 20 7 31l221 436c9 17 2 29 -17 29h-55
c-13 0 -22 -5 -28 -17l-175 -325c-9 -17 -24 -17 -33 0l-177 325c-6 12 -15 17 -28 17h-55c-19 0 -26 -12 -18 -29z" />
    <glyph glyph-name="Yhookabove" unicode="&#x1ef6;" 
d="M314 790v-21c16 8 31 13 45 13c23 0 32 -8 32 -14s-4 -12 -11 -17l-11 -9c-8 -6 -13 -10 -15 -15c-3 -4 -4 -10 -4 -16v-3h28s3 13 6 16c2 1 3 3 5 4l11 7c14 11 21 21 21 31s-5 19 -15 26c-10 6 -24 10 -40 10c-17 0 -34 -4 -52 -12zM73 700l217 -436c5 -11 7 -19 7 -31
v-209c0 -16 9 -24 25 -24h84c16 0 25 9 25 24v209c0 12 2 20 7 31l221 436c9 17 2 29 -17 29h-55c-13 0 -22 -5 -28 -17l-175 -325c-9 -17 -24 -17 -33 0l-177 325c-6 12 -15 17 -28 17h-55c-19 0 -26 -12 -18 -29z" />
    <glyph glyph-name="Ytilde" unicode="&#x1ef8;" 
d="M336 1025l28 -27c24 -22 43 -30 68 -30c53 0 87 40 94 112c1 17 -7 26 -24 26h-12c-15 0 -23 -8 -25 -24c-2 -15 -5 -26 -8 -34c-6 -12 -16 -18 -28 -18c-8 0 -19 6 -33 19l-28 27c-24 22 -43 30 -68 30c-53 0 -86 -40 -93 -112c-2 -17 7 -26 23 -26h12c16 0 24 8 26 24
c1 15 4 26 8 34c6 12 15 18 27 18c9 0 19 -6 33 -19zM73 700l217 -436c5 -11 7 -19 7 -31v-209c0 -16 9 -24 25 -24h84c16 0 25 9 25 24v209c0 12 2 20 7 31l221 436c9 17 2 29 -17 29h-55c-13 0 -22 -5 -28 -17l-175 -325c-9 -17 -24 -17 -33 0l-177 325
c-6 12 -15 17 -28 17h-55c-19 0 -26 -12 -18 -29z" />
    <glyph glyph-name="Zacute" unicode="&#x179;" 
d="M472 1167l-118 -160c-13 -16 -6 -29 14 -29h28c13 0 22 3 30 13l140 161c13 15 7 30 -14 30h-50c-13 0 -22 -5 -30 -15zM63 705v-35c0 -15 8 -24 24 -24h385c22 0 28 -14 13 -30l-412 -465c-8 -9 -12 -17 -12 -30v-97c0 -15 9 -24 24 -24h552c16 0 25 9 25 24v98
c0 16 -9 24 -25 24h-412c-21 0 -27 15 -13 30l412 465c8 9 12 18 12 30v34c0 15 -9 24 -25 24h-524c-16 0 -24 -8 -24 -24z" />
    <glyph glyph-name="Zdotaccent" unicode="&#x17b;" 
d="M321 915v-50c0 -16 9 -25 25 -25h51c16 0 24 9 24 25v50c0 17 -8 25 -24 25h-51c-16 0 -25 -8 -25 -25zM63 705v-35c0 -15 8 -24 24 -24h385c22 0 28 -14 13 -30l-412 -465c-8 -9 -12 -17 -12 -30v-97c0 -15 9 -24 24 -24h552c16 0 25 9 25 24v98c0 16 -9 24 -25 24h-412
c-21 0 -27 15 -13 30l412 465c8 9 12 18 12 30v34c0 15 -9 24 -25 24h-524c-16 0 -24 -8 -24 -24z" />
    <glyph glyph-name="Zdotbelow" unicode="&#x1e92;" 
d="M63 705v-35c0 -15 8 -24 24 -24h385c22 0 28 -14 13 -30l-412 -465c-8 -9 -12 -17 -12 -30v-97c0 -15 9 -24 24 -24h552c16 0 25 9 25 24v98c0 16 -9 24 -25 24h-412c-21 0 -27 15 -13 30l412 465c8 9 12 18 12 30v34c0 15 -9 24 -25 24h-524c-16 0 -24 -8 -24 -24z
M305 -62v-59c0 -16 9 -25 25 -25h51c16 0 25 9 25 25v59c0 16 -9 24 -25 24h-51c-16 0 -25 -8 -25 -24z" />
    <glyph glyph-name="abreve" unicode="&#x103;" 
d="M380 618c-85 0 -136 38 -149 114c-4 16 6 26 22 26h10c15 0 22 -7 27 -21c13 -35 42 -52 90 -52s77 17 90 52c5 14 13 21 27 21h10c17 0 26 -10 23 -26c-14 -76 -65 -114 -150 -114zM361 560c159 0 236 -81 236 -248v-288c0 -15 -8 -24 -24 -24h-41c-16 0 -25 8 -25 24
v11c0 22 -11 26 -27 10c-39 -39 -91 -59 -162 -59c-111 0 -183 68 -183 173c0 123 83 186 246 186h102c16 0 24 3 24 9c0 83 -50 133 -155 140c-52 0 -102 -11 -148 -31c-17 -8 -29 -1 -29 17v21c0 14 7 23 20 28c58 21 114 31 166 31zM332 123c89 0 124 19 125 133
c0 15 -9 23 -24 23h-57c-122 0 -160 -24 -165 -81c-1 -10 -1 -18 3 -29c15 -42 59 -46 118 -46z" />
    <glyph glyph-name="abreveacute" unicode="&#x1eaf;" 
d="M405 796h-28c-20 0 -27 13 -14 29l118 160c8 10 17 15 30 15h50c21 0 27 -15 14 -30l-140 -161c-8 -10 -17 -13 -30 -13zM380 618c-85 0 -136 38 -149 114c-4 16 6 26 22 26h10c15 0 22 -7 27 -21c13 -35 42 -52 90 -52s77 17 90 52c5 14 13 21 27 21h10
c17 0 26 -10 23 -26c-14 -76 -65 -114 -150 -114zM361 560c159 0 236 -81 236 -248v-288c0 -15 -8 -24 -24 -24h-41c-16 0 -25 8 -25 24v11c0 22 -11 26 -27 10c-39 -39 -91 -59 -162 -59c-111 0 -183 68 -183 173c0 123 83 186 246 186h102c16 0 24 3 24 9
c0 83 -50 133 -155 140c-52 0 -102 -11 -148 -31c-17 -8 -29 -1 -29 17v21c0 14 7 23 20 28c58 21 114 31 166 31zM332 123c89 0 124 19 125 133c0 15 -9 23 -24 23h-57c-122 0 -160 -24 -165 -81c-1 -10 -1 -18 3 -29c15 -42 59 -46 118 -46z" />
    <glyph glyph-name="abrevedotbelow" unicode="&#x1eb7;" 
d="M380 618c-85 0 -136 38 -149 114c-4 16 6 26 22 26h10c15 0 22 -7 27 -21c13 -35 42 -52 90 -52s77 17 90 52c5 14 13 21 27 21h10c17 0 26 -10 23 -26c-14 -76 -65 -114 -150 -114zM361 560c159 0 236 -81 236 -248v-288c0 -15 -8 -24 -24 -24h-41c-16 0 -25 8 -25 24
v11c0 22 -11 26 -27 10c-39 -39 -91 -59 -162 -59c-111 0 -183 68 -183 173c0 123 83 186 246 186h102c16 0 24 3 24 9c0 83 -50 133 -155 140c-52 0 -102 -11 -148 -31c-17 -8 -29 -1 -29 17v21c0 14 7 23 20 28c58 21 114 31 166 31zM332 123c89 0 124 19 125 133
c0 15 -9 23 -24 23h-57c-122 0 -160 -24 -165 -81c-1 -10 -1 -18 3 -29c15 -42 59 -46 118 -46zM298 -38h51c16 0 25 -8 25 -24v-59c0 -16 -9 -25 -25 -25h-51c-16 0 -25 9 -25 25v59c0 16 9 24 25 24z" />
    <glyph glyph-name="abrevegrave" unicode="&#x1eb1;" 
d="M310 822l-75 137c-10 17 -2 29 17 29h44c13 0 22 -5 30 -15l104 -138c12 -17 6 -30 -15 -30h-76c-14 0 -23 6 -29 17zM380 618c-85 0 -136 38 -149 114c-4 16 6 26 22 26h10c15 0 22 -7 27 -21c13 -35 42 -52 90 -52s77 17 90 52c5 14 13 21 27 21h10c17 0 26 -10 23 -26
c-14 -76 -65 -114 -150 -114zM361 560c159 0 236 -81 236 -248v-288c0 -15 -8 -24 -24 -24h-41c-16 0 -25 8 -25 24v11c0 22 -11 26 -27 10c-39 -39 -91 -59 -162 -59c-111 0 -183 68 -183 173c0 123 83 186 246 186h102c16 0 24 3 24 9c0 83 -50 133 -155 140
c-52 0 -102 -11 -148 -31c-17 -8 -29 -1 -29 17v21c0 14 7 23 20 28c58 21 114 31 166 31zM332 123c89 0 124 19 125 133c0 15 -9 23 -24 23h-57c-122 0 -160 -24 -165 -81c-1 -10 -1 -18 3 -29c15 -42 59 -46 118 -46z" />
    <glyph glyph-name="abrevehookabove" unicode="&#x1eb3;" 
d="M386 796c0 6 -9 14 -32 14c-14 0 -29 -5 -45 -13v21c18 8 35 12 52 12c16 0 30 -4 40 -10c10 -7 15 -16 15 -26s-7 -20 -21 -31l-11 -7c-2 -1 -3 -3 -5 -4c-3 -3 -6 -16 -6 -16h-28v3c0 6 1 12 4 16c2 5 7 9 15 15l11 9c7 5 11 11 11 17zM380 618c-85 0 -136 38 -149 114
c-4 16 6 26 22 26h10c15 0 22 -7 27 -21c13 -35 42 -52 90 -52s77 17 90 52c5 14 13 21 27 21h10c17 0 26 -10 23 -26c-14 -76 -65 -114 -150 -114zM361 560c159 0 236 -81 236 -248v-288c0 -15 -8 -24 -24 -24h-41c-16 0 -25 8 -25 24v11c0 22 -11 26 -27 10
c-39 -39 -91 -59 -162 -59c-111 0 -183 68 -183 173c0 123 83 186 246 186h102c16 0 24 3 24 9c0 83 -50 133 -155 140c-52 0 -102 -11 -148 -31c-17 -8 -29 -1 -29 17v21c0 14 7 23 20 28c58 21 114 31 166 31zM332 123c89 0 124 19 125 133c0 15 -9 23 -24 23h-57
c-122 0 -160 -24 -165 -81c-1 -10 -1 -18 3 -29c15 -42 59 -46 118 -46z" />
    <glyph glyph-name="abrevetilde" unicode="&#x1eb5;" 
d="M256 786h-12c-16 0 -25 9 -23 26c7 72 40 112 93 112c25 0 44 -8 68 -30l28 -27c14 -13 25 -19 33 -19c12 0 22 6 28 18c3 8 6 19 8 34c2 16 10 24 25 24h12c17 0 25 -9 24 -26c-7 -72 -41 -112 -94 -112c-25 0 -44 8 -68 30l-28 27c-14 13 -24 19 -33 19
c-12 0 -21 -6 -27 -18c-4 -8 -7 -19 -8 -34c-2 -16 -10 -24 -26 -24zM497 758h10c17 0 26 -10 23 -26c-14 -76 -65 -114 -150 -114s-136 38 -149 114c-4 16 6 26 22 26h10c15 0 22 -7 27 -21c13 -35 42 -52 90 -52s77 17 90 52c5 14 13 21 27 21zM361 560
c159 0 236 -81 236 -248v-288c0 -15 -8 -24 -24 -24h-41c-16 0 -25 8 -25 24v11c0 22 -11 26 -27 10c-39 -39 -91 -59 -162 -59c-111 0 -183 68 -183 173c0 123 83 186 246 186h102c16 0 24 3 24 9c0 83 -50 133 -155 140c-52 0 -102 -11 -148 -31c-17 -8 -29 -1 -29 17v21
c0 14 7 23 20 28c58 21 114 31 166 31zM332 123c89 0 124 19 125 133c0 15 -9 23 -24 23h-57c-122 0 -160 -24 -165 -81c-1 -10 -1 -18 3 -29c15 -42 59 -46 118 -46z" />
    <glyph glyph-name="acaron" unicode="&#x1ce;" 
d="M334 632l-91 139c-10 16 -3 29 17 29h14c13 0 22 -5 30 -15l59 -81c10 -15 24 -15 34 0l60 81c8 10 16 15 30 15h15c19 0 26 -13 15 -29l-90 -139c-8 -11 -17 -16 -30 -16h-34c-13 0 -22 5 -29 16zM361 560c159 0 236 -81 236 -248v-288c0 -15 -8 -24 -24 -24h-41
c-16 0 -25 8 -25 24v11c0 22 -11 26 -27 10c-39 -39 -91 -59 -162 -59c-111 0 -183 68 -183 173c0 123 83 186 246 186h102c16 0 24 3 24 9c0 83 -50 133 -155 140c-52 0 -102 -11 -148 -31c-17 -8 -29 -1 -29 17v21c0 14 7 23 20 28c58 21 114 31 166 31zM332 123
c89 0 124 19 125 133c0 15 -9 23 -24 23h-57c-122 0 -160 -24 -165 -81c-1 -10 -1 -18 3 -29c15 -42 59 -46 118 -46z" />
    <glyph glyph-name="acircumflexacute" unicode="&#x1ea5;" 
d="M405 796h-28c-20 0 -27 13 -14 29l118 160c8 10 17 15 30 15h50c21 0 27 -15 14 -30l-140 -161c-8 -10 -17 -13 -30 -13zM292 599h-68l120 184h72l120 -184h-68l-71 96c-10 15 -24 15 -34 0zM361 560c159 0 236 -81 236 -248v-288c0 -15 -8 -24 -24 -24h-41
c-16 0 -25 8 -25 24v11c0 22 -11 26 -27 10c-39 -39 -91 -59 -162 -59c-111 0 -183 68 -183 173c0 123 83 186 246 186h102c16 0 24 3 24 9c0 83 -50 133 -155 140c-52 0 -102 -11 -148 -31c-17 -8 -29 -1 -29 17v21c0 14 7 23 20 28c58 21 114 31 166 31zM332 123
c89 0 124 19 125 133c0 15 -9 23 -24 23h-57c-122 0 -160 -24 -165 -81c-1 -10 -1 -18 3 -29c15 -42 59 -46 118 -46z" />
    <glyph glyph-name="acircumflexdotbelow" unicode="&#x1ead;" 
d="M292 599h-68l120 184h72l120 -184h-68l-71 96c-10 15 -24 15 -34 0zM361 560c159 0 236 -81 236 -248v-288c0 -15 -8 -24 -24 -24h-41c-16 0 -25 8 -25 24v11c0 22 -11 26 -27 10c-39 -39 -91 -59 -162 -59c-111 0 -183 68 -183 173c0 123 83 186 246 186h102
c16 0 24 3 24 9c0 83 -50 133 -155 140c-52 0 -102 -11 -148 -31c-17 -8 -29 -1 -29 17v21c0 14 7 23 20 28c58 21 114 31 166 31zM332 123c89 0 124 19 125 133c0 15 -9 23 -24 23h-57c-122 0 -160 -24 -165 -81c-1 -10 -1 -18 3 -29c15 -42 59 -46 118 -46zM311 -38h51
c16 0 25 -8 25 -24v-59c0 -16 -9 -25 -25 -25h-51c-16 0 -25 9 -25 25v59c0 16 9 24 25 24z" />
    <glyph glyph-name="acircumflexgrave" unicode="&#x1ea7;" 
d="M310 822l-75 137c-10 17 -2 29 17 29h44c13 0 22 -5 30 -15l104 -138c12 -17 6 -30 -15 -30h-76c-14 0 -23 6 -29 17zM292 599h-68l120 184h72l120 -184h-68l-71 96c-10 15 -24 15 -34 0zM361 560c159 0 236 -81 236 -248v-288c0 -15 -8 -24 -24 -24h-41
c-16 0 -25 8 -25 24v11c0 22 -11 26 -27 10c-39 -39 -91 -59 -162 -59c-111 0 -183 68 -183 173c0 123 83 186 246 186h102c16 0 24 3 24 9c0 83 -50 133 -155 140c-52 0 -102 -11 -148 -31c-17 -8 -29 -1 -29 17v21c0 14 7 23 20 28c58 21 114 31 166 31zM332 123
c89 0 124 19 125 133c0 15 -9 23 -24 23h-57c-122 0 -160 -24 -165 -81c-1 -10 -1 -18 3 -29c15 -42 59 -46 118 -46z" />
    <glyph glyph-name="acircumflexhookabove" unicode="&#x1ea9;" 
d="M292 756h-68l120 184h72l120 -184h-68l-71 96c-10 15 -24 15 -34 0zM386 678l11 9c7 5 11 11 11 17s-9 14 -32 14c-14 0 -29 -5 -45 -13v21c18 8 35 12 52 12c16 0 30 -4 40 -10c10 -7 15 -16 15 -26s-7 -20 -21 -31l-11 -7c-2 -1 -3 -3 -5 -4c-3 -3 -6 -16 -6 -16h-28v3
c0 6 1 12 4 16c2 5 7 9 15 15zM361 560c159 0 236 -81 236 -248v-288c0 -15 -8 -24 -24 -24h-41c-16 0 -25 8 -25 24v11c0 22 -11 26 -27 10c-39 -39 -91 -59 -162 -59c-111 0 -183 68 -183 173c0 123 83 186 246 186h102c16 0 24 3 24 9c0 83 -50 133 -155 140
c-52 0 -102 -11 -148 -31c-17 -8 -29 -1 -29 17v21c0 14 7 23 20 28c58 21 114 31 166 31zM332 123c89 0 124 19 125 133c0 15 -9 23 -24 23h-57c-122 0 -160 -24 -165 -81c-1 -10 -1 -18 3 -29c15 -42 59 -46 118 -46z" />
    <glyph glyph-name="acircumflextilde" unicode="&#x1eab;" 
d="M256 786h-12c-16 0 -25 9 -23 26c7 72 40 112 93 112c25 0 44 -8 68 -30l28 -27c14 -13 25 -19 33 -19c12 0 22 6 28 18c3 8 6 19 8 34c2 16 10 24 25 24h12c17 0 25 -9 24 -26c-7 -72 -41 -112 -94 -112c-25 0 -44 8 -68 30l-28 27c-14 13 -24 19 -33 19
c-12 0 -21 -6 -27 -18c-4 -8 -7 -19 -8 -34c-2 -16 -10 -24 -26 -24zM416 783l120 -184h-68l-71 96c-10 15 -24 15 -34 0l-71 -96h-68l120 184h72zM361 560c159 0 236 -81 236 -248v-288c0 -15 -8 -24 -24 -24h-41c-16 0 -25 8 -25 24v11c0 22 -11 26 -27 10
c-39 -39 -91 -59 -162 -59c-111 0 -183 68 -183 173c0 123 83 186 246 186h102c16 0 24 3 24 9c0 83 -50 133 -155 140c-52 0 -102 -11 -148 -31c-17 -8 -29 -1 -29 17v21c0 14 7 23 20 28c58 21 114 31 166 31zM332 123c89 0 124 19 125 133c0 15 -9 23 -24 23h-57
c-122 0 -160 -24 -165 -81c-1 -10 -1 -18 3 -29c15 -42 59 -46 118 -46z" />
    <glyph glyph-name="adieresismacron" unicode="&#x1df;" 
d="M502 814h-243c-16 0 -25 9 -25 24v24c0 16 9 24 25 24h243c16 0 24 -8 24 -24v-24c0 -15 -8 -24 -24 -24zM306 659h-58c-15 0 -24 9 -24 25v57c0 16 8 24 24 24h58c16 0 24 -8 24 -24v-57c0 -16 -8 -25 -24 -25zM453 765h58c16 0 24 -8 24 -24v-57c0 -16 -8 -25 -24 -25
h-58c-16 0 -24 9 -24 25v57c0 16 8 24 24 24zM361 560c159 0 236 -81 236 -248v-288c0 -15 -8 -24 -24 -24h-41c-16 0 -25 8 -25 24v11c0 22 -11 26 -27 10c-39 -39 -91 -59 -162 -59c-111 0 -183 68 -183 173c0 123 83 186 246 186h102c16 0 24 3 24 9
c0 83 -50 133 -155 140c-52 0 -102 -11 -148 -31c-17 -8 -29 -1 -29 17v21c0 14 7 23 20 28c58 21 114 31 166 31zM332 123c89 0 124 19 125 133c0 15 -9 23 -24 23h-57c-122 0 -160 -24 -165 -81c-1 -10 -1 -18 3 -29c15 -42 59 -46 118 -46z" />
    <glyph glyph-name="adotbelow" unicode="&#x1ea1;" 
d="M361 560c159 0 236 -81 236 -248v-288c0 -15 -8 -24 -24 -24h-41c-16 0 -25 8 -25 24v11c0 22 -11 26 -27 10c-39 -39 -91 -59 -162 -59c-111 0 -183 68 -183 173c0 123 83 186 246 186h102c16 0 24 3 24 9c0 83 -50 133 -155 140c-52 0 -102 -11 -148 -31
c-17 -8 -29 -1 -29 17v21c0 14 7 23 20 28c58 21 114 31 166 31zM332 123c89 0 124 19 125 133c0 15 -9 23 -24 23h-57c-122 0 -160 -24 -165 -81c-1 -10 -1 -18 3 -29c15 -42 59 -46 118 -46zM332 -38h51c16 0 25 -8 25 -24v-59c0 -16 -9 -25 -25 -25h-51
c-16 0 -25 9 -25 25v59c0 16 9 24 25 24z" />
    <glyph glyph-name="ahookabove" unicode="&#x1ea3;" 
d="M386 667c0 6 -9 14 -32 14c-14 0 -29 -5 -45 -13v21c18 8 35 12 52 12c16 0 30 -4 40 -10c10 -7 15 -16 15 -26s-7 -20 -21 -31l-11 -7c-2 -1 -3 -3 -5 -4c-3 -3 -6 -16 -6 -16h-28v3c0 6 1 12 4 16c2 5 7 9 15 15l11 9c7 5 11 11 11 17zM361 560c159 0 236 -81 236 -248
v-288c0 -15 -8 -24 -24 -24h-41c-16 0 -25 8 -25 24v11c0 22 -11 26 -27 10c-39 -39 -91 -59 -162 -59c-111 0 -183 68 -183 173c0 123 83 186 246 186h102c16 0 24 3 24 9c0 83 -50 133 -155 140c-52 0 -102 -11 -148 -31c-17 -8 -29 -1 -29 17v21c0 14 7 23 20 28
c58 21 114 31 166 31zM332 123c89 0 124 19 125 133c0 15 -9 23 -24 23h-57c-122 0 -160 -24 -165 -81c-1 -10 -1 -18 3 -29c15 -42 59 -46 118 -46z" />
    <glyph glyph-name="amacron" unicode="&#x101;" 
d="M502 814h-243c-16 0 -25 9 -25 24v24c0 16 9 24 25 24h243c16 0 24 -8 24 -24v-24c0 -15 -8 -24 -24 -24zM361 560c159 0 236 -81 236 -248v-288c0 -15 -8 -24 -24 -24h-41c-16 0 -25 8 -25 24v11c0 22 -11 26 -27 10c-39 -39 -91 -59 -162 -59c-111 0 -183 68 -183 173
c0 123 83 186 246 186h102c16 0 24 3 24 9c0 83 -50 133 -155 140c-52 0 -102 -11 -148 -31c-17 -8 -29 -1 -29 17v21c0 14 7 23 20 28c58 21 114 31 166 31zM332 123c89 0 124 19 125 133c0 15 -9 23 -24 23h-57c-122 0 -160 -24 -165 -81c-1 -10 -1 -18 3 -29
c15 -42 59 -46 118 -46z" />
    <glyph glyph-name="aogonek" unicode="&#x105;" 
d="M361 560c159 0 236 -81 236 -248v-288c0 -15 -8 -24 -24 -24h-41c-16 0 -25 8 -25 24v11c0 22 -11 26 -27 10c-34 -34 -78 -53 -135 -58c0 -5 -1 -11 -5 -17c-15 -24 -23 -43 -23 -58c0 -30 18 -45 53 -45c12 0 23 2 34 5c17 4 28 -1 28 -19v-14c0 -15 -7 -24 -22 -27
c-16 -3 -31 -5 -45 -5c-79 0 -116 27 -116 88c0 27 14 57 41 91l1 1c-95 11 -156 76 -156 172c0 123 83 186 246 186h102c16 0 24 3 24 9c0 83 -50 133 -155 140c-52 0 -102 -11 -148 -31c-17 -8 -29 -1 -29 17v21c0 14 7 23 20 28c58 21 114 31 166 31zM332 123
c89 0 124 19 125 133c0 15 -9 23 -24 23h-57c-122 0 -160 -24 -165 -81c-1 -10 -1 -18 3 -29c15 -42 59 -46 118 -46z" />
    <glyph glyph-name="bdotbelow" unicode="&#x1e05;" 
d="M169 99c-19 41 -24 329 -42 635c-1 16 8 26 24 26h40c17 0 25 -9 24 -25l-7 -218c-1 -22 9 -25 24 -9c37 38 86 52 149 52c133 0 224 -115 224 -287s-91 -287 -224 -287c-143 0 -186 41 -212 113zM546 278c2 12 2 19 2 31c-7 117 -54 187 -146 187
c-95 0 -152 -75 -152 -207c13 -101 21 -143 152 -143c77 5 126 32 144 132zM506 -62v-59c0 -16 9 -25 25 -25h51c16 0 25 9 25 25v59c0 16 -9 24 -25 24h-51c-16 0 -25 -8 -25 -24z" />
    <glyph glyph-name="cdotaccent" unicode="&#x10b;" 
d="M337 733v-50c0 -16 9 -25 25 -25h51c16 0 24 9 24 25v50c0 17 -8 25 -24 25h-51c-16 0 -25 -8 -25 -25zM583 479v28c0 14 -6 23 -19 28c-44 17 -91 25 -139 25c-171 0 -275 -109 -275 -287c0 -176 104 -287 269 -287c53 0 100 9 145 27c13 5 19 14 18 29l-1 90
c0 18 -11 24 -28 18c-42 -14 -85 -9 -128 -9c-117 6 -166 38 -175 132c0 133 62 216 179 216c42 0 84 -9 125 -27c17 -8 29 -1 29 17z" />
    <glyph glyph-name="dcaron" unicode="&#x10f;" 
d="M767 897v-51c0 -11 -1 -19 -4 -30l-37 -146c-5 -17 4 -28 21 -28h28c14 0 23 6 29 18l81 157c5 10 7 18 7 30v50c0 16 -8 24 -24 24h-76c-17 0 -25 -8 -25 -24zM550 760h41c16 0 25 -9 24 -25l-9 -711c0 -16 -8 -24 -24 -24h-41c-17 0 -25 9 -25 24v14c0 22 -11 25 -26 8
c-36 -41 -85 -60 -149 -60c-133 0 -224 115 -224 287s91 287 224 287c64 0 114 -20 150 -60c14 -18 26 -15 27 7l7 229c0 15 9 24 25 24zM334 495c-91 0 -148 -74 -152 -197c0 -11 0 -19 2 -30c17 -84 58 -119 148 -119c95 0 141 20 144 141c-3 132 -46 205 -142 205z" />
    <glyph glyph-name="dcircumflexbelow" unicode="&#x1e13;" 
d="M550 760h41c16 0 25 -9 24 -25l-9 -711c0 -16 -8 -24 -24 -24h-41c-17 0 -25 9 -25 24v14c0 22 -11 25 -26 8c-36 -41 -85 -60 -149 -60c-133 0 -224 115 -224 287s91 287 224 287c64 0 114 -20 150 -60c14 -18 26 -15 27 7l7 229c0 15 9 24 25 24zM334 495
c-91 0 -148 -74 -152 -197c0 -11 0 -19 2 -30c17 -84 58 -119 148 -119c95 0 141 20 144 141c-3 132 -46 205 -142 205zM246 -242l71 96c10 15 24 15 34 0l71 -96h68l-120 184h-72l-120 -184h68z" />
    <glyph glyph-name="ddotbelow" unicode="&#x1e0d;" 
d="M550 760h41c16 0 25 -9 24 -25l-9 -711c0 -16 -8 -24 -24 -24h-41c-17 0 -25 9 -25 24v14c0 22 -11 25 -26 8c-36 -41 -85 -60 -149 -60c-133 0 -224 115 -224 287s91 287 224 287c64 0 114 -20 150 -60c14 -18 26 -15 27 7l7 229c0 15 9 24 25 24zM334 495
c-91 0 -148 -74 -152 -197c0 -11 0 -19 2 -30c17 -84 58 -119 148 -119c95 0 141 20 144 141c-3 132 -46 205 -142 205zM307 -47v-59c0 -16 9 -25 25 -25h51c16 0 25 9 25 25v59c0 16 -9 24 -25 24h-51c-16 0 -25 -8 -25 -24z" />
    <glyph glyph-name="dlinebelow" unicode="&#x1e0f;" 
d="M550 760h41c16 0 25 -9 24 -25l-9 -711c0 -16 -8 -24 -24 -24h-41c-17 0 -25 9 -25 24v14c0 22 -11 25 -26 8c-36 -41 -85 -60 -149 -60c-133 0 -224 115 -224 287s91 287 224 287c64 0 114 -20 150 -60c14 -18 26 -15 27 7l7 229c0 15 9 24 25 24zM332 149
c52 0 89 6 112 31l-194 -4c-17 0 -26 10 -23 26l6 37c2 15 11 22 26 22l214 4h2c0 8 1 16 1 25c-3 132 -46 205 -142 205c-91 0 -148 -74 -152 -197c0 -11 0 -19 2 -30c17 -84 58 -119 148 -119zM259 -102l214 4c17 1 25 -9 22 -26l-5 -36c-3 -15 -11 -23 -26 -23l-214 -4
c-17 0 -26 10 -23 26l6 37c2 15 11 22 26 22z" />
    <glyph glyph-name="ecaron" unicode="&#x11b;" 
d="M350 616h34c13 0 22 5 30 16l90 139c11 16 4 29 -15 29h-15c-14 0 -22 -5 -30 -15l-60 -81c-10 -15 -24 -15 -34 0l-59 81c-8 10 -17 15 -30 15h-14c-20 0 -27 -13 -17 -29l91 -139c7 -11 16 -16 29 -16zM617 310v9c-12 157 -87 235 -233 241c-165 0 -262 -123 -269 -303
c0 -173 106 -265 280 -271c63 0 125 12 184 30c13 4 19 14 18 28l-1 73c0 18 -11 23 -28 18c-55 -16 -111 -16 -170 -16c-111 6 -178 17 -188 141c-1 16 8 25 24 25h359c15 0 24 9 24 25zM511 359l-266 -1c-17 0 -27 10 -23 26c14 58 75 129 162 129c76 0 128 -73 148 -127
c6 -16 -4 -27 -21 -27z" />
    <glyph glyph-name="uni0229" unicode="&#x229;" 
d="M384 560c146 -6 221 -84 233 -241v-9c0 -16 -9 -25 -24 -25h-359c-16 0 -25 -9 -24 -25c10 -124 77 -135 188 -141c59 0 115 0 170 16c17 5 28 0 28 -18l1 -73c1 -14 -5 -24 -18 -28c-49 -15 -101 -26 -153 -29l1 -1c28 -34 41 -64 41 -91c0 -58 -39 -88 -116 -88
c-22 0 -44 2 -65 6c-14 4 -21 13 -21 28v13c0 18 10 23 27 19c15 -4 30 -6 49 -6c38 0 58 16 58 46c0 14 -7 33 -23 57c-4 7 -6 13 -6 17c-160 14 -256 105 -256 270c7 180 104 303 269 303zM245 358l266 1c17 0 27 11 21 27c-20 54 -72 127 -148 127
c-87 0 -148 -71 -162 -129c-4 -16 6 -26 23 -26z" />
    <glyph glyph-name="ecircumflexacute" unicode="&#x1ebf;" 
d="M468 985l-118 -160c-13 -16 -6 -29 14 -29h28c13 0 22 3 30 13l140 161c13 15 7 30 -14 30h-50c-13 0 -22 -5 -30 -15zM279 599l71 96c10 15 24 15 34 0l71 -96h68l-120 184h-72l-120 -184h68zM617 310v9c-12 157 -87 235 -233 241c-165 0 -262 -123 -269 -303
c0 -173 106 -265 280 -271c63 0 125 12 184 30c13 4 19 14 18 28l-1 73c0 18 -11 23 -28 18c-55 -16 -111 -16 -170 -16c-111 6 -178 17 -188 141c-1 16 8 25 24 25h359c15 0 24 9 24 25zM511 359l-266 -1c-17 0 -27 10 -23 26c14 58 75 129 162 129c76 0 128 -73 148 -127
c6 -16 -4 -27 -21 -27z" />
    <glyph glyph-name="ecircumflexdotbelow" unicode="&#x1ec7;" 
d="M278 599l71 96c10 15 24 15 34 0l71 -96h68l-120 184h-72l-120 -184h68zM617 310v9c-12 157 -87 235 -233 241c-165 0 -262 -123 -269 -303c0 -173 106 -265 280 -271c63 0 125 12 184 30c13 4 19 14 18 28l-1 73c0 18 -11 23 -28 18c-55 -16 -111 -16 -170 -16
c-111 6 -178 17 -188 141c-1 16 8 25 24 25h359c15 0 24 9 24 25zM511 359l-266 -1c-17 0 -27 10 -23 26c14 58 75 129 162 129c76 0 128 -73 148 -127c6 -16 -4 -27 -21 -27zM305 -119v-59c0 -16 9 -25 25 -25h51c16 0 25 9 25 25v59c0 16 -9 24 -25 24h-51
c-16 0 -25 -8 -25 -24z" />
    <glyph glyph-name="ecircumflexgrave" unicode="&#x1ec1;" 
d="M283 988h-44c-19 0 -27 -12 -17 -29l75 -137c6 -11 15 -17 29 -17h76c21 0 27 13 15 30l-104 138c-8 10 -17 15 -30 15zM279 599l71 96c10 15 24 15 34 0l71 -96h68l-120 184h-72l-120 -184h68zM617 310v9c-12 157 -87 235 -233 241c-165 0 -262 -123 -269 -303
c0 -173 106 -265 280 -271c63 0 125 12 184 30c13 4 19 14 18 28l-1 73c0 18 -11 23 -28 18c-55 -16 -111 -16 -170 -16c-111 6 -178 17 -188 141c-1 16 8 25 24 25h359c15 0 24 9 24 25zM511 359l-266 -1c-17 0 -27 10 -23 26c14 58 75 129 162 129c76 0 128 -73 148 -127
c6 -16 -4 -27 -21 -27z" />
    <glyph glyph-name="ecircumflexhookabove" unicode="&#x1ec3;" 
d="M278 680l71 96c10 15 24 15 34 0l71 -96h68l-120 184h-72l-120 -184h68zM315 681v-21c16 8 31 13 45 13c23 0 32 -8 32 -14s-4 -12 -11 -17l-11 -9c-8 -6 -13 -10 -15 -15c-3 -4 -4 -10 -4 -16v-3h28s3 13 6 16c2 1 3 3 5 4l11 7c14 11 21 21 21 31s-5 19 -15 26
c-10 6 -24 10 -40 10c-17 0 -34 -4 -52 -12zM617 310v9c-12 157 -87 235 -233 241c-165 0 -262 -123 -269 -303c0 -173 106 -265 280 -271c63 0 125 12 184 30c13 4 19 14 18 28l-1 73c0 18 -11 23 -28 18c-55 -16 -111 -16 -170 -16c-111 6 -178 17 -188 141
c-1 16 8 25 24 25h359c15 0 24 9 24 25zM511 359l-266 -1c-17 0 -27 10 -23 26c14 58 75 129 162 129c76 0 128 -73 148 -127c6 -16 -4 -27 -21 -27z" />
    <glyph glyph-name="ecircumflextilde" unicode="&#x1ec5;" 
d="M337 843l28 -27c24 -22 43 -30 68 -30c53 0 87 40 94 112c1 17 -7 26 -24 26h-12c-15 0 -23 -8 -25 -24c-2 -15 -5 -26 -8 -34c-6 -12 -16 -18 -28 -18c-8 0 -19 6 -33 19l-28 27c-24 22 -43 30 -68 30c-53 0 -86 -40 -93 -112c-2 -17 7 -26 23 -26h12c16 0 24 8 26 24
c1 15 4 26 8 34c6 12 15 18 27 18c9 0 19 -6 33 -19zM279 599l71 96c10 15 24 15 34 0l71 -96h68l-120 184h-72l-120 -184h68zM617 310v9c-12 157 -87 235 -233 241c-165 0 -262 -123 -269 -303c0 -173 106 -265 280 -271c63 0 125 12 184 30c13 4 19 14 18 28l-1 73
c0 18 -11 23 -28 18c-55 -16 -111 -16 -170 -16c-111 6 -178 17 -188 141c-1 16 8 25 24 25h359c15 0 24 9 24 25zM511 359l-266 -1c-17 0 -27 10 -23 26c14 58 75 129 162 129c76 0 128 -73 148 -127c6 -16 -4 -27 -21 -27z" />
    <glyph glyph-name="edotaccent" unicode="&#x117;" 
d="M317 733v-50c0 -16 9 -25 25 -25h51c16 0 24 9 24 25v50c0 17 -8 25 -24 25h-51c-16 0 -25 -8 -25 -25zM617 310v9c-12 157 -87 235 -233 241c-165 0 -262 -123 -269 -303c0 -173 106 -265 280 -271c63 0 125 12 184 30c13 4 19 14 18 28l-1 73c0 18 -11 23 -28 18
c-55 -16 -111 -16 -170 -16c-111 6 -178 17 -188 141c-1 16 8 25 24 25h359c15 0 24 9 24 25zM511 359l-266 -1c-17 0 -27 10 -23 26c14 58 75 129 162 129c76 0 128 -73 148 -127c6 -16 -4 -27 -21 -27z" />
    <glyph glyph-name="edotbelow" unicode="&#x1eb9;" 
d="M617 310v9c-12 157 -87 235 -233 241c-165 0 -262 -123 -269 -303c0 -173 106 -265 280 -271c63 0 125 12 184 30c13 4 19 14 18 28l-1 73c0 18 -11 23 -28 18c-55 -16 -111 -16 -170 -16c-111 6 -178 17 -188 141c-1 16 8 25 24 25h359c15 0 24 9 24 25zM511 359
l-266 -1c-17 0 -27 10 -23 26c14 58 75 129 162 129c76 0 128 -73 148 -127c6 -16 -4 -27 -21 -27zM305 -100v-59c0 -16 9 -25 25 -25h51c16 0 25 9 25 25v59c0 16 -9 24 -25 24h-51c-16 0 -25 -8 -25 -24z" />
    <glyph glyph-name="ehookabove" unicode="&#x1ebb;" 
d="M327 664v-21c16 8 31 13 45 13c23 0 32 -8 32 -14s-4 -12 -11 -17l-11 -9c-8 -6 -13 -10 -15 -15c-3 -4 -4 -10 -4 -16v-3h28s3 13 6 16c2 1 3 3 5 4l11 7c14 11 21 21 21 31s-5 19 -15 26c-10 6 -24 10 -40 10c-17 0 -34 -4 -52 -12zM617 310v9
c-12 157 -87 235 -233 241c-165 0 -262 -123 -269 -303c0 -173 106 -265 280 -271c63 0 125 12 184 30c13 4 19 14 18 28l-1 73c0 18 -11 23 -28 18c-55 -16 -111 -16 -170 -16c-111 6 -178 17 -188 141c-1 16 8 25 24 25h359c15 0 24 9 24 25zM511 359l-266 -1
c-17 0 -27 10 -23 26c14 58 75 129 162 129c76 0 128 -73 148 -127c6 -16 -4 -27 -21 -27z" />
    <glyph glyph-name="emacron" unicode="&#x113;" 
d="M221 862v-24c0 -15 9 -24 25 -24h243c16 0 24 9 24 24v24c0 16 -8 24 -24 24h-243c-16 0 -25 -8 -25 -24zM617 310v9c-12 157 -87 235 -233 241c-165 0 -262 -123 -269 -303c0 -173 106 -265 280 -271c63 0 125 12 184 30c13 4 19 14 18 28l-1 73c0 18 -11 23 -28 18
c-55 -16 -111 -16 -170 -16c-111 6 -178 17 -188 141c-1 16 8 25 24 25h359c15 0 24 9 24 25zM511 359l-266 -1c-17 0 -27 10 -23 26c14 58 75 129 162 129c76 0 128 -73 148 -127c6 -16 -4 -27 -21 -27z" />
    <glyph glyph-name="eogonek" unicode="&#x119;" 
d="M384 560c146 -6 221 -84 233 -241v-9c0 -16 -9 -25 -24 -25h-359c-16 0 -25 -9 -24 -25c10 -124 77 -135 188 -141c59 0 115 0 170 16c17 5 28 0 28 -18l1 -73c1 -14 -5 -24 -18 -28c-55 -17 -113 -28 -172 -30c-15 -24 -23 -43 -23 -58c0 -30 18 -45 53 -45
c12 0 23 2 34 5c17 4 28 -1 28 -19v-14c0 -15 -7 -24 -22 -27c-16 -3 -31 -5 -45 -5c-79 0 -116 27 -116 88c0 24 11 50 32 79c-146 20 -233 110 -233 267c7 180 104 303 269 303zM245 358l266 1c17 0 27 11 21 27c-20 54 -72 127 -148 127c-87 0 -148 -71 -162 -129
c-4 -16 6 -26 23 -26z" />
    <glyph glyph-name="etilde" unicode="&#x1ebd;" 
d="M337 843l28 -27c24 -22 43 -30 68 -30c53 0 87 40 94 112c1 17 -7 26 -24 26h-12c-15 0 -23 -8 -25 -24c-2 -15 -5 -26 -8 -34c-6 -12 -16 -18 -28 -18c-8 0 -19 6 -33 19l-28 27c-24 22 -43 30 -68 30c-53 0 -86 -40 -93 -112c-2 -17 7 -26 23 -26h12c16 0 24 8 26 24
c1 15 4 26 8 34c6 12 15 18 27 18c9 0 19 -6 33 -19zM617 310v9c-12 157 -87 235 -233 241c-165 0 -262 -123 -269 -303c0 -173 106 -265 280 -271c63 0 125 12 184 30c13 4 19 14 18 28l-1 73c0 18 -11 23 -28 18c-55 -16 -111 -16 -170 -16c-111 6 -178 17 -188 141
c-1 16 8 25 24 25h359c15 0 24 9 24 25zM511 359l-266 -1c-17 0 -27 10 -23 26c14 58 75 129 162 129c76 0 128 -73 148 -127c6 -16 -4 -27 -21 -27z" />
    <glyph glyph-name="gcaron" unicode="&#x1e7;" 
d="M360 616h34c13 0 22 5 30 16l90 139c11 16 4 29 -15 29h-15c-14 0 -22 -5 -30 -15l-60 -81c-10 -15 -24 -15 -34 0l-59 81c-8 10 -17 15 -30 15h-14c-20 0 -27 -13 -17 -29l91 -139c7 -11 16 -16 29 -16zM601 68l14 454c0 16 -8 25 -24 25h-42c-15 0 -24 -7 -26 -21
l-2 -21c-2 -22 -15 -24 -29 -7c-36 42 -86 62 -151 62c-134 0 -224 -111 -224 -280s90 -280 224 -280c61 0 110 21 143 51c29 26 21 -3 15 -41c-23 -153 -75 -218 -169 -218c-43 0 -85 8 -128 27c-17 8 -29 1 -29 -17v-108c0 -14 7 -23 20 -27c47 -15 96 -22 151 -22
c171 0 247 78 257 423zM477 285c0 -129 -63 -139 -160 -139c-96 0 -133 10 -146 139c0 131 57 205 153 205c97 0 153 -74 153 -205z" />
    <glyph glyph-name="gcommaaccent" unicode="&#x123;" 
d="M549 547h42c16 0 24 -9 24 -25l-14 -454c-9 -302 -68 -399 -197 -419c0 -10 -3 -19 -10 -28l-89 -127c-7 -11 -17 -16 -29 -16h-15c-18 0 -26 11 -21 28l37 114c3 10 4 18 4 28c-31 4 -60 10 -88 19c-13 4 -20 13 -20 27v108c0 18 12 25 29 17c43 -19 85 -27 128 -27
c94 0 146 65 169 218c6 38 14 67 -15 41c-33 -30 -82 -51 -143 -51c-134 0 -224 111 -224 280s90 280 224 280c65 0 115 -20 151 -62c14 -17 27 -15 29 7l2 21c2 14 11 21 26 21zM317 146c97 0 160 10 160 139c0 131 -56 205 -153 205c-96 0 -153 -74 -153 -205
c13 -129 50 -139 146 -139z" />
    <glyph glyph-name="gdotaccent" unicode="&#x121;" 
d="M327 733v-50c0 -16 9 -25 25 -25h51c16 0 24 9 24 25v50c0 17 -8 25 -24 25h-51c-16 0 -25 -8 -25 -25zM601 68l14 454c0 16 -8 25 -24 25h-42c-15 0 -24 -7 -26 -21l-2 -21c-2 -22 -15 -24 -29 -7c-36 42 -86 62 -151 62c-134 0 -224 -111 -224 -280s90 -280 224 -280
c61 0 110 21 143 51c29 26 21 -3 15 -41c-23 -153 -75 -218 -169 -218c-43 0 -85 8 -128 27c-17 8 -29 1 -29 -17v-108c0 -14 7 -23 20 -27c47 -15 96 -22 151 -22c171 0 247 78 257 423zM477 285c0 -129 -63 -139 -160 -139c-96 0 -133 10 -146 139c0 131 57 205 153 205
c97 0 153 -74 153 -205z" />
    <glyph glyph-name="hbar" unicode="&#x127;" 
d="M653 330l9 -305c1 -16 -8 -25 -24 -25h-64c-16 0 -25 9 -24 25l14 302c5 125 -41 165 -121 165c-98 0 -157 -76 -157 -183l9 -284c0 -16 -8 -25 -24 -25h-80c-16 0 -25 9 -24 25l28 595h-125l14 60h114l7 156c1 16 9 24 25 24h41c16 0 25 -9 24 -25l-4 -155h113l10 -60
h-124l-3 -113c0 -22 11 -26 27 -9c39 42 88 62 149 62c125 0 190 -79 190 -230z" />
    <glyph glyph-name="hdotbelow" unicode="&#x1e25;" 
d="M614 25l-9 305c0 151 -65 230 -190 230c-61 0 -110 -20 -149 -62c-16 -17 -27 -13 -27 9l8 328c1 16 -8 25 -24 25h-41c-16 0 -24 -8 -25 -24l-38 -811c-1 -16 8 -25 24 -25h80c16 0 24 9 24 25l-9 284c0 107 59 183 157 183c80 0 126 -40 121 -165l-14 -302
c-1 -16 8 -25 24 -25h64c16 0 25 9 24 25zM324 -62v-59c0 -16 9 -25 25 -25h51c16 0 25 9 25 25v59c0 16 -9 24 -25 24h-51c-16 0 -25 -8 -25 -24z" />
    <glyph glyph-name="icaron" unicode="&#x1d0;" 
d="M336 616h34c13 0 22 5 30 16l90 139c11 16 4 29 -15 29h-15c-14 0 -22 -5 -30 -15l-60 -81c-10 -15 -24 -15 -34 0l-59 81c-8 10 -17 15 -30 15h-14c-20 0 -27 -13 -17 -29l91 -139c7 -11 16 -16 29 -16zM311 25c-1 -16 7 -25 24 -25h63c17 0 25 9 23 26
c-17 180 -22 346 -18 496c1 16 -7 25 -24 25h-30c-16 0 -25 -8 -25 -22c2 -158 -1 -325 -13 -500z" />
    <glyph glyph-name="idieresisacute" unicode="&#x1e2f;" 
d="M454 985l-118 -160c-13 -16 -6 -29 14 -29h28c13 0 22 3 30 13l140 161c13 15 7 30 -14 30h-50c-13 0 -22 -5 -30 -15zM197 741v-57c0 -16 9 -25 24 -25h58c16 0 24 9 24 25v57c0 16 -8 24 -24 24h-58c-16 0 -24 -8 -24 -24zM402 741v-57c0 -16 8 -25 24 -25h58
c16 0 24 9 24 25v57c0 16 -8 24 -24 24h-58c-16 0 -24 -8 -24 -24zM311 25c-1 -16 7 -25 24 -25h63c17 0 25 9 23 26c-17 180 -22 346 -18 496c1 16 -7 25 -24 25h-30c-16 0 -25 -8 -25 -22c2 -158 -1 -325 -13 -500z" />
    <glyph glyph-name="idotbelow" unicode="&#x1ecb;" 
d="M318 741l-3 -65c0 -16 8 -25 24 -25h50c16 0 25 9 24 25l-3 65c0 15 -9 24 -25 24h-42c-15 0 -24 -9 -25 -24zM269 20c-4 -17 7 -25 24 -25h133c16 0 30 9 23 26c-47 116 -43 322 -18 496c3 16 -8 25 -24 25h-82c-16 0 -30 -9 -25 -22c71 -204 29 -265 -31 -500zM305 -62
v-59c0 -16 9 -25 25 -25h51c16 0 25 9 25 25v59c0 16 -9 24 -25 24h-51c-16 0 -25 -8 -25 -24z" />
    <glyph glyph-name="ihookabove" unicode="&#x1ec9;" 
d="M295 665v-21c16 8 31 13 45 13c23 0 32 -8 32 -14s-4 -12 -11 -17l-11 -9c-8 -6 -13 -10 -15 -15c-3 -4 -4 -10 -4 -16v-3h28s3 13 6 16c2 1 3 3 5 4l11 7c14 11 21 21 21 31s-5 19 -15 26c-10 6 -24 10 -40 10c-17 0 -34 -4 -52 -12zM311 25c-1 -16 7 -25 24 -25h63
c17 0 25 9 23 26c-17 180 -22 346 -18 496c1 16 -7 25 -24 25h-30c-16 0 -25 -8 -25 -22c2 -158 -1 -325 -13 -500z" />
    <glyph glyph-name="ij" unicode="&#x133;" horiz-adv-x="1464" 
d="M318 741l-3 -65c0 -16 8 -25 24 -25h50c16 0 25 9 24 25l-3 65c0 15 -9 24 -25 24h-42c-15 0 -24 -9 -25 -24zM1063 736l-3 -65c-1 -16 7 -25 24 -25h40c16 0 24 9 24 25l-3 65c-1 15 -10 24 -25 24h-33c-15 0 -24 -9 -24 -24zM1038 521l-7 -475
c-2 -179 -101 -217 -169 -223h-14c-16 1 -25 -8 -25 -24l-2 -125c0 -16 8 -24 24 -25h25c117 4 240 139 250 279l43 591c1 15 -8 24 -23 24l-77 2c-16 0 -25 -8 -25 -24zM269 20c-4 -17 7 -25 24 -25h133c16 0 30 9 23 26c-47 116 -43 322 -18 496c3 16 -8 25 -24 25h-82
c-16 0 -30 -9 -25 -22c71 -204 29 -265 -31 -500z" />
    <glyph glyph-name="imacron" unicode="&#x12b;" 
d="M207 862v-24c0 -15 9 -24 25 -24h243c16 0 24 9 24 24v24c0 16 -8 24 -24 24h-243c-16 0 -25 -8 -25 -24zM311 25c-1 -16 7 -25 24 -25h63c17 0 25 9 23 26c-17 180 -22 346 -18 496c1 16 -7 25 -24 25h-30c-16 0 -25 -8 -25 -22c2 -158 -1 -325 -13 -500z" />
    <glyph glyph-name="iogonek" unicode="&#x12f;" 
d="M379 658h-51c-16 0 -25 9 -25 25v50c0 17 9 25 25 25h51c16 0 24 -8 24 -25v-50c0 -16 -8 -25 -24 -25zM444 -113c17 4 28 -1 28 -19v-14c0 -15 -7 -24 -22 -27c-16 -3 -31 -5 -45 -5c-79 0 -116 27 -116 88c0 27 14 57 40 90c-13 2 -19 11 -18 25c12 175 15 342 13 500
c0 14 9 22 25 22h30c17 0 25 -9 24 -25c-4 -150 1 -316 18 -496c2 -17 -6 -26 -23 -26h-13c0 -4 -2 -9 -5 -15c-15 -24 -23 -43 -23 -58c0 -30 18 -45 53 -45c12 0 23 2 34 5z" />
    <glyph glyph-name="itilde" unicode="&#x129;" 
d="M323 843l28 -27c24 -22 43 -30 68 -30c53 0 87 40 94 112c1 17 -7 26 -24 26h-12c-15 0 -23 -8 -25 -24c-2 -15 -5 -26 -8 -34c-6 -12 -16 -18 -28 -18c-8 0 -19 6 -33 19l-28 27c-24 22 -43 30 -68 30c-53 0 -86 -40 -93 -112c-2 -17 7 -26 23 -26h12c16 0 24 8 26 24
c1 15 4 26 8 34c6 12 15 18 27 18c9 0 19 -6 33 -19zM311 25c-1 -16 7 -25 24 -25h63c17 0 25 9 23 26c-17 180 -22 346 -18 496c1 16 -7 25 -24 25h-30c-16 0 -25 -8 -25 -22c2 -158 -1 -325 -13 -500z" />
    <glyph glyph-name="kcommaaccent" unicode="&#x137;" 
d="M146 736l-19 -711c0 -16 9 -25 25 -25h70c16 0 24 9 23 25l-10 182c-2 23 15 29 29 11l166 -204c8 -10 17 -14 29 -14h124c23 0 29 15 13 30l-254 245c-11 11 -12 22 -3 34l168 208c14 16 7 30 -14 30h-58c-13 0 -21 -4 -30 -14l-143 -167c-14 -17 -30 -12 -30 11l4 358
c1 16 -8 25 -24 25h-42c-15 0 -24 -9 -24 -24zM273 -53v-64c0 -11 -1 -19 -4 -30l-37 -114c-5 -17 3 -28 21 -28h15c12 0 22 5 29 16l89 127c7 10 10 19 10 30v63c0 16 -9 24 -25 24h-73c-17 0 -25 -8 -25 -24z" />
    <glyph glyph-name="lacute" unicode="&#x13a;" 
d="M356 1147l-118 -160c-13 -16 -6 -29 14 -29h28c13 0 22 3 30 13l140 161c13 15 7 30 -14 30h-50c-13 0 -22 -5 -30 -15zM203 25c1 -16 8 -25 24 -25h231c16 0 25 9 25 24v62c0 17 -8 25 -25 25h-104c-16 0 -21 9 -24 25c-33 169 -23 330 -23 577c0 16 -7 25 -23 25h-75
c-15 0 -27 -8 -25 -24c46 -292 -3 -439 19 -689z" />
    <glyph glyph-name="lcaron" unicode="&#x13e;" 
d="M438 879v-51c0 -11 -1 -19 -4 -30l-37 -146c-5 -17 4 -28 21 -28h28c14 0 23 6 29 18l81 157c5 10 7 18 7 30v50c0 16 -8 24 -24 24h-76c-17 0 -25 -8 -25 -24zM203 25c1 -16 8 -25 24 -25h231c16 0 25 9 25 24v62c0 17 -8 25 -25 25h-104c-16 0 -21 9 -24 25
c-33 169 -23 330 -23 577c0 16 -7 25 -23 25h-75c-15 0 -27 -8 -25 -24c46 -292 -3 -439 19 -689z" />
    <glyph glyph-name="lcircumflexbelow" unicode="&#x1e3d;" 
d="M203 25c1 -16 8 -25 24 -25h231c16 0 25 9 25 24v62c0 17 -8 25 -25 25h-104c-16 0 -21 9 -24 25c-33 169 -23 330 -23 577c0 16 -7 25 -23 25h-75c-15 0 -27 -8 -25 -24c46 -292 -3 -439 19 -689zM246 -281l71 96c10 15 24 15 34 0l71 -96h68l-120 184h-72l-120 -184h68
z" />
    </font>
</defs>
</svg>
