<?xml version="1.0" standalone="no"?>
<!DOCTYPE svg PUBLIC "-//W3C//DTD SVG 20010904//EN"
 "http://www.w3.org/TR/2001/REC-SVG-20010904/DTD/svg10.dtd">
<svg version="1.0" xmlns="http://www.w3.org/2000/svg"
 width="67.000000pt" height="88.000000pt" viewBox="0 0 67.000000 88.000000"
 preserveAspectRatio="xMidYMid meet">
<metadata>
Created by potrace 1.15, written by Peter Selinger 2001-2017
</metadata>
<g transform="translate(0.000000,88.000000) scale(0.100000,-0.100000)"
fill="#000000" stroke="none">
<path d="M205 741 l-80 -16 -3 -58 c-3 -56 -2 -57 20 -52 73 16 114 25 126 25
9 0 12 -48 12 -205 l0 -205 -75 0 -76 0 3 -77 3 -78 203 -3 202 -2 0 80 0 80
-70 0 -70 0 0 265 0 265 -57 -1 c-32 -1 -94 -9 -138 -18z"/>
</g>
</svg>
