<?xml version="1.0" standalone="no"?>
<!DOCTYPE svg PUBLIC "-//W3C//DTD SVG 20010904//EN"
 "http://www.w3.org/TR/2001/REC-SVG-20010904/DTD/svg10.dtd">
<svg version="1.0" xmlns="http://www.w3.org/2000/svg"
 width="62.000000pt" height="83.000000pt" viewBox="0 0 62.000000 83.000000"
 preserveAspectRatio="xMidYMid meet">
<metadata>
Created by potrace 1.15, written by Peter Selinger 2001-2017
</metadata>
<g transform="translate(0.000000,83.000000) scale(0.100000,-0.100000)"
fill="#000000" stroke="none">
<path d="M192 770 c-40 -11 -77 -22 -82 -25 -16 -10 -13 -128 3 -122 105 46
138 57 185 57 46 0 58 -4 83 -29 39 -40 39 -91 0 -152 -29 -46 -61 -76 -206
-191 l-80 -63 -3 -78 -3 -77 226 0 225 0 0 80 0 80 -105 0 c-58 0 -105 4 -105
9 0 5 31 44 70 87 100 113 124 156 128 229 7 106 -50 180 -158 204 -62 14 -94
13 -178 -9z"/>
</g>
</svg>
