<?xml version="1.0" standalone="no"?>
<!DOCTYPE svg PUBLIC "-//W3C//DTD SVG 20010904//EN"
 "http://www.w3.org/TR/2001/REC-SVG-20010904/DTD/svg10.dtd">
<svg version="1.0" xmlns="http://www.w3.org/2000/svg"
 width="62.000000pt" height="84.000000pt" viewBox="0 0 62.000000 84.000000"
 preserveAspectRatio="xMidYMid meet">
<metadata>
Created by potrace 1.15, written by Peter Selinger 2001-2017
</metadata>
<g transform="translate(0.000000,84.000000) scale(0.100000,-0.100000)"
fill="#000000" stroke="none">
<path d="M232 771 c-54 -19 -86 -42 -104 -76 -35 -64 -24 -158 22 -202 l29
-27 -43 -37 c-114 -100 -69 -277 83 -328 49 -16 160 -14 214 5 146 50 183 259
60 335 l-33 21 29 28 c93 94 38 260 -97 289 -71 15 -97 14 -160 -8z m173 -86
c17 -16 25 -35 25 -60 0 -56 -35 -85 -103 -85 -40 0 -59 5 -75 20 -29 27 -37
64 -22 99 15 36 42 49 103 50 38 1 53 -4 72 -24z m7 -304 c44 -49 35 -107 -22
-136 -59 -31 -155 -11 -181 36 -22 42 10 112 61 132 8 4 37 5 64 3 41 -3 55
-9 78 -35z"/>
</g>
</svg>
