<?xml version="1.0" standalone="no"?>
<!DOCTYPE svg PUBLIC "-//W3C//DTD SVG 1.1//EN" "http://www.w3.org/Graphics/SVG/1.1/DTD/svg11.dtd" >
<svg xmlns="http://www.w3.org/2000/svg" xmlns:xlink="http://www.w3.org/1999/xlink" version="1.1">
<metadata>
Created by FontForge 20190801 at Tue Nov  4 22:33:40 2014
 By root
Original Fonts are (c) Bitstream. OpenDyslexic changes and additional glyphs by Abelardo Gonzalez are licensed under a Creative Commons Attribution 3.0 Unported License.
Based on a work at http://dyslexicfonts.com. 2012 by Abelardo Gonzalez. Copying is an act of love. Please copy.
Bitstream license available here: http://opendyslexic.org/legal/
</metadata>
<defs>
<font id="OpenDyslexicAlta-BoldItalic" horiz-adv-x="1605" >
  <font-face 
    font-family="OpenDyslexicAlta"
    font-weight="700"
    font-style="italic"
    font-stretch="normal"
    units-per-em="1000"
    panose-1="0 0 8 0 0 0 0 0 0 0"
    ascent="800"
    descent="-200"
    x-height="1109"
    cap-height="1487"
    bbox="-174 -1080 2574 2404"
    underline-thickness="50"
    underline-position="-263"
    slope="-12"
    unicode-range="U+0020-FB02"
  />
<missing-glyph horiz-adv-x="1544" 
d="M833 1399q249 0 526 40q-149 -924 -156 -1785q-252 36 -506 36q-253 0 -488 -33l-23 23q135 846 152 1759q259 -40 495 -40zM1081 -26q37 709 125 1315q-211 -18 -381 -18q-176 0 -361 17q-26 -662 -107 -1314q181 12 366 12q122 0 180 -2q45 -2 178 -10z" />
    <glyph glyph-name="fi" unicode="fi" horiz-adv-x="1484" 
d="M1254 1086l-20 21q-215 -11 -460 -11h-149l2 15q-2 2 0 13q8 124 46 178q18 24 58 36q33 10 70 10l54 13q54 12 122 29q0 2 5 38q7 46 11 89q1 8 2.5 20.5t1.5 16.5l-79 -9q-146 -16 -203 -31q-117 -31 -185 -92q-61 -56 -87 -155q-17 -65 -19 -167q-98 6 -156 10l-6 -73
q0 -10 -1 -17t-1 -20q0 -3 -4 -37q98 -6 157 -6q-56 -567 -121 -935q35 4 61 5q23 1 69 5q66 4 130 6q39 465 61 917q28 -1 76 -1h75h143q47 0 143 2q-57 -494 -78 -926q6 0 26 -1.5t33 -2.5l65 -6q59 -5 122 -13q-3 120 -3 130q-1 22 -1 67q-1 22 -1 63q0 349 41 819z
M1116 1494l-14 -101q-14 -99 -17 -124l102 6q59 2 92 6q5 25 9 60q5 35 9 59q2 21 4 30q3 22 11 68l5 30q-6 0 -20.5 -1.5t-22.5 -2.5q-29 -4 -47 -5q-54 -7 -93 -8z" />
    <glyph glyph-name="fl" unicode="fl" horiz-adv-x="1554" 
d="M804 1501q-94 0 -152 -17q-87 -25 -150 -87q-18 -22 -31 -50q-21 -46 -31 -110q-7 -45 -13 -98q-1 -21 -6 -39l-49 3q-20 1 -50 3l-54 2q-1 -7 -1.5 -23.5t-0.5 -24.5t-0.5 -25t-1.5 -24l-2 -58q60 -4 145 -6q-52 -507 -134 -928q72 7 155 11q13 0 40 2t41 2l73 3
q24 469 34 906q45 -1 133 -1h133l6 74l8 79h-134q-93 0 -136 1v40v31q0 21 -1 30q8 91 40 125q37 33 127 33h53q121 0 248 6q-93 -714 -109 -1329q13 -1 67 -4.5t85 -5.5q108 -10 152 -15v15v19q-1 7 -1 19v15q-2 62 -2 94q0 30 2 62q-3 1 -8.5 1.5t-8.5 0.5q-15 0 -22 1
q-30 2 -39 2h-11q-9 0 -14 1q20 656 130 1286q-245 -22 -510 -22z" />
    <glyph glyph-name=".notdef" horiz-adv-x="1544" 
d="M833 1399q249 0 526 40q-149 -924 -156 -1785q-252 36 -506 36q-253 0 -488 -33l-23 23q135 846 152 1759q259 -40 495 -40zM1081 -26q37 709 125 1315q-211 -18 -381 -18q-176 0 -361 17q-26 -662 -107 -1314q181 12 366 12q122 0 180 -2q45 -2 178 -10z" />
    <glyph glyph-name=".null" horiz-adv-x="0" 
 />
    <glyph glyph-name="nonmarkingreturn" horiz-adv-x="333" 
 />
    <glyph glyph-name="NULL" horiz-adv-x="600" 
 />
    <glyph glyph-name="NULL" horiz-adv-x="600" 
 />
    <glyph glyph-name="space" unicode=" " horiz-adv-x="800" 
 />
    <glyph glyph-name="exclam" unicode="!" horiz-adv-x="722" 
d="M365 1465l-25 -16q-63 -612 -117 -974q85 13 142 13q54 0 133 -13v71v32q0 26 1 40v39v32q1 24 1 72v73q0 7 1.5 23t2.5 25t2.5 25t1.5 23q19 272 44 547q-67 -22 -113 -22q-40 0 -74 10zM246 285l-16 -15q-7 -36 -11 -59q-2 -11 -5.5 -31t-4.5 -28v1l-28 -152
q87 36 143 36t131 -34v22v27q-1 9 -1 28v21q-2 88 -2 132v47q-63 16 -109 16q-48 0 -97 -11z" />
    <glyph glyph-name="quotedbl" unicode="&#x22;" horiz-adv-x="977" 
d="M540 1455l-18 19q-7 1 -20.5 1.5t-20.5 0.5l-46 3q-80 5 -87 6v-58q0 -267 -63 -537q48 5 109 8l59 3q9 0 26 0.5t25 1.5q31 258 36 552zM912 1483l-45 -3q-62 -5 -126 -5q-49 -300 -60 -572q7 -1 24 -1.5t26 -0.5l58 -3q61 -3 109 -8q-7 64 -7 158q0 205 42 412z" />
    <glyph glyph-name="numbersign" unicode="#" horiz-adv-x="1562" 
d="M1220 1046q244 8 287 10q-5 -28 -16 -109l-8 -61l-161 -3q-27 0 -81 -0.5t-81 -1.5q-4 -12 -8 -24.5t-9 -27.5t-8 -23q-21 -63 -46 -143q-13 -40 -24 -76q40 0 60 -1q80 -2 143 -2q31 -1 84 -1l-3 -41q-1 -26 -3 -42l-5 -83l-117 3q-20 0 -59 0.5t-58 1.5q-34 0 -47 1
q-14 1 -48 1q-21 -69 -48 -148q-10 -30 -18 -58q-21 -67 -38 -126q-11 -34 -18 -58q-46 2 -82 2h-94l71 219q7 24 15 45q3 9 13 40q10 33 13 41q7 17 15 44h-123q-36 0 -126 -2q-45 -133 -134 -360v2l-12 -34l-180 -8q87 203 155 399q-21 0 -69.5 -1.5t-74.5 -2.5
q-107 -4 -143 -5l3 22q0 4 1.5 12.5t2.5 13.5l3 26q0 4 0.5 11t1.5 10t1.5 8.5t0.5 8.5q0 4 6 41q0 3 0.5 8t1.5 7l176 2q37 0 147 2q20 60 54 163t44 132q-143 0 -291 5l4 71q4 36 4 96q140 -6 335 -8q33 108 125 388h179l-68 -194q-35 -98 -66 -195h64h60q39 0 60 1h64
q78 214 151 393q9 0 32.5 1.5t37.5 2.5t37 2.5t32 1.5h40q-101 -238 -157 -399zM992 879h-121q-81 0 -125 -1q-1 -3 -2.5 -7t-1.5 -6q-4 -7 -5 -14l-22 -68q-17 -54 -43 -128q-3 -10 -7 -21t-8.5 -25.5t-7.5 -22.5h88q39 0 58 1h57h43q6 18 17 52t15 45l33 97z" />
    <glyph glyph-name="dollar" unicode="$" horiz-adv-x="1275" 
d="M762 1159q-16 -146 -41 -397l-2 -20q84 -15 149 -38q82 -29 134 -75q84 -78 84 -227q0 -74 -35 -146q-37 -76 -95 -122q-110 -78 -282 -92l-2 -96q-2 -58 -2 -85q-1 -14 -1.5 -42.5t-0.5 -42.5l-21 -19q-50 2 -88 2h-47h-42l11 60q11 56 11 58q2 12 5.5 34t6.5 40t6 34
q1 5 4.5 25.5t5.5 32.5q-211 12 -372 78l12 84l5 40q1 13 5 46l6 46l2.5 22.5t1.5 16.5q174 -117 364 -125l19 176l18 174q-180 37 -263 123q-78 83 -78 240q5 80 53 155q50 77 123 116q109 50 245 59l7 55q1 8 5 41q0 7 1.5 21t2.5 22q1 12 3.5 41.5t4.5 43.5h29
q13 -1 29 -1q7 -1 30 -1h29l-24 -220q181 -9 323 -48l-11 -80l-13 -92q-135 71 -315 83zM624 1078l8 73q-109 -14 -170 -63q-73 -59 -73 -152q0 -73 65 -126q57 -47 137 -55q5 42 13 126q9 88 13 126q1 12 7 71zM824 516q-53 42 -129 55q-5 -63 -11 -194l-7 -131
q82 14 144 36q35 11 52 50q12 28 12 71q0 66 -61 113z" />
    <glyph glyph-name="percent" unicode="%" horiz-adv-x="2024" 
d="M1576 1489l-75 -3q-84 -108 -185 -248t-155.5 -219t-175.5 -256q-124 -181 -270 -385q-164 -230 -281 -379h50l67 3q11 0 33.5 0.5t33.5 1.5q168 219 495 695q163 239 280 403q147 206 294 394q-40 -3 -55 -4q-5 0 -16 -0.5t-16 -1.5q-11 -1 -24 -1zM615 1490h-13
q-4 0 -5 1h-6q-145 -2 -224 -98q-50 -62 -70 -148q-17 -69 -17 -159q0 -178 69 -278q35 -57 104 -85q60 -25 135 -25q141 0 237 104q60 66 87 156q25 82 25 171q0 153 -76 245q-91 111 -246 116zM603 1349h10q72 -6 116 -74q39 -61 39 -142q0 -101 -36 -178
q-49 -105 -140 -105q-79 0 -118 75q-31 59 -31 152v12q0 8 1 12v13q0 84 37 154q43 81 122 81zM1526 793q-151 0 -246 -108v1q-56 -59 -87 -155q-25 -79 -25 -173q0 -153 77 -244l-1 1q89 -116 268 -116q68 0 123 22q65 26 103 77l-1 -1q50 59 72 150q17 69 17 160
q0 177 -72 277l1 -1q-74 110 -229 110zM1517 651q72 0 111 -68q32 -56 32 -140q0 -99 -29 -168q-41 -97 -127 -97q-80 0 -126 63q-41 56 -41 141q0 103 38 176q48 93 142 93z" />
    <glyph glyph-name="ampersand" unicode="&#x26;" horiz-adv-x="1725" 
d="M1458 5l-62 6q-24 1 -74 5t-74 5q-14 1 -35.5 2.5t-27.5 1.5l-130 143q-204 -159 -474 -159q-102 0 -189 26q-101 30 -161 94q-101 102 -101 272q0 153 80 286q75 125 205 219q-73 121 -73 225q0 75 29 142q33 75 89 119l-1 -1q59 49 142 72q66 18 154 18q148 0 333 -73
q-26 -43 -47 -76l-26 -41l-21 -35q-179 94 -305 94q-88 0 -148 -48q-65 -52 -65 -137q0 -55 41 -117q22 -35 81 -102v1q137 -146 257 -282l193 -215q47 71 72 157t42 201h44h52q35 0 52 1h44q-6 -30 -12 -63q-21 -107 -28 -136q-7 -31 -15 -64q-33 -123 -114 -237zM591 212
q170 0 314 112q-93 106 -148 170l-148 169l-137 159q-88 -78 -131 -157q-52 -93 -52 -192q0 -127 91 -197q83 -64 211 -64z" />
    <glyph glyph-name="quotesingle" unicode="'" horiz-adv-x="559" 
d="M533 1463l-24 20q-33 -10 -71 -10q-40 0 -89 19q-4 -86 -20 -287q-16 -175 -31 -287q65 15 102 15q34 0 86 -17q14 268 47 547z" />
    <glyph glyph-name="parenleft" unicode="(" horiz-adv-x="816" 
d="M767 1505l-19 32q-88 -16 -139 -16q-169 -200 -274 -396q-122 -225 -156 -443q-9 -112 -9 -226q0 -366 103 -664q107 -2 226 -23q-95 259 -112 462q-9 137 -9 227t5 203v-1q22 210 137 442q91 184 247 403z" />
    <glyph glyph-name="parenright" unicode=")" horiz-adv-x="790" 
d="M467 912q0 -136 -11 -253v1q-34 -215 -154 -452q-100 -197 -268 -434q136 30 257 30q140 212 241 413q129 261 129 635q0 188 -30 348q-32 167 -103 326q-71 4 -159 19l4 -15l-15 2q109 -282 109 -620z" />
    <glyph glyph-name="asterisk" unicode="*" horiz-adv-x="1204" 
d="M1136 1220l8 24q-10 22 -20 50q-18 42 -20 48l-161 -98q-52 -32 -164 -98q8 104 34 346h-132l-15 -198l-12 -148q-18 12 -23 16q-3 2 -23 14q-204 135 -244 163q-15 -18 -22 -30q-8 -11 -9 -14q-3 -5 -3 -7t-3 -7l-7 -10q-1 -3 -4 -7t-5 -7l-9 -15q-2 -3 -4.5 -6.5
t-3.5 -4.5q146 -96 309 -186q-107 -59 -171 -92q-100 -54 -168 -94q1 -2 3.5 -7.5l5 -11t4.5 -11.5l12 -31l21 -50l161 96q16 10 46.5 27.5t36.5 21.5l82 49q-7 -82 -8 -91q0 -7 -2 -21t-2 -21q-1 -13 -5 -48q-12 -114 -15 -164h131q5 93 20 276l6 70q29 -19 80 -53l66 -44
l143 -97l16 24q28 44 38 61l15 24q-53 34 -152 94q-41 24 -155 91l15 9q122 65 309 168z" />
    <glyph glyph-name="plus" unicode="+" horiz-adv-x="1513" 
d="M721 1025l-24 -292q-337 0 -508 4l-16 -185h64h72q49 0 73 1h66q78 0 117 1h116q-6 -86 -17 -190l-9 -98q-4 -45 -9 -88l-14 -145h184q20 306 39 521h254q84 0 254 -2l16 184q-219 -4 -507 -4q22 264 52 522h-185z" />
    <glyph glyph-name="comma" unicode="," horiz-adv-x="618" 
d="M143 258l-20 -18q-7 -113 -13 -189l-23 -60q-32 -79 -55 -134q-9 -21 -19 -44.5t-22 -49.5t-17 -39q2 0 13.5 1.5t19.5 2.5q49 6 82 8q6 0 16.5 0.5t15.5 1.5q52 61 100 124q10 13 44.5 57.5t52.5 68.5l42 59q3 26 16 111q14 95 18 112q-105 -13 -192 -13h-30
q-19 0 -29 1z" />
    <glyph glyph-name="hyphen" unicode="-" horiz-adv-x="861" 
d="M191 655l-18 -23q3 -15 3 -36q0 -48 -43 -121q84 4 282 8q99 2 281 2q-12 41 -12 61q0 46 44 119l-101 -2l-184 -6q-91 -3 -184 -3h-34q-12 0 -17 1h-17z" />
    <glyph glyph-name="period" unicode="." horiz-adv-x="654" 
d="M101 325v-37q0 -131 -31 -280q98 8 162 8q60 0 156 -8v13q-1 5 -1 17v18q-1 5 -1 13q0 129 33 278l-40 -3q-8 0 -23.5 -1t-22.5 -1q-46 -3 -86 -3q-61 0 -124 6z" />
    <glyph glyph-name="slash" unicode="/" horiz-adv-x="836" 
d="M720 1444l-16 -12q-62 -134 -89 -195q-93 -207 -179 -409q-12 -28 -41 -95.5t-44 -102.5q-31 -71 -176 -406q-106 -243 -181 -405q125 19 248 24q105 258 293 748q225 591 345 874q-6 -1 -37 -5l-43 -6q-15 -2 -43 -6q-12 -2 -37 -4z" />
    <glyph glyph-name="zero" unicode="0" horiz-adv-x="1281" 
d="M769 1480h-28q-107 0 -207 -51q-108 -54 -174 -149q-68 -106 -109 -260q-30 -117 -52 -273q-7 -107 -7 -189q0 -225 73 -372q45 -86 137 -132q88 -44 190 -44h31q109 0 207 49q101 51 171 150q71 108 111 261q27 106 49 274q7 100 7 178q0 231 -73 381q-42 86 -135 133
q-88 44 -191 44zM733 1384h24q3 0 5 1h4q79 0 137 -55q57 -57 69 -140q14 -65 14 -151q0 -62 -8 -139q-16 -133 -43 -224q-41 -136 -101 -208q-76 -92 -185 -92h-7q-2 0 -3 1h-3h-10q-59 0 -107.5 29.5t-68.5 82.5q-33 88 -33 228q0 132 13 239q16 134 62 249q25 76 95 128
q69 51 146 51z" />
    <glyph glyph-name="one" unicode="1" horiz-adv-x="1361" 
d="M293 305l-18 -17q-4 -25 -11 -76.5t-9 -62.5q-15 -103 -21 -138q241 27 427 27q200 0 434 -31v56q0 92 6 238q-137 13 -307 18q42 573 106 1139q-8 -1 -27 -1q-40 -2 -62 -2h-27h-46q-32 0 -47 1l-27 -4q-186 -30 -331 -38v-46q-1 -18 -1 -54l-3 -100q210 20 338 44
q-12 -161 -38 -469q-4 -38 -10.5 -116t-9.5 -116l-21 -238q-131 -1 -295 -14z" />
    <glyph glyph-name="two" unicode="2" horiz-adv-x="1404" 
d="M855 561v-1q44 42 65 64l64 63l31 32q92 110 134 198q53 112 53 225q0 148 -98 236q-66 54 -165 80q-84 22 -187 22q-59 0 -131.5 -10.5t-124.5 -22t-136 -32.5q-6 -2 -9.5 -2.5t-9 -2t-9.5 -2.5v-50q-2 -84 -4 -118l-3 -51q242 110 418 110q106 0 172 -50
q75 -57 75 -158q0 -84 -50 -166q-7 -12 -15.5 -24.5t-19 -26.5t-18 -23t-21.5 -25t-20 -22.5t-23 -25t-21 -23.5q-74 -75 -224 -180q-203 -151 -338 -267l-23 -151q-4 -21 -13 -78q-6 -39 -12 -72q255 30 484 30q220 0 462 -30v72q0 53 1 80q1 14 1 40.5t1 39.5q0 28 2 72
q-184 17 -456 19q40 108 168 231z" />
    <glyph glyph-name="three" unicode="3" horiz-adv-x="1334" 
d="M1189 1170q0 119 -71 193q-62 63 -171 93q-88 24 -206 24q-155 0 -403 -41q0 -23 -2 -87q-1 -16 -1 -47q0 -7 -0.5 -20.5t-1.5 -19.5q226 53 381 53q102 0 171 -32q95 -44 95 -144q0 -113 -82 -180q-77 -63 -189 -63h-46q-31 0 -46 1h-26q-19 0 -29 1h-29h-26
q0 -3 -1.5 -23t-2.5 -32q-4 -47 -5 -55l-5 -67h134q83 0 139 -10q70 -14 120 -56q69 -62 69 -143q0 -37 -33 -77q-24 -27 -68 -60q-55 -44 -137 -62q-58 -14 -151 -14q-195 0 -344 83q-8 -64 -10 -78l-12 -86q-12 -87 -25 -165q183 -48 358 -48q141 0 237 19q137 26 233 95
q82 62 122 173q31 90 31 203q0 118 -59 206q-53 79 -157 100q113 40 182 144q67 101 67 222z" />
    <glyph glyph-name="four" unicode="4" horiz-adv-x="1337" 
d="M1154 605h16q-5 -41 -7 -94q-2 -24 -2 -45q0 -8 -0.5 -23.5t-1.5 -21.5q-15 1 -46 2.5t-47 1.5l-93 3q-1 -19 -1 -57v-57q0 -138 5 -290q-68 5 -142 8l-75 3q-25 1 -68 1l20 177q15 145 25 219h-79q-258 0 -524 -11q3 19 9 69q1 8 3.5 32.5t4.5 35.5q372 526 650 890
l16 8q88 2 128 4q93 4 128 5q-55 -386 -88 -857q36 0 102 -2h20h24q8 -1 23 -1zM763 610q45 452 74 697q-128 -173 -252 -347q-196 -275 -250 -353q36 0 107.5 0.5t106.5 1.5q69 1 214 1z" />
    <glyph glyph-name="five" unicode="5" horiz-adv-x="1303" 
d="M364 1474l-22 -19q-1 -158 -13 -364q-13 -224 -26 -365q169 74 317 74q138 0 224 -60q37 -31 56 -80.5t19 -103.5q0 -55 -28 -103q-22 -37 -70 -80q-53 -46 -127 -65q-60 -17 -141 -17q-188 0 -342 82q-9 -60 -23 -162q-7 -54 -26 -163q166 -40 369 -40q129 0 227 22
q122 28 210 96q87 67 130 190q34 98 34 219q0 199 -109 315q-67 68 -164 101q-87 28 -196 28q-59 0 -169 -25q3 30 7 88q1 28 5 84q2 30 4.5 86.5t3.5 83.5q104 -5 234 -5q195 0 365 15l26 167q-222 -20 -388 -20q-195 0 -387 21z" />
    <glyph glyph-name="six" unicode="6" horiz-adv-x="1314" 
d="M1137 1426l10 16q-151 39 -274 39q-137 0 -259 -45q-138 -52 -224 -150q-112 -137 -162 -363q-37 -167 -37 -372q0 -222 74 -359q47 -92 150 -139q93 -43 206 -43q109 0 196 24q106 29 178 96q79 76 117 195q31 97 31 217q0 94 -20 165q-26 84 -76 144l1 -1
q-50 65 -139 100q-77 30 -174 30q-89 0 -172.5 -38t-148.5 -105q19 103 46 177q35 96 92 165q50 63 139 95q71 26 164 26q129 0 273 -59q13 99 27 187zM703 810q124 0 180 -82q52 -70 52 -190v-11q-1 -4 -1 -12v-21q-10 -91 -95 -144q-78 -48 -175 -48q-105 0 -170 34
q-84 43 -84 131q0 66 25 136q26 73 70 123q79 84 198 84z" />
    <glyph glyph-name="seven" unicode="7" horiz-adv-x="1250" 
d="M344 1465v-73q0 -52 -1 -73q224 -27 439 -27q142 0 281 9q-76 -145 -142 -278q-115 -232 -138 -280q-93 -192 -177 -359q-100 -199 -185 -356q40 3 134 7q47 2 132 2h57q39 0 56 -1q60 174 109 326q223 679 368 1027l8 46q3 10 4 26q1 3 1 8.5t1 7.5q1 5 1 10
q-256 -33 -489 -33q-219 0 -436 30z" />
    <glyph glyph-name="eight" unicode="8" horiz-adv-x="1333" 
d="M258 671h1q-59 -59 -90 -149q-26 -75 -26 -165q0 -170 99 -249q68 -55 175 -80q81 -19 197 -19q115 0 199 19q109 25 187 81q78 55 117 159q32 86 32 190q0 123 -72 214q-68 87 -184 122q115 30 188 143q66 104 66 227q0 126 -85 206q-63 51 -153 74q-72 18 -171 18
q-95 0 -175 -19q-93 -22 -164 -74q-63 -53 -95.5 -130.5t-32.5 -160.5q0 -95 48 -174q50 -82 134 -113q-118 -37 -195 -120zM464 1145v2q4 95 88 150q76 50 173 50q98 0 161 -38q75 -48 75 -137q0 -102 -74 -176q-73 -73 -175 -73h-10q-8 0 -11 1q-4 -1 -11 -1h-11
q-82 0 -145 55t-63 136q0 13 3 31zM675 719q126 2 192 -70q60 -61 60 -168q-1 -88 -83 -156q-77 -61 -211 -61q-135 0 -200 60q-57 55 -57 113q0 59 24 114q24 57 67 97q89 71 208 71z" />
    <glyph glyph-name="nine" unicode="9" horiz-adv-x="1313" 
d="M527 8q138 0 256 44q134 50 220 150q110 137 161 357q39 166 39 369q0 227 -79 379q-50 86 -150 132q-89 41 -200 41q-112 0 -197 -24q-103 -29 -178 -98q-79 -71 -116 -190q-30 -98 -30 -216q0 -203 93 -313v1q51 -67 140 -100q77 -30 173 -30q89 0 172 37.5t147 104.5
q-18 -105 -37 -156q-31 -83 -88 -130l2 2q-107 -66 -299 -66q-130 0 -274 62l-9 -73q-1 -13 -5 -39t-5 -39q-10 -75 -23 -152l24 -2l-15 -10q138 -41 278 -41zM688 811q-151 2 -233 35q-39 17 -56 64q-14 39 -14 92q0 70 24 138q26 72 78 118q97 81 239 81q166 0 244 -81
q61 -60 61 -174q0 -78 -18 -132q-27 -82 -86 -104q-91 -37 -239 -37z" />
    <glyph glyph-name="colon" unicode=":" horiz-adv-x="711" 
d="M257 998l-6 -93q-4 -63 -7 -96q76 -17 130 -17q58 0 134 14q3 31 16 154l17 153q-93 -33 -145 -33q-55 0 -106 20l-27 -16zM217 328l-17 -17q-5 -54 -7 -74q-8 -88 -18 -160l-9 -75q89 27 146 27q56 0 131 -28q1 13 4.5 71t5.5 91l6 85q1 33 5 77q-70 12 -128 12
q-49 0 -119 -9z" />
    <glyph glyph-name="semicolon" unicode=";" horiz-adv-x="671" 
d="M257 1056l-3 -49q-1 -9 -2.5 -25.5t-1.5 -23.5l-6 -90q-4 -46 -9 -91q41 -4 85 -4q82 0 165 22q15 160 29 265l2 45q-98 -36 -175 -36q-34 0 -62 4zM249 246h-55q0 -5 -1.5 -23t-2.5 -29l-2.5 -30t-1.5 -21q-2 -15 -4.5 -43t-3.5 -41l-34 -97q-19 -51 -49 -142
q-4 -12 -8 -24.5t-9 -27.5t-8 -23q-5 -13 -23 -68q88 33 164 38q30 50 58 94q34 56 58 94l86 143l6 77q0 5 5 59q1 13 2.5 33t1.5 26q-68 6 -141 6h-19q-6 -1 -19 -1z" />
    <glyph glyph-name="less" unicode="&#x3c;" horiz-adv-x="1578" 
d="M1441 967l13 14q1 4 13 45q28 86 34 103q3 10 8 24.5t6 19.5q-215 -70 -558 -162q-257 -69 -563 -144l-187 -46q-2 -27 -6 -55q-8 -64 -18 -121l-9 -55q199 -103 601 -299q44 -21 135.5 -66t135.5 -66q170 -83 269 -135q0 146 10 256q-235 121 -539 266l-326 159
q332 83 492 125q293 77 489 137z" />
    <glyph glyph-name="equal" unicode="=" horiz-adv-x="1645" 
d="M247 935l-21 -24q14 -62 19 -160q282 -6 581 -6q314 0 619 6q20 91 60 185q-365 -12 -666 -12q-321 0 -592 11zM248 567l-20 -16q-19 -101 -59 -199q195 6 328 8q166 3 327 3q312 0 628 -11q-27 102 -27 215q-233 4 -542 4q-352 0 -635 -4z" />
    <glyph glyph-name="greater" unicode="&#x3e;" horiz-adv-x="1574" 
d="M295 1100l11 -18q120 -63 264 -133q293 -143 431 -209q82 -40 164 -82l-237 -60q-471 -122 -747 -202q-11 -44 -31 -115q-23 -81 -46 -145q251 78 547 158q224 60 549 141l210 53q11 111 35 233q-133 67 -516 255q-100 48 -312 154q-171 84 -311 156q0 -17 -1 -28
q-1 -5 -1 -16.5t-1 -17.5l-4 -64q-2 -20 -2 -30q-1 -5 -1 -15t-1 -15z" />
    <glyph glyph-name="question" unicode="?" horiz-adv-x="1092" 
d="M696 430l3 30q0 20 1 30q6 116 25 167q11 26 25 42l10 14q1 1 7 9t9 13l15 22l10 15l79 81q99 105 133 159q60 95 60 195q0 125 -77 192q-51 45 -130 65q-60 15 -148 15q-196 0 -389 -84q0 -16 -1 -27t-1 -28q0 -16 -1 -27t-1 -34q-1 -20 -4 -61q103 54 180 81
q99 33 173 33q82 0 137 -47q58 -52 58 -132q0 -44 -50 -97q-29 -31 -96 -83l-15 -12l-49 -42q-18 -14 -24 -20q-6 -5 -25 -20q-89 -82 -124 -150q-16 -37 -26.5 -82.5t-13.5 -72.5t-8 -83l-8 -83q127 5 246 5zM431 310l-19 -18q-6 -68 -15 -136q-3 -23 -9 -69.5t-9 -67.5
q136 8 223 8h58q0 10 5 71q1 29 5 70l11 147h-59q-86 0 -191 -5z" />
    <glyph glyph-name="at" unicode="@" horiz-adv-x="1934" 
d="M1199 208l-8 -101q118 0 232 36q119 37 201 108q89 89 139 232q43 123 43 257q0 210 -101 366q-94 142 -259 220q-157 72 -350 72q-184 0 -349 -59q-182 -64 -315 -179q-142 -136 -214 -335q-66 -182 -66 -380q0 -152 40 -278q45 -143 135 -238v1q99 -115 265 -179
q146 -56 324 -56q311 0 574 186l-21 44q-16 34 -23 52q-23 50 -42 97q-208 -147 -469 -149q-149 2 -252 33q-131 39 -208 129l1 -1q-105 128 -147 218v-1q-28 64 -28 158q0 203 84 375q90 187 259 290q190 116 427 116q155 0 287 -60q139 -63 221 -179h-1q76 -121 76 -280
q0 -94 -22 -175q-26 -94 -79 -165q-75 -94 -199 -118q19 295 65 692h-34q-14 -1 -43 -1q-15 -1 -42 -1q-14 -1 -35 -1q0 -4 -1.5 -21.5t-2.5 -28.5q-5 -47 -5 -51v-8q-108 126 -265 126q-176 0 -285 -120q-67 -68 -100 -173q-29 -93 -29 -194q0 -151 76 -253q44 -59 115 -89
t152 -30q153 0 281 121zM727 616q12 119 78 181q69 65 172 65q94 0 154 -54q61 -55 61 -153q0 -139 -80 -219q-61 -64 -171 -64q-98 0 -155 54q-61 58 -61 156q0 12 2 34z" />
    <glyph glyph-name="A" unicode="A" horiz-adv-x="1670" 
d="M945 1455h-197q-41 -84 -210 -447q-95 -207 -157 -337t-158.5 -318t-188.5 -346l69 6q23 1 78 5l77 6q14 1 37.5 2.5t30.5 1.5q9 21 56 116q37 79 52 118q108 3 309 3q203 0 306 -3q22 -114 51 -233q14 -1 68 -4.5t85 -5.5q108 -8 151 -12q-102 243 -195 537
q-58 183 -154 525q-79 282 -110 386zM902 917q17 -69 49 -205q13 -58 49 -205h-107q-44 0 -66 1h-67h-117q-78 0 -118 -1q113 267 181 435l120 297l39 -161q28 -123 37 -161z" />
    <glyph glyph-name="B" unicode="B" horiz-adv-x="1480" 
d="M1217 685q81 -92 81 -213q0 -108 -31 -189q-40 -100 -122 -153q-82 -54 -191 -76q-86 -17 -201 -17q-266 0 -540 -30q131 729 131 1458l22 19q171 -24 439 -29q159 -2 259 -40q85 -33 132 -104q43 -69 43 -152q0 -115 -54 -213q-61 -110 -165 -144q120 -30 197 -117z
M553 1314q-7 -195 -24 -436q86 -2 131 -1h130q123 0 193 46q42 33 68 93q22 51 22 99q0 101 -76 151q-63 41 -168 41q-147 0 -276 7zM1050 448q18 46 18 95q0 42 -59 103v-1q-38 33 -96 48q-49 11 -112 11h-288l-4 -42q-25 -255 -35 -333q192 6 291 6q145 0 224 40l-1 -1
q41 23 62 74z" />
    <glyph glyph-name="C" unicode="C" horiz-adv-x="1529" 
d="M1373 1358l18 10q-160 113 -417 113q-166 0 -295 -40q-159 -49 -266 -152q-113 -118 -171 -317q-47 -162 -47 -341q0 -131 27 -230q31 -118 98 -202q91 -103 237 -149q129 -41 285 -41q257 0 446 118v42q0 46 4 164q5 151 6 165q-97 -87 -213 -136q-108 -46 -218 -46
q-111 0 -193 17q-106 22 -173 76l1 -1q-49 43 -72 118q-19 61 -19 146q0 138 34 258q39 143 132 241h-1q72 73 184 106q90 27 205 27q107 0 210 -44t186 -127q7 57 17 112q2 11 5.5 31t4.5 28q5 33 9 52z" />
    <glyph glyph-name="D" unicode="D" horiz-adv-x="1606" 
d="M1463 1104q27 -93 27 -217q0 -201 -40 -356q-56 -218 -190 -331q-120 -94 -302 -133q-118 -25 -323 -33q-155 -7 -210 -10q-143 -10 -212 -17q132 680 132 1332v63q0 42 -1 63l21 19q174 -21 390 -26q211 -10 320 -34q176 -39 282 -134q73 -73 106 -186zM1281 768
q3 31 3 94q0 181 -83 284q-71 70 -194 104q-89 24 -222 30q-111 0 -222 6q-17 -475 -67 -882q73 3 215 5q10 0 15 1h15q104 2 189 14q100 15 178 59h-1q64 43 110 128q32 59 64 157z" />
    <glyph glyph-name="E" unicode="E" horiz-adv-x="1441" 
d="M367 1484l-23 -19q-6 -732 -129 -1458q272 30 488 30q225 0 472 -30v77q0 56 1 85q2 115 5 161q-235 19 -455 19q-110 0 -252 -5q2 17 5.5 48t4.5 43l10 88q8 74 16 179h307q111 0 172 1h172q0 14 1 25t1 25q6 79 16 134q-274 -6 -431 -6q-70 0 -222 2q2 26 6.5 95
t7.5 105q8 95 12 198q130 -7 264 -7q218 0 441 23q4 29 16 105l14 83q-260 -31 -478 -31q-223 0 -442 30z" />
    <glyph glyph-name="F" unicode="F" horiz-adv-x="1139" 
d="M366 1478l-23 -18q-37 -757 -168 -1454q64 10 268 27q26 273 49 633h156q58 0 87 1h87h96q66 0 95 -1l8 79l3 34q0 6 1.5 18.5t2.5 19.5q1 6 3.5 32.5t4.5 38.5q-200 -5 -379 -5h-89q-20 0 -33 1h-33q6 51 12 99q10 77 22 187q3 31 11 97q57 -3 159 -3q210 0 428 25l2 18
q3 18 5 28q2 9 4.5 27.5t3.5 26.5t3.5 26t4.5 27q2 10 5 28l2 18q-237 -34 -444 -34q-178 0 -354 24z" />
    <glyph glyph-name="G" unicode="G" horiz-adv-x="1620" 
d="M1221 1457q132 -29 235 -95l-9 -53q-3 -15 -6 -36l-6 -44q-2 -13 -4.5 -28t-4.5 -30.5t-3 -21.5q-188 173 -446 173q-115 0 -209 -27q-115 -33 -189 -101q-86 -93 -128 -237q-34 -117 -34 -254q0 -96 16 -156q22 -83 75 -127l-1 1q66 -48 172 -69q79 -15 192 -17
q12 1 37.5 1.5t38.5 0.5q85 0 150 23q31 10 57 34l2 2q0 12 2 35t2 35q0 11 1.5 34t2.5 35q-94 2 -147 2h-146l19 223h260q85 0 132 1h131q-29 -319 -29 -611q-220 -140 -527 -140q-165 0 -291 38q-153 46 -244 148q-64 78 -97 198q-28 101 -28 223q0 193 43 351
q55 206 177 324q104 97 263 146q139 43 291 43q139 0 250 -24zM1154 389l2 2v1z" />
    <glyph glyph-name="H" unicode="H" horiz-adv-x="1612" 
d="M366 1482l-23 -19q-8 -758 -150 -1456l59 6q19 1 66 5q25 2 67.5 5.5t56.5 4.5q31 207 61 476q110 2 155 2h155h153q51 0 153 -2q-15 -223 -17 -476q6 0 26 -1.5t32 -2.5q41 -4 65 -5q88 -8 121 -12q-5 118 -5 233q0 589 115 1245l-32 -3q-6 0 -18 -1.5t-19 -2.5
q-35 -4 -69 -6l-91 -7q-52 -317 -83 -675q-310 -2 -445 -2h-96q-26 0 -37 1h-37q27 302 38 675q-114 5 -201 18z" />
    <glyph glyph-name="I" unicode="I" horiz-adv-x="709" 
d="M367 1467l-26 -16q-74 -778 -159 -1456q86 42 136 42q52 0 122 -41q22 408 49 746q27 363 61 745q-72 -32 -114 -32q-30 0 -69 12z" />
    <glyph glyph-name="J" unicode="J" horiz-adv-x="844" 
d="M561 1453l-19 -17q-50 -345 -171 -1324v1q-12 -80 -93 -128q-62 -36 -158 -51l-100 8q0 -4 -1 -12.5t-2 -17.5t-1 -17l-5 -47q-19 -182 -29 -250l31 3q5 0 17 1.5t18 2.5q40 5 66 5l50 9q94 15 151 34q83 27 140 75q69 69 98 170q17 59 32 188q89 795 188 1392
q-89 -19 -212 -25z" />
    <glyph glyph-name="K" unicode="K" horiz-adv-x="1658" 
d="M365 1479l-22 -19q-14 -717 -169 -1453q90 9 140 13q25 1 73 5q14 1 36 2.5t29 1.5q30 320 44 656q120 -204 196 -327q112 -183 205 -322q235 -5 494 -32q-161 174 -326 358q-38 42 -153.5 171t-172.5 192q-17 21 -29 34t-29 34l243 213q232 203 242 212l302 263l-107 -7
q-57 -5 -182 -11q-68 -59 -94 -81l-94 -82q-239 -204 -478 -418q12 110 27 291q14 194 19 291q-117 6 -194 15z" />
    <glyph glyph-name="L" unicode="L" horiz-adv-x="1378" 
d="M366 1481l-23 -18q-19 -745 -150 -1456q252 30 477 30q211 0 443 -26q5 85 12 160q4 55 15 159q-228 19 -437 19q-107 0 -240 -5q63 500 94 1118q-91 4 -191 19z" />
    <glyph glyph-name="M" unicode="M" horiz-adv-x="1843" 
d="M364 1481l-21 -19q0 -745 -161 -1454q23 2 75 6t62 5q98 6 137 7q82 615 83 1185q82 -276 180 -698l62 -254h67q19 0 28 1h27h27q9 -1 26 -1h67q10 27 32 77q4 9 10.5 25t11.5 28.5l9 22.5v-1q216 530 340 794q-107 -616 -117 -1178q7 0 29 -1.5t35 -2.5q11 0 34.5 -1.5
t35.5 -2.5q9 -1 60 -5t74 -6q-11 170 -11 346q0 525 112 1129q-42 -4 -71 -5l-77 -6q-104 -8 -147 -9q-137 -223 -392 -711l-57 -109q-71 225 -135 412q-66 192 -150 406q-146 6 -285 20z" />
    <glyph glyph-name="N" unicode="N" horiz-adv-x="1579" 
d="M1442 1487q-131 -713 -131 -1344q0 -57 2 -135q-70 8 -150 14q-31 2 -86 5.5t-64 4.5q-120 240 -307 675q-62 147 -102 244q-54 130 -105 241q-4 -563 -60 -1163q-7 0 -29 -1.5t-35 -2.5q-45 -4 -71 -5q-50 -4 -137 -13q149 697 169 1424l22 19q66 -8 186 -16q15 0 25 -1
t25 -1q105 -206 304 -656q7 -15 24.5 -54t25.5 -59q74 -166 92 -203q9 -19 26.5 -57t26.5 -56q45 592 146 1121q36 3 47 4q17 1 55 5q19 1 55 5t46 5z" />
    <glyph glyph-name="O" unicode="O" 
d="M909 1480q-146 0 -268 -42q-140 -48 -233 -150h1q-117 -123 -170 -323q-40 -152 -40 -347q0 -117 26 -220q29 -117 90 -196q75 -98 202 -147q115 -45 252 -45q149 0 273 41q140 46 238 150q114 130 166 322q44 160 44 348q0 124 -24 220q-28 112 -91 196q-73 98 -207 149
q-115 44 -259 44zM897 1305q93 0 173 -37t129 -107v1q75 -122 75 -319q0 -117 -23 -203q-36 -128 -117 -180q-129 -70 -322 -70q-89 0 -162 14q-89 17 -149 55q-48 29 -68 93q-17 50 -17 123q0 133 32 251q38 140 115 232q57 73 152 112q85 35 182 35z" />
    <glyph glyph-name="P" unicode="P" horiz-adv-x="1280" 
d="M1207 1268q27 -67 27 -151q0 -115 -36 -222q-41 -122 -123 -198q-69 -64 -172 -93q-84 -24 -191 -24h-108q-70 0 -109 -1q-39 -303 -82 -549q-15 -1 -59 -4.5t-70 -5.5q-56 -5 -130 -13q149 680 188 1451l22 18q184 -21 421 -21q94 0 167 -12q87 -14 155 -54
q68 -45 100 -121zM1056 1111q3 23 3 43q0 114 -90 164q-67 36 -171 36q-157 0 -236 3q-24 -277 -50 -508q176 -2 263 -2q109 0 192 77q88 81 89 187z" />
    <glyph glyph-name="Q" unicode="Q" horiz-adv-x="1847" 
d="M1382 346q62 113 90 263q23 123 23 263q0 122 -26 218q-31 115 -91 191q-79 97 -219 148q-123 45 -268 45q-139 0 -257 -44q-135 -50 -226 -145q-113 -119 -165 -304q-41 -148 -41 -332q0 -134 27 -237q31 -126 95 -213q73 -99 204 -150q111 -43 258 -43q34 0 63 3
q53 -65 72 -88q35 -41 72 -87h-1l44 -53q232 -6 490 -33l-20 24q-9 10 -27 32l-26 31q-13 15 -21 24q-114 133 -213 259q79 84 163 228zM897 1299q95 0 174 -36q84 -39 130 -109q77 -119 77 -310q0 -137 -39 -234q-47 -120 -157 -175q-107 16 -217 69l-26 -39
q-17 -23 -27 -39l-37 -53q-89 14 -151 32t-119 54q-52 33 -71 97q-17 52 -17 129q0 130 33 243q39 138 113 226q122 145 334 145z" />
    <glyph glyph-name="R" unicode="R" horiz-adv-x="1649" 
d="M1284 216q82 -175 99 -210q-47 5 -150 15q-30 2 -83 5.5t-69 4.5q-67 182 -127 372l1 -2q-57 133 -114 184l1 -1q-61 43 -164 43h-64q-40 0 -64 -1q-26 -271 -73 -598q-35 -1 -129 -9t-130 -12q130 705 130 1395v85q197 -26 452 -31q185 -5 291 -67q72 -49 106 -127
q30 -70 30 -155q0 -127 -52 -235q-63 -128 -175 -172q60 -33 107 -106q25 -41 70 -136l13 -30l-1 1q37 -88 95 -213zM663 840h112q96 0 186 57q99 63 109 148q0 6 1 9v8q2 30 2 44q0 122 -66 168q-83 59 -194 61q-20 1 -58 1t-58 1q-80 2 -119 5q-3 -84 -11 -250
q-6 -132 -16 -251q37 -1 112 -1z" />
    <glyph glyph-name="S" unicode="S" horiz-adv-x="1389" 
d="M1209 1415l6 12q-200 53 -417 53q-115 0 -196 -19q-112 -26 -186 -78q-78 -55 -115 -147q-32 -79 -32 -178q0 -157 78 -242q54 -56 136 -90q68 -28 157 -47l33 -7q133 -26 201 -58q117 -57 117 -145q0 -33 -30 -68q-24 -29 -62 -53q-95 -61 -247 -61q-226 0 -435 121
q-1 -12 -22 -165q-16 -106 -26 -165q221 -68 460 -68q133 2 216 18q124 24 213 83q81 58 117 159q29 80 29 190q0 92 -34 170q-39 85 -112 136q-41 28 -93.5 49t-90.5 30t-101 22l-59 12q-76 18 -104 28q-56 18 -94 47q-40 43 -40 118q0 118 100 184l-2 -1q94 50 233 50
q176 0 389 -91q1 7 4.5 32t5.5 39l6 38q1 7 2.5 18t1.5 14l9 59z" />
    <glyph glyph-name="T" unicode="T" horiz-adv-x="1555" 
d="M366 1484l-22 -19q2 -98 2 -166q118 -9 296 -9h49q35 0 107 2h49q-59 -564 -151 -1256h22q18 0 27 1h26h22h73q57 0 129 -2q9 431 67 1258q65 -3 181 -3q118 0 320 8q4 25 12 61t12 61l11 66q-340 -32 -646 -32q-295 0 -586 30z" />
    <glyph glyph-name="U" unicode="U" horiz-adv-x="1523" 
d="M343 1464v-69q0 -379 -45 -827q-7 -72 -7 -127q0 -92 20 -161q25 -88 77 -147q67 -71 182 -101q88 -23 215 -23t223 26q120 33 207 115q76 81 111 197q28 91 37 217q40 527 118 921l-76 -7q-64 -7 -144 -13q-15 -87 -27 -180q-30 -216 -45 -375q-6 -52 -19 -182
q-9 -99 -29 -169q-26 -90 -73 -153q-43 -49 -120 -72q-62 -19 -141 -19q-80 0 -138 17q-72 21 -107 72h1q-51 76 -51 215q0 46 5 104q34 417 41 740q-86 6 -193 20z" />
    <glyph glyph-name="V" unicode="V" horiz-adv-x="1670" 
d="M755 36h87q30 0 45 1h45h72q50 0 72 -1l87 215q138 347 255 614q149 338 300 621l-95 -7q-65 -6 -136 -11q-90 -149 -226 -407q-73 -139 -212 -414q-25 -48 -55 -109q-36 -74 -55 -111l-65 195q-180 554 -301 845q-30 1 -112 9q-78 8 -112 12q55 -156 92 -277
q72 -233 146 -539q38 -156 106 -443q32 -133 43 -178z" />
    <glyph glyph-name="W" unicode="W" horiz-adv-x="2175" 
d="M555 1471l-207 15q96 -334 147 -724q41 -322 56 -737l78 3q41 2 84 3q84 3 162 3q59 116 177 366q75 158 169 370q6 -24 7 -25q1 -3 2.5 -8.5t1.5 -7.5l9 -41q103 -421 182 -653q17 0 68.5 -1.5t81.5 -2.5q29 -1 80 -2.5t70 -1.5q93 400 204 733q125 382 296 725
q-11 0 -49 -2q-10 -1 -29 -1q-4 0 -12 -0.5t-11 -1.5q-48 -4 -113 -6q-216 -402 -443 -1024l-42 111q-38 103 -73 204l-39 111q-15 44 -79 221h-177q-47 -77 -77 -129q-65 -113 -76 -131q-110 -191 -220 -369q-45 280 -93 504q-62 280 -135 499z" />
    <glyph glyph-name="X" unicode="X" horiz-adv-x="1682" 
d="M359 1477l-19 -28q149 -281 344 -703l9 -21q1 -4 4.5 -11l5.5 -11q-179 -220 -287 -351q-140 -172 -293 -347q11 1 24 2.5t30.5 3t28.5 2.5l186 13q18 1 46 2.5t36 1.5q165 227 344 498q41 -89 124 -250q63 -125 131 -246l172 -11q127 -10 171 -15q-111 163 -224 342
q-111 176 -215 350q324 499 535 785l-103 -7q-25 -2 -135 -10q-167 -225 -414 -595l-74 151q-12 25 -37 74t-37 73q-79 155 -155 293l-36 3q-7 0 -20 0.5t-18 1.5q-95 7 -124 10z" />
    <glyph glyph-name="Y" unicode="Y" horiz-adv-x="1544" 
d="M361 1484l-19 -28q67 -142 145 -326t115 -276t131 -330q-11 -124 -24 -244q-4 -41 -25 -244h22q16 0 25 1h25h21h70q54 0 124 -2q19 328 34 489q28 50 43 75l44 75q108 188 243 411q138 228 257 402l-79 -7q-68 -7 -159 -12q-169 -245 -460 -717q-121 272 -162 360
q-85 182 -173 354q-126 10 -198 19z" />
    <glyph glyph-name="Z" unicode="Z" horiz-adv-x="1669" 
d="M343 1462v-165q258 -23 546 -23q155 0 311 6q-273 -273 -482 -486q-43 -44 -475 -492q-7 -44 -25 -148q-11 -66 -28 -147q326 30 612 30q285 0 601 -29q-4 79 -4 197q0 52 2 116q-270 18 -560 18q-146 0 -326 -5q82 82 120 121l224 228q4 4 118 121q165 169 251 256
t251 256l14 75q1 14 9 47q4 19 5 26q1 5 2.5 12t1.5 9q-319 -30 -604 -30q-295 0 -543 26z" />
    <glyph glyph-name="bracketleft" unicode="[" horiz-adv-x="958" 
d="M564 1507q96 0 228 46l-7 -72l-11 -92q-101 -36 -218 -36h-7q0 -2 -8 0q-43 -543 -116 -1344h14q116 0 210 -30q-1 -21 -4 -73t-5 -74l-5 -94q-114 42 -210 42q-102 0 -225 -42q105 906 157 1788l28 16q80 -35 179 -35z" />
    <glyph glyph-name="backslash" unicode="\" horiz-adv-x="1157" 
d="M535 1435l-17 16q-91 14 -169 41q1 -7 38 -213l72 -438q2 -13 34 -214q89 -562 130 -790q80 -6 176 -32l47 -9q-46 220 -86 434q-56 302 -80 437q-99 543 -145 768z" />
    <glyph glyph-name="bracketright" unicode="]" horiz-adv-x="961" 
d="M794 1523l-26 20q-100 -36 -200 -36q-98 0 -205 47l-5 -89l-3 -37q0 -7 -0.5 -19.5t-1.5 -17.5q85 -38 207 -38h18q-8 -87 -31 -341q-22 -234 -59 -671l-30 -341h-12q-100 0 -216 -30l-11 -107l-14 -125q125 42 224 42q95 0 209 -41q47 841 156 1784z" />
    <glyph glyph-name="asciicircum" unicode="^" horiz-adv-x="1623" 
d="M1016 1473h-160q-39 -33 -90 -83l-88 -84q-128 -122 -199 -185q-109 -95 -251 -202l79 3q45 2 93 3q94 3 171 3q96 96 260 303q56 71 95 119q15 -23 18 -29q3 -5 9 -14t7 -11l15 -24q10 -18 17 -29q45 -75 68 -111.5t65 -96t83 -106.5q12 -1 39 -1.5t41 -0.5
q96 -2 184 -6l78 -3q-121 97 -228 209q-64 67 -174 195q-12 14 -34.5 40.5t-31.5 36.5q-49 55 -66 74z" />
    <glyph glyph-name="underscore" unicode="_" horiz-adv-x="1440" 
d="M1050 -300l-13 34q-240 -4 -537 -4q-82 0 -127 1q-90 0 -135 1q-22 0 -262 3q50 -56 50 -89q0 -44 -70 -108l279 3q97 0 145 1h135h135q47 -1 145 -1l279 -3q-58 54 -58 87q0 44 34 75z" />
    <glyph glyph-name="grave" unicode="`" horiz-adv-x="862" 
d="M599 1610l-16 7q-29 0 -103 4q-93 5 -102 6q35 -58 75 -138q19 -40 51 -114q14 -30 29 -64t29 -64h44q37 0 59 -1q11 -1 33 -1.5t33 -0.5l67 -3q35 -2 59 -3q-61 74 -94 123q-56 82 -117 180q-15 23 -47 69z" />
    <glyph glyph-name="a" unicode="a" horiz-adv-x="1276" 
d="M1162 1130q-4 -2 -20.5 -1t-18.5 1q-2 -1 -8 -1h-14t-15.5 0.5t-13.5 0.5h-5h-110q-4 -22 -6 -42t-6 -54.5t-8 -68.5q-45 71 -123 113t-167 42h-28q-85 0 -168 -39q-87 -41 -140 -110l1 1q-87 -104 -127 -256q-33 -128 -33 -269q0 -177 76 -294q46 -70 122.5 -107
t166.5 -37h10q3 0 5 1h4h15q90 0 178 41q86 40 147 113q13 -76 -3 -136l63 -5q115 -9 153 -14q-26 126 -34 236.5t3 235.5t29 235.5t53 297.5q15 76 22 116zM597 976h24q71 0 122 -45q53 -46 69 -122q16 -74 16 -155q0 -84 -13 -139q-18 -78 -73 -118l1 1
q-28 -18 -65.5 -28.5t-64 -13t-71.5 -4.5q-59 0 -100 9q-52 11 -84 43q-37 39 -46 74q-7 24 -9 100q15 123 37 180q38 98 96 153q68 65 161 65z" />
    <glyph glyph-name="b" unicode="b" horiz-adv-x="1372" 
d="M553 1509q-1 0 -12.5 0.5t-29 2t-40.5 4t-53 7t-60 10.5q-6 -257 -8.5 -345t-13 -253.5t-30 -301.5t-53.5 -326l122 -141q14 -16 31.5 -30.5t39 -27t36.5 -21t39.5 -20.5t32.5 -16q81 -42 170 -42h9q3 0 5 1h4h15q89 -1 172 36t142 107q81 94 116 239q28 115 28 253
q0 197 -87 326q-100 149 -281 149h-30q-87 0 -171 -39t-139 -112q25 231 46 540zM1088 601l1 4q-15 -71 -34 -116q-28 -65 -70 -98l2 2q-75 -52 -184 -59q-54 0 -104 17q-58 18 -94 54q-46 66 -52 187q21 184 100 288q40 49 98 74t121 25q119 0 175 -107q42 -83 42 -224v-12
q-1 -4 -1 -12v-23z" />
    <glyph glyph-name="c" unicode="c" horiz-adv-x="1214" 
d="M1020 1049l17 19q-129 48 -272 48q-125 0 -231 -32q-131 -39 -212 -115q-92 -90 -133 -240q-34 -121 -34 -260q0 -98 20 -171q25 -90 75 -150l-1 1q66 -83 185 -119q95 -29 223 -29q160 0 301 53q-2 70 -2 114q0 26 2 94q1 19 2.5 51t1.5 42q-85 -41 -148 -41h-12l-146 3
h1q-79 7 -133 18.5t-97 40.5h1q-34 28 -51 79q-15 46 -15 100q8 83 32 155q27 88 74 140q46 56 125 84q66 24 146 24q137 0 279 -72l8 60v-1q2 11 5.5 29.5t4.5 24.5q7 40 10 54z" />
    <glyph glyph-name="d" unicode="d" horiz-adv-x="1334" 
d="M647 1120h-28q-85 0 -168 -39q-87 -41 -140 -110l1 1q-87 -104 -127 -256q-33 -128 -33 -269q0 -177 76 -294q46 -70 122.5 -107t166.5 -37h10q3 0 5 1h4h15q90 0 178 41q86 40 147 113q-1 -11 -1 -24q-1 -5 -1 -11v-12v-24v-33q-1 -14 -1 -32l63 -5q66 -5 132 -14
q12 736 158 1530q-13 -4 -25 -6q-11 -3 -14 -3q-72 -10 -163 -17q-58 -323 -87 -548q-43 74 -120.5 114.5t-169.5 40.5zM297 578q12 100 43 180q38 98 96 153q68 65 161 65h24q71 0 122 -45q53 -46 69 -122q16 -74 16 -155q0 -84 -13 -139q-22 -92 -73 -129l1 1
q-28 -18 -65.5 -28.5t-64 -13t-71.5 -4.5q-59 0 -100 9q-52 11 -85 43h1q-33 35 -46 85q-13 48 -15 100z" />
    <glyph glyph-name="e" unicode="e" horiz-adv-x="1310" 
d="M1115 670l-32 13l33 -14q-1 -7 -1 -18q0 -3 -0.5 -8.5t-1.5 -8.5v1l-5 -40q-161 -3 -497 -3q-46 0 -69 1h-70h-120v-5q-2 -38 -2 -51q0 -63 14 -111q17 -58 56 -86v1q103 -65 284 -65h18q105 0 161 8q90 11 173 51v-32q-2 -50 -2 -76v-33q0 -87 3 -124q-198 -67 -409 -67
q-120 9 -211 41q-115 38 -184 106q-52 61 -78 151q-23 79 -23 171q0 132 38 256q45 147 129 238q74 75 185 114q96 32 209 34q99 -5 170 -26q93 -27 148 -82q49 -54 70 -136q15 -63 15 -156v-10q-1 -4 -1 -12v-22zM479 760h96q193 0 383 3q-11 105 -77 171q-71 69 -175 69
q-146 0 -232 -82q-77 -68 -91 -160q65 -2 96 -1z" />
    <glyph glyph-name="f" unicode="f" horiz-adv-x="950" 
d="M626 1173v-38q-1 -16 0 -40q128 2 272 15q-1 -7 -5 -45q-7 -60 -11 -106q-4 -38 -5 -45q-133 -8 -264 -9q-30 -444 -46 -869q-40 2 -79 2q-81 0 -201 -12q49 307 117 881q-51 2 -75 4q-15 1 -40.5 2.5t-33.5 1.5l5 71l3 30q1 6 1 17t1 16q1 13 2.5 36t1.5 27
q62 -8 152 -15q3 13 9 63q14 81 34 133q28 73 78 116q99 71 223 79q10 -1 31 -1h31q47 0 86 4l21 -22q-11 -69 -20 -146q-38 -2 -73 -2q-28 0 -90 2q-61 -6 -89 -29q-25 -34 -36 -121z" />
    <glyph glyph-name="g" unicode="g" horiz-adv-x="1296" 
d="M1043 117l5 36q53 514 143 962l-135 -17h1l-65 -5l-27 -107q-1 -6 -5 -20q-4 -10 -6 -21q-47 71 -131 116q-83 44 -175 44h-30q-90 0 -171 -34q-87 -36 -146 -103q-78 -89 -111 -227q-28 -111 -28 -242q0 -206 83 -331q44 -68 124 -108q78 -39 162 -39q200 0 329 136
q-2 -22 -2 -32q-27 -94 -107 -175q-41 -46 -114 -70q-57 -18 -133 -20q-160 0 -296 76q0 -2 -4 -32t-6 -47q-3 -25 -11 -88q-16 -120 -24 -168q143 -40 317 -40q131 0 216 20q119 26 197 103q74 80 110 208q23 79 40 225zM834 576v1q-7 -72 -26 -122q-26 -69 -72 -99
q-94 -38 -214 -38q-60 0 -98 6q-52 6 -88 31q-28 33 -40 87q-9 42 -11 103q0 10 -1 15t-1 15q7 82 26 149q24 84 65 137q36 44 92.5 67.5t115.5 23.5q118 0 185 -73q71 -79 71 -229q0 -41 -4 -74z" />
    <glyph glyph-name="h" unicode="h" horiz-adv-x="1419" 
d="M1160 671q3 39 3 79q0 136 -50 235q-34 69 -110 104q-68 31 -153 31h-26q-181 0 -320 -159q16 136 29 274l22 273q-27 1 -99 9l-53 6q-22 1 -46 5q-29 -780 -173 -1522q66 8 121 13l64 6q48 5 55 5q13 110 38 430l6 85q4 56 6 85q12 148 98 247q39 44 96 68.5t115 24.5
q50 0 94 -22.5t71 -66.5q27 -59 27 -150q0 -42 -3 -61q-39 -390 -55 -639q9 -1 56 -5l62 -6q55 -5 118 -13q-3 111 -3 125q-1 22 -1 65q-1 21 -1 61q0 204 12 413z" />
    <glyph glyph-name="i" unicode="i" horiz-adv-x="677" 
d="M340 1405l-13 -110q44 -33 92 -33q45 0 99 28q0 9 1.5 31.5t2.5 35.5t2.5 35.5t1.5 31.5q0 15 1 26q1 6 1.5 17t0.5 17q1 16 4 59q-61 -42 -96 -42q-30 0 -53 17l-32 -12zM345 1103l-26 -16q-24 -269 -53 -550q-39 -383 -58 -551q68 52 108 52q35 0 91 -50q13 193 40 563
q23 310 44 561q-61 -18 -91 -18q-26 0 -55 9z" />
    <glyph glyph-name="j" unicode="j" horiz-adv-x="724" 
d="M498 1498l-18 -16q-4 -25 -13 -89q-4 -30 -14 -90l-7 -47q120 12 198 33l3 41q2 26 3 41q2 41 6 83q0 7 2 21.5t2 22.5l3 38q-75 -25 -165 -38zM418 1081l-19 -16q-26 -186 -38 -277q-26 -199 -37 -278q-9 -64 -25 -190q-4 -31 -12.5 -94t-13.5 -95q0 -3 -1 -5
q-1 -3 -1 -7q-9 -62 -16 -88q-14 -52 -36 -79q-42 -39 -153 -57l-59 -12q-7 -57 -25 -179l-16 -115q19 7 46 15q22 7 67 16q11 1 28 5q87 17 124 31q68 26 114 66q52 50 79 134q16 52 26 148q52 479 134 1092q-102 -14 -166 -15z" />
    <glyph glyph-name="k" unicode="k" horiz-adv-x="1477" 
d="M375 1525l-22 -18q-24 -743 -172 -1500q75 8 131 13l69 6q47 4 60 5q0 8 5 65q1 15 2.5 37t1.5 27l12 174q4 54 10 172q45 -64 87 -123q65 -91 167 -227q44 -57 90 -120q178 -4 394 -33q-217 239 -256 281q-29 31 -122.5 130t-139.5 149l-36 37l130 147l42 48t33 38
l80 91q24 27 51.5 58t58 65.5t46.5 52.5q-16 -1 -56 -1q-11 -1 -33 -1.5t-33 -0.5q-90 -2 -122 -2q-27 -28 -57.5 -60.5t-67 -72t-57.5 -61.5l-181 -196q22 209 37 402q11 148 24 402q-96 5 -176 16z" />
    <glyph glyph-name="l" unicode="l" horiz-adv-x="797" 
d="M379 1520l-27 -15q-64 -818 -152 -1506q106 39 172 39q70 0 157 -38l3 57q0 10 1.5 32t2.5 33q6 88 9 121q-62 21 -114 25q64 765 109 1236q-32 -2 -34 -2q-7 -1 -19 -1q-66 0 -108 19z" />
    <glyph glyph-name="m" unicode="m" horiz-adv-x="2040" 
d="M754 1118q-87 0 -167 -40.5t-133 -112.5l11 135l-197 9q4 -65 4 -167q0 -468 -146 -934l61 3q66 4 138 6q10 0 30.5 0.5t29.5 1.5q53 252 73 609q7 136 79 240q83 117 206 117q54 0 95 -15q49 -20 77 -64l-1 2q31 -57 31 -147q0 -31 -3 -61v2q-61 -338 -130 -672h269
q21 315 54 595q12 153 93 249q81 104 231 104q63 0 92.5 -37t29.5 -117q0 -14 -2 -48q-1 -9 -2 -25.5t-2 -24.5l-3 -31q-64 -379 -64 -626v-48q10 -1 31 -1.5t32 -0.5l70 -3q12 -1 36 -2.5t35 -1.5l62 -3q-31 177 -31 367q0 146 15 294q8 86 8 131q0 91 -21 164v-1
q-22 75 -92 119q-64 40 -147 40q-148 0 -245 -63q-90 -57 -155 -155q-33 106 -135 163q-90 50 -217 50zM437 939l-1 1h1v-1z" />
    <glyph glyph-name="n" unicode="n" horiz-adv-x="1406" 
d="M1138 670q2 48 2 73q0 139 -45 239q-36 69 -112 103q-71 31 -154 31q-183 0 -368 -129v11q0 3 1 4q0 2 1 3v11l2 88l-45 3q-9 1 -26.5 2t-25.5 2q-75 6 -98 9q-8 -577 -129 -1113l63 6q16 1 66 4t76 5q13 1 34 2.5t29 1.5q32 306 43 610v-1q13 155 89 237q42 45 113 67
q56 16 128 16q47 0 81 -15q42 -20 62 -57v1q22 -50 22 -122q0 -37 -4 -68v1q-1 -3 -1 -10v-10q-56 -371 -76 -649q41 -1 138 -7q13 -1 63 -5t73 -6q-15 168 -15 313q0 159 13 349z" />
    <glyph glyph-name="o" unicode="o" horiz-adv-x="1268" 
d="M684 1114q-102 0 -198 -34q-105 -37 -176 -107q-85 -95 -124 -253q-30 -120 -30 -265q0 -196 83 -310v1q50 -75 153 -112q85 -31 192 -31q105 0 201 32q106 35 175 110q86 101 124 254q31 124 31 266q0 191 -83 306q-56 77 -154 113q-83 30 -194 30zM673 967
q63 -1 116 -26t81 -72q49 -83 49 -215q0 -90 -13 -150q-23 -99 -82 -140h1q-80 -46 -212 -46q-136 0 -205 45l1 -1q-53 41 -53 151q0 107 20 183q26 104 79 172q38 49 96 74t122 25z" />
    <glyph glyph-name="p" unicode="p" horiz-adv-x="1314" 
d="M668 -4h26q88 0 170 40q84 41 140 110h-1q87 101 127 254q33 126 33 272q0 175 -76 291q-48 65 -128 104q-82 40 -163 40h-29q-92 0 -176 -36q-91 -38 -147 -109l5 29l15 99q-39 1 -98 8q-68 6 -98 9q-31 -776 -174 -1511q7 0 47 5l54 6q20 1 53 5q9 1 25.5 2.5t21.5 1.5
q63 378 83 533q41 -76 122 -115q78 -38 168 -38zM1033 588v-2q0 -5 -1 -7q-1 -3 -1 -8q-9 -73 -25 -121q-21 -65 -66 -103l2 1q-78 -52 -203 -52q-121 0 -200 52l1 -1q-59 47 -59 167q0 100 19 184q23 103 79 171q81 105 230 105q114 0 175 -90q54 -80 54 -206q0 -38 -5 -90
z" />
    <glyph glyph-name="q" unicode="q" horiz-adv-x="1370" 
d="M822 -381q104 -6 166 -15h6h9q3 -1 10 -1h5q19 738 171 1511q-24 -4 -46 -5l-53 -6q-75 -8 -100 -9l-16 -59l-23 -90q-49 72 -131 117q-85 45 -172 45h-34q-87 1 -170 -37t-143 -106q-75 -91 -112 -233q-30 -115 -30 -247q0 -212 83 -338q44 -71 120.5 -110.5
t164.5 -39.5h28q87 0 170 40q85 41 139 111q-19 -177 -42 -528zM293 568v10q7 89 25 152q23 82 68 140q35 45 90 72q55 25 110 25q151 2 213 -100q49 -83 49 -207q0 -93 -15 -161q-23 -108 -87 -152h2q-84 -47 -211 -47q-132 0 -195 46l2 -1q-54 48 -54 165q0 15 2 47
q0 7 1 11z" />
    <glyph glyph-name="r" unicode="r" horiz-adv-x="904" 
d="M807 912l26 16q1 11 13 91l14 91h-51q-68 0 -136 -16q-77 -18 -134 -52l-46 -26q-48 -26 -59 -33l6 100q-11 0 -22 1t-23 1q-109 9 -130 11q-43 -573 -149 -1090q144 19 252 23q13 152 33 529v-1q17 169 83 261q41 57 122 84q61 19 146 19q33 0 55 -9z" />
    <glyph glyph-name="s" unicode="s" horiz-adv-x="1165" 
d="M989 1068l-12 4q-131 42 -339 42q-150 0 -267 -47q-83 -34 -125 -115q-38 -73 -38 -163q0 -120 58 -177q36 -35 105 -62q43 -18 116 -35l38 -9q74 -17 98 -24q61 -19 91 -42q30 -32 39 -74q11 -56 -74 -99q-54 -27 -131 -27h-11q-8 0 -13 1h-23q-169 0 -341 92
q-5 -40 -19 -140q-3 -18 -10.5 -68t-11.5 -73q194 -49 364 -49q107 0 178 13q99 18 171 63q64 40 100 116q29 65 29 146q0 120 -66 183q-43 42 -115 71q-46 17 -132 39l-19 5q-100 18 -157 45q-91 42 -91 117q0 90 85 133q67 34 166 34q183 0 329 -67q2 17 4 24l4 28
q7 41 9 52z" />
    <glyph glyph-name="t" unicode="t" horiz-adv-x="1122" 
d="M622 1330l-19 21q-93 0 -186 9q-4 -60 -12 -130q-3 -30 -13 -133q-8 0 -15 1t-14.5 2t-10.5 1l-39 5l-44 6l-4 -69v1l-3 -45q0 -8 -0.5 -23.5t-1.5 -21.5q16 -2 121 -10q-8 -92 -13 -141q-13 -132 -30 -276q-2 -22 -7.5 -69.5t-8.5 -72.5q-5 -47 -5 -91q0 -125 62 -187
q44 -37 119 -56q35 -9 132 -18l34 -3l26 -3q5 0 18.5 -1.5t21.5 -2.5q31 -4 44 -5q58 -8 82 -12q0 41 4 143q0 13 1 38t1 37l3 68q-72 9 -184 15q-35 2 -51 3.5t-41.5 10t-39.5 22.5l2 -3q-21 27 -21 90q0 13 2 45q0 7 1 10v11q2 26 7.5 77t8.5 77q2 25 8 76t8 77
q2 20 15 136h23q83 0 213 6q3 18 12 86l6 69l-54 -3q-10 -1 -29 -1t-29 -1q-58 -3 -111 -3h-17l12 104v-1l9 68q4 43 7 67z" />
    <glyph glyph-name="u" unicode="u" horiz-adv-x="1353" 
d="M239 448q-5 -55 -5 -102q0 -120 40 -213q36 -69 116 -102q69 -30 157 -30h26q92 0 178.5 42.5t150.5 116.5q-2 -18 -11 -137q7 -1 22 -1.5t23 -0.5q44 -2 106 -8l45 -3q1 545 122 1104q-33 -4 -115 -10q-68 -7 -116 -8q-49 -286 -67 -456v1q-23 -150 -102 -238v1
q-80 -85 -220 -85q-102 0 -147 80l1 -1q-32 67 -32 173q0 6 1 9v9v14q18 244 23 494l-73 6l-21 3q-5 0 -13.5 1t-12.5 2l-25 3q-4 0 -11 0.5t-10 1.5v-66q0 -14 1 -21v-22q0 -267 -31 -557z" />
    <glyph glyph-name="v" unicode="v" horiz-adv-x="1389" 
d="M340 1106l-71 7q32 -85 74 -210q62 -192 116 -403l85 -335q21 -82 36 -136q26 0 43 1h44h70h59q42 0 59 -1l77 183q102 248 193 444q111 243 233 457q-28 -3 -108 -9q-10 -1 -29.5 -2.5t-28.5 -1.5q-13 -1 -50 -4q-129 -214 -341 -636l-58 -114q-11 29 -17 50l-6 20
q-1 3 -2.5 7t-3 9t-2.5 8q-142 429 -237 656q-37 1 -135 10z" />
    <glyph glyph-name="w" unicode="w" horiz-adv-x="1773" 
d="M283 1110l-20 -25q77 -233 123 -517q35 -216 62 -545h26q21 0 63 2h27q129 3 138 3q104 186 237 454q36 -123 72 -228q40 -122 80 -225q28 0 46 -1q17 -1 45 -1q14 -1 42 -1.5t43 -0.5l86 -3q67 297 155 548q100 291 234 543q-5 -1 -15.5 -1.5t-15.5 -0.5l-38 -3
q-6 0 -70 -4l-65 -4q-145 -274 -302 -723q-40 91 -77 185q-23 56 -74 185q-56 -2 -96 -2h-150q-27 -47 -40 -68q-12 -20 -40 -69l-67 -114q-31 -49 -69 -116q-70 419 -173 721q-101 6 -167 11z" />
    <glyph glyph-name="x" unicode="x" horiz-adv-x="1519" 
d="M1278 1075l-16 32q-42 -4 -165 -11q-184 -207 -359 -424q-133 235 -255 422q-59 2 -107 7q-10 1 -29.5 2.5t-28.5 1.5q-11 1 -28.5 2.5t-21.5 1.5q83 -128 175 -282q59 -98 166 -288q-76 -87 -244 -269q-77 -83 -252 -264l75 6q28 1 86 5q95 7 159 8q161 187 292 356
q61 -109 104 -179q70 -116 110 -177q43 -1 157 -7q114 -8 157 -12q-101 125 -201 257q-123 161 -197 264q3 5 7 9q3 3 6 8v-1q264 357 410 532z" />
    <glyph glyph-name="y" unicode="y" horiz-adv-x="1391" 
d="M786 -69l122 263q279 604 452 921q-20 -3 -50 -6l-59 -6q-80 -10 -108 -11q-138 -227 -345 -604q-53 105 -157 303q-18 33 -164 300q-28 1 -104 11q-56 6 -104 13q81 -192 183 -459q41 -107 175 -465l27 -73l-19 -33q-32 -51 -65 -111q-61 -64 -95 -93l1 1
q-22 -16 -52.5 -25t-50.5 -11t-61 -4q-5 -1 -17.5 -1.5t-18.5 -0.5l-37 -3q0 -2 -8 -51l-8 -50l-11 -77l-14 -77q10 2 24 3q37 4 58 5q4 0 12.5 0.5t12.5 1.5q98 6 146 16q80 17 137 57q59 45 115 124q37 54 83 142z" />
    <glyph glyph-name="z" unicode="z" horiz-adv-x="1281" 
d="M263 1086v-131q175 -15 377 -15q128 0 229 4l-179 -167q-28 -26 -85.5 -80t-86.5 -81q-193 -183 -347 -333l-23 -138q-18 -98 -27 -138q256 23 460 23q209 0 434 -21q-2 90 -2 157q0 46 2 102q-203 13 -396 13h-80q-53 0 -80 -1q69 69 100 101q82 83 184 192l98 102
q39 40 124 129l125 128q0 2 8 43l9 48q15 80 17 90q-246 -25 -462 -25q-184 0 -377 17z" />
    <glyph glyph-name="braceleft" unicode="{" horiz-adv-x="1179" 
d="M852 -126l-20 21q-12 0 -24 4q-2 1 -6.5 1.5t-6.5 0.5q-6 0 -16 2l-22 4q-101 15 -136 50q-29 38 -29 128q1 21 5 58t5 58l12 116v36q0 106 -25 164t-104 89q82 26 126 82q49 74 65 218q7 68 13 115q3 34 14 116v-1l3 18q6 37 9.5 56t14.5 47.5t28 46.5l-2 -3
q22 17 54 29t54.5 16.5t62.5 10.5q55 10 85 18q1 14 6 37q2 8 4 23t4 22q6 36 15 81q-30 -7 -67 -13q-13 -3 -37 -7q-18 -5 -31 -6q-187 -29 -284 -87q-55 -46 -83 -129q-13 -40 -29 -149l-12 -112q-7 -63 -11 -111q-7 -54 -19 -97q-14 -49 -46 -86q-68 -50 -184 -50h-8
q-6 0 -9 1q-2 1 -6.5 1.5t-6.5 0.5h-28l-8 -78q0 -3 -1.5 -17t-2.5 -23q0 -4 -0.5 -11t-1.5 -11q-1 -7 -1 -18h45h8q2 -1 7 -1h6q53 -2 90 -12q47 -13 70 -42l-1 1q31 -50 31 -158q0 -59 -13 -161q-13 -104 -13 -164q0 -141 61 -213q52 -43 140 -68q45 -13 155 -31l91 -14
q0 17 1 28q1 5 1.5 16t0.5 16q0 11 3 62l3 40q0 26 1 39z" />
    <glyph glyph-name="bar" unicode="|" horiz-adv-x="657" 
d="M240 621h20q32 -2 50 -2h21q50 0 85 3l31 233q22 162 34 244q6 43 17.5 125t16.5 119q16 116 33 232q-89 -62 -149 -62q-8 0 -13 1l-31 6q-34 -259 -57 -451zM279 -428l23 17q68 610 109 951h-41q-16 -1 -48 -1h-48h-41q-32 -246 -70 -510q-29 -207 -75 -511
q89 58 150 58q21 0 41 -4z" />
    <glyph glyph-name="braceright" unicode="}" horiz-adv-x="1195" 
d="M276 -139l-55 -8l-5 -40q-3 -15 -7 -47l-6 -48q-5 -22 -6 -39l41 8h-1l39 6q24 6 41 8q28 4 41 7q86 14 129 27q70 20 125 58q53 46 79 132q15 46 25 147l5 72q4 50 7 75q4 50 5 75q7 58 19 101q15 55 47 90h-1q33 32 91 44q33 7 101 7h51l11 156q-15 0 -37 2h-12h-9
q-3 -1 -10 -1q-56 0 -89 8q-49 12 -75 38q-33 46 -33 128q0 29 3 57l19 225q4 37 4 88q0 130 -59 194q-53 42 -128 64q-39 12 -140 30l-30 5l-34 6q-30 5 -61 13l-4 -85l-2 -77l64 -12q62 -11 95 -20q52 -15 80 -39q26 -40 26 -106t-13 -183q-12 -108 -12 -189
q0 -91 27 -141v1q31 -62 121 -89q-93 -25 -136 -82q-32 -49 -44 -101q-11 -49 -27 -213l-9 -107l-2 -19v-5q-1 -1 -1 -4q-14 -114 -56 -160l2 1q-33 -27 -91 -41q-30 -8 -103 -17z" />
    <glyph glyph-name="asciitilde" unicode="~" horiz-adv-x="1526" 
d="M1406 798l7 27q-6 -4 -36 -20q-16 -8 -37 -22q-97 -58 -144 -78q-84 -36 -152 -36q-83 0 -221 57q-6 3 -23 9l-7 4q-142 59 -263 59q-89 0 -180 -41q-79 -35 -162 -105q-6 -101 -57 -186l24 -22q64 38 209 135v-1q81 58 160 62q93 -3 221 -79l59 -29q51 -24 71 -33
t62 -21t81 -13q78 0 158 46q55 30 140 98l63 47q10 84 50 149z" />
    <glyph glyph-name="uni00A0" unicode="&#xa0;" horiz-adv-x="1903" 
 />
    <glyph glyph-name="exclamdown" unicode="&#xa1;" horiz-adv-x="749" 
d="M577 1210l30 284q-78 -39 -137 -39q-54 0 -121 34q-1 -7 -6 -77l-3 -41q-2 -22 -3 -35l-10 -138q67 -23 120 -23q54 0 116 19zM458 12l29 15q16 301 39 630q3 48 5 147q0 11 1.5 47t2.5 58q1 21 2.5 56.5t1.5 47.5q-63 -10 -111 -10q-38 0 -96 9q-2 -13 -7.5 -55
t-8.5 -66q-10 -60 -18 -121l-15 -112q-12 -116 -37 -331q-16 -138 -40 -331q83 41 145 41q61 0 107 -25z" />
    <glyph glyph-name="cent" unicode="&#xa2;" horiz-adv-x="1204" 
d="M1049 1048l-9 -61l-11 -88q-132 71 -247 78q-25 -214 -42 -371q-25 -237 -38 -373q120 10 262 72q-1 -5 -1.5 -15t-0.5 -15q-1 -30 -5 -73l-3 -31q-8 -76 -9 -130q-126 -43 -265 -51l-10 -116q-1 -7 -6 -76l-3 -41q-1 -19 -3 -36q-9 0 -14 1q-3 1 -9.5 1.5t-9.5 0.5
q-13 0 -19 1t-15 1q-28 0 -53 4l15 154q4 44 5 58q1 25 6 58q-96 13 -181 51q-97 43 -146 113q-83 110 -83 302q0 139 33 255q40 146 131 235h-1q65 69 170 111q83 32 195 44q4 47 13 120l18 152h57q19 0 64 3l-18 -136q-11 -86 -17 -137q143 -7 243 -53l-16 -16zM588 241
q42 436 76 730q-148 -16 -236 -169q-74 -128 -74 -289q0 -113 65 -186q61 -69 169 -86z" />
    <glyph glyph-name="sterling" unicode="&#xa3;" horiz-adv-x="1305" 
d="M1149 1416l15 18q-134 40 -259 40q-43 0 -93 -6q-106 -15 -190 -58q-92 -47 -140 -135q-45 -79 -65 -185q-15 -74 -21 -151l-6 -59l-10 -99q-15 1 -45 1t-45 1l-91 3l-17 -139q110 -2 182 -2q-9 -79 -11 -100l-12 -96q-4 -27 -13 -95q-3 -18 -7.5 -51.5t-6.5 -47.5
q-143 -6 -222 -11l-6 -30q-5 -31 -19 -103q-9 -42 -11 -55q-2 -11 -6 -29t-4 -20q233 22 437 22q277 0 553 -36q0 17 1 31v31q2 89 8 172q-249 26 -522 28l46 388l357 -7l6 66l9 70q-21 1 -64.5 1.5t-65.5 0.5q-50 0 -130 2q-32 0 -48 1t-50 1l4 28l9 80q7 61 10 79
q9 82 24 137q21 77 57 124q36 36 99 58q56 18 111 18q104 0 242 -69l6 36q1 5 15 79q2 6 7 34l7 38z" />
    <glyph glyph-name="currency" unicode="&#xa4;" horiz-adv-x="1496" 
d="M801 1051q-122 0 -224 -66l-102 110l-91 97l-57 -57q-5 -4 -15.5 -14.5t-16.5 -15.5q-7 -7 -34 -31l189 -209q-84 -120 -84 -250q0 -89 44 -192l-64 -60q-90 -87 -161 -149l40 -49l14 -16q20 -26 33 -39q3 -4 8 -10t6 -7l152 136l78 71q111 -64 218 -64q110 0 222 66
q32 -35 98 -103t99 -103l60 59q19 22 61 58q-146 156 -193 209q86 119 86 258q0 41 -13 95q-8 32 -28 92q22 20 66 62q11 10 33 30.5t33 30.5l94 85l-102 121l-181 -163l-51 -47q-101 65 -217 65zM1002 647v-1q-6 -101 -81 -171q-77 -72 -174 -72q-92 0 -154 59
q-64 59 -64 154q0 110 75 187q77 79 182 79q92 0 154 -57q63 -60 63 -152v-13q0 -9 -1 -13z" />
    <glyph glyph-name="yen" unicode="&#xa5;" horiz-adv-x="1508" 
d="M1336 504l3 45q2 28 3 44q-198 5 -380 5q0 3 0.5 7.5t1 7.5t0.5 4t0.5 3.5t1 7t0.5 7.5q11 18 19 28l18 28l49 80l306 3q1 4 1.5 14t0.5 15l3 28q3 30 4 41q1 4 1 11.5t1 10.5q1 7 1 18l-146 -3q-26 0 -88 -2q230 364 380 580l-87 -8q-85 -9 -147 -13
q-200 -301 -411 -655q-62 145 -144 330q-42 94 -152 324q-31 1 -113 11q-64 6 -113 13q77 -160 136 -289q90 -200 130 -293q-95 0 -235 5q-2 -13 -3 -34q-2 -29 -6 -69l-3 -36q98 -2 154 -2h154q12 -22 21 -35q11 -19 20 -35l37 -65l-3 -38q-135 0 -268 -3l-114 -2l-3 -40
l-12 -96q-5 -37 -5 -41q208 9 385 10l-33 -195q-6 -33 -17.5 -98t-16.5 -97h91q23 0 34 1h34q53 0 119 -2q0 210 7 391q165 -1 360 -9l21 18z" />
    <glyph glyph-name="brokenbar" unicode="&#xa6;" horiz-adv-x="715" 
d="M524 1402l-34 15q-25 -28 -64 -28q-15 0 -36 18q-20 16 -47 56q-8 -103 -31 -395q-12 -138 -17 -205q-3 -40 -9.5 -113.5t-6.5 -77.5q45 -14 83 -14q37 0 93 9q30 350 69 735zM431 405l-16 22q-30 3 -62 3q-28 0 -47 -1l-49 -3q-9 -99 -35 -395q-26 -274 -38 -394
q63 63 100 63q35 0 86 -64l15 188q10 130 15 197q3 34 8.5 100t7.5 97z" />
    <glyph glyph-name="section" unicode="&#xa7;" horiz-adv-x="1124" 
d="M925 481q-48 -72 -133 -123q90 -92 90 -201q0 -70 -25 -129q-27 -66 -87 -105l1 1q-52 -40 -137 -59q-62 -14 -148 -14q-112 0 -304 37l9 79q8 59 10 74q4 40 9 73q173 -60 278 -60q79 0 127 14q37 11 56 36t20 56q-11 60 -81 120q-36 31 -124 82l-36 21
q-125 75 -171 122q-81 83 -81 190q0 91 51 172q49 78 132 122q-89 89 -89 204q0 65 27 122q28 59 85 94h-1q59 40 135 56q58 12 143 12q146 0 282 -37l-13 -15l22 2q-1 -5 -2.5 -15t-1.5 -14q-1 -6 -6 -54q0 -4 -1.5 -14t-2.5 -15l-5 -30t-2.5 -14.5t-1.5 -10.5
q-166 60 -283 60q-66 0 -119 -30q-62 -36 -63 -96q11 -63 82 -126q51 -46 123 -84l37 -22q121 -74 169 -123q82 -84 82 -187q0 -94 -52 -171zM770 535q38 46 38 94q0 79 -92 157q-43 37 -186 121l-41 22q-53 -38 -81 -74q-37 -49 -37 -98q0 -70 85 -145q47 -42 171 -114
q18 -12 31 -18q10 -5 30 -17q48 33 82 72z" />
    <glyph glyph-name="dieresis" unicode="&#xa8;" horiz-adv-x="975" 
d="M377 1556l-19 -25q9 -33 9 -68q0 -64 -42 -140q9 1 28 1.5t29 0.5q43 0 66 1q88 2 121 2q18 87 18 167q0 33 -2 57q-17 1 -51.5 1.5t-52.5 0.5q-40 0 -104 2zM783 1552l-17 -15q-19 -78 -19 -145q0 -34 4 -63q96 -3 114 -3l124 -2q-22 57 -22 93q0 55 43 139l-130 -2
q-33 0 -97 -2z" />
    <glyph glyph-name="copyright" unicode="&#xa9;" horiz-adv-x="1687" 
d="M946 1447q-144 0 -277 -48q-141 -52 -242 -153v1q-119 -109 -179 -273q-54 -147 -54 -313q0 -250 145 -424q83 -93 215 -148q125 -52 261 -52q148 0 280 47q143 51 246 154v-1q120 112 178 273q55 152 55 314q0 254 -144 422q-89 101 -218 152q-127 49 -266 49zM938 1329
q259 0 401 -165q121 -136 121 -350q0 -138 -43 -252q-52 -139 -152 -211l1 1q-192 -123 -428 -123q-99 0 -212 34q-105 30 -192 87q-128 122 -128 331q0 132 50 259q53 132 150 221q87 84 199 126t233 42zM1182 1105l15 18q-118 48 -246 48q-213 0 -340 -114
q-74 -67 -112 -173q-33 -89 -33 -199q0 -160 91 -261q107 -115 308 -115q144 0 273 52q2 55 6 89l9 111q-147 -65 -244 -65q-111 0 -187 57q-84 63 -84 168q0 66 25 134t70 121q79 91 212 91q116 0 250 -62l5 52q3 34 6 52z" />
    <glyph glyph-name="ordfeminine" unicode="&#xaa;" horiz-adv-x="1070" 
d="M936 1142q5 40 5 75q0 126 -73 198q-81 62 -243 62q-149 0 -288 -43v-23q-1 -11 -1 -25v-21q-1 -9 -1 -26q-1 -9 -1 -26q-1 -9 -1 -22q165 57 264 58q75 -2 122 -21q69 -30 69 -109v-9q0 -7 -1 -10q-55 -3 -159 -3q-152 0 -266 -63q-51 -34 -82 -105q-27 -61 -27 -125
q0 -107 71 -162q62 -49 165 -49q153 0 262 103l-7 -86l71 -3q6 -1 21 -1.5t22 -0.5q8 0 15.5 -1t16 -2t11.5 -1q10 210 35 441zM658 1130h10q34 0 84 2h19q-1 -1 -1 -2v-5v-3q-1 -1 -1 -4q-4 -43 -24 -89t-49 -80q-69 -66 -165 -66q-49 0 -88 29q-40 30 -40 76q0 88 83 119
q40 15 162 22q7 0 10 1zM252 602l-18 -17q0 -2 -1.5 -12t-2.5 -16l-6 -33q-2 -10 -5.5 -32t-5.5 -30q187 19 341 19q163 0 346 -22v93v16l2 30q-181 17 -334 17q-145 0 -316 -13z" />
    <glyph glyph-name="guillemotleft" unicode="&#xab;" horiz-adv-x="1218" 
d="M669 828l30 210q-79 -59 -253 -193q-149 -115 -251 -197q-7 -22 -12 -33q-3 -7 -6 -16l-4 -8l-5 -9q-2 -4 -6 -14l-6 -15l-12 -29q112 -127 195 -215q114 -121 201 -209l37 129l33 108q-130 137 -242 257q143 113 301 234zM869 847l-138 -108q-85 -67 -139 -108l-25 -57
l-14 -32q-11 -23 -14 -33q92 -98 212 -221q12 -13 34.5 -36t41 -42t34.5 -35q36 -37 104 -105q26 161 46 246l-246 264l72 57q13 9 36.5 28t34.5 27l167 133q27 136 36 167l-30 21z" />
    <glyph glyph-name="logicalnot" unicode="&#xac;" horiz-adv-x="1674" 
d="M232 870l-20 -24q15 -69 20 -182q501 0 1022 17q-52 -187 -52 -339v-14q0 -8 1 -17v-16q25 -1 84 -1l84 -3l97 -2q-39 127 -39 247q0 151 60 334q-325 -11 -643 -11q-329 0 -614 11z" />
    <glyph glyph-name="softhyphen" unicode="&#xad;" horiz-adv-x="861" 
d="M191 655l-18 -23q3 -15 3 -36q0 -48 -43 -121q84 4 282 8q99 2 281 2q-12 41 -12 61q0 46 44 119l-101 -2l-184 -6q-91 -3 -184 -3h-34q-12 0 -17 1h-17z" />
    <glyph glyph-name="registered" unicode="&#xae;" horiz-adv-x="1687" 
d="M1430 1246q144 -168 144 -422q0 -162 -55 -314q-58 -161 -178 -273v1q-103 -103 -246 -154q-132 -47 -280 -47q-136 0 -261 52q-132 55 -215 148q-145 174 -145 424q0 166 54 313q60 164 179 273v-1q101 101 242 153q133 48 277 48q139 0 266 -49q129 -51 218 -152z
M1267 401l-1 -1q94 91 146 208.5t52 242.5q0 202 -123 325q-146 153 -403 153t-431 -155q-96 -80 -147 -202q-49 -113 -49 -239q0 -220 159 -358q149 -131 373 -131q199 0 359 107h-12q-19 0 -28 1h-23q-41 0 -81 2l-30 56q-7 11 -18 32.5t-11 22.5l-45 88q-2 5 -6 11
q-4 4 -6 9q-27 47 -46 71q-30 37 -58 42h-11h-8h-8h-12q-14 -139 -15 -149l-16 -184h-42h-38q-25 0 -37 -1h-94q28 271 39 403q17 199 30 402q85 -3 275 -3q149 -2 227 -45q87 -54 87 -161q0 -85 -54 -149q-53 -64 -134 -84q7 -6 14 -12.5t14 -15.5t11.5 -15t11.5 -17
t10 -16l10.5 -17.5t9.5 -16.5h-1l14 -30l109 -204q27 20 37 30zM813 847h100q93 0 137 29q48 32 48 112q0 59 -53 82q-32 13 -98 15h-10h-30q-11 -1 -31 -1h-43q-4 -51 -7 -80q-4 -40 -6 -81z" />
    <glyph glyph-name="macron" unicode="&#xaf;" horiz-adv-x="939" 
d="M370 1515l-17 -29q10 -19 10 -42q0 -34 -43 -92q49 0 77 1q27 0 83.5 0.5t84.5 0.5h76h76q27 0 83 -0.5t83 -0.5q27 -1 76 -1q-31 44 -31 70q0 33 44 94q-96 -2 -160 -2q-29 -1 -84 -1q-28 -1 -77 -1q-142 0 -281 3z" />
    <glyph glyph-name="degree" unicode="&#xb0;" horiz-adv-x="907" 
d="M615 1499q-140 0 -228 -88v1q-50 -46 -77 -121q-23 -65 -23 -137q0 -111 61 -187q74 -84 215 -84q136 0 226 84v-1q51 48 76 115.5t25 138.5q0 124 -77 203q-78 76 -198 76zM610 1403q61 0 104 -35q44 -37 44 -96q0 -72 -54 -123q-51 -48 -125 -48q-63 2 -105 37
q-45 37 -45 100q0 71 56 119q54 46 125 46z" />
    <glyph glyph-name="plusminus" unicode="&#xb1;" horiz-adv-x="1651" 
d="M765 1254l-11 -142q-9 -125 -18 -221q-292 2 -512 12q-1 -6 -1.5 -20.5t-0.5 -21.5l-3 -50q-2 -34 -3 -50l-3 -43q209 -5 508 -5l-8.5 -93.5t-7.5 -86.5q-12 -120 -17 -181h177q19 235 30 351v5q-1 1 0 5q281 0 509 4l5 50q1 25 5 49l3 19q4 29 5 47q0 3 0.5 10t1.5 10
q-221 -9 -513 -11q19 212 38 363h-184zM167 215l-19 -16q-6 -41 -17 -95q-8 -34 -11 -50q-2 -10 -6 -27.5t-4 -18.5q348 25 646 25q291 0 629 -25l-3 48q-1 9 -1.5 27.5t-0.5 27.5q-4 74 -4 103q-310 19 -606 19q-271 0 -603 -18z" />
    <glyph glyph-name="twosuperior" unicode="&#xb2;" horiz-adv-x="994" 
d="M551 855l51 44q124 105 174 162q89 101 119 203q2 16 2 33q0 108 -97 158q-77 38 -192 38q-108 0 -267 -41q-3 -51 -3 -64v-17q-1 -7 -1 -22q-1 -8 -1 -22q-1 -7 -1 -17q158 60 259 60q55 0 95 -28q45 -32 45 -80v-7q0 -5 -1 -8q-33 -76 -109 -155q-61 -65 -145 -135
q-34 -30 -48 -41q-17 -15 -47 -43q-31 -23 -65 -56l-40 -34q0 -4 -1 -8q-1 -5 -1 -11q0 -2 -1.5 -10.5t-2.5 -13.5q-1 -9 -5 -29t-5 -29l-5 -25q179 19 311 19q139 0 297 -19v29q-2 48 -2 74v30q-149 13 -283 13h-48q-32 0 -48 -1z" />
    <glyph glyph-name="threesuperior" unicode="&#xb3;" horiz-adv-x="952" 
d="M891 1313q0 103 -99 148q-72 33 -189 33q-89 0 -258 -23v-30v-19q0 -12 -1 -19v-13v-18q-1 -7 -1 -18v-14q154 30 232 30q61 0 101 -16q52 -23 52 -68q0 -61 -53 -93q-45 -29 -110 -29h-16q-6 0 -9 1h-8h-79l-3 -40q-1 -23 -3 -41l-2 -41h93q3 1 10 1h10q61 0 106 -27
q50 -30 50 -85q0 -77 -68 -116q-53 -32 -138 -32q-145 0 -239 42l-7 -60q-7 -49 -13 -79q140 -27 253 -27q79 2 139 13q78 15 141 54q50 35 73 91q19 48 19 109t-37 112q-38 50 -94 70q65 25 105 79q43 56 43 125z" />
    <glyph glyph-name="acute" unicode="&#xb4;" horiz-adv-x="823" 
d="M657 1616l-14 -6q-62 -70 -136 -162q-85 -102 -108 -128q-80 -90 -113 -125l45 3q25 2 54 3q56 3 99 3q73 69 181 187l54 57q10 11 31 32t31 32q73 73 120 116q-32 -3 -122 -7l-66 -3q-42 -2 -56 -2z" />
    <glyph glyph-name="mu" unicode="&#xb5;" horiz-adv-x="1508" 
d="M158 -377l21 -23q68 9 174 15q25 194 53 495q32 -55 98 -86q58 -29 132 -29h23q75 0 145 36q71 36 120 94q13 -58 48 -94q38 -41 95 -41q22 0 48.5 9.5t43.5 19t48 28.5h-1q2 1 22 13.5t29 17.5l3 37q1 14 3 44l3 43q0 6 0.5 18.5t1.5 17.5l-38 -12q-20 -11 -36 -11
q-34 0 -57 11q-30 14 -30 39v3q42 455 107 827l-78 -4q-45 -4 -120 -6q-38 -248 -59 -424v1q-22 -152 -89 -232q-76 -72 -193 -72q-59 0 -100 14q-53 18 -86 58q-41 57 -41 155q0 11 2 37q10 194 12 479q-7 1 -22 1.5t-23 0.5l-51 3q-88 5 -97 6v-110q0 -706 -111 -1379z
" />
    <glyph glyph-name="paragraph" unicode="&#xb6;" horiz-adv-x="1564" 
d="M744 1451h-1q-104 0 -177 -19q-99 -26 -165 -78q-74 -57 -108 -148q-29 -77 -29 -175q0 -156 92 -265q90 -99 189 -123q-77 -456 -155 -805q84 5 170 8q60 2 170 2q38 480 127 1466q104 0 161 3q-97 -778 -132 -1472q180 -4 371 -30q-77 582 -77 1369q0 104 2 280
q-194 -14 -348 -14h-45q-30 0 -45 1z" />
    <glyph glyph-name="periodcentered" unicode="&#xb7;" horiz-adv-x="558" 
d="M230 845l-22 -19q0 -120 -26 -251q78 7 119 7q43 0 112 -6q0 145 27 272q-59 -8 -120 -8q-51 0 -90 5z" />
    <glyph glyph-name="cedilla" unicode="&#xb8;" horiz-adv-x="700" 
d="M296 24h-27q-44 -2 -69 -2h-28q37 -63 49 -88q23 -48 23 -85t-30 -60t-67 -23q-7 0 -10 1h-14q-71 0 -133 33l-7 -47q-10 -69 -18 -103q90 -18 167 -18q106 0 173 30q41 21 64 69q20 41 20 89q0 89 -76 197z" />
    <glyph glyph-name="onesuperior" unicode="&#xb9;" horiz-adv-x="979" 
d="M323 788l-18 -18q-1 -13 -5 -37q-3 -12 -7 -38l-2 -35q145 15 270 15q128 0 290 -18q-3 39 -3 60q0 35 2 69q-93 10 -193 12q24 347 64 682h-19q-30 -2 -46 -2h-19h-63q-126 -18 -232 -22v-30q-1 -15 -1 -35v-15q-1 -6 -1 -19v-19v-16q25 1 89 9q67 9 88 12l32 5
q-11 -153 -22 -275l-12 -135q-9 -104 -13 -140q-102 -2 -179 -10z" />
    <glyph glyph-name="ordmasculine" unicode="&#xba;" horiz-adv-x="1092" 
d="M666 1477q-83 0 -150 -21q-86 -28 -134 -79q-63 -61 -89 -158q-23 -80 -23 -175q0 -157 71 -249q41 -51 113 -77q62 -24 140 -24q85 0 148 21q76 24 131 80h-1q66 66 99 178q25 86 25 193q0 135 -66 211h1q-45 56 -119 80q-61 20 -146 20zM660 1383h8q78 0 125 -47
q49 -49 49 -129q0 -106 -58 -182q-64 -84 -166 -84q-85 0 -134 55q-48 54 -48 141q0 123 68 187q55 59 156 59zM246 537l-10 -73q190 17 346 17q162 0 341 -16v19q-1 9 -1 19v49q0 14 1 26v25q-178 12 -328 12q-161 0 -322 -12l-18 -16z" />
    <glyph glyph-name="guillemotright" unicode="&#xbb;" horiz-adv-x="1253" 
d="M290 1063l-34 -12q-1 -9 -1 -27v-28q0 -60 -6 -112l28 -31q54 -61 108 -120l108 -120q-144 -108 -309 -240q-1 -33 -7 -127q-2 -23 -5 -66.5t-5 -60.5l66 50q78 60 145 110l66 50l253 192q-3 12 -11 64l-10 62q-253 275 -386 416zM710 1026l-34 -10q-6 -32 -8 -52
q-1 -8 -3.5 -26t-4.5 -27l-8 -60l72 -78q85 -93 116 -129l45 -52q-175 -136 -303 -232q1 -8 1.5 -27t0.5 -29q0 -2 6 -130q0 -10 0.5 -29t1.5 -27l251 187q89 67 248 192l-15 78q0 2 -1.5 11t-2.5 14t-2.5 13.5t-1.5 10.5q-232 267 -358 402z" />
    <glyph glyph-name="onequarter" unicode="&#xbc;" horiz-adv-x="1779" 
d="M1248 1120q-54 -77 -274 -401q-308 -459 -501 -724l-43 -4l-31 -3q-7 0 -20 -2t-20 -2q-7 -1 -20.5 -2.5t-19.5 -1.5q-4 -1 -31 -4q100 137 267 378q75 109 133 194q77 114 79 117q-107 10 -206 10q-125 0 -270 -15l2 35q4 26 7 38q4 24 5 37l18 18q77 8 179 10
q4 36 13 140l12 135q11 122 22 275l-32 -5q-21 -3 -88 -12q-64 -8 -89 -9v16v19q0 13 1 19v15q0 20 1 35v30q106 4 232 22h63h19q16 0 46 2h19q-40 -335 -64 -682q99 -2 192 -12q279 415 489 703l13 8q33 3 41 4q14 1 49 5q17 1 49 5l40 5q-92 -124 -282 -396zM1533 292
q9 -1 24 -1q-2 -13 -3 -34l-3 -36q0 -25 -4 -52h-28q-4 0 -12.5 0.5t-12.5 1.5q-14 0 -21 1q-28 2 -48 2q-4 -75 -4 -177q-5 1 -17.5 1.5t-18.5 0.5q-28 0 -43 1q-60 2 -80 2q0 5 1.5 29t2.5 39t2.5 39t1.5 29l3 38h-58q-144 0 -326 -9q2 21 4 31l9 71q1 6 2.5 16t1.5 14
q195 252 401 493l15 7q106 2 169 6q-33 -195 -58 -510h10q3 -1 10 -1q6 0 24 -0.5t28 -0.5q9 -1 28 -1zM1216 296h65q16 207 32 348q-21 -24 -101 -124l-101 -125l-81 -100q26 0 43 1h50h51h42z" />
    <glyph glyph-name="onehalf" unicode="&#xbd;" horiz-adv-x="2100" 
d="M1530 1516q-92 -124 -282 -396q-54 -77 -274 -401q-308 -459 -501 -724l-43 -4l-31 -3q-7 0 -20 -2t-20 -2q-7 -1 -20.5 -2.5t-19.5 -1.5q-4 -1 -31 -4q100 137 267 378q75 109 133 194q77 114 79 117q-107 10 -206 10q-125 0 -270 -15l2 35q4 26 7 38q4 24 5 37l18 18
q77 8 179 10q4 36 13 140l12 135q11 122 22 275l-32 -5q-21 -3 -88 -12q-64 -8 -89 -9v16v19q0 13 1 19v15q0 20 1 35v30q106 4 232 22h63h19q16 0 46 2h19q-40 -335 -64 -682q99 -2 192 -12q279 415 489 703l13 8q33 3 41 4q14 1 49 5q17 1 49 5zM1515 189l-66 -53
q16 1 48 1h48q134 0 283 -13v-30q0 -26 2 -74v-29q-158 19 -297 19q-132 0 -311 -19q0 3 1 7t2 9t2 9q1 9 5 29t5 29q1 5 2.5 13.5t1.5 10.5q0 6 1 11q1 4 1 8l40 34q34 33 65 56q30 28 47 43q14 11 48 41q84 70 145 135q76 79 109 155q1 3 1 8v7q0 48 -45 80q-40 28 -95 28
q-101 0 -259 -60q0 10 1 17q0 14 1 22q0 15 1 22v17q0 13 3 64q159 41 267 41q115 0 192 -38q97 -50 97 -158q0 -17 -2 -33q-30 -102 -119 -203q-50 -57 -174 -162z" />
    <glyph glyph-name="threequarters" unicode="&#xbe;" horiz-adv-x="1747" 
d="M1216 1120q-54 -77 -274 -401q-308 -459 -501 -724l-43 -4l-31 -3q-7 0 -20.5 -2t-19.5 -2q-7 -1 -20.5 -2.5t-19.5 -1.5q-4 -1 -31 -4q100 137 267 378q75 109 133 194q20 30 59 88t58 86q-61 -36 -132 -49q-60 -11 -139 -13q-113 0 -253 27q6 30 13 79l7 60
q94 -42 239 -42q85 0 138 32q68 39 68 116q0 55 -50 85q-45 27 -106 27h-10q-7 0 -10 -1h-93l2 41l3 41q1 22 3 40h79h8q3 -1 9 -1h16q65 0 110 29q53 32 53 93q0 45 -52 68q-40 16 -101 16q-78 0 -232 -30v14q0 11 1 18v18v13q1 7 1 19v19v30q169 23 258 23q117 0 189 -33
q99 -45 99 -148q0 -69 -43 -125q-40 -54 -105 -79q56 -20 94 -70q37 -51 37 -112q0 -33 -6 -65q257 379 438 627l13 8q33 3 41 4q14 1 49 5q17 1 49 5l40 5q-92 -124 -282 -396zM1501 292q9 -1 24 -1q-2 -13 -3 -34l-3 -36q0 -25 -4 -52h-28q-4 0 -12.5 0.5t-12.5 1.5
q-14 0 -21 1q-28 2 -48 2q-4 -75 -4 -177q-5 1 -17.5 1.5t-18.5 0.5q-28 0 -43 1q-60 2 -80 2q0 5 1.5 29t2.5 39t2.5 39t1.5 29l3 38h-58q-144 0 -326 -9q2 21 4 31l9 71q1 6 2.5 16t1.5 14q195 252 401 493l15 7q106 2 169 6q-33 -195 -58 -510h10q3 -1 10 -1q6 0 24 -0.5
t28 -0.5q9 -1 28 -1zM1184 296h65q16 207 32 348q-21 -24 -101 -124l-101 -125l-81 -100q26 0 43 1h50h51h42z" />
    <glyph glyph-name="questiondown" unicode="&#xbf;" horiz-adv-x="1104" 
d="M718 1214l14 123q2 21 7 62t7 61q-39 -4 -108 -4q-20 -1 -59 -1q-19 -1 -51 -1q-4 -37 -5 -61l-6 -69q-2 -26 -5.5 -71t-4.5 -59q134 0 193 3zM490 953l-3 -25q-6 -66 -18 -97q-17 -40 -82 -103l-13 -11v1l-41 -39q-3 -3 -19.5 -18.5t-20 -19t-18 -17.5t-20 -19.5
t-17 -17.5t-18 -20t-16 -18.5t-17 -20.5t-14.5 -20q-71 -102 -71 -222q0 -149 119 -220q95 -57 248 -57q205 0 387 86q1 9 1.5 30t0.5 32l3 71q5 120 6 132q-108 -60 -177 -85q-100 -35 -173 -35q-80 0 -134 34q-64 40 -64 116q0 55 36 111q27 42 81 89q45 40 69.5 62.5
t59 60t56.5 71.5q26 48 36 136l13 158h-38q-15 -1 -45 -1h-47h-39z" />
    <glyph glyph-name="Agrave" unicode="&#xc0;" horiz-adv-x="1670" 
d="M598 1658l-70 86l-30 35q35 -4 100 -6q9 0 27.5 -0.5t27.5 -1.5q17 -1 45 -1l15 -8q23 -31 63 -95q35 -56 47 -73q24 -34 74 -95q-78 4 -88 4q-8 0 -24.5 0.5t-24.5 1.5q-16 1 -39 1q-10 12 -47 57l-46 57q-21 25 -30 38zM1209 544q93 -294 195 -537q-43 4 -151 12
q-31 2 -85 5.5t-68 4.5q-29 119 -51 233q-103 3 -306 3q-201 0 -309 -3q-15 -39 -52 -118q-47 -95 -56 -116q-7 0 -30.5 -1.5t-37.5 -2.5l-77 -6q-55 -4 -78 -5l-69 -6q92 158 188.5 346t158.5 318t157 337q169 363 210 447h197q31 -104 110 -386q96 -342 154 -525zM893 507
h107q-36 147 -49 205q-32 136 -49 205q-9 38 -37 161l-39 161l-120 -297q-113 -275 -181 -435q40 1 118 1h117h67q22 -1 66 -1z" />
    <glyph glyph-name="Aacute" unicode="&#xc1;" horiz-adv-x="1670" 
d="M823 1503q-6 -1 -17.5 -1.5t-17.5 -0.5q-27 -1 -62 -4q48 50 90 98q43 50 67 81v-1q68 82 73 88l14 7q28 0 47 1q10 1 29 1t28 1q69 2 104 6q-55 -50 -102 -97q-25 -25 -35 -36q-34 -37 -81 -87l-53 -53q-34 -2 -57 -2q-16 0 -27 -1zM1209 544q93 -294 195 -537
q-43 4 -151 12q-31 2 -85 5.5t-68 4.5q-29 119 -51 233q-103 3 -306 3q-201 0 -309 -3q-15 -39 -52 -118q-47 -95 -56 -116q-7 0 -30.5 -1.5t-37.5 -2.5l-77 -6q-55 -4 -78 -5l-69 -6q92 158 188.5 346t158.5 318t157 337q169 363 210 447h197q31 -104 110 -386
q96 -342 154 -525zM893 507h107q-36 147 -49 205q-32 136 -49 205q-9 38 -37 161l-39 161l-120 -297q-113 -275 -181 -435q40 1 118 1h117h67q22 -1 66 -1z" />
    <glyph glyph-name="Acircumflex" unicode="&#xc2;" horiz-adv-x="1670" 
d="M569 1522q-10 -1 -27 -1h-18q72 63 123 118q19 21 85 99h-1l44 54h192l30 -48v1q39 -66 70 -105q46 -62 106 -119h-17q-17 0 -26 1h-26h-17q-48 2 -81 2q-52 47 -120 134v1q-6 7 -12 13q-4 4 -11 14l-16 -16q-106 -106 -155 -146q-31 0 -79 -2h-17h-27zM1209 544
q93 -294 195 -537q-43 4 -151 12q-31 2 -85 5.5t-68 4.5q-29 119 -51 233q-103 3 -306 3q-201 0 -309 -3q-15 -39 -52 -118q-47 -95 -56 -116q-7 0 -30.5 -1.5t-37.5 -2.5l-77 -6q-55 -4 -78 -5l-69 -6q92 158 188.5 346t158.5 318t157 337q169 363 210 447h197
q31 -104 110 -386q96 -342 154 -525zM893 507h107q-36 147 -49 205q-32 136 -49 205q-9 38 -37 161l-39 161l-120 -297q-113 -275 -181 -435q40 1 118 1h117h67q22 -1 66 -1z" />
    <glyph glyph-name="Atilde" unicode="&#xc3;" horiz-adv-x="1670" 
d="M667 1533h-21q-8 -1 -22 -1h-17l26 64q4 8 10.5 23.5t9.5 20.5q9 23 22 43q24 37 61 56.5t76 19.5h16q31 0 63 -9.5t52.5 -20.5t54.5 -31l-1 1q1 -1 3 -2.5t3.5 -2t3 -2l2.5 -2.5q33 -21 67 -21q-2 2 8 9q26 18 54 34q8 4 23 13l-11 35q50 2 75 2h14q12 0 19 1h18h14
l-24 -53q-40 -84 -67 -117q-49 -58 -116 -58q-30 0 -58 6t-44.5 13.5t-46.5 21.5h-1l-32 20q-52 33 -76 33q-27 0 -49 -31q-20 -27 -28 -61l-36 6q0 -6 -8 -8q-22 -2 -37 -2zM1209 544q93 -294 195 -537q-43 4 -151 12q-31 2 -85 5.5t-68 4.5q-29 119 -51 233q-103 3 -306 3
q-201 0 -309 -3q-15 -39 -52 -118q-47 -95 -56 -116q-7 0 -30.5 -1.5t-37.5 -2.5l-77 -6q-55 -4 -78 -5l-69 -6q92 158 188.5 346t158.5 318t157 337q169 363 210 447h197q31 -104 110 -386q96 -342 154 -525zM893 507h107q-36 147 -49 205q-32 136 -49 205q-9 38 -37 161
l-39 161l-120 -297q-113 -275 -181 -435q40 1 118 1h117h67q22 -1 66 -1z" />
    <glyph glyph-name="Adieresis" unicode="&#xc4;" horiz-adv-x="1670" 
d="M550 1903l-19 -25q9 -33 9 -68q0 -64 -42 -140q9 1 28 1.5t29 0.5q43 0 66 1q88 2 121 2q18 87 18 167q0 33 -2 57q-17 1 -51.5 1.5t-52.5 0.5q-40 0 -104 2zM956 1899l-17 -15q-19 -78 -19 -145q0 -34 4 -63q96 -3 114 -3l124 -2q-22 57 -22 93q0 55 43 139l-130 -2
q-33 0 -97 -2zM945 1455h-197q-41 -84 -210 -447q-95 -207 -157 -337t-158.5 -318t-188.5 -346l69 6q23 1 78 5l77 6q14 1 37.5 2.5t30.5 1.5q9 21 56 116q37 79 52 118q108 3 309 3q203 0 306 -3q22 -114 51 -233q14 -1 68 -4.5t85 -5.5q108 -8 151 -12q-102 243 -195 537
q-58 183 -154 525q-79 282 -110 386zM902 917q17 -69 49 -205q13 -58 49 -205h-107q-44 0 -66 1h-67h-117q-78 0 -118 -1q113 267 181 435l120 297l39 -161q28 -123 37 -161z" />
    <glyph glyph-name="Aring" unicode="&#xc5;" horiz-adv-x="1669" 
d="M614 1206q-146 -320 -281 -604q-158 -332 -300 -597l54 7q20 2 63 6t64 6q12 1 31 2.5t23 1.5q77 155 177 370q200 5 345 5q179 0 270 -3q53 -189 116 -371q9 -1 53 -5l61 -6q76 -7 113 -12q-94 243 -185 542q-66 216 -150 522l-80 284q64 46 100.5 113t36.5 142
q0 100 -70 168q-70 67 -170 67q-126 0 -211 -80q-89 -84 -89 -206q0 -60 26 -113t72 -89l-34 -75q-7 -14 -18.5 -39.5t-16.5 -35.5zM988 1578v-1q-6 -55 -48 -94q-43 -41 -95 -41q-51 0 -88 35t-37 86q0 61 45 103q43 41 103 41q51 0 86 -32q35 -33 35 -83v-6q0 -5 -1 -8z
M826 1232l64 -237q10 -35 28 -104t28 -103l57 -209q-39 0 -56 1h-53h-52h-58h-126q-41 0 -127 -2q74 160 116 256l57 125q11 24 31.5 70.5t26.5 60.5z" />
    <glyph glyph-name="AE" unicode="&#xc6;" horiz-adv-x="2145" 
d="M1982 1459l-20 24q-416 -28 -886 -28h-146q-53 0 -147 2l-115 -245q-184 -398 -287 -598q-174 -340 -347 -607l94 6q125 7 209 11q19 1 50.5 2.5t42.5 1.5q9 61 27 196l6 54q248 6 478 6q-1 -7 -1 -18l-3 -27q-1 -3 -1.5 -9t-0.5 -9q-13 -147 -16 -184q251 0 481 -7
q221 -7 479 -22q-9 87 -12 137q-7 80 -8 137q-370 18 -707 19l9 118l10 124q376 0 650 -5q2 51 7 105q1 3 1.5 9t0.5 9q0 14 1 22q2 30 2 40h-647q7 88 26 276q13 153 29 276q394 5 704 22q26 121 37 162zM823 1055l99 231q19 -1 54 -1h52q-46 -538 -72 -823q-136 0 -200 -1
l-199 -3q80 165 266 597z" />
    <glyph glyph-name="Ccedilla" unicode="&#xc7;" horiz-adv-x="1529" 
d="M1373 1358l24 -2q-4 -19 -9 -52q-1 -8 -4.5 -28t-5.5 -31q-10 -55 -17 -112q-83 83 -186 127t-210 44q-115 0 -205 -27q-112 -33 -184 -106h1q-93 -98 -132 -241q-34 -120 -34 -258q0 -85 19 -146q23 -75 72 -118l-1 1q67 -54 173 -76q82 -17 193 -17q110 0 218 46
q116 49 213 136q-1 -14 -6 -165q-4 -118 -4 -164v-42q-189 -118 -446 -118q-24 0 -74 2q18 -47 18 -92q0 -48 -20 -89q-23 -48 -64 -69q-67 -30 -173 -30q-77 0 -167 18q8 34 18 103l7 47q62 -33 133 -33h14q3 -1 10 -1q37 0 67 23t30 60t-23 85q-21 5 -61 17
q-146 46 -237 149q-67 84 -98 202q-27 99 -27 230q0 179 47 341q58 199 171 317q107 103 266 152q129 40 295 40q257 0 417 -113z" />
    <glyph glyph-name="Egrave" unicode="&#xc8;" horiz-adv-x="1532" 
d="M625 1762l-15 8q-28 0 -45 1q-9 1 -27.5 1.5t-27.5 0.5q-65 2 -100 6l30 -35l70 -86q9 -13 30 -38l46 -57q37 -45 47 -57q23 0 39 -1q8 -1 24.5 -1.5t24.5 -0.5q10 0 88 -4q-50 61 -74 95q-12 17 -47 73q-40 64 -63 95zM458 1484l-23 -19q-6 -732 -129 -1458
q272 30 488 30q225 0 472 -30v77q0 56 1 85q2 115 5 161q-235 19 -455 19q-110 0 -252 -5q2 17 5.5 48t4.5 43l10 88q8 74 16 179h307q111 0 172 1h172q0 14 1 25t1 25q6 79 16 134q-274 -6 -431 -6q-70 0 -222 2q2 26 6.5 95t7.5 105q7 95 12 198q130 -7 264 -7
q218 0 441 23q4 29 16 105l14 83q-260 -31 -478 -31q-223 0 -442 30z" />
    <glyph glyph-name="Eacute" unicode="&#xc9;" horiz-adv-x="1441" 
d="M912 2323l-14 -6q-62 -70 -136 -162q-85 -102 -108 -128q-80 -90 -113 -125l45 3q26 1 54 3q55 3 99 3q73 69 181 187l54 57q10 11 31 32t31 32q73 73 120 116q-32 -3 -122 -7l-66 -3q-42 -2 -56 -2zM367 1484l-23 -19q-6 -732 -129 -1458q272 30 488 30q225 0 472 -30
v77q0 56 1 85q2 115 5 161q-235 19 -455 19q-110 0 -252 -5q2 17 5.5 48t4.5 43l10 88q8 74 16 179h307q111 0 172 1h172q0 14 1 25t1 25q6 79 16 134q-274 -6 -431 -6q-70 0 -222 2q2 26 6.5 95t7.5 105q8 95 12 198q130 -7 264 -7q218 0 441 23q4 29 16 105l14 83
q-260 -31 -478 -31q-223 0 -442 30z" />
    <glyph glyph-name="Ecircumflex" unicode="&#xca;" horiz-adv-x="1441" 
d="M598 1718h1q-66 -78 -85 -99q-51 -55 -123 -118h18q17 0 27 1h27h17q48 2 79 2q49 40 155 146l16 16q8 -10 11 -14q6 -6 12 -13v-1q68 -87 120 -134q33 0 81 -2h17h26q9 -1 26 -1h17q-60 57 -106 119q-31 39 -70 105v-1l-30 48h-192zM367 1484l-23 -19
q-6 -732 -129 -1458q272 30 488 30q225 0 472 -30v77q0 56 1 85q2 115 5 161q-235 19 -455 19q-110 0 -252 -5q2 17 5.5 48t4.5 43l10 88q8 74 16 179h307q111 0 172 1h172q0 14 1 25t1 25q6 79 16 134q-274 -6 -431 -6q-70 0 -222 2q2 26 6.5 95t7.5 105q8 95 12 198
q130 -7 264 -7q218 0 441 23q4 29 16 105l14 83q-260 -31 -478 -31q-223 0 -442 30z" />
    <glyph glyph-name="Edieresis" unicode="&#xcb;" horiz-adv-x="1441" 
d="M910 1744l-18 -14q-17 -67 -17 -134q0 -35 2 -61h39q16 -1 39 -1h34q13 -1 39 -1q13 -1 38 -1q13 -1 34 -1q-20 58 -20 88q0 48 40 130q-15 -1 -49 -1q-9 0 -27.5 -1t-28.5 -1q-74 -2 -105 -2zM535 1748l-20 -25q10 -30 10 -63q0 -57 -38 -129q22 0 35 1q26 0 40 1
q27 0 40 1h33q22 0 38 1h37q19 89 19 158v7q-1 2 -1 8v36q-15 1 -47.5 1.5t-48.5 0.5q-37 0 -97 2zM367 1484l-23 -19q-6 -732 -129 -1458q272 30 488 30q225 0 472 -30v77q0 56 1 85q2 115 5 161q-235 19 -455 19q-110 0 -252 -5q2 17 5.5 48t4.5 43l10 88q8 74 16 179h307
q111 0 172 1h172q0 14 1 25t1 25q6 79 16 134q-274 -6 -431 -6q-70 0 -222 2q2 26 6.5 95t7.5 105q8 95 12 198q130 -7 264 -7q218 0 441 23q4 29 16 105l14 83q-260 -31 -478 -31q-223 0 -442 30z" />
    <glyph glyph-name="Igrave" unicode="&#xcc;" horiz-adv-x="1106" 
d="M625 1762l-15 8q-28 0 -45 1q-9 1 -27.5 1.5t-27.5 0.5q-65 2 -100 6l30 -35l70 -86q9 -13 30 -38l46 -57q37 -45 47 -57q23 0 39 -1q8 -1 24.5 -1.5t24.5 -0.5q10 0 88 -4q-50 61 -74 95q-12 17 -47 73q-40 64 -63 95zM764 1467l-26 -16q-74 -778 -159 -1456
q86 42 136 42q52 0 122 -41q22 408 49 746q27 363 61 745q-72 -32 -114 -32q-30 0 -69 12z" />
    <glyph glyph-name="Iacute" unicode="&#xcd;" horiz-adv-x="940" 
d="M616 1870l-14 -7q-5 -6 -73 -88v1q-24 -31 -67 -81q-42 -48 -90 -98q35 3 62 4q6 0 17.5 0.5t17.5 1.5q11 1 27 1q23 0 57 2q8 7 16.5 15.5t19.5 20t17 17.5q47 50 81 87q10 11 35 36q47 47 102 97q-35 -4 -104 -6q-10 -1 -29 -1t-28 -1q-19 -1 -47 -1zM598 1467l-26 -16
q-74 -778 -159 -1456q86 42 136 42q52 0 122 -41q22 408 49 746q27 363 61 745q-72 -32 -114 -32q-30 0 -69 12z" />
    <glyph glyph-name="Icircumflex" unicode="&#xce;" horiz-adv-x="1075" 
d="M558 1718h1q-66 -78 -85 -99q-51 -55 -123 -118h18q17 0 27 1h27h17q48 2 79 2q49 40 155 146l16 16q8 -10 11 -14q6 -6 12 -13v-1q68 -87 120 -134q33 0 81 -2h17h26q9 -1 26 -1h17q-60 57 -106 119q-31 39 -70 105v-1l-30 48h-192zM733 1467l-26 -16
q-74 -778 -159 -1456q86 42 136 42q52 0 122 -41q22 408 49 746q27 363 61 745q-72 -32 -114 -32q-30 0 -69 12z" />
    <glyph glyph-name="Idieresis" unicode="&#xcf;" horiz-adv-x="925" 
d="M793 1744l-18 -14q-17 -67 -17 -134q0 -35 2 -61h39q16 -1 39 -1h34q13 -1 39 -1q13 -1 38 -1q13 -1 34 -1q-20 58 -20 88q0 48 40 130q-15 -1 -49 -1q-10 0 -28 -1t-28 -1q-74 -2 -105 -2zM418 1748l-20 -25q10 -30 10 -63q0 -57 -38 -129q22 0 35 1q26 0 40 1
q27 0 40 1h33q22 0 38 1h37q19 89 19 158v7q-1 2 -1 8v36q-15 1 -47.5 1.5t-48.5 0.5q-37 0 -97 2zM556 1467l-26 -16q-74 -778 -159 -1456q86 42 136 42q52 0 122 -41q22 408 49 746q27 363 61 745q-72 -32 -114 -32q-30 0 -69 12z" />
    <glyph glyph-name="Eth" unicode="&#xd0;" horiz-adv-x="1676" 
d="M1535 1106q25 -91 25 -218t-15 -231q-20 -141 -65 -248q-55 -132 -147 -211q-120 -95 -300 -132q-117 -24 -320 -30q-115 0 -211 -4q-143 -6 -212 -10q58 314 93 669h-180q1 5 1.5 18t0.5 20l3 37q0 13 1 20q1 4 1.5 11.5t0.5 11.5q0 16 1 23t1 19h40q64 -2 91 -2
q15 -1 51 -1q23 275 23 601l20 19q89 -5 347 -12h25q9 -1 24 -1q214 -6 317 -28q175 -37 281 -135q69 -70 103 -186zM1316 589q28 113 28 269q0 89 -19 160q-22 80 -70 137q-73 70 -186 99q-88 22 -218 24l-221 2q-9 -163 -11 -216q-7 -120 -16 -217h308l-13 -155h-154
q-103 0 -154 -1q-8 -82 -11 -121q-15 -150 -26 -238q-2 -16 -7.5 -58t-8.5 -65l109 3q132 0 221 7q123 10 220 56q53 25 95 64h-1q92 84 135 250z" />
    <glyph glyph-name="Ntilde" unicode="&#xd1;" horiz-adv-x="1579" 
d="M575 1533h-21q-8 -1 -22 -1h-17l26 64q4 8 10.5 23.5t9.5 20.5q9 23 22 43q24 37 61 56.5t76 19.5h16q31 0 63 -9.5t52.5 -20.5t54.5 -31l-1 1q1 -1 3 -2.5t3.5 -2t3 -2l2.5 -2.5q33 -21 67 -21q-2 2 8 9q26 18 54 34q8 4 23 13l-11 35q50 2 75 2h14q12 0 19 1h18h14
l-24 -53q-40 -84 -67 -117q-49 -58 -116 -58q-30 0 -58 6t-44.5 13.5t-46.5 21.5h-1l-32 20q-52 33 -76 33q-27 0 -49 -31q-20 -27 -28 -61l-36 6q0 -6 -8 -8q-22 -2 -37 -2zM1442 1487q-131 -713 -131 -1344q0 -57 2 -135q-70 8 -150 14q-31 2 -86 5.5t-64 4.5
q-120 240 -307 675q-62 147 -102 244q-54 130 -105 241q-4 -563 -60 -1163q-7 0 -29 -1.5t-35 -2.5q-45 -4 -71 -5q-50 -4 -137 -13q149 697 169 1424l22 19q66 -8 186 -16q15 0 25 -1t25 -1q105 -206 304 -656q7 -15 24.5 -54t25.5 -59q74 -166 92 -203q9 -19 26.5 -57
t26.5 -56q45 592 146 1121q36 3 47 4q17 1 55 5q19 1 55 5t46 5z" />
    <glyph glyph-name="Ograve" unicode="&#xd2;" 
d="M755 1862l-15 8q-28 0 -45 1q-9 1 -27.5 1.5t-27.5 0.5q-65 2 -100 6l30 -35l70 -86q9 -13 30 -38l46 -57q37 -45 47 -57q23 0 39 -1q8 -1 24.5 -1.5t24.5 -0.5q10 0 88 -4q-50 61 -74 95q-12 17 -47 73q-40 64 -63 95zM909 1480q-146 0 -268 -42q-140 -48 -233 -150h1
q-117 -123 -170 -323q-40 -152 -40 -347q0 -117 26 -220q29 -117 90 -196q75 -98 202 -147q115 -45 252 -45q149 0 273 41q140 46 238 150q114 130 166 322q44 160 44 348q0 124 -24 220q-28 112 -91 196q-73 98 -207 149q-115 44 -259 44zM897 1305q93 0 173 -37t129 -107
v1q75 -122 75 -319q0 -117 -23 -203q-36 -128 -117 -180q-129 -70 -322 -70q-89 0 -162 14q-89 17 -149 55q-48 29 -68 93q-17 50 -17 123q0 133 32 251q38 140 115 232q57 73 152 112q85 35 182 35z" />
    <glyph glyph-name="Oacute" unicode="&#xd3;" 
d="M812 1870l-14 -7q-5 -6 -73 -88v1q-24 -31 -67 -81q-42 -48 -90 -98q35 3 62 4q6 0 17.5 0.5t17.5 1.5q11 1 27 1q23 0 57 2l53 53q47 50 81 87q10 11 35 36q47 47 102 97q-35 -4 -104 -6q-10 -1 -29 -1t-28 -1q-19 -1 -47 -1zM909 1480q-146 0 -268 -42
q-140 -48 -233 -150h1q-117 -123 -170 -323q-40 -152 -40 -347q0 -117 26 -220q29 -117 90 -196q75 -98 202 -147q115 -45 252 -45q149 0 273 41q140 46 238 150q114 130 166 322q44 160 44 348q0 124 -24 220q-28 112 -91 196q-73 98 -207 149q-115 44 -259 44zM897 1305
q93 0 173 -37t129 -107v1q75 -122 75 -319q0 -117 -23 -203q-36 -128 -117 -180q-129 -70 -322 -70q-89 0 -162 14q-89 17 -149 55q-48 29 -68 93q-17 50 -17 123q0 133 32 251q38 140 115 232q57 73 152 112q85 35 182 35z" />
    <glyph glyph-name="Ocircumflex" unicode="&#xd4;" 
d="M719 1718h1q-66 -78 -85 -99q-51 -55 -123 -118h18q17 0 27 1h27h17q48 2 79 2q49 40 155 146l16 16q7 -10 11 -14q6 -6 12 -13v-1q68 -87 120 -134q33 0 81 -2h17h26q9 -1 26 -1h17q-60 57 -106 119q-31 39 -70 105v-1l-30 48h-192zM909 1480q-146 0 -268 -42
q-140 -48 -233 -150h1q-117 -123 -170 -323q-40 -152 -40 -347q0 -117 26 -220q29 -117 90 -196q75 -98 202 -147q115 -45 252 -45q149 0 273 41q140 46 238 150q114 130 166 322q44 160 44 348q0 124 -24 220q-28 112 -91 196q-73 98 -207 149q-115 44 -259 44zM897 1305
q93 0 173 -37t129 -107v1q75 -122 75 -319q0 -117 -23 -203q-36 -128 -117 -180q-129 -70 -322 -70q-89 0 -162 14q-89 17 -149 55q-48 29 -68 93q-17 50 -17 123q0 133 32 251q38 140 115 232q57 73 152 112q85 35 182 35z" />
    <glyph glyph-name="Otilde" unicode="&#xd5;" 
d="M975 1576h1q30 -14 46.5 -21.5t44.5 -13.5t58 -6q67 0 116 58q27 33 67 117l24 53h-14h-18q-7 -1 -19 -1h-14q-25 0 -75 -2l11 -35q-15 -9 -23 -13q-28 -16 -54 -34q-10 -7 -8 -9q-34 0 -67 21q-1 1 -3 2.5t-5 3.5t-4 3l1 -1q-34 20 -54.5 31t-52.5 20.5t-63 9.5h-16
q-39 0 -76 -19.5t-61 -56.5q-13 -20 -22 -43q-3 -5 -9.5 -20.5t-10.5 -23.5l-26 -64h17q14 0 22 1h21q15 0 37 2q8 2 8 8l36 -6q8 34 28 61q22 31 49 31q24 0 76 -33zM909 1480q-146 0 -268 -42q-140 -48 -233 -150h1q-117 -123 -170 -323q-40 -152 -40 -347q0 -117 26 -220
q29 -117 90 -196q75 -98 202 -147q115 -45 252 -45q149 0 273 41q140 46 238 150q114 130 166 322q44 160 44 348q0 124 -24 220q-28 112 -91 196q-73 98 -207 149q-115 44 -259 44zM897 1305q93 0 173 -37t129 -107v1q75 -122 75 -319q0 -117 -23 -203q-36 -128 -117 -180
q-129 -70 -322 -70q-89 0 -162 14q-89 17 -149 55q-48 29 -68 93q-17 50 -17 123q0 133 32 251q38 140 115 232q57 73 152 112q85 35 182 35z" />
    <glyph glyph-name="Odieresis" unicode="&#xd6;" 
d="M1030 1744l-18 -14q-17 -67 -17 -134q0 -35 2 -61h39q16 -1 39 -1h34q13 -1 39 -1q13 -1 38 -1q13 -1 34 -1q-20 58 -20 88q0 48 40 130q-15 -1 -49 -1q-9 0 -28 -1t-28 -1q-74 -2 -105 -2zM655 1748l-20 -25q10 -30 10 -63q0 -57 -38 -129q22 0 35 1q26 0 40 1
q27 0 40 1h33q22 0 38 1h37q19 89 19 158v7q-1 2 -1 8v36q-15 1 -47.5 1.5t-48.5 0.5q-37 0 -97 2zM909 1480q-146 0 -268 -42q-140 -48 -233 -150h1q-117 -123 -170 -323q-40 -152 -40 -347q0 -117 26 -220q29 -117 90 -196q75 -98 202 -147q115 -45 252 -45q149 0 273 41
q140 46 238 150q114 130 166 322q44 160 44 348q0 124 -24 220q-28 112 -91 196q-73 98 -207 149q-115 44 -259 44zM897 1305q93 0 173 -37t129 -107v1q75 -122 75 -319q0 -117 -23 -203q-36 -128 -117 -180q-129 -70 -322 -70q-89 0 -162 14q-89 17 -149 55q-48 29 -68 93
q-17 50 -17 123q0 133 32 251q38 140 115 232q57 73 152 112q85 35 182 35z" />
    <glyph glyph-name="multiply" unicode="&#xd7;" horiz-adv-x="1424" 
d="M893 661l402 378q-11 12 -21 27q-8 9 -24 29q-34 38 -47 54h1l-53 63q-244 -215 -415 -376q-65 76 -108 121q-27 29 -111 119l-98 106l-56 -55l-58 -57l-58 -58q74 -87 204 -235l51 -57q34 -38 50 -57q-69 -65 -182 -169q-88 -83 -207 -196l14 -16l15 -18q3 -4 9 -11
t7 -8l13 -17q68 -82 85 -102q146 126 402 363q196 -217 341 -362q12 11 43 42q24 25 43 43q11 13 42 44q17 16 43 42q-164 179 -327 363z" />
    <glyph glyph-name="Oslash" unicode="&#xd8;" 
d="M1542 1392q-40 -40 -56 -57l-86 -90q90 -156 90 -389q0 -182 -46 -341q-54 -187 -166 -314q-93 -100 -235 -149q-123 -42 -271 -42q-240 0 -397 128q-27 -27 -40 -41q-55 -59 -93 -98q-9 -10 -27 -28.5t-26 -26.5l-22 22q-4 4 -8.5 8t-9.5 9.5t-8 8.5l-27 27
q-14 12 -21 21q37 42 107 114l85 89q-88 157 -88 382q0 186 43 343q55 199 167 319q92 98 233 148q123 44 268 44q117 0 216 -30q108 -33 186 -100q102 107 189 194l29 -26q5 -5 10 -10.5t10.5 -10.5t7.5 -7q3 -4 13 -13q9 -10 29 -26q-8 -8 -26.5 -27.5t-29.5 -30.5z
M389 730q0 -132 96 -262l294 315q157 170 388 415q-48 79 -109 106q-90 38 -201 38q-93 0 -175 -36q-89 -40 -147 -109q-74 -92 -112 -224q-34 -115 -34 -243zM1277 825q3 32 3 62q0 89 -39 186l-284 -307q-20 -21 -85.5 -91.5t-102.5 -111.5q-114 -125 -192 -205
q48 -30 93 -34q47 -3 144 -3q97 15 160 39q88 32 143 83v-1q62 63 103 169q26 67 55 189q0 8 1 13t1 12z" />
    <glyph glyph-name="Ugrave" unicode="&#xd9;" horiz-adv-x="1523" 
d="M715 1862l-15 8q-28 0 -45 1q-9 1 -27.5 1.5t-27.5 0.5q-65 2 -100 6l30 -35l70 -86q9 -13 30 -38l46 -57q37 -45 47 -57q23 0 39 -1q8 -1 24.5 -1.5t24.5 -0.5q10 0 88 -4q-50 61 -74 95q-12 17 -47 73q-40 64 -63 95zM343 1464v-69q0 -379 -45 -827q-7 -72 -7 -127
q0 -92 20 -161q25 -88 77 -147q67 -71 182 -101q88 -23 215 -23t223 26q120 33 207 115q76 81 111 197q28 91 37 217q40 527 118 921l-76 -7q-64 -7 -144 -13q-15 -87 -27 -180q-30 -216 -45 -375q-6 -52 -19 -182q-9 -99 -29 -169q-26 -90 -73 -153q-43 -49 -120 -72
q-62 -19 -141 -19q-80 0 -138 17q-72 21 -107 72h1q-51 76 -51 215q0 46 5 104q34 417 41 740q-86 6 -193 20z" />
    <glyph glyph-name="Uacute" unicode="&#xda;" horiz-adv-x="1523" 
d="M1123 2323l-14 -6q-62 -70 -136 -162q-85 -102 -108 -128q-80 -90 -113 -125l45 3q25 1 54 3q55 3 99 3q73 69 181 187l54 57q10 11 31 32t31 32q73 73 120 116q-32 -3 -122 -7l-66 -3q-42 -2 -56 -2zM343 1464v-69q0 -379 -45 -827q-7 -72 -7 -127q0 -92 20 -161
q25 -88 77 -147q67 -71 182 -101q88 -23 215 -23t223 26q120 33 207 115q76 81 111 197q28 91 37 217q40 527 118 921l-76 -7q-64 -7 -144 -13q-15 -87 -27 -180q-30 -216 -45 -375q-6 -52 -19 -182q-9 -99 -29 -169q-26 -90 -73 -153q-43 -49 -120 -72q-62 -19 -141 -19
q-80 0 -138 17q-72 21 -107 72h1q-51 76 -51 215q0 46 5 104q34 417 41 740q-86 6 -193 20z" />
    <glyph glyph-name="Ucircumflex" unicode="&#xdb;" horiz-adv-x="1523" 
d="M679 1718h1q-66 -78 -85 -99q-51 -55 -123 -118h18q17 0 27 1h27h17q48 2 79 2q49 40 155 146l16 16q7 -10 11 -14q6 -6 12 -13v-1q68 -87 120 -134q33 0 81 -2h17h26q9 -1 26 -1h17q-60 57 -106 119q-31 39 -70 105v-1l-30 48h-192zM343 1464v-69q0 -379 -45 -827
q-7 -72 -7 -127q0 -92 20 -161q25 -88 77 -147q67 -71 182 -101q88 -23 215 -23t223 26q120 33 207 115q76 81 111 197q28 91 37 217q40 527 118 921l-76 -7q-64 -7 -144 -13q-15 -87 -27 -180q-30 -216 -45 -375q-6 -52 -19 -182q-9 -99 -29 -169q-26 -90 -73 -153
q-43 -49 -120 -72q-62 -19 -141 -19q-80 0 -138 17q-72 21 -107 72h1q-51 76 -51 215q0 46 5 104q34 417 41 740q-86 6 -193 20z" />
    <glyph glyph-name="Udieresis" unicode="&#xdc;" horiz-adv-x="1523" 
d="M990 1744l-18 -14q-17 -67 -17 -134q0 -35 2 -61h39q16 -1 39 -1h34q13 -1 39 -1q13 -1 38 -1q13 -1 34 -1q-20 58 -20 88q0 48 40 130q-15 -1 -49 -1q-10 0 -28.5 -1t-27.5 -1q-74 -2 -105 -2zM615 1748l-20 -25q10 -30 10 -63q0 -57 -38 -129q22 0 35 1q26 0 40 1
q27 0 40 1h33q22 0 38 1h37q19 89 19 158v7q-1 2 -1 8v36q-15 1 -47.5 1.5t-48.5 0.5q-37 0 -97 2zM343 1464v-69q0 -379 -45 -827q-7 -72 -7 -127q0 -92 20 -161q25 -88 77 -147q67 -71 182 -101q88 -23 215 -23t223 26q120 33 207 115q76 81 111 197q28 91 37 217
q40 527 118 921l-76 -7q-64 -7 -144 -13q-15 -87 -27 -180q-30 -216 -45 -375q-6 -52 -19 -182q-9 -99 -29 -169q-26 -90 -73 -153q-43 -49 -120 -72q-62 -19 -141 -19q-80 0 -138 17q-72 21 -107 72h1q-51 76 -51 215q0 46 5 104q34 417 41 740q-86 6 -193 20z" />
    <glyph glyph-name="Yacute" unicode="&#xdd;" horiz-adv-x="1544" 
d="M976 1770l-14 -7q-5 -6 -73 -88v1q-24 -31 -67 -81q-42 -48 -90 -98q35 3 62 4q6 0 17.5 0.5t17.5 1.5q11 1 27 1q23 0 57 2l53 53q47 50 81 87q10 11 35 36q47 47 102 97q-35 -4 -104 -6q-9 -1 -28 -1t-29 -1q-19 -1 -47 -1zM361 1484l-19 -28q67 -142 145 -326
t115 -276t131 -330q-11 -124 -24 -244q-4 -41 -25 -244h22q16 0 25 1h25h21h70q54 0 124 -2q19 328 34 489q28 50 43 75l44 75q108 188 243 411q138 228 257 402l-79 -7q-68 -7 -159 -12q-169 -245 -460 -717q-121 272 -162 360q-85 182 -173 354q-126 10 -198 19z" />
    <glyph glyph-name="Thorn" unicode="&#xde;" horiz-adv-x="1320" 
d="M1190 999q26 -67 26 -152q0 -109 -30 -202q-38 -116 -112 -181q-76 -63 -182 -90q-80 -20 -190 -20q-117 0 -228 -4q-5 -46 -19 -162q-8 -56 -11 -83q-2 -16 -10 -77l-76 -6l-34 -3q-6 -1 -18.5 -2.5t-19.5 -1.5q-56 -6 -73 -9q123 735 131 1459l22 19q112 -17 193 -20
q0 -12 -1.5 -44t-2.5 -51q-4 -77 -5 -94q0 -5 -0.5 -15.5t-1.5 -15.5q-1 -9 -1 -33q95 -5 227 -5q101 -2 167 -15q90 -18 153 -61q64 -50 96 -131zM981 699q18 51 18 121q0 113 -78 167q-62 43 -159 43q-150 0 -226 4l-9 -127q0 -7 -21 -250q-9 -90 -13 -129q74 2 112 2h110
q122 0 189 57q54 44 77 112z" />
    <glyph glyph-name="germandbls" unicode="&#xdf;" horiz-adv-x="1360" 
d="M276 1112v1q-67 -621 -176 -1106q52 5 69 7q28 3 77 7q29 2 79 5.5t66 4.5q45 517 58 1071v-4q25 149 91 218v-1q64 60 187 60q100 0 161 -30q57 -49 102 -184q-84 -17 -132 -35q-73 -29 -117 -78q-78 -95 -78 -233q0 -65 33 -129q17 -35 70 -114q33 -22 70 -52
q64 -44 87 -69q42 -47 42 -99q0 -59 -71 -86q-48 -19 -127 -19q-129 0 -286 57l-15 -130q-7 -57 -12 -121q146 -40 271 -44q88 0 143 9q79 13 150 50q75 41 110 126q29 70 29 161q0 108 -70 195q-39 48 -149 130q-8 4 -15 12q-5 4 -15 10v-1q-51 34 -75 61q-38 41 -38 86
q0 101 109 160q89 48 203 57q5 48 5 87q0 150 -82 255q-54 50 -132 74q-65 20 -153 20q-101 0 -178 -17q-95 -21 -164 -77q-63 -51 -95 -135q-27 -70 -32 -160z" />
    <glyph glyph-name="agrave" unicode="&#xe0;" horiz-adv-x="1276" 
d="M624 2040l-16 7q-29 0 -103 4q-93 5 -102 6q35 -58 75 -138q19 -40 51 -114q14 -30 29 -64t29 -64h44q37 0 59 -1q11 -1 33 -1.5t33 -0.5l67 -3q35 -2 59 -3q-61 74 -94 123q-56 82 -117 180q-15 23 -47 69zM1162 1130q-4 -2 -20.5 -1t-18.5 1q-2 -1 -8 -1h-14t-15.5 0.5
t-13.5 0.5h-5h-110q-4 -22 -6 -42t-6 -54.5t-8 -68.5q-45 71 -123 113t-167 42h-28q-85 0 -168 -39q-87 -41 -140 -110l1 1q-87 -104 -127 -256q-33 -128 -33 -269q0 -177 76 -294q46 -70 122.5 -107t166.5 -37h10q3 0 5 1h4h15q90 0 178 41q86 40 147 113q13 -76 -3 -136
l63 -5q115 -9 153 -14q-26 126 -34 236.5t3 235.5t29 235.5t53 297.5q15 76 22 116zM597 976h24q71 0 122 -45q53 -46 69 -122q16 -74 16 -155q0 -84 -13 -139q-18 -78 -73 -118l1 1q-28 -18 -65.5 -28.5t-64 -13t-71.5 -4.5q-59 0 -100 9q-52 11 -84 43q-37 39 -46 74
q-7 24 -9 100q15 123 37 180q38 98 96 153q68 65 161 65z" />
    <glyph glyph-name="aacute" unicode="&#xe1;" horiz-adv-x="1276" 
d="M890 1976l-14 -6q-62 -70 -136 -162q-85 -102 -108 -128q-80 -90 -113 -125l45 3q26 2 54 3q56 3 99 3q73 69 181 187l54 57q10 11 31 32t31 32q73 73 120 116q-32 -3 -122 -7l-66 -3q-42 -2 -56 -2zM1162 1130q-4 -2 -20.5 -1t-18.5 1q-2 -1 -8 -1h-14t-15.5 0.5
t-13.5 0.5h-5h-110q-4 -22 -6 -42t-6 -54.5t-8 -68.5q-45 71 -123 113t-167 42h-28q-85 0 -168 -39q-87 -41 -140 -110l1 1q-87 -104 -127 -256q-33 -128 -33 -269q0 -177 76 -294q46 -70 122.5 -107t166.5 -37h10q3 0 5 1h4h15q90 0 178 41q86 40 147 113q13 -76 -3 -136
l63 -5q115 -9 153 -14q-26 126 -34 236.5t3 235.5t29 235.5t53 297.5q15 76 22 116zM597 976h24q71 0 122 -45q53 -46 69 -122q16 -74 16 -155q0 -84 -13 -139q-18 -78 -73 -118l1 1q-28 -18 -65.5 -28.5t-64 -13t-71.5 -4.5q-59 0 -100 9q-52 11 -84 43q-37 39 -46 74
q-7 24 -9 100q15 123 37 180q38 98 96 153q68 65 161 65z" />
    <glyph glyph-name="acircumflex" unicode="&#xe2;" horiz-adv-x="1380" 
d="M745 1617h-157q-30 -42 -41 -58l-42 -58q-56 -81 -86 -120q-54 -70 -123 -142l102 2l65 2q49 51 165 190h-1l27 34l17 -28q81 -129 135 -196l65 -2l99 -2q-61 78 -108 157q-39 65 -78 144zM1162 1130q-4 -2 -20.5 -1t-18.5 1q-2 -1 -8 -1h-14t-15.5 0.5t-13.5 0.5h-5
h-110q-4 -22 -6 -42t-6 -54.5t-8 -68.5q-45 71 -123 113t-167 42h-28q-85 0 -168 -39q-87 -41 -140 -110l1 1q-87 -104 -127 -256q-33 -128 -33 -269q0 -177 76 -294q46 -70 122.5 -107t166.5 -37h10q3 0 5 1h4h15q90 0 178 41q86 40 147 113q13 -76 -3 -136l63 -5
q115 -9 153 -14q-26 126 -34 236.5t3 235.5t29 235.5t53 297.5q15 76 22 116zM597 976h24q71 0 122 -45q53 -46 69 -122q16 -74 16 -155q0 -84 -13 -139q-18 -78 -73 -118l1 1q-28 -18 -65.5 -28.5t-64 -13t-71.5 -4.5q-59 0 -100 9q-52 11 -84 43q-37 39 -46 74
q-7 24 -9 100q15 123 37 180q38 98 96 153q68 65 161 65z" />
    <glyph glyph-name="atilde" unicode="&#xe3;" horiz-adv-x="1276" 
d="M661 1743l46 -51q60 -62 148 -62q71 0 115 57q27 35 64 128v-1q8 20 23 54l12 29q4 9 11 23h-13h-19q-7 -1 -20 -1h-14h-40q-15 -1 -40 -1l-14 -35q-6 -14 -9 -23q-9 -25 -16.5 -40t-21.5 -30.5t-31 -19.5q-23 4 -51 33l-49 52q-62 62 -147 62q-43 0 -82 -27.5t-62 -74.5
q-16 -33 -32 -78q-3 -7 -2 -7q2 0 3 1q1 0 1 -2l-1 -1q0 -1 -0.5 -2.5t-1.5 -4t-2 -4.5q-6 -14 -15 -32l-30 -59h17h24q16 0 24 1h19q11 0 62 3q15 33 22 55v-1q13 37 27 57q19 30 41 35q25 -4 54 -33zM1162 1130q-4 -2 -20.5 -1t-18.5 1q-2 -1 -8 -1h-14t-15.5 0.5
t-13.5 0.5h-5h-110q-4 -22 -6 -42t-6 -54.5t-8 -68.5q-45 71 -123 113t-167 42h-28q-85 0 -168 -39q-87 -41 -140 -110l1 1q-87 -104 -127 -256q-33 -128 -33 -269q0 -177 76 -294q46 -70 122.5 -107t166.5 -37h10q3 0 5 1h4h15q90 0 178 41q86 40 147 113q13 -76 -3 -136
l63 -5q115 -9 153 -14q-26 126 -34 236.5t3 235.5t29 235.5t53 297.5q15 76 22 116zM597 976h24q71 0 122 -45q53 -46 69 -122q16 -74 16 -155q0 -84 -13 -139q-18 -78 -73 -118l1 1q-28 -18 -65.5 -28.5t-64 -13t-71.5 -4.5q-59 0 -100 9q-52 11 -84 43q-37 39 -46 74
q-7 24 -9 100q15 123 37 180q38 98 96 153q68 65 161 65z" />
    <glyph glyph-name="adieresis" unicode="&#xe4;" horiz-adv-x="1276" 
d="M353 1556l-19 -25q9 -33 9 -68q0 -64 -42 -140q9 1 28 1.5t29 0.5q43 0 66 1q88 2 121 2q18 87 18 167q0 33 -2 57q-17 1 -51.5 1.5t-52.5 0.5q-40 0 -104 2zM759 1552l-17 -15q-19 -78 -19 -145q0 -34 4 -63q96 -3 114 -3l124 -2q-22 57 -22 93q0 55 43 139l-130 -2
q-33 0 -97 -2zM1162 1130q-4 -2 -20.5 -1t-18.5 1q-2 -1 -8 -1h-14t-15.5 0.5t-13.5 0.5h-5h-110q-4 -22 -6 -42t-6 -54.5t-8 -68.5q-45 71 -123 113t-167 42h-28q-85 0 -168 -39q-87 -41 -140 -110l1 1q-87 -104 -127 -256q-33 -128 -33 -269q0 -177 76 -294
q46 -70 122.5 -107t166.5 -37h10q3 0 5 1h4h15q90 0 178 41q86 40 147 113q13 -76 -3 -136l63 -5q115 -9 153 -14q-26 126 -34 236.5t3 235.5t29 235.5t53 297.5q15 76 22 116zM597 976h24q71 0 122 -45q53 -46 69 -122q16 -74 16 -155q0 -84 -13 -139q-18 -78 -73 -118l1 1
q-28 -18 -65.5 -28.5t-64 -13t-71.5 -4.5q-59 0 -100 9q-52 11 -84 43q-37 39 -46 74q-7 24 -9 100q15 123 37 180q38 98 96 153q68 65 161 65z" />
    <glyph glyph-name="aring" unicode="&#xe5;" horiz-adv-x="1276" 
d="M904 1503q0 10 1 15v17q0 106 -68 171q-69 64 -168 64q-129 0 -210 -88q-78 -84 -78 -210q0 -106 66 -172q64 -64 170 -64q120 0 198 75q79 74 89 192zM771 1511v-6q-11 -58 -47 -94q-40 -40 -95 -40q-51 0 -83 31t-32 82q0 64 40 107t102 43q52 -2 84 -33.5t32 -81.5v-4
q-1 -1 -1 -4zM1162 1130q-4 -2 -20.5 -1t-18.5 1q-2 -1 -8 -1h-14t-15.5 0.5t-13.5 0.5h-5h-110q-4 -22 -6 -42t-6 -54.5t-8 -68.5q-45 71 -123 113t-167 42h-28q-85 0 -168 -39q-87 -41 -140 -110l1 1q-87 -104 -127 -256q-33 -128 -33 -269q0 -177 76 -294
q46 -70 122.5 -107t166.5 -37h10q3 0 5 1h4h15q90 0 178 41q86 40 147 113q13 -76 -3 -136l63 -5q115 -9 153 -14q-26 126 -34 236.5t3 235.5t29 235.5t53 297.5q15 76 22 116zM597 976h24q71 0 122 -45q53 -46 69 -122q16 -74 16 -155q0 -84 -13 -139q-18 -78 -73 -118l1 1
q-28 -18 -65.5 -28.5t-64 -13t-71.5 -4.5q-59 0 -100 9q-52 11 -84 43q-37 39 -46 74q-7 24 -9 100q15 123 37 180q38 98 96 153q68 65 161 65z" />
    <glyph glyph-name="ae" unicode="&#xe6;" horiz-adv-x="2008" 
d="M1748 983l-1 1q73 -104 73 -253q0 -43 -7 -97l-3 -34q-1 -21 -3 -34q-512 -2 -765 -2q8 -115 82 -197q46 -46 122 -71q63 -22 144 -22q175 0 363 101v-13v-19q-1 -7 -1 -19v-12v-30q0 -92 9 -185l-58 -21q-91 -35 -157 -54q-85 -24 -165 -24q-151 0 -270 50
q-135 57 -204 168q-82 -108 -201 -164q-118 -56 -250 -56q-79 0 -138 17q-73 19 -118 66q-57 65 -57 176q0 44 6 83v-1q22 119 45 180q37 100 105 156q73 52 172 73q76 15 183 15h62q20 -1 61 -1h104q0 3 1 4v4q0 24 -11.5 51t-23 44t-32.5 44l1 -1q-75 83 -222 83
q-173 0 -332 -83q0 20 -1 33q-1 7 -1.5 20.5t-0.5 20.5t-0.5 20.5t-1.5 20.5q-1 13 -1 32q185 65 349 65q130 0 227 -35q117 -43 175 -135q85 88 207 132q111 39 237 39q95 0 168 -31q85 -36 129 -105zM1062 716h58q284 0 515 4q1 5 1 13v11q0 105 -53 178q-60 80 -154 80
q-157 0 -255 -99q-86 -86 -112 -187zM869 607h-174q-3 0 -28 -1t-30.5 -1t-28 -1t-30.5 -2.5t-27.5 -3.5t-30.5 -4.5t-27 -6t-29.5 -8t-27.5 -10.5l1 1q-46 -21 -73 -85q-23 -53 -23 -110q0 -56 54 -90q46 -31 111 -31q163 0 255 82q51 46 77 116q22 61 29 137z" />
    <glyph glyph-name="ccedilla" unicode="&#xe7;" horiz-adv-x="1214" 
d="M1020 1049l26 4q-3 -14 -10 -54q-1 -6 -4.5 -24.5t-5.5 -29.5v1l-8 -60q-142 72 -279 72q-80 0 -146 -24q-79 -28 -125 -84q-47 -52 -74 -140q-24 -72 -32 -155q0 -53 15 -100q17 -51 51 -79h-1q43 -29 97 -40.5t133 -18.5h-1l146 -3h12q63 0 148 41q0 -10 -1.5 -42
t-2.5 -51q-2 -68 -2 -94q0 -44 2 -114q-133 -50 -278 -53q14 -39 14 -81q0 -48 -20 -89q-23 -48 -64 -69q-67 -30 -173 -30q-77 0 -167 18q8 34 18 103l7 47q62 -33 133 -33h14q3 -1 10 -1q37 0 67 23t30 60q0 29 -12 59q-58 8 -103 22q-119 36 -185 119l1 -1
q-50 60 -75 150q-20 73 -20 171q0 139 34 260q41 150 133 240q81 76 212 115q106 32 231 32q143 0 272 -48z" />
    <glyph glyph-name="egrave" unicode="&#xe8;" horiz-adv-x="1310" 
d="M509 1375q-32 74 -51 114q-40 80 -75 138q9 -1 102 -6q74 -4 103 -4l16 -7q32 -46 47 -69q61 -98 117 -180q33 -49 94 -123l-59 3q-44 2 -67 3q-11 0 -33 0.5t-33 1.5q-22 1 -59 1h-44q-14 30 -29 64t-29 64zM1115 670l-32 13l33 -14q-1 -7 -1 -18q0 -3 -0.5 -8.5
t-1.5 -8.5v1l-5 -40q-161 -3 -497 -3q-46 0 -69 1h-70h-120v-5q-2 -38 -2 -51q0 -63 14 -111q17 -58 56 -86v1q103 -65 284 -65h18q105 0 161 8q90 11 173 51v-32q-2 -50 -2 -76v-33q0 -87 3 -124q-198 -67 -409 -67q-120 9 -211 41q-115 38 -184 106q-52 61 -78 151
q-23 79 -23 171q0 132 38 256q45 147 129 238q74 75 185 114q96 32 209 34q99 -5 170 -26q93 -27 148 -82q49 -54 70 -136q15 -63 15 -156v-10q-1 -4 -1 -12v-22zM479 760h96q193 0 383 3q-11 105 -77 171q-71 69 -175 69q-146 0 -232 -82q-77 -68 -91 -160q65 -2 96 -1z
" />
    <glyph glyph-name="eacute" unicode="&#xe9;" horiz-adv-x="1310" 
d="M664 1561l-54 -3q-27 -2 -45 -3q33 35 113 125q23 26 108 128q74 92 136 162l14 6q14 0 56 2l66 3q90 4 122 7q-47 -43 -120 -116l-62 -64q-30 -32 -54 -57q-108 -118 -181 -187q-43 0 -99 -3zM1031 1006q49 -54 70 -136q15 -63 15 -156v-10q-1 -4 -1 -12v-22l-32 13
l33 -14q-1 -7 -1 -18q0 -3 -0.5 -8.5t-1.5 -8.5v1l-5 -40q-161 -3 -497 -3q-46 0 -69 1h-70h-120v-5q-2 -38 -2 -51q0 -63 14 -111q17 -58 56 -86v1q103 -65 284 -65h18q105 0 161 8q90 11 173 51v-32q-2 -50 -2 -76v-33q0 -87 3 -124q-198 -67 -409 -67q-120 9 -211 41
q-115 38 -184 106q-52 61 -78 151q-23 79 -23 171q0 132 38 256q45 147 129 238q74 75 185 114q96 32 209 34q99 -5 170 -26q93 -27 148 -82zM479 760h96q193 0 383 3q-11 105 -77 171q-71 69 -175 69q-146 0 -232 -82q-77 -68 -91 -160q65 -2 96 -1z" />
    <glyph glyph-name="ecircumflex" unicode="&#xea;" horiz-adv-x="1310" 
d="M381 1142l-102 -2q69 72 123 142q30 39 86 120l42 58q11 16 41 58h157l39 -77q39 -79 78 -144q47 -79 108 -157l-99 2l-65 2q-54 67 -135 196l-17 28l-27 -34h1q-116 -139 -165 -190zM1115 670l-32 13l33 -14q-1 -7 -1 -18q0 -3 -0.5 -8.5t-1.5 -8.5v1l-5 -40
q-161 -3 -497 -3q-46 0 -69 1h-70h-120v-5q-2 -38 -2 -51q0 -63 14 -111q17 -58 56 -86v1q103 -65 284 -65h18q105 0 161 8q90 11 173 51v-32q-2 -50 -2 -76v-33q0 -87 3 -124q-198 -67 -409 -67q-120 9 -211 41q-115 38 -184 106q-52 61 -78 151q-23 79 -23 171
q0 132 38 256q45 147 129 238q74 75 185 114q96 32 209 34q99 -5 170 -26q93 -27 148 -82q49 -54 70 -136q15 -63 15 -156v-10q-1 -4 -1 -12v-22zM479 760h96q193 0 383 3q-11 105 -77 171q-71 69 -175 69q-146 0 -232 -82q-77 -68 -91 -160q65 -2 96 -1z" />
    <glyph glyph-name="edieresis" unicode="&#xeb;" horiz-adv-x="1310" 
d="M439 1226q-10 0 -29 -0.5t-28 -1.5q42 76 42 140q0 35 -9 68l19 25q64 -2 104 -2q18 0 52.5 -0.5t51.5 -1.5q2 -24 2 -57q0 -80 -18 -167q-33 0 -121 -2q-23 -1 -66 -1zM1046 1225l-124 2q-18 0 -114 3q-4 29 -4 63q0 67 19 145l17 15q64 2 97 2l130 2q-43 -84 -43 -139
q0 -36 22 -93zM1115 670l-32 13l33 -14q-1 -7 -1 -18q0 -3 -0.5 -8.5t-1.5 -8.5v1l-5 -40q-161 -3 -497 -3q-46 0 -69 1h-70h-120v-5q-2 -38 -2 -51q0 -63 14 -111q17 -58 56 -86v1q103 -65 284 -65h18q105 0 161 8q90 11 173 51v-32q-2 -50 -2 -76v-33q0 -87 3 -124
q-198 -67 -409 -67q-120 9 -211 41q-115 38 -184 106q-52 61 -78 151q-23 79 -23 171q0 132 38 256q45 147 129 238q74 75 185 114q96 32 209 34q99 -5 170 -26q93 -27 148 -82q49 -54 70 -136q15 -63 15 -156v-10q-1 -4 -1 -12v-22zM479 760h96q193 0 383 3
q-11 105 -77 171q-71 69 -175 69q-146 0 -232 -82q-77 -68 -91 -160q65 -2 96 -1z" />
    <glyph glyph-name="igrave" unicode="&#xec;" horiz-adv-x="1177" 
d="M599 1610l-16 7q-29 0 -103 4q-93 5 -102 6q35 -58 75 -138q19 -40 51 -114q14 -30 29 -64t29 -64h44q37 0 59 -1q11 -1 33 -1.5t33 -0.5l67 -3q35 -2 59 -3q-61 74 -94 123q-56 82 -117 180q-15 23 -47 69zM837 1107l-30 -15q-35 -524 -98 -1097q68 35 107 35
q37 0 92 -34q15 227 45 565q25 281 55 564q-67 -37 -107 -37q-36 0 -64 19z" />
    <glyph glyph-name="iacute" unicode="&#xed;" horiz-adv-x="677" 
d="M657 1783l-14 -6q-62 -70 -136 -162q-85 -102 -108 -128q-80 -90 -113 -125l45 3q25 1 54 3q56 3 99 3q73 69 181 187l54 57q10 11 31 32t31 32q73 73 120 116q-32 -3 -122 -7l-66 -3q-42 -2 -56 -2zM294 1107l-30 -15q-35 -524 -98 -1097q68 35 107 35q37 0 92 -34
q15 227 45 565q25 281 55 564q-67 -37 -107 -37q-36 0 -64 19z" />
    <glyph glyph-name="icircumflex" unicode="&#xee;" horiz-adv-x="1099" 
d="M745 1617h-157q-30 -42 -41 -58l-42 -58q-56 -81 -86 -120q-54 -70 -123 -142l102 2l65 2q49 51 165 190h-1l27 34l17 -28q81 -129 135 -196l65 -2l99 -2q-61 78 -108 157q-39 65 -78 144zM759 1107l-30 -15q-35 -524 -98 -1097q68 35 107 35q37 0 92 -34q15 227 45 565
q25 281 55 564q-67 -37 -107 -37q-36 0 -64 19z" />
    <glyph glyph-name="idieresis" unicode="&#xef;" horiz-adv-x="975" 
d="M371 1527l-19 -25q9 -33 9 -68q0 -64 -42 -140q9 1 28 1.5t29 0.5q43 0 66 1q88 2 121 2q18 87 18 167q0 33 -2 57q-17 1 -51.5 1.5t-52.5 0.5q-40 0 -104 2zM777 1523l-17 -15q-19 -78 -19 -145q0 -34 4 -63q96 -3 114 -3l124 -2q-22 57 -22 93q0 55 43 139l-130 -2
q-33 0 -97 -2zM579 1107l-30 -15q-35 -524 -98 -1097q68 35 107 35q37 0 92 -34q15 227 45 565q25 281 55 564q-67 -37 -107 -37q-36 0 -64 19z" />
    <glyph glyph-name="eth" unicode="&#xf0;" horiz-adv-x="1271" 
d="M882 1188l-65 84q169 59 285 107l-22 110q-38 -15 -78 -30q-110 -40 -165 -59q-41 -14 -78 -27h1l-15 -5q-30 40 -54 64q-18 22 -28 35t-28 35q-33 0 -123 4q-110 5 -122 6q6 -8 38 -47q6 -7 20.5 -25t22.5 -28q55 -68 86 -105l-52 -16q-120 -35 -211 -58l12 -47
q14 -44 18 -67l75 21q136 39 158 46q50 16 74 23q17 -20 35 -43q26 -34 34 -43l43 -55q-16 2 -23 3q-24 2 -33 2q-14 0 -25 1q-95 0 -185 -36q-96 -39 -160 -108q-85 -92 -128 -232q-38 -124 -38 -251q0 -190 88 -300q62 -70 158 -105q87 -32 192 -32q101 0 195 33
q99 35 173 104q83 89 123 223q33 111 33 244q0 286 -171 499zM915 624q0 -96 -22 -181q-27 -106 -76 -172q-39 -45 -94.5 -70t-113.5 -25q-149 -2 -209 93q-52 79 -52 197q0 100 23 184q28 102 88 169q43 47 104 72t126 25q79 0 163 -29q63 -94 63 -263zM851 887l-5 5l5 -4
v-1z" />
    <glyph glyph-name="ntilde" unicode="&#xf1;" horiz-adv-x="1406" 
d="M638 1302l46 -51q60 -62 148 -62q71 0 115 57q27 35 64 128v-1q8 20 23 54l12 29q4 9 11 23h-13h-19q-7 -1 -20 -1h-14h-40q-15 -1 -40 -1l-14 -35q-6 -14 -9 -23q-9 -25 -16.5 -40t-21.5 -30.5t-31 -19.5q-23 4 -51 33l-49 52q-62 62 -147 62q-43 0 -82 -27.5t-62 -74.5
q-16 -33 -32 -78q-3 -7 -2 -7q2 0 3 1q1 0 1 -2v-1q-1 -1 -1.5 -2.5t-1.5 -4t-2 -4.5q-6 -14 -15 -32l-30 -59h17h24q16 0 24 1h19q11 0 62 3q15 33 22 55v-1q13 37 27 57q19 30 41 35q25 -4 54 -33zM1138 670q2 48 2 73q0 139 -45 239q-36 69 -112 103q-71 31 -154 31
q-183 0 -368 -129v11q0 3 1 4q0 2 1 3v11l2 88l-45 3q-9 1 -26.5 2t-25.5 2q-75 6 -98 9q-8 -577 -129 -1113l63 6q16 1 66 4t76 5q13 1 34 2.5t29 1.5q32 306 43 610v-1q13 155 89 237q42 45 113 67q56 16 128 16q47 0 81 -15q42 -20 62 -57v1q22 -50 22 -122q0 -37 -4 -68
v1q-1 -3 -1 -10v-10q-56 -371 -76 -649q41 -1 138 -7q13 -1 63 -5t73 -6q-15 168 -15 313q0 159 13 349z" />
    <glyph glyph-name="ograve" unicode="&#xf2;" horiz-adv-x="1297" 
d="M599 1610l-16 7q-29 0 -103 4q-93 5 -102 6q35 -58 75 -138q19 -40 51 -114q14 -30 29 -64t29 -64h44q37 0 59 -1q11 -1 33 -1.5t33 -0.5l67 -3q35 -2 59 -3q-61 74 -94 123q-56 82 -117 180q-15 23 -47 69zM713 1114q-102 0 -198 -34q-105 -37 -176 -107
q-85 -95 -124 -253q-30 -120 -30 -265q0 -196 83 -310v1q50 -75 153 -112q85 -31 192 -31q105 0 201 32q106 35 175 110q86 101 124 254q31 124 31 266q0 191 -83 306q-56 77 -154 113q-83 30 -194 30zM702 967q63 -1 116 -26t81 -72q49 -83 49 -215q0 -90 -13 -150
q-23 -99 -82 -140h1q-80 -46 -212 -46q-136 0 -205 45l1 -1q-53 41 -53 151q0 107 20 183q26 104 79 172q38 49 96 74t122 25z" />
    <glyph glyph-name="oacute" unicode="&#xf3;" horiz-adv-x="1268" 
d="M930 1976l-14 -6q-62 -70 -136 -162q-85 -102 -108 -128q-80 -90 -113 -125l45 3q26 2 54 3q55 3 99 3q73 69 181 187l54 57q10 11 31 32t31 32q73 73 120 116q-32 -3 -122 -7l-66 -3q-42 -2 -56 -2zM684 1114q-102 0 -198 -34q-105 -37 -176 -107q-85 -95 -124 -253
q-30 -120 -30 -265q0 -196 83 -310v1q50 -75 153 -112q85 -31 192 -31q105 0 201 32q106 35 175 110q86 101 124 254q31 124 31 266q0 191 -83 306q-56 77 -154 113q-83 30 -194 30zM673 967q63 -1 116 -26t81 -72q49 -83 49 -215q0 -90 -13 -150q-23 -99 -82 -140h1
q-80 -46 -212 -46q-136 0 -205 45l1 -1q-53 41 -53 151q0 107 20 183q26 104 79 172q38 49 96 74t122 25z" />
    <glyph glyph-name="ocircumflex" unicode="&#xf4;" horiz-adv-x="1268" 
d="M794 1617h-157q-30 -42 -41 -58l-42 -58q-56 -81 -86 -120q-54 -70 -123 -142l102 2l65 2q49 51 165 190h-1l27 34l17 -28q81 -129 135 -196l65 -2l99 -2q-61 78 -108 157q-39 65 -78 144zM684 1114q-102 0 -198 -34q-105 -37 -176 -107q-85 -95 -124 -253
q-30 -120 -30 -265q0 -196 83 -310v1q50 -75 153 -112q85 -31 192 -31q105 0 201 32q106 35 175 110q86 101 124 254q31 124 31 266q0 191 -83 306q-56 77 -154 113q-83 30 -194 30zM673 967q63 -1 116 -26t81 -72q49 -83 49 -215q0 -90 -13 -150q-23 -99 -82 -140h1
q-80 -46 -212 -46q-136 0 -205 45l1 -1q-53 41 -53 151q0 107 20 183q26 104 79 172q38 49 96 74t122 25z" />
    <glyph glyph-name="otilde" unicode="&#xf5;" horiz-adv-x="1268" 
d="M678 1302l46 -51q60 -62 148 -62q71 0 115 57q27 35 64 128v-1q8 20 23 54l12 29q4 9 11 23h-13h-19q-7 -1 -20 -1h-14h-40q-15 -1 -40 -1l-14 -35q-6 -14 -9 -23q-9 -25 -16.5 -40t-21.5 -30.5t-31 -19.5q-23 4 -51 33l-49 52q-62 62 -147 62q-43 0 -82 -27.5t-62 -74.5
q-16 -33 -32 -78q-3 -7 -2 -7q2 0 3 1q1 0 1 -2v-1q-1 -1 -1.5 -2.5t-1.5 -4t-2 -4.5q-6 -14 -15 -32l-30 -59h17h24q16 0 24 1h19q11 0 62 3q15 33 22 55v-1q13 37 27 57q19 30 41 35q25 -4 54 -33zM684 1114q-102 0 -198 -34q-105 -37 -176 -107q-85 -95 -124 -253
q-30 -120 -30 -265q0 -196 83 -310v1q50 -75 153 -112q85 -31 192 -31q105 0 201 32q106 35 175 110q86 101 124 254q31 124 31 266q0 191 -83 306q-56 77 -154 113q-83 30 -194 30zM673 967q63 -1 116 -26t81 -72q49 -83 49 -215q0 -90 -13 -150q-23 -99 -82 -140h1
q-80 -46 -212 -46q-136 0 -205 45l1 -1q-53 41 -53 151q0 107 20 183q26 104 79 172q38 49 96 74t122 25z" />
    <glyph glyph-name="odieresis" unicode="&#xf6;" horiz-adv-x="1268" 
d="M500 1358l-19 -25q9 -33 9 -68q0 -64 -42 -140q9 1 28 1.5t29 0.5q43 0 66 1q88 2 121 2q18 87 18 167q0 33 -2 57q-17 1 -51.5 1.5t-52.5 0.5q-40 0 -104 2zM906 1354l-17 -15q-19 -78 -19 -145q0 -34 4 -63q96 -3 114 -3l124 -2q-22 57 -22 93q0 55 43 139l-130 -2
q-33 0 -97 -2zM684 1114q-102 0 -198 -34q-105 -37 -176 -107q-85 -95 -124 -253q-30 -120 -30 -265q0 -196 83 -310v1q50 -75 153 -112q85 -31 192 -31q105 0 201 32q106 35 175 110q86 101 124 254q31 124 31 266q0 191 -83 306q-56 77 -154 113q-83 30 -194 30zM673 967
q63 -1 116 -26t81 -72q49 -83 49 -215q0 -90 -13 -150q-23 -99 -82 -140h1q-80 -46 -212 -46q-136 0 -205 45l1 -1q-53 41 -53 151q0 107 20 183q26 104 79 172q38 49 96 74t122 25z" />
    <glyph glyph-name="divide" unicode="&#xf7;" horiz-adv-x="1565" 
d="M707 1163l-20 -19q-8 -149 -19 -280h36q13 -1 39 -1h39h35h73q52 0 73 1q1 10 8 71l9 78q3 27 9 79l9 71h-42q-15 -1 -46 -1h-47h-43h-56q-38 0 -57 1zM205 737l-20 -18q-2 -19 -4.5 -57t-3.5 -51q-2 -23 -6 -63t-4 -45q309 4 715 4q354 0 522 -3q1 33 9 117l6 62
q1 23 5 54q-360 -5 -662 -5q-323 0 -557 5zM610 228l-18 -150h100q27 0 40 1h39q54 0 132 -2q1 62 8 149q6 106 10 149h-85q-22 0 -32 1h-33h-63h-32q-11 -1 -32 -1l-20 -18z" />
    <glyph glyph-name="oslash" unicode="&#xf8;" horiz-adv-x="1267" 
d="M1170 1052q-45 -50 -57 -62v1l-27 -30q-2 -3 -28 -31q56 -116 56 -275q0 -142 -32 -262q-41 -153 -124 -247q-67 -72 -172 -110q-93 -33 -197 -33q-182 0 -291 87q-22 -25 -46 -49q-65 -67 -80 -84q-26 -28 -33 -35l-41 36q-8 6 -27 23t-27 23l58 61q7 8 27 29.5t29 31.5
l57 63q-58 111 -58 277q0 141 31 261q40 154 124 246q67 67 176 107q93 33 200 33q177 0 285 -85l67 70q16 17 52 56t39 42q18 -15 60 -51h-1l37 -32q-39 -42 -57 -61zM351 475q0 -76 13 -123l101 113q16 19 49.5 56t50.5 56q101 115 276 308q-66 63 -177 63q-57 0 -115 -28
q-60 -29 -97 -75q-54 -73 -79 -181q-22 -89 -22 -189zM899 456q19 85 19 195q0 66 -14 112q-70 -76 -103 -114q-37 -43 -103 -116q-7 -8 -58 -65.5t-76 -85.5q-49 -56 -135 -151q63 -63 176 -63q61 0 117.5 26.5t91.5 75.5q58 69 85 186z" />
    <glyph glyph-name="ugrave" unicode="&#xf9;" horiz-adv-x="1353" 
d="M580 1511l-16 7q-29 0 -103 4q-93 5 -102 6q35 -58 75 -138q19 -40 51 -114q14 -30 29 -64t29 -64h44q37 0 59 -1q11 -1 33 -1.5t33 -0.5l67 -3q35 -2 59 -3q-61 74 -94 123q-56 82 -117 180q-15 23 -47 69zM239 448q-5 -55 -5 -102q0 -120 40 -213q36 -69 116 -102
q69 -30 157 -30h26q92 0 178.5 42.5t150.5 116.5q-2 -18 -11 -137q7 -1 22 -1.5t23 -0.5q44 -2 106 -8l45 -3q1 545 122 1104q-33 -4 -115 -10q-68 -7 -116 -8q-49 -286 -67 -456v1q-23 -150 -102 -238v1q-80 -85 -220 -85q-102 0 -147 80l1 -1q-32 67 -32 173q0 6 1 9v9v14
q18 244 23 494l-73 6l-21 3q-5 0 -13.5 1t-12.5 2l-25 3q-4 0 -11 0.5t-10 1.5v-66q0 -14 1 -21v-22q0 -267 -31 -557z" />
    <glyph glyph-name="uacute" unicode="&#xfa;" horiz-adv-x="1353" 
d="M975 1976l-14 -6q-62 -70 -136 -162q-85 -102 -108 -128q-80 -90 -113 -125l45 3q25 2 54 3q55 3 99 3q73 69 181 187l54 57q10 11 31 32t31 32q73 73 120 116q-32 -3 -122 -7l-66 -3q-42 -2 -56 -2zM239 448q-5 -55 -5 -102q0 -120 40 -213q36 -69 116 -102
q69 -30 157 -30h26q92 0 178.5 42.5t150.5 116.5q-2 -18 -11 -137q7 -1 22 -1.5t23 -0.5q44 -2 106 -8l45 -3q1 545 122 1104q-33 -4 -115 -10q-68 -7 -116 -8q-49 -286 -67 -456v1q-23 -150 -102 -238v1q-80 -85 -220 -85q-102 0 -147 80l1 -1q-32 67 -32 173q0 6 1 9v9v14
q18 244 23 494l-73 6l-21 3q-5 0 -13.5 1t-12.5 2l-25 3q-4 0 -11 0.5t-10 1.5v-66q0 -14 1 -21v-22q0 -267 -31 -557z" />
    <glyph glyph-name="ucircumflex" unicode="&#xfb;" horiz-adv-x="1394" 
d="M745 1617h-157q-30 -42 -41 -58l-42 -58q-56 -81 -86 -120q-54 -70 -123 -142l102 2l65 2q49 51 165 190h-1l27 34l17 -28q81 -129 135 -196l65 -2l99 -2q-61 78 -108 157q-39 65 -78 144zM280 448q-5 -55 -5 -102q0 -120 40 -213q36 -69 116 -102q69 -30 157 -30h26
q92 0 178.5 42.5t150.5 116.5q-2 -18 -11 -137q7 -1 22 -1.5t23 -0.5q44 -2 106 -8l45 -3q1 545 122 1104q-33 -4 -115 -10q-68 -7 -116 -8q-49 -286 -67 -456v1q-23 -150 -102 -238v1q-80 -85 -220 -85q-102 0 -147 80l1 -1q-32 67 -32 173q0 6 1 9v9v14q18 244 23 494
l-73 6l-21 3q-4 0 -13 1t-13 2l-25 3q-4 0 -11 0.5t-10 1.5v-66q0 -14 1 -21v-22q0 -267 -31 -557z" />
    <glyph glyph-name="udieresis" unicode="&#xfc;" horiz-adv-x="1353" 
d="M511 1457l-19 -25q9 -33 9 -68q0 -64 -42 -140q9 1 28 1.5t29 0.5q43 0 66 1q88 2 121 2q18 87 18 167q0 33 -2 57q-17 1 -51.5 1.5t-52.5 0.5q-40 0 -104 2zM917 1453l-17 -15q-19 -78 -19 -145q0 -34 4 -63q96 -3 114 -3l124 -2q-22 57 -22 93q0 55 43 139l-130 -2
q-33 0 -97 -2zM239 448q-5 -55 -5 -102q0 -120 40 -213q36 -69 116 -102q69 -30 157 -30h26q92 0 178.5 42.5t150.5 116.5q-2 -18 -11 -137q7 -1 22 -1.5t23 -0.5q44 -2 106 -8l45 -3q1 545 122 1104q-33 -4 -115 -10q-68 -7 -116 -8q-49 -286 -67 -456v1
q-23 -150 -102 -238v1q-80 -85 -220 -85q-102 0 -147 80l1 -1q-32 67 -32 173q0 6 1 9v9v14q18 244 23 494l-73 6l-21 3q-5 0 -13.5 1t-12.5 2l-25 3q-4 0 -11 0.5t-10 1.5v-66q0 -14 1 -21v-22q0 -267 -31 -557z" />
    <glyph glyph-name="yacute" unicode="&#xfd;" horiz-adv-x="1391" 
d="M737 1616l-14 -6q-62 -70 -136 -162q-85 -102 -108 -128q-80 -90 -113 -125l45 3q25 2 54 3q56 3 99 3q73 69 181 187l54 57q10 11 31 32t31 32q73 73 120 116q-32 -3 -122 -7l-66 -3q-42 -2 -56 -2zM786 -69l122 263q279 604 452 921q-20 -3 -50 -6l-59 -6
q-80 -10 -108 -11q-138 -227 -345 -604q-53 105 -157 303q-18 33 -164 300q-28 1 -104 11q-56 6 -104 13q81 -192 183 -459q41 -107 175 -465l27 -73l-19 -33q-32 -51 -65 -111q-61 -64 -95 -93l1 1q-22 -16 -52.5 -25t-50.5 -11t-61 -4q-5 -1 -17.5 -1.5t-18.5 -0.5l-37 -3
q0 -2 -8 -51l-8 -50l-11 -77l-14 -77q10 2 24 3q37 4 58 5q4 0 12.5 0.5t12.5 1.5q98 6 146 16q80 17 137 57q59 45 115 124q37 54 83 142z" />
    <glyph glyph-name="thorn" unicode="&#xfe;" horiz-adv-x="1387" 
d="M744 3h26q89 0 171 38q80 37 140 109h-1q84 98 122 242q31 117 31 258q0 191 -82 315q-45 69 -121 107t-164 38h-26q-88 0 -172 -41.5t-145 -111.5q3 40 10 142q10 180 14 264q4 98 7 142q-42 5 -98 14q-8 1 -25.5 3.5t-26.5 4.5q-44 8 -45 8q-26 -990 -171 -1939
q47 5 56 7q73 12 145 17q24 178 64 531q41 -74 121 -112q76 -36 170 -36zM1036 560q-13 -158 -79 -263q-84 -131 -224 -131q-145 0 -196 98q-51 82 -51 215q0 104 21 188q27 107 82 179q36 48 89.5 74.5t111.5 26.5q126 0 192 -92q58 -83 58 -219q0 -43 -4 -76z" />
    <glyph glyph-name="ydieresis" unicode="&#xff;" horiz-adv-x="1391" 
d="M573 1457l-19 -25q9 -33 9 -68q0 -64 -42 -140q9 1 28 1.5t29 0.5q43 0 66 1q88 2 121 2q18 87 18 167q0 33 -2 57q-17 1 -51.5 1.5t-52.5 0.5q-40 0 -104 2zM979 1453l-17 -15q-19 -78 -19 -145q0 -34 4 -63q96 -3 114 -3l124 -2q-22 57 -22 93q0 55 43 139l-130 -2
q-33 0 -97 -2zM786 -69l122 263q279 604 452 921q-20 -3 -50 -6l-59 -6q-80 -10 -108 -11q-138 -227 -345 -604q-53 105 -157 303q-18 33 -164 300q-28 1 -104 11q-56 6 -104 13q81 -192 183 -459q41 -107 175 -465l27 -73l-19 -33q-32 -51 -65 -111q-61 -64 -95 -93l1 1
q-22 -16 -52.5 -25t-50.5 -11t-61 -4q-5 -1 -17.5 -1.5t-18.5 -0.5l-37 -3q0 -2 -8 -51l-8 -50l-11 -77l-14 -77q10 2 24 3q37 4 58 5q4 0 12.5 0.5t12.5 1.5q98 6 146 16q80 17 137 57q59 45 115 124q37 54 83 142z" />
    <glyph glyph-name="Amacron" unicode="&#x100;" horiz-adv-x="1670" 
d="M564 1862l-17 -29q10 -19 10 -42q0 -34 -43 -92q49 0 77 1q27 0 83.5 0.5t84.5 0.5h76h76q27 0 83 -0.5t83 -0.5q27 -1 76 -1q-31 44 -31 70q0 33 44 94q-96 -2 -160 -2q-29 -1 -84 -1q-28 -1 -77 -1q-141 0 -281 3zM945 1455h-197q-41 -84 -210 -447q-95 -207 -157 -337
t-158.5 -318t-188.5 -346l69 6q23 1 78 5l77 6q14 1 37.5 2.5t30.5 1.5q9 21 56 116q37 79 52 118q108 3 309 3q203 0 306 -3q22 -114 51 -233q14 -1 68 -4.5t85 -5.5q108 -8 151 -12q-102 243 -195 537q-58 183 -154 525q-79 282 -110 386zM902 917q17 -69 49 -205
q13 -58 49 -205h-107q-44 0 -66 1h-67h-117q-78 0 -118 -1q113 267 181 435l120 297l39 -161q28 -123 37 -161z" />
    <glyph glyph-name="amacron" unicode="&#x101;" horiz-adv-x="1276" 
d="M367 1515l-17 -29q10 -19 10 -42q0 -34 -43 -92q49 0 77 1q27 0 83.5 0.5t84.5 0.5h76h76q28 0 83 -0.5t83 -0.5q27 -1 76 -1q-31 44 -31 70q0 33 44 94q-96 -2 -160 -2q-29 -1 -84 -1q-28 -1 -77 -1q-141 0 -281 3zM1162 1130q-4 -2 -20.5 -1t-18.5 1q-2 -1 -8 -1h-14
t-15.5 0.5t-13.5 0.5h-5h-110q-4 -22 -6 -42t-6 -54.5t-8 -68.5q-45 71 -123 113t-167 42h-28q-85 0 -168 -39q-87 -41 -140 -110l1 1q-87 -104 -127 -256q-33 -128 -33 -269q0 -177 76 -294q46 -70 122.5 -107t166.5 -37h10q3 0 5 1h4h15q90 0 178 41q86 40 147 113
q13 -76 -3 -136l63 -5q115 -9 153 -14q-26 126 -34 236.5t3 235.5t29 235.5t53 297.5q15 76 22 116zM597 976h24q71 0 122 -45q53 -46 69 -122q16 -74 16 -155q0 -84 -13 -139q-18 -78 -73 -118l1 1q-28 -18 -65.5 -28.5t-64 -13t-71.5 -4.5q-59 0 -100 9q-52 11 -84 43
q-37 39 -46 74q-7 24 -9 100q15 123 37 180q38 98 96 153q68 65 161 65z" />
    <glyph glyph-name="Abreve" unicode="&#x102;" horiz-adv-x="1670" 
d="M658 1923l-16 15q-10 2 -20 2q-8 -1 -26 -1q-32 -2 -35 -10l-38 -2q2 -5 7 -22l6 -23q26 -115 80 -177q62 -57 198 -57q143 0 224 75q41 44 85 142l34 77h-12h-18q-7 -1 -18 -1h-13q-46 -2 -76 -2q-24 -61 -75 -102q-52 -42 -109 -42h-7q-2 0 -3 1h-3h-3q-1 -1 -4 -1h-6
q-57 0 -99 37q-42 36 -53 91zM945 1455h-197q-41 -84 -210 -447q-95 -207 -157 -337t-158.5 -318t-188.5 -346l69 6q23 1 78 5l77 6q14 1 37.5 2.5t30.5 1.5q9 21 56 116q37 79 52 118q108 3 309 3q203 0 306 -3q22 -114 51 -233q14 -1 68 -4.5t85 -5.5q108 -8 151 -12
q-102 243 -195 537q-58 183 -154 525q-79 282 -110 386zM902 917q17 -69 49 -205q13 -58 49 -205h-107q-44 0 -66 1h-67h-117q-78 0 -118 -1q113 267 181 435l120 297l39 -161q28 -123 37 -161z" />
    <glyph glyph-name="abreve" unicode="&#x103;" horiz-adv-x="1276" 
d="M461 1576l-16 15q-10 2 -20 2q-8 -1 -26 -1q-32 -2 -35 -10l-38 -2q2 -5 7 -22l6 -23q26 -115 80 -177q62 -57 198 -57q143 0 224 75q41 44 85 142l34 77h-12h-18q-7 -1 -18 -1h-13q-46 -2 -76 -2q-24 -61 -75 -102q-52 -42 -109 -42h-7q-2 0 -3 1h-3h-3q-1 -1 -4 -1h-6
q-57 0 -99 37q-42 36 -53 91zM1162 1130q-4 -2 -20.5 -1t-18.5 1q-2 -1 -8 -1h-14t-15.5 0.5t-13.5 0.5h-5h-110q-4 -22 -6 -42t-6 -54.5t-8 -68.5q-45 71 -123 113t-167 42h-28q-85 0 -168 -39q-87 -41 -140 -110l1 1q-87 -104 -127 -256q-33 -128 -33 -269q0 -177 76 -294
q46 -70 122.5 -107t166.5 -37h10q3 0 5 1h4h15q90 0 178 41q86 40 147 113q13 -76 -3 -136l63 -5q115 -9 153 -14q-26 126 -34 236.5t3 235.5t29 235.5t53 297.5q15 76 22 116zM597 976h24q71 0 122 -45q53 -46 69 -122q16 -74 16 -155q0 -84 -13 -139q-18 -78 -73 -118l1 1
q-28 -18 -65.5 -28.5t-64 -13t-71.5 -4.5q-59 0 -100 9q-52 11 -84 43q-37 39 -46 74q-7 24 -9 100q15 123 37 180q38 98 96 153q68 65 161 65z" />
    <glyph glyph-name="Aogonek" unicode="&#x104;" horiz-adv-x="1670" 
d="M1135 -174q0 -27 21 -44t51 -17q66 0 140 34v-23q-1 -10 -1 -30q-1 -10 -1 -29q-1 -10 -1 -24q0 -6 1 -8v-8v-31q-85 -15 -141 -15q-5 0 -7 1h-8q-93 6 -136 25q-68 37 -68 125q0 60 38 134q26 50 70 100l15 6h30q12 -1 38 -1h38h11l-125 8q-29 119 -51 233
q-103 3 -306 3q-201 0 -309 -3q-15 -39 -52 -118q-47 -95 -56 -116q-7 0 -30.5 -1.5t-37.5 -2.5l-77 -6q-55 -4 -78 -5l-69 -6q92 158 188.5 346t158.5 318t157 337q169 363 210 447h197q31 -104 110 -386q96 -342 154 -525q93 -294 195 -537q-43 4 -151 12l-10 1
q-52 -67 -71 -98q-37 -60 -37 -96zM893 507h107q-36 147 -49 205q-32 136 -49 205q-9 38 -37 161l-39 161l-120 -297q-68 -168 -181 -435q40 1 118 1h117h67q22 -1 66 -1z" />
    <glyph glyph-name="aogonek" unicode="&#x105;" horiz-adv-x="1276" 
d="M950 -120q0 -27 21 -44t51 -17q66 0 140 34v-23q-1 -10 -1 -30q-1 -10 -1 -29q-1 -10 -1 -24q0 -6 1 -8v-8v-31q-85 -15 -141 -15q-5 0 -7 1h-8q-93 6 -136 25q-68 37 -68 125q0 60 38 134q10 19 36 58h-1q16 60 3 136q-61 -73 -147 -113q-88 -41 -178 -41h-15h-4
q-2 -1 -5 -1h-10q-90 0 -166.5 37t-122.5 107q-76 117 -76 294q0 141 33 269q40 152 127 256l-1 -1q53 69 140 110q83 39 168 39h28q89 0 167 -42t123 -113q4 34 8 68.5t6 54.5t6 42h110h5q6 0 13.5 -0.5t15.5 -0.5h14t8 1q2 0 18.5 -1t20.5 1q-75 -407 -89 -505
q-37 -269 -6 -489q8 -62 22 -127q-18 2 -74 8q-23 -32 -28 -41q-37 -60 -37 -96zM815 515q13 55 13 139q0 81 -16 155q-16 76 -69 122q-51 45 -122 45h-24q-93 0 -161 -65q-58 -55 -96 -153q-22 -57 -37 -180q2 -76 9 -100q9 -35 46 -74q32 -32 84 -43q41 -9 100 -9
q45 2 71.5 4.5t64 13t65.5 28.5l-1 -1q55 40 73 118z" />
    <glyph glyph-name="Cacute" unicode="&#x106;" horiz-adv-x="1529" 
d="M827 1870l-14 -7q-5 -6 -73 -88v1q-24 -31 -67 -81q-42 -48 -90 -98q35 3 62 4q6 0 17.5 0.5t17.5 1.5q11 1 27 1q23 0 57 2l53 53q47 50 81 87q10 11 35 36q47 47 102 97q-35 -4 -104 -6q-9 -1 -28 -1t-29 -1q-19 -1 -47 -1zM1373 1358l18 10q-160 113 -417 113
q-166 0 -295 -40q-159 -49 -266 -152q-113 -118 -171 -317q-47 -162 -47 -341q0 -131 27 -230q31 -118 98 -202q91 -103 237 -149q129 -41 285 -41q257 0 446 118v42q0 46 4 164q5 151 6 165q-97 -87 -213 -136q-108 -46 -218 -46q-111 0 -193 17q-106 22 -173 76l1 -1
q-49 43 -72 118q-19 61 -19 146q0 138 34 258q39 143 132 241h-1q72 73 184 106q90 27 205 27q107 0 210 -44t186 -127q7 57 17 112q2 11 5.5 31t4.5 28q5 33 9 52z" />
    <glyph glyph-name="cacute" unicode="&#x107;" horiz-adv-x="1214" 
d="M707 1616l-14 -6q-62 -70 -136 -162q-85 -102 -108 -128q-80 -90 -113 -125l45 3q25 2 54 3q56 3 99 3q73 69 181 187l54 57q10 11 31 32t31 32q73 73 120 116q-32 -3 -122 -7l-66 -3q-42 -2 -56 -2zM1020 1049l17 19q-129 48 -272 48q-125 0 -231 -32
q-131 -39 -212 -115q-92 -90 -133 -240q-34 -121 -34 -260q0 -98 20 -171q25 -90 75 -150l-1 1q66 -83 185 -119q95 -29 223 -29q160 0 301 53q-2 70 -2 114q0 26 2 94q1 19 2.5 51t1.5 42q-85 -41 -148 -41h-12l-146 3h1q-79 7 -133 18.5t-97 40.5h1q-34 28 -51 79
q-15 46 -15 100q8 83 32 155q27 88 74 140q46 56 125 84q66 24 146 24q137 0 279 -72l8 60v-1q2 11 5.5 29.5t4.5 24.5q7 40 10 54z" />
    <glyph glyph-name="Cdotaccent" unicode="&#x10a;" horiz-adv-x="1529" 
d="M741 1868v-17q0 -5 1 -8v-8q0 -62 -23 -168q4 1 13.5 1.5t14.5 0.5q22 0 33 1q44 2 60 2q14 0 52 -2q9 -1 28 -1q4 0 11.5 -0.5t11.5 -1.5v7v11q-1 3 -1 10v6v13q0 67 23 176q-84 -7 -115 -7q-49 0 -88 4zM1373 1358l18 10q-160 113 -417 113q-166 0 -295 -40
q-159 -49 -266 -152q-113 -118 -171 -317q-47 -162 -47 -341q0 -131 27 -230q31 -118 98 -202q91 -103 237 -149q129 -41 285 -41q257 0 446 118v42q0 46 4 164q5 151 6 165q-97 -87 -213 -136q-108 -46 -218 -46q-111 0 -193 17q-106 22 -173 76l1 -1q-49 43 -72 118
q-19 61 -19 146q0 138 34 258q39 143 132 241h-1q72 73 184 106q90 27 205 27q107 0 210 -44t186 -127q7 57 17 112q2 11 5.5 31t4.5 28q5 33 9 52z" />
    <glyph glyph-name="cdotaccent" unicode="&#x10b;" horiz-adv-x="1214" 
d="M553 1521v-17q0 -5 1 -8v-8q0 -62 -23 -168q4 1 13.5 1.5t14.5 0.5q22 0 33 1q44 2 60 2q14 0 52 -2q9 -1 28 -1q4 0 11.5 -0.5t11.5 -1.5v7v11q-1 3 -1 10v6v13q0 67 23 176q-84 -7 -115 -7q-49 0 -88 4zM1020 1049l17 19q-129 48 -272 48q-125 0 -231 -32
q-131 -39 -212 -115q-92 -90 -133 -240q-34 -121 -34 -260q0 -98 20 -171q25 -90 75 -150l-1 1q66 -83 185 -119q95 -29 223 -29q160 0 301 53q-2 70 -2 114q0 26 2 94q1 19 2.5 51t1.5 42q-85 -41 -148 -41h-12l-146 3h1q-79 7 -133 18.5t-97 40.5h1q-34 28 -51 79
q-15 46 -15 100q8 83 32 155q27 88 74 140q46 56 125 84q66 24 146 24q137 0 279 -72l8 60v-1q2 11 5.5 29.5t4.5 24.5q7 40 10 54z" />
    <glyph glyph-name="Ccaron" unicode="&#x10c;" horiz-adv-x="1529" 
d="M773 1592h156q6 9 20.5 30.5t17.5 25.5q49 70 73 103t77.5 99.5t106.5 123.5l-107 -6h1l-65 -2q-76 -79 -154 -178l-37 -46l-1 2q-8 12 -33.5 52.5t-38 59.5t-35.5 51t-44 59q-21 0 -35 1q-7 1 -22 1t-23 1q-15 0 -82 4q83 -112 178 -292zM1373 1358l18 10
q-160 113 -417 113q-166 0 -295 -40q-159 -49 -266 -152q-113 -118 -171 -317q-47 -162 -47 -341q0 -131 27 -230q31 -118 98 -202q91 -103 237 -149q129 -41 285 -41q257 0 446 118v42q0 46 4 164q5 151 6 165q-97 -87 -213 -136q-108 -46 -218 -46q-111 0 -193 17
q-106 22 -173 76l1 -1q-49 43 -72 118q-19 61 -19 146q0 138 34 258q39 143 132 241h-1q72 73 184 106q90 27 205 27q107 0 210 -44t186 -127q7 57 17 112q2 11 5.5 31t4.5 28q5 33 9 52z" />
    <glyph glyph-name="ccaron" unicode="&#x10d;" horiz-adv-x="1272" 
d="M582 1146h156q6 9 20.5 30.5t17.5 25.5q49 70 73 103t77.5 99.5t106.5 123.5l-107 -6h1l-65 -2q-76 -79 -154 -178l-37 -46l-1 2q-8 12 -33.5 52.5t-38 59.5t-35.5 51t-44 59q-21 0 -35 1q-8 1 -23 1t-22 1q-15 0 -82 4q83 -112 178 -292zM1078 1049l17 19
q-129 48 -272 48q-125 0 -231 -32q-131 -39 -212 -115q-92 -90 -133 -240q-34 -121 -34 -260q0 -98 20 -171q25 -90 75 -150l-1 1q66 -83 185 -119q95 -29 223 -29q160 0 301 53q-2 70 -2 114q0 26 2 94q1 19 2.5 51t1.5 42q-85 -41 -148 -41h-12l-146 3h1q-79 7 -133 18.5
t-97 40.5h1q-34 28 -51 79q-15 46 -15 100q8 83 32 155q27 88 74 140q46 56 125 84q66 24 146 24q137 0 279 -72l8 60v-1q2 11 5.5 29.5t4.5 24.5q7 40 10 54z" />
    <glyph glyph-name="Dcaron" unicode="&#x10e;" horiz-adv-x="1606" 
d="M739 1592l-47 89q-95 180 -178 292q67 -4 82 -4q8 -1 23 -1t22 -1q14 -1 35 -1q21 -27 44 -59t35.5 -51t38 -59.5t33.5 -52.5l1 -2l37 46q78 99 154 178l65 2h-1l107 6q-53 -57 -106.5 -123.5t-77.5 -99.5t-73 -103q-3 -4 -17.5 -25.5t-20.5 -30.5h-156zM1463 1104
q27 -93 27 -217q0 -201 -40 -356q-56 -218 -190 -331q-120 -94 -302 -133q-118 -25 -323 -33q-155 -7 -210 -10q-143 -10 -212 -17q132 680 132 1332v63q0 42 -1 63l21 19q174 -21 390 -26q211 -10 320 -34q176 -39 282 -134q73 -73 106 -186zM1281 768q3 31 3 94
q0 181 -83 284q-71 70 -194 104q-89 24 -222 30q-111 0 -222 6q-17 -475 -67 -882q73 3 215 5q10 0 15 1h15q104 2 189 14q100 15 178 59h-1q64 43 110 128q32 59 64 157z" />
    <glyph glyph-name="dcaron" unicode="&#x10f;" horiz-adv-x="1334" 
d="M1539 1740l-20 -18q-7 -113 -13 -189l-23 -60q-32 -79 -55 -134q-9 -21 -19 -44.5t-22 -49.5t-17 -39q2 0 13.5 1.5t19.5 2.5q50 6 82 8q6 0 16.5 0.5t15.5 1.5q52 61 100 124q10 13 44.5 57.5t52.5 68.5l42 59q3 26 16 111q14 95 18 112q-105 -13 -192 -13h-30
q-19 0 -29 1zM647 1120h-28q-85 0 -168 -39q-87 -41 -140 -110l1 1q-87 -104 -127 -256q-33 -128 -33 -269q0 -177 76 -294q46 -70 122.5 -107t166.5 -37h10q3 0 5 1h4h15q90 0 178 41q86 40 147 113q-1 -11 -1 -24q-1 -5 -1 -11v-12v-24v-33q-1 -14 -1 -32l63 -5
q66 -5 132 -14q12 736 158 1530q-13 -4 -25 -6q-11 -3 -14 -3q-72 -10 -163 -17q-58 -323 -87 -548q-43 74 -120.5 114.5t-169.5 40.5zM297 578q12 100 43 180q38 98 96 153q68 65 161 65h24q71 0 122 -45q53 -46 69 -122q16 -74 16 -155q0 -84 -13 -139q-22 -92 -73 -129
l1 1q-28 -18 -65.5 -28.5t-64 -13t-71.5 -4.5q-59 0 -100 9q-52 11 -85 43h1q-33 35 -46 85q-13 48 -15 100z" />
    <glyph glyph-name="Dcroat" unicode="&#x110;" horiz-adv-x="1606" 
d="M559 1700q-28 -1 -77 -1q43 58 43 92q0 23 -10 42l17 29q140 -3 281 -3q49 0 77 1q55 0 84 1q64 0 160 2q-44 -61 -44 -94q0 -26 31 -70q-49 0 -76 1q-28 0 -83.5 0.5t-82.5 0.5h-76h-76q-28 0 -84.5 -0.5t-83.5 -0.5zM1463 1104q27 -93 27 -217q0 -201 -40 -356
q-56 -218 -190 -331q-120 -94 -302 -133q-118 -25 -323 -33q-155 -7 -210 -10q-143 -10 -212 -17q132 680 132 1332v63q0 42 -1 63l21 19q174 -21 390 -26q211 -10 320 -34q176 -39 282 -134q73 -73 106 -186zM1281 768q3 31 3 94q0 181 -83 284q-71 70 -194 104
q-89 24 -222 30q-111 0 -222 6q-17 -475 -67 -882q73 3 215 5q10 0 15 1h15q104 2 189 14q100 15 178 59h-1q64 43 110 128q32 59 64 157z" />
    <glyph glyph-name="dcroat" unicode="&#x111;" horiz-adv-x="1330" 
d="M645 1120h-25q-88 0 -170.5 -39t-137.5 -110l1 1q-87 -102 -128 -259q-32 -124 -32 -271q0 -182 75 -289h-1q42 -70 124 -109q75 -36 162 -36h9q3 0 5 1h6h11q93 0 180.5 43t150.5 118q-2 -62 -2 -69v-29q-1 -11 -1 -39q59 -2 123 -7l72 -4q5 541 92 1216q79 5 119 9
q6 0 13 1h12q1 15 6 39q5 36 5 38l10 66l-147 -14q3 28 11 71l12 70l-58 -5h1q-58 -4 -142 -6l-19 -140q-69 -4 -154 -4h-155l-5 -67q-2 -13 -3 -34q0 -6 -0.5 -18.5t-1.5 -16.5q205 0 302 3q-11 -94 -13 -119q-4 -55 -12 -120l-3 -27q-41 73 -123 116q-77 40 -169 40z
M356 601q21 175 96 265q76 91 204 91q138 0 198 -91q54 -75 54 -206q0 -90 -20 -163q-24 -88 -77 -151q-82 -93 -225 -93q-128 0 -185 88q-49 76 -49 193q0 36 4 67z" />
    <glyph glyph-name="Emacron" unicode="&#x112;" horiz-adv-x="1441" 
d="M389 1862l-17 -29q10 -19 10 -42q0 -34 -43 -92q49 0 77 1q27 0 83.5 0.5t84.5 0.5h76h76q28 0 83 -0.5t83 -0.5q27 -1 76 -1q-31 44 -31 70q0 33 44 94q-96 -2 -160 -2q-29 -1 -84 -1q-28 -1 -77 -1q-142 0 -281 3zM367 1484l-23 -19q-6 -732 -129 -1458q272 30 488 30
q225 0 472 -30v77q0 56 1 85q2 115 5 161q-235 19 -455 19q-110 0 -252 -5q2 17 5.5 48t4.5 43l10 88q8 74 16 179h307q111 0 172 1h172q0 14 1 25t1 25q6 79 16 134q-274 -6 -431 -6q-70 0 -222 2q2 26 6.5 95t7.5 105q8 95 12 198q130 -7 264 -7q218 0 441 23q4 29 16 105
l14 83q-260 -31 -478 -31q-223 0 -442 30z" />
    <glyph glyph-name="emacron" unicode="&#x113;" horiz-adv-x="1310" 
d="M440 1353q-28 -1 -77 -1q43 58 43 92q0 23 -10 42l17 29q140 -3 281 -3q49 0 77 1q55 0 84 1q64 0 160 2q-44 -61 -44 -94q0 -26 31 -70q-49 0 -76 1q-28 0 -83 0.5t-83 0.5h-76h-76q-28 0 -84.5 -0.5t-83.5 -0.5zM1115 670l-32 13l33 -14q-1 -7 -1 -18q0 -3 -0.5 -8.5
t-1.5 -8.5v1l-5 -40q-161 -3 -497 -3q-46 0 -69 1h-70h-120v-5q-2 -38 -2 -51q0 -63 14 -111q17 -58 56 -86v1q103 -65 284 -65h18q105 0 161 8q90 11 173 51v-32q-2 -50 -2 -76v-33q0 -87 3 -124q-198 -67 -409 -67q-120 9 -211 41q-115 38 -184 106q-52 61 -78 151
q-23 79 -23 171q0 132 38 256q45 147 129 238q74 75 185 114q96 32 209 34q99 -5 170 -26q93 -27 148 -82q49 -54 70 -136q15 -63 15 -156v-10q-1 -4 -1 -12v-22zM479 760h96q193 0 383 3q-11 105 -77 171q-71 69 -175 69q-146 0 -232 -82q-77 -68 -91 -160q65 -2 96 -1z
" />
    <glyph glyph-name="Edotaccent" unicode="&#x116;" horiz-adv-x="1441" 
d="M564 1868v-17q0 -5 1 -8v-8q0 -62 -23 -168q4 1 13.5 1.5t14.5 0.5q22 0 33 1q44 2 60 2q14 0 52 -2q9 -1 28 -1q4 0 11.5 -0.5t11.5 -1.5v7v11q-1 3 -1 10v6v13q0 67 23 176q-84 -7 -115 -7q-49 0 -88 4zM367 1484l-23 -19q-6 -732 -129 -1458q272 30 488 30
q225 0 472 -30v77q0 56 1 85q2 115 5 161q-235 19 -455 19q-110 0 -252 -5q2 17 5.5 48t4.5 43l10 88q8 74 16 179h307q111 0 172 1h172q0 14 1 25t1 25q6 79 16 134q-274 -6 -431 -6q-70 0 -222 2q2 26 6.5 95t7.5 105q8 95 12 198q130 -7 264 -7q218 0 441 23q4 29 16 105
l14 83q-260 -31 -478 -31q-223 0 -442 30z" />
    <glyph glyph-name="edotaccent" unicode="&#x117;" horiz-adv-x="1310" 
d="M566 1320q23 106 23 168v8q-1 3 -1 8v17l21 19q39 -4 88 -4q31 0 115 7q-23 -109 -23 -176v-13v-6q0 -7 1 -10v-11v-7q-4 1 -11.5 1.5t-11.5 0.5q-19 0 -28 1q-38 2 -52 2q-16 0 -60 -2q-11 -1 -33 -1q-5 0 -14.5 -0.5t-13.5 -1.5zM1115 670l-32 13l33 -14q-1 -7 -1 -18
q0 -3 -0.5 -8.5t-1.5 -8.5v1l-5 -40q-161 -3 -497 -3q-46 0 -69 1h-70h-120v-5q-2 -38 -2 -51q0 -63 14 -111q17 -58 56 -86v1q103 -65 284 -65h18q105 0 161 8q90 11 173 51v-32q-2 -50 -2 -76v-33q0 -87 3 -124q-198 -67 -409 -67q-120 9 -211 41q-115 38 -184 106
q-52 61 -78 151q-23 79 -23 171q0 132 38 256q45 147 129 238q74 75 185 114q96 32 209 34q99 -5 170 -26q93 -27 148 -82q49 -54 70 -136q15 -63 15 -156v-10q-1 -4 -1 -12v-22zM479 760h96q193 0 383 3q-11 105 -77 171q-71 69 -175 69q-146 0 -232 -82q-77 -68 -91 -160
q65 -2 96 -1z" />
    <glyph glyph-name="Eogonek" unicode="&#x118;" horiz-adv-x="1441" 
d="M809 1454q218 0 478 31l-14 -83q-12 -76 -16 -105q-223 -23 -441 -23q-134 0 -264 7q-4 -103 -12 -198q-3 -36 -7.5 -105t-6.5 -95q152 -2 222 -2q157 0 431 6q-10 -56 -16 -134q0 -14 -1 -25t-1 -25h-172q-61 -1 -172 -1h-307q-8 -105 -16 -179l-10 -88q-1 -12 -4.5 -43
t-5.5 -48q142 5 252 5q220 0 455 -19q-3 -46 -5 -161q-1 -29 -1 -85v-77q-38 4 -57 7q-50 -66 -66 -92q-37 -60 -37 -96q0 -27 21 -44t51 -17q66 0 140 34v-23q-1 -10 -1 -30q-1 -10 -1 -29q-1 -10 -1 -24q0 -6 1 -8v-8v-31q-85 -15 -141 -15q-5 0 -7 1h-8q-93 6 -136 25
q-68 37 -68 125q0 60 38 134q26 50 70 100l15 6h30q8 -1 25 -1q-172 16 -340 16q-216 0 -488 -30q123 726 129 1458l23 19q219 -30 442 -30z" />
    <glyph glyph-name="eogonek" unicode="&#x119;" horiz-adv-x="1310" 
d="M1115 670l-32 13l33 -14q-1 -7 -1 -18q0 -3 -0.5 -8.5t-1.5 -8.5v1l-5 -40q-161 -3 -497 -3q-46 0 -69 1h-70h-120v-5q-2 -38 -2 -51q0 -63 14 -111q17 -58 56 -86v1q103 -65 284 -65h18q105 0 161 8q90 11 173 51v-32q-2 -50 -2 -76v-33q0 -87 3 -124q-167 -56 -348 -66
q-41 -50 -63 -87q-37 -60 -37 -96q0 -27 21 -44t51 -17q66 0 140 34v-23q-1 -10 -1 -30q-1 -10 -1 -29q-1 -10 -1 -24q0 -6 1 -8v-8v-31q-85 -15 -141 -15q-5 0 -7 1h-8q-93 6 -136 25q-68 37 -68 125q0 60 38 134q26 50 70 100l2 1q-76 12 -132 32q-115 38 -184 106
q-52 61 -78 151q-23 79 -23 171q0 132 38 256q45 147 129 238q74 75 185 114q96 32 209 34q99 -5 170 -26q93 -27 148 -82q49 -54 70 -136q15 -63 15 -156v-10q-1 -4 -1 -12v-22zM479 760h96q193 0 383 3q-11 105 -77 171q-71 69 -175 69q-146 0 -232 -82q-77 -68 -91 -160
q65 -2 96 -1z" />
    <glyph glyph-name="Ecaron" unicode="&#x11a;" horiz-adv-x="1441" 
d="M596 1592h156q6 9 20.5 30.5t17.5 25.5q49 70 73 103t77.5 99.5t106.5 123.5l-107 -6h1l-65 -2q-76 -79 -154 -178l-37 -46l-1 2q-8 12 -33.5 52.5t-38 59.5t-35.5 51t-44 59q-21 0 -35 1q-7 1 -22 1t-23 1q-15 0 -82 4q83 -112 178 -292zM367 1484l-23 -19
q-6 -732 -129 -1458q272 30 488 30q225 0 472 -30v77q0 56 1 85q2 115 5 161q-235 19 -455 19q-110 0 -252 -5q2 17 5.5 48t4.5 43l10 88q8 74 16 179h307q111 0 172 1h172q0 14 1 25t1 25q6 79 16 134q-274 -6 -431 -6q-70 0 -222 2q2 26 6.5 95t7.5 105q8 95 12 198
q130 -7 264 -7q218 0 441 23q4 29 16 105l14 83q-260 -31 -478 -31q-223 0 -442 30z" />
    <glyph glyph-name="ecaron" unicode="&#x11b;" horiz-adv-x="1310" 
d="M620 1245l-47 89q-95 180 -178 292q67 -4 82 -4q7 0 22 -1t23 -1q14 -1 35 -1q21 -27 44 -59t35.5 -51t38 -59.5t33.5 -52.5l1 -2l37 46q78 99 154 178l65 2h-1l107 6q-53 -57 -106.5 -123.5t-77.5 -99.5t-73 -103q-3 -4 -17.5 -25.5t-20.5 -30.5h-156zM1115 670l-32 13
l33 -14q-1 -7 -1 -18q0 -3 -0.5 -8.5t-1.5 -8.5v1l-5 -40q-161 -3 -497 -3q-46 0 -69 1h-70h-120v-5q-2 -38 -2 -51q0 -63 14 -111q17 -58 56 -86v1q103 -65 284 -65h18q105 0 161 8q90 11 173 51v-32q-2 -50 -2 -76v-33q0 -87 3 -124q-198 -67 -409 -67q-120 9 -211 41
q-115 38 -184 106q-52 61 -78 151q-23 79 -23 171q0 132 38 256q45 147 129 238q74 75 185 114q96 32 209 34q99 -5 170 -26q93 -27 148 -82q49 -54 70 -136q15 -63 15 -156v-10q-1 -4 -1 -12v-22zM479 760h96q193 0 383 3q-11 105 -77 171q-71 69 -175 69q-146 0 -232 -82
q-77 -68 -91 -160q65 -2 96 -1z" />
    <glyph glyph-name="Gbreve" unicode="&#x11e;" horiz-adv-x="1620" 
d="M710 1679q-46 42 -73 118q9 34 14 45q11 27 25 32q6 2 11 2q8 1 26 1q11 0 21 -2l14 -14q15 -44 58 -68t96 -24h6q3 0 4 1h4h4q1 -1 3 -1h7q51 0 99 27q49 29 78 79q46 2 75 2h13q11 0 18 1h19h12l-31 -63q-2 -5 -11 -22t-12 -23.5t-11.5 -20.5t-15 -22.5t-16 -19
t-19.5 -18.5q-46 -36 -111 -50q-42 -9 -109 -11q-134 2 -198 51zM637 1797l-2 -8l-9 42zM1221 1457q132 -29 235 -95l-9 -53q-3 -15 -6 -36l-6 -44q-2 -13 -4.5 -28t-4.5 -30.5t-3 -21.5q-188 173 -446 173q-115 0 -209 -27q-115 -33 -189 -101q-86 -93 -128 -237
q-34 -117 -34 -254q0 -96 16 -156q22 -83 75 -127l-1 1q66 -48 172 -69q79 -15 192 -17q12 1 37.5 1.5t38.5 0.5q85 0 150 23q31 10 57 34l2 2q0 12 2 35t2 35q0 11 1.5 34t2.5 35q-94 2 -147 2h-146l19 223h260q85 0 132 1h131q-29 -319 -29 -611q-220 -140 -527 -140
q-165 0 -291 38q-153 46 -244 148q-64 78 -97 198q-28 101 -28 223q0 193 43 351q55 206 177 324q104 97 263 146q139 43 291 43q139 0 250 -24zM1154 389l2 2v1z" />
    <glyph glyph-name="gbreve" unicode="&#x11f;" horiz-adv-x="1296" 
d="M524 1576l-16 15q-10 2 -20 2q-8 -1 -26 -1q-32 -2 -35 -10l-38 -2q2 -5 7 -22l6 -23q26 -115 80 -177q62 -57 198 -57q143 0 224 75q41 44 85 142l34 77h-12h-18q-7 -1 -18 -1h-13q-46 -2 -76 -2q-24 -61 -75 -102q-52 -42 -109 -42h-7q-2 0 -3 1h-3h-3q-1 -1 -4 -1h-6
q-57 0 -99 37q-42 36 -53 91zM1043 117l5 36q53 514 143 962l-135 -17h1l-65 -5l-27 -107q-1 -6 -5 -20q-4 -10 -6 -21q-47 71 -131 116q-83 44 -175 44h-30q-90 0 -171 -34q-87 -36 -146 -103q-78 -89 -111 -227q-28 -111 -28 -242q0 -206 83 -331q44 -68 124 -108
q78 -39 162 -39q200 0 329 136q-2 -22 -2 -32q-27 -94 -107 -175q-41 -46 -114 -70q-57 -18 -133 -20q-160 0 -296 76q0 -2 -4 -32t-6 -47q-3 -25 -11 -88q-16 -120 -24 -168q143 -40 317 -40q131 0 216 20q119 26 197 103q74 80 110 208q23 79 40 225zM834 576v1
q-7 -72 -26 -122q-26 -69 -72 -99q-94 -38 -214 -38q-60 0 -98 6q-52 6 -88 31q-28 33 -40 87q-9 42 -11 103q0 10 -1 15t-1 15q7 82 26 149q24 84 65 137q36 44 92.5 67.5t115.5 23.5q118 0 185 -73q71 -79 71 -229q0 -41 -4 -74z" />
    <glyph glyph-name="Gdotaccent" unicode="&#x120;" horiz-adv-x="1620" 
d="M762 1667q23 106 23 168v8q-1 3 -1 8v17l21 19q39 -4 88 -4q31 0 115 7q-23 -109 -23 -176v-13v-6q0 -7 1 -10v-11v-7q-4 1 -11.5 1.5t-11.5 0.5q-19 0 -28 1q-38 2 -52 2q-16 0 -60 -2q-11 -1 -33 -1q-5 0 -14.5 -0.5t-13.5 -1.5zM1221 1457q132 -29 235 -95l-9 -53
q-3 -15 -6 -36l-6 -44q-2 -13 -4.5 -28t-4.5 -30.5t-3 -21.5q-188 173 -446 173q-115 0 -209 -27q-115 -33 -189 -101q-86 -93 -128 -237q-34 -117 -34 -254q0 -96 16 -156q22 -83 75 -127l-1 1q66 -48 172 -69q79 -15 192 -17q12 1 37.5 1.5t38.5 0.5q85 0 150 23
q31 10 57 34l2 2q0 12 2 35t2 35q0 11 1.5 34t2.5 35q-94 2 -147 2h-146l19 223h260q85 0 132 1h131q-29 -319 -29 -611q-220 -140 -527 -140q-165 0 -291 38q-153 46 -244 148q-64 78 -97 198q-28 101 -28 223q0 193 43 351q55 206 177 324q104 97 263 146q139 43 291 43
q139 0 250 -24zM1154 389l2 2v1z" />
    <glyph glyph-name="gdotaccent" unicode="&#x121;" horiz-adv-x="1296" 
d="M606 1521v-17q0 -5 1 -8v-8q0 -62 -23 -168q4 1 13.5 1.5t14.5 0.5q22 0 33 1q44 2 60 2q14 0 52 -2q9 -1 28 -1q4 0 11.5 -0.5t11.5 -1.5v7v11q-1 3 -1 10v6v13q0 67 23 176q-84 -7 -115 -7q-49 0 -88 4zM1043 117l5 36q53 514 143 962l-135 -17h1l-65 -5l-27 -107
q-1 -6 -5 -20q-4 -10 -6 -21q-47 71 -131 116q-83 44 -175 44h-30q-90 0 -171 -34q-87 -36 -146 -103q-78 -89 -111 -227q-28 -111 -28 -242q0 -206 83 -331q44 -68 124 -108q78 -39 162 -39q200 0 329 136q-2 -22 -2 -32q-27 -94 -107 -175q-41 -46 -114 -70
q-57 -18 -133 -20q-160 0 -296 76q0 -2 -4 -32t-6 -47q-3 -25 -11 -88q-16 -120 -24 -168q143 -40 317 -40q131 0 216 20q119 26 197 103q74 80 110 208q23 79 40 225zM834 576v1q-7 -72 -26 -122q-26 -69 -72 -99q-94 -38 -214 -38q-60 0 -98 6q-52 6 -88 31q-28 33 -40 87
q-9 42 -11 103q0 10 -1 15t-1 15q7 82 26 149q24 84 65 137q36 44 92.5 67.5t115.5 23.5q118 0 185 -73q71 -79 71 -229q0 -41 -4 -74z" />
    <glyph glyph-name="Gcommaaccent" unicode="&#x122;" horiz-adv-x="1620" 
d="M1221 1457q132 -29 235 -95l-9 -53q-3 -15 -6 -36l-6 -44q-2 -13 -4.5 -28t-4.5 -30.5t-3 -21.5q-188 173 -446 173q-115 0 -209 -27q-115 -33 -189 -101q-86 -93 -128 -237q-34 -117 -34 -254q0 -96 16 -156q22 -83 75 -127l-1 1q66 -48 172 -69q79 -15 192 -17
q12 1 37.5 1.5t38.5 0.5q85 0 150 23q31 10 57 34l2 2q0 12 2 35t2 35q0 11 1.5 34t2.5 35q-94 2 -147 2h-146l19 223h260q85 0 132 1h131q-29 -319 -29 -611q-220 -140 -527 -140q-165 0 -291 38q-153 46 -244 148q-64 78 -97 198q-28 101 -28 223q0 193 43 351
q55 206 177 324q104 97 263 146q139 43 291 43q139 0 250 -24zM1154 389l2 2v1zM770 -73h30q87 0 192 13q-4 -17 -18 -112q-13 -85 -16 -111l-42 -59q-18 -24 -52.5 -68.5t-44.5 -57.5q-48 -63 -100 -124q-5 -1 -15.5 -1.5t-16.5 -0.5q-32 -2 -82 -8q-8 -1 -19.5 -2.5
t-13.5 -1.5q5 13 17 39t22 49.5t19 44.5q23 55 55 134l23 60q6 76 13 189l20 18q10 -1 29 -1z" />
    <glyph glyph-name="gcommaaccent" unicode="&#x123;" horiz-adv-x="1296" 
d="M1043 117l5 36q53 514 143 962l-135 -17h1l-65 -5l-27 -107q-1 -6 -5 -20q-4 -10 -6 -21q-47 71 -131 116q-83 44 -175 44h-30q-90 0 -171 -34q-87 -36 -146 -103q-78 -89 -111 -227q-28 -111 -28 -242q0 -206 83 -331q44 -68 124 -108q78 -39 162 -39q200 0 329 136
q-2 -22 -2 -32q-27 -94 -107 -175q-41 -46 -114 -70q-57 -18 -133 -20q-160 0 -296 76q0 -2 -4 -32t-6 -47q-3 -25 -11 -88q-16 -120 -24 -168q143 -40 317 -40q131 0 216 20q119 26 197 103q74 80 110 208q23 79 40 225zM834 576v1q-7 -72 -26 -122q-26 -69 -72 -99
q-94 -38 -214 -38q-60 0 -98 6q-52 6 -88 31q-28 33 -40 87q-9 42 -11 103q0 10 -1 15t-1 15q7 82 26 149q24 84 65 137q36 44 92.5 67.5t115.5 23.5q118 0 185 -73q71 -79 71 -229q0 -41 -4 -74zM390 -546l-20 -18q-7 -113 -13 -189l-23 -60q-32 -79 -55 -134
q-9 -21 -19 -44.5t-22 -49.5t-17 -39q2 0 13.5 1.5t19.5 2.5q49 6 82 8q6 0 16.5 0.5t15.5 1.5q52 61 100 124q10 13 44.5 57.5t52.5 68.5l42 59q3 26 16 111q14 95 18 112q-105 -13 -192 -13h-30q-19 0 -29 1z" />
    <glyph glyph-name="Hbar" unicode="&#x126;" horiz-adv-x="1612" 
d="M1422 1274h80q-24 -16 -33 -77t22 -84h-92q-58 -453 -58 -873q0 -115 5 -233q-33 4 -121 12q-24 1 -65 5q-12 1 -32 2.5t-26 1.5q2 253 17 476q-102 2 -153 2h-153h-155q-45 0 -155 -2q-30 -269 -61 -476q-14 -1 -56.5 -4.5t-67.5 -5.5q-47 -4 -66 -5l-59 -6
q109 533 139 1107q-44 -1 -124 -1q21 37 32 58.5t15 30.5t13 31.5t16 39.5h55q2 62 4 190l23 19q87 -13 201 -18q-4 -128 -7 -192q443 0 638 1q10 73 29 192l91 7q34 2 69 6q7 1 19 2.5t18 1.5l32 3q-25 -147 -34 -211zM1144 790q14 164 33 324h-625q-10 -185 -23 -325h37
q11 -1 37 -1h96q135 0 445 2z" />
    <glyph glyph-name="hbar" unicode="&#x127;" horiz-adv-x="1419" 
d="M558 1198h-28q-17 -162 -26 -237q139 159 320 159h26q85 0 153 -31q76 -35 110 -104q50 -99 50 -235q0 -40 -3 -79q-12 -208 -12 -413q0 -40 1 -61q0 -43 1 -65q0 -14 3 -125q-63 8 -118 13l-62 6q-47 4 -56 5q16 249 55 639q3 19 3 61q0 91 -27 150q-27 44 -71 66.5
t-94 22.5q-58 0 -115 -24.5t-96 -68.5q-86 -99 -98 -247l-6 -85q-4 -56 -6 -85q-25 -320 -38 -430q-7 0 -55 -5l-64 -6q-55 -5 -121 -13q114 594 155 1191h-71q-47 -1 -132 -1q81 56 81 86q0 25 -18 40l13 34l137 -1q6 112 8 173q24 -4 46 -5l53 -6q72 -8 99 -9l-12 -155
h158q85 0 133 1q96 0 145 1q113 0 279 2q-41 -26 -64 -51t-23 -38q0 -26 76 -72q-86 0 -133 1q-48 0 -146 0.5t-145 0.5h-133h-132z" />
    <glyph glyph-name="Itilde" unicode="&#x128;" horiz-adv-x="709" 
d="M483 2090l46 -51q60 -62 148 -62q71 0 115 57q27 35 64 128v-1q8 20 23 54l12 29q4 9 11 23h-13h-19q-7 -1 -20 -1h-14h-40q-15 -1 -40 -1l-14 -35q-6 -14 -9 -23q-9 -25 -16.5 -40t-21.5 -30.5t-31 -19.5q-23 4 -51 33l-49 52q-62 62 -147 62q-43 0 -82 -27.5t-62 -74.5
q-16 -33 -32 -78q-3 -7 -2 -7q2 0 3 1q1 0 1 -2l-1 -1q0 -1 -0.5 -2.5t-1.5 -4t-2 -4.5q-6 -14 -15 -32l-30 -59h17h24q16 0 24 1h19q11 0 62 3q15 33 22 55v-1q13 37 27 57q19 30 41 35q25 -4 54 -33zM367 1467l-26 -16q-74 -778 -159 -1456q86 42 136 42q52 0 122 -41
q22 408 49 746q27 363 61 745q-72 -32 -114 -32q-30 0 -69 12z" />
    <glyph glyph-name="itilde" unicode="&#x129;" horiz-adv-x="634" 
d="M300 1743l46 -51q60 -62 148 -62q71 0 115 57q27 35 64 128v-1q8 20 23 54l12 29q4 9 11 23h-13h-19q-7 -1 -20 -1h-14h-40q-15 -1 -40 -1l-14 -35q-6 -14 -9 -23q-9 -25 -16.5 -40t-21.5 -30.5t-31 -19.5q-23 4 -51 33l-49 52q-62 62 -147 62q-43 0 -82 -27.5t-62 -74.5
q-16 -33 -32 -78q-3 -7 -2 -7q2 0 3 1q1 0 1 -2v-1q-1 -1 -1.5 -2.5t-1.5 -4t-2 -4.5q-6 -14 -15 -32l-30 -59h17h24q16 0 24 1h19q11 0 62 3q15 33 22 55v-1q13 37 27 57q19 30 41 35q25 -4 54 -33zM294 1107l-30 -15q-35 -524 -98 -1097q68 35 107 35q37 0 92 -34
q15 227 45 565q25 281 55 564q-67 -37 -107 -37q-36 0 -64 19z" />
    <glyph glyph-name="Imacron" unicode="&#x12a;" horiz-adv-x="709" 
d="M189 1862l-17 -29q10 -19 10 -42q0 -34 -43 -92q49 0 77 1q27 0 83.5 0.5t84.5 0.5h76h76q28 0 83 -0.5t83 -0.5q27 -1 76 -1q-31 44 -31 70q0 33 44 94q-96 -2 -160 -2q-29 -1 -84 -1q-28 -1 -77 -1q-142 0 -281 3zM367 1467l-26 -16q-74 -778 -159 -1456q86 42 136 42
q52 0 122 -41q22 408 49 746q27 363 61 745q-72 -32 -114 -32q-30 0 -69 12z" />
    <glyph glyph-name="imacron" unicode="&#x12b;" horiz-adv-x="634" 
d="M6 1515l-17 -29q10 -19 10 -42q0 -34 -43 -92q49 0 77 1q27 0 83.5 0.5t84.5 0.5h76h76q27 0 83 -0.5t83 -0.5q27 -1 76 -1q-31 44 -31 70q0 33 44 94q-96 -2 -160 -2q-29 -1 -84 -1q-28 -1 -77 -1q-142 0 -281 3zM294 1107l-30 -15q-35 -524 -98 -1097q68 35 107 35
q37 0 92 -34q15 227 45 565q25 281 55 564q-67 -37 -107 -37q-36 0 -64 19z" />
    <glyph glyph-name="Iogonek" unicode="&#x12e;" horiz-adv-x="709" 
d="M323 -141q0 -27 21 -44t51 -17q66 0 140 34v-23q-1 -10 -1 -30q-1 -10 -1 -29q-1 -10 -1 -24q0 -6 1 -8v-8v-31q-85 -15 -141 -15q-5 0 -7 1h-8q-93 6 -136 25q-68 37 -68 125q0 60 38 134q20 38 52 79q-36 -10 -81 -33q85 678 159 1456l26 16q39 -12 69 -12q42 0 114 32
q-34 -382 -61 -745q-27 -338 -49 -746q-16 10 -38 20q-18 -24 -42 -61q-37 -60 -37 -96z" />
    <glyph glyph-name="iogonek" unicode="&#x12f;" horiz-adv-x="634" 
d="M159 1320q23 106 23 168v8q-1 3 -1 8v17l21 19q39 -4 88 -4q31 0 115 7q-23 -109 -23 -176v-13v-6q0 -7 1 -10v-11v-7q-4 1 -11.5 1.5t-11.5 0.5q-19 0 -28 1q-38 2 -52 2q-16 0 -60 -2q-11 -1 -33 -1q-5 0 -14.5 -0.5t-13.5 -1.5zM333 -208q66 0 140 34v-23
q-1 -10 -1 -30q-1 -10 -1 -29q-1 -10 -1 -24q0 -6 1 -8v-8v-31q-85 -15 -141 -15q-5 0 -7 1h-8q-93 6 -136 25q-68 37 -68 125q0 60 38 134q18 35 40 63l-23 -11q63 573 98 1097l30 15q28 -19 64 -19q40 0 107 37q-30 -283 -55 -564q-30 -350 -41 -513h1l-2 -2l-3 -50
q-5 3 -24 14q-30 -40 -43 -61q-37 -60 -37 -96q0 -27 21 -44t51 -17z" />
    <glyph glyph-name="Idotaccent" unicode="&#x130;" horiz-adv-x="727" 
d="M421 1830v-25q0 -70 -20 -175q4 1 13 1.5t14 0.5q21 0 32 1q44 2 59 2q58 0 105 -5q-3 36 -3 58q0 71 22 165q-75 -8 -115 -8q-38 0 -86 5zM385 1467l-26 -16q-74 -778 -159 -1456q86 42 136 42q52 0 122 -41q22 408 49 746q27 363 61 745q-72 -32 -114 -32q-30 0 -69 12
z" />
    <glyph glyph-name="dotlessi" unicode="&#x131;" horiz-adv-x="634" 
d="M294 1107l-30 -15q-35 -524 -98 -1097q68 35 107 35q37 0 92 -34q15 227 45 565q25 281 55 564q-67 -37 -107 -37q-36 0 -64 19z" />
    <glyph glyph-name="IJ" unicode="&#x132;" horiz-adv-x="1553" 
d="M367 1467l-26 -16q-74 -778 -159 -1456q86 42 136 42q52 0 122 -41q22 408 49 746q27 363 61 745q-72 -32 -114 -32q-30 0 -69 12zM1270 1453l-19 -17q-50 -345 -171 -1324v1q-12 -80 -93 -128q-62 -36 -158 -51l-100 8q0 -4 -1 -12.5t-2 -17.5t-1 -17l-5 -47
q-19 -182 -29 -250l31 3q5 0 17 1.5t18 2.5q40 5 66 5l50 9q94 15 151 34q83 27 140 75q69 69 98 170q17 59 32 188q89 795 188 1392q-89 -19 -212 -25z" />
    <glyph glyph-name="ij" unicode="&#x133;" horiz-adv-x="1401" 
d="M340 1405l-13 -110q44 -33 92 -33q45 0 99 28q0 9 1.5 31.5t2.5 35.5t2.5 35.5t1.5 31.5q0 15 1 26q1 6 1.5 17t0.5 17q1 16 4 59q-61 -42 -96 -42q-30 0 -53 17l-32 -12zM1175 1498l-18 -16q-4 -25 -13 -89q-4 -30 -14 -90l-7 -47q120 12 198 33l3 41q2 26 3 41
q2 41 6 83q0 7 1.5 22t2.5 22l3 38q-75 -25 -165 -38zM345 1103l-26 -16q-24 -269 -53 -550q-39 -383 -58 -551q68 52 108 52q35 0 91 -50q13 193 40 563q23 310 44 561q-61 -18 -91 -18q-26 0 -55 9zM1095 1081l-19 -16q-26 -186 -38 -277q-26 -199 -37 -278
q-9 -64 -25 -190q-4 -32 -12.5 -95t-13.5 -94q0 -3 -1 -5q-1 -3 -1 -7q-9 -62 -16 -88q-14 -52 -36 -79q-42 -39 -153 -57l-59 -12q-7 -57 -25 -179l-16 -115q19 7 46 15q22 7 67 16q11 1 28 5q87 17 124 31q68 26 114 66q52 50 79 134q16 52 26 148q52 479 134 1092
q-102 -14 -166 -15z" />
    <glyph glyph-name="Kcommaaccent" unicode="&#x136;" horiz-adv-x="1658" 
d="M365 1479l-22 -19q-14 -717 -169 -1453q90 9 140 13q25 1 73 5q14 1 36 2.5t29 1.5q30 320 44 656q120 -204 196 -327q112 -183 205 -322q235 -5 494 -32q-161 174 -326 358q-38 42 -153.5 171t-172.5 192q-17 21 -29 34t-29 34l243 213q232 203 242 212l302 263l-107 -7
q-57 -5 -182 -11q-68 -59 -94 -81l-94 -82q-239 -204 -478 -418q12 110 27 291q14 194 19 291q-117 6 -194 15zM594 -72l-20 -18q-7 -113 -13 -189l-23 -60q-32 -79 -55 -134q-9 -21 -19 -44.5t-22 -49.5t-17 -39q2 0 13.5 1.5t19.5 2.5q50 6 82 8q6 0 16.5 0.5t15.5 1.5
q52 61 100 124q10 13 44.5 57.5t52.5 68.5l42 59q3 26 16 111q14 95 18 112q-105 -13 -192 -13h-30q-19 0 -29 1z" />
    <glyph glyph-name="kcommaaccent" unicode="&#x137;" horiz-adv-x="1477" 
d="M375 1525l-22 -18q-24 -743 -172 -1500q75 8 131 13l69 6q47 4 60 5q0 8 5 65q1 15 2.5 37t1.5 27l12 174q4 54 10 172q45 -64 87 -123q65 -91 167 -227q44 -57 90 -120q178 -4 394 -33q-217 239 -256 281q-29 31 -122.5 130t-139.5 149l-36 37l130 147l42 48t33 38
l80 91q24 27 51.5 58t58 65.5t46.5 52.5q-16 -1 -56 -1q-11 -1 -33 -1.5t-33 -0.5q-90 -2 -122 -2q-27 -28 -57.5 -60.5t-67 -72t-57.5 -61.5l-181 -196q22 209 37 402q11 148 24 402q-96 5 -176 16zM444 -72l-20 -18q-7 -113 -13 -189l-23 -60q-32 -79 -55 -134
q-9 -21 -19 -44.5t-22 -49.5t-17 -39q2 0 13.5 1.5t19.5 2.5q49 6 82 8q6 0 16.5 0.5t15.5 1.5q52 61 100 124q10 13 44.5 57.5t52.5 68.5l42 59q3 26 16 111q14 95 18 112q-105 -13 -192 -13h-30q-19 0 -29 1z" />
    <glyph glyph-name="Lacute" unicode="&#x139;" horiz-adv-x="1378" 
d="M802 2323l-14 -6q-62 -70 -136 -162q-85 -102 -108 -128q-80 -90 -113 -125l45 3q26 1 54 3q56 3 99 3q73 69 181 187l54 57q10 11 31 32t31 32q73 73 120 116q-32 -3 -122 -7l-66 -3q-42 -2 -56 -2zM366 1481l-23 -18q-19 -745 -150 -1456q252 30 477 30q211 0 443 -26
q5 85 12 160q4 55 15 159q-228 19 -437 19q-107 0 -240 -5q63 500 94 1118q-91 4 -191 19z" />
    <glyph glyph-name="lacute" unicode="&#x13a;" horiz-adv-x="797" 
d="M693 2323l-14 -6q-62 -70 -136 -162q-85 -102 -108 -128q-80 -90 -113 -125l45 3q25 1 54 3q55 3 99 3q73 69 181 187l54 57q10 11 31 32t31 32q73 73 120 116q-32 -3 -122 -7l-66 -3q-42 -2 -56 -2zM379 1520l-27 -15q-64 -818 -152 -1506q106 39 172 39q70 0 157 -38
l3 57q0 10 1.5 32t2.5 33q6 88 9 121q-62 21 -114 25q64 765 109 1236q-32 -2 -34 -2q-7 -1 -19 -1q-66 0 -108 19z" />
    <glyph glyph-name="Lcommaaccent" unicode="&#x13b;" horiz-adv-x="1378" 
d="M366 1481l-23 -18q-19 -745 -150 -1456q252 30 477 30q211 0 443 -26q5 85 12 160q4 55 15 159q-228 19 -437 19q-107 0 -240 -5q63 500 94 1118q-91 4 -191 19zM468 -72l-20 -18q-7 -113 -13 -189l-23 -60q-32 -79 -55 -134q-9 -21 -19 -44.5t-22 -49.5t-17 -39
q2 0 13.5 1.5t19.5 2.5q50 6 82 8q6 0 16.5 0.5t15.5 1.5q52 61 100 124q10 13 44.5 57.5t52.5 68.5l42 59q3 26 16 111q14 95 18 112q-105 -13 -192 -13h-30q-19 0 -29 1z" />
    <glyph glyph-name="lcommaaccent" unicode="&#x13c;" horiz-adv-x="797" 
d="M379 1520l-27 -15q-64 -818 -152 -1506q106 39 172 39q70 0 157 -38l3 57q0 10 1.5 32t2.5 33q6 88 9 121q-62 21 -114 25q64 765 109 1236q-32 -2 -34 -2q-7 -1 -19 -1q-66 0 -108 19zM156 -72l-20 -18q-7 -113 -13 -189l-23 -60q-32 -79 -55 -134q-9 -21 -19 -44.5
t-22 -49.5t-17 -39q2 0 13.5 1.5t19.5 2.5q49 6 82 8q6 0 16.5 0.5t15.5 1.5q52 61 100 124q10 13 44.5 57.5t52.5 68.5l42 59q3 26 16 111q14 95 18 112q-105 -13 -192 -13h-30q-19 0 -29 1z" />
    <glyph glyph-name="Lcaron" unicode="&#x13d;" horiz-adv-x="1378" 
d="M972 1705l-20 -19q-1 -27 -5 -81l-6 -82l-19 -62q-8 -23 -17.5 -50t-21.5 -61t-19 -54q-37 -99 -63 -164l54 8q49 5 68 6q16 0 24 1q8 0 15 1h14q26 41 70 114l110 187q21 37 42 72q5 39 7 47q1 10 15 104q2 13 7 46q-97 -14 -189 -14h-33q-22 0 -33 1zM366 1481l-23 -18
q-19 -745 -150 -1456q252 30 477 30q211 0 443 -26q5 85 12 160q4 55 15 159q-228 19 -437 19q-107 0 -240 -5q63 500 94 1118q-91 4 -191 19z" />
    <glyph glyph-name="lcaron" unicode="&#x13e;" horiz-adv-x="797" 
d="M817 1753l-20 -19q-1 -27 -5 -81l-6 -82l-19 -62q-8 -23 -17.5 -50t-21.5 -61t-19 -54q-37 -99 -63 -164l54 8q49 5 68 6q16 0 24 1q8 0 15 1h14q26 41 70 114l110 187q21 37 42 72q6 39 7 47q1 10 15 104q2 13 7 46q-97 -14 -189 -14h-33q-22 0 -33 1zM379 1520l-27 -15
q-64 -818 -152 -1506q106 39 172 39q70 0 157 -38l3 57q0 10 1.5 32t2.5 33q6 88 9 121q-62 21 -114 25q64 765 109 1236q-32 -2 -34 -2q-7 -1 -19 -1q-66 0 -108 19z" />
    <glyph glyph-name="Ldot" unicode="&#x13f;" horiz-adv-x="1378" 
d="M366 1481l-23 -18q-19 -745 -150 -1456q252 30 477 30q211 0 443 -26q5 85 12 160q4 55 15 159q-228 19 -437 19q-107 0 -240 -5q63 500 94 1118q-91 4 -191 19zM771 984l-22 -19q0 -120 -26 -251q78 7 119 7q43 0 112 -6q0 145 27 272q-59 -8 -120 -8q-51 0 -90 5z" />
    <glyph glyph-name="ldot" unicode="&#x140;" horiz-adv-x="797" 
d="M379 1520l-27 -15q-64 -818 -152 -1506q106 39 172 39q70 0 157 -38l3 57q0 10 1.5 32t2.5 33q6 88 9 121q-62 21 -114 25q64 765 109 1236q-32 -2 -34 -2q-7 -1 -19 -1q-66 0 -108 19zM624 971l-22 -19q0 -120 -26 -251q78 7 119 7q43 0 112 -6q0 145 27 272
q-59 -8 -120 -8q-51 0 -90 5z" />
    <glyph glyph-name="Lslash" unicode="&#x141;" horiz-adv-x="1491" 
d="M441 1464l-21 -20q-12 -402 -41 -707l-111 -77q-63 -44 -112 -79q17 -22 32 -55q4 -10 17 -29q11 -19 21 -36l18 12q28 20 41 30q23 18 48 34q9 7 29 21q-27 -263 -67 -532q182 11 371 11q266 0 559 -29q-2 48 -2 94v46q-1 18 -1 46q-280 23 -555 23q-44 0 -66 1
q-44 0 -66 -1q2 18 6.5 60t7.5 65q17 167 23 239q2 30 11 124l76 51l75 51l237 160l-38 59l-38 61q-4 -3 -16 -11t-19 -12t-20.5 -12.5t-19.5 -13.5l-39 -27q-5 -4 -18 -12.5t-19 -12.5l-145 -96q18 207 40 567q-87 1 -198 7z" />
    <glyph glyph-name="lslash" unicode="&#x142;" horiz-adv-x="827" 
d="M445 1503l-21 -18q-26 -369 -53 -666l-44 -30h1l-75 -52q-61 -43 -76 -54l27 -48q19 -30 40 -71q9 6 55 38q25 18 58 41q-15 -177 -28 -304l-15 -150q-2 -24 -7.5 -75.5t-8.5 -78.5q87 3 108 3q19 0 91 -3q29 443 58 745q111 74 200 141l-28 43q-29 46 -41 72l-96 -69
l-19 -13q8 94 13 140q5 61 26 272q3 24 7.5 71t6.5 68q-36 -4 -101 -4h-39q-13 0 -39 2z" />
    <glyph glyph-name="Nacute" unicode="&#x143;" horiz-adv-x="1579" 
d="M750 1908l-54 -3q-27 -1 -45 -3q33 35 113 125q23 26 108 128q74 92 136 162l14 6q14 0 56 2l66 3q90 4 122 7q-47 -43 -120 -116l-62 -64q-30 -31 -54 -57q-108 -118 -181 -187q-43 0 -99 -3zM1442 1487q-131 -713 -131 -1344q0 -57 2 -135q-70 8 -150 14q-31 2 -86 5.5
t-64 4.5q-120 240 -307 675q-62 147 -102 244q-54 130 -105 241q-4 -563 -60 -1163q-7 0 -29 -1.5t-35 -2.5q-45 -4 -71 -5q-50 -4 -137 -13q149 697 169 1424l22 19q66 -8 186 -16q15 0 25 -1t25 -1q105 -206 304 -656q7 -15 24.5 -54t25.5 -59q74 -166 92 -203
q9 -19 26.5 -57t26.5 -56q45 592 146 1121q36 3 47 4q17 1 55 5q19 1 55 5t46 5z" />
    <glyph glyph-name="nacute" unicode="&#x144;" horiz-adv-x="1406" 
d="M893 1976l-14 -6q-62 -70 -136 -162q-85 -102 -108 -128q-80 -90 -113 -125l45 3q25 2 54 3q55 3 99 3q73 69 181 187l54 57q10 11 31 32t31 32q73 73 120 116q-32 -3 -122 -7l-66 -3q-42 -2 -56 -2zM1138 670q2 48 2 73q0 139 -45 239q-36 69 -112 103q-71 31 -154 31
q-183 0 -368 -129v11q0 3 1 4q0 2 1 3v11l2 88l-45 3q-9 1 -26.5 2t-25.5 2q-75 6 -98 9q-8 -577 -129 -1113l63 6q16 1 66 4t76 5q13 1 34 2.5t29 1.5q32 306 43 610v-1q13 155 89 237q42 45 113 67q56 16 128 16q47 0 81 -15q42 -20 62 -57v1q22 -50 22 -122q0 -37 -4 -68
v1q-1 -3 -1 -10v-10q-56 -371 -76 -649q41 -1 138 -7q13 -1 63 -5t73 -6q-15 168 -15 313q0 159 13 349z" />
    <glyph glyph-name="Ncommaaccent" unicode="&#x145;" horiz-adv-x="1579" 
d="M1442 1487q-131 -713 -131 -1344q0 -57 2 -135q-70 8 -150 14q-31 2 -86 5.5t-64 4.5q-120 240 -307 675q-62 147 -102 244q-54 130 -105 241q-4 -563 -60 -1163q-7 0 -29 -1.5t-35 -2.5q-45 -4 -71 -5q-50 -4 -137 -13q149 697 169 1424l22 19q66 -8 186 -16q15 0 25 -1
t25 -1q105 -206 304 -656q7 -15 24.5 -54t25.5 -59q74 -166 92 -203q9 -19 26.5 -57t26.5 -56q45 592 146 1121q36 3 47 4q17 1 55 5q19 1 55 5t46 5zM660 -73h30q87 0 192 13q-4 -17 -18 -112q-13 -85 -16 -111l-42 -59q-18 -24 -52.5 -68.5t-44.5 -57.5q-48 -63 -100 -124
q-5 -1 -15.5 -1.5t-16.5 -0.5q-32 -2 -82 -8q-8 -1 -19.5 -2.5t-13.5 -1.5q5 13 17 39t22 49.5t19 44.5q23 55 55 134l23 60q6 76 13 189l20 18q10 -1 29 -1z" />
    <glyph glyph-name="ncommaaccent" unicode="&#x146;" horiz-adv-x="1406" 
d="M1138 670q2 48 2 73q0 139 -45 239q-36 69 -112 103q-71 31 -154 31q-183 0 -368 -129v11q0 3 1 4q0 2 1 3v11l2 88l-45 3q-9 1 -26.5 2t-25.5 2q-75 6 -98 9q-8 -577 -129 -1113l63 6q16 1 66 4t76 5q13 1 34 2.5t29 1.5q32 306 43 610v-1q13 155 89 237q42 45 113 67
q56 16 128 16q47 0 81 -15q42 -20 62 -57v1q22 -50 22 -122q0 -37 -4 -68v1q-1 -3 -1 -10v-10q-56 -371 -76 -649q41 -1 138 -7q13 -1 63 -5t73 -6q-15 168 -15 313q0 159 13 349zM502 -72l-20 -18q-7 -113 -13 -189l-23 -60q-32 -79 -55 -134q-9 -21 -19 -44.5t-22 -49.5
t-17 -39q2 0 13.5 1.5t19.5 2.5q49 6 82 8q6 0 16.5 0.5t15.5 1.5q52 61 100 124q10 13 44.5 57.5t52.5 68.5l42 59q3 26 16 111q14 95 18 112q-105 -13 -192 -13h-30q-19 0 -29 1z" />
    <glyph glyph-name="Ncaron" unicode="&#x147;" horiz-adv-x="1579" 
d="M706 1592l-47 89q-95 180 -178 292q67 -4 82 -4q7 -1 22 -1t23 -1q14 -1 35 -1q21 -27 44 -59t35.5 -51t38 -59.5t33.5 -52.5l1 -2l37 46q78 99 154 178l65 2h-1l107 6q-53 -57 -106.5 -123.5t-77.5 -99.5t-73 -103q-3 -4 -17.5 -25.5t-20.5 -30.5h-156zM1442 1487
q-131 -713 -131 -1344q0 -57 2 -135q-70 8 -150 14q-31 2 -86 5.5t-64 4.5q-120 240 -307 675q-62 147 -102 244q-54 130 -105 241q-4 -563 -60 -1163q-7 0 -29 -1.5t-35 -2.5q-45 -4 -71 -5q-50 -4 -137 -13q149 697 169 1424l22 19q66 -8 186 -16q15 0 25 -1t25 -1
q105 -206 304 -656q7 -15 24.5 -54t25.5 -59q74 -166 92 -203q9 -19 26.5 -57t26.5 -56q45 592 146 1121q36 3 47 4q17 1 55 5q19 1 55 5t46 5z" />
    <glyph glyph-name="ncaron" unicode="&#x148;" horiz-adv-x="1406" 
d="M577 1245h156q6 9 20.5 30.5t17.5 25.5q49 70 73 103t77.5 99.5t106.5 123.5l-107 -6h1l-65 -2q-76 -79 -154 -178l-37 -46l-1 2q-8 12 -33.5 52.5t-38 59.5t-35.5 51t-44 59q-21 0 -35 1q-7 0 -22 1t-23 1q-15 0 -82 4q83 -112 178 -292zM1138 670q2 48 2 73
q0 139 -45 239q-36 69 -112 103q-71 31 -154 31q-183 0 -368 -129v11q0 3 1 4q0 2 1 3v11l2 88l-45 3q-9 1 -26.5 2t-25.5 2q-75 6 -98 9q-8 -577 -129 -1113l63 6q16 1 66 4t76 5q13 1 34 2.5t29 1.5q32 306 43 610v-1q13 155 89 237q42 45 113 67q56 16 128 16
q47 0 81 -15q42 -20 62 -57v1q22 -50 22 -122q0 -37 -4 -68v1q-1 -3 -1 -10v-10q-56 -371 -76 -649q41 -1 138 -7q13 -1 63 -5t73 -6q-15 168 -15 313q0 159 13 349z" />
    <glyph glyph-name="Eng" unicode="&#x14a;" horiz-adv-x="1579" 
d="M1311 143q0 -57 2 -135h-4q0 -100 -69.5 -171.5t-182.5 -113.5q-37 -14 -124 -31q-17 -4 -28 -5q-45 -9 -67 -16q-27 -8 -46 -15l16 115q18 122 25 179l59 12q37 6 62 22t59 48q-120 240 -307 675q-62 147 -102 244q-54 130 -105 241q-4 -563 -60 -1163q-7 0 -29 -1.5
t-35 -2.5q-45 -4 -71 -5q-50 -4 -137 -13q149 697 169 1424l22 19q66 -8 186 -16q15 0 25 -1t25 -1q105 -206 304 -656q7 -15 24.5 -54t25.5 -59q74 -166 92 -203q9 -19 26.5 -57t26.5 -56q45 592 146 1121q36 3 47 4q17 1 55 5q19 1 55 5t46 5q-131 -713 -131 -1344z" />
    <glyph glyph-name="eng" unicode="&#x14b;" horiz-adv-x="1406" 
d="M1138 26q4 -21 4 -54q0 -182 -248 -275q-37 -14 -124 -31q-17 -4 -28 -5q-45 -9 -67 -16q-27 -8 -46 -15l16 115q18 122 25 179l59 12q10 2 19.5 4.5t16 5t15.5 8t13 7.5t13.5 10t12 10.5t13.5 13t14 12.5l20 19q20 278 76 649v10q0 7 1 10v-1q4 31 4 68q0 72 -22 122v-1
q-20 37 -62 57q-34 15 -81 15q-72 0 -128 -16q-71 -22 -113 -67q-76 -82 -89 -237v1q-11 -304 -43 -610q-8 0 -29 -1.5t-34 -2.5l-142 -9q-34 -3 -63 -6q121 536 129 1113q23 -3 98 -9q8 -1 25.5 -2t26.5 -2l45 -3l-2 -88v-11q-1 -1 -1 -3q-1 -1 -1 -4v-11q185 129 368 129
q83 0 154 -31q76 -34 112 -103q45 -100 45 -239q0 -25 -2 -73q-13 -190 -13 -349q0 -143 13 -295z" />
    <glyph glyph-name="Omacron" unicode="&#x14c;" 
d="M626 1862l-17 -29q10 -19 10 -42q0 -34 -43 -92q49 0 77 1q27 0 83.5 0.5t84.5 0.5h76h76q28 0 83.5 -0.5t82.5 -0.5q27 -1 76 -1q-31 44 -31 70q0 33 44 94q-96 -2 -160 -2q-29 -1 -84 -1q-28 -1 -77 -1q-142 0 -281 3zM909 1480q-146 0 -268 -42q-140 -48 -233 -150h1
q-117 -123 -170 -323q-40 -152 -40 -347q0 -117 26 -220q29 -117 90 -196q75 -98 202 -147q115 -45 252 -45q149 0 273 41q140 46 238 150q114 130 166 322q44 160 44 348q0 124 -24 220q-28 112 -91 196q-73 98 -207 149q-115 44 -259 44zM897 1305q93 0 173 -37t129 -107
v1q75 -122 75 -319q0 -117 -23 -203q-36 -128 -117 -180q-129 -70 -322 -70q-89 0 -162 14q-89 17 -149 55q-48 29 -68 93q-17 50 -17 123q0 133 32 251q38 140 115 232q57 73 152 112q85 35 182 35z" />
    <glyph glyph-name="omacron" unicode="&#x14d;" horiz-adv-x="1268" 
d="M407 1515l-17 -29q10 -19 10 -42q0 -34 -43 -92q49 0 77 1q27 0 83.5 0.5t84.5 0.5h76h76q28 0 83 -0.5t83 -0.5q27 -1 76 -1q-31 44 -31 70q0 33 44 94q-96 -2 -160 -2q-29 -1 -84 -1q-28 -1 -77 -1q-142 0 -281 3zM684 1114q-102 0 -198 -34q-105 -37 -176 -107
q-85 -95 -124 -253q-30 -120 -30 -265q0 -196 83 -310v1q50 -75 153 -112q85 -31 192 -31q105 0 201 32q106 35 175 110q86 101 124 254q31 124 31 266q0 191 -83 306q-56 77 -154 113q-83 30 -194 30zM673 967q63 -1 116 -26t81 -72q49 -83 49 -215q0 -90 -13 -150
q-23 -99 -82 -140h1q-80 -46 -212 -46q-136 0 -205 45l1 -1q-53 41 -53 151q0 107 20 183q26 104 79 172q38 49 96 74t122 25z" />
    <glyph glyph-name="Ohungarumlaut" unicode="&#x150;" 
d="M1091 1966l-16 -7q-20 -25 -43 -58.5t-35.5 -53t-41.5 -65.5t-36 -58v1l-83 -133h105q24 0 50 -2q77 115 143.5 203t152.5 178h-58q-4 0 -13.5 -0.5t-12.5 -1.5h1q-57 -3 -113 -3zM763 1965l-17 -10q-107 -219 -230 -371q67 4 82 4q30 0 45 1t36 1q66 77 171 236
q17 25 21 32l25 37q3 5 47 69h-41h-49q-33 0 -48 1h-42zM909 1480q-146 0 -268 -42q-140 -48 -233 -150h1q-117 -123 -170 -323q-40 -152 -40 -347q0 -117 26 -220q29 -117 90 -196q75 -98 202 -147q115 -45 252 -45q149 0 273 41q140 46 238 150q114 130 166 322
q44 160 44 348q0 124 -24 220q-28 112 -91 196q-73 98 -207 149q-115 44 -259 44zM897 1305q93 0 173 -37t129 -107v1q75 -122 75 -319q0 -117 -23 -203q-36 -128 -117 -180q-129 -70 -322 -70q-89 0 -162 14q-89 17 -149 55q-48 29 -68 93q-17 50 -17 123q0 133 32 251
q38 140 115 232q57 73 152 112q85 35 182 35z" />
    <glyph glyph-name="ohungarumlaut" unicode="&#x151;" horiz-adv-x="1268" 
d="M872 1619l-16 -7q-20 -25 -43 -58.5t-35.5 -53t-41.5 -65.5t-36 -58v1l-83 -133h105q24 0 50 -2q77 115 143.5 203t152.5 178h-58q-4 0 -13.5 -0.5t-12.5 -1.5h1q-57 -3 -113 -3zM544 1618l-17 -10q-107 -219 -230 -371q67 4 82 4q30 0 45 1t36 1q66 77 171 236
q17 26 21 32l25 37q3 5 47 69h-41h-49q-33 0 -48 1h-42zM684 1114q-102 0 -198 -34q-105 -37 -176 -107q-85 -95 -124 -253q-30 -120 -30 -265q0 -196 83 -310v1q50 -75 153 -112q85 -31 192 -31q105 0 201 32q106 35 175 110q86 101 124 254q31 124 31 266q0 191 -83 306
q-56 77 -154 113q-83 30 -194 30zM673 967q63 -1 116 -26t81 -72q49 -83 49 -215q0 -90 -13 -150q-23 -99 -82 -140h1q-80 -46 -212 -46q-136 0 -205 45l1 -1q-53 41 -53 151q0 107 20 183q26 104 79 172q38 49 96 74t122 25z" />
    <glyph glyph-name="OE" unicode="&#x152;" horiz-adv-x="2264" 
d="M2102 1459l-19 24q-428 -28 -951 -28q-234 0 -362 -24q-209 -41 -352 -157q-123 -110 -178 -306q-42 -151 -42 -335q0 -132 31 -233q37 -122 120 -203q108 -95 283 -132q132 -28 319 -28q615 0 1047 -29q-16 129 -21 294q-227 11 -706 17q4 78 7 115q7 109 18 220
q1 16 4.5 54.5t5.5 59.5l666 3q0 6 5 42q1 16 5 50l6 49q1 18 5 41q-143 -4 -335 -4q-29 -1 -86 -1t-85 -1q-57 -1 -165 -1l9 94q2 15 5.5 45t4.5 45q13 123 20 183q410 5 712 24l14 61q7 32 15 61zM1037 1312h112q-18 -190 -23 -250q-4 -45 -11.5 -127.5t-10.5 -118.5
q-30 -328 -43 -496h-112q-136 0 -229 24q-124 32 -195 103q-111 111 -111 262q0 13 2 37q13 138 44 234q42 131 121 204q86 69 219 102q108 26 237 26z" />
    <glyph glyph-name="oe" unicode="&#x153;" horiz-adv-x="2090" 
d="M1876 886q25 -60 25 -113v-14q-1 -5 -1 -14v-1l-3 -18q0 -3 -0.5 -9.5t-1.5 -9.5l-6 -55q-428 -5 -766 -5v-22q-2 -32 -2 -55v-33q0 -82 13 -138q17 -73 58 -116l-3 2q91 -65 267 -65q186 0 370 97v-53q0 -87 11 -194q-189 -73 -371 -73q-154 0 -268 43q-134 51 -209 158
q-82 -102 -202 -151q-116 -49 -245 -49q-102 0 -178 33q-91 37 -135 113v-1q-70 106 -70 292q0 158 24 273q35 167 116 268q63 77 157 111q83 31 185 31q130 0 233 -48q114 -53 172 -154q87 99 219 153q122 50 257 50q93 0 171 -31q83 -34 129 -104q36 -55 54 -98zM1145 790
q258 0 467 4l104 1q0 26 -16 67q-10 25 -33 61q-29 36 -74 56t-94 20q-153 0 -250 -83q-78 -69 -104 -126zM900 502q24 81 24 160q0 126 -58 219l1 -1q-77 99 -207 99h-10q-132 0 -202 -93q-51 -66 -71 -164q-16 -74 -16 -174q0 -123 47 -201q27 -44 75 -67t105 -23
q146 0 233 97q52 62 79 148z" />
    <glyph glyph-name="Racute" unicode="&#x154;" horiz-adv-x="1649" 
d="M706 1908l-54 -3q-27 -1 -45 -3q33 35 113 125q23 26 108 128q74 92 136 162l14 6q14 0 56 2l66 3q90 4 122 7q-47 -43 -120 -116l-62 -64q-30 -31 -54 -57q-108 -118 -181 -187q-43 0 -99 -3zM1284 216q82 -175 99 -210q-47 5 -150 15q-30 2 -83 5.5t-69 4.5
q-67 182 -127 372l1 -2q-57 133 -114 184l1 -1q-61 43 -164 43h-64q-40 0 -64 -1q-26 -271 -73 -598q-35 -1 -129 -9t-130 -12q130 705 130 1395v85q197 -26 452 -31q185 -5 291 -67q72 -49 106 -127q30 -70 30 -155q0 -127 -52 -235q-63 -128 -175 -172q60 -33 107 -106
q25 -41 70 -136l13 -30l-1 1q37 -88 95 -213zM663 840h112q96 0 186 57q99 63 109 148q0 6 1 9v8q2 30 2 44q0 122 -66 168q-83 59 -194 61q-20 1 -58 1t-58 1q-80 2 -119 5q-3 -84 -11 -250q-6 -132 -16 -251q37 -1 112 -1z" />
    <glyph glyph-name="racute" unicode="&#x155;" horiz-adv-x="904" 
d="M606 1976l-14 -6q-62 -70 -136 -162q-85 -102 -108 -128q-80 -90 -113 -125l45 3q26 2 54 3q55 3 99 3q73 69 181 187l54 57q10 11 31 32t31 32q73 73 120 116q-32 -3 -122 -7l-66 -3q-42 -2 -56 -2zM807 912l26 16q1 11 13 91l14 91h-51q-68 0 -136 -16
q-77 -18 -134 -52l-46 -26q-48 -26 -59 -33l6 100q-11 0 -22 1t-23 1q-109 9 -130 11q-43 -573 -149 -1090q144 19 252 23q13 152 33 529v-1q17 169 83 261q41 57 122 84q61 19 146 19q33 0 55 -9z" />
    <glyph glyph-name="Rcommaaccent" unicode="&#x156;" horiz-adv-x="1649" 
d="M1284 216q82 -175 99 -210q-47 5 -150 15q-30 2 -83 5.5t-69 4.5q-67 182 -127 372l1 -2q-57 133 -114 184l1 -1q-61 43 -164 43h-64q-40 0 -64 -1q-26 -271 -73 -598q-35 -1 -129 -9t-130 -12q130 705 130 1395v85q197 -26 452 -31q185 -5 291 -67q72 -49 106 -127
q30 -70 30 -155q0 -127 -52 -235q-63 -128 -175 -172q60 -33 107 -106q25 -41 70 -136l13 -30l-1 1q37 -88 95 -213zM663 840h112q96 0 186 57q99 63 109 148q0 6 1 9v8q2 30 2 44q0 122 -66 168q-83 59 -194 61q-20 1 -58 1t-58 1q-80 2 -119 5q-3 -84 -11 -250
q-6 -132 -16 -251q37 -1 112 -1zM616 -73h30q87 0 192 13q-4 -17 -18 -112q-13 -85 -16 -111l-42 -59q-18 -24 -52.5 -68.5t-44.5 -57.5q-48 -63 -100 -124q-5 -1 -15.5 -1.5t-16.5 -0.5q-32 -2 -82 -8q-8 -1 -19.5 -2.5t-13.5 -1.5q5 13 17 39t22 49.5t19 44.5
q23 55 55 134l23 60q6 76 13 189l20 18q10 -1 29 -1z" />
    <glyph glyph-name="rcommaaccent" unicode="&#x157;" horiz-adv-x="904" 
d="M807 912l26 16q1 11 13 91l14 91h-51q-68 0 -136 -16q-77 -18 -134 -52l-46 -26q-48 -26 -59 -33l6 100q-11 0 -22 1t-23 1q-109 9 -130 11q-43 -573 -149 -1090q144 19 252 23q13 152 33 529v-1q17 169 83 261q41 57 122 84q61 19 146 19q33 0 55 -9zM215 -72l-20 -18
q-7 -113 -13 -189l-23 -60q-32 -79 -55 -134q-9 -21 -19 -44.5t-22 -49.5t-17 -39q2 0 13.5 1.5t19.5 2.5q50 6 82 8q6 0 16.5 0.5t15.5 1.5q52 61 100 124q10 13 44.5 57.5t52.5 68.5l42 59q3 26 16 111q14 95 18 112q-105 -13 -192 -13h-30q-19 0 -29 1z" />
    <glyph glyph-name="Rcaron" unicode="&#x158;" horiz-adv-x="1649" 
d="M662 1592l-47 89q-95 180 -178 292q67 -4 82 -4q7 -1 22 -1t23 -1q14 -1 35 -1q21 -27 44 -59t35.5 -51t38 -59.5t33.5 -52.5l1 -2l37 46q78 99 154 178l65 2h-1l107 6q-53 -57 -106.5 -123.5t-77.5 -99.5t-73 -103q-3 -4 -17.5 -25.5t-20.5 -30.5h-156zM1284 216
q82 -175 99 -210q-47 5 -150 15q-30 2 -83 5.5t-69 4.5q-67 182 -127 372l1 -2q-57 133 -114 184l1 -1q-61 43 -164 43h-64q-40 0 -64 -1q-26 -271 -73 -598q-35 -1 -129 -9t-130 -12q130 705 130 1395v85q197 -26 452 -31q185 -5 291 -67q72 -49 106 -127q30 -70 30 -155
q0 -127 -52 -235q-63 -128 -175 -172q60 -33 107 -106q25 -41 70 -136l13 -30l-1 1q37 -88 95 -213zM663 840h112q96 0 186 57q99 63 109 148q0 6 1 9v8q2 30 2 44q0 122 -66 168q-83 59 -194 61q-20 1 -58 1t-58 1q-80 2 -119 5q-3 -84 -11 -250q-6 -132 -16 -251
q37 -1 112 -1z" />
    <glyph glyph-name="rcaron" unicode="&#x159;" horiz-adv-x="904" 
d="M290 1245h156q6 9 20.5 30.5t17.5 25.5q49 70 73 103t77.5 99.5t106.5 123.5l-107 -6h1l-65 -2q-76 -79 -154 -178l-37 -46l-1 2q-8 12 -33.5 52.5t-38 59.5t-35.5 51t-44 59q-21 0 -35 1q-8 0 -23 1t-22 1q-15 0 -82 4q83 -112 178 -292zM807 912l26 16q1 11 13 91
l14 91h-51q-68 0 -136 -16q-77 -18 -134 -52l-46 -26q-48 -26 -59 -33l6 100q-11 0 -22 1t-23 1q-109 9 -130 11q-43 -573 -149 -1090q144 19 252 23q13 152 33 529v-1q17 169 83 261q41 57 122 84q61 19 146 19q33 0 55 -9z" />
    <glyph glyph-name="Sacute" unicode="&#x15a;" horiz-adv-x="1389" 
d="M1078 2361l-14 -6q-62 -70 -136 -162q-85 -102 -108 -128q-80 -90 -113 -125l45 3q26 1 54 3q55 3 99 3q73 69 181 187l54 57q10 11 31 32t31 32q73 73 120 116q-32 -3 -122 -7l-66 -3q-42 -2 -56 -2zM1209 1415l6 12q-200 53 -417 53q-115 0 -196 -19q-112 -26 -186 -78
q-78 -55 -115 -147q-32 -79 -32 -178q0 -157 78 -242q54 -56 136 -90q68 -28 157 -47l33 -7q133 -26 201 -58q117 -57 117 -145q0 -33 -30 -68q-24 -29 -62 -53q-95 -61 -247 -61q-226 0 -435 121q-1 -12 -22 -165q-16 -106 -26 -165q221 -68 460 -68q133 2 216 18
q124 24 213 83q81 58 117 159q29 80 29 190q0 92 -34 170q-39 85 -112 136q-41 28 -93.5 49t-90.5 30t-101 22l-59 12q-76 18 -104 28q-56 18 -94 47q-40 43 -40 118q0 118 100 184l-2 -1q94 50 233 50q176 0 389 -91q1 7 4.5 32t5.5 39l6 38q1 7 2.5 18t1.5 14l9 59z" />
    <glyph glyph-name="sacute" unicode="&#x15b;" horiz-adv-x="1165" 
d="M943 1976l-14 -6q-62 -70 -136 -162q-85 -102 -108 -128q-80 -90 -113 -125l45 3q25 2 54 3q55 3 99 3q73 69 181 187l54 57q10 11 31 32t31 32q73 73 120 116q-32 -3 -122 -7l-66 -3q-42 -2 -56 -2zM989 1068l-12 4q-131 42 -339 42q-150 0 -267 -47q-83 -34 -125 -115
q-38 -73 -38 -163q0 -120 58 -177q36 -35 105 -62q43 -18 116 -35l38 -9q74 -17 98 -24q61 -19 91 -42q30 -32 39 -74q11 -56 -74 -99q-54 -27 -131 -27h-11q-8 0 -13 1h-23q-169 0 -341 92q-5 -40 -19 -140q-3 -18 -10.5 -68t-11.5 -73q194 -49 364 -49q107 0 178 13
q99 18 171 63q64 40 100 116q29 65 29 146q0 120 -66 183q-43 42 -115 71q-46 17 -132 39l-19 5q-100 18 -157 45q-91 42 -91 117q0 90 85 133q67 34 166 34q183 0 329 -67q2 17 4 24l4 28q7 41 9 52z" />
    <glyph glyph-name="Scedilla" unicode="&#x15e;" horiz-adv-x="1389" 
d="M1225 1414l-9 -59q0 -3 -1.5 -14t-2.5 -18l-6 -38q-2 -14 -5.5 -39t-4.5 -32q-213 91 -389 91q-139 0 -233 -50l2 1q-100 -66 -100 -184q0 -75 40 -118q38 -29 94 -47q28 -10 104 -28l59 -12q63 -13 101 -22t90.5 -30t93.5 -49q73 -51 112 -136q34 -78 34 -170
q0 -110 -29 -190q-36 -101 -117 -159q-89 -59 -213 -83q-84 -16 -201 -18q17 -43 17 -90q0 -48 -20 -89q-23 -48 -64 -69q-67 -30 -173 -30q-77 0 -167 18q8 34 18 103l7 47q62 -33 133 -33h14q3 -1 10 -1q37 0 67 23t30 60q0 31 -15 66q-172 14 -332 63q10 59 26 165
q21 153 22 165q209 -121 435 -121q152 0 247 61q38 24 62 53q30 35 30 68q0 88 -117 145q-68 32 -201 58l-33 7q-89 19 -157 47q-82 34 -136 90q-78 85 -78 242q0 99 32 178q37 92 115 147q74 52 186 78q81 19 196 19q217 0 417 -53l-6 -12z" />
    <glyph glyph-name="scedilla" unicode="&#x15f;" horiz-adv-x="1165" 
d="M986 1059l-8 -54q-2 -11 -9 -52l-4 -28q-2 -7 -4 -24q-146 67 -329 67q-99 0 -166 -34q-85 -43 -85 -133q0 -75 91 -117q57 -27 157 -45l19 -5q86 -22 132 -39q72 -29 115 -71q66 -63 66 -183q0 -81 -29 -146q-36 -76 -100 -116q-72 -45 -171 -63q-36 -7 -81 -10
q15 -45 15 -86q0 -48 -20 -89q-23 -48 -64 -69q-67 -30 -173 -30q-77 0 -167 18q8 34 18 103l7 47q62 -33 133 -33h14q3 -1 10 -1q37 0 67 23t30 60q0 23 -10 55q-152 6 -321 48q4 23 11.5 73t10.5 68q14 100 19 140q172 -92 341 -92h23q5 -1 13 -1h11q77 0 131 27
q69 34 74 99q-2 2 -5 9l-18 34q-12 22 -19 31q-31 25 -88 42q-24 7 -98 24l-38 9q-73 17 -116 35q-69 27 -105 62q-58 57 -58 177q0 90 38 163q42 81 125 115q117 47 267 47q208 0 339 -42l-16 -17z" />
    <glyph glyph-name="Scaron" unicode="&#x160;" horiz-adv-x="1389" 
d="M762 1630h156q6 9 20.5 30.5t17.5 25.5q49 70 73 103t77.5 99.5t106.5 123.5l-107 -6h1l-65 -2q-76 -79 -154 -178l-37 -46l-1 2q-8 12 -33.5 52.5t-38 59.5t-35.5 51t-44 59q-21 0 -35 1q-7 1 -22 1t-23 1q-15 0 -82 4q83 -112 178 -292zM1209 1415l6 12
q-200 53 -417 53q-115 0 -196 -19q-112 -26 -186 -78q-78 -55 -115 -147q-32 -79 -32 -178q0 -157 78 -242q54 -56 136 -90q68 -28 157 -47l33 -7q133 -26 201 -58q117 -57 117 -145q0 -33 -30 -68q-24 -29 -62 -53q-95 -61 -247 -61q-226 0 -435 121q-1 -12 -22 -165
q-16 -106 -26 -165q221 -68 460 -68q133 2 216 18q124 24 213 83q81 58 117 159q29 80 29 190q0 92 -34 170q-39 85 -112 136q-41 28 -93.5 49t-90.5 30t-101 22l-59 12q-76 18 -104 28q-56 18 -94 47q-40 43 -40 118q0 118 100 184l-2 -1q94 50 233 50q176 0 389 -91
q1 7 4.5 32t5.5 39l6 38q1 7 2.5 18t1.5 14l9 59z" />
    <glyph glyph-name="scaron" unicode="&#x161;" horiz-adv-x="1165" 
d="M627 1245h156q6 9 20.5 30.5t17.5 25.5q49 70 73 103t77.5 99.5t106.5 123.5l-107 -6h1l-65 -2q-76 -79 -154 -178l-37 -46l-1 2q-8 12 -33.5 52.5t-38 59.5t-35.5 51t-44 59q-21 0 -35 1q-8 0 -23 1t-22 1q-15 0 -82 4q83 -112 178 -292zM989 1068l-12 4
q-131 42 -339 42q-150 0 -267 -47q-83 -34 -125 -115q-38 -73 -38 -163q0 -120 58 -177q36 -35 105 -62q43 -18 116 -35l38 -9q74 -17 98 -24q61 -19 91 -42q30 -32 39 -74q11 -56 -74 -99q-54 -27 -131 -27h-11q-8 0 -13 1h-23q-169 0 -341 92q-5 -40 -19 -140
q-3 -18 -10.5 -68t-11.5 -73q194 -49 364 -49q107 0 178 13q99 18 171 63q64 40 100 116q29 65 29 146q0 120 -66 183q-43 42 -115 71q-46 17 -132 39l-19 5q-100 18 -157 45q-91 42 -91 117q0 90 85 133q67 34 166 34q183 0 329 -67q2 17 4 24l4 28q7 41 9 52z" />
    <glyph glyph-name="Tcedilla" unicode="&#x162;" horiz-adv-x="1555" 
d="M952 1454q306 0 646 32l-11 -66q-4 -25 -12 -61t-12 -61q-202 -8 -320 -8q-116 0 -181 3q-57 -835 -67 -1236l7 -3q76 -108 76 -197q0 -48 -20 -89q-23 -48 -64 -69q-67 -30 -173 -30q-77 0 -167 18q8 34 18 103l7 47q62 -33 133 -33h14q3 -1 10 -1q37 0 67 23t30 60
t-23 85q-10 22 -36 66h-8h-73h-22h-26q-9 -1 -27 -1h-22q92 692 151 1256h-49q-72 -2 -107 -2h-49q-178 0 -296 9q0 68 -2 166l22 19q291 -30 586 -30z" />
    <glyph glyph-name="tcedilla" unicode="&#x163;" horiz-adv-x="1122" 
d="M681 307q112 -6 184 -15l-3 -68q0 -12 -1 -37t-1 -38q-4 -102 -4 -143q-24 4 -82 12q-14 1 -40 5l13 -6q76 -108 76 -197q0 -48 -20 -89q-23 -48 -64 -69q-67 -30 -173 -30q-77 0 -167 18q8 34 18 103l7 47q62 -33 133 -33h14q3 -1 10 -1q37 0 67 23t30 60t-23 85
q-12 25 -49 88h28q25 0 69 2h15q-10 1 -28 3l-26 3l-34 3q-97 9 -132 18q-75 19 -119 56q-62 62 -62 187q0 44 5 91q3 25 8.5 72.5t7.5 69.5q17 144 30 276q5 49 13 141q-105 8 -121 10q1 6 1.5 21.5t0.5 23.5l3 45v-1l4 69l44 -6l39 -5q3 0 10.5 -1t14.5 -2t15 -1
q10 103 13 133q8 70 12 130q93 -9 186 -9l19 -21q-3 -24 -7 -67l-9 -68v1l-12 -104h17q53 0 111 3q10 1 29 1t29 1l54 3l-6 -69q-9 -68 -12 -86q-130 -6 -213 -6h-23q-13 -116 -15 -136q-2 -26 -8 -77t-8 -76l-16 -154v-11q-1 -3 -1 -10q-2 -32 -2 -45q0 -63 21 -90l-2 3
q14 -14 39.5 -22.5t41.5 -10t51 -3.5z" />
    <glyph glyph-name="Tcaron" unicode="&#x164;" horiz-adv-x="1555" 
d="M918 1592h156q6 9 20.5 30.5t17.5 25.5q49 70 73 103t77.5 99.5t106.5 123.5l-107 -6h1l-65 -2q-76 -79 -154 -178l-37 -46l-1 2q-8 12 -33.5 52.5t-38 59.5t-35.5 51t-44 59q-21 0 -35 1q-7 1 -22 1t-23 1q-15 0 -82 4q83 -112 178 -292zM366 1484l-22 -19q2 -98 2 -166
q118 -9 296 -9h49q35 0 107 2h49q-59 -564 -151 -1256h22q18 0 27 1h26h22h73q57 0 129 -2q9 431 67 1258q65 -3 181 -3q118 0 320 8q4 25 12 61t12 61l11 66q-340 -32 -646 -32q-295 0 -586 30z" />
    <glyph glyph-name="tcaron" unicode="&#x165;" horiz-adv-x="1122" 
d="M1011 1713l-20 -19q-1 -27 -5 -81l-6 -82l-19 -62q-8 -23 -17.5 -50t-21.5 -61t-19 -54q-37 -99 -63 -164l54 8q49 5 68 6q16 0 24 1q8 0 15 1h14q26 41 70 114l110 187q21 37 42 72q5 38 7 47q1 10 15 104q2 13 7 46q-97 -14 -189 -14h-33q-22 0 -33 1zM622 1330l-19 21
q-93 0 -186 9q-4 -60 -12 -130q-3 -30 -13 -133q-8 0 -15 1t-14.5 2t-10.5 1l-39 5l-44 6l-4 -69v1l-3 -45q0 -8 -0.5 -23.5t-1.5 -21.5q16 -2 121 -10q-8 -92 -13 -141q-13 -132 -30 -276q-2 -22 -7.5 -69.5t-8.5 -72.5q-5 -47 -5 -91q0 -125 62 -187q44 -37 119 -56
q35 -9 132 -18l34 -3l26 -3q5 0 18.5 -1.5t21.5 -2.5q31 -4 44 -5q58 -8 82 -12q0 41 4 143q0 13 1 38t1 37l3 68q-72 9 -184 15q-35 2 -51 3.5t-41.5 10t-39.5 22.5l2 -3q-21 27 -21 90q0 13 2 45q0 7 1 10v11q2 26 7.5 77t8.5 77q2 25 8 76t8 77q2 20 15 136h23
q83 0 213 6q3 18 12 86l6 69l-54 -3q-10 -1 -29 -1t-29 -1q-58 -3 -111 -3h-17l12 104v-1l9 68q4 43 7 67z" />
    <glyph glyph-name="Tbar" unicode="&#x166;" horiz-adv-x="1555" 
d="M711 1862l-17 -29q10 -19 10 -42q0 -34 -43 -92q49 0 77 1q27 0 83.5 0.5t84.5 0.5h76h76q28 0 83 -0.5t83 -0.5q27 -1 76 -1q-31 44 -31 70q0 33 44 94q-96 -2 -160 -2q-29 -1 -84 -1q-28 -1 -77 -1q-142 0 -281 3zM366 1484l-22 -19q2 -98 2 -166q118 -9 296 -9h49
q35 0 107 2h49q-59 -564 -151 -1256h22q18 0 27 1h26h22h73q57 0 129 -2q9 431 67 1258q65 -3 181 -3q118 0 320 8q4 25 12 61t12 61l11 66q-340 -32 -646 -32q-295 0 -586 30z" />
    <glyph glyph-name="tbar" unicode="&#x167;" horiz-adv-x="1122" 
d="M279 1713l-17 -29q10 -19 10 -42q0 -34 -43 -92q49 0 77 1q27 0 83.5 0.5t84.5 0.5h76h76q28 0 83 -0.5t83 -0.5q27 -1 76 -1q-31 44 -31 70q0 33 44 94q-96 -2 -160 -2q-29 -1 -84 -1q-28 -1 -77 -1q-142 0 -281 3zM622 1330l-19 21q-93 0 -186 9q-4 -60 -12 -130
q-3 -30 -13 -133q-8 0 -15 1t-14.5 2t-10.5 1l-39 5l-44 6l-4 -69v1l-3 -45q0 -8 -0.5 -23.5t-1.5 -21.5q16 -2 121 -10q-8 -92 -13 -141q-13 -132 -30 -276q-2 -22 -7.5 -69.5t-8.5 -72.5q-5 -47 -5 -91q0 -125 62 -187q44 -37 119 -56q35 -9 132 -18l34 -3l26 -3
q5 0 18.5 -1.5t21.5 -2.5q31 -4 44 -5q58 -8 82 -12q0 41 4 143q0 13 1 38t1 37l3 68q-72 9 -184 15q-35 2 -51 3.5t-41.5 10t-39.5 22.5l2 -3q-21 27 -21 90q0 13 2 45q0 7 1 10v11q2 26 7.5 77t8.5 77q2 25 8 76t8 77q2 20 15 136h23q83 0 213 6q3 18 12 86l6 69l-54 -3
q-10 -1 -29 -1t-29 -1q-58 -3 -111 -3h-17l12 104v-1l9 68q4 43 7 67z" />
    <glyph glyph-name="Utilde" unicode="&#x168;" horiz-adv-x="1523" 
d="M894 2090l46 -51q60 -62 148 -62q71 0 115 57q27 35 64 128v-1q8 20 23 54l12 29q4 9 11 23h-13h-19q-7 -1 -20 -1h-14h-40q-15 -1 -40 -1l-14 -35q-6 -14 -9 -23q-9 -25 -16.5 -40t-21.5 -30.5t-31 -19.5q-23 4 -51 33l-49 52q-62 62 -147 62q-43 0 -82 -27.5t-62 -74.5
q-16 -33 -32 -78q-3 -7 -2 -7q2 0 3 1q1 0 1 -2v-1q-1 -1 -1.5 -2.5t-1.5 -4t-2 -4.5q-6 -14 -15 -32l-30 -59h17h24q16 0 24 1h19q11 0 62 3q15 33 22 55v-1q13 37 27 57q19 30 41 35q25 -4 54 -33zM343 1464v-69q0 -379 -45 -827q-7 -72 -7 -127q0 -92 20 -161
q25 -88 77 -147q67 -71 182 -101q88 -23 215 -23t223 26q120 33 207 115q76 81 111 197q28 91 37 217q40 527 118 921l-76 -7q-64 -7 -144 -13q-15 -87 -27 -180q-30 -216 -45 -375q-6 -52 -19 -182q-9 -99 -29 -169q-26 -90 -73 -153q-43 -49 -120 -72q-62 -19 -141 -19
q-80 0 -138 17q-72 21 -107 72h1q-51 76 -51 215q0 46 5 104q34 417 41 740q-86 6 -193 20z" />
    <glyph glyph-name="utilde" unicode="&#x169;" horiz-adv-x="1353" 
d="M746 1743l46 -51q60 -62 148 -62q71 0 115 57q27 35 64 128v-1q8 20 23 54l12 29q4 9 11 23h-13h-19q-7 -1 -20 -1h-14h-40q-15 -1 -40 -1l-14 -35q-6 -14 -9 -23q-9 -25 -16.5 -40t-21.5 -30.5t-31 -19.5q-23 4 -51 33l-49 52q-62 62 -147 62q-43 0 -82 -27.5t-62 -74.5
q-16 -33 -32 -78q-3 -7 -2 -7q2 0 3 1q1 0 1 -2v-1q-1 -1 -1.5 -2.5t-1.5 -4t-2 -4.5q-6 -14 -15 -32l-30 -59h17h24q16 0 24 1h19q11 0 62 3q15 33 22 55v-1q13 37 27 57q19 30 41 35q25 -4 54 -33zM239 448q-5 -55 -5 -102q0 -120 40 -213q36 -69 116 -102q69 -30 157 -30
h26q92 0 178.5 42.5t150.5 116.5q-2 -18 -11 -137q7 -1 22 -1.5t23 -0.5q44 -2 106 -8l45 -3q1 545 122 1104q-33 -4 -115 -10q-68 -7 -116 -8q-49 -286 -67 -456v1q-23 -150 -102 -238v1q-80 -85 -220 -85q-102 0 -147 80l1 -1q-32 67 -32 173q0 6 1 9v9v14q18 244 23 494
l-73 6l-21 3q-5 0 -13.5 1t-12.5 2l-25 3q-4 0 -11 0.5t-10 1.5v-66q0 -14 1 -21v-22q0 -267 -31 -557z" />
    <glyph glyph-name="Umacron" unicode="&#x16a;" horiz-adv-x="1523" 
d="M600 1862l-17 -29q10 -19 10 -42q0 -34 -43 -92q49 0 77 1q27 0 83.5 0.5t84.5 0.5h76h76q27 0 83 -0.5t83 -0.5q27 -1 76 -1q-31 44 -31 70q0 33 44 94q-96 -2 -160 -2q-29 -1 -84 -1q-28 -1 -77 -1q-141 0 -281 3zM343 1464v-69q0 -379 -45 -827q-7 -72 -7 -127
q0 -92 20 -161q25 -88 77 -147q67 -71 182 -101q88 -23 215 -23t223 26q120 33 207 115q76 81 111 197q28 91 37 217q40 527 118 921l-76 -7q-64 -7 -144 -13q-15 -87 -27 -180q-30 -216 -45 -375q-6 -52 -19 -182q-9 -99 -29 -169q-26 -90 -73 -153q-43 -49 -120 -72
q-62 -19 -141 -19q-80 0 -138 17q-72 21 -107 72h1q-51 76 -51 215q0 46 5 104q34 417 41 740q-86 6 -193 20z" />
    <glyph glyph-name="umacron" unicode="&#x16b;" horiz-adv-x="1353" 
d="M452 1515l-17 -29q10 -19 10 -42q0 -34 -43 -92q49 0 77 1q27 0 83.5 0.5t84.5 0.5h76h76q27 0 83 -0.5t83 -0.5q27 -1 76 -1q-31 44 -31 70q0 33 44 94q-96 -2 -160 -2q-29 -1 -84 -1q-28 -1 -77 -1q-141 0 -281 3zM239 448q-5 -55 -5 -102q0 -120 40 -213
q36 -69 116 -102q69 -30 157 -30h26q92 0 178.5 42.5t150.5 116.5q-2 -18 -11 -137q7 -1 22 -1.5t23 -0.5q44 -2 106 -8l45 -3q1 545 122 1104q-33 -4 -115 -10q-68 -7 -116 -8q-49 -286 -67 -456v1q-23 -150 -102 -238v1q-80 -85 -220 -85q-102 0 -147 80l1 -1
q-32 67 -32 173q0 6 1 9v9v14q18 244 23 494l-73 6l-21 3q-5 0 -13.5 1t-12.5 2l-25 3q-4 0 -11 0.5t-10 1.5v-66q0 -14 1 -21v-22q0 -267 -31 -557z" />
    <glyph glyph-name="Uring" unicode="&#x16e;" horiz-adv-x="1523" 
d="M1137 1850q0 10 1 15v17q0 106 -68 171q-69 64 -168 64q-129 0 -210 -88q-78 -84 -78 -210q0 -106 66 -172q64 -64 170 -64q120 0 198 75q79 74 89 192zM1004 1858v-6q-11 -58 -47 -94q-40 -40 -95 -40q-51 0 -83 31t-32 82q0 64 40 107t102 43q52 -2 84 -33.5t32 -81.5
v-4q-1 -1 -1 -4zM343 1464v-69q0 -379 -45 -827q-7 -72 -7 -127q0 -92 20 -161q25 -88 77 -147q67 -71 182 -101q88 -23 215 -23t223 26q120 33 207 115q76 81 111 197q28 91 37 217q40 527 118 921l-76 -7q-64 -7 -144 -13q-15 -87 -27 -180q-30 -216 -45 -375
q-6 -52 -19 -182q-9 -99 -29 -169q-26 -90 -73 -153q-43 -49 -120 -72q-62 -19 -141 -19q-80 0 -138 17q-72 21 -107 72h1q-51 76 -51 215q0 46 5 104q34 417 41 740q-86 6 -193 20z" />
    <glyph glyph-name="uring" unicode="&#x16f;" horiz-adv-x="1353" 
d="M989 1503q0 10 1 15v17q0 106 -68 171q-69 64 -168 64q-129 0 -210 -88q-78 -84 -78 -210q0 -106 66 -172q64 -64 170 -64q120 0 198 75q79 74 89 192zM856 1511v-6q-11 -58 -47 -94q-40 -40 -95 -40q-51 0 -83 31t-32 82q0 64 40 107t102 43q52 -2 84 -33.5t32 -81.5v-4
q-1 -1 -1 -4zM239 448q-5 -55 -5 -102q0 -120 40 -213q36 -69 116 -102q69 -30 157 -30h26q92 0 178.5 42.5t150.5 116.5q-2 -18 -11 -137q7 -1 22 -1.5t23 -0.5q44 -2 106 -8l45 -3q1 545 122 1104q-33 -4 -115 -10q-68 -7 -116 -8q-49 -286 -67 -456v1q-23 -150 -102 -238
v1q-80 -85 -220 -85q-102 0 -147 80l1 -1q-32 67 -32 173q0 6 1 9v9v14q18 244 23 494l-73 6l-21 3q-5 0 -13.5 1t-12.5 2l-25 3q-4 0 -11 0.5t-10 1.5v-66q0 -14 1 -21v-22q0 -267 -31 -557z" />
    <glyph glyph-name="Uhungarumlaut" unicode="&#x170;" horiz-adv-x="1523" 
d="M1065 1966l-16 -7q-20 -25 -43 -58.5t-35.5 -53t-41.5 -65.5t-36 -58v1l-83 -133h105q24 0 50 -2q77 115 143.5 203t152.5 178h-58q-4 0 -13.5 -0.5t-12.5 -1.5h1q-57 -3 -113 -3zM737 1965l-17 -10q-107 -219 -230 -371q67 4 82 4q30 0 45 1t36 1q66 77 171 236
q17 25 21 32l25 37q3 5 47 69h-41h-49q-33 0 -48 1h-42zM343 1464v-69q0 -379 -45 -827q-7 -72 -7 -127q0 -92 20 -161q25 -88 77 -147q67 -71 182 -101q88 -23 215 -23t223 26q120 33 207 115q76 81 111 197q28 91 37 217q40 527 118 921l-76 -7q-64 -7 -144 -13
q-15 -87 -27 -180q-30 -216 -45 -375q-6 -52 -19 -182q-9 -99 -29 -169q-26 -90 -73 -153q-43 -49 -120 -72q-62 -19 -141 -19q-80 0 -138 17q-72 21 -107 72h1q-51 76 -51 215q0 46 5 104q34 417 41 740q-86 6 -193 20z" />
    <glyph glyph-name="uhungarumlaut" unicode="&#x171;" horiz-adv-x="1353" 
d="M917 1619l-16 -7q-20 -25 -43 -58.5t-35.5 -53t-41.5 -65.5t-36 -58v1l-83 -133h105q24 0 50 -2q77 115 143.5 203t152.5 178h-58q-4 0 -13.5 -0.5t-12.5 -1.5h1q-57 -3 -113 -3zM589 1618l-17 -10q-107 -219 -230 -371q67 4 82 4q30 0 45 1t36 1q66 77 171 236
q17 26 21 32l25 37q3 5 47 69h-41h-49q-33 0 -48 1h-42zM239 448q-5 -55 -5 -102q0 -120 40 -213q36 -69 116 -102q69 -30 157 -30h26q92 0 178.5 42.5t150.5 116.5q-2 -18 -11 -137q7 -1 22 -1.5t23 -0.5q44 -2 106 -8l45 -3q1 545 122 1104q-33 -4 -115 -10
q-68 -7 -116 -8q-49 -286 -67 -456v1q-23 -150 -102 -238v1q-80 -85 -220 -85q-102 0 -147 80l1 -1q-32 67 -32 173q0 6 1 9v9v14q18 244 23 494l-73 6l-21 3q-5 0 -13.5 1t-12.5 2l-25 3q-4 0 -11 0.5t-10 1.5v-66q0 -14 1 -21v-22q0 -267 -31 -557z" />
    <glyph glyph-name="Uogonek" unicode="&#x172;" horiz-adv-x="1523" 
d="M1405 1478l76 7q-78 -394 -118 -921q-9 -126 -37 -217q-35 -116 -111 -197q-87 -82 -207 -115q-44 -12 -97 -19q-24 -32 -34 -49q-37 -60 -37 -96q0 -27 21 -44t51 -17q66 0 140 34v-23q-1 -10 -1 -30q-1 -10 -1 -29q-1 -10 -1 -24q0 -6 1 -8v-8v-31q-85 -15 -141 -15
q-5 0 -7 1h-8q-93 6 -136 25q-68 37 -68 125q0 60 38 134q14 25 30 48q-108 2 -188 23q-115 30 -182 101q-52 59 -77 147q-20 69 -20 161q0 55 7 127q45 448 45 827v69l22 19q107 -14 193 -20q-7 -323 -41 -740q-5 -58 -5 -104q0 -139 51 -215h-1q35 -51 107 -72
q58 -17 138 -17q79 0 141 19q77 23 120 72q47 63 73 153q20 70 29 169q13 130 19 182q15 159 45 375q12 93 27 180q81 6 144 13z" />
    <glyph glyph-name="uogonek" unicode="&#x173;" horiz-adv-x="1353" 
d="M966 -184q0 -27 21 -44t51 -17q66 0 140 34v-23q-1 -10 -1 -30q-1 -10 -1 -29q-1 -10 -1 -24q0 -6 1 -8v-8v-31q-85 -15 -141 -15q-5 0 -7 1h-8q-93 6 -136 25q-68 37 -68 125q0 60 38 134q26 50 70 100l15 6h30q12 -1 38 -1h38h28l-31 2q-62 6 -106 8q-8 0 -23 0.5
t-22 1.5q9 119 11 137q-64 -74 -150.5 -116.5t-178.5 -42.5h-26q-88 0 -157 30q-80 33 -116 102q-40 93 -40 213q0 47 5 102q31 290 31 557v22q-1 7 -1 21v66q3 -1 10 -1.5t11 -0.5l25 -3q4 -1 12.5 -2t13.5 -1l21 -3l73 -6q-5 -250 -23 -494v-14v-9q-1 -3 -1 -9
q0 -106 32 -173l-1 1q45 -80 147 -80q140 0 220 85v-1q79 88 102 238v-1q18 170 67 456q48 1 116 8q82 6 115 10q-121 -559 -122 -1104l-12 1q-54 -69 -72 -99q-37 -60 -37 -96z" />
    <glyph glyph-name="Wcircumflex" unicode="&#x174;" horiz-adv-x="2175" 
d="M1417 1964h-157q-30 -42 -41 -58l-42 -58q-56 -81 -86 -120q-54 -70 -123 -142l102 2l65 2q49 51 165 190h-1l27 34l17 -28q81 -129 135 -196l65 -2l99 -2q-61 78 -108 157q-39 65 -78 144zM555 1471l-207 15q96 -334 147 -724q41 -322 56 -737l78 3q41 2 84 3
q84 3 162 3q59 116 177 366q75 158 169 370q6 -24 7 -25q1 -3 2.5 -8.5t1.5 -7.5l9 -41q103 -421 182 -653q17 0 68.5 -1.5t81.5 -2.5q29 -1 80 -2.5t70 -1.5q93 400 204 733q125 382 296 725q-11 0 -49 -2q-10 -1 -29 -1q-4 0 -12 -0.5t-11 -1.5q-48 -4 -113 -6
q-216 -402 -443 -1024l-42 111q-38 103 -73 204l-39 111q-15 44 -79 221h-177q-47 -77 -77 -129q-65 -113 -76 -131q-110 -191 -220 -369q-45 280 -93 504q-62 280 -135 499z" />
    <glyph glyph-name="wcircumflex" unicode="&#x175;" horiz-adv-x="1773" 
d="M1135 1617h-157q-30 -42 -41 -58l-42 -58q-56 -81 -86 -120q-54 -70 -123 -142l102 2l65 2q49 51 165 190h-1l27 34l17 -28q81 -129 135 -196l65 -2l99 -2q-61 78 -108 157q-39 65 -78 144zM283 1110l-20 -25q77 -233 123 -517q35 -216 62 -545h26q21 0 63 2h27
q129 3 138 3q104 186 237 454q36 -123 72 -228q40 -122 80 -225q28 0 46 -1q17 -1 45 -1q14 -1 42 -1.5t43 -0.5l86 -3q67 297 155 548q100 291 234 543q-5 -1 -15.5 -1.5t-15.5 -0.5l-38 -3q-6 0 -70 -4l-65 -4q-145 -274 -302 -723q-40 91 -77 185q-23 56 -74 185
q-56 -2 -96 -2h-150q-27 -47 -40 -68q-12 -20 -40 -69l-67 -114q-31 -49 -69 -116q-70 419 -173 721q-101 6 -167 11z" />
    <glyph glyph-name="Ycircumflex" unicode="&#x176;" horiz-adv-x="1544" 
d="M1093 1964h-157q-30 -42 -41 -58l-42 -58q-56 -81 -86 -120q-54 -70 -123 -142l102 2l65 2q49 51 165 190h-1l27 34l17 -28q81 -129 135 -196l65 -2l99 -2q-61 78 -108 157q-39 65 -78 144zM361 1484l-19 -28q67 -142 145 -326t115 -276t131 -330q-11 -124 -24 -244
q-4 -41 -25 -244h22q16 0 25 1h25h21h70q54 0 124 -2q19 328 34 489q28 50 43 75l44 75q108 188 243 411q138 228 257 402l-79 -7q-68 -7 -159 -12q-169 -245 -460 -717q-121 272 -162 360q-85 182 -173 354q-126 10 -198 19z" />
    <glyph glyph-name="ycircumflex" unicode="&#x177;" horiz-adv-x="1391" 
d="M785 1617h-157q-30 -42 -41 -58l-42 -58q-56 -81 -86 -120q-54 -70 -123 -142l102 2l65 2q49 51 165 190h-1l27 34l17 -28q81 -129 135 -196l65 -2l99 -2q-61 78 -108 157q-39 65 -78 144zM786 -69l122 263q279 604 452 921q-20 -3 -50 -6l-59 -6q-80 -10 -108 -11
q-138 -227 -345 -604q-53 105 -157 303q-18 33 -164 300q-28 1 -104 11q-56 6 -104 13q81 -192 183 -459q41 -107 175 -465l27 -73l-19 -33q-32 -51 -65 -111q-61 -64 -95 -93l1 1q-22 -16 -52.5 -25t-50.5 -11t-61 -4q-5 -1 -17.5 -1.5t-18.5 -0.5l-37 -3q0 -2 -8 -51
l-8 -50l-11 -77l-14 -77q10 2 24 3q37 4 58 5q4 0 12.5 0.5t12.5 1.5q98 6 146 16q80 17 137 57q59 45 115 124q37 54 83 142z" />
    <glyph glyph-name="Ydieresis" unicode="&#x178;" horiz-adv-x="1544" 
d="M1094 1844l-18 -14q-17 -67 -17 -134q0 -35 2 -61h39q16 -1 39 -1h34q13 -1 39 -1q13 -1 38 -1q13 -1 34 -1q-20 58 -20 88q0 48 40 130q-15 -1 -49 -1q-10 0 -28 -1t-28 -1q-74 -2 -105 -2zM719 1848l-20 -25q10 -30 10 -63q0 -57 -38 -129q22 0 35 1q26 0 40 1
q27 0 40 1h33q22 0 38 1h37q19 89 19 158v7q-1 2 -1 8v36q-15 1 -47.5 1.5t-48.5 0.5q-37 0 -97 2zM361 1484l-19 -28q67 -142 145 -326t115 -276t131 -330q-11 -124 -24 -244q-4 -41 -25 -244h22q16 0 25 1h25h21h70q54 0 124 -2q19 328 34 489q28 50 43 75l44 75
q108 188 243 411q138 228 257 402l-79 -7q-68 -7 -159 -12q-169 -245 -460 -717q-121 272 -162 360q-85 182 -173 354q-126 10 -198 19z" />
    <glyph glyph-name="Zacute" unicode="&#x179;" horiz-adv-x="1669" 
d="M1108 2323l-14 -6q-62 -70 -136 -162q-85 -102 -108 -128q-80 -90 -113 -125l45 3q26 1 54 3q55 3 99 3q73 69 181 187l54 57q10 11 31 32t31 32q73 73 120 116q-32 -3 -122 -7l-66 -3q-42 -2 -56 -2zM343 1462v-165q258 -23 546 -23q155 0 311 6q-273 -273 -482 -486
q-43 -44 -475 -492q-7 -44 -25 -148q-11 -66 -28 -147q326 30 612 30q285 0 601 -29q-4 79 -4 197q0 52 2 116q-270 18 -560 18q-146 0 -326 -5q82 82 120 121l224 228q4 4 118 121q165 169 251 256t251 256l14 75q1 14 9 47q4 19 5 26q1 5 2.5 12t1.5 9q-319 -30 -604 -30
q-295 0 -543 26z" />
    <glyph glyph-name="zacute" unicode="&#x17a;" horiz-adv-x="1281" 
d="M889 1976l-14 -6q-62 -70 -136 -162q-85 -102 -108 -128q-80 -90 -113 -125l45 3q25 2 54 3q55 3 99 3q73 69 181 187l54 57q10 11 31 32t31 32q73 73 120 116q-32 -3 -122 -7l-66 -3q-42 -2 -56 -2zM263 1086v-131q175 -15 377 -15q128 0 229 4l-179 -167
q-28 -26 -85.5 -80t-86.5 -81q-193 -183 -347 -333l-23 -138q-18 -98 -27 -138q256 23 460 23q209 0 434 -21q-2 90 -2 157q0 46 2 102q-203 13 -396 13h-80q-53 0 -80 -1q69 69 100 101q82 83 184 192l98 102q39 40 124 129l125 128q0 2 8 43l9 48q15 80 17 90
q-246 -25 -462 -25q-184 0 -377 17z" />
    <glyph glyph-name="Zdotaccent" unicode="&#x17b;" horiz-adv-x="1669" 
d="M760 1868v-17q0 -5 1 -8v-8q0 -62 -23 -168q4 1 13.5 1.5t14.5 0.5q22 0 33 1q44 2 60 2q14 0 52 -2q9 -1 28 -1q4 0 11.5 -0.5t11.5 -1.5v7v11q-1 3 -1 10v6v13q0 67 23 176q-84 -7 -115 -7q-49 0 -88 4zM343 1462v-165q258 -23 546 -23q155 0 311 6
q-273 -273 -482 -486q-43 -44 -475 -492q-7 -44 -25 -148q-11 -66 -28 -147q326 30 612 30q285 0 601 -29q-4 79 -4 197q0 52 2 116q-270 18 -560 18q-146 0 -326 -5q82 82 120 121l224 228q4 4 118 121q165 169 251 256t251 256l14 75q1 14 9 47q4 19 5 26q1 5 2.5 12
t1.5 9q-319 -30 -604 -30q-295 0 -543 26z" />
    <glyph glyph-name="zdotaccent" unicode="&#x17c;" horiz-adv-x="1281" 
d="M541 1521v-17q0 -5 1 -8v-8q0 -62 -23 -168q4 1 13.5 1.5t14.5 0.5q22 0 33 1q44 2 60 2q14 0 52 -2q9 -1 28 -1q4 0 11.5 -0.5t11.5 -1.5v7v11q-1 3 -1 10v6v13q0 67 23 176q-84 -7 -115 -7q-49 0 -88 4zM263 1086v-131q175 -15 377 -15q128 0 229 4l-179 -167
q-28 -26 -85.5 -80t-86.5 -81q-193 -183 -347 -333l-23 -138q-18 -98 -27 -138q256 23 460 23q209 0 434 -21q-2 90 -2 157q0 46 2 102q-203 13 -396 13h-80q-53 0 -80 -1q69 69 100 101q82 83 184 192l98 102q39 40 124 129l125 128q0 2 8 43l9 48q15 80 17 90
q-246 -25 -462 -25q-184 0 -377 17z" />
    <glyph glyph-name="Zcaron" unicode="&#x17d;" horiz-adv-x="1669" 
d="M792 1592h156q6 9 20.5 30.5t17.5 25.5q49 70 73 103t77.5 99.5t106.5 123.5l-107 -6h1l-65 -2q-76 -79 -154 -178l-37 -46l-1 2q-8 12 -33.5 52.5t-38 59.5t-35.5 51t-44 59q-21 0 -35 1q-8 1 -23 1t-22 1q-15 0 -82 4q83 -112 178 -292zM343 1462v-165q258 -23 546 -23
q155 0 311 6q-273 -273 -482 -486q-43 -44 -475 -492q-7 -44 -25 -148q-11 -66 -28 -147q326 30 612 30q285 0 601 -29q-4 79 -4 197q0 52 2 116q-270 18 -560 18q-146 0 -326 -5q82 82 120 121l224 228q4 4 118 121q165 169 251 256t251 256l14 75q1 14 9 47q4 19 5 26
q1 5 2.5 12t1.5 9q-319 -30 -604 -30q-295 0 -543 26z" />
    <glyph glyph-name="zcaron" unicode="&#x17e;" horiz-adv-x="1281" 
d="M573 1245h156q6 9 20.5 30.5t17.5 25.5q49 70 73 103t77.5 99.5t106.5 123.5l-107 -6h1l-65 -2q-76 -79 -154 -178l-37 -46l-1 2q-8 12 -33.5 52.5t-38 59.5t-35.5 51t-44 59q-21 0 -35 1q-7 0 -22 1t-23 1q-15 0 -82 4q83 -112 178 -292zM263 1086v-131q175 -15 377 -15
q128 0 229 4l-179 -167q-28 -26 -85.5 -80t-86.5 -81q-193 -183 -347 -333l-23 -138q-18 -98 -27 -138q256 23 460 23q209 0 434 -21q-2 90 -2 157q0 46 2 102q-203 13 -396 13h-80q-53 0 -80 -1q69 69 100 101q82 83 184 192l98 102q39 40 124 129l125 128q0 2 8 43l9 48
q15 80 17 90q-246 -25 -462 -25q-184 0 -377 17z" />
    <glyph glyph-name="florin" unicode="&#x192;" horiz-adv-x="1303" 
d="M1324 1480l10 15q-54 17 -127 17h-21q-15 0 -22 -1h-10q-4 -1 -11 -1q-147 -6 -266 -121q-110 -105 -149 -257v1q-20 -66 -52 -188l-16 -56q-8 -28 -15 -56l-258 -17q-5 -32 -7 -74q-1 -5 -1 -18q-1 -3 -1 -10.5t-1 -11.5q-2 -32 -2 -40l225 18q-3 -13 -23 -103t-31 -136
q-4 -19 -57 -240v1q-40 -127 -85 -191q-67 -92 -171 -92q-77 0 -167 56l-37 -116q-27 -89 -73 -216q76 -27 152 -27q228 0 380 152q82 84 137 224q28 74 71 247q8 39 18 77q12 52 17 77h-1q40 172 65 290q187 13 289 22l15 155l-155 -14l-104 -11q13 53 39 147q4 13 10.5 37
t9.5 34l22 76q26 109 91 174q73 73 176 73q60 0 130 -45q2 9 3 20q5 28 8 50l3 20q8 38 11 62z" />
    <glyph glyph-name="Ohorn" unicode="&#x1a0;" 
d="M1530 1358l99 -12q10 -36 10 -67q0 -67 -20 -131t-64 -101q-60 -50 -71 -56q6 -60 6 -120q0 -189 -44 -348q-52 -192 -166 -322q-98 -104 -238 -150q-124 -41 -273 -41q-137 0 -252 45q-127 49 -202 147q-61 79 -90 196q-26 103 -26 220q0 195 40 347q53 200 170 323h-1
q93 102 233 150q122 42 268 42q144 0 259 -44q134 -51 207 -149q59 -79 88 -186q28 14 41 26q7 6 12.5 14t9.5 15.5t7 18.5t5 19t3.5 20t2 19t1 19.5t0.5 17v15.5v12q0 31 -15 61zM1251 640q23 86 23 203q0 197 -75 319v-1q-49 70 -129 107t-173 37q-97 0 -182 -35
q-95 -39 -152 -112q-77 -92 -115 -232q-32 -118 -32 -251q0 -73 17 -123q20 -64 68 -93q60 -38 149 -55q73 -14 162 -14q193 0 322 70q81 52 117 180z" />
    <glyph glyph-name="ohorn" unicode="&#x1a1;" horiz-adv-x="1268" 
d="M1146 1184l99 -12q10 -36 10 -67q0 -67 -20 -131t-64 -101q-7 -6 -18 -15.5t-15.5 -13.5t-11.5 -9.5t-13 -9.5t-14 -8q16 -65 16 -152q0 -142 -31 -266q-38 -153 -124 -254q-69 -75 -175 -110q-96 -32 -201 -32q-107 0 -192 31q-103 37 -153 112v-1q-83 114 -83 310
q0 145 30 265q39 158 124 253q71 70 176 107q96 34 198 34q111 0 194 -30q98 -36 154 -113q17 -24 31 -52q45 23 57 34q7 6 12.5 14t9.5 15.5t7 18.5t5 19t3.5 20t2 19t1 19.5t0.5 17v15.5v12q0 31 -15 61zM906 504q13 60 13 150q0 132 -49 215q-28 47 -81 72t-116 26
q-64 0 -122 -25t-96 -74q-53 -68 -79 -172q-20 -76 -20 -183q0 -110 53 -151l-1 1q69 -45 205 -45q132 0 212 46h-1q59 41 82 140z" />
    <glyph glyph-name="Uhorn" unicode="&#x1af;" horiz-adv-x="1523" 
d="M1484 1590l99 -12q10 -36 10 -67q0 -67 -20 -131t-64 -101q-58 -49 -74 -57q-42 -277 -72 -658q-9 -126 -37 -217q-35 -116 -111 -197q-87 -82 -207 -115q-96 -26 -223 -26t-215 23q-115 30 -182 101q-52 59 -77 147q-20 69 -20 161q0 55 7 127q45 448 45 827v69l22 19
q107 -14 193 -20q-7 -323 -41 -740q-5 -58 -5 -104q0 -139 51 -215h-1q35 -51 107 -72q58 -17 138 -17q79 0 141 19q77 23 120 72q47 63 73 153q20 70 29 169q13 130 19 182q15 159 45 375q12 93 27 180q81 6 144 13l76 7q-14 -75 -23 -126q7 6 12.5 14t9.5 15.5t7 18.5
t5 19t3.5 20t2 19t1 19.5t0.5 17v15.5v12q0 31 -15 61z" />
    <glyph glyph-name="uhorn" unicode="&#x1b0;" horiz-adv-x="1353" 
d="M1238 1240l99 -12q10 -36 10 -67q0 -67 -20 -131t-64 -101q-8 -7 -22 -19t-18.5 -15.5t-14.5 -10.5t-19.5 -12.5t-24.5 -12.5l-3 6q-73 -432 -74 -855l-45 3q-62 6 -106 8q-8 0 -23 0.5t-22 1.5q9 119 11 137q-64 -74 -150.5 -116.5t-178.5 -42.5h-26q-88 0 -157 30
q-80 33 -116 102q-40 93 -40 213q0 47 5 102q31 290 31 557v22q-1 7 -1 21v66q3 -1 10 -1.5t11 -0.5l25 -3q4 -1 12.5 -2t13.5 -1l21 -3l73 -6q-5 -250 -23 -494v-14v-9q-1 -3 -1 -9q0 -106 32 -173l-1 1q45 -80 147 -80q140 0 220 85v-1q79 88 102 238v-1q18 170 67 456
q48 1 116 8q82 6 115 10q-9 -42 -25 -124q11 6 28 19q7 6 12.5 14t9.5 15.5t7 18.5t5 19t3.5 20t2 19t1 19.5t0.5 17v15.5v12q0 31 -15 61z" />
    <glyph glyph-name="Acaron" unicode="&#x1cd;" horiz-adv-x="1670" 
d="M771 1592h156q6 9 20.5 30.5t17.5 25.5q49 70 73 103t77.5 99.5t106.5 123.5l-107 -6h1l-65 -2q-76 -79 -154 -178l-37 -46l-1 2q-8 12 -33.5 52.5t-38 59.5t-35.5 51t-44 59q-21 0 -35 1q-8 1 -23 1t-22 1q-15 0 -82 4q83 -112 178 -292zM945 1455h-197
q-41 -84 -210 -447q-95 -207 -157 -337t-158.5 -318t-188.5 -346l69 6q23 1 78 5l77 6q14 1 37.5 2.5t30.5 1.5q9 21 56 116q37 79 52 118q108 3 309 3q203 0 306 -3q22 -114 51 -233q14 -1 68 -4.5t85 -5.5q108 -8 151 -12q-102 243 -195 537q-58 183 -154 525
q-79 282 -110 386zM902 917q17 -69 49 -205q13 -58 49 -205h-107q-44 0 -66 1h-67h-117q-78 0 -118 -1q113 267 181 435l120 297l39 -161q28 -123 37 -161z" />
    <glyph glyph-name="acaron" unicode="&#x1ce;" horiz-adv-x="1276" 
d="M574 1245h156q6 9 20.5 30.5t17.5 25.5q49 70 73 103t77.5 99.5t106.5 123.5l-107 -6h1l-65 -2q-76 -79 -154 -178l-37 -46l-1 2q-8 12 -33.5 52.5t-38 59.5t-35.5 51t-44 59q-21 0 -35 1q-7 0 -22 1t-23 1q-15 0 -82 4q83 -112 178 -292zM1162 1130q-4 -2 -20.5 -1
t-18.5 1q-2 -1 -8 -1h-14t-15.5 0.5t-13.5 0.5h-5h-110q-4 -22 -6 -42t-6 -54.5t-8 -68.5q-45 71 -123 113t-167 42h-28q-85 0 -168 -39q-87 -41 -140 -110l1 1q-87 -104 -127 -256q-33 -128 -33 -269q0 -177 76 -294q46 -70 122.5 -107t166.5 -37h10q3 0 5 1h4h15
q90 0 178 41q86 40 147 113q13 -76 -3 -136l63 -5q115 -9 153 -14q-26 126 -34 236.5t3 235.5t29 235.5t53 297.5q15 76 22 116zM597 976h24q71 0 122 -45q53 -46 69 -122q16 -74 16 -155q0 -84 -13 -139q-18 -78 -73 -118l1 1q-28 -18 -65.5 -28.5t-64 -13t-71.5 -4.5
q-59 0 -100 9q-52 11 -84 43q-37 39 -46 74q-7 24 -9 100q15 123 37 180q38 98 96 153q68 65 161 65z" />
    <glyph glyph-name="Icaron" unicode="&#x1cf;" horiz-adv-x="709" 
d="M396 1592h156q6 9 20.5 30.5t17.5 25.5q49 70 73 103t77.5 99.5t106.5 123.5l-107 -6h1l-65 -2q-76 -79 -154 -178l-37 -46l-1 2q-8 12 -33.5 52.5t-38 59.5t-35.5 51t-44 59q-21 0 -35 1q-8 1 -23 1t-22 1q-15 0 -82 4q83 -112 178 -292zM367 1467l-26 -16
q-74 -778 -159 -1456q86 42 136 42q52 0 122 -41q22 408 49 746q27 363 61 745q-72 -32 -114 -32q-30 0 -69 12z" />
    <glyph glyph-name="icaron" unicode="&#x1d0;" horiz-adv-x="634" 
d="M213 1245h156q6 9 20.5 30.5t17.5 25.5q49 70 73 103t77.5 99.5t106.5 123.5l-107 -6h1l-65 -2q-76 -79 -154 -178l-37 -46l-1 2q-8 12 -33.5 52.5t-38 59.5t-35.5 51t-44 59q-21 0 -35 1q-7 0 -22 1t-23 1q-15 0 -82 4q83 -112 178 -292zM294 1107l-30 -15
q-35 -524 -98 -1097q68 35 107 35q37 0 92 -34q15 227 45 565q25 281 55 564q-67 -37 -107 -37q-36 0 -64 19z" />
    <glyph glyph-name="Ocaron" unicode="&#x1d1;" 
d="M833 1592h156q6 9 20.5 30.5t17.5 25.5q49 70 73 103t77.5 99.5t106.5 123.5l-107 -6h1l-65 -2q-76 -79 -154 -178l-37 -46l-1 2q-8 12 -33.5 52.5t-38 59.5t-35.5 51t-44 59q-21 0 -35 1q-7 1 -22 1t-23 1q-15 0 -82 4q83 -112 178 -292zM909 1480q-146 0 -268 -42
q-140 -48 -233 -150h1q-117 -123 -170 -323q-40 -152 -40 -347q0 -117 26 -220q29 -117 90 -196q75 -98 202 -147q115 -45 252 -45q149 0 273 41q140 46 238 150q114 130 166 322q44 160 44 348q0 124 -24 220q-28 112 -91 196q-73 98 -207 149q-115 44 -259 44zM897 1305
q93 0 173 -37t129 -107v1q75 -122 75 -319q0 -117 -23 -203q-36 -128 -117 -180q-129 -70 -322 -70q-89 0 -162 14q-89 17 -149 55q-48 29 -68 93q-17 50 -17 123q0 133 32 251q38 140 115 232q57 73 152 112q85 35 182 35z" />
    <glyph glyph-name="ocaron" unicode="&#x1d2;" horiz-adv-x="1268" 
d="M614 1245h156q6 9 20.5 30.5t17.5 25.5q49 70 73 103t77.5 99.5t106.5 123.5l-107 -6h1l-65 -2q-76 -79 -154 -178l-37 -46l-1 2q-8 12 -33.5 52.5t-38 59.5t-35.5 51t-44 59q-21 0 -35 1q-7 0 -22 1t-23 1q-15 0 -82 4q83 -112 178 -292zM684 1114q-102 0 -198 -34
q-105 -37 -176 -107q-85 -95 -124 -253q-30 -120 -30 -265q0 -196 83 -310v1q50 -75 153 -112q85 -31 192 -31q105 0 201 32q106 35 175 110q86 101 124 254q31 124 31 266q0 191 -83 306q-56 77 -154 113q-83 30 -194 30zM673 967q63 -1 116 -26t81 -72q49 -83 49 -215
q0 -90 -13 -150q-23 -99 -82 -140h1q-80 -46 -212 -46q-136 0 -205 45l1 -1q-53 41 -53 151q0 107 20 183q26 104 79 172q38 49 96 74t122 25z" />
    <glyph glyph-name="Ucaron" unicode="&#x1d3;" horiz-adv-x="1523" 
d="M807 1592h156q6 9 20.5 30.5t17.5 25.5q49 70 73 103t77.5 99.5t106.5 123.5l-107 -6h1l-65 -2q-76 -79 -154 -178l-37 -46l-1 2q-8 12 -33.5 52.5t-38 59.5t-35.5 51t-44 59q-21 0 -35 1q-8 1 -23 1t-22 1q-15 0 -82 4q83 -112 178 -292zM343 1464v-69q0 -379 -45 -827
q-7 -72 -7 -127q0 -92 20 -161q25 -88 77 -147q67 -71 182 -101q88 -23 215 -23t223 26q120 33 207 115q76 81 111 197q28 91 37 217q40 527 118 921l-76 -7q-64 -7 -144 -13q-15 -87 -27 -180q-30 -216 -45 -375q-6 -52 -19 -182q-9 -99 -29 -169q-26 -90 -73 -153
q-43 -49 -120 -72q-62 -19 -141 -19q-80 0 -138 17q-72 21 -107 72h1q-51 76 -51 215q0 46 5 104q34 417 41 740q-86 6 -193 20z" />
    <glyph glyph-name="ucaron" unicode="&#x1d4;" horiz-adv-x="1353" 
d="M659 1245h156q6 9 20.5 30.5t17.5 25.5q49 70 73 103t77.5 99.5t106.5 123.5l-107 -6h1l-65 -2q-76 -79 -154 -178l-37 -46l-1 2q-8 12 -33.5 52.5t-38 59.5t-35.5 51t-44 59q-21 0 -35 1q-7 0 -22 1t-23 1q-15 0 -82 4q83 -112 178 -292zM239 448q-5 -55 -5 -102
q0 -120 40 -213q36 -69 116 -102q69 -30 157 -30h26q92 0 178.5 42.5t150.5 116.5q-2 -18 -11 -137q7 -1 22 -1.5t23 -0.5q44 -2 106 -8l45 -3q1 545 122 1104q-33 -4 -115 -10q-68 -7 -116 -8q-49 -286 -67 -456v1q-23 -150 -102 -238v1q-80 -85 -220 -85q-102 0 -147 80
l1 -1q-32 67 -32 173q0 6 1 9v9v14q18 244 23 494l-73 6l-21 3q-5 0 -13.5 1t-12.5 2l-25 3q-4 0 -11 0.5t-10 1.5v-66q0 -14 1 -21v-22q0 -267 -31 -557z" />
    <glyph glyph-name="Udieresismacron" unicode="&#x1d5;" horiz-adv-x="1523" 
d="M600 1942l-17 -29q10 -19 10 -42q0 -34 -43 -92q49 0 77 1q27 0 83.5 0.5t84.5 0.5h76h76q27 0 83 -0.5t83 -0.5q27 -1 76 -1q-31 44 -31 70q0 33 44 94q-96 -2 -160 -2q-29 -1 -84 -1q-28 -1 -77 -1q-141 0 -281 3zM586 1744l-19 -25q9 -33 9 -68q0 -64 -42 -140
q9 1 28 1.5t29 0.5q43 0 66 1q88 2 121 2q18 87 18 167q0 33 -2 57q-17 1 -51.5 1.5t-52.5 0.5q-40 0 -104 2zM992 1740l-17 -15q-19 -78 -19 -145q0 -34 4 -63q96 -3 114 -3l124 -2q-22 57 -22 93q0 55 43 139l-130 -2q-33 0 -97 -2zM343 1464v-69q0 -379 -45 -827
q-7 -72 -7 -127q0 -92 20 -161q25 -88 77 -147q67 -71 182 -101q88 -23 215 -23t223 26q120 33 207 115q76 81 111 197q28 91 37 217q40 527 118 921l-76 -7q-64 -7 -144 -13q-15 -87 -27 -180q-30 -216 -45 -375q-6 -52 -19 -182q-9 -99 -29 -169q-26 -90 -73 -153
q-43 -49 -120 -72q-62 -19 -141 -19q-80 0 -138 17q-72 21 -107 72h1q-51 76 -51 215q0 46 5 104q34 417 41 740q-86 6 -193 20z" />
    <glyph glyph-name="udieresismacron" unicode="&#x1d6;" horiz-adv-x="1353" 
d="M480 1597l-17 -29q10 -19 10 -42q0 -34 -43 -92q49 0 77 1q27 0 83.5 0.5t84.5 0.5h76h76q28 0 83.5 -0.5t82.5 -0.5q27 -1 76 -1q-31 44 -31 70q0 33 44 94q-96 -2 -160 -2q-29 -1 -84 -1q-28 -1 -77 -1q-141 0 -281 3zM438 1378l-19 -25q9 -33 9 -68q0 -64 -42 -140
q9 1 28 1.5t29 0.5q43 0 66 1q88 2 121 2q18 87 18 167q0 33 -2 57q-17 1 -51.5 1.5t-52.5 0.5q-40 0 -104 2zM844 1374l-17 -15q-19 -78 -19 -145q0 -34 4 -63q96 -3 114 -3l124 -2q-22 57 -22 93q0 55 43 139l-130 -2q-33 0 -97 -2zM239 448q-5 -55 -5 -102
q0 -120 40 -213q36 -69 116 -102q69 -30 157 -30h26q92 0 178.5 42.5t150.5 116.5q-2 -18 -11 -137q7 -1 22 -1.5t23 -0.5q44 -2 106 -8l45 -3q1 545 122 1104q-33 -4 -115 -10q-68 -7 -116 -8q-49 -286 -67 -456v1q-23 -150 -102 -238v1q-80 -85 -220 -85q-102 0 -147 80
l1 -1q-32 67 -32 173q0 6 1 9v9v14q18 244 23 494l-73 6l-21 3q-5 0 -13.5 1t-12.5 2l-25 3q-4 0 -11 0.5t-10 1.5v-66q0 -14 1 -21v-22q0 -267 -31 -557z" />
    <glyph glyph-name="Udieresisacute" unicode="&#x1d7;" horiz-adv-x="1523" 
d="M1123 2323l-14 -6q-62 -70 -136 -162q-85 -102 -108 -128q-80 -90 -113 -125l45 3q25 1 54 3q55 3 99 3q73 69 181 187l54 57q10 11 31 32t31 32q73 73 120 116q-32 -3 -122 -7l-66 -3q-42 -2 -56 -2zM586 1903l-19 -25q9 -33 9 -68q0 -64 -42 -140q9 1 28 1.5t29 0.5
q43 0 66 1q88 2 121 2q18 87 18 167q0 33 -2 57q-17 1 -51.5 1.5t-52.5 0.5q-40 0 -104 2zM992 1899l-17 -15q-19 -78 -19 -145q0 -34 4 -63q96 -3 114 -3l124 -2q-22 57 -22 93q0 55 43 139l-130 -2q-33 0 -97 -2zM343 1464v-69q0 -379 -45 -827q-7 -72 -7 -127
q0 -92 20 -161q25 -88 77 -147q67 -71 182 -101q88 -23 215 -23t223 26q120 33 207 115q76 81 111 197q28 91 37 217q40 527 118 921l-76 -7q-64 -7 -144 -13q-15 -87 -27 -180q-30 -216 -45 -375q-6 -52 -19 -182q-9 -99 -29 -169q-26 -90 -73 -153q-43 -49 -120 -72
q-62 -19 -141 -19q-80 0 -138 17q-72 21 -107 72h1q-51 76 -51 215q0 46 5 104q34 417 41 740q-86 6 -193 20z" />
    <glyph glyph-name="udieresisacute" unicode="&#x1d8;" horiz-adv-x="1353" 
d="M975 1976l-14 -6q-62 -70 -136 -162q-85 -102 -108 -128q-80 -90 -113 -125l45 3q25 2 54 3q55 3 99 3q73 69 181 187l54 57q10 11 31 32t31 32q73 73 120 116q-32 -3 -122 -7l-66 -3q-42 -2 -56 -2zM438 1556l-19 -25q9 -33 9 -68q0 -64 -42 -140q9 1 28 1.5t29 0.5
q43 0 66 1q88 2 121 2q18 87 18 167q0 33 -2 57q-17 1 -51.5 1.5t-52.5 0.5q-40 0 -104 2zM844 1552l-17 -15q-19 -78 -19 -145q0 -34 4 -63q96 -3 114 -3l124 -2q-22 57 -22 93q0 55 43 139l-130 -2q-33 0 -97 -2zM239 448q-5 -55 -5 -102q0 -120 40 -213q36 -69 116 -102
q69 -30 157 -30h26q92 0 178.5 42.5t150.5 116.5q-2 -18 -11 -137q7 -1 22 -1.5t23 -0.5q44 -2 106 -8l45 -3q1 545 122 1104q-33 -4 -115 -10q-68 -7 -116 -8q-49 -286 -67 -456v1q-23 -150 -102 -238v1q-80 -85 -220 -85q-102 0 -147 80l1 -1q-32 67 -32 173q0 6 1 9v9v14
q18 244 23 494l-73 6l-21 3q-5 0 -13.5 1t-12.5 2l-25 3q-4 0 -11 0.5t-10 1.5v-66q0 -14 1 -21v-22q0 -267 -31 -557z" />
    <glyph glyph-name="Udieresiscaron" unicode="&#x1d9;" horiz-adv-x="1523" 
d="M591 1672q-10 0 -29 -0.5t-28 -1.5q42 76 42 140q0 35 -9 68l19 25l46 -1q-11 17 -50 71q67 -4 82 -4q7 -1 22 -1t23 -1q14 -1 35 -1q21 -27 44 -59t35.5 -51t38 -59.5t33.5 -52.5l1 -2l37 46l30 38q5 31 12 58l17 15l34 1q37 41 61 66l65 2h-1l107 6q-24 -25 -64 -71h25
q-43 -84 -43 -139q0 -36 22 -93l-124 2l-55 1q-3 -5 -9 -13t-9 -13q-3 -4 -17.5 -25.5t-20.5 -30.5h-156l-44 83q-30 0 -106 -2q-23 -1 -66 -1zM1405 1478l76 7q-78 -394 -118 -921q-9 -126 -37 -217q-35 -116 -111 -197q-87 -82 -207 -115q-96 -26 -223 -26t-215 23
q-115 30 -182 101q-52 59 -77 147q-20 69 -20 161q0 55 7 127q45 448 45 827v69l22 19q107 -14 193 -20q-7 -323 -41 -740q-5 -58 -5 -104q0 -139 51 -215h-1q35 -51 107 -72q58 -17 138 -17q79 0 141 19q77 23 120 72q47 63 73 153q20 70 29 169q13 130 19 182
q15 159 45 375q12 93 27 180q81 6 144 13z" />
    <glyph glyph-name="udieresiscaron" unicode="&#x1da;" horiz-adv-x="1353" 
d="M659 1431h156q6 9 20.5 30.5t17.5 25.5q49 70 73 103t77.5 99.5t106.5 123.5l-107 -6h1l-65 -2q-76 -79 -154 -178l-37 -46l-1 2q-8 12 -33.5 52.5t-38 59.5t-35.5 51t-44 59q-21 0 -35 1q-7 0 -22 1t-23 1q-15 0 -82 4q83 -112 178 -292zM438 1385l-19 -25q9 -33 9 -68
q0 -64 -42 -140q9 1 28 1.5t29 0.5q43 0 66 1q88 2 121 2q18 87 18 167q0 33 -2 57q-17 1 -51.5 1.5t-52.5 0.5q-40 0 -104 2zM844 1381l-17 -15q-19 -78 -19 -145q0 -34 4 -63q96 -3 114 -3l124 -2q-22 57 -22 93q0 55 43 139l-130 -2q-33 0 -97 -2zM239 448
q-5 -55 -5 -102q0 -120 40 -213q36 -69 116 -102q69 -30 157 -30h26q92 0 178.5 42.5t150.5 116.5q-2 -18 -11 -137q7 -1 22 -1.5t23 -0.5q44 -2 106 -8l45 -3q1 545 122 1104q-33 -4 -115 -10q-68 -7 -116 -8q-49 -286 -67 -456v1q-23 -150 -102 -238v1q-80 -85 -220 -85
q-102 0 -147 80l1 -1q-32 67 -32 173q0 6 1 9v9v14q18 244 23 494l-73 6l-21 3q-5 0 -13.5 1t-12.5 2l-25 3q-4 0 -11 0.5t-10 1.5v-66q0 -14 1 -21v-22q0 -267 -31 -557z" />
    </font>
</defs>
</svg>
