<?xml version="1.0" standalone="no"?>
<!DOCTYPE svg PUBLIC "-//W3C//DTD SVG 1.1//EN" "http://www.w3.org/Graphics/SVG/1.1/DTD/svg11.dtd" >
<svg xmlns="http://www.w3.org/2000/svg" xmlns:xlink="http://www.w3.org/1999/xlink" version="1.1">
<metadata>
Created by FontForge 20190801 at Tue Nov  4 22:32:01 2014
 By root
Original Fonts are (c) Bitstream. OpenDyslexic changes and additional glyphs by Abelardo Gonzalez are licensed under a Creative Commons Attribution 3.0 Unported License.
Based on a work at http://dyslexicfonts.com. 2012 by Abelardo Gonzalez. Copying is an act of love. Please copy.
Bitstream license available here: http://opendyslexic.org/legal/
</metadata>
<defs>
<font id="OpenDyslexic-Bold" horiz-adv-x="651" >
  <font-face 
    font-family="OpenDyslexic"
    font-weight="700"
    font-stretch="normal"
    units-per-em="1000"
    panose-1="0 0 8 0 0 0 0 0 0 0"
    ascent="800"
    descent="-200"
    x-height="547"
    cap-height="729"
    bbox="-55 -9358 1259 1169"
    underline-thickness="50"
    underline-position="-263"
    unicode-range="U+0020-FB02"
  />
<missing-glyph horiz-adv-x="658" 
d="M585 -168v874h-512v-874h512zM164 616h331v-611h-331v611z" />
    <glyph glyph-name="fi" unicode="fi" horiz-adv-x="680" 
d="M279 547v27q0 33 13 53v-1q14 18 51 18l96 22v104l-106 -11q-87 -15 -133 -58q-47 -47 -47 -137v-17h-80v-97h80l-9 -450h148q0 36 -2 110q-2 39 -4 115q-4 152 -7 225h193l-9 -450h144l-14 547h-314zM472 602h121v143h-121v-143z" />
    <glyph glyph-name="fl" unicode="fl" horiz-adv-x="713" 
d="M589 746h-252q-95 0 -139 -43q-44 -44 -44 -138l-3 -18h-78v-102h75l-13 -445h173l-28 445h133v102h-135l-4 37q0 40 13 52q12 12 49 12h132v-648h172l-1 132q-33 0 -50 -1v615z" />
    <glyph glyph-name=".notdef" horiz-adv-x="658" 
d="M585 -168v874h-512v-874h512zM164 616h331v-611h-331v611z" />
    <glyph glyph-name=".null" horiz-adv-x="0" 
 />
    <glyph glyph-name="nonmarkingreturn" horiz-adv-x="333" 
 />
    <glyph glyph-name="NULL" horiz-adv-x="220" 
 />
    <glyph glyph-name="NULL" horiz-adv-x="220" 
 />
    <glyph glyph-name="space" unicode=" " horiz-adv-x="391" 
 />
    <glyph glyph-name="exclam" unicode="!" horiz-adv-x="310" 
d="M77 0h154l-11 152h-131zM83 400v1l-10 -182h163l-15 182l-5 316l-133 -2v-315z" />
    <glyph glyph-name="quotedbl" unicode="&#x22;" horiz-adv-x="503" 
d="M103 717l-30 -304h153l-6 304h-117zM284 717l-5 -304h151l-28 304h-118z" />
    <glyph glyph-name="numbersign" unicode="#" horiz-adv-x="821" 
d="M445 295h-95l28 116h95zM452 707h-112q-4 -17 -12 -50t-11 -44q-19 -80 -23 -96h-169v-106h142l-29 -116h-165v-107h139l-47 -188h110l47 188h96l-47 -188h111l47 188h167v107h-140q6 22 8 31q2 8 6.5 26.5t7.5 28.5l6 30h164v106h-137l47 190h-110l-48 -190h-96z" />
    <glyph glyph-name="dollar" unicode="$" horiz-adv-x="624" 
d="M368 -134l-7 140q74 7 129 51q59 49 61 135q-4 77 -51.5 118.5t-146.5 60.5q0 31 1 46v43q0 29 1 43q0 29 1 45q71 -8 158 -55l3 113q-87 31 -160 36l2 107l-82 1l-2 -109q-93 -8 -143.5 -54.5t-51.5 -125.5q3 -75 52 -121q46 -41 133 -60q0 -26 -1 -38v-36
q-1 -12 -1 -35q-1 -12 -1 -37q-81 8 -187 77l-2 -154q94 -42 185 -52l-11 -137zM266 544l-3 -162q-82 21 -82 79q0 31 24 53t61 30zM353 133l-4 126q75 -20 75 -76q0 -27 -18 -36q-22 -8 -53 -14z" />
    <glyph glyph-name="percent" unicode="%" horiz-adv-x="967" 
d="M719 299q30 0 47.5 -26.5t17.5 -73.5q0 -46 -17.5 -73t-47.5 -27q-31 0 -49 26.5t-18 73.5t17.5 73.5t49.5 26.5zM719 394q-80 0 -128 -56t-48 -148q0 -93 47.5 -148t128.5 -55q80 0 127 56q48 54 48 147t-47.5 148.5t-127.5 55.5zM249 635q31 0 48.5 -28.5t17.5 -77.5
q0 -51 -17.5 -79t-48.5 -28q-32 0 -49.5 28t-17.5 79q0 49 18 77.5t49 28.5zM202 -13h116l452 742h-116zM249 729q-79 0 -129 -56q-47 -56 -47 -147q0 -93 47.5 -148.5t128.5 -55.5q80 0 127.5 55.5t47.5 148.5q0 91 -48 147t-127 56z" />
    <glyph glyph-name="ampersand" unicode="&#x26;" horiz-adv-x="849" 
d="M237 377l217 -223q-54 -41 -126 -41q-66 0 -109.5 39t-43.5 98q0 65 62 127zM305 466q-38 39 -53 63l1 -1q-11 22 -11 38q0 32 23 52q25 21 66 21q59 0 151 -51l49 100q-99 41 -177 41q-90 0 -147 -49h1q-57 -51 -57 -133q0 -52 37 -109q-115 -92 -115 -209
q0 -107 76 -175q74 -67 192 -67q116 0 209 74l59 -61h166l-147 150q34 50 47 111q8 53 10 70q1 11 2.5 23.5t2.5 26.5t2 20h-122q-3 -64 -11 -108q-6 -29 -21 -57z" />
    <glyph glyph-name="quotesingle" unicode="'" horiz-adv-x="261" 
d="M73 717v-290h115v290h-115z" />
    <glyph glyph-name="parenleft" unicode="(" horiz-adv-x="443" 
d="M370 739l-115 10q-164 -213 -182 -419q0 -221 91 -446l138 -9q-57 120 -75.5 219.5t-23.5 225.5q7 195 167 419z" />
    <glyph glyph-name="parenright" unicode=")" horiz-adv-x="443" 
d="M263 752l-113 10q63 -134 79 -238q16 -100 16 -205q-22 -210 -172 -422l149 -9q56 102 104 212q44 105 44 210q0 94 -21 210q-20 103 -86 232z" />
    <glyph glyph-name="asterisk" unicode="*" horiz-adv-x="607" 
d="M534 580l-45 77q-33 -19 -69 -42q-48 -30 -72 -44v158h-88v-158l-142 86l-45 -77q48 -26 74 -40q45 -26 77 -42l-151 -82l46 -77q13 8 38 23.5t31 19.5q12 7 36 21.5t36 21.5v-158h88v158l141 -86l45 77q-121 66 -150 82z" />
    <glyph glyph-name="plus" unicode="+" horiz-adv-x="767" 
d="M327 622v-254h-254v-114h254v-254h113v254h254v114h-254v254h-113z" />
    <glyph glyph-name="comma" unicode="," horiz-adv-x="351" 
d="M126 36l-53 -167h94l110 158v120h-151v-111z" />
    <glyph glyph-name="hyphen" unicode="-" horiz-adv-x="434" 
d="M73 218l283 5l4 111l-282 -5z" />
    <glyph glyph-name="period" unicode="." horiz-adv-x="294" 
d="M49 0h172v184h-172v-184z" />
    <glyph glyph-name="slash" unicode="/" horiz-adv-x="528" 
d="M73 -86l144 -5l238 797l-105 2z" />
    <glyph glyph-name="zero" unicode="0" horiz-adv-x="653" 
d="M331 656q125 0 125 -231q-9 -115 -41 -172q-34 -61 -93 -61q-62 0 -87 51l1 -1q-29 60 -29 182q0 232 124 232zM331 729q-122 0 -188 -95q-64 -94 -70 -276q0 -182 63 -276.5t186 -94.5q122 0 187.5 94.5t70.5 275.5q0 182 -63 277t-186 95zM327 324q-52 0 -52 86
q0 52 10.5 82.5t41.5 30.5q29 0 40 -28t11 -85q0 -86 -51 -86z" />
    <glyph glyph-name="one" unicode="1" horiz-adv-x="588" 
d="M86 0h429v164h-151v553h-111l-180 -36v-121l164 32v-428h-151v-164z" />
    <glyph glyph-name="two" unicode="2" horiz-adv-x="615" 
d="M542 168h-219q17 43 65 91q30 33 49 52q19 20 23 26q45 54 61 93q17 43 17 87q0 97 -69 155q-69 57 -181 57q-82 0 -210 -51v-136q131 73 212 73q54 0 86.5 -29t32.5 -75q0 -26 -16 -60q-15 -29 -59 -80q-20 -24 -102 -85q-49 -37 -159 -127v-159h469v168z" />
    <glyph glyph-name="three" unicode="3" horiz-adv-x="631" 
d="M542 535q0 90 -68 143v-1q-65 52 -178 52q-89 0 -202 -33v-113q122 42 194 42q61 0 93.5 -23.5t32.5 -67.5q0 -42 -31.5 -64.5t-90.5 -22.5h-101v-112h97q65 0 103.5 -28t38.5 -68q0 -16 -40 -50q-42 -34 -119 -34q-97 0 -198 59v-189q114 -38 200 -38q137 0 211 59
q74 62 74 179q0 71 -42 122q-24 27 -58 42q84 47 84 146z" />
    <glyph glyph-name="four" unicode="4" horiz-adv-x="679" 
d="M376 305h-176l180 282zM73 272v-80h298l-10 -192h162q0 14 -2 46q0 17 -2 49q-1 8 -2 25t-1 25q-2 32 -2 47h91v113h-92l-4 412h-144z" />
    <glyph glyph-name="five" unicode="5" horiz-adv-x="623" 
d="M102 717v-388q97 44 167 44q148 0 148 -123q0 -28 -39 -62q-36 -37 -109 -37q-92 0 -196 57v-187q109 -34 198 -34q131 0 205 65.5t74 183.5q0 114 -72.5 182t-192.5 68q-26 0 -71 -8v134h286v105h-398z" />
    <glyph glyph-name="six" unicode="6" horiz-adv-x="653" 
d="M334 377q54 0 85 -37t31 -104q0 -37 -30 -59t-86 -22t-86 22t-30 59q0 67 31 104t85 37zM535 571v125q-93 33 -161 33q-137 0 -219 -101.5t-82 -269.5q0 -179 66.5 -275t194.5 -96q111 0 178.5 68.5t67.5 180.5q0 114 -65 182t-175 68q-78 0 -133 -46q29 175 170 175
q67 0 158 -44z" />
    <glyph glyph-name="seven" unicode="7" horiz-adv-x="616" 
d="M73 612h341l-251 -612h206l173 657v60h-469v-105z" />
    <glyph glyph-name="eight" unicode="8" horiz-adv-x="668" 
d="M334 332q60 0 91.5 -29.5t31.5 -83.5q0 -26 -32 -53h1q-32 -29 -92 -29q-55 0 -89 26t-34 56q0 54 31.5 83.5t91.5 29.5zM120 332q-47 -52 -47 -123q0 -107 72 -165q69 -57 189 -57q121 0 191 58t70 164q0 65 -34 108t-81 64q81 47 81 154q0 79 -60 133q-58 52 -167 52
q-105 0 -166 -51t-61 -134q0 -107 81 -154q-36 -15 -68 -49zM227 553q0 37 26 60q28 25 81 25q26 0 46 -6q62 -18 62 -79q0 -44 -28.5 -69t-79.5 -25t-79 24.5t-28 69.5z" />
    <glyph glyph-name="nine" unicode="9" horiz-adv-x="652" 
d="M117 200v-180q93 -33 162 -33q137 0 218.5 101.5t81.5 269.5q0 180 -67 276q-67 95 -194 95q-110 0 -178 -69q-67 -69 -67 -181q0 -113 64 -182q67 -67 176 -67q76 0 132 47q-10 -69 -42 -91q-45 -31 -128 -31q-68 0 -158 45zM311 404q-75 0 -114 16q-32 12 -32 74
q0 66 39 103t107 37q67 0 106 -37.5t39 -102.5q0 -62 -33 -74q-39 -16 -112 -16z" />
    <glyph glyph-name="colon" unicode=":" horiz-adv-x="302" 
d="M73 0h156v176h-156v-176zM73 372h156v166h-156v-166z" />
    <glyph glyph-name="semicolon" unicode=";" horiz-adv-x="338" 
d="M118 366h147v170h-147v-170zM120 33l-47 -182h100l90 175v110h-143v-103z" />
    <glyph glyph-name="less" unicode="&#x3c;" horiz-adv-x="795" 
d="M722 575l-638 -170l-11 -128l599 -278l13 148l-419 191l445 116z" />
    <glyph glyph-name="equal" unicode="=" horiz-adv-x="767" 
d="M73 347h621v113h-621v-113zM73 161h621v127h-621v-127z" />
    <glyph glyph-name="greater" unicode="&#x3e;" horiz-adv-x="795" 
d="M531 320l-445 -115l-13 -149l638 170l11 128l-598 279l-11 -121z" />
    <glyph glyph-name="question" unicode="?" horiz-adv-x="542" 
d="M157 -4h156v165h-156v-165zM315 183v74q0 42 5 56q2 6 5 10q2 4 8 12.5t9 13.5q6 10 10 16q3 3 8.5 9t8.5 9q10 12 16 18q39 41 59 73q24 36 24 76q0 80 -54 130q-53 49 -145 49q-97 0 -196 -60v-116q116 79 180 79q43 0 65 -27q26 -28 26 -59q-2 -13 -16 -27
q-7 -9 -50 -44l-46 -41q-42 -40 -58 -78q-14 -37 -14 -85v-88h155z" />
    <glyph glyph-name="at" unicode="@" horiz-adv-x="990" 
d="M382 300q0 50 27 78q29 29 75 29q47 0 75 -29t28 -78q0 -50 -27 -78t-75 -28q-49 0 -76 28t-27 78zM607 81v-43q69 2 116 15q-103 -77 -220 -77q-71 0 -125 17q-53 17 -98 60q-63 70 -83 104h1q-24 41 -24 109q0 83 38 154t106 116q83 55 193 55q157 0 250 -116
q53 -68 53 -159q0 -73 -34 -121q-28 -36 -71 -49v331h-102v-32q-48 41 -127 41q-86 0 -140 -63q-54 -61 -54 -160q0 -98 54 -160.5t140 -62.5q78 0 127 41zM838 115q79 75 79 203q0 119 -74 216q-60 77 -146 118.5t-187 41.5q-184 0 -312 -125q-125 -127 -125 -303
q0 -184 125 -307q126 -121 305 -121q149 0 284 104l-57 113q66 19 108 60z" />
    <glyph glyph-name="A" unicode="A" horiz-adv-x="835" 
d="M520 260h-204q22 66 26 79q3 9 12 35.5t14 40.5q8 24 24 74q3 10 12 36t13 40zM73 0h167l35 113h284l26 -113h177l-288 729h-113z" />
    <glyph glyph-name="B" unicode="B" horiz-adv-x="684" 
d="M204 331h132q68 0 100 -27q29 -25 29 -40q0 -53 -27 -71q-33 -19 -102 -19h-132v157zM204 629h120q59 0 88 -27t29 -73q0 -86 -117 -86h-120v186zM73 0h267q125 0 197.5 55.5t72.5 156.5q0 135 -131 183q70 39 70 145q0 90 -62 140q-63 49 -179 49h-235v-729z" />
    <glyph glyph-name="C" unicode="C" horiz-adv-x="741" 
d="M668 540v151q-72 35 -127 44.5t-126 6.5q-165 -7 -253.5 -105.5t-88.5 -272.5t96 -276t261 -102q126 0 238 76v215q-121 -111 -233 -111q-117 0 -171 44.5t-55 153.5q0 131 51 197t160 66q64 0 117 -17t131 -70z" />
    <glyph glyph-name="D" unicode="D" horiz-adv-x="765" 
d="M208 615h95q133 0 195 -59q63 -59 63 -180q-21 -92 -71 -130q-52 -35 -187 -35h-95v404zM73 0h211q207 0 307 88q101 90 101 277q0 184 -100 276q-103 88 -308 88h-211v-729z" />
    <glyph glyph-name="E" unicode="E" horiz-adv-x="629" 
d="M73 0h483v181h-352v149h329v115h-329v168h344v116h-475v-729z" />
    <glyph glyph-name="F" unicode="F" horiz-adv-x="586" 
d="M73 0h160l-9 312h264v134h-269q2 53 4 82q2 28 4 80h286v121h-415z" />
    <glyph glyph-name="G" unicode="G" horiz-adv-x="788" 
d="M571 257v-57q-13 -11 -42 -17h1q-33 -8 -85 -8q-122 0 -178 40h1q-53 40 -59 159q0 263 236 263q123 0 247 -105v140q-111 70 -255 70q-170 0 -267 -100.5t-97 -277.5q0 -176 96 -278q98 -100 268 -100q155 0 278 87v312h-292v-128h148z" />
    <glyph glyph-name="H" unicode="H" horiz-adv-x="721" 
d="M73 0h145v232h284v-232h145l-9 729h-136v-330h-284v330h-135z" />
    <glyph glyph-name="I" unicode="I" horiz-adv-x="296" 
d="M73 0h150l-9 729h-126z" />
    <glyph glyph-name="J" unicode="J" horiz-adv-x="473" 
d="M265 731l-27 -677q0 -23 -23 -44q-23 -22 -76 -25l-66 15v-193l72 -7q119 1 173 59q53 56 56 188l26 676z" />
    <glyph glyph-name="K" unicode="K" horiz-adv-x="769" 
d="M73 0h160q-2 46 -4 69q-2 51 -8 147q-1 13 -2.5 37t-1.5 35l203 -288h275l-386 387l364 342h-174l-284 -268l8 268h-130z" />
    <glyph glyph-name="L" unicode="L" horiz-adv-x="620" 
d="M73 0h463l11 181h-338l4 548h-130z" />
    <glyph glyph-name="M" unicode="M" horiz-adv-x="865" 
d="M73 0h172q-6 162 -8 250q-6 168 -8 252l134 -392h139l134 391l-16 -501h172l-29 729h-161l-169 -353l-161 353h-169z" />
    <glyph glyph-name="N" unicode="N" horiz-adv-x="717" 
d="M73 0h157q-6 133 -12 256q-4 87 -12 259l273 -515h165v729h-123l-13 -509l-270 495h-146z" />
    <glyph glyph-name="O" unicode="O" horiz-adv-x="824" 
d="M413 628q93 0 147.5 -70t54.5 -194q0 -92 -49.5 -127t-152.5 -35q-97 0 -153 33q-51 34 -51 129q0 123 56 196q57 68 148 68zM413 742q-155 0 -248 -104q-92 -104 -92 -274t92 -274q93 -104 248 -104q153 0 246 104q92 104 92 274t-92 274q-93 104 -246 104z" />
    <glyph glyph-name="P" unicode="P" horiz-adv-x="654" 
d="M237 652h99q61 0 94.5 -29t33.5 -82q0 -54 -33 -83t-95 -29h-107q2 73 4 113q2 72 4 110zM73 0h150l9 269h95q124 0 189 62t65 173q0 225 -254 225h-224z" />
    <glyph glyph-name="Q" unicode="Q" horiz-adv-x="879" 
d="M413 628q93 0 147.5 -70t54.5 -194q0 -96 -72 -136q-53 8 -116 37l-9 -15q-3 -6 -11 -18q-1 -3 -3 -6t-4.5 -6.5t-3.5 -6.5q-2 -3 -5.5 -8.5t-4.5 -8.5l-32 6q-40 5 -95 36q-50 30 -50 126q0 123 56 196q57 68 148 68zM806 -123l-163 182q29 36 68 106q39 73 39 199
q0 171 -92 274.5t-245 103.5q-155 0 -247.5 -103.5t-92.5 -274.5t92 -274.5t243 -103.5h13q2 0 8 0.5t10 0.5l97 -110h270z" />
    <glyph glyph-name="R" unicode="R" horiz-adv-x="734" 
d="M543 511q0 109 -64 164q-62 54 -176 54h-230v-729h149v292h51q51 0 79 -20.5t59 -83.5v1l74 -189h176q-8 18 -27.5 55.5t-26.5 51.5l-28.5 57t-26.5 52q-48 93 -92 126q83 50 83 169zM213 643h100q54 0 90.5 -30.5t36.5 -101.5q0 -32 -40 -59t-87 -27h-100v218z" />
    <glyph glyph-name="S" unicode="S" horiz-adv-x="670" 
d="M556 567v134q-123 41 -222 41q-120 0 -190.5 -58t-70.5 -159q0 -86 51.5 -136t161.5 -71l57 -11q66 -14 94 -38q25 -25 25 -43q0 -22 -35 -47q-41 -29 -114 -29q-97 0 -237 79v-193q135 -50 237 -50q140 0 212 56.5t72 166.5q0 93 -53.5 147.5t-166.5 76.5h1l-57 11
q-73 14 -96 34q-21 16 -21 55q0 46 36.5 70.5t104.5 24.5q80 0 211 -61z" />
    <glyph glyph-name="T" unicode="T" horiz-adv-x="769" 
d="M73 613l245 9l-18 -622h169l-18 622l245 -10v117h-623v-116z" />
    <glyph glyph-name="U" unicode="U" horiz-adv-x="713" 
d="M73 729v-451q0 -144 72 -218t212 -74q283 0 283 292v451h-131v-374q0 -104 -36 -149v1q-35 -42 -116 -42t-116 42v-1q-36 45 -36 149v374h-132z" />
    <glyph glyph-name="V" unicode="V" horiz-adv-x="833" 
d="M506 0l253 729h-135l-207 -488l-208 488h-136l254 -729h179z" />
    <glyph glyph-name="W" unicode="W" horiz-adv-x="1070" 
d="M236 0h174q8 19 62 162q11 31 32 87.5t30 81.5l115 -331h164l184 729h-128q-32 -103 -75 -235q-6 -20 -74 -243l-135 297h-106q-10 -21 -22 -44.5t-27 -52.5t-24 -46q-8 -17 -23.5 -46.5t-27.5 -53.5t-23 -45l-132 469h-127z" />
    <glyph glyph-name="X" unicode="X" horiz-adv-x="812" 
d="M325 343l-252 -343h199l134 229l134 -229h198l-242 342l224 387h-144l-162 -276l-162 276h-143z" />
    <glyph glyph-name="Y" unicode="Y" horiz-adv-x="791" 
d="M311 250v-250h164v250l242 479h-142l-179 -334l-181 334h-142z" />
    <glyph glyph-name="Z" unicode="Z" horiz-adv-x="749" 
d="M84 613h403l-414 -455v-158h602v176h-425l415 456v97h-581v-116z" />
    <glyph glyph-name="bracketleft" unicode="[" horiz-adv-x="376" 
d="M73 -123h230v138h-110v629h110v102h-230v-869z" />
    <glyph glyph-name="backslash" unicode="\" horiz-adv-x="482" 
d="M73 717l201 -810l135 -6l-220 813z" />
    <glyph glyph-name="bracketright" unicode="]" horiz-adv-x="376" 
d="M73 746v-102h109v-634h-109v-133h230v869h-230z" />
    <glyph glyph-name="asciicircum" unicode="^" horiz-adv-x="819" 
d="M367 717l-294 -290h195l141 194l142 -194h195l-294 290h-85z" />
    <glyph glyph-name="underscore" unicode="_" horiz-adv-x="668" 
d="M73 -102v-118h522v118h-522z" />
    <glyph glyph-name="grave" unicode="`" horiz-adv-x="433" 
d="M73 783l115 -207h171l-156 207h-130z" />
    <glyph glyph-name="a" unicode="a" horiz-adv-x="614" 
d="M374 261v-1q0 -70 -20 -89.5t-79 -19.5q-41 0 -71 8q-18 6 -24 31q2 38 24 53q25 18 112 18h58zM541 0v310q0 249 -238 249q-84 0 -192 -41v-111q102 54 182 54q58 -4 91 -31t36 -71h-99q-248 0 -248 -192q0 -82 52 -131t138 -49q97 0 157 55v-42h121z" />
    <glyph glyph-name="b" unicode="b" horiz-adv-x="640" 
d="M438 200q-34 -24 -81 -27q-55 0 -84.5 29t-38.5 89q2 83 35 129q35 43 90 43q57 0 84 -43q31 -45 34 -127q-12 -71 -39 -93zM94 103l100 -62q53 -54 145 -54q102 0 164.5 79.5t62.5 206.5t-62.5 206.5t-164.5 79.5q-91 0 -143 -52l8 239h-121z" />
    <glyph glyph-name="c" unicode="c" horiz-adv-x="587" 
d="M514 405v116q-87 38 -166 38q-127 0 -201 -77t-74 -209q0 -129 73.5 -207.5t196.5 -78.5q85 0 171 39l-3 175q-55 -32 -90 -34h-72q-77 7 -110 28q-30 22 -36 80q1 86 39 133.5t110 47.5q69 0 162 -51z" />
    <glyph glyph-name="d" unicode="d" horiz-adv-x="648" 
d="M455 746l-8 -242q-55 55 -147 55q-102 0 -164.5 -79.5t-62.5 -206.5t62.5 -206.5t164.5 -79.5q94 0 145 54v-41h121l9 746h-120zM203 417v-1q33 45 90 45q54 0 83 -46q28 -44 31 -127q-2 -70 -27 -91t-89 -21q-59 0 -86 24q-28 25 -37 85q1 83 35 132z" />
    <glyph glyph-name="e" unicode="e" 
d="M578 276v52q-9 115 -68 171h1q-59 56 -169 60q-122 0 -193 -78t-76 -212q0 -129 77 -204q78 -74 205 -78q103 0 208 45l-2 158q-69 -36 -109 -39q-41 -4 -92 -4q-80 7 -122 32q-34 24 -40 97h380zM464 386h-256q6 27 35 56v-1q36 38 99 38q54 0 86 -38q26 -32 36 -55z
" />
    <glyph glyph-name="f" unicode="f" horiz-adv-x="485" 
d="M407 726l-91 10q-69 0 -114 -38q-47 -37 -49 -133l-3 -18h-77v-120h75l-13 -427h158q-1 30 -3.5 102t-3.5 111q-4 146 -7 214h133v120h-135q0 6 -1 9v5q-1 2 -1 5q-1 2 -1 8q0 41 8 48q6 8 31 8l94 -11v107z" />
    <glyph glyph-name="g" unicode="g" horiz-adv-x="648" 
d="M409 284q0 -73 -29.5 -92.5t-101.5 -19.5q-61 0 -88 16q-23 19 -30 98q0 39 8 74q25 98 116 98q59 0 92 -45q33 -47 33 -129zM575 547h-119q0 -6 -2 -22q0 -4 -1 -12.5t-2 -12.5q-53 59 -151 59q-102 0 -164.5 -77.5t-62.5 -202.5q0 -124 62.5 -201.5t164.5 -77.5
q61 0 106 24q6 3 14.5 9t11.5 8q-17 -33 -35 -54q-34 -39 -107 -39t-165 51v-193q91 -32 178 -32q128 0 191 70q61 65 67 237z" />
    <glyph glyph-name="h" unicode="h" horiz-adv-x="630" 
d="M547 327v-1q0 233 -196 233q-90 0 -146 -57l8 244h-121l-19 -746h140q-1 50 -5 153q-1 28 -2.5 80t-1.5 74q0 68 34.5 110t93.5 42q47 0 71 -35t24 -100l-10 -324h140z" />
    <glyph glyph-name="i" unicode="i" horiz-adv-x="269" 
d="M74 0h120l-4 547h-111zM73 603h122l-6 143h-110z" />
    <glyph glyph-name="j" unicode="j" horiz-adv-x="427" 
d="M219 545l-23 -483q-2 -36 -4 -51q-5 -20 -10 -27q-15 -15 -54 -16h-52l-3 -162l65 -1q89 3 133 50q41 46 44 150l19 538zM232 603h122l-6 143h-110z" />
    <glyph glyph-name="k" unicode="k" horiz-adv-x="677" 
d="M73 0h150l-12 204l166 -204h227q-20 20 -72 70l-78 75q-12 11 -25.5 24t-29 28.5t-24.5 23.5q-13 13 -37.5 36.5t-35.5 34.5l206 255h-154l-146 -171l5 370h-121z" />
    <glyph glyph-name="l" unicode="l" horiz-adv-x="329" 
d="M73 0h182v140h-56v606h-116z" />
    <glyph glyph-name="m" unicode="m" horiz-adv-x="947" 
d="M458 528q-48 31 -109 31q-83 0 -138 -49l3 37h-122l-19 -547h149q-1 50 -5 153q-1 24 -2.5 76.5t-2.5 77.5q0 67 37 115q34 46 90 46q87 0 88 -124l-34 -344h154l5 306q0 71 31.5 114t86.5 43q42 0 58 -28t16 -97l-25 -338h155q-1 49 -5 164q-1 26 -2.5 81t-2.5 82v-1
q0 113 -48 173t-136 60q-61 0 -99 -23t-68 -67q-19 36 -55 59z" />
    <glyph glyph-name="n" unicode="n" horiz-adv-x="644" 
d="M570 0l-14 327q-6 113 -56.5 172.5t-145.5 59.5q-56 0 -103 -25q-38 -23 -43 -26v43h-120l-15 -551h154l-15 312q0 143 133 143q46 0 66 -31t20 -95l-19 -329h158z" />
    <glyph glyph-name="o" unicode="o" 
d="M326 461q58 0 92.5 -46t34.5 -127q0 -77 -31 -99q-37 -21 -96 -21q-70 0 -99 23t-29 97q0 81 34.5 127t93.5 46zM326 559q-120 0 -186 -77q-67 -76 -67 -209t67 -209q66 -77 186 -77q117 0 184.5 77t67.5 209t-67.5 209t-184.5 77z" />
    <glyph glyph-name="p" unicode="p" horiz-adv-x="649" 
d="M194 -194l8 236q55 -55 147 -55q101 0 164 79.5t63 206.5q0 126 -63.5 206t-163.5 80q-83 0 -138 -47l3 35h-122l-12 -488l-31 -253h145zM486 288q0 -79 -27 -103t-93 -24q-68 0 -98.5 24.5t-30.5 102.5q0 85 34 134v-1q34 46 90 46q57 0 90 -46q35 -47 35 -133z" />
    <glyph glyph-name="q" unicode="q" horiz-adv-x="754" 
d="M165 285q0 85 35 134h-1q35 45 91 45t90 -45q35 -50 35 -134q0 -83 -32 -101q-35 -21 -96 -21q-67 0 -94.5 22.5t-27.5 99.5zM598 -62l-45 65q-4 6 -4 38l26 506h-118q-2 -13 -6 -47q-53 59 -151 59q-102 0 -164.5 -79.5t-62.5 -206.5t62.5 -206.5t164.5 -79.5
q93 0 144 52l-8 -233h104q17 0 51 9l90 24q-8 4 -16 11t-18 20t-15.5 20t-18 25.5t-15.5 22.5z" />
    <glyph glyph-name="r" unicode="r" horiz-adv-x="478" 
d="M405 409l-1 133q-39 8 -55 8q-66 0 -113 -28v1q-3 -1 -7 -4t-7 -5q-7 -3 -14 -8v36h-110l-25 -542h145l-10 274q0 74 29 120q26 40 87 40q22 0 34 -3q20 -7 47 -22z" />
    <glyph glyph-name="s" unicode="s" horiz-adv-x="573" 
d="M473 414v112q-82 33 -181 33q-104 0 -159.5 -43t-55.5 -125q0 -67 38.5 -101.5t123.5 -51.5h-1l30 -7q69 -15 79 -23q4 -5 21 -32q0 -23 -24 -34q-22 -12 -72 -12q-84 0 -199 60v-166q112 -37 198 -37q105 0 167 46t62 126q0 70 -44 109q-43 37 -136 56q-7 0 -13 3l-15 3
q-63 14 -84 30q-18 15 -18 39q0 29 28.5 45.5t82.5 16.5q76 0 172 -47z" />
    <glyph glyph-name="t" unicode="t" horiz-adv-x="501" 
d="M140 673l-5 -126h-62v-102h62l-5 -258q0 -103 44.5 -145t149.5 -42h104v161h-104q-45 0 -56 13q-13 12 -13 67l5 204h118v102h-117l4 126h-125z" />
    <glyph glyph-name="u" unicode="u" horiz-adv-x="615" 
d="M73 547v-327q0 -115 50 -174t148 -59q86 0 142 55l-2 -42h121l10 547h-134l-5 -234q-7 -72 -37 -107q-31 -37 -92 -37q-46 0 -68 31.5t-26 96.5v250h-107z" />
    <glyph glyph-name="v" unicode="v" horiz-adv-x="696" 
d="M273 0h150l200 547h-128q-14 -33 -41.5 -98.5t-31.5 -73.5q-15 -35 -43 -100.5t-31 -72.5l-147 345h-128z" />
    <glyph glyph-name="w" unicode="w" horiz-adv-x="879" 
d="M216 0h139l84 201l80 -201h144l143 547h-121q-16 -52 -48 -162t-48 -164l-79 157h-140l-79 -157l-96 326h-122z" />
    <glyph glyph-name="x" unicode="x" horiz-adv-x="738" 
d="M641 547h-128q-27 -38 -72 -97q-5 -7 -31.5 -43.5t-40.5 -54.5l-131 195h-133l187 -283l-219 -264h184l116 164l108 -164h184q-10 11 -51 62q-10 12 -28.5 34.5t-27.5 32.5q-10 11 -28.5 33.5t-27.5 33.5q-22 25 -52 63z" />
    <glyph glyph-name="y" unicode="y" horiz-adv-x="698" 
d="M625 547h-127l-129 -277l-169 277h-127q9 -20 28 -59.5t28 -59.5q19 -41 57.5 -124t57.5 -124q9 -20 28 -59.5t28 -59.5q-3 -5 -5.5 -10.5t-5.5 -12t-5 -9.5q-10 -17 -17 -32q-17 -23 -38 -41q-15 -12 -41 -12h-77v-147h94q67 0 109 33.5t86 133.5z" />
    <glyph glyph-name="z" unicode="z" horiz-adv-x="597" 
d="M94 448h279l-300 -301v-147h446v149h-261l266 296v102h-430v-99z" />
    <glyph glyph-name="braceleft" unicode="{" horiz-adv-x="552" 
d="M464 -29h-48q-57 1 -68 16q-13 13 -16 55l1 112q-3 66 -23 103q-12 23 -34 36q24 13 37 34q25 38 26 113l2 114v-1q2 58 13.5 69.5t73.5 15.5h49l2 101l-48 1q-122 -3 -166 -39.5t-45 -143.5l-2 -109q-2 -61 -20 -79q-19 -18 -79 -21h-45l-1 -101h10h13q4 -1 13 -1h10
q55 -1 72.5 -21.5t20.5 -84.5l-1 -108q3 -105 43 -148q47 -41 163 -42l46 -1z" />
    <glyph glyph-name="bar" unicode="|" horiz-adv-x="303" 
d="M211 276h-113l-25 -496h124zM210 289l20 461h-114l-20 -461h114z" />
    <glyph glyph-name="braceright" unicode="}" horiz-adv-x="543" 
d="M73 -152h47q123 0 164 38h-1q45 39 45 148v109q0 62 19.5 83t76.5 21h46v101h-46q-56 0 -76 21v-1q-20 20 -20 82v110q0 108 -45 148h1q-44 38 -164 38h-47v-102h51q55 0 69.5 -14.5t14.5 -71.5v-113q0 -79 23 -114q14 -22 36 -34q-20 -11 -36 -34q-23 -36 -23 -109v-113
q0 -57 -14 -71.5t-70 -14.5h-51v-107z" />
    <glyph glyph-name="asciitilde" unicode="~" horiz-adv-x="767" 
d="M694 310v119q-114 -93 -182 -93q-37 0 -106 26q-1 1 -5 3q-1 0 -3 1h-2l-7 3q-73 29 -124 29q-45 0 -92 -18q-48 -19 -100 -59v-143q14 12 58 48q42 34 55 44q34 25 68 25q40 0 107 -37l10 -3l6 -2q72 -43 125 -43q47 0 95 31v-1q26 18 47 32q25 17 50 38z" />
    <glyph glyph-name="uni00A0" unicode="&#xa0;" horiz-adv-x="856" 
 />
    <glyph glyph-name="exclamdown" unicode="&#xa1;" horiz-adv-x="304" 
d="M226 717h-148v-161h148v161zM226 317l-11 181h-126l-11 -181l-5 -317h157z" />
    <glyph glyph-name="cent" unicode="&#xa2;" horiz-adv-x="591" 
d="M308 456l-7 -324q-47 13 -72 42h1q-31 35 -31 97q3 76 31 123q31 48 78 62zM517 406l1 107q-62 30 -125 38l2 133l-83 1q-1 -20 -1 -65q0 -11 -0.5 -33.5t-1.5 -33.5q-107 -13 -167 -82q-66 -74 -69 -198q-1 -123 62 -200q59 -71 164 -86l-2 -134h83q0 10 0.5 31.5
t0.5 32.5q1 23 1 66q67 9 128 35l3 156q-79 -39 -128 -47l6 331q43 -5 126 -52z" />
    <glyph glyph-name="sterling" unicode="&#xa3;" horiz-adv-x="646" 
d="M569 562l3 126q-89 34 -151 36q-114 -3 -169 -61t-58 -183l-3 -90l-90 1l-2 -93l90 -1q0 -14 -0.5 -41.5t-1.5 -40.5q-2 -52 -2 -80l-108 2l-4 -137l490 -8l3 136l-254 5q1 30 3 82q1 13 1.5 39.5t0.5 40.5l178 -4l2 93q-26 0 -88 2q-16 0 -46 0.5t-44 0.5l2 80
q3 88 24.5 115.5t83.5 31.5q48 -1 140 -52z" />
    <glyph glyph-name="currency" unicode="&#xa4;" horiz-adv-x="707" 
d="M557 591l-98 -97q-53 29 -105 29q-56 0 -105 -30l-97 97l-78 -78q12 -10 23 -23l25 -25l25 -25q3 -3 7.5 -8t8.5 -9t8 -7q-30 -49 -30 -104q0 -50 29 -106l-97 -97l77 -78l98 97q53 -29 106 -29q55 0 105 30l97 -96l77 76l-97 98q30 49 30 105q0 54 -29 106l97 97z
M458 311q0 -44 -31 -75h1q-29 -29 -74 -29t-75 30v-1q-30 30 -30 75q0 44 30.5 73.5t74.5 29.5t74 -29.5t30 -73.5z" />
    <glyph glyph-name="yen" unicode="&#xa5;" horiz-adv-x="734" 
d="M625 300h-190l31 57h159v93h-109l145 267h-138q-12 -24 -38 -73.5t-39 -75.5q-27 -50 -79 -150l-157 299h-137l141 -267h-109v-93h160q18 -26 20 -28q2 -3 8.5 -13t10.5 -16h-190v-111h188l-13 -189h157q0 13 -2 45q-2 34 -2 49q-2 32 -3 49q-2 32 -2 46h188v111z" />
    <glyph glyph-name="brokenbar" unicode="&#xa6;" horiz-adv-x="260" 
d="M73 222v-382h114v382h-114zM73 689v-382h114v382h-114z" />
    <glyph glyph-name="section" unicode="&#xa7;" horiz-adv-x="564" 
d="M213 440l11 -6l9 7zM354 351q27 -25 27 -52q0 -30 -41 -62q-101 57 -131 84q-26 26 -26 52q0 29 41 61q100 -54 130 -83zM445 581v116q-86 32 -157 32q-80 0 -133 -41q-52 -40 -52 -109q0 -56 41 -100q-71 -49 -71 -131q0 -56 33 -94t132 -93l12 -7q91 -51 91 -77
q0 -23 -19.5 -32t-60.5 -9q-50 0 -152 46v-140q94 -31 162 -31q86 0 138 43.5t52 116.5q0 56 -42 99q72 51 72 132q0 51 -34 93q-30 36 -131 94l-18 10q-84 48 -84 78q0 50 75 50q48 0 146 -46z" />
    <glyph glyph-name="dieresis" unicode="&#xa8;" horiz-adv-x="473" 
d="M264 615h136v135h-136v-135zM73 615h136v135h-136v-135z" />
    <glyph glyph-name="copyright" unicode="&#xa9;" horiz-adv-x="858" 
d="M429 713q-147 0 -251.5 -104.5t-104.5 -252.5q0 -146 105 -251t251 -105t251 105t105 251q0 148 -104.5 252.5t-251.5 104.5zM429 630q112 0 194 -80q79 -80 79 -194q0 -117 -78 -177l1 1q-88 -60 -196 -60q-105 0 -196 60l3 -2q-81 75 -81 178q0 111 81 194
q82 80 193 80zM583 461v88q-74 31 -143 31q-106 0 -168.5 -60.5t-62.5 -163.5t63 -163.5t168 -60.5q73 0 143 32v127q-79 -41 -132 -41q-60 0 -95.5 32.5t-35.5 73.5q0 64 34 106q32 40 92 40q55 0 137 -41z" />
    <glyph glyph-name="ordfeminine" unicode="&#xaa;" horiz-adv-x="507" 
d="M84 214h350v92h-350v-92zM433 327v222q0 92 -44.5 136t-138.5 44q-68 0 -149 -31v-100q89 42 139 42q76 0 87 -48h-63q-191 0 -191 -143q0 -59 40.5 -95t105.5 -36q66 0 110 34v-25h104zM342 533l-18 18v-13v-5h18zM299 465q-24 -27 -63 -27q-29 0 -46.5 13t-17.5 33
q0 26 19 36q25 13 94 13h39q-1 -42 -25 -68z" />
    <glyph glyph-name="guillemotleft" unicode="&#xab;" horiz-adv-x="625" 
d="M297 313l-26 -70l239 -229l31 147q-60 57 -62 59q-33 32 -63 60l131 110l5 136zM99 320l-26 -70l240 -229l30 146q-43 43 -125 121l132 109l4 136z" />
    <glyph glyph-name="logicalnot" unicode="&#xac;" horiz-adv-x="782" 
d="M73 429v-123q76 1 253 5q44 1 128.5 2.5t124.5 1.5l-23 -184h152l-15 298h-620z" />
    <glyph glyph-name="softhyphen" unicode="&#xad;" horiz-adv-x="434" 
d="M73 218l283 5l4 111l-282 -5z" />
    <glyph glyph-name="registered" unicode="&#xae;" horiz-adv-x="858" 
d="M429 630q110 0 194 -74q79 -79 79 -178q0 -104 -80 -177.5t-193 -73.5q-112 0 -193 74.5t-81 176.5q0 103 81 177.5t193 74.5zM429 713q-147 0 -251.5 -104.5t-104.5 -252.5q0 -146 105 -251t251 -105t251 105t105 251q0 148 -104.5 252.5t-251.5 104.5zM402 511h37
q40 0 56 -10t16 -35q0 -26 -14 -35.5t-58 -9.5h-37v90zM272 571v-417h130v162h7q1 0 3 -2l2 -1q1 -1 2 -1q1 -2 5 -4q16 -11 39 -50l64 -104h121l-79 130q-24 36 -40 54q72 30 72 106q0 127 -178 127h-148z" />
    <glyph glyph-name="macron" unicode="&#xaf;" horiz-adv-x="455" 
d="M73 628h309v104h-309v-104z" />
    <glyph glyph-name="degree" unicode="&#xb0;" horiz-adv-x="472" 
d="M236 657q29 0 48.5 -18.5t19.5 -42.5q0 -25 -19.5 -42.5t-48.5 -17.5t-49 17.5t-20 42.5t20.5 43t48.5 18zM236 729q-70 0 -116 -48q-47 -47 -47 -116t46.5 -115.5t115.5 -46.5q67 0 116 47q47 47 47 115q0 70 -47 116l1 -1q-47 49 -116 49z" />
    <glyph glyph-name="plusminus" unicode="&#xb1;" horiz-adv-x="767" 
d="M327 622v-177h-254v-113h254v-177h113v177h254v113h-254v177h-113zM73 0h621v123h-621v-123z" />
    <glyph glyph-name="twosuperior" unicode="&#xb2;" horiz-adv-x="456" 
d="M382 393h-162l3 3h1q156 135 156 206q0 58 -45.5 92.5t-118.5 34.5q-54 0 -140 -30v-99q86 43 131 43q31 0 49 -13.5t18 -35.5q0 -33 -150 -168l-51 -45v-77h309v89z" />
    <glyph glyph-name="threesuperior" unicode="&#xb3;" horiz-adv-x="465" 
d="M382 612q0 54 -47 87q-44 30 -114 30q-56 0 -135 -20v-90q42 12 76 19q24 5 44 5q71 0 71 -36q0 -38 -69 -38h-61v-86h57q82 0 82 -49q0 -50 -86 -50q-58 0 -127 36v-99q80 -24 133 -24q90 0 138 35.5t48 101.5q0 63 -56 96q46 29 46 82z" />
    <glyph glyph-name="acute" unicode="&#xb4;" horiz-adv-x="465" 
d="M73 556h122l197 227h-149z" />
    <glyph glyph-name="mu" unicode="&#xb5;" horiz-adv-x="697" 
d="M83 -194h120q0 31 -2 107q0 38 -2 110q42 -36 112 -36q73 0 127 51q22 -51 82 -51q23 0 51 19q4 3 14 9t15 8q2 2 6.5 5t6.5 4q5 2 11 6v106q-8 -4 -19 -8.5t-14 -6.5q-13 -5 -15 -5q-34 1 -34 12l4 411h-120l-5 -220q0 -135 -117 -135q-106 0 -106 115l-5 245l-120 -6z
" />
    <glyph glyph-name="paragraph" unicode="&#xb6;" horiz-adv-x="702" 
d="M523 717h-215q-105 0 -170 -58t-65 -153q0 -91 59 -147q50 -45 95 -60l-32 -389h185v715h50l-5 -715h204z" />
    <glyph glyph-name="periodcentered" unicode="&#xb7;" horiz-adv-x="279" 
d="M73 266h133v152h-133v-152z" />
    <glyph glyph-name="cedilla" unicode="&#xb8;" horiz-adv-x="372" 
d="M239 37h-99q26 -35 44 -64q14 -25 14 -36q0 -24 -36 -24q-38 0 -89 26v-104q56 -15 98 -15q127 0 127 100q0 48 -59 117z" />
    <glyph glyph-name="onesuperior" unicode="&#xb9;" horiz-adv-x="443" 
d="M82 304h288v87h-93v330h-81l-123 -20v-90q3 0 11 1.5t12 2.5q17 4 53 10q11 1 26 5v-239h-93v-87z" />
    <glyph glyph-name="ordmasculine" unicode="&#xba;" horiz-adv-x="535" 
d="M93 214h350v92h-350v-92zM268 729q-89 0 -142 -56.5t-53 -149.5t53 -149t142 -56t141.5 55.5t52.5 149.5t-53 150t-141 56zM268 657q39 0 63 -25q23 -26 23 -71q0 -44 -23 -69.5t-63 -25.5q-38 0 -63 25q-24 24 -24 70t23.5 71t63.5 25z" />
    <glyph glyph-name="guillemotright" unicode="&#xbb;" horiz-adv-x="620" 
d="M87 418l122 -121l-136 -109l18 -148l259 208l-20 71l-236 234zM284 407l123 -120l-136 -109l17 -149l259 208l-20 72l-236 234z" />
    <glyph glyph-name="onequarter" unicode="&#xbc;" horiz-adv-x="987" 
d="M82 304h288v87h-93v330h-81l-123 -20v-90q3 0 11 1.5t12 2.5q17 4 53 10q11 1 26 5v-239h-93v-87zM352 -13h115l447 742h-116zM709 149h-86l86 118v-118zM521 143v-80h188v-84h103v84h61v86h-61v247h-104z" />
    <glyph glyph-name="onehalf" unicode="&#xbd;" horiz-adv-x="984" 
d="M82 304h288v87h-93v330h-81l-123 -20v-90q3 0 11 1.5t12 2.5q17 4 53 10q11 1 26 5v-239h-93v-87zM225 -13h115l447 742h-116zM911 67h-162l3 3v1q157 134 157 205q0 58 -45.5 92.5t-118.5 34.5q-55 0 -140 -30v-99q86 43 130 43q31 0 49.5 -13t18.5 -35q0 -35 -151 -168
l-50 -46v-76h309v88z" />
    <glyph glyph-name="threequarters" unicode="&#xbe;" horiz-adv-x="924" 
d="M382 612q0 54 -47 87q-44 30 -114 30q-56 0 -135 -20v-90q42 12 76 19q24 5 44 5q71 0 71 -36q0 -38 -69 -38h-61v-86h57q82 0 82 -49q0 -50 -86 -50q-58 0 -127 36v-99q80 -24 133 -24q90 0 138 35.5t48 101.5q0 63 -56 96q46 29 46 82zM203 -13h115l447 742h-116z
M687 149h-86l86 118v-118zM499 143v-80h188v-84h103v84h61v86h-61v247h-103z" />
    <glyph glyph-name="questiondown" unicode="&#xbf;" horiz-adv-x="546" 
d="M236 534v-74q0 -9 -0.5 -20.5t-0.5 -15.5q-3 -26 -14 -39v1q-7 -11 -28 -32l-40 -39q-41 -39 -61 -75q-19 -38 -19 -74q0 -80 56.5 -129.5t147.5 -49.5q97 0 196 59v159q-115 -80 -180 -80q-43 0 -67 21q-24 20 -24 52q0 35 44 76l42 40q37 41 47 62.5t10 68.5v89h-109z
M362 717h-129v-153h129v153z" />
    <glyph glyph-name="Agrave" unicode="&#xc0;" horiz-adv-x="835" 
d="M520 260h-204q22 66 26 79q3 9 12 35.5t14 40.5q8 24 24 74q3 10 12 36t13 40zM73 0h167l35 113h284l26 -113h177l-288 729h-113zM209 914l136 -157h114l-116 157h-134z" />
    <glyph glyph-name="Aacute" unicode="&#xc1;" horiz-adv-x="835" 
d="M520 260h-204q22 66 26 79q3 9 12 35.5t14 40.5q8 24 24 74q3 10 12 36t13 40zM73 0h167l35 113h284l26 -113h177l-288 729h-113zM350 757h114l136 157h-134z" />
    <glyph glyph-name="Acircumflex" unicode="&#xc2;" horiz-adv-x="835" 
d="M520 260h-204q22 66 26 79q3 9 12 35.5t14 40.5q8 24 24 74q3 10 12 36t13 40zM73 0h167l35 113h284l26 -113h177l-288 729h-113zM237 757h109q4 5 9.5 11t12.5 13.5t11 11.5q24 26 35 37l68 -73h109l-126 158h-103z" />
    <glyph glyph-name="Atilde" unicode="&#xc3;" horiz-adv-x="835" 
d="M520 260h-204q22 66 26 79q3 9 12 35.5t14 40.5q8 24 24 74q3 10 12 36t13 40zM73 0h167l35 113h284l26 -113h177l-288 729h-113zM380 809l27 -16q28 -13 41 -17t34 -4q47 0 75 37q27 37 29 99h-93v-21q0 -24 -15 -24q-10 0 -24 10l-26 13q-16 10 -40 18q-16 4 -35 4
q-48 0 -76 -36q-28 -37 -28 -100h93v21q0 25 17 25q5 0 21 -9z" />
    <glyph glyph-name="Adieresis" unicode="&#xc4;" horiz-adv-x="835" 
d="M520 260h-204q22 66 26 79q3 9 12 35.5t14 40.5q8 24 24 74q3 10 12 36t13 40zM73 0h167l35 113h284l26 -113h177l-288 729h-113zM437 772h128v129h-128v-129zM258 772h130v129h-130v-129z" />
    <glyph glyph-name="Aring" unicode="&#xc5;" horiz-adv-x="834" 
d="M469 772q0 -22 -15 -36.5t-37 -14.5t-36.5 14.5t-14.5 36.5t14.5 37t36.5 15q21 0 36.5 -16t15.5 -36zM517 292h-199q20 57 26 71q14 39 25 67q9 26 49 133zM73 0h139l63 178h286l63 -178h137l-251 659q53 44 53 113q0 61 -42 103q-42 43 -104 43q-61 0 -103 -42.5
t-42 -103.5q0 -70 54 -112z" />
    <glyph glyph-name="AE" unicode="&#xc6;" horiz-adv-x="1053" 
d="M378 729l-305 -729h221l-5 122h208v-122h483v158h-353v92h330v117h-330v246h344v116h-593zM497 619v-382h-168l140 382h28z" />
    <glyph glyph-name="Ccedilla" unicode="&#xc7;" horiz-adv-x="741" 
d="M668 516v151q-110 75 -238 75q-165 0 -261 -102t-96 -276t96 -276t261 -102q126 0 238 76v215q-121 -111 -233 -111q-117 0 -171 44.5t-55 153.5q0 129 58 196t168 67q112 0 233 -111zM439 37h-99q33 -45 44 -64q14 -22 14 -36q0 -24 -36 -24q-37 0 -89 26v-104
q55 -15 99 -15q127 0 127 100q0 46 -60 117z" />
    <glyph glyph-name="Egrave" unicode="&#xc8;" horiz-adv-x="629" 
d="M73 0h483v181h-352v149h329v115h-329v168h344v116h-475v-729zM77 914l136 -157h114l-117 157h-133z" />
    <glyph glyph-name="Eacute" unicode="&#xc9;" horiz-adv-x="629" 
d="M73 0h483v181h-352v149h329v115h-329v168h344v116h-475v-729zM164 757h114l136 157h-134z" />
    <glyph glyph-name="Ecircumflex" unicode="&#xca;" horiz-adv-x="629" 
d="M73 0h483v181h-352v149h329v115h-329v168h344v116h-475v-729zM115 757h109q15 18 33 36q5 6 10.5 12t12.5 13.5t11 11.5l68 -73h109l-125 158h-103z" />
    <glyph glyph-name="Edieresis" unicode="&#xcb;" horiz-adv-x="629" 
d="M73 0h483v181h-352v149h329v115h-329v168h344v116h-475v-729zM329 772h129v129h-129v-129zM150 772h130v129h-130v-129z" />
    <glyph glyph-name="Igrave" unicode="&#xcc;" horiz-adv-x="428" 
d="M205 0h150l-9 729h-126zM73 914l136 -157h114l-116 157h-134z" />
    <glyph glyph-name="Iacute" unicode="&#xcd;" horiz-adv-x="400" 
d="M73 0h150l-9 729h-126zM77 757h115l135 157h-133z" />
    <glyph glyph-name="Icircumflex" unicode="&#xce;" horiz-adv-x="500" 
d="M177 0h150l-10 729h-125zM73 757h109q4 5 9.5 11t12.5 13.5t11 11.5q24 26 35 37l68 -73h109l-126 158h-103z" />
    <glyph glyph-name="Idieresis" unicode="&#xcf;" horiz-adv-x="454" 
d="M131 0h150l-9 729h-126zM251 772h129v129h-129v-129zM73 772h130v129h-130v-129z" />
    <glyph glyph-name="Eth" unicode="&#xd0;" horiz-adv-x="858" 
d="M167 428h-94v-104h94v-324h211q204 0 307 88q100 94 100 277q0 184 -100 276q-102 88 -307 88h-211v-301zM298 615h94q135 0 196 -59.5t61 -190.5q0 -66 -14 -105.5t-48.5 -60.5t-77.5 -27.5t-117 -6.5h-94v159h156v104h-156v187z" />
    <glyph glyph-name="Ntilde" unicode="&#xd1;" horiz-adv-x="717" 
d="M73 0h157q-6 133 -12 256q-4 87 -12 259l273 -515h165v729h-123l-13 -509l-270 495h-146zM298 809l27 -16q29 -14 41 -17q13 -4 34 -4q47 0 75 37q27 37 29 99h-93v-21q0 -24 -15 -24q-10 0 -24 10l-26 13q-16 10 -40 18q-16 4 -35 4q-48 0 -76 -36q-28 -37 -28 -100h93
v21q0 25 17 25q5 0 21 -9z" />
    <glyph glyph-name="Ograve" unicode="&#xd2;" horiz-adv-x="824" 
d="M413 628q93 0 147.5 -70t54.5 -194q0 -92 -49.5 -127t-152.5 -35q-97 0 -153 33q-51 34 -51 129q0 123 56 196q57 68 148 68zM413 742q-155 0 -248 -104q-92 -104 -92 -274t92 -274q93 -104 248 -104q153 0 246 104q92 104 92 274t-92 274q-93 104 -246 104zM224 914
l136 -157h114l-116 157h-134z" />
    <glyph glyph-name="Oacute" unicode="&#xd3;" horiz-adv-x="824" 
d="M413 628q93 0 147.5 -70t54.5 -194q0 -92 -49.5 -127t-152.5 -35q-97 0 -153 33q-51 34 -51 129q0 123 56 196q57 68 148 68zM413 742q-155 0 -248 -104q-92 -104 -92 -274t92 -274q93 -104 248 -104q153 0 246 104q92 104 92 274t-92 274q-93 104 -246 104zM321 757h115
l135 157h-133z" />
    <glyph glyph-name="Ocircumflex" unicode="&#xd4;" horiz-adv-x="824" 
d="M413 628q93 0 147.5 -70t54.5 -194q0 -92 -49.5 -127t-152.5 -35q-97 0 -153 33q-51 34 -51 129q0 123 56 196q57 68 148 68zM413 742q-155 0 -248 -104q-92 -104 -92 -274t92 -274q93 -104 248 -104q153 0 246 104q92 104 92 274t-92 274q-93 104 -246 104zM228 757h109
q15 18 33 36q5 6 10.5 12t12.5 13.5t11 11.5l69 -73h109l-126 158h-103z" />
    <glyph glyph-name="Otilde" unicode="&#xd5;" horiz-adv-x="824" 
d="M413 628q93 0 147.5 -70t54.5 -194q0 -92 -49.5 -127t-152.5 -35q-97 0 -153 33q-51 34 -51 129q0 123 56 196q57 68 148 68zM413 742q-155 0 -248 -104q-92 -104 -92 -274t92 -274q93 -104 248 -104q153 0 246 104q92 104 92 274t-92 274q-93 104 -246 104zM371 809
l26 -16q33 -14 41 -17q15 -4 35 -4q46 0 74 37q29 38 30 99h-94v-21q0 -24 -14 -24q-10 0 -24 10l-27 13h1q-16 10 -40 18q-16 4 -35 4q-48 0 -76 -36q-28 -37 -28 -100h93v21q0 25 17 25q4 0 21 -9z" />
    <glyph glyph-name="Odieresis" unicode="&#xd6;" horiz-adv-x="824" 
d="M413 628q93 0 147.5 -70t54.5 -194q0 -92 -49.5 -127t-152.5 -35q-97 0 -153 33q-51 34 -51 129q0 123 56 196q57 68 148 68zM413 742q-155 0 -248 -104q-92 -104 -92 -274t92 -274q93 -104 248 -104q153 0 246 104q92 104 92 274t-92 274q-93 104 -246 104zM466 772h129
v129h-129v-129zM288 772h129v129h-129v-129z" />
    <glyph glyph-name="multiply" unicode="&#xd7;" horiz-adv-x="701" 
d="M525 600l-177 -177l-164 164l-102 -104l163 -164l-172 -172l102 -103l173 173l173 -173l102 103l-172 172l177 178z" />
    <glyph glyph-name="Oslash" unicode="&#xd8;" horiz-adv-x="851" 
d="M330 178l277 323q9 -17 13 -35q8 -27 8 -72q-17 -125 -61 -170q-42 -42 -139 -56q-51 0 -69 1q-17 2 -29 9zM549 587l-290 -337q-14 17 -32 50q-19 38 -19 82q0 121 56 196q56 67 147 69q56 -5 89 -19q23 -9 49 -41zM73 25l76 -65l76 89q84 -63 201 -63q153 0 246 104
q92 103 92 274q0 145 -68 243l81 95l-75 65l-76 -89q-84 64 -200 64q-154 0 -246.5 -103.5t-92.5 -274.5q0 -144 67 -243z" />
    <glyph glyph-name="Ugrave" unicode="&#xd9;" horiz-adv-x="723" 
d="M73 729l5 -451q3 -292 284 -292q280 0 283 292l5 451h-131l-5 -374q-2 -106 -36 -149v1q-34 -42 -116 -42t-116 42v-1q-35 44 -37 149l-4 374h-132zM170 914l137 -157h113l-116 157h-134z" />
    <glyph glyph-name="Uacute" unicode="&#xda;" horiz-adv-x="713" 
d="M73 729v-451q0 -144 72 -218t212 -74q283 0 283 292v451h-131v-374q0 -104 -36 -149v1q-35 -42 -116 -42t-116 42v-1q-36 45 -36 149v374h-132zM282 757h114l136 157h-134z" />
    <glyph glyph-name="Ucircumflex" unicode="&#xdb;" horiz-adv-x="713" 
d="M73 729v-451q0 -144 72 -218t212 -74q283 0 283 292v451h-131v-374q0 -104 -36 -149v1q-35 -42 -116 -42t-116 42v-1q-36 45 -36 149v374h-132zM179 757h109q4 5 9.5 11t12.5 13.5t11 11.5q12 13 34 37l69 -73h109l-126 158h-103z" />
    <glyph glyph-name="Udieresis" unicode="&#xdc;" horiz-adv-x="713" 
d="M73 729v-451q0 -144 72 -218t212 -74q283 0 283 292v451h-131v-374q0 -104 -36 -149v1q-35 -42 -116 -42t-116 42v-1q-36 45 -36 149v374h-132zM393 772h129v129h-129v-129zM215 772h129v129h-129v-129z" />
    <glyph glyph-name="Yacute" unicode="&#xdd;" horiz-adv-x="791" 
d="M311 250v-250h164v250l242 479h-142l-179 -334l-181 334h-142zM311 757h114l136 157h-134z" />
    <glyph glyph-name="Thorn" unicode="&#xde;" horiz-adv-x="630" 
d="M73 0h131v157h99q254 0 254 225q0 224 -254 224h-99v123h-131v-729zM204 493h99q57 0 87.5 -29t30.5 -82t-30.5 -82t-87.5 -29h-99v222z" />
    <glyph glyph-name="germandbls" unicode="&#xdf;" horiz-adv-x="672" 
d="M73 0h165q-4 85 -12 267q-8 180 -12 266q9 70 34.5 97.5t77.5 27.5q50 0 72 -14t49 -70q-142 -27 -142 -164q0 -47 23 -82q26 -40 44 -61l40 -27q44 -27 54 -43q10 -13 10 -28q0 -19 -22 -29q-21 -10 -67 -10q-56 0 -148 35v-151q86 -27 142 -27q106 0 162 46t56 134
q0 53 -25.5 88.5t-103.5 85.5l-26 17h1q-48 30 -48 62q0 35 38 56.5t108 25.5q-1 121 -56 182.5t-159 61.5q-105 0 -166 -56q-60 -56 -60 -153z" />
    <glyph glyph-name="agrave" unicode="&#xe0;" horiz-adv-x="614" 
d="M374 261v-1q0 -70 -20 -89.5t-79 -19.5q-41 0 -71 8q-18 6 -24 31q2 38 24 53q25 18 112 18h58zM541 0v310q0 249 -238 249q-84 0 -192 -41v-111q102 54 182 54q58 -4 91 -31t36 -71h-99q-248 0 -248 -192q0 -82 52 -131t138 -49q97 0 157 55v-42h121zM148 971l115 -207
h171l-156 207h-130z" />
    <glyph glyph-name="aacute" unicode="&#xe1;" horiz-adv-x="622" 
d="M150 662h122l197 227h-149zM374 261v-1q0 -70 -20 -89.5t-79 -19.5q-41 0 -71 8q-18 6 -24 31q2 38 24 53q25 18 112 18h58zM541 0v310q0 249 -238 249q-84 0 -192 -41v-111q102 54 182 54q58 -4 91 -31t36 -71h-99q-248 0 -248 -192q0 -82 52 -131t138 -49q97 0 157 55
v-42h121z" />
    <glyph glyph-name="acircumflex" unicode="&#xe2;" horiz-adv-x="614" 
d="M132 615h107q11 15 35 49q7 10 19.5 27t17.5 23l73 -99h107l-136 208h-88zM374 261v-1q0 -70 -20 -89.5t-79 -19.5q-41 0 -71 8q-18 6 -24 31q2 38 24 53q25 18 112 18h58zM541 0v310q0 249 -238 249q-84 0 -192 -41v-111q102 54 182 54q58 -4 91 -31t36 -71h-99
q-248 0 -248 -192q0 -82 52 -131t138 -49q97 0 157 55v-42h121z" />
    <glyph glyph-name="atilde" unicode="&#xe3;" horiz-adv-x="614" 
d="M270 654l26 -25q33 -32 76 -32q50 0 77.5 42.5t29.5 122.5h-93q-1 -34 -5 -54q-3 -17 -12 -17q-5 0 -19 13h1l-27 25q-39 33 -75 33q-50 0 -78 -43t-30 -122h94q0 31 4 53q4 17 13 17q5 0 18 -13zM374 261v-1q0 -70 -20 -89.5t-79 -19.5q-41 0 -71 8q-18 6 -24 31
q2 38 24 53q25 18 112 18h58zM541 0v310q0 249 -238 249q-84 0 -192 -41v-111q102 54 182 54q58 -4 91 -31t36 -71h-99q-248 0 -248 -192q0 -82 52 -131t138 -49q97 0 157 55v-42h121z" />
    <glyph glyph-name="adieresis" unicode="&#xe4;" horiz-adv-x="614" 
d="M374 261v-1q0 -70 -20 -89.5t-79 -19.5q-41 0 -71 8q-18 6 -24 31q2 38 24 53q25 18 112 18h58zM541 0v310q0 249 -238 249q-84 0 -192 -41v-111q102 54 182 54q58 -4 91 -31t36 -71h-99q-248 0 -248 -192q0 -82 52 -131t138 -49q97 0 157 55v-42h121zM352 700h136v135
h-136v-135zM161 700h136v135h-136v-135z" />
    <glyph glyph-name="aring" unicode="&#xe5;" horiz-adv-x="614" 
d="M356 713q0 -22 -14.5 -36.5t-36.5 -14.5q-21 0 -37 14q-14 16 -14 37q0 22 14.5 36t36.5 14t36.5 -14t14.5 -36zM448 713q0 59 -42 101t-101 42t-101 -42t-42 -101q0 -60 42 -102t101 -42t101 42t42 102zM374 261v-1q0 -70 -20 -89.5t-79 -19.5q-41 0 -71 8q-18 6 -24 31
q2 38 24 53q25 18 112 18h58zM541 0v310q0 249 -238 249q-84 0 -192 -41v-111q102 54 182 54q58 -4 91 -31t36 -71h-99q-248 0 -248 -192q0 -82 52 -131t138 -49q97 0 157 55v-42h121z" />
    <glyph glyph-name="ae" unicode="&#xe6;" horiz-adv-x="994" 
d="M799 365l-257 -1q9 38 40 70q36 42 99 42q48 0 79.5 -35.5t38.5 -75.5zM303 559q-84 0 -192 -41v-102q99 54 183 54q62 0 93 -36q28 -28 32 -48h-98q-125 0 -186.5 -50t-61.5 -169q0 -85 53 -132.5t147 -47.5q126 0 198 95q71 -95 224 -95q49 0 102 17q5 2 23.5 9
t29.5 11q14 6 51 21v163q-110 -60 -202 -60q-70 0 -109.5 33.5t-50.5 81.5h382v59q0 97 -67 167t-174 70q-115 0 -190 -73q-61 73 -187 73zM439 284l-18 18v-15v-3h18zM384 173q-35 -34 -99 -34q-42 0 -66.5 15.5t-24.5 43.5q0 55 29 69q37 17 132 17h66q-1 -77 -37 -111z
" />
    <glyph glyph-name="ccedilla" unicode="&#xe7;" horiz-adv-x="587" 
d="M514 405v116q-87 38 -166 38q-127 0 -201 -77t-74 -209q0 -129 73.5 -207.5t196.5 -78.5q85 0 171 39l-3 175q-55 -32 -90 -34h-72q-77 7 -110 28q-30 22 -36 80q1 86 39 133.5t110 47.5q69 0 162 -51zM389 37h-99q26 -35 44 -64q14 -25 14 -36q0 -24 -36 -24
q-38 0 -89 26v-104q55 -15 98 -15q127 0 127 100q0 48 -59 117z" />
    <glyph glyph-name="egrave" unicode="&#xe8;" 
d="M578 276v52q-9 115 -68 171h1q-59 56 -169 60q-122 0 -193 -78t-76 -212q0 -129 77 -204q78 -74 205 -78q103 0 208 45l-2 158q-69 -36 -109 -39q-41 -4 -92 -4q-80 7 -122 32q-34 24 -40 97h380zM464 386h-256q6 27 35 56v-1q36 38 99 38q54 0 86 -38q26 -32 36 -55z
M143 783l114 -207h172l-156 207h-130z" />
    <glyph glyph-name="eacute" unicode="&#xe9;" 
d="M578 276v52q-9 115 -68 171h1q-59 56 -169 60q-122 0 -193 -78t-76 -212q0 -129 77 -204q78 -74 205 -78q103 0 208 45l-2 158q-69 -36 -109 -39q-41 -4 -92 -4q-80 7 -122 32q-34 24 -40 97h380zM464 386h-256q6 27 35 56v-1q36 38 99 38q54 0 86 -38q26 -32 36 -55z
M221 556h122l197 227h-150z" />
    <glyph glyph-name="ecircumflex" unicode="&#xea;" 
d="M578 276v52q-9 115 -68 171h1q-59 56 -169 60q-122 0 -193 -78t-76 -212q0 -129 77 -204q78 -74 205 -78q103 0 208 45l-2 158q-69 -36 -109 -39q-41 -4 -92 -4q-80 7 -122 32q-34 24 -40 97h380zM464 386h-256q6 27 35 56v-1q36 38 99 38q54 0 86 -38q26 -32 36 -55z
M144 575h106q12 15 36 49q8 11 37 50l73 -99h106l-135 208h-88z" />
    <glyph glyph-name="edieresis" unicode="&#xeb;" 
d="M578 276v52q-9 115 -68 171h1q-59 56 -169 60q-122 0 -193 -78t-76 -212q0 -129 77 -204q78 -74 205 -78q103 0 208 45l-2 158q-69 -36 -109 -39q-41 -4 -92 -4q-80 7 -122 32q-34 24 -40 97h380zM464 386h-256q6 27 35 56v-1q36 38 99 38q54 0 86 -38q26 -32 36 -55z
M381 615h136v135h-136v-135zM190 615h136v135h-136v-135z" />
    <glyph glyph-name="igrave" unicode="&#xec;" horiz-adv-x="433" 
d="M216 0h120v547h-120v-547zM73 783l115 -207h171l-156 207h-130z" />
    <glyph glyph-name="iacute" unicode="&#xed;" horiz-adv-x="465" 
d="M84 0h121v547h-121v-547zM73 556h122l197 227h-149z" />
    <glyph glyph-name="icircumflex" unicode="&#xee;" horiz-adv-x="505" 
d="M210 0h121v547h-121v-547zM73 575h107q11 15 35 49q7 10 19.5 27t17.5 23l73 -99h107l-136 208h-88z" />
    <glyph glyph-name="idieresis" unicode="&#xef;" horiz-adv-x="473" 
d="M184 0h120v547h-120v-547zM264 615h136v135h-136v-135zM73 615h136v135h-136v-135z" />
    <glyph glyph-name="eth" unicode="&#xf0;" 
d="M416 418l-8 6q0 -2 2 -2v-1q1 -1 1 -2zM453 263q0 -79 -34.5 -124t-92.5 -45q-59 0 -93.5 44.5t-34.5 124.5t38 126h-1q37 43 105 43q32 0 71 -13q42 -55 42 -156zM408 614l126 42l-27 79l-157 -53l-56 64h-152q1 -2 19 -22q14 -16 24 -26q8 -10 24 -28q2 -2 23 -26
l-119 -40l27 -80q10 3 22 7t28 9.5t25 8.5q15 6 43.5 15t32.5 11l34 -38h-3h-3h1h-2q-109 0 -177 -76.5t-68 -197.5q0 -124 70 -200t183 -76t182.5 76t69.5 200q0 82 -27 151q-26 66 -87 136z" />
    <glyph glyph-name="ntilde" unicode="&#xf1;" horiz-adv-x="644" 
d="M570 0l-14 327q-6 113 -56.5 172.5t-145.5 59.5q-56 0 -103 -25q-38 -23 -43 -26v43h-120l-15 -551h154l-15 312q0 143 133 143q46 0 66 -31t20 -95l-19 -329h158zM242 654l26 -25q33 -32 76 -32q50 0 77.5 42.5t29.5 122.5h-93q-1 -34 -5 -54q-3 -17 -12 -17
q-5 0 -19 13h1l-27 25q-37 33 -75 33q-50 0 -78 -43t-30 -122h94q0 31 4 53q4 17 13 17q5 0 18 -13z" />
    <glyph glyph-name="ograve" unicode="&#xf2;" horiz-adv-x="656" 
d="M331 461q58 0 92.5 -46t34.5 -127q0 -77 -31 -99q-37 -21 -96 -21q-70 0 -99 23t-29 97q0 81 34.5 127t93.5 46zM331 559q-120 0 -186 -77q-67 -76 -67 -209t67 -209q66 -77 186 -77q117 0 184.5 77t67.5 209t-67.5 209t-184.5 77zM73 783l115 -207h171l-156 207h-130z
" />
    <glyph glyph-name="oacute" unicode="&#xf3;" 
d="M326 461q58 0 92.5 -46t34.5 -127q0 -77 -31 -99q-37 -21 -96 -21q-70 0 -99 23t-29 97q0 81 34.5 127t93.5 46zM326 559q-120 0 -186 -77q-67 -76 -67 -209t67 -209q66 -77 186 -77q117 0 184.5 77t67.5 209t-67.5 209t-184.5 77zM249 556h122l196 227h-149z" />
    <glyph glyph-name="ocircumflex" unicode="&#xf4;" 
d="M326 461q58 0 92.5 -46t34.5 -127q0 -77 -31 -99q-37 -21 -96 -21q-70 0 -99 23t-29 97q0 81 34.5 127t93.5 46zM326 559q-120 0 -186 -77q-67 -76 -67 -209t67 -209q66 -77 186 -77q117 0 184.5 77t67.5 209t-67.5 209t-184.5 77zM123 575h106q12 15 36 49q8 11 37 50
l73 -99h106l-135 208h-88z" />
    <glyph glyph-name="otilde" unicode="&#xf5;" 
d="M326 461q58 0 92.5 -46t34.5 -127q0 -77 -31 -99q-37 -21 -96 -21q-70 0 -99 23t-29 97q0 81 34.5 127t93.5 46zM326 559q-120 0 -186 -77q-67 -76 -67 -209t67 -209q66 -77 186 -77q117 0 184.5 77t67.5 209t-67.5 209t-184.5 77zM278 654l26 -25q35 -32 76 -32
q50 0 77.5 42.5t29.5 122.5h-93q0 -36 -5 -54q-3 -17 -12 -17q-5 0 -19 13h1l-26 25q-39 33 -76 33q-50 0 -78 -43t-30 -122h94q0 35 5 53q3 17 12 17q5 0 18 -13z" />
    <glyph glyph-name="odieresis" unicode="&#xf6;" 
d="M326 461q58 0 92.5 -46t34.5 -127q0 -77 -31 -99q-37 -21 -96 -21q-70 0 -99 23t-29 97q0 81 34.5 127t93.5 46zM326 559q-120 0 -186 -77q-67 -76 -67 -209t67 -209q66 -77 186 -77q117 0 184.5 77t67.5 209t-67.5 209t-184.5 77zM389 615h136v135h-136v-135zM198 615
h136v135h-136v-135z" />
    <glyph glyph-name="divide" unicode="&#xf7;" horiz-adv-x="790" 
d="M310 405h171v172h-171v-172zM310 23h171v171h-171v-171zM73 231h644v137h-644v-137z" />
    <glyph glyph-name="oslash" unicode="&#xf8;" horiz-adv-x="702" 
d="M281 116l191 230q7 -24 7 -73q0 -84 -34.5 -131.5t-92.5 -47.5q-42 0 -71 22zM421 430l-191 -230q-6 27 -6 67q0 89 35 139q35 46 93 46q40 0 69 -22zM73 8l72 -58q8 10 15 17q5 7 16.5 21t16.5 20q1 1 16 19q58 -40 143 -40q117 0 184.5 77t67.5 209q0 105 -44 179
l69 85l-71 60q-6 -9 -15 -18q-12 -14 -16 -20q-24 -28 -33 -40q-61 40 -142 40q-118 0 -185.5 -77t-67.5 -209q0 -110 45 -179z" />
    <glyph glyph-name="ugrave" unicode="&#xf9;" horiz-adv-x="615" 
d="M73 547v-327q0 -115 50 -174t148 -59q86 0 142 55l-2 -42h121l10 547h-134l-5 -234q-7 -72 -37 -107q-31 -37 -92 -37q-46 0 -68 31.5t-26 96.5v250h-107zM76 783l114 -207h172l-156 207h-130z" />
    <glyph glyph-name="uacute" unicode="&#xfa;" horiz-adv-x="615" 
d="M73 547v-327q0 -115 50 -174t148 -59q86 0 142 55l-2 -42h121l10 547h-134l-5 -234q-7 -72 -37 -107q-31 -37 -92 -37q-46 0 -68 31.5t-26 96.5v250h-107zM207 556h122l197 227h-150z" />
    <glyph glyph-name="ucircumflex" unicode="&#xfb;" horiz-adv-x="615" 
d="M73 547v-327q0 -115 50 -174t148 -59q86 0 142 55l-2 -42h121l10 547h-134l-5 -234q-7 -72 -37 -107q-31 -37 -92 -37q-46 0 -68 31.5t-26 96.5v250h-107zM130 575h107q11 15 35 49q3 3 16.5 22t21.5 28l72 -99h107l-135 208h-88z" />
    <glyph glyph-name="udieresis" unicode="&#xfc;" horiz-adv-x="615" 
d="M73 547v-327q0 -115 50 -174t148 -59q86 0 142 55l-2 -42h121l10 547h-134l-5 -234q-7 -72 -37 -107q-31 -37 -92 -37q-46 0 -68 31.5t-26 96.5v250h-107zM348 615h135v135h-135v-135zM157 615h135v135h-135v-135z" />
    <glyph glyph-name="yacute" unicode="&#xfd;" horiz-adv-x="698" 
d="M625 547h-127l-129 -277l-169 277h-127q9 -20 28 -59.5t28 -59.5q19 -41 57.5 -124t57.5 -124q9 -20 28 -59.5t28 -59.5q-3 -5 -5.5 -10.5t-5.5 -12t-5 -9.5q-10 -17 -17 -32q-17 -23 -38 -41q-15 -12 -41 -12h-77v-147h94q67 0 109 33.5t86 133.5zM274 556h122l197 227
h-150z" />
    <glyph glyph-name="thorn" unicode="&#xfe;" horiz-adv-x="640" 
d="M194 -194v235q53 -54 145 -54q101 0 164 79.5t63 206.5t-63 206.5t-164 79.5q-91 0 -145 -54v241h-121v-940h121zM443 273q0 -86 -35 -135q-32 -45 -90 -45q-57 0 -90 46l1 -1q-35 49 -35 135q0 85 35 134h-1q34 46 90 46q58 0 91.5 -47.5t33.5 -132.5z" />
    <glyph glyph-name="ydieresis" unicode="&#xff;" horiz-adv-x="698" 
d="M625 547h-127l-129 -277l-169 277h-127q9 -20 28 -59.5t28 -59.5q19 -41 57.5 -124t57.5 -124q9 -20 28 -59.5t28 -59.5q-3 -5 -5.5 -10.5t-5.5 -12t-5 -9.5q-10 -17 -17 -32q-17 -23 -38 -41q-15 -12 -41 -12h-77v-147h94q67 0 109 33.5t86 133.5zM361 615h136v135h-136
v-135zM170 615h136v135h-136v-135z" />
    <glyph glyph-name="Amacron" unicode="&#x100;" horiz-adv-x="835" 
d="M520 260h-204q22 66 26 79q3 9 12 35.5t14 40.5q8 24 24 74q3 10 12 36t13 40zM73 0h167l35 113h284l26 -113h177l-288 729h-113zM262 761h309v104h-309v-104z" />
    <glyph glyph-name="amacron" unicode="&#x101;" horiz-adv-x="614" 
d="M374 261v-1q0 -70 -20 -89.5t-79 -19.5q-41 0 -71 8q-18 6 -24 31q2 38 24 53q25 18 112 18h58zM541 0v310q0 249 -238 249q-84 0 -192 -41v-111q102 54 182 54q58 -4 91 -31t36 -71h-99q-248 0 -248 -192q0 -82 52 -131t138 -49q97 0 157 55v-42h121zM170 579h309v104
h-309v-104z" />
    <glyph glyph-name="Abreve" unicode="&#x102;" horiz-adv-x="835" 
d="M520 260h-204q22 66 26 79q3 9 12 35.5t14 40.5q8 24 24 74q3 10 12 36t13 40zM73 0h167l35 113h284l26 -113h177l-288 729h-113zM345 927h-90q12 -167 162 -167q151 0 162 167h-88q-12 -68 -74 -68q-63 0 -72 68z" />
    <glyph glyph-name="abreve" unicode="&#x103;" horiz-adv-x="614" 
d="M374 261v-1q0 -70 -20 -89.5t-79 -19.5q-41 0 -71 8q-18 6 -24 31q2 38 24 53q25 18 112 18h58zM541 0v310q0 249 -238 249q-84 0 -192 -41v-111q102 54 182 54q58 -4 91 -31t36 -71h-99q-248 0 -248 -192q0 -82 52 -131t138 -49q97 0 157 55v-42h121zM253 745h-90
q12 -167 162 -167q151 0 162 167h-88q-12 -68 -74 -68q-63 0 -72 68z" />
    <glyph glyph-name="Aogonek" unicode="&#x104;" horiz-adv-x="835" 
d="M520 260h-204q22 66 26 79q3 9 12 35.5t14 40.5q8 24 24 74q3 10 12 36t13 40zM73 0h167l35 113h284l26 -113h177l-288 729h-113zM723 0h-99q-59 -69 -59 -117q0 -52 30.5 -76t95.5 -24q24 0 81 13v104q-51 -24 -75 -24q-32 0 -32 23q0 11 14 36q13 23 44 65z" />
    <glyph glyph-name="aogonek" unicode="&#x105;" horiz-adv-x="614" 
d="M374 261v-1q0 -70 -20 -89.5t-79 -19.5q-41 0 -71 8q-18 6 -24 31q2 38 24 53q25 18 112 18h58zM541 0v310q0 249 -238 249q-84 0 -192 -41v-111q102 54 182 54q58 -4 91 -31t36 -71h-99q-248 0 -248 -192q0 -82 52 -131t138 -49q97 0 157 55v-42h121zM532 0h-99
q-59 -69 -59 -117q0 -52 30.5 -76t95.5 -24q24 0 81 13v104q-51 -24 -75 -24q-32 0 -32 23q0 11 14 36q13 23 44 65z" />
    <glyph glyph-name="Cacute" unicode="&#x106;" horiz-adv-x="741" 
d="M668 516v151q-110 75 -238 75q-165 0 -261 -102t-96 -276t96 -276t261 -102q126 0 238 76v215q-121 -111 -233 -111q-117 0 -171 44.5t-55 153.5q0 129 58 196t168 67q112 0 233 -111zM358 757h115l135 157h-133z" />
    <glyph glyph-name="cacute" unicode="&#x107;" horiz-adv-x="617" 
d="M514 405v116q-87 38 -166 38q-127 0 -201 -77t-74 -209q0 -129 73.5 -207.5t196.5 -78.5q85 0 171 39l-3 175q-55 -32 -90 -34h-72q-77 7 -110 28q-30 22 -36 80q1 86 39 133.5t110 47.5q69 0 162 -51zM225 556h122l197 227h-149z" />
    <glyph glyph-name="Cdotaccent" unicode="&#x10a;" horiz-adv-x="741" 
d="M668 540v151q-72 35 -127 44.5t-126 6.5q-165 -7 -253.5 -105.5t-88.5 -272.5t96 -276t261 -102q126 0 238 76v215q-121 -111 -233 -111q-117 0 -171 44.5t-55 153.5q0 131 51 197t160 66q64 0 117 -17t131 -70zM329 796h130v130h-130v-130z" />
    <glyph glyph-name="cdotaccent" unicode="&#x10b;" horiz-adv-x="587" 
d="M514 405v116q-87 38 -166 38q-127 0 -201 -77t-74 -209q0 -129 73.5 -207.5t196.5 -78.5q85 0 171 39l-3 175q-55 -32 -90 -34h-72q-77 7 -110 28q-30 22 -36 80q1 86 39 133.5t110 47.5q69 0 162 -51zM258 614h130v130h-130v-130z" />
    <glyph glyph-name="Ccaron" unicode="&#x10c;" horiz-adv-x="741" 
d="M668 516v151q-110 75 -238 75q-165 0 -261 -102t-96 -276t96 -276t261 -102q126 0 238 76v215q-121 -111 -233 -111q-117 0 -171 44.5t-55 153.5q0 129 58 196t168 67q112 0 233 -111zM408 757l126 158h-109q-1 -2 -13.5 -15t-19.5 -21q-24 -26 -35 -37l-68 73h-109
l125 -158h103z" />
    <glyph glyph-name="ccaron" unicode="&#x10d;" horiz-adv-x="587" 
d="M514 405v116q-87 38 -166 38q-127 0 -201 -77t-74 -209q0 -129 73.5 -207.5t196.5 -78.5q85 0 171 39l-3 175q-55 -32 -90 -34h-72q-77 7 -110 28q-30 22 -36 80q1 86 39 133.5t110 47.5q69 0 162 -51zM321 575l136 208h-107q-51 -68 -73 -99l-72 99h-107l135 -208h88z
" />
    <glyph glyph-name="Dcaron" unicode="&#x10e;" horiz-adv-x="765" 
d="M208 615h95q133 0 195 -59q63 -59 63 -180q-21 -92 -71 -130q-52 -35 -187 -35h-95v404zM73 0h211q207 0 307 88q101 90 101 277q0 184 -100 276q-103 88 -308 88h-211v-729zM389 757l136 208h-107q-51 -68 -73 -99l-72 99h-107l135 -208h88z" />
    <glyph glyph-name="dcaron" unicode="&#x10f;" horiz-adv-x="648" 
d="M455 746l-8 -242q-55 55 -147 55q-102 0 -164.5 -79.5t-62.5 -206.5t62.5 -206.5t164.5 -79.5q94 0 145 54v-41h121l9 746h-120zM203 417v-1q33 45 90 45q54 0 83 -46q28 -44 31 -127q-2 -70 -27 -91t-89 -21q-59 0 -86 24q-28 25 -37 85q1 83 35 132zM713 770l-51 -197
h107l97 190v107h-153v-100z" />
    <glyph glyph-name="Dcroat" unicode="&#x110;" horiz-adv-x="765" 
d="M208 615h95q133 0 195 -59q63 -59 63 -180q-21 -92 -71 -130q-52 -35 -187 -35h-95v404zM73 0h211q207 0 307 88q101 90 101 277q0 184 -100 276q-103 88 -308 88h-211v-729zM190 761h309v104h-309v-104z" />
    <glyph glyph-name="dcroat" unicode="&#x111;" horiz-adv-x="709" 
d="M446 585v-80q-54 54 -146 54q-101 0 -164 -79.5t-63 -206.5t63 -206.5t164 -79.5q93 0 146 54v-41h120v585h70v94h-70v67h-120v-67h-149v-94h149zM196 292q0 75 34 120q35 41 91 41q58 0 91.5 -42t33.5 -119q0 -75 -33.5 -117t-91.5 -42q-57 0 -91 40q-34 45 -34 119z
" />
    <glyph glyph-name="Emacron" unicode="&#x112;" horiz-adv-x="629" 
d="M73 0h483v181h-352v149h329v115h-329v168h344v116h-475v-729zM151 761h309v104h-309v-104z" />
    <glyph glyph-name="emacron" unicode="&#x113;" 
d="M578 276v52q-9 115 -68 171h1q-59 56 -169 60q-122 0 -193 -78t-76 -212q0 -129 77 -204q78 -74 205 -78q103 0 208 45l-2 158q-69 -36 -109 -39q-41 -4 -92 -4q-80 7 -122 32q-34 24 -40 97h380zM464 386h-256q6 27 35 56v-1q36 38 99 38q54 0 86 -38q26 -32 36 -55z
M181 579h309v104h-309v-104z" />
    <glyph glyph-name="Edotaccent" unicode="&#x116;" horiz-adv-x="629" 
d="M73 0h483v181h-352v149h329v115h-329v168h344v116h-475v-729zM241 796h130v130h-130v-130z" />
    <glyph glyph-name="edotaccent" unicode="&#x117;" 
d="M578 276v52q-9 115 -68 171h1q-59 56 -169 60q-122 0 -193 -78t-76 -212q0 -129 77 -204q78 -74 205 -78q103 0 208 45l-2 158q-69 -36 -109 -39q-41 -4 -92 -4q-80 7 -122 32q-34 24 -40 97h380zM464 386h-256q6 27 35 56v-1q36 38 99 38q54 0 86 -38q26 -32 36 -55z
M271 614h130v130h-130v-130z" />
    <glyph glyph-name="Eogonek" unicode="&#x118;" horiz-adv-x="629" 
d="M73 0h483v181h-352v149h329v115h-329v168h344v116h-475v-729zM358 0h-99q-59 -69 -59 -117q0 -52 30.5 -76t95.5 -24q24 0 81 13v104q-51 -24 -75 -24q-32 0 -32 23q0 11 14 36q13 23 44 65z" />
    <glyph glyph-name="eogonek" unicode="&#x119;" 
d="M578 276v52q-9 115 -68 171h1q-59 56 -169 60q-122 0 -193 -78t-76 -212q0 -129 77 -204q78 -74 205 -78q103 0 208 45l-2 158q-69 -36 -109 -39q-41 -4 -92 -4q-80 7 -122 32q-34 24 -40 97h380zM464 386h-256q6 27 35 56v-1q36 38 99 38q54 0 86 -38q26 -32 36 -55z
M406 0h-99q-59 -69 -59 -117q0 -52 30.5 -76t95.5 -24q24 0 81 13v104q-51 -24 -75 -24q-32 0 -32 23q0 11 14 36q13 23 44 65z" />
    <glyph glyph-name="Ecaron" unicode="&#x11a;" horiz-adv-x="629" 
d="M73 0h483v181h-352v149h329v115h-329v168h344v116h-475v-729zM350 757l136 208h-107q-51 -68 -73 -99l-72 99h-107l135 -208h88z" />
    <glyph glyph-name="ecaron" unicode="&#x11b;" 
d="M578 276v52q-9 115 -68 171h1q-59 56 -169 60q-122 0 -193 -78t-76 -212q0 -129 77 -204q78 -74 205 -78q103 0 208 45l-2 158q-69 -36 -109 -39q-41 -4 -92 -4q-80 7 -122 32q-34 24 -40 97h380zM464 386h-256q6 27 35 56v-1q36 38 99 38q54 0 86 -38q26 -32 36 -55z
M380 575l136 208h-107q-51 -68 -73 -99l-72 99h-107l135 -208h88z" />
    <glyph glyph-name="Gbreve" unicode="&#x11e;" horiz-adv-x="788" 
d="M571 248v-48q-13 -11 -42 -17h1q-33 -8 -85 -8q-122 0 -178 40h1q-53 40 -59 159q0 263 236 263q122 0 252 -110v140q-119 75 -260 75q-170 0 -267 -100.5t-97 -277.5q0 -176 96 -278q98 -100 268 -100q155 0 278 87v312h-292v-137h148zM297 915h-88q12 -147 163 -147
q150 0 162 147h-88q-14 -51 -74 -51q-63 0 -75 51z" />
    <glyph glyph-name="gbreve" unicode="&#x11f;" horiz-adv-x="648" 
d="M409 284q0 -73 -29.5 -92.5t-101.5 -19.5q-61 0 -88 16q-23 19 -30 98q0 39 8 74q25 98 116 98q59 0 92 -45q33 -47 33 -129zM575 547h-119q0 -6 -2 -22q0 -4 -1 -12.5t-2 -12.5q-53 59 -151 59q-102 0 -164.5 -77.5t-62.5 -202.5q0 -124 62.5 -201.5t164.5 -77.5
q61 0 106 24q6 3 14.5 9t11.5 8q-17 -33 -35 -54q-34 -39 -107 -39t-165 51v-193q91 -32 178 -32q128 0 191 70q61 65 67 237zM222 769h-90q12 -167 162 -167q151 0 163 167h-89q-12 -68 -74 -68q-61 0 -72 68z" />
    <glyph glyph-name="Gdotaccent" unicode="&#x120;" horiz-adv-x="788" 
d="M571 257v-57q-13 -11 -42 -17h1q-33 -8 -85 -8q-122 0 -178 40h1q-53 40 -59 159q0 263 236 263q123 0 247 -105v140q-111 70 -255 70q-170 0 -267 -100.5t-97 -277.5q0 -176 96 -278q98 -100 268 -100q155 0 278 87v312h-292v-128h148zM348 796h130v130h-130v-130z" />
    <glyph glyph-name="gdotaccent" unicode="&#x121;" horiz-adv-x="648" 
d="M409 284q0 -73 -29.5 -92.5t-101.5 -19.5q-61 0 -88 16q-23 19 -30 98q0 39 8 74q25 98 116 98q59 0 92 -45q33 -47 33 -129zM575 547h-119q0 -6 -2 -22q0 -4 -1 -12.5t-2 -12.5q-53 59 -151 59q-102 0 -164.5 -77.5t-62.5 -202.5q0 -124 62.5 -201.5t164.5 -77.5
q61 0 106 24q6 3 14.5 9t11.5 8q-17 -33 -35 -54q-34 -39 -107 -39t-165 51v-193q91 -32 178 -32q128 0 191 70q61 65 67 237zM272 614h130v130h-130v-130z" />
    <glyph glyph-name="Gcommaaccent" unicode="&#x122;" horiz-adv-x="788" 
d="M571 257v-57q-13 -11 -42 -17h1q-33 -8 -85 -8q-122 0 -178 40h1q-53 40 -59 159q0 263 236 263q123 0 247 -105v140q-111 70 -255 70q-170 0 -267 -100.5t-97 -277.5q0 -176 96 -278q98 -100 268 -100q155 0 278 87v312h-292v-128h148zM369 -141l-53 -167h94l110 158
v120h-151v-111z" />
    <glyph glyph-name="gcommaaccent" unicode="&#x123;" horiz-adv-x="648" 
d="M409 284q0 -73 -29.5 -92.5t-101.5 -19.5q-61 0 -88 16q-23 19 -30 98q0 39 8 74q25 98 116 98q59 0 92 -45q33 -47 33 -129zM575 547h-119q0 -6 -2 -22q0 -4 -1 -12.5t-2 -12.5q-53 59 -151 59q-102 0 -164.5 -77.5t-62.5 -202.5q0 -124 62.5 -201.5t164.5 -77.5
q61 0 106 24q6 3 14.5 9t11.5 8q-17 -33 -35 -54q-34 -39 -107 -39t-165 51v-193q91 -32 178 -32q128 0 191 70q61 65 67 237zM72 -156l-53 -167h94l110 158v120h-151v-111z" />
    <glyph glyph-name="Hbar" unicode="&#x126;" horiz-adv-x="721" 
d="M31 513h677l-10 102h-657zM73 0h145v232h284v-232h145l-9 729h-136v-330h-284v330h-135z" />
    <glyph glyph-name="hbar" unicode="&#x127;" horiz-adv-x="630" 
d="M31 586l337 5l4 78l-336 -5zM547 327v-1q0 233 -196 233q-90 0 -146 -57l8 244h-121l-19 -746h140q-1 50 -5 153q-1 28 -2.5 80t-1.5 74q0 68 34.5 110t93.5 42q47 0 71 -35t24 -100l-10 -324h140z" />
    <glyph glyph-name="Itilde" unicode="&#x128;" horiz-adv-x="296" 
d="M73 0h150l-9 729h-126zM115 1000l26 -25q33 -32 76 -32q50 0 77.5 42.5t29.5 122.5h-93q-1 -34 -5 -54q-3 -17 -12 -17q-5 0 -19 13h1l-27 25q-39 33 -75 33q-50 0 -78 -43t-30 -122h94q0 31 4 53q4 17 13 17q5 0 18 -13z" />
    <glyph glyph-name="itilde" unicode="&#x129;" horiz-adv-x="267" 
d="M73 0h121v547h-121v-547zM92 818l26 -25q33 -32 76 -32q50 0 77.5 42.5t29.5 122.5h-93q-1 -34 -5 -54q-3 -17 -12 -17q-5 0 -19 13h1l-27 25q-39 33 -75 33q-50 0 -78 -43t-30 -122h94q0 31 4 53q4 17 13 17q5 0 18 -13z" />
    <glyph glyph-name="Imacron" unicode="&#x12a;" horiz-adv-x="296" 
d="M73 0h150l-9 729h-126zM0 761h309v104h-309v-104z" />
    <glyph glyph-name="imacron" unicode="&#x12b;" horiz-adv-x="267" 
d="M73 0h121v547h-121v-547zM-23 579h309v104h-309v-104z" />
    <glyph glyph-name="Iogonek" unicode="&#x12e;" horiz-adv-x="296" 
d="M73 0h150l-9 729h-126zM204 0h-99q-59 -69 -59 -117q0 -52 30.5 -76t95.5 -24q24 0 81 13v104q-51 -24 -75 -24q-32 0 -32 23q0 11 14 36q13 23 44 65z" />
    <glyph glyph-name="iogonek" unicode="&#x12f;" horiz-adv-x="267" 
d="M73 0h121v547h-121v-547zM67 614h130v130h-130v-130zM184 0h-99q-59 -69 -59 -117q0 -52 30.5 -76t95.5 -24q24 0 81 13v104q-51 -24 -75 -24q-32 0 -32 23q0 11 14 36q13 23 44 65z" />
    <glyph glyph-name="Idotaccent" unicode="&#x130;" horiz-adv-x="306" 
d="M83 0h149l-9 729h-125zM73 772h130v130h-130v-130z" />
    <glyph glyph-name="dotlessi" unicode="&#x131;" horiz-adv-x="267" 
d="M73 0h121v547h-121v-547z" />
    <glyph glyph-name="IJ" unicode="&#x132;" horiz-adv-x="769" 
d="M73 0h150l-9 729h-126zM561 731l-27 -677q0 -23 -23 -44q-23 -22 -76 -25l-66 15v-193l72 -7q119 1 173 59q53 56 56 188l26 676z" />
    <glyph glyph-name="ij" unicode="&#x133;" horiz-adv-x="696" 
d="M74 0h120l-4 547h-111zM73 603h122l-6 143h-110zM488 545l-23 -483q-2 -36 -4 -51q-5 -20 -10 -27q-15 -15 -54 -16h-52l-3 -162l65 -1q89 3 133 50q41 46 44 150l19 538zM501 603h122l-6 143h-110z" />
    <glyph glyph-name="Kcommaaccent" unicode="&#x136;" horiz-adv-x="769" 
d="M73 0h160q-2 46 -4 69q-2 51 -8 147q-1 13 -2.5 37t-1.5 35l203 -288h275l-386 387l364 342h-174l-284 -268l8 268h-130zM303 -141l-53 -167h94l110 158v120h-151v-111z" />
    <glyph glyph-name="kcommaaccent" unicode="&#x137;" horiz-adv-x="677" 
d="M73 0h150l-12 204l166 -204h227q-20 20 -72 70l-78 75q-12 11 -25.5 24t-29 28.5t-24.5 23.5q-13 13 -37.5 36.5t-35.5 34.5l206 255h-154l-146 -171l5 370h-121zM228 -141l-53 -167h94l110 158v120h-151v-111z" />
    <glyph glyph-name="Lacute" unicode="&#x139;" horiz-adv-x="620" 
d="M73 0h463l11 181h-338l4 548h-130zM158 911h122l197 227h-149z" />
    <glyph glyph-name="lacute" unicode="&#x13a;" horiz-adv-x="329" 
d="M73 0h182v140h-56v606h-116zM96 942h122l197 227h-149z" />
    <glyph glyph-name="Lcommaaccent" unicode="&#x13b;" horiz-adv-x="620" 
d="M73 0h463l11 181h-338l4 548h-130zM256 -173l-53 -167h94l110 158v120h-151v-111z" />
    <glyph glyph-name="lcommaaccent" unicode="&#x13c;" horiz-adv-x="329" 
d="M73 0h182v140h-56v606h-116zM76 -141l-53 -167h94l110 158v120h-151v-111z" />
    <glyph glyph-name="Lcaron" unicode="&#x13d;" horiz-adv-x="620" 
d="M73 0h463l11 181h-338l4 548h-130zM363 744l-51 -197h107l97 190v107h-153v-100z" />
    <glyph glyph-name="lcaron" unicode="&#x13e;" horiz-adv-x="329" 
d="M73 0h182v140h-56v606h-116zM322 722l-53 -167h94l110 158v120h-151v-111z" />
    <glyph glyph-name="Ldot" unicode="&#x13f;" horiz-adv-x="620" 
d="M73 0h463l11 181h-338l4 548h-130zM321 347h133v152h-133v-152z" />
    <glyph glyph-name="ldot" unicode="&#x140;" horiz-adv-x="329" 
d="M73 0h182v140h-56v606h-116zM73 266h133v152h-133v-152z" />
    <glyph glyph-name="Lslash" unicode="&#x141;" horiz-adv-x="726" 
d="M185 368l-112 -78l57 -82l55 39v-247h468v116h-337v222l189 132l-58 82l-131 -92v269h-131v-361z" />
    <glyph glyph-name="lslash" unicode="&#x142;" horiz-adv-x="462" 
d="M170 403l-97 -69l54 -78l43 31v-287h121v372l98 69l-56 79l-42 -31v257h-121v-343z" />
    <glyph glyph-name="Nacute" unicode="&#x143;" horiz-adv-x="717" 
d="M73 0h157q-6 133 -12 256q-4 87 -12 259l273 -515h165v729h-123l-13 -509l-270 495h-146zM285 911h122l197 227h-149z" />
    <glyph glyph-name="nacute" unicode="&#x144;" horiz-adv-x="644" 
d="M570 0l-14 327q-6 113 -56.5 172.5t-145.5 59.5q-56 0 -103 -25q-38 -23 -43 -26v43h-120l-15 -551h154l-15 312q0 143 133 143q46 0 66 -31t20 -95l-19 -329h158zM226 729h122l197 227h-149z" />
    <glyph glyph-name="Ncommaaccent" unicode="&#x145;" horiz-adv-x="717" 
d="M73 0h157q-6 133 -12 256q-4 87 -12 259l273 -515h165v729h-123l-13 -509l-270 495h-146zM323 -141l-53 -167h94l110 158v120h-151v-111z" />
    <glyph glyph-name="ncommaaccent" unicode="&#x146;" horiz-adv-x="644" 
d="M570 0l-14 327q-6 113 -56.5 172.5t-145.5 59.5q-56 0 -103 -25q-38 -23 -43 -26v43h-120l-15 -551h154l-15 312q0 143 133 143q46 0 66 -31t20 -95l-19 -329h158zM264 -141l-53 -167h94l110 158v120h-151v-111z" />
    <glyph glyph-name="Ncaron" unicode="&#x147;" horiz-adv-x="717" 
d="M73 0h157q-6 133 -12 256q-4 87 -12 259l273 -515h165v729h-123l-13 -509l-270 495h-146zM411 757l136 208h-107q-51 -68 -73 -99l-72 99h-107l135 -208h88z" />
    <glyph glyph-name="ncaron" unicode="&#x148;" horiz-adv-x="644" 
d="M570 0l-14 327q-6 113 -56.5 172.5t-145.5 59.5q-56 0 -103 -25q-38 -23 -43 -26v43h-120l-15 -551h154l-15 312q0 143 133 143q46 0 66 -31t20 -95l-19 -329h158zM352 575l136 208h-107q-51 -68 -73 -99l-72 99h-107l135 -208h88z" />
    <glyph glyph-name="Eng" unicode="&#x14a;" horiz-adv-x="717" 
d="M456 -42q-17 -15 -75 -46t-74 -46q15 -22 116.5 -57.5t107.5 -38.5l52 89l61 141l-152 81q-4 -14 -6.5 -38.5t-8.5 -45t-21 -39.5zM73 0h157q-6 133 -12 256q-4 87 -12 259l273 -515h165v729h-123l-13 -509l-270 495h-146z" />
    <glyph glyph-name="eng" unicode="&#x14b;" horiz-adv-x="644" 
d="M565 0l-9 327q-4 112 -55.5 172t-146.5 60q-56 0 -103 -25q-38 -23 -43 -26v43h-120l-15 -551h154l-15 312q0 143 133 143q46 0 66 -31t20 -95l-19 -329q-9 -17 -28.5 -30.5t-34 -19.5t-37 -13t-23.5 -7q-11 -9 -5 -31t32.5 -49t54.5 -34q14 -4 62 22t92.5 72.5
t39.5 89.5z" />
    <glyph glyph-name="Omacron" unicode="&#x14c;" horiz-adv-x="824" 
d="M413 628q93 0 147.5 -70t54.5 -194q0 -92 -49.5 -127t-152.5 -35q-97 0 -153 33q-51 34 -51 129q0 123 56 196q57 68 148 68zM413 742q-155 0 -248 -104q-92 -104 -92 -274t92 -274q93 -104 248 -104q153 0 246 104q92 104 92 274t-92 274q-93 104 -246 104zM257 761h309
v104h-309v-104z" />
    <glyph glyph-name="omacron" unicode="&#x14d;" 
d="M326 461q58 0 92.5 -46t34.5 -127q0 -77 -31 -99q-37 -21 -96 -21q-70 0 -99 23t-29 97q0 81 34.5 127t93.5 46zM326 559q-120 0 -186 -77q-67 -76 -67 -209t67 -209q66 -77 186 -77q117 0 184.5 77t67.5 209t-67.5 209t-184.5 77zM170 579h309v104h-309v-104z" />
    <glyph glyph-name="Ohungarumlaut" unicode="&#x150;" horiz-adv-x="824" 
d="M413 628q93 0 147.5 -70t54.5 -194q0 -92 -49.5 -127t-152.5 -35q-97 0 -153 33q-51 34 -51 129q0 123 56 196q57 68 148 68zM413 742q-155 0 -248 -104q-92 -104 -92 -274t92 -274q93 -104 248 -104q153 0 246 104q92 104 92 274t-92 274q-93 104 -246 104zM365 757h101
l138 208h-126zM220 757h102l124 208h-121z" />
    <glyph glyph-name="ohungarumlaut" unicode="&#x151;" 
d="M326 461q58 0 92.5 -46t34.5 -127q0 -77 -31 -99q-37 -21 -96 -21q-70 0 -99 23t-29 97q0 81 34.5 127t93.5 46zM326 559q-120 0 -186 -77q-67 -76 -67 -209t67 -209q66 -77 186 -77q117 0 184.5 77t67.5 209t-67.5 209t-184.5 77zM278 575h101l138 208h-126zM133 575
h102l124 208h-121z" />
    <glyph glyph-name="OE" unicode="&#x152;" horiz-adv-x="1085" 
d="M1003 729h-503q-210 0 -318 -93q-109 -92 -109 -271q0 -180 108.5 -272.5t318.5 -92.5h512v167h-353v195h339v116h-339v154h344v97zM529 167h-42q-139 0 -210 62q-68 65 -68 136q0 142 67.5 204.5t210.5 62.5h42v-465z" />
    <glyph glyph-name="oe" unicode="&#x153;" horiz-adv-x="1037" 
d="M837 401l-247 -1q12 19 34 40q37 35 99 35q54 0 87 -36q20 -22 27 -38zM964 304v59q0 62 -70 129t-172 67q-132 0 -205 -87q-65 87 -191 87q-118 0 -185.5 -77t-67.5 -209q0 -133 67 -209q67 -77 186 -77q66 0 112 20q45 20 81 68q79 -88 218 -88q102 0 207 45v149
q-112 -59 -202 -59q-79 0 -120 28h1q-18 11 -30 51q-9 33 -14 103h385zM326 465q59 0 93 -43.5t34 -119.5q0 -77 -34 -120t-93 -43q-60 0 -94 42.5t-34 120.5q0 77 34 120t94 43z" />
    <glyph glyph-name="Racute" unicode="&#x154;" horiz-adv-x="734" 
d="M543 511q0 109 -64 164q-62 54 -176 54h-230v-729h149v292h51q51 0 79 -20.5t59 -83.5v1l74 -189h176q-8 18 -27.5 55.5t-26.5 51.5l-28.5 57t-26.5 52q-48 93 -92 126q83 50 83 169zM213 643h100q54 0 90.5 -30.5t36.5 -101.5q0 -32 -40 -59t-87 -27h-100v218zM225 911
h122l197 227h-149z" />
    <glyph glyph-name="racute" unicode="&#x155;" horiz-adv-x="478" 
d="M405 409l-1 133q-39 8 -55 8q-66 0 -113 -28v1q-3 -1 -7 -4t-7 -5q-7 -3 -14 -8v36h-110l-25 -542h145l-10 274q0 74 29 120q26 40 87 40q22 0 34 -3q20 -7 47 -22zM101 729h122l197 227h-149z" />
    <glyph glyph-name="Rcommaaccent" unicode="&#x156;" horiz-adv-x="734" 
d="M543 511q0 109 -64 164q-62 54 -176 54h-230v-729h149v292h51q51 0 79 -20.5t59 -83.5v1l74 -189h176q-8 18 -27.5 55.5t-26.5 51.5l-28.5 57t-26.5 52q-48 93 -92 126q83 50 83 169zM213 643h100q54 0 90.5 -30.5t36.5 -101.5q0 -32 -40 -59t-87 -27h-100v218zM263 -141
l-53 -167h94l110 158v120h-151v-111z" />
    <glyph glyph-name="rcommaaccent" unicode="&#x157;" horiz-adv-x="478" 
d="M405 409l-1 133q-39 8 -55 8q-66 0 -113 -28v1q-3 -1 -7 -4t-7 -5q-7 -3 -14 -8v36h-110l-25 -542h145l-10 274q0 74 29 120q26 40 87 40q22 0 34 -3q20 -7 47 -22zM139 -141l-53 -167h94l110 158v120h-151v-111z" />
    <glyph glyph-name="Rcaron" unicode="&#x158;" horiz-adv-x="734" 
d="M543 511q0 109 -64 164q-62 54 -176 54h-230v-729h149v292h51q51 0 79 -20.5t59 -83.5v1l74 -189h176q-8 18 -27.5 55.5t-26.5 51.5l-28.5 57t-26.5 52q-48 93 -92 126q83 50 83 169zM213 643h100q54 0 90.5 -30.5t36.5 -101.5q0 -32 -40 -59t-87 -27h-100v218zM351 757
l136 208h-107q-51 -68 -73 -99l-72 99h-107l135 -208h88z" />
    <glyph glyph-name="rcaron" unicode="&#x159;" horiz-adv-x="478" 
d="M405 409l-1 133q-39 8 -55 8q-66 0 -113 -28v1q-3 -1 -7 -4t-7 -5q-7 -3 -14 -8v36h-110l-25 -542h145l-10 274q0 74 29 120q26 40 87 40q22 0 34 -3q20 -7 47 -22zM227 575l136 208h-107q-51 -68 -73 -99l-72 99h-107l135 -208h88z" />
    <glyph glyph-name="Sacute" unicode="&#x15a;" horiz-adv-x="670" 
d="M556 567v134q-123 41 -222 41q-120 0 -190.5 -58t-70.5 -159q0 -86 51.5 -136t161.5 -71l57 -11q66 -14 94 -38q25 -25 25 -43q0 -22 -35 -47q-41 -29 -114 -29q-97 0 -237 79v-193q135 -50 237 -50q140 0 212 56.5t72 166.5q0 93 -53.5 147.5t-166.5 76.5h1l-57 11
q-73 14 -96 34q-21 16 -21 55q0 46 36.5 70.5t104.5 24.5q80 0 211 -61zM241 911h122l197 227h-149z" />
    <glyph glyph-name="sacute" unicode="&#x15b;" horiz-adv-x="573" 
d="M473 414v112q-82 33 -181 33q-104 0 -159.5 -43t-55.5 -125q0 -67 38.5 -101.5t123.5 -51.5h-1l30 -7q69 -15 79 -23q4 -5 21 -32q0 -23 -24 -34q-22 -12 -72 -12q-84 0 -199 60v-166q112 -37 198 -37q105 0 167 46t62 126q0 70 -44 109q-43 37 -136 56q-7 0 -13 3l-15 3
q-63 14 -84 30q-18 15 -18 39q0 29 28.5 45.5t82.5 16.5q76 0 172 -47zM193 729h122l197 227h-149z" />
    <glyph glyph-name="Scedilla" unicode="&#x15e;" horiz-adv-x="670" 
d="M556 567v134q-123 41 -222 41q-120 0 -190.5 -58t-70.5 -159q0 -86 51.5 -136t161.5 -71l57 -11q66 -14 94 -38q25 -25 25 -43q0 -22 -35 -47q-41 -29 -114 -29q-97 0 -237 79v-193q135 -50 237 -50q140 0 212 56.5t72 166.5q0 93 -53.5 147.5t-166.5 76.5h1l-57 11
q-73 14 -96 34q-21 16 -21 55q0 46 36.5 70.5t104.5 24.5q80 0 211 -61zM251 37h-98q36 -51 44 -64q14 -25 14 -36q0 -24 -36 -24q-38 0 -89 26v-104q56 -15 98 -15q127 0 127 100q0 48 -60 117z" />
    <glyph glyph-name="scedilla" unicode="&#x15f;" horiz-adv-x="618" 
d="M518 414v112q-82 33 -182 33q-104 0 -159 -43t-55 -125q0 -67 38.5 -101.5t123.5 -51.5h-1l30 -7q69 -15 79 -23q4 -5 21 -32q0 -23 -24 -34q-23 -12 -72 -12q-83 0 -199 60v-166q112 -37 198 -37q105 0 167 46t62 126q0 70 -44 109q-43 37 -136 56q-7 0 -13 3l-15 3
q-62 14 -85 30h1q-18 15 -18 39q0 29 28.5 45.5t82.5 16.5q76 0 172 -47zM239 37h-99q26 -35 44 -64q14 -25 14 -36q0 -24 -36 -24q-38 0 -89 26v-104q56 -15 98 -15q127 0 127 100q0 48 -59 117z" />
    <glyph glyph-name="Scaron" unicode="&#x160;" horiz-adv-x="678" 
d="M563 567v134q-123 41 -221 41q-120 0 -190.5 -58t-70.5 -159q0 -86 51 -136t161 -71l58 -11q67 -15 93 -38q26 -26 26 -43q0 -21 -36 -47q-40 -29 -113 -29q-98 0 -238 79v-193q135 -50 238 -50q139 0 211 56.5t72 166.5q0 93 -53.5 147.5t-165.5 76.5l-57 11
q-71 14 -96 34q-21 16 -21 55q0 46 37 70.5t105 24.5q81 0 210 -61zM301 757l126 158h-109q-2 -2 -14 -15t-19 -21q-24 -26 -35 -37l-68 73h-109l125 -158h103z" />
    <glyph glyph-name="scaron" unicode="&#x161;" horiz-adv-x="643" 
d="M542 414v112q-82 33 -181 33q-104 0 -159.5 -43t-55.5 -125q0 -66 39 -101t123 -52l29 -7q71 -15 79 -23q8 -9 22 -32q-2 -24 -24 -34q-24 -12 -72 -12q-84 0 -199 60v-166q111 -37 197 -37q105 0 167 46t62 126q0 70 -44 109q-43 37 -135 56q-8 0 -14 3q-10 2 -14 3
q-62 14 -85 30q-18 15 -18 39q0 29 29 45.5t83 16.5q75 0 171 -47zM345 575l135 208h-106q-51 -68 -73 -99l-72 99h-107l135 -208h88z" />
    <glyph glyph-name="Tcedilla" unicode="&#x162;" horiz-adv-x="769" 
d="M73 613l245 9l-18 -622h169l-18 622l245 -10v117h-623v-116zM437 37h-99q26 -35 44 -64q14 -25 14 -36q0 -24 -36 -24q-38 0 -89 26v-104q55 -15 98 -15q127 0 127 100q0 48 -59 117z" />
    <glyph glyph-name="tcedilla" unicode="&#x163;" horiz-adv-x="501" 
d="M140 673l-5 -126h-62v-102h62l-5 -258q0 -103 44.5 -145t149.5 -42h104v161h-104q-45 0 -56 13q-13 12 -13 67l5 204h118v102h-117l4 126h-125zM298 37h-99q26 -35 44 -64q14 -25 14 -36q0 -24 -36 -24q-38 0 -89 26v-104q56 -15 98 -15q127 0 127 100q0 48 -59 117z" />
    <glyph glyph-name="Tcaron" unicode="&#x164;" horiz-adv-x="769" 
d="M73 613l245 9l-18 -622h169l-18 622l245 -10v117h-623v-116zM428 757l136 208h-107q-51 -68 -73 -99l-72 99h-107l135 -208h88z" />
    <glyph glyph-name="tcaron" unicode="&#x165;" horiz-adv-x="501" 
d="M140 673l-5 -126h-62v-102h62l-5 -258q0 -103 44.5 -145t149.5 -42h104v161h-104q-45 0 -56 13q-13 12 -13 67l5 204h118v102h-117l4 126h-125zM492 681l-51 -197h107l97 190v107h-153v-100z" />
    <glyph glyph-name="Tbar" unicode="&#x166;" horiz-adv-x="769" 
d="M73 613l245 9l-18 -622h169l-18 622l245 -10v117h-623v-116zM229 761h309v104h-309v-104z" />
    <glyph glyph-name="tbar" unicode="&#x167;" horiz-adv-x="501" 
d="M140 673l-5 -126h-62v-102h62l-5 -258q0 -103 44.5 -145t149.5 -42h104v161h-104q-45 0 -56 13q-13 12 -13 67l5 204h118v102h-117l4 126h-125zM73 628h309v104h-309v-104z" />
    <glyph glyph-name="Utilde" unicode="&#x168;" horiz-adv-x="713" 
d="M73 729v-451q0 -144 72 -218t212 -74q283 0 283 292v451h-131v-374q0 -104 -36 -149v1q-35 -42 -116 -42t-116 42v-1q-36 45 -36 149v374h-132zM316 1000l26 -25q33 -32 76 -32q50 0 77.5 42.5t29.5 122.5h-93q-1 -34 -5 -54q-3 -17 -12 -17q-5 0 -19 13h1l-27 25
q-39 33 -75 33q-50 0 -78 -43t-30 -122h94q0 31 4 53q4 17 13 17q5 0 18 -13z" />
    <glyph glyph-name="utilde" unicode="&#x169;" horiz-adv-x="615" 
d="M73 547v-327q0 -115 50 -174t148 -59q86 0 142 55l-2 -42h121l10 547h-134l-5 -234q-7 -72 -37 -107q-31 -37 -92 -37q-46 0 -68 31.5t-26 96.5v250h-107zM273 818l26 -25q33 -32 76 -32q50 0 77.5 42.5t29.5 122.5h-93q-1 -34 -5 -54q-3 -17 -12 -17q-5 0 -19 13h1
l-27 25q-39 33 -75 33q-50 0 -78 -43t-30 -122h94q0 31 4 53q4 17 13 17q5 0 18 -13z" />
    <glyph glyph-name="Umacron" unicode="&#x16a;" horiz-adv-x="713" 
d="M73 729v-451q0 -144 72 -218t212 -74q283 0 283 292v451h-131v-374q0 -104 -36 -149v1q-35 -42 -116 -42t-116 42v-1q-36 45 -36 149v374h-132zM201 761h309v104h-309v-104z" />
    <glyph glyph-name="umacron" unicode="&#x16b;" horiz-adv-x="615" 
d="M73 547v-327q0 -115 50 -174t148 -59q86 0 142 55l-2 -42h121l10 547h-134l-5 -234q-7 -72 -37 -107q-31 -37 -92 -37q-46 0 -68 31.5t-26 96.5v250h-107zM158 579h309v104h-309v-104z" />
    <glyph glyph-name="Uring" unicode="&#x16e;" horiz-adv-x="713" 
d="M73 729v-451q0 -144 72 -218t212 -74q283 0 283 292v451h-131v-374q0 -104 -36 -149v1q-35 -42 -116 -42t-116 42v-1q-36 45 -36 149v374h-132zM407 895q0 -22 -14.5 -36.5t-36.5 -14.5q-21 0 -37 14q-14 16 -14 37q0 22 14.5 36t36.5 14t36.5 -14t14.5 -36zM499 895
q0 59 -42 101t-101 42t-101 -42t-42 -101q0 -60 42 -102t101 -42t101 42t42 102z" />
    <glyph glyph-name="uring" unicode="&#x16f;" horiz-adv-x="615" 
d="M73 547v-327q0 -115 50 -174t148 -59q86 0 142 55l-2 -42h121l10 547h-134l-5 -234q-7 -72 -37 -107q-31 -37 -92 -37q-46 0 -68 31.5t-26 96.5v250h-107zM364 713q0 -22 -14.5 -36.5t-36.5 -14.5q-21 0 -37 14q-14 16 -14 37q0 22 14.5 36t36.5 14t36.5 -14t14.5 -36z
M456 713q0 59 -42 101t-101 42t-101 -42t-42 -101q0 -60 42 -102t101 -42t101 42t42 102z" />
    <glyph glyph-name="Uhungarumlaut" unicode="&#x170;" horiz-adv-x="713" 
d="M73 729v-451q0 -144 72 -218t212 -74q283 0 283 292v451h-131v-374q0 -104 -36 -149v1q-35 -42 -116 -42t-116 42v-1q-36 45 -36 149v374h-132zM309 757h101l138 208h-126zM164 757h102l124 208h-121z" />
    <glyph glyph-name="uhungarumlaut" unicode="&#x171;" horiz-adv-x="615" 
d="M73 547v-327q0 -115 50 -174t148 -59q86 0 142 55l-2 -42h121l10 547h-134l-5 -234q-7 -72 -37 -107q-31 -37 -92 -37q-46 0 -68 31.5t-26 96.5v250h-107zM266 575h101l138 208h-126zM121 575h102l124 208h-121z" />
    <glyph glyph-name="Uogonek" unicode="&#x172;" horiz-adv-x="713" 
d="M73 729v-451q0 -144 72 -218t212 -74q283 0 283 292v451h-131v-374q0 -104 -36 -149v1q-35 -42 -116 -42t-116 42v-1q-36 45 -36 149v374h-132zM401 0h-99q-59 -69 -59 -117q0 -52 30.5 -76t95.5 -24q24 0 81 13v104q-51 -24 -75 -24q-32 0 -32 23q0 11 14 36
q13 23 44 65z" />
    <glyph glyph-name="uogonek" unicode="&#x173;" horiz-adv-x="615" 
d="M73 547v-327q0 -115 50 -174t148 -59q86 0 142 55l-2 -42h121l10 547h-134l-5 -234q-7 -72 -37 -107q-31 -37 -92 -37q-46 0 -68 31.5t-26 96.5v250h-107zM522 4h-99q-59 -69 -59 -117q0 -52 30.5 -76t95.5 -24q24 0 81 13v104q-51 -24 -75 -24q-32 0 -32 23q0 11 14 36
q13 23 44 65z" />
    <glyph glyph-name="Wcircumflex" unicode="&#x174;" horiz-adv-x="1070" 
d="M236 0h174q8 19 62 162q11 31 32 87.5t30 81.5l115 -331h164l184 729h-128q-32 -103 -75 -235q-6 -20 -74 -243l-135 297h-106q-10 -21 -22 -44.5t-27 -52.5t-24 -46q-8 -17 -23.5 -46.5t-27.5 -53.5t-23 -45l-132 469h-127zM352 757h107q11 15 35 49q7 10 19.5 27
t17.5 23l73 -99h107l-136 208h-88z" />
    <glyph glyph-name="wcircumflex" unicode="&#x175;" horiz-adv-x="879" 
d="M216 0h139l84 201l80 -201h144l143 547h-121q-16 -52 -48 -162t-48 -164l-79 157h-140l-79 -157l-96 326h-122zM261 575h107q11 15 35 49q7 10 19.5 27t17.5 23l73 -99h107l-136 208h-88z" />
    <glyph glyph-name="Ycircumflex" unicode="&#x176;" horiz-adv-x="791" 
d="M311 250v-250h164v250l242 479h-142l-179 -334l-181 334h-142zM216 757h107q11 15 35 49q7 10 19.5 27t17.5 23l73 -99h107l-136 208h-88z" />
    <glyph glyph-name="ycircumflex" unicode="&#x177;" horiz-adv-x="698" 
d="M625 547h-127l-129 -277l-169 277h-127q9 -20 28 -59.5t28 -59.5q19 -41 57.5 -124t57.5 -124q9 -20 28 -59.5t28 -59.5q-3 -5 -5.5 -10.5t-5.5 -12t-5 -9.5q-10 -17 -17 -32q-17 -23 -38 -41q-15 -12 -41 -12h-77v-147h94q67 0 109 33.5t86 133.5zM122 575h107
q11 15 35 49q7 10 19.5 27t17.5 23l73 -99h107l-136 208h-88z" />
    <glyph glyph-name="Ydieresis" unicode="&#x178;" horiz-adv-x="791" 
d="M311 250v-250h164v250l242 479h-142l-179 -334l-181 334h-142zM441 772h129v129h-129v-129zM263 772h130v129h-130v-129z" />
    <glyph glyph-name="Zacute" unicode="&#x179;" horiz-adv-x="749" 
d="M84 613h403l-414 -455v-158h602v176h-425l415 456v97h-581v-116zM295 911h122l197 227h-149z" />
    <glyph glyph-name="zacute" unicode="&#x17a;" horiz-adv-x="597" 
d="M94 448h279l-300 -301v-147h446v149h-261l266 296v102h-430v-99zM224 729h122l197 227h-149z" />
    <glyph glyph-name="Zdotaccent" unicode="&#x17b;" horiz-adv-x="749" 
d="M84 613h403l-414 -455v-158h602v176h-425l415 456v97h-581v-116zM312 796h130v130h-130v-130z" />
    <glyph glyph-name="zdotaccent" unicode="&#x17c;" horiz-adv-x="597" 
d="M94 448h279l-300 -301v-147h446v149h-261l266 296v102h-430v-99zM241 614h130v130h-130v-130z" />
    <glyph glyph-name="Zcaron" unicode="&#x17d;" horiz-adv-x="749" 
d="M84 613h403l-414 -455v-158h602v176h-425l415 456v97h-581v-116zM421 757l136 208h-107q-51 -68 -73 -99l-72 99h-107l135 -208h88z" />
    <glyph glyph-name="zcaron" unicode="&#x17e;" horiz-adv-x="690" 
d="M187 448h279l-299 -301v-147h445v149h-260l265 296v102h-430v-99zM443 575l135 208h-106q-51 -68 -73 -99l-73 99h-106l135 -208h88z" />
    <glyph glyph-name="florin" unicode="&#x192;" horiz-adv-x="755" 
d="M682 608v115q-57 23 -109 23q-76 0 -126 -48t-67 -139l-26 -137l-130 -9v-102l109 8q-8 -62 -16 -110q-10 -70 -16 -110h1q-15 -70 -37 -99q-19 -24 -55 -24t-102 42l-35 -185q58 -27 114 -27q93 0 157 70q61 67 86 240l28 206l146 10v102q-18 -2 -29 -2q-10 -1 -32 -3
t-33 -2q-22 -2 -32 -3l22 128q21 101 90 101q36 0 92 -45z" />
    <glyph glyph-name="Ohorn" unicode="&#x1a0;" horiz-adv-x="824" 
d="M413 628q93 0 147.5 -70t54.5 -194q0 -92 -49.5 -127t-152.5 -35q-97 0 -153 33q-51 34 -51 129q0 123 56 196q57 68 148 68zM413 742q-155 0 -248 -104q-92 -104 -92 -274t92 -274q93 -104 248 -104q153 0 246 104q92 104 92 274t-92 274q-93 104 -246 104zM691 589
l22 -46q18 9 49 34q41 37 41 114q0 12 -5 32l-48 6q7 -18 7 -30q0 -65 -20 -83q-6 -5 -20.5 -12.5t-25.5 -14.5z" />
    <glyph glyph-name="ohorn" unicode="&#x1a1;" 
d="M326 461q58 0 92.5 -46t34.5 -127q0 -77 -31 -99q-37 -21 -96 -21q-70 0 -99 23t-29 97q0 81 34.5 127t93.5 46zM326 559q-120 0 -186 -77q-67 -76 -67 -209t67 -209q66 -77 186 -77q117 0 184.5 77t67.5 209t-67.5 209t-184.5 77zM500 427l22 -46q18 9 49 34
q41 37 41 114q0 12 -5 32l-48 6q7 -18 7 -30q0 -65 -20 -83q-6 -5 -20.5 -12.5t-25.5 -14.5z" />
    <glyph glyph-name="Uhorn" unicode="&#x1af;" horiz-adv-x="713" 
d="M73 729v-451q0 -144 72 -218t212 -74q283 0 283 292v451h-131v-374q0 -104 -36 -149v1q-35 -42 -116 -42t-116 42v-1q-36 45 -36 149v374h-132zM607 629l22 -46q18 9 49 34q41 37 41 114q0 12 -5 32l-48 6q7 -17 7 -30q0 -65 -20 -83q-6 -5 -20.5 -12.5t-25.5 -14.5z" />
    <glyph glyph-name="uhorn" unicode="&#x1b0;" horiz-adv-x="615" 
d="M73 547v-327q0 -115 50 -174t148 -59q86 0 142 55l-2 -42h121l10 547h-134l-5 -234q-7 -72 -37 -107q-31 -37 -92 -37q-46 0 -68 31.5t-26 96.5v250h-107zM516 469l22 -46q18 9 49 34q41 37 41 114q0 12 -5 32l-48 6q7 -17 7 -30q0 -65 -20 -83q-6 -5 -20.5 -12.5
t-25.5 -14.5z" />
    <glyph glyph-name="Acaron" unicode="&#x1cd;" horiz-adv-x="835" 
d="M520 260h-204q22 66 26 79q3 9 12 35.5t14 40.5q8 24 24 74q3 10 12 36t13 40zM73 0h167l35 113h284l26 -113h177l-288 729h-113zM461 757l136 208h-107q-51 -68 -73 -99l-72 99h-107l135 -208h88z" />
    <glyph glyph-name="acaron" unicode="&#x1ce;" horiz-adv-x="614" 
d="M374 261v-1q0 -70 -20 -89.5t-79 -19.5q-41 0 -71 8q-18 6 -24 31q2 38 24 53q25 18 112 18h58zM541 0v310q0 249 -238 249q-84 0 -192 -41v-111q102 54 182 54q58 -4 91 -31t36 -71h-99q-248 0 -248 -192q0 -82 52 -131t138 -49q97 0 157 55v-42h121zM369 575l136 208
h-107q-51 -68 -73 -99l-72 99h-107l135 -208h88z" />
    <glyph glyph-name="Icaron" unicode="&#x1cf;" horiz-adv-x="296" 
d="M73 0h150l-9 729h-126zM199 757l136 208h-107q-51 -68 -73 -99l-72 99h-107l135 -208h88z" />
    <glyph glyph-name="icaron" unicode="&#x1d0;" horiz-adv-x="267" 
d="M73 0h121v547h-121v-547zM176 575l136 208h-107q-51 -68 -73 -99l-72 99h-107l135 -208h88z" />
    <glyph glyph-name="Ocaron" unicode="&#x1d1;" horiz-adv-x="824" 
d="M413 628q93 0 147.5 -70t54.5 -194q0 -92 -49.5 -127t-152.5 -35q-97 0 -153 33q-51 34 -51 129q0 123 56 196q57 68 148 68zM413 742q-155 0 -248 -104q-92 -104 -92 -274t92 -274q93 -104 248 -104q153 0 246 104q92 104 92 274t-92 274q-93 104 -246 104zM456 757
l136 208h-107q-51 -68 -73 -99l-72 99h-107l135 -208h88z" />
    <glyph glyph-name="ocaron" unicode="&#x1d2;" 
d="M326 461q58 0 92.5 -46t34.5 -127q0 -77 -31 -99q-37 -21 -96 -21q-70 0 -99 23t-29 97q0 81 34.5 127t93.5 46zM326 559q-120 0 -186 -77q-67 -76 -67 -209t67 -209q66 -77 186 -77q117 0 184.5 77t67.5 209t-67.5 209t-184.5 77zM369 575l136 208h-107q-51 -68 -73 -99
l-72 99h-107l135 -208h88z" />
    <glyph glyph-name="Ucaron" unicode="&#x1d3;" horiz-adv-x="713" 
d="M73 729v-451q0 -144 72 -218t212 -74q283 0 283 292v451h-131v-374q0 -104 -36 -149v1q-35 -42 -116 -42t-116 42v-1q-36 45 -36 149v374h-132zM400 757l136 208h-107q-51 -68 -73 -99l-72 99h-107l135 -208h88z" />
    <glyph glyph-name="ucaron" unicode="&#x1d4;" horiz-adv-x="615" 
d="M73 547v-327q0 -115 50 -174t148 -59q86 0 142 55l-2 -42h121l10 547h-134l-5 -234q-7 -72 -37 -107q-31 -37 -92 -37q-46 0 -68 31.5t-26 96.5v250h-107zM357 575l136 208h-107q-51 -68 -73 -99l-72 99h-107l135 -208h88z" />
    <glyph glyph-name="Udieresismacron" unicode="&#x1d5;" horiz-adv-x="713" 
d="M73 729v-451q0 -144 72 -218t212 -74q283 0 283 292v451h-131v-374q0 -104 -36 -149v1q-35 -42 -116 -42t-116 42v-1q-36 45 -36 149v374h-132zM383 882h136v135h-136v-135zM192 882h136v135h-136v-135zM201 761h309v104h-309v-104z" />
    <glyph glyph-name="udieresismacron" unicode="&#x1d6;" horiz-adv-x="615" 
d="M73 547v-327q0 -115 50 -174t148 -59q86 0 142 55l-2 -42h121l10 547h-134l-5 -234q-7 -72 -37 -107q-31 -37 -92 -37q-46 0 -68 31.5t-26 96.5v250h-107zM340 700h136v135h-136v-135zM149 700h136v135h-136v-135zM158 579h309v104h-309v-104z" />
    <glyph glyph-name="Udieresisacute" unicode="&#x1d7;" horiz-adv-x="713" 
d="M73 729v-451q0 -144 72 -218t212 -74q283 0 283 292v451h-131v-374q0 -104 -36 -149v1q-35 -42 -116 -42t-116 42v-1q-36 45 -36 149v374h-132zM383 882h136v135h-136v-135zM192 882h136v135h-136v-135zM274 911h122l197 227h-149z" />
    <glyph glyph-name="udieresisacute" unicode="&#x1d8;" horiz-adv-x="615" 
d="M73 547v-327q0 -115 50 -174t148 -59q86 0 142 55l-2 -42h121l10 547h-134l-5 -234q-7 -72 -37 -107q-31 -37 -92 -37q-46 0 -68 31.5t-26 96.5v250h-107zM340 700h136v135h-136v-135zM149 700h136v135h-136v-135zM231 729h122l197 227h-149z" />
    <glyph glyph-name="Udieresiscaron" unicode="&#x1d9;" horiz-adv-x="713" 
d="M73 729v-451q0 -144 72 -218t212 -74q283 0 283 292v451h-131v-374q0 -104 -36 -149v1q-35 -42 -116 -42t-116 42v-1q-36 45 -36 149v374h-132zM383 882h136v135h-136v-135zM192 882h136v135h-136v-135zM400 757l136 208h-107q-51 -68 -73 -99l-72 99h-107l135 -208h88z
" />
    <glyph glyph-name="udieresiscaron" unicode="&#x1da;" horiz-adv-x="615" 
d="M73 547v-327q0 -115 50 -174t148 -59q86 0 142 55l-2 -42h121l10 547h-134l-5 -234q-7 -72 -37 -107q-31 -37 -92 -37q-46 0 -68 31.5t-26 96.5v250h-107zM340 700h136v135h-136v-135zM149 700h136v135h-136v-135zM357 575l136 208h-107q-51 -68 -73 -99l-72 99h-107
l135 -208h88z" />
    <glyph glyph-name="Udieresisgrave" unicode="&#x1db;" horiz-adv-x="713" 
d="M73 729v-451q0 -144 72 -218t212 -74q283 0 283 292v451h-131v-374q0 -104 -36 -149v1q-35 -42 -116 -42t-116 42v-1q-36 45 -36 149v374h-132zM383 882h136v135h-136v-135zM192 882h136v135h-136v-135zM179 1153l115 -207h171l-156 207h-130z" />
    <glyph glyph-name="udieresisgrave" unicode="&#x1dc;" horiz-adv-x="615" 
d="M73 547v-327q0 -115 50 -174t148 -59q86 0 142 55l-2 -42h121l10 547h-134l-5 -234q-7 -72 -37 -107q-31 -37 -92 -37q-46 0 -68 31.5t-26 96.5v250h-107zM340 700h136v135h-136v-135zM149 700h136v135h-136v-135zM136 971l115 -207h171l-156 207h-130z" />
    <glyph glyph-name="Adieresismacron" unicode="&#x1de;" horiz-adv-x="835" 
d="M520 260h-204q22 66 26 79q3 9 12 35.5t14 40.5q8 24 24 74q3 10 12 36t13 40zM73 0h167l35 113h284l26 -113h177l-288 729h-113zM444 882h136v135h-136v-135zM253 882h136v135h-136v-135zM262 761h309v104h-309v-104z" />
    <glyph glyph-name="adieresismacron" unicode="&#x1df;" horiz-adv-x="614" 
d="M374 261v-1q0 -70 -20 -89.5t-79 -19.5q-41 0 -71 8q-18 6 -24 31q2 38 24 53q25 18 112 18h58zM541 0v310q0 249 -238 249q-84 0 -192 -41v-111q102 54 182 54q58 -4 91 -31t36 -71h-99q-248 0 -248 -192q0 -82 52 -131t138 -49q97 0 157 55v-42h121zM352 700h136v135
h-136v-135zM161 700h136v135h-136v-135zM170 579h309v104h-309v-104z" />
    <glyph glyph-name="Gcaron" unicode="&#x1e6;" horiz-adv-x="788" 
d="M571 257v-57q-13 -11 -42 -17h1q-33 -8 -85 -8q-122 0 -178 40h1q-53 40 -59 159q0 263 236 263q123 0 247 -105v140q-111 70 -255 70q-170 0 -267 -100.5t-97 -277.5q0 -176 96 -278q98 -100 268 -100q155 0 278 87v312h-292v-128h148zM457 757l136 208h-107
q-51 -68 -73 -99l-72 99h-107l135 -208h88z" />
    <glyph glyph-name="gcaron" unicode="&#x1e7;" horiz-adv-x="648" 
d="M409 284q0 -73 -29.5 -92.5t-101.5 -19.5q-61 0 -88 16q-23 19 -30 98q0 39 8 74q25 98 116 98q59 0 92 -45q33 -47 33 -129zM575 547h-119q0 -6 -2 -22q0 -4 -1 -12.5t-2 -12.5q-53 59 -151 59q-102 0 -164.5 -77.5t-62.5 -202.5q0 -124 62.5 -201.5t164.5 -77.5
q61 0 106 24q6 3 14.5 9t11.5 8q-17 -33 -35 -54q-34 -39 -107 -39t-165 51v-193q91 -32 178 -32q128 0 191 70q61 65 67 237zM381 575l136 208h-107q-51 -68 -73 -99l-72 99h-107l135 -208h88z" />
    <glyph glyph-name="Oslashacute" unicode="&#x1fe;" horiz-adv-x="851" 
d="M330 178l277 323q9 -17 13 -35q8 -27 8 -72q-17 -125 -61 -170q-42 -42 -139 -56q-51 0 -69 1q-17 2 -29 9zM549 587l-290 -337q-14 17 -32 50q-19 38 -19 82q0 121 56 196q56 67 147 69q56 -5 89 -19q23 -9 49 -41zM73 25l76 -65l76 89q84 -63 201 -63q153 0 246 104
q92 103 92 274q0 145 -68 243l81 95l-75 65l-76 -89q-84 64 -200 64q-154 0 -246.5 -103.5t-92.5 -274.5q0 -144 67 -243zM343 911h122l197 227h-149z" />
    <glyph glyph-name="oslashacute" unicode="&#x1ff;" horiz-adv-x="702" 
d="M281 116l191 230q7 -24 7 -73q0 -84 -34.5 -131.5t-92.5 -47.5q-42 0 -71 22zM421 430l-191 -230q-6 27 -6 67q0 89 35 139q35 46 93 46q40 0 69 -22zM73 8l72 -58q8 10 15 17q5 7 16.5 21t16.5 20q1 1 16 19q58 -40 143 -40q117 0 184.5 77t67.5 209q0 105 -44 179
l69 85l-71 60q-6 -9 -15 -18q-12 -14 -16 -20q-24 -28 -33 -40q-61 40 -142 40q-118 0 -185.5 -77t-67.5 -209q0 -110 45 -179zM269 729h122l197 227h-149z" />
    <glyph glyph-name="Scommaaccent" unicode="&#x218;" horiz-adv-x="670" 
d="M556 567v134q-123 41 -222 41q-120 0 -190.5 -58t-70.5 -159q0 -86 51.5 -136t161.5 -71l57 -11q66 -14 94 -38q25 -25 25 -43q0 -22 -35 -47q-41 -29 -114 -29q-97 0 -237 79v-193q135 -50 237 -50q140 0 212 56.5t72 166.5q0 93 -53.5 147.5t-166.5 76.5h1l-57 11
q-73 14 -96 34q-21 16 -21 55q0 46 36.5 70.5t104.5 24.5q80 0 211 -61zM279 -141l-53 -167h94l110 158v120h-151v-111z" />
    <glyph glyph-name="scommaaccent" unicode="&#x219;" horiz-adv-x="573" 
d="M473 414v112q-82 33 -181 33q-104 0 -159.5 -43t-55.5 -125q0 -67 38.5 -101.5t123.5 -51.5h-1l30 -7q69 -15 79 -23q4 -5 21 -32q0 -23 -24 -34q-22 -12 -72 -12q-84 0 -199 60v-166q112 -37 198 -37q105 0 167 46t62 126q0 70 -44 109q-43 37 -136 56q-7 0 -13 3l-15 3
q-63 14 -84 30q-18 15 -18 39q0 29 28.5 45.5t82.5 16.5q76 0 172 -47zM231 -141l-53 -167h94l110 158v120h-151v-111z" />
    <glyph glyph-name="uni021A" unicode="&#x21a;" horiz-adv-x="769" 
d="M73 613l245 9l-18 -622h169l-18 622l245 -10v117h-623v-116zM340 -141l-53 -167h94l110 158v120h-151v-111z" />
    <glyph glyph-name="uni021B" unicode="&#x21b;" horiz-adv-x="501" 
d="M140 673l-5 -126h-62v-102h62l-5 -258q0 -103 44.5 -145t149.5 -42h104v161h-104q-45 0 -56 13q-13 12 -13 67l5 204h118v102h-117l4 126h-125zM201 -141l-53 -167h94l110 158v120h-151v-111z" />
    <glyph glyph-name="uni0228" unicode="&#x228;" horiz-adv-x="629" 
d="M73 0h483v181h-352v149h329v115h-329v168h344v116h-475v-729zM359 37h-99q26 -35 44 -64q14 -25 14 -36q0 -24 -36 -24q-38 0 -89 26v-104q55 -15 98 -15q127 0 127 100q0 48 -59 117z" />
    <glyph glyph-name="uni0229" unicode="&#x229;" 
d="M578 276v52q-9 115 -68 171h1q-59 56 -169 60q-122 0 -193 -78t-76 -212q0 -129 77 -204q78 -74 205 -78q103 0 208 45l-2 158q-69 -36 -109 -39q-41 -4 -92 -4q-80 7 -122 32q-34 24 -40 97h380zM464 386h-256q6 27 35 56v-1q36 38 99 38q54 0 86 -38q26 -32 36 -55z
M417 24h-99q26 -35 44 -64q14 -25 14 -36q0 -24 -36 -24q-38 0 -89 26v-104q55 -15 98 -15q127 0 127 100q0 48 -59 117z" />
    <glyph glyph-name="uni022A" unicode="&#x22a;" horiz-adv-x="824" 
d="M413 628q93 0 147.5 -70t54.5 -194q0 -92 -49.5 -127t-152.5 -35q-97 0 -153 33q-51 34 -51 129q0 123 56 196q57 68 148 68zM413 742q-155 0 -248 -104q-92 -104 -92 -274t92 -274q93 -104 248 -104q153 0 246 104q92 104 92 274t-92 274q-93 104 -246 104zM439 882h136
v135h-136v-135zM248 882h136v135h-136v-135zM257 761h309v104h-309v-104z" />
    <glyph glyph-name="uni022B" unicode="&#x22b;" 
d="M326 461q58 0 92.5 -46t34.5 -127q0 -77 -31 -99q-37 -21 -96 -21q-70 0 -99 23t-29 97q0 81 34.5 127t93.5 46zM326 559q-120 0 -186 -77q-67 -76 -67 -209t67 -209q66 -77 186 -77q117 0 184.5 77t67.5 209t-67.5 209t-184.5 77zM352 700h136v135h-136v-135zM161 700
h136v135h-136v-135zM170 579h309v104h-309v-104z" />
    <glyph glyph-name="circumflex" unicode="&#x2c6;" horiz-adv-x="505" 
d="M73 575h107q11 15 35 49q7 10 19.5 27t17.5 23l73 -99h107l-136 208h-88z" />
    <glyph glyph-name="caron" unicode="&#x2c7;" horiz-adv-x="505" 
d="M296 575l136 208h-107q-51 -68 -73 -99l-72 99h-107l135 -208h88z" />
    <glyph glyph-name="breve" unicode="&#x2d8;" horiz-adv-x="471" 
d="M163 769h-90q12 -167 162 -167q151 0 162 167h-88q-12 -68 -74 -68q-63 0 -72 68z" />
    <glyph glyph-name="dotaccent" unicode="&#x2d9;" horiz-adv-x="276" 
d="M73 614h130v130h-130v-130z" />
    <glyph glyph-name="ring" unicode="&#x2da;" horiz-adv-x="433" 
d="M267 713q0 -22 -14.5 -36.5t-36.5 -14.5q-21 0 -37 14q-14 16 -14 37q0 22 14.5 36t36.5 14t36.5 -14t14.5 -36zM359 713q0 59 -42 101t-101 42t-101 -42t-42 -101q0 -60 42 -102t101 -42t101 42t42 102z" />
    <glyph glyph-name="ogonek" unicode="&#x2db;" horiz-adv-x="353" 
d="M231 37h-99q-59 -69 -59 -117q0 -52 30.5 -76t95.5 -24q24 0 81 13v104q-51 -24 -75 -24q-32 0 -32 23q0 11 14 36q13 23 44 65z" />
    <glyph glyph-name="tilde" unicode="&#x2dc;" horiz-adv-x="484" 
d="M202 654l26 -25q33 -32 76 -32q50 0 77.5 42.5t29.5 122.5h-93q-1 -34 -5 -54q-3 -17 -12 -17q-5 0 -19 13h1l-27 25q-39 33 -75 33q-50 0 -78 -43t-30 -122h94q0 31 4 53q4 17 13 17q5 0 18 -13z" />
    <glyph glyph-name="hungarumlaut" unicode="&#x2dd;" horiz-adv-x="530" 
d="M218 575h101l138 208h-126zM73 575h102l124 208h-121z" />
    <glyph glyph-name="hookabovecomb" unicode="&#x309;" horiz-adv-x="0" 
d="M88 682v-20q24 12 46 12q32 0 32 -13q0 -11 -12 -18l-10 -8q-14 -10 -16 -15q-3 -5 -3 -16v-3h28q0 8 1 11q1 1 10 9l10 7q21 15 21 30q0 16 -15 26q-14 10 -40 10q-25 0 -52 -12z" />
    <glyph glyph-name="uni031B" unicode="&#x31b;" horiz-adv-x="0" 
d="M66 481l22 -46q18 9 49 34q41 37 41 114q0 12 -5 32l-48 6q7 -18 7 -30q0 -65 -20 -83q-6 -5 -20.5 -12.5t-25.5 -14.5z" />
    <glyph glyph-name="dotbelowcomb" unicode="&#x323;" horiz-adv-x="0" 
d="M73 -153h130v130h-130v-130z" />
    <glyph glyph-name="uni0326" unicode="&#x326;" horiz-adv-x="0" 
d="M72 -156l-53 -167h94l110 158v120h-151v-111z" />
    <glyph glyph-name="uni032D" unicode="&#x32d;" horiz-adv-x="0" 
d="M-31 -258h107q11 15 35 49q7 10 19.5 27t17.5 23l73 -99h107l-136 208h-88z" />
    <glyph glyph-name="uni0331" unicode="&#x331;" horiz-adv-x="0" 
d="M2 -170h309v104h-309v-104z" />
    <glyph glyph-name="pi" unicode="&#x3c0;" horiz-adv-x="749" 
d="M676 524h-428q-82 0 -120 -33q-39 -36 -55 -136h111q3 33 12 48q8 16 21 17l-124 -420h172q13 77 37 210q10 61 37 210h110q-8 -22 -12 -40q-16 -54 -20 -71q-8 -26 -12 -41v1q-15 -46 -20 -65q-15 -55 -15 -101q0 -54 45 -98t105 -44q30 0 67 11l19 132q-32 -3 -46 -6
q-20 -2 -21 -2q-28 0 -28 30q0 10 3 31q2 7 5.5 25.5t4.5 25.5q3 18 10.5 53.5t11.5 53.5q8 35 22 105h83z" />
    <glyph glyph-name="Bdotbelow" unicode="&#x1e04;" horiz-adv-x="684" 
d="M204 331h132q68 0 100 -27q29 -25 29 -40q0 -53 -27 -71q-33 -19 -102 -19h-132v157zM204 629h120q59 0 88 -27t29 -73q0 -86 -117 -86h-120v186zM73 0h267q125 0 197.5 55.5t72.5 156.5q0 135 -131 183q70 39 70 145q0 90 -62 140q-63 49 -179 49h-235v-729zM248 -9358
h130v130h-130v-130z" />
    <glyph glyph-name="bdotbelow" unicode="&#x1e05;" horiz-adv-x="640" 
d="M438 200q-34 -24 -81 -27q-55 0 -84.5 29t-38.5 89q2 83 35 129q35 43 90 43q57 0 84 -43q31 -45 34 -127q-12 -71 -39 -93zM94 103l100 -62q53 -54 145 -54q102 0 164.5 79.5t62.5 206.5t-62.5 206.5t-164.5 79.5q-91 0 -143 -52l8 239h-121zM257 -6290h130v130h-130
v-130z" />
    <glyph glyph-name="Ddotbelow" unicode="&#x1e0c;" horiz-adv-x="765" 
d="M208 615h95q133 0 195 -59q63 -59 63 -180q-21 -92 -71 -130q-52 -35 -187 -35h-95v404zM73 0h211q207 0 307 88q101 90 101 277q0 184 -100 276q-103 88 -308 88h-211v-729zM247 -147h130v130h-130v-130z" />
    <glyph glyph-name="ddotbelow" unicode="&#x1e0d;" horiz-adv-x="648" 
d="M455 746l-8 -242q-55 55 -147 55q-102 0 -164.5 -79.5t-62.5 -206.5t62.5 -206.5t164.5 -79.5q94 0 145 54v-41h121l9 746h-120zM203 417v-1q33 45 90 45q54 0 83 -46q28 -44 31 -127q-2 -70 -27 -91t-89 -21q-59 0 -86 24q-28 25 -37 85q1 83 35 132zM234 -210h130v130
h-130v-130z" />
    <glyph glyph-name="Dlinebelow" unicode="&#x1e0e;" horiz-adv-x="765" 
d="M208 615h95q133 0 195 -59q63 -59 63 -180q-21 -92 -71 -130q-52 -35 -187 -35h-95v404zM73 0h211q207 0 307 88q101 90 101 277q0 184 -100 276q-103 88 -308 88h-211v-729zM165 -151h309v104h-309v-104z" />
    <glyph glyph-name="dlinebelow" unicode="&#x1e0f;" horiz-adv-x="648" 
d="M455 746l-8 -242q-55 55 -147 55q-102 0 -164.5 -79.5t-62.5 -206.5t62.5 -206.5t164.5 -79.5q94 0 145 54v-41h121l9 746h-120zM203 417v-1q33 45 90 45q54 0 83 -46q28 -44 31 -127q-2 -70 -27 -91t-89 -21q-59 0 -86 24q-28 25 -37 85q1 83 35 132zM152 -214h309v104
h-309v-104z" />
    <glyph glyph-name="Dcircumflexbelow" unicode="&#x1e12;" horiz-adv-x="765" 
d="M208 615h95q133 0 195 -59q63 -59 63 -180q-21 -92 -71 -130q-52 -35 -187 -35h-95v404zM73 0h211q207 0 307 88q101 90 101 277q0 184 -100 276q-103 88 -308 88h-211v-729zM140 -279h107q11 15 35 49q7 10 19.5 27t17.5 23l73 -99h107l-136 208h-88z" />
    <glyph glyph-name="dcircumflexbelow" unicode="&#x1e13;" horiz-adv-x="648" 
d="M455 746l-8 -242q-55 55 -147 55q-102 0 -164.5 -79.5t-62.5 -206.5t62.5 -206.5t164.5 -79.5q94 0 145 54v-41h121l9 746h-120zM203 417v-1q33 45 90 45q54 0 83 -46q28 -44 31 -127q-2 -70 -27 -91t-89 -21q-59 0 -86 24q-28 25 -37 85q1 83 35 132zM127 -342h107
q11 15 35 49q7 10 19.5 27t17.5 23l73 -99h107l-136 208h-88z" />
    <glyph glyph-name="Hdotbelow" unicode="&#x1e24;" horiz-adv-x="721" 
d="M73 0h145v232h284v-232h145l-9 729h-136v-330h-284v330h-135zM290 -159h130v130h-130v-130z" />
    <glyph glyph-name="hdotbelow" unicode="&#x1e25;" horiz-adv-x="630" 
d="M547 327v-1q0 233 -196 233q-90 0 -146 -57l8 244h-121l-19 -746h140q-1 50 -5 153q-1 28 -2.5 80t-1.5 74q0 68 34.5 110t93.5 42q47 0 71 -35t24 -100l-10 -324h140zM195 -153h130v130h-130v-130z" />
    <glyph glyph-name="Idieresisacute" unicode="&#x1e2e;" horiz-adv-x="296" 
d="M73 0h150l-9 729h-126zM182 882h136v135h-136v-135zM-9 882h136v135h-136v-135zM73 911h122l197 227h-149z" />
    <glyph glyph-name="idieresisacute" unicode="&#x1e2f;" horiz-adv-x="267" 
d="M73 0h121v547h-121v-547zM159 700h136v135h-136v-135zM-32 700h136v135h-136v-135zM50 729h122l197 227h-149z" />
    <glyph glyph-name="Ldotbelow" unicode="&#x1e36;" horiz-adv-x="620" 
d="M73 0h463l11 181h-338l4 548h-130zM232 -180h130v130h-130v-130z" />
    <glyph glyph-name="ldotbelow" unicode="&#x1e37;" horiz-adv-x="329" 
d="M73 0h182v140h-56v606h-116zM52 -148h130v130h-130v-130z" />
    <glyph glyph-name="Lcircumflexbelow" unicode="&#x1e3c;" horiz-adv-x="620" 
d="M73 0h463l11 181h-338l4 548h-130zM125 -312h107q11 15 35 49q7 10 19.5 27t17.5 23l73 -99h107l-136 208h-88z" />
    <glyph glyph-name="lcircumflexbelow" unicode="&#x1e3d;" horiz-adv-x="329" 
d="M73 0h182v140h-56v606h-116zM-55 -280h107q11 15 35 49q7 10 19.5 27t17.5 23l73 -99h107l-136 208h-88z" />
    <glyph glyph-name="Macute" unicode="&#x1e3e;" horiz-adv-x="865" 
d="M73 0h172q-6 162 -8 250q-6 168 -8 252l134 -392h139l134 391l-16 -501h172l-29 729h-161l-169 -353l-161 353h-169zM377 845h122l197 227h-149z" />
    <glyph glyph-name="macute" unicode="&#x1e3f;" horiz-adv-x="947" 
d="M458 528q-48 31 -109 31q-83 0 -138 -49l3 37h-122l-19 -547h149q-1 50 -5 153q-1 24 -2.5 76.5t-2.5 77.5q0 67 37 115q34 46 90 46q87 0 88 -124l-34 -344h154l5 306q0 71 31.5 114t86.5 43q42 0 58 -28t16 -97l-25 -338h155q-1 49 -5 164q-1 26 -2.5 81t-2.5 82v-1
q0 113 -48 173t-136 60q-61 0 -99 -23t-68 -67q-19 36 -55 59zM73 556h122l197 227h-149z" />
    <glyph glyph-name="Ndotaccent" unicode="&#x1e44;" horiz-adv-x="717" 
d="M73 0h157q-6 133 -12 256q-4 87 -12 259l273 -515h165v729h-123l-13 -509l-270 495h-146zM302 796h130v130h-130v-130z" />
    <glyph glyph-name="ndotaccent" unicode="&#x1e45;" horiz-adv-x="644" 
d="M570 0l-14 327q-6 113 -56.5 172.5t-145.5 59.5q-56 0 -103 -25q-38 -23 -43 -26v43h-120l-15 -551h154l-15 312q0 143 133 143q46 0 66 -31t20 -95l-19 -329h158zM243 614h130v130h-130v-130z" />
    <glyph glyph-name="Ndotbelow" unicode="&#x1e46;" horiz-adv-x="717" 
d="M73 0h157q-6 133 -12 256q-4 87 -12 259l273 -515h165v729h-123l-13 -509l-270 495h-146zM299 -148h130v130h-130v-130z" />
    <glyph glyph-name="ndotbelow" unicode="&#x1e47;" horiz-adv-x="644" 
d="M570 0l-14 327q-6 113 -56.5 172.5t-145.5 59.5q-56 0 -103 -25q-38 -23 -43 -26v43h-120l-15 -551h154l-15 312q0 143 133 143q46 0 66 -31t20 -95l-19 -329h158zM240 -148h130v130h-130v-130z" />
    <glyph glyph-name="Ncircumflexbelow" unicode="&#x1e4a;" horiz-adv-x="717" 
d="M73 0h157q-6 133 -12 256q-4 87 -12 259l273 -515h165v729h-123l-13 -509l-270 495h-146zM192 -280h107q11 15 35 49q7 10 19.5 27t17.5 23l73 -99h107l-136 208h-88z" />
    <glyph glyph-name="ncircumflexbelow" unicode="&#x1e4b;" horiz-adv-x="644" 
d="M570 0l-14 327q-6 113 -56.5 172.5t-145.5 59.5q-56 0 -103 -25q-38 -23 -43 -26v43h-120l-15 -551h154l-15 312q0 143 133 143q46 0 66 -31t20 -95l-19 -329h158zM133 -280h107q11 15 35 49q7 10 19.5 27t17.5 23l73 -99h107l-136 208h-88z" />
    <glyph glyph-name="Otildeacute" unicode="&#x1e4c;" horiz-adv-x="824" 
d="M413 628q93 0 147.5 -70t54.5 -194q0 -92 -49.5 -127t-152.5 -35q-97 0 -153 33q-51 34 -51 129q0 123 56 196q57 68 148 68zM413 742q-155 0 -248 -104q-92 -104 -92 -274t92 -274q93 -104 248 -104q153 0 246 104q92 104 92 274t-92 274q-93 104 -246 104zM372 787
l26 -25q33 -32 76 -32q50 0 77.5 42.5t29.5 122.5h-93q-1 -34 -5 -54q-3 -17 -12 -17q-5 0 -19 13h1l-27 25q-39 33 -75 33q-50 0 -78 -43t-30 -122h94q0 31 4 53q4 17 13 17q5 0 18 -13zM330 911h122l197 227h-149z" />
    <glyph glyph-name="otildeacute" unicode="&#x1e4d;" 
d="M326 461q58 0 92.5 -46t34.5 -127q0 -77 -31 -99q-37 -21 -96 -21q-70 0 -99 23t-29 97q0 81 34.5 127t93.5 46zM326 559q-120 0 -186 -77q-67 -76 -67 -209t67 -209q66 -77 186 -77q117 0 184.5 77t67.5 209t-67.5 209t-184.5 77zM285 818l26 -25q33 -32 76 -32
q50 0 77.5 42.5t29.5 122.5h-93q-1 -34 -5 -54q-3 -17 -12 -17q-5 0 -19 13h1l-27 25q-39 33 -75 33q-50 0 -78 -43t-30 -122h94q0 31 4 53q4 17 13 17q5 0 18 -13zM243 729h122l197 227h-149z" />
    <glyph glyph-name="Omacrongrave" unicode="&#x1e50;" horiz-adv-x="824" 
d="M413 628q93 0 147.5 -70t54.5 -194q0 -92 -49.5 -127t-152.5 -35q-97 0 -153 33q-51 34 -51 129q0 123 56 196q57 68 148 68zM413 742q-155 0 -248 -104q-92 -104 -92 -274t92 -274q93 -104 248 -104q153 0 246 104q92 104 92 274t-92 274q-93 104 -246 104zM257 761h309
v104h-309v-104zM235 1153l115 -207h171l-156 207h-130z" />
    <glyph glyph-name="omacrongrave" unicode="&#x1e51;" 
d="M326 461q58 0 92.5 -46t34.5 -127q0 -77 -31 -99q-37 -21 -96 -21q-70 0 -99 23t-29 97q0 81 34.5 127t93.5 46zM326 559q-120 0 -186 -77q-67 -76 -67 -209t67 -209q66 -77 186 -77q117 0 184.5 77t67.5 209t-67.5 209t-184.5 77zM170 579h309v104h-309v-104zM148 971
l115 -207h171l-156 207h-130z" />
    <glyph glyph-name="Omacronacute" unicode="&#x1e52;" horiz-adv-x="824" 
d="M413 628q93 0 147.5 -70t54.5 -194q0 -92 -49.5 -127t-152.5 -35q-97 0 -153 33q-51 34 -51 129q0 123 56 196q57 68 148 68zM413 742q-155 0 -248 -104q-92 -104 -92 -274t92 -274q93 -104 248 -104q153 0 246 104q92 104 92 274t-92 274q-93 104 -246 104zM257 761h309
v104h-309v-104zM330 911h122l197 227h-149z" />
    <glyph glyph-name="omacronacute" unicode="&#x1e53;" 
d="M326 461q58 0 92.5 -46t34.5 -127q0 -77 -31 -99q-37 -21 -96 -21q-70 0 -99 23t-29 97q0 81 34.5 127t93.5 46zM326 559q-120 0 -186 -77q-67 -76 -67 -209t67 -209q66 -77 186 -77q117 0 184.5 77t67.5 209t-67.5 209t-184.5 77zM170 579h309v104h-309v-104zM243 729
h122l197 227h-149z" />
    <glyph glyph-name="Sdotbelow" unicode="&#x1e62;" horiz-adv-x="670" 
d="M556 567v134q-123 41 -222 41q-120 0 -190.5 -58t-70.5 -159q0 -86 51.5 -136t161.5 -71l57 -11q66 -14 94 -38q25 -25 25 -43q0 -22 -35 -47q-41 -29 -114 -29q-97 0 -237 79v-193q135 -50 237 -50q140 0 212 56.5t72 166.5q0 93 -53.5 147.5t-166.5 76.5h1l-57 11
q-73 14 -96 34q-21 16 -21 55q0 46 36.5 70.5t104.5 24.5q80 0 211 -61zM255 -148h130v130h-130v-130z" />
    <glyph glyph-name="sdotbelow" unicode="&#x1e63;" horiz-adv-x="573" 
d="M473 414v112q-82 33 -181 33q-104 0 -159.5 -43t-55.5 -125q0 -67 38.5 -101.5t123.5 -51.5h-1l30 -7q69 -15 79 -23q4 -5 21 -32q0 -23 -24 -34q-22 -12 -72 -12q-84 0 -199 60v-166q112 -37 198 -37q105 0 167 46t62 126q0 70 -44 109q-43 37 -136 56q-7 0 -13 3l-15 3
q-63 14 -84 30q-18 15 -18 39q0 29 28.5 45.5t82.5 16.5q76 0 172 -47zM207 -148h130v130h-130v-130z" />
    <glyph glyph-name="Tdotbelow" unicode="&#x1e6c;" horiz-adv-x="769" 
d="M73 613l245 9l-18 -622h169l-18 622l245 -10v117h-623v-116zM316 -148h130v130h-130v-130z" />
    <glyph glyph-name="tdotbelow" unicode="&#x1e6d;" horiz-adv-x="501" 
d="M140 673l-5 -126h-62v-102h62l-5 -258q0 -103 44.5 -145t149.5 -42h104v161h-104q-45 0 -56 13q-13 12 -13 67l5 204h118v102h-117l4 126h-125zM177 -148h130v130h-130v-130z" />
    <glyph glyph-name="Tlinebelow" unicode="&#x1e6e;" horiz-adv-x="769" 
d="M73 613l245 9l-18 -622h169l-18 622l245 -10v117h-623v-116zM234 -152h309v104h-309v-104z" />
    <glyph glyph-name="tlinebelow" unicode="&#x1e6f;" horiz-adv-x="501" 
d="M140 673l-5 -126h-62v-102h62l-5 -258q0 -103 44.5 -145t149.5 -42h104v161h-104q-45 0 -56 13q-13 12 -13 67l5 204h118v102h-117l4 126h-125zM95 -152h309v104h-309v-104z" />
    <glyph glyph-name="Tcircumflexbelow" unicode="&#x1e70;" horiz-adv-x="769" 
d="M73 613l245 9l-18 -622h169l-18 622l245 -10v117h-623v-116zM209 -280h107q11 15 35 49q7 10 19.5 27t17.5 23l73 -99h107l-136 208h-88z" />
    <glyph glyph-name="tcircumflexbelow" unicode="&#x1e71;" horiz-adv-x="501" 
d="M140 673l-5 -126h-62v-102h62l-5 -258q0 -103 44.5 -145t149.5 -42h104v161h-104q-45 0 -56 13q-13 12 -13 67l5 204h118v102h-117l4 126h-125zM70 -280h107q11 15 35 49q7 10 19.5 27t17.5 23l73 -99h107l-136 208h-88z" />
    <glyph glyph-name="Wgrave" unicode="&#x1e80;" horiz-adv-x="1070" 
d="M236 0h174q8 19 62 162q11 31 32 87.5t30 81.5l115 -331h164l184 729h-128q-32 -103 -75 -235q-6 -20 -74 -243l-135 297h-106q-10 -21 -22 -44.5t-27 -52.5t-24 -46q-8 -17 -23.5 -46.5t-27.5 -53.5t-23 -45l-132 469h-127zM354 1153l115 -207h171l-156 207h-130z" />
    <glyph glyph-name="wgrave" unicode="&#x1e81;" horiz-adv-x="879" 
d="M216 0h139l84 201l80 -201h144l143 547h-121q-16 -52 -48 -162t-48 -164l-79 157h-140l-79 -157l-96 326h-122zM263 971l115 -207h171l-156 207h-130z" />
    <glyph glyph-name="Wacute" unicode="&#x1e82;" horiz-adv-x="1070" 
d="M236 0h174q8 19 62 162q11 31 32 87.5t30 81.5l115 -331h164l184 729h-128q-32 -103 -75 -235q-6 -20 -74 -243l-135 297h-106q-10 -21 -22 -44.5t-27 -52.5t-24 -46q-8 -17 -23.5 -46.5t-27.5 -53.5t-23 -45l-132 469h-127zM449 911h122l197 227h-149z" />
    <glyph glyph-name="wacute" unicode="&#x1e83;" horiz-adv-x="879" 
d="M216 0h139l84 201l80 -201h144l143 547h-121q-16 -52 -48 -162t-48 -164l-79 157h-140l-79 -157l-96 326h-122zM358 729h122l197 227h-149z" />
    <glyph glyph-name="Wdieresis" unicode="&#x1e84;" horiz-adv-x="1070" 
d="M236 0h174q8 19 62 162q11 31 32 87.5t30 81.5l115 -331h164l184 729h-128q-32 -103 -75 -235q-6 -20 -74 -243l-135 297h-106q-10 -21 -22 -44.5t-27 -52.5t-24 -46q-8 -17 -23.5 -46.5t-27.5 -53.5t-23 -45l-132 469h-127zM558 882h136v135h-136v-135zM367 882h136v135
h-136v-135z" />
    <glyph glyph-name="wdieresis" unicode="&#x1e85;" horiz-adv-x="879" 
d="M216 0h139l84 201l80 -201h144l143 547h-121q-16 -52 -48 -162t-48 -164l-79 157h-140l-79 -157l-96 326h-122zM467 700h136v135h-136v-135zM276 700h136v135h-136v-135z" />
    <glyph glyph-name="Zdotbelow" unicode="&#x1e92;" horiz-adv-x="749" 
d="M84 613h403l-414 -455v-158h602v176h-425l415 456v97h-581v-116zM312 29h130v130h-130v-130z" />
    <glyph glyph-name="zdotbelow" unicode="&#x1e93;" horiz-adv-x="597" 
d="M94 448h279l-300 -301v-147h446v149h-261l266 296v102h-430v-99zM240 -153h130v130h-130v-130z" />
    <glyph glyph-name="Adotbelow" unicode="&#x1ea0;" horiz-adv-x="835" 
d="M520 260h-204q22 66 26 79q3 9 12 35.5t14 40.5q8 24 24 74q3 10 12 36t13 40zM73 0h167l35 113h284l26 -113h177l-288 729h-113zM347 -153h130v130h-130v-130z" />
    <glyph glyph-name="adotbelow" unicode="&#x1ea1;" horiz-adv-x="614" 
d="M374 261v-1q0 -70 -20 -89.5t-79 -19.5q-41 0 -71 8q-18 6 -24 31q2 38 24 53q25 18 112 18h58zM541 0v310q0 249 -238 249q-84 0 -192 -41v-111q102 54 182 54q58 -4 91 -31t36 -71h-99q-248 0 -248 -192q0 -82 52 -131t138 -49q97 0 157 55v-42h121zM260 -153h130v130
h-130v-130z" />
    <glyph glyph-name="Ahookabove" unicode="&#x1ea2;" horiz-adv-x="835" 
d="M520 260h-204q22 66 26 79q3 9 12 35.5t14 40.5q8 24 24 74q3 10 12 36t13 40zM73 0h167l35 113h284l26 -113h177l-288 729h-113zM371 844v-20q24 12 46 12q32 0 32 -13q0 -11 -12 -18l-10 -8q-14 -10 -16 -15q-3 -5 -3 -16v-3h28q0 8 1 11q1 1 10 9l10 7q21 15 21 30
q0 16 -15 26q-14 10 -40 10q-25 0 -52 -12z" />
    <glyph glyph-name="ahookabove" unicode="&#x1ea3;" horiz-adv-x="614" 
d="M374 261v-1q0 -70 -20 -89.5t-79 -19.5q-41 0 -71 8q-18 6 -24 31q2 38 24 53q25 18 112 18h58zM541 0v310q0 249 -238 249q-84 0 -192 -41v-111q102 54 182 54q58 -4 91 -31t36 -71h-99q-248 0 -248 -192q0 -82 52 -131t138 -49q97 0 157 55v-42h121zM279 662v-20
q24 12 46 12q32 0 32 -13q0 -11 -12 -18l-10 -8q-14 -10 -16 -15q-3 -5 -3 -16v-3h28q0 8 1 11q1 1 10 9l10 7q21 15 21 30q0 16 -15 26q-14 10 -40 10q-25 0 -52 -12z" />
    <glyph glyph-name="Acircumflexacute" unicode="&#x1ea4;" horiz-adv-x="835" 
d="M520 260h-204q22 66 26 79q3 9 12 35.5t14 40.5q8 24 24 74q3 10 12 36t13 40zM73 0h167l35 113h284l26 -113h177l-288 729h-113zM238 757h107q11 15 35 49q7 10 19.5 27t17.5 23l73 -99h107l-136 208h-88zM335 911h122l197 227h-149z" />
    <glyph glyph-name="acircumflexacute" unicode="&#x1ea5;" horiz-adv-x="614" 
d="M374 261v-1q0 -70 -20 -89.5t-79 -19.5q-41 0 -71 8q-18 6 -24 31q2 38 24 53q25 18 112 18h58zM541 0v310q0 249 -238 249q-84 0 -192 -41v-111q102 54 182 54q58 -4 91 -31t36 -71h-99q-248 0 -248 -192q0 -82 52 -131t138 -49q97 0 157 55v-42h121zM146 575h107
q11 15 35 49q7 10 19.5 27t17.5 23l73 -99h107l-136 208h-88zM243 729h122l197 227h-149z" />
    <glyph glyph-name="Acircumflexgrave" unicode="&#x1ea6;" horiz-adv-x="835" 
d="M520 260h-204q22 66 26 79q3 9 12 35.5t14 40.5q8 24 24 74q3 10 12 36t13 40zM73 0h167l35 113h284l26 -113h177l-288 729h-113zM238 757h107q11 15 35 49q7 10 19.5 27t17.5 23l73 -99h107l-136 208h-88zM240 1153l115 -207h171l-156 207h-130z" />
    <glyph glyph-name="acircumflexgrave" unicode="&#x1ea7;" horiz-adv-x="614" 
d="M374 261v-1q0 -70 -20 -89.5t-79 -19.5q-41 0 -71 8q-18 6 -24 31q2 38 24 53q25 18 112 18h58zM541 0v310q0 249 -238 249q-84 0 -192 -41v-111q102 54 182 54q58 -4 91 -31t36 -71h-99q-248 0 -248 -192q0 -82 52 -131t138 -49q97 0 157 55v-42h121zM146 575h107
q11 15 35 49q7 10 19.5 27t17.5 23l73 -99h107l-136 208h-88zM148 971l115 -207h171l-156 207h-130z" />
    <glyph glyph-name="Acircumflexhookabove" unicode="&#x1ea8;" horiz-adv-x="835" 
d="M520 260h-204q22 66 26 79q3 9 12 35.5t14 40.5q8 24 24 74q3 10 12 36t13 40zM73 0h167l35 113h284l26 -113h177l-288 729h-113zM238 757h107q11 15 35 49q7 10 19.5 27t17.5 23l73 -99h107l-136 208h-88zM371 844v-20q24 12 46 12q32 0 32 -13q0 -11 -12 -18l-10 -8
q-14 -10 -16 -15q-3 -5 -3 -16v-3h28q0 8 1 11q1 1 10 9l10 7q21 15 21 30q0 16 -15 26q-14 10 -40 10q-25 0 -52 -12z" />
    <glyph glyph-name="acircumflexhookabove" unicode="&#x1ea9;" horiz-adv-x="614" 
d="M374 261v-1q0 -70 -20 -89.5t-79 -19.5q-41 0 -71 8q-18 6 -24 31q2 38 24 53q25 18 112 18h58zM541 0v310q0 249 -238 249q-84 0 -192 -41v-111q102 54 182 54q58 -4 91 -31t36 -71h-99q-248 0 -248 -192q0 -82 52 -131t138 -49q97 0 157 55v-42h121zM146 575h107
q11 15 35 49q7 10 19.5 27t17.5 23l73 -99h107l-136 208h-88zM279 662v-20q24 12 46 12q32 0 32 -13q0 -11 -12 -18l-10 -8q-14 -10 -16 -15q-3 -5 -3 -16v-3h28q0 8 1 11q1 1 10 9l10 7q21 15 21 30q0 16 -15 26q-14 10 -40 10q-25 0 -52 -12z" />
    <glyph glyph-name="Acircumflextilde" unicode="&#x1eaa;" horiz-adv-x="835" 
d="M520 260h-204q22 66 26 79q3 9 12 35.5t14 40.5q8 24 24 74q3 10 12 36t13 40zM73 0h167l35 113h284l26 -113h177l-288 729h-113zM238 757h107q11 15 35 49q7 10 19.5 27t17.5 23l73 -99h107l-136 208h-88zM377 1000l26 -25q33 -32 76 -32q50 0 77.5 42.5t29.5 122.5h-93
q-1 -34 -5 -54q-3 -17 -12 -17q-5 0 -19 13h1l-27 25q-39 33 -75 33q-50 0 -78 -43t-30 -122h94q0 31 4 53q4 17 13 17q5 0 18 -13z" />
    <glyph glyph-name="acircumflextilde" unicode="&#x1eab;" horiz-adv-x="614" 
d="M374 261v-1q0 -70 -20 -89.5t-79 -19.5q-41 0 -71 8q-18 6 -24 31q2 38 24 53q25 18 112 18h58zM541 0v310q0 249 -238 249q-84 0 -192 -41v-111q102 54 182 54q58 -4 91 -31t36 -71h-99q-248 0 -248 -192q0 -82 52 -131t138 -49q97 0 157 55v-42h121zM146 575h107
q11 15 35 49q7 10 19.5 27t17.5 23l73 -99h107l-136 208h-88zM285 818l26 -25q33 -32 76 -32q50 0 77.5 42.5t29.5 122.5h-93q-1 -34 -5 -54q-3 -17 -12 -17q-5 0 -19 13h1l-27 25q-39 33 -75 33q-50 0 -78 -43t-30 -122h94q0 31 4 53q4 17 13 17q5 0 18 -13z" />
    <glyph glyph-name="Acircumflexdotbelow" unicode="&#x1eac;" horiz-adv-x="835" 
d="M520 260h-204q22 66 26 79q3 9 12 35.5t14 40.5q8 24 24 74q3 10 12 36t13 40zM73 0h167l35 113h284l26 -113h177l-288 729h-113zM347 -153h130v130h-130v-130zM238 757h107q11 15 35 49q7 10 19.5 27t17.5 23l73 -99h107l-136 208h-88z" />
    <glyph glyph-name="acircumflexdotbelow" unicode="&#x1ead;" horiz-adv-x="614" 
d="M374 261v-1q0 -70 -20 -89.5t-79 -19.5q-41 0 -71 8q-18 6 -24 31q2 38 24 53q25 18 112 18h58zM541 0v310q0 249 -238 249q-84 0 -192 -41v-111q102 54 182 54q58 -4 91 -31t36 -71h-99q-248 0 -248 -192q0 -82 52 -131t138 -49q97 0 157 55v-42h121zM260 -153h130v130
h-130v-130zM146 575h107q11 15 35 49q7 10 19.5 27t17.5 23l73 -99h107l-136 208h-88z" />
    <glyph glyph-name="Abreveacute" unicode="&#x1eae;" horiz-adv-x="835" 
d="M520 260h-204q22 66 26 79q3 9 12 35.5t14 40.5q8 24 24 74q3 10 12 36t13 40zM73 0h167l35 113h284l26 -113h177l-288 729h-113zM345 927h-90q12 -167 162 -167q151 0 162 167h-88q-12 -68 -74 -68q-63 0 -72 68zM335 911h122l197 227h-149z" />
    <glyph glyph-name="abreveacute" unicode="&#x1eaf;" horiz-adv-x="614" 
d="M374 261v-1q0 -70 -20 -89.5t-79 -19.5q-41 0 -71 8q-18 6 -24 31q2 38 24 53q25 18 112 18h58zM541 0v310q0 249 -238 249q-84 0 -192 -41v-111q102 54 182 54q58 -4 91 -31t36 -71h-99q-248 0 -248 -192q0 -82 52 -131t138 -49q97 0 157 55v-42h121zM253 745h-90
q12 -167 162 -167q151 0 162 167h-88q-12 -68 -74 -68q-63 0 -72 68zM243 729h122l197 227h-149z" />
    <glyph glyph-name="Abrevegrave" unicode="&#x1eb0;" horiz-adv-x="835" 
d="M520 260h-204q22 66 26 79q3 9 12 35.5t14 40.5q8 24 24 74q3 10 12 36t13 40zM73 0h167l35 113h284l26 -113h177l-288 729h-113zM345 927h-90q12 -167 162 -167q151 0 162 167h-88q-12 -68 -74 -68q-63 0 -72 68zM240 1153l115 -207h171l-156 207h-130z" />
    <glyph glyph-name="abrevegrave" unicode="&#x1eb1;" horiz-adv-x="614" 
d="M374 261v-1q0 -70 -20 -89.5t-79 -19.5q-41 0 -71 8q-18 6 -24 31q2 38 24 53q25 18 112 18h58zM541 0v310q0 249 -238 249q-84 0 -192 -41v-111q102 54 182 54q58 -4 91 -31t36 -71h-99q-248 0 -248 -192q0 -82 52 -131t138 -49q97 0 157 55v-42h121zM253 745h-90
q12 -167 162 -167q151 0 162 167h-88q-12 -68 -74 -68q-63 0 -72 68zM148 971l115 -207h171l-156 207h-130z" />
    <glyph glyph-name="Abrevehookabove" unicode="&#x1eb2;" horiz-adv-x="835" 
d="M520 260h-204q22 66 26 79q3 9 12 35.5t14 40.5q8 24 24 74q3 10 12 36t13 40zM73 0h167l35 113h284l26 -113h177l-288 729h-113zM345 927h-90q12 -167 162 -167q151 0 162 167h-88q-12 -68 -74 -68q-63 0 -72 68zM371 844v-20q24 12 46 12q32 0 32 -13q0 -11 -12 -18
l-10 -8q-14 -10 -16 -15q-3 -5 -3 -16v-3h28q0 8 1 11q1 1 10 9l10 7q21 15 21 30q0 16 -15 26q-14 10 -40 10q-25 0 -52 -12z" />
    <glyph glyph-name="abrevehookabove" unicode="&#x1eb3;" horiz-adv-x="614" 
d="M374 261v-1q0 -70 -20 -89.5t-79 -19.5q-41 0 -71 8q-18 6 -24 31q2 38 24 53q25 18 112 18h58zM541 0v310q0 249 -238 249q-84 0 -192 -41v-111q102 54 182 54q58 -4 91 -31t36 -71h-99q-248 0 -248 -192q0 -82 52 -131t138 -49q97 0 157 55v-42h121zM253 745h-90
q12 -167 162 -167q151 0 162 167h-88q-12 -68 -74 -68q-63 0 -72 68zM279 662v-20q24 12 46 12q32 0 32 -13q0 -11 -12 -18l-10 -8q-14 -10 -16 -15q-3 -5 -3 -16v-3h28q0 8 1 11q1 1 10 9l10 7q21 15 21 30q0 16 -15 26q-14 10 -40 10q-25 0 -52 -12z" />
    <glyph glyph-name="Abrevetilde" unicode="&#x1eb4;" horiz-adv-x="835" 
d="M520 260h-204q22 66 26 79q3 9 12 35.5t14 40.5q8 24 24 74q3 10 12 36t13 40zM73 0h167l35 113h284l26 -113h177l-288 729h-113zM345 927h-90q12 -167 162 -167q151 0 162 167h-88q-12 -68 -74 -68q-63 0 -72 68zM377 1000l26 -25q33 -32 76 -32q50 0 77.5 42.5
t29.5 122.5h-93q-1 -34 -5 -54q-3 -17 -12 -17q-5 0 -19 13h1l-27 25q-39 33 -75 33q-50 0 -78 -43t-30 -122h94q0 31 4 53q4 17 13 17q5 0 18 -13z" />
    <glyph glyph-name="abrevetilde" unicode="&#x1eb5;" horiz-adv-x="614" 
d="M374 261v-1q0 -70 -20 -89.5t-79 -19.5q-41 0 -71 8q-18 6 -24 31q2 38 24 53q25 18 112 18h58zM541 0v310q0 249 -238 249q-84 0 -192 -41v-111q102 54 182 54q58 -4 91 -31t36 -71h-99q-248 0 -248 -192q0 -82 52 -131t138 -49q97 0 157 55v-42h121zM253 745h-90
q12 -167 162 -167q151 0 162 167h-88q-12 -68 -74 -68q-63 0 -72 68zM285 818l26 -25q33 -32 76 -32q50 0 77.5 42.5t29.5 122.5h-93q-1 -34 -5 -54q-3 -17 -12 -17q-5 0 -19 13h1l-27 25q-39 33 -75 33q-50 0 -78 -43t-30 -122h94q0 31 4 53q4 17 13 17q5 0 18 -13z" />
    <glyph glyph-name="Abrevedotbelow" unicode="&#x1eb6;" horiz-adv-x="835" 
d="M520 260h-204q22 66 26 79q3 9 12 35.5t14 40.5q8 24 24 74q3 10 12 36t13 40zM73 0h167l35 113h284l26 -113h177l-288 729h-113zM347 -153h130v130h-130v-130zM345 927h-90q12 -167 162 -167q151 0 162 167h-88q-12 -68 -74 -68q-63 0 -72 68z" />
    <glyph glyph-name="abrevedotbelow" unicode="&#x1eb7;" horiz-adv-x="614" 
d="M374 261v-1q0 -70 -20 -89.5t-79 -19.5q-41 0 -71 8q-18 6 -24 31q2 38 24 53q25 18 112 18h58zM541 0v310q0 249 -238 249q-84 0 -192 -41v-111q102 54 182 54q58 -4 91 -31t36 -71h-99q-248 0 -248 -192q0 -82 52 -131t138 -49q97 0 157 55v-42h121zM260 -153h130v130
h-130v-130zM253 745h-90q12 -167 162 -167q151 0 162 167h-88q-12 -68 -74 -68q-63 0 -72 68z" />
    <glyph glyph-name="Edotbelow" unicode="&#x1eb8;" horiz-adv-x="629" 
d="M73 0h483v181h-352v149h329v115h-329v168h344v116h-475v-729zM238 -148h130v130h-130v-130z" />
    <glyph glyph-name="edotbelow" unicode="&#x1eb9;" 
d="M578 276v52q-9 115 -68 171h1q-59 56 -169 60q-122 0 -193 -78t-76 -212q0 -129 77 -204q78 -74 205 -78q103 0 208 45l-2 158q-69 -36 -109 -39q-41 -4 -92 -4q-80 7 -122 32q-34 24 -40 97h380zM464 386h-256q6 27 35 56v-1q36 38 99 38q54 0 86 -38q26 -32 36 -55z
M296 -161h130v130h-130v-130z" />
    <glyph glyph-name="Ehookabove" unicode="&#x1eba;" horiz-adv-x="629" 
d="M73 0h483v181h-352v149h329v115h-329v168h344v116h-475v-729zM260 844v-20q24 12 46 12q32 0 32 -13q0 -11 -12 -18l-10 -8q-14 -10 -16 -15q-3 -5 -3 -16v-3h28q0 8 1 11q1 1 10 9l10 7q21 15 21 30q0 16 -15 26q-14 10 -40 10q-25 0 -52 -12z" />
    <glyph glyph-name="ehookabove" unicode="&#x1ebb;" 
d="M578 276v52q-9 115 -68 171h1q-59 56 -169 60q-122 0 -193 -78t-76 -212q0 -129 77 -204q78 -74 205 -78q103 0 208 45l-2 158q-69 -36 -109 -39q-41 -4 -92 -4q-80 7 -122 32q-34 24 -40 97h380zM464 386h-256q6 27 35 56v-1q36 38 99 38q54 0 86 -38q26 -32 36 -55z
M290 662v-20q24 12 46 12q32 0 32 -13q0 -11 -12 -18l-10 -8q-14 -10 -16 -15q-3 -5 -3 -16v-3h28q0 8 1 11q1 1 10 9l10 7q21 15 21 30q0 16 -15 26q-14 10 -40 10q-25 0 -52 -12z" />
    <glyph glyph-name="Etilde" unicode="&#x1ebc;" horiz-adv-x="629" 
d="M73 0h483v181h-352v149h329v115h-329v168h344v116h-475v-729zM266 1000l26 -25q33 -32 76 -32q50 0 77.5 42.5t29.5 122.5h-93q-1 -34 -5 -54q-3 -17 -12 -17q-5 0 -19 13h1l-27 25q-39 33 -75 33q-50 0 -78 -43t-30 -122h94q0 31 4 53q4 17 13 17q5 0 18 -13z" />
    <glyph glyph-name="etilde" unicode="&#x1ebd;" 
d="M578 276v52q-9 115 -68 171h1q-59 56 -169 60q-122 0 -193 -78t-76 -212q0 -129 77 -204q78 -74 205 -78q103 0 208 45l-2 158q-69 -36 -109 -39q-41 -4 -92 -4q-80 7 -122 32q-34 24 -40 97h380zM464 386h-256q6 27 35 56v-1q36 38 99 38q54 0 86 -38q26 -32 36 -55z
M296 818l26 -25q33 -32 76 -32q50 0 77.5 42.5t29.5 122.5h-93q-1 -34 -5 -54q-3 -17 -12 -17q-5 0 -19 13h1l-27 25q-39 33 -75 33q-50 0 -78 -43t-30 -122h94q0 31 4 53q4 17 13 17q5 0 18 -13z" />
    <glyph glyph-name="Ecircumflexacute" unicode="&#x1ebe;" horiz-adv-x="629" 
d="M73 0h483v181h-352v149h329v115h-329v168h344v116h-475v-729zM127 757h107q11 15 35 49q7 10 19.5 27t17.5 23l73 -99h107l-136 208h-88zM224 911h122l197 227h-149z" />
    <glyph glyph-name="ecircumflexacute" unicode="&#x1ebf;" 
d="M578 276v52q-9 115 -68 171h1q-59 56 -169 60q-122 0 -193 -78t-76 -212q0 -129 77 -204q78 -74 205 -78q103 0 208 45l-2 158q-69 -36 -109 -39q-41 -4 -92 -4q-80 7 -122 32q-34 24 -40 97h380zM464 386h-256q6 27 35 56v-1q36 38 99 38q54 0 86 -38q26 -32 36 -55z
M157 575h107q11 15 35 49q7 10 19.5 27t17.5 23l73 -99h107l-136 208h-88zM254 729h122l197 227h-149z" />
    <glyph glyph-name="Ecircumflexgrave" unicode="&#x1ec0;" horiz-adv-x="629" 
d="M73 0h483v181h-352v149h329v115h-329v168h344v116h-475v-729zM127 757h107q11 15 35 49q7 10 19.5 27t17.5 23l73 -99h107l-136 208h-88zM129 1153l115 -207h171l-156 207h-130z" />
    <glyph glyph-name="ecircumflexgrave" unicode="&#x1ec1;" 
d="M578 276v52q-9 115 -68 171h1q-59 56 -169 60q-122 0 -193 -78t-76 -212q0 -129 77 -204q78 -74 205 -78q103 0 208 45l-2 158q-69 -36 -109 -39q-41 -4 -92 -4q-80 7 -122 32q-34 24 -40 97h380zM464 386h-256q6 27 35 56v-1q36 38 99 38q54 0 86 -38q26 -32 36 -55z
M157 575h107q11 15 35 49q7 10 19.5 27t17.5 23l73 -99h107l-136 208h-88zM159 971l115 -207h171l-156 207h-130z" />
    <glyph glyph-name="Ecircumflexhookabove" unicode="&#x1ec2;" horiz-adv-x="629" 
d="M73 0h483v181h-352v149h329v115h-329v168h344v116h-475v-729zM127 757h107q11 15 35 49q7 10 19.5 27t17.5 23l73 -99h107l-136 208h-88zM260 844v-20q24 12 46 12q32 0 32 -13q0 -11 -12 -18l-10 -8q-14 -10 -16 -15q-3 -5 -3 -16v-3h28q0 8 1 11q1 1 10 9l10 7
q21 15 21 30q0 16 -15 26q-14 10 -40 10q-25 0 -52 -12z" />
    <glyph glyph-name="ecircumflexhookabove" unicode="&#x1ec3;" 
d="M578 276v52q-9 115 -68 171h1q-59 56 -169 60q-122 0 -193 -78t-76 -212q0 -129 77 -204q78 -74 205 -78q103 0 208 45l-2 158q-69 -36 -109 -39q-41 -4 -92 -4q-80 7 -122 32q-34 24 -40 97h380zM464 386h-256q6 27 35 56v-1q36 38 99 38q54 0 86 -38q26 -32 36 -55z
M157 575h107q11 15 35 49q7 10 19.5 27t17.5 23l73 -99h107l-136 208h-88zM290 662v-20q24 12 46 12q32 0 32 -13q0 -11 -12 -18l-10 -8q-14 -10 -16 -15q-3 -5 -3 -16v-3h28q0 8 1 11q1 1 10 9l10 7q21 15 21 30q0 16 -15 26q-14 10 -40 10q-25 0 -52 -12z" />
    <glyph glyph-name="Ecircumflextilde" unicode="&#x1ec4;" horiz-adv-x="629" 
d="M73 0h483v181h-352v149h329v115h-329v168h344v116h-475v-729zM127 757h107q11 15 35 49q7 10 19.5 27t17.5 23l73 -99h107l-136 208h-88zM266 1000l26 -25q33 -32 76 -32q50 0 77.5 42.5t29.5 122.5h-93q-1 -34 -5 -54q-3 -17 -12 -17q-5 0 -19 13h1l-27 25
q-39 33 -75 33q-50 0 -78 -43t-30 -122h94q0 31 4 53q4 17 13 17q5 0 18 -13z" />
    <glyph glyph-name="ecircumflextilde" unicode="&#x1ec5;" 
d="M578 276v52q-9 115 -68 171h1q-59 56 -169 60q-122 0 -193 -78t-76 -212q0 -129 77 -204q78 -74 205 -78q103 0 208 45l-2 158q-69 -36 -109 -39q-41 -4 -92 -4q-80 7 -122 32q-34 24 -40 97h380zM464 386h-256q6 27 35 56v-1q36 38 99 38q54 0 86 -38q26 -32 36 -55z
M157 575h107q11 15 35 49q7 10 19.5 27t17.5 23l73 -99h107l-136 208h-88zM296 818l26 -25q33 -32 76 -32q50 0 77.5 42.5t29.5 122.5h-93q-1 -34 -5 -54q-3 -17 -12 -17q-5 0 -19 13h1l-27 25q-39 33 -75 33q-50 0 -78 -43t-30 -122h94q0 31 4 53q4 17 13 17q5 0 18 -13z
" />
    <glyph glyph-name="Ecircumflexdotbelow" unicode="&#x1ec6;" horiz-adv-x="629" 
d="M73 0h483v181h-352v149h329v115h-329v168h344v116h-475v-729zM238 -148h130v130h-130v-130zM127 757h107q11 15 35 49q7 10 19.5 27t17.5 23l73 -99h107l-136 208h-88z" />
    <glyph glyph-name="ecircumflexdotbelow" unicode="&#x1ec7;" 
d="M578 276v52q-9 115 -68 171h1q-59 56 -169 60q-122 0 -193 -78t-76 -212q0 -129 77 -204q78 -74 205 -78q103 0 208 45l-2 158q-69 -36 -109 -39q-41 -4 -92 -4q-80 7 -122 32q-34 24 -40 97h380zM464 386h-256q6 27 35 56v-1q36 38 99 38q54 0 86 -38q26 -32 36 -55z
M296 -161h130v130h-130v-130zM157 575h107q11 15 35 49q7 10 19.5 27t17.5 23l73 -99h107l-136 208h-88z" />
    <glyph glyph-name="Ihookabove" unicode="&#x1ec8;" horiz-adv-x="296" 
d="M73 0h150l-9 729h-126zM109 844v-20q24 12 46 12q32 0 32 -13q0 -11 -12 -18l-10 -8q-14 -10 -16 -15q-3 -5 -3 -16v-3h28q0 8 1 11q1 1 10 9l10 7q21 15 21 30q0 16 -15 26q-14 10 -40 10q-25 0 -52 -12z" />
    <glyph glyph-name="ihookabove" unicode="&#x1ec9;" horiz-adv-x="267" 
d="M73 0h121v547h-121v-547zM86 662v-20q24 12 46 12q32 0 32 -13q0 -11 -12 -18l-10 -8q-14 -10 -16 -15q-3 -5 -3 -16v-3h28q0 8 1 11q1 1 10 9l10 7q21 15 21 30q0 16 -15 26q-14 10 -40 10q-25 0 -52 -12z" />
    <glyph glyph-name="Idotbelow" unicode="&#x1eca;" horiz-adv-x="296" 
d="M73 0h150l-9 729h-126zM90 29h130v130h-130v-130z" />
    <glyph glyph-name="idotbelow" unicode="&#x1ecb;" horiz-adv-x="269" 
d="M74 0h120l-4 547h-111zM73 603h122l-6 143h-110zM73 -6290h130v130h-130v-130z" />
    <glyph glyph-name="Odotbelow" unicode="&#x1ecc;" horiz-adv-x="824" 
d="M413 628q93 0 147.5 -70t54.5 -194q0 -92 -49.5 -127t-152.5 -35q-97 0 -153 33q-51 34 -51 129q0 123 56 196q57 68 148 68zM413 742q-155 0 -248 -104q-92 -104 -92 -274t92 -274q93 -104 248 -104q153 0 246 104q92 104 92 274t-92 274q-93 104 -246 104zM347 29h130
v130h-130v-130z" />
    <glyph glyph-name="odotbelow" unicode="&#x1ecd;" 
d="M326 461q58 0 92.5 -46t34.5 -127q0 -77 -31 -99q-37 -21 -96 -21q-70 0 -99 23t-29 97q0 81 34.5 127t93.5 46zM326 559q-120 0 -186 -77q-67 -76 -67 -209t67 -209q66 -77 186 -77q117 0 184.5 77t67.5 209t-67.5 209t-184.5 77zM260 -153h130v130h-130v-130z" />
    <glyph glyph-name="Ohookabove" unicode="&#x1ece;" horiz-adv-x="824" 
d="M413 628q93 0 147.5 -70t54.5 -194q0 -92 -49.5 -127t-152.5 -35q-97 0 -153 33q-51 34 -51 129q0 123 56 196q57 68 148 68zM413 742q-155 0 -248 -104q-92 -104 -92 -274t92 -274q93 -104 248 -104q153 0 246 104q92 104 92 274t-92 274q-93 104 -246 104zM366 844v-20
q24 12 46 12q32 0 32 -13q0 -11 -12 -18l-10 -8q-14 -10 -16 -15q-3 -5 -3 -16v-3h28q0 8 1 11q1 1 10 9l10 7q21 15 21 30q0 16 -15 26q-14 10 -40 10q-25 0 -52 -12z" />
    <glyph glyph-name="ohookabove" unicode="&#x1ecf;" 
d="M326 461q58 0 92.5 -46t34.5 -127q0 -77 -31 -99q-37 -21 -96 -21q-70 0 -99 23t-29 97q0 81 34.5 127t93.5 46zM326 559q-120 0 -186 -77q-67 -76 -67 -209t67 -209q66 -77 186 -77q117 0 184.5 77t67.5 209t-67.5 209t-184.5 77zM279 662v-20q24 12 46 12q32 0 32 -13
q0 -11 -12 -18l-10 -8q-14 -10 -16 -15q-3 -5 -3 -16v-3h28q0 8 1 11q1 1 10 9l10 7q21 15 21 30q0 16 -15 26q-14 10 -40 10q-25 0 -52 -12z" />
    <glyph glyph-name="Ocircumflexacute" unicode="&#x1ed0;" horiz-adv-x="824" 
d="M413 628q93 0 147.5 -70t54.5 -194q0 -92 -49.5 -127t-152.5 -35q-97 0 -153 33q-51 34 -51 129q0 123 56 196q57 68 148 68zM413 742q-155 0 -248 -104q-92 -104 -92 -274t92 -274q93 -104 248 -104q153 0 246 104q92 104 92 274t-92 274q-93 104 -246 104zM233 757h107
q11 15 35 49q7 10 19.5 27t17.5 23l73 -99h107l-136 208h-88zM330 911h122l197 227h-149z" />
    <glyph glyph-name="ocircumflexacute" unicode="&#x1ed1;" 
d="M326 461q58 0 92.5 -46t34.5 -127q0 -77 -31 -99q-37 -21 -96 -21q-70 0 -99 23t-29 97q0 81 34.5 127t93.5 46zM326 559q-120 0 -186 -77q-67 -76 -67 -209t67 -209q66 -77 186 -77q117 0 184.5 77t67.5 209t-67.5 209t-184.5 77zM146 575h107q11 15 35 49q7 10 19.5 27
t17.5 23l73 -99h107l-136 208h-88zM243 729h122l197 227h-149z" />
    <glyph glyph-name="Ocircumflexgrave" unicode="&#x1ed2;" horiz-adv-x="824" 
d="M413 628q93 0 147.5 -70t54.5 -194q0 -92 -49.5 -127t-152.5 -35q-97 0 -153 33q-51 34 -51 129q0 123 56 196q57 68 148 68zM413 742q-155 0 -248 -104q-92 -104 -92 -274t92 -274q93 -104 248 -104q153 0 246 104q92 104 92 274t-92 274q-93 104 -246 104zM233 757h107
q11 15 35 49q7 10 19.5 27t17.5 23l73 -99h107l-136 208h-88zM235 1153l115 -207h171l-156 207h-130z" />
    <glyph glyph-name="ocircumflexgrave" unicode="&#x1ed3;" 
d="M326 461q58 0 92.5 -46t34.5 -127q0 -77 -31 -99q-37 -21 -96 -21q-70 0 -99 23t-29 97q0 81 34.5 127t93.5 46zM326 559q-120 0 -186 -77q-67 -76 -67 -209t67 -209q66 -77 186 -77q117 0 184.5 77t67.5 209t-67.5 209t-184.5 77zM146 575h107q11 15 35 49q7 10 19.5 27
t17.5 23l73 -99h107l-136 208h-88zM148 971l115 -207h171l-156 207h-130z" />
    <glyph glyph-name="Ocircumflexhookabove" unicode="&#x1ed4;" horiz-adv-x="824" 
d="M413 628q93 0 147.5 -70t54.5 -194q0 -92 -49.5 -127t-152.5 -35q-97 0 -153 33q-51 34 -51 129q0 123 56 196q57 68 148 68zM413 742q-155 0 -248 -104q-92 -104 -92 -274t92 -274q93 -104 248 -104q153 0 246 104q92 104 92 274t-92 274q-93 104 -246 104zM233 757h107
q11 15 35 49q7 10 19.5 27t17.5 23l73 -99h107l-136 208h-88zM366 844v-20q24 12 46 12q32 0 32 -13q0 -11 -12 -18l-10 -8q-14 -10 -16 -15q-3 -5 -3 -16v-3h28q0 8 1 11q1 1 10 9l10 7q21 15 21 30q0 16 -15 26q-14 10 -40 10q-25 0 -52 -12z" />
    <glyph glyph-name="ocircumflexhookabove" unicode="&#x1ed5;" 
d="M326 461q58 0 92.5 -46t34.5 -127q0 -77 -31 -99q-37 -21 -96 -21q-70 0 -99 23t-29 97q0 81 34.5 127t93.5 46zM326 559q-120 0 -186 -77q-67 -76 -67 -209t67 -209q66 -77 186 -77q117 0 184.5 77t67.5 209t-67.5 209t-184.5 77zM146 575h107q11 15 35 49q7 10 19.5 27
t17.5 23l73 -99h107l-136 208h-88zM279 662v-20q24 12 46 12q32 0 32 -13q0 -11 -12 -18l-10 -8q-14 -10 -16 -15q-3 -5 -3 -16v-3h28q0 8 1 11q1 1 10 9l10 7q21 15 21 30q0 16 -15 26q-14 10 -40 10q-25 0 -52 -12z" />
    <glyph glyph-name="Ocircumflextilde" unicode="&#x1ed6;" horiz-adv-x="824" 
d="M413 628q93 0 147.5 -70t54.5 -194q0 -92 -49.5 -127t-152.5 -35q-97 0 -153 33q-51 34 -51 129q0 123 56 196q57 68 148 68zM413 742q-155 0 -248 -104q-92 -104 -92 -274t92 -274q93 -104 248 -104q153 0 246 104q92 104 92 274t-92 274q-93 104 -246 104zM233 757h107
q11 15 35 49q7 10 19.5 27t17.5 23l73 -99h107l-136 208h-88zM372 1000l26 -25q33 -32 76 -32q50 0 77.5 42.5t29.5 122.5h-93q-1 -34 -5 -54q-3 -17 -12 -17q-5 0 -19 13h1l-27 25q-39 33 -75 33q-50 0 -78 -43t-30 -122h94q0 31 4 53q4 17 13 17q5 0 18 -13z" />
    <glyph glyph-name="ocircumflextilde" unicode="&#x1ed7;" 
d="M326 461q58 0 92.5 -46t34.5 -127q0 -77 -31 -99q-37 -21 -96 -21q-70 0 -99 23t-29 97q0 81 34.5 127t93.5 46zM326 559q-120 0 -186 -77q-67 -76 -67 -209t67 -209q66 -77 186 -77q117 0 184.5 77t67.5 209t-67.5 209t-184.5 77zM146 575h107q11 15 35 49q7 10 19.5 27
t17.5 23l73 -99h107l-136 208h-88zM285 818l26 -25q33 -32 76 -32q50 0 77.5 42.5t29.5 122.5h-93q-1 -34 -5 -54q-3 -17 -12 -17q-5 0 -19 13h1l-27 25q-39 33 -75 33q-50 0 -78 -43t-30 -122h94q0 31 4 53q4 17 13 17q5 0 18 -13z" />
    <glyph glyph-name="Ocircumflexdotbelow" unicode="&#x1ed8;" horiz-adv-x="824" 
d="M413 628q93 0 147.5 -70t54.5 -194q0 -92 -49.5 -127t-152.5 -35q-97 0 -153 33q-51 34 -51 129q0 123 56 196q57 68 148 68zM413 742q-155 0 -248 -104q-92 -104 -92 -274t92 -274q93 -104 248 -104q153 0 246 104q92 104 92 274t-92 274q-93 104 -246 104zM347 29h130
v130h-130v-130zM233 757h107q11 15 35 49q7 10 19.5 27t17.5 23l73 -99h107l-136 208h-88z" />
    <glyph glyph-name="ocircumflexdotbelow" unicode="&#x1ed9;" 
d="M326 461q58 0 92.5 -46t34.5 -127q0 -77 -31 -99q-37 -21 -96 -21q-70 0 -99 23t-29 97q0 81 34.5 127t93.5 46zM326 559q-120 0 -186 -77q-67 -76 -67 -209t67 -209q66 -77 186 -77q117 0 184.5 77t67.5 209t-67.5 209t-184.5 77zM260 -153h130v130h-130v-130zM146 575
h107q11 15 35 49q7 10 19.5 27t17.5 23l73 -99h107l-136 208h-88z" />
    <glyph glyph-name="Ohornacute" unicode="&#x1eda;" horiz-adv-x="824" 
d="M413 628q93 0 147.5 -70t54.5 -194q0 -92 -49.5 -127t-152.5 -35q-97 0 -153 33q-51 34 -51 129q0 123 56 196q57 68 148 68zM413 742q-155 0 -248 -104q-92 -104 -92 -274t92 -274q93 -104 248 -104q153 0 246 104q92 104 92 274t-92 274q-93 104 -246 104zM691 589
l22 -46q18 9 49 34q41 37 41 114q0 12 -5 32l-48 6q7 -18 7 -30q0 -65 -20 -83q-6 -5 -20.5 -12.5t-25.5 -14.5zM330 911h122l197 227h-149z" />
    <glyph glyph-name="ohornacute" unicode="&#x1edb;" 
d="M326 461q58 0 92.5 -46t34.5 -127q0 -77 -31 -99q-37 -21 -96 -21q-70 0 -99 23t-29 97q0 81 34.5 127t93.5 46zM326 559q-120 0 -186 -77q-67 -76 -67 -209t67 -209q66 -77 186 -77q117 0 184.5 77t67.5 209t-67.5 209t-184.5 77zM500 427l22 -46q18 9 49 34
q41 37 41 114q0 12 -5 32l-48 6q7 -18 7 -30q0 -65 -20 -83q-6 -5 -20.5 -12.5t-25.5 -14.5zM243 729h122l197 227h-149z" />
    <glyph glyph-name="Ohorngrave" unicode="&#x1edc;" horiz-adv-x="824" 
d="M413 628q93 0 147.5 -70t54.5 -194q0 -92 -49.5 -127t-152.5 -35q-97 0 -153 33q-51 34 -51 129q0 123 56 196q57 68 148 68zM413 742q-155 0 -248 -104q-92 -104 -92 -274t92 -274q93 -104 248 -104q153 0 246 104q92 104 92 274t-92 274q-93 104 -246 104zM691 589
l22 -46q18 9 49 34q41 37 41 114q0 12 -5 32l-48 6q7 -18 7 -30q0 -65 -20 -83q-6 -5 -20.5 -12.5t-25.5 -14.5zM235 1153l115 -207h171l-156 207h-130z" />
    <glyph glyph-name="ohorngrave" unicode="&#x1edd;" 
d="M326 461q58 0 92.5 -46t34.5 -127q0 -77 -31 -99q-37 -21 -96 -21q-70 0 -99 23t-29 97q0 81 34.5 127t93.5 46zM326 559q-120 0 -186 -77q-67 -76 -67 -209t67 -209q66 -77 186 -77q117 0 184.5 77t67.5 209t-67.5 209t-184.5 77zM500 427l22 -46q18 9 49 34
q41 37 41 114q0 12 -5 32l-48 6q7 -18 7 -30q0 -65 -20 -83q-6 -5 -20.5 -12.5t-25.5 -14.5zM148 971l115 -207h171l-156 207h-130z" />
    <glyph glyph-name="Ohornhookabove" unicode="&#x1ede;" horiz-adv-x="824" 
d="M413 628q93 0 147.5 -70t54.5 -194q0 -92 -49.5 -127t-152.5 -35q-97 0 -153 33q-51 34 -51 129q0 123 56 196q57 68 148 68zM413 742q-155 0 -248 -104q-92 -104 -92 -274t92 -274q93 -104 248 -104q153 0 246 104q92 104 92 274t-92 274q-93 104 -246 104zM691 589
l22 -46q18 9 49 34q41 37 41 114q0 12 -5 32l-48 6q7 -18 7 -30q0 -65 -20 -83q-6 -5 -20.5 -12.5t-25.5 -14.5zM366 844v-20q24 12 46 12q32 0 32 -13q0 -11 -12 -18l-10 -8q-14 -10 -16 -15q-3 -5 -3 -16v-3h28q0 8 1 11q1 1 10 9l10 7q21 15 21 30q0 16 -15 26
q-14 10 -40 10q-25 0 -52 -12z" />
    <glyph glyph-name="ohornhookabove" unicode="&#x1edf;" 
d="M326 461q58 0 92.5 -46t34.5 -127q0 -77 -31 -99q-37 -21 -96 -21q-70 0 -99 23t-29 97q0 81 34.5 127t93.5 46zM326 559q-120 0 -186 -77q-67 -76 -67 -209t67 -209q66 -77 186 -77q117 0 184.5 77t67.5 209t-67.5 209t-184.5 77zM500 427l22 -46q18 9 49 34
q41 37 41 114q0 12 -5 32l-48 6q7 -18 7 -30q0 -65 -20 -83q-6 -5 -20.5 -12.5t-25.5 -14.5zM279 662v-20q24 12 46 12q32 0 32 -13q0 -11 -12 -18l-10 -8q-14 -10 -16 -15q-3 -5 -3 -16v-3h28q0 8 1 11q1 1 10 9l10 7q21 15 21 30q0 16 -15 26q-14 10 -40 10q-25 0 -52 -12
z" />
    <glyph glyph-name="Ohorntilde" unicode="&#x1ee0;" horiz-adv-x="824" 
d="M413 628q93 0 147.5 -70t54.5 -194q0 -92 -49.5 -127t-152.5 -35q-97 0 -153 33q-51 34 -51 129q0 123 56 196q57 68 148 68zM413 742q-155 0 -248 -104q-92 -104 -92 -274t92 -274q93 -104 248 -104q153 0 246 104q92 104 92 274t-92 274q-93 104 -246 104zM691 589
l22 -46q18 9 49 34q41 37 41 114q0 12 -5 32l-48 6q7 -18 7 -30q0 -65 -20 -83q-6 -5 -20.5 -12.5t-25.5 -14.5zM372 1000l26 -25q33 -32 76 -32q50 0 77.5 42.5t29.5 122.5h-93q-1 -34 -5 -54q-3 -17 -12 -17q-5 0 -19 13h1l-27 25q-39 33 -75 33q-50 0 -78 -43t-30 -122
h94q0 31 4 53q4 17 13 17q5 0 18 -13z" />
    <glyph glyph-name="ohorntilde" unicode="&#x1ee1;" 
d="M326 461q58 0 92.5 -46t34.5 -127q0 -77 -31 -99q-37 -21 -96 -21q-70 0 -99 23t-29 97q0 81 34.5 127t93.5 46zM326 559q-120 0 -186 -77q-67 -76 -67 -209t67 -209q66 -77 186 -77q117 0 184.5 77t67.5 209t-67.5 209t-184.5 77zM500 427l22 -46q18 9 49 34
q41 37 41 114q0 12 -5 32l-48 6q7 -18 7 -30q0 -65 -20 -83q-6 -5 -20.5 -12.5t-25.5 -14.5zM285 818l26 -25q33 -32 76 -32q50 0 77.5 42.5t29.5 122.5h-93q-1 -34 -5 -54q-3 -17 -12 -17q-5 0 -19 13h1l-27 25q-39 33 -75 33q-50 0 -78 -43t-30 -122h94q0 31 4 53
q4 17 13 17q5 0 18 -13z" />
    <glyph glyph-name="Ohorndotbelow" unicode="&#x1ee2;" horiz-adv-x="824" 
d="M413 628q93 0 147.5 -70t54.5 -194q0 -92 -49.5 -127t-152.5 -35q-97 0 -153 33q-51 34 -51 129q0 123 56 196q57 68 148 68zM413 742q-155 0 -248 -104q-92 -104 -92 -274t92 -274q93 -104 248 -104q153 0 246 104q92 104 92 274t-92 274q-93 104 -246 104zM691 589
l22 -46q18 9 49 34q41 37 41 114q0 12 -5 32l-48 6q7 -18 7 -30q0 -65 -20 -83q-6 -5 -20.5 -12.5t-25.5 -14.5zM347 29h130v130h-130v-130z" />
    <glyph glyph-name="ohorndotbelow" unicode="&#x1ee3;" 
d="M326 461q58 0 92.5 -46t34.5 -127q0 -77 -31 -99q-37 -21 -96 -21q-70 0 -99 23t-29 97q0 81 34.5 127t93.5 46zM326 559q-120 0 -186 -77q-67 -76 -67 -209t67 -209q66 -77 186 -77q117 0 184.5 77t67.5 209t-67.5 209t-184.5 77zM500 427l22 -46q18 9 49 34
q41 37 41 114q0 12 -5 32l-48 6q7 -18 7 -30q0 -65 -20 -83q-6 -5 -20.5 -12.5t-25.5 -14.5zM260 -153h130v130h-130v-130z" />
    <glyph glyph-name="Udotbelow" unicode="&#x1ee4;" horiz-adv-x="713" 
d="M73 729v-451q0 -144 72 -218t212 -74q283 0 283 292v451h-131v-374q0 -104 -36 -149v1q-35 -42 -116 -42t-116 42v-1q-36 45 -36 149v374h-132zM291 29h130v130h-130v-130z" />
    <glyph glyph-name="udotbelow" unicode="&#x1ee5;" horiz-adv-x="615" 
d="M73 547v-327q0 -115 50 -174t148 -59q86 0 142 55l-2 -42h121l10 547h-134l-5 -234q-7 -72 -37 -107q-31 -37 -92 -37q-46 0 -68 31.5t-26 96.5v250h-107zM248 -153h130v130h-130v-130z" />
    <glyph glyph-name="Uhookabove" unicode="&#x1ee6;" horiz-adv-x="713" 
d="M73 729v-451q0 -144 72 -218t212 -74q283 0 283 292v451h-131v-374q0 -104 -36 -149v1q-35 -42 -116 -42t-116 42v-1q-36 45 -36 149v374h-132zM310 844v-20q24 12 46 12q32 0 32 -13q0 -11 -12 -18l-10 -8q-14 -10 -16 -15q-3 -5 -3 -16v-3h28q0 8 1 11q1 1 10 9l10 7
q21 15 21 30q0 16 -15 26q-14 10 -40 10q-25 0 -52 -12z" />
    <glyph glyph-name="uhookabove" unicode="&#x1ee7;" horiz-adv-x="615" 
d="M73 547v-327q0 -115 50 -174t148 -59q86 0 142 55l-2 -42h121l10 547h-134l-5 -234q-7 -72 -37 -107q-31 -37 -92 -37q-46 0 -68 31.5t-26 96.5v250h-107zM267 662v-20q24 12 46 12q32 0 32 -13q0 -11 -12 -18l-10 -8q-14 -10 -16 -15q-3 -5 -3 -16v-3h28q0 8 1 11
q1 1 10 9l10 7q21 15 21 30q0 16 -15 26q-14 10 -40 10q-25 0 -52 -12z" />
    <glyph glyph-name="Uhornacute" unicode="&#x1ee8;" horiz-adv-x="713" 
d="M73 729v-451q0 -144 72 -218t212 -74q283 0 283 292v451h-131v-374q0 -104 -36 -149v1q-35 -42 -116 -42t-116 42v-1q-36 45 -36 149v374h-132zM607 629l22 -46q18 9 49 34q41 37 41 114q0 12 -5 32l-48 6q7 -17 7 -30q0 -65 -20 -83q-6 -5 -20.5 -12.5t-25.5 -14.5z
M274 911h122l197 227h-149z" />
    <glyph glyph-name="uhornacute" unicode="&#x1ee9;" horiz-adv-x="615" 
d="M73 547v-327q0 -115 50 -174t148 -59q86 0 142 55l-2 -42h121l10 547h-134l-5 -234q-7 -72 -37 -107q-31 -37 -92 -37q-46 0 -68 31.5t-26 96.5v250h-107zM516 469l22 -46q18 9 49 34q41 37 41 114q0 12 -5 32l-48 6q7 -17 7 -30q0 -65 -20 -83q-6 -5 -20.5 -12.5
t-25.5 -14.5zM231 729h122l197 227h-149z" />
    <glyph glyph-name="Uhorngrave" unicode="&#x1eea;" horiz-adv-x="713" 
d="M73 729v-451q0 -144 72 -218t212 -74q283 0 283 292v451h-131v-374q0 -104 -36 -149v1q-35 -42 -116 -42t-116 42v-1q-36 45 -36 149v374h-132zM607 629l22 -46q18 9 49 34q41 37 41 114q0 12 -5 32l-48 6q7 -17 7 -30q0 -65 -20 -83q-6 -5 -20.5 -12.5t-25.5 -14.5z
M179 1153l115 -207h171l-156 207h-130z" />
    <glyph glyph-name="uhorngrave" unicode="&#x1eeb;" horiz-adv-x="615" 
d="M73 547v-327q0 -115 50 -174t148 -59q86 0 142 55l-2 -42h121l10 547h-134l-5 -234q-7 -72 -37 -107q-31 -37 -92 -37q-46 0 -68 31.5t-26 96.5v250h-107zM516 469l22 -46q18 9 49 34q41 37 41 114q0 12 -5 32l-48 6q7 -17 7 -30q0 -65 -20 -83q-6 -5 -20.5 -12.5
t-25.5 -14.5zM136 971l115 -207h171l-156 207h-130z" />
    <glyph glyph-name="Uhornhookabove" unicode="&#x1eec;" horiz-adv-x="713" 
d="M73 729v-451q0 -144 72 -218t212 -74q283 0 283 292v451h-131v-374q0 -104 -36 -149v1q-35 -42 -116 -42t-116 42v-1q-36 45 -36 149v374h-132zM607 629l22 -46q18 9 49 34q41 37 41 114q0 12 -5 32l-48 6q7 -17 7 -30q0 -65 -20 -83q-6 -5 -20.5 -12.5t-25.5 -14.5z
M310 844v-20q24 12 46 12q32 0 32 -13q0 -11 -12 -18l-10 -8q-14 -10 -16 -15q-3 -5 -3 -16v-3h28q0 8 1 11q1 1 10 9l10 7q21 15 21 30q0 16 -15 26q-14 10 -40 10q-25 0 -52 -12z" />
    <glyph glyph-name="uhornhookabove" unicode="&#x1eed;" horiz-adv-x="615" 
d="M73 547v-327q0 -115 50 -174t148 -59q86 0 142 55l-2 -42h121l10 547h-134l-5 -234q-7 -72 -37 -107q-31 -37 -92 -37q-46 0 -68 31.5t-26 96.5v250h-107zM516 469l22 -46q18 9 49 34q41 37 41 114q0 12 -5 32l-48 6q7 -17 7 -30q0 -65 -20 -83q-6 -5 -20.5 -12.5
t-25.5 -14.5zM267 662v-20q24 12 46 12q32 0 32 -13q0 -11 -12 -18l-10 -8q-14 -10 -16 -15q-3 -5 -3 -16v-3h28q0 8 1 11q1 1 10 9l10 7q21 15 21 30q0 16 -15 26q-14 10 -40 10q-25 0 -52 -12z" />
    <glyph glyph-name="Uhorntilde" unicode="&#x1eee;" horiz-adv-x="713" 
d="M73 729v-451q0 -144 72 -218t212 -74q283 0 283 292v451h-131v-374q0 -104 -36 -149v1q-35 -42 -116 -42t-116 42v-1q-36 45 -36 149v374h-132zM607 629l22 -46q18 9 49 34q41 37 41 114q0 12 -5 32l-48 6q7 -17 7 -30q0 -65 -20 -83q-6 -5 -20.5 -12.5t-25.5 -14.5z
M316 1000l26 -25q33 -32 76 -32q50 0 77.5 42.5t29.5 122.5h-93q-1 -34 -5 -54q-3 -17 -12 -17q-5 0 -19 13h1l-27 25q-39 33 -75 33q-50 0 -78 -43t-30 -122h94q0 31 4 53q4 17 13 17q5 0 18 -13z" />
    <glyph glyph-name="uhorntilde" unicode="&#x1eef;" horiz-adv-x="615" 
d="M73 547v-327q0 -115 50 -174t148 -59q86 0 142 55l-2 -42h121l10 547h-134l-5 -234q-7 -72 -37 -107q-31 -37 -92 -37q-46 0 -68 31.5t-26 96.5v250h-107zM516 469l22 -46q18 9 49 34q41 37 41 114q0 12 -5 32l-48 6q7 -17 7 -30q0 -65 -20 -83q-6 -5 -20.5 -12.5
t-25.5 -14.5zM273 818l26 -25q33 -32 76 -32q50 0 77.5 42.5t29.5 122.5h-93q-1 -34 -5 -54q-3 -17 -12 -17q-5 0 -19 13h1l-27 25q-39 33 -75 33q-50 0 -78 -43t-30 -122h94q0 31 4 53q4 17 13 17q5 0 18 -13z" />
    <glyph glyph-name="Uhorndotbelow" unicode="&#x1ef0;" horiz-adv-x="713" 
d="M73 729v-451q0 -144 72 -218t212 -74q283 0 283 292v451h-131v-374q0 -104 -36 -149v1q-35 -42 -116 -42t-116 42v-1q-36 45 -36 149v374h-132zM607 629l22 -46q18 9 49 34q41 37 41 114q0 12 -5 32l-48 6q7 -17 7 -30q0 -65 -20 -83q-6 -5 -20.5 -12.5t-25.5 -14.5z
M291 29h130v130h-130v-130z" />
    <glyph glyph-name="uhorndotbelow" unicode="&#x1ef1;" horiz-adv-x="615" 
d="M73 547v-327q0 -115 50 -174t148 -59q86 0 142 55l-2 -42h121l10 547h-134l-5 -234q-7 -72 -37 -107q-31 -37 -92 -37q-46 0 -68 31.5t-26 96.5v250h-107zM516 469l22 -46q18 9 49 34q41 37 41 114q0 12 -5 32l-48 6q7 -17 7 -30q0 -65 -20 -83q-6 -5 -20.5 -12.5
t-25.5 -14.5zM248 -153h130v130h-130v-130z" />
    <glyph glyph-name="Ygrave" unicode="&#x1ef2;" horiz-adv-x="791" 
d="M311 250v-250h164v250l242 479h-142l-179 -334l-181 334h-142zM218 1153l115 -207h171l-156 207h-130z" />
    <glyph glyph-name="ygrave" unicode="&#x1ef3;" horiz-adv-x="698" 
d="M625 547h-127l-129 -277l-169 277h-127q9 -20 28 -59.5t28 -59.5q19 -41 57.5 -124t57.5 -124q9 -20 28 -59.5t28 -59.5q-3 -5 -5.5 -10.5t-5.5 -12t-5 -9.5q-10 -17 -17 -32q-17 -23 -38 -41q-15 -12 -41 -12h-77v-147h94q67 0 109 33.5t86 133.5zM124 971l115 -207h171
l-156 207h-130z" />
    <glyph glyph-name="Ydotbelow" unicode="&#x1ef4;" horiz-adv-x="791" 
d="M311 250v-250h164v250l242 479h-142l-179 -334l-181 334h-142zM330 29h130v130h-130v-130z" />
    <glyph glyph-name="ydotbelow" unicode="&#x1ef5;" horiz-adv-x="698" 
d="M625 547h-127l-129 -277l-169 277h-127q9 -20 28 -59.5t28 -59.5q19 -41 57.5 -124t57.5 -124q9 -20 28 -59.5t28 -59.5q-3 -5 -5.5 -10.5t-5.5 -12t-5 -9.5q-10 -17 -17 -32q-17 -23 -38 -41q-15 -12 -41 -12h-77v-147h94q67 0 109 33.5t86 133.5zM236 -153h130v130
h-130v-130z" />
    <glyph glyph-name="Yhookabove" unicode="&#x1ef6;" horiz-adv-x="791" 
d="M311 250v-250h164v250l242 479h-142l-179 -334l-181 334h-142zM349 844v-20q24 12 46 12q32 0 32 -13q0 -11 -12 -18l-10 -8q-14 -10 -16 -15q-3 -5 -3 -16v-3h28q0 8 1 11q1 1 10 9l10 7q21 15 21 30q0 16 -15 26q-14 10 -40 10q-25 0 -52 -12z" />
    <glyph glyph-name="yhookabove" unicode="&#x1ef7;" horiz-adv-x="698" 
d="M625 547h-127l-129 -277l-169 277h-127q9 -20 28 -59.5t28 -59.5q19 -41 57.5 -124t57.5 -124q9 -20 28 -59.5t28 -59.5q-3 -5 -5.5 -10.5t-5.5 -12t-5 -9.5q-10 -17 -17 -32q-17 -23 -38 -41q-15 -12 -41 -12h-77v-147h94q67 0 109 33.5t86 133.5zM255 662v-20
q24 12 46 12q32 0 32 -13q0 -11 -12 -18l-10 -8q-14 -10 -16 -15q-3 -5 -3 -16v-3h28q0 8 1 11q1 1 10 9l10 7q21 15 21 30q0 16 -15 26q-14 10 -40 10q-25 0 -52 -12z" />
    <glyph glyph-name="Ytilde" unicode="&#x1ef8;" horiz-adv-x="791" 
d="M311 250v-250h164v250l242 479h-142l-179 -334l-181 334h-142zM355 1000l26 -25q33 -32 76 -32q50 0 77.5 42.5t29.5 122.5h-93q-1 -34 -5 -54q-3 -17 -12 -17q-5 0 -19 13h1l-27 25q-39 33 -75 33q-50 0 -78 -43t-30 -122h94q0 31 4 53q4 17 13 17q5 0 18 -13z" />
    <glyph glyph-name="ytilde" unicode="&#x1ef9;" horiz-adv-x="698" 
d="M625 547h-127l-129 -277l-169 277h-127q9 -20 28 -59.5t28 -59.5q19 -41 57.5 -124t57.5 -124q9 -20 28 -59.5t28 -59.5q-3 -5 -5.5 -10.5t-5.5 -12t-5 -9.5q-10 -17 -17 -32q-17 -23 -38 -41q-15 -12 -41 -12h-77v-147h94q67 0 109 33.5t86 133.5zM261 818l26 -25
q33 -32 76 -32q50 0 77.5 42.5t29.5 122.5h-93q-1 -34 -5 -54q-3 -17 -12 -17q-5 0 -19 13h1l-27 25q-39 33 -75 33q-50 0 -78 -43t-30 -122h94q0 31 4 53q4 17 13 17q5 0 18 -13z" />
    <glyph glyph-name="endash" unicode="&#x2013;" horiz-adv-x="649" 
d="M73 223h503v102h-503v-102z" />
    <glyph glyph-name="emdash" unicode="&#x2014;" horiz-adv-x="1116" 
d="M73 223h970v102h-970v-102z" />
    <glyph glyph-name="quoteleft" unicode="&#x2018;" horiz-adv-x="352" 
d="M229 529l50 200h-107l-99 -193v-119h156v112z" />
    <glyph glyph-name="quoteright" unicode="&#x2019;" horiz-adv-x="351" 
d="M124 625l-51 -197h107l97 190v107h-153v-100z" />
    <glyph glyph-name="quotesinglbase" unicode="&#x201a;" horiz-adv-x="322" 
d="M116 58l-43 -166h94l82 159v101h-133v-94z" />
    <glyph glyph-name="quotedblleft" unicode="&#x201c;" horiz-adv-x="586" 
d="M229 515l52 202h-108l-100 -195v-121h156v114zM461 515l52 202h-108l-99 -195v-121h155v114z" />
    <glyph glyph-name="quotedblright" unicode="&#x201d;" horiz-adv-x="560" 
d="M122 610l-49 -190h103l94 183v114h-148v-107zM339 610l-49 -190h103l94 183v114h-148v-107z" />
    <glyph glyph-name="quotedblbase" unicode="&#x201e;" horiz-adv-x="591" 
d="M360 96l-52 -204h109l101 196v121h-158v-113zM125 96l-52 -204h109l101 196v121h-158v-113z" />
    <glyph glyph-name="dagger" unicode="&#x2020;" horiz-adv-x="598" 
d="M241 525h-168v-106h168v-509h116v509h167v106h-167v192h-116v-192z" />
    <glyph glyph-name="daggerdbl" unicode="&#x2021;" horiz-adv-x="598" 
d="M524 208h-158q-2 37 -4 107q-1 17 -2.5 52t-2.5 52h167v106h-167v192h-117v-192h-167v-106h167q0 -21 -2 -55t-2 -51q-2 -36 -4 -105h-159v-138h148l-9 -160h173q0 12 -2 38q0 13 -1.5 40.5t-2.5 41.5t-3 40h148v138z" />
    <glyph glyph-name="bullet" unicode="&#x2022;" horiz-adv-x="454" 
d="M73 366q0 -64 44.5 -109t109.5 -45q64 0 108.5 44.5t44.5 109.5q0 63 -44.5 107.5t-107.5 44.5q-64 0 -109.5 -44.5t-45.5 -107.5z" />
    <glyph glyph-name="ellipsis" unicode="&#x2026;" horiz-adv-x="951" 
d="M384 0h183v202h-183v-202zM694 0h184v202h-184v-202zM73 0h184v202h-184v-202z" />
    <glyph glyph-name="perthousand" unicode="&#x2030;" horiz-adv-x="1333" 
d="M1084 299q31 0 48.5 -19.5t17.5 -52.5q0 -34 -17.5 -53.5t-48.5 -19.5t-48.5 19.5t-17.5 53.5t17.5 53t48.5 19zM1084 394q-79 0 -127 -56t-48 -148q0 -93 47 -148t128 -55t128 56q47 53 47 147q0 93 -47.5 148.5t-127.5 55.5zM248 729q-80 0 -127.5 -56t-47.5 -147
q0 -93 47.5 -148.5t127.5 -55.5t128 55.5t48 148.5q0 92 -48.5 147.5t-127.5 55.5zM168 -13h149l448 742h-115zM248 635q31 0 49 -22t18 -59q0 -39 -17.5 -60t-49.5 -21q-31 0 -48.5 21t-17.5 60q0 38 17.5 59.5t48.5 21.5zM719 394q-81 0 -130 -57q-47 -56 -47 -147
q0 -92 48 -147.5t129 -55.5q80 0 127.5 55.5t47.5 147.5q0 91 -47 147q-49 57 -128 57zM719 299q30 0 47.5 -19.5t17.5 -52.5q0 -34 -17.5 -53.5t-47.5 -19.5q-32 0 -49.5 19.5t-17.5 53.5t18 53t49 19z" />
    <glyph glyph-name="guilsinglleft" unicode="&#x2039;" horiz-adv-x="397" 
d="M73 318v-53l251 -223v136l-128 114l128 114v136z" />
    <glyph glyph-name="guilsinglright" unicode="&#x203a;" horiz-adv-x="396" 
d="M73 406l128 -114l-128 -114v-136l250 223v53l-250 224v-136z" />
    <glyph glyph-name="fraction" unicode="&#x2044;" horiz-adv-x="528" 
d="M73 84l144 -5l238 796l-105 3z" />
    <glyph glyph-name="Euro" unicode="&#x20ac;" horiz-adv-x="725" 
d="M652 523v132q-92 74 -187 74q-116 0 -191 -71q-72 -70 -92 -178h-67l-42 -93h99v-13q-1 -5 -1 -16q0 -10 1 -15v-12v-1h-59l-37 -111h111q7 -40 32 -87q24 -44 55 -74q77 -71 191 -71q94 0 187 75v191q-78 -80 -112 -98t-76 -18q-64 0 -105 41q-25 24 -35 41h150l38 111
h-212q-1 3 -1 7v5q0 3 1 6v10v16q-1 7 0 13h240l42 93h-270q16 71 56.5 117t99.5 46q43 0 76 -18q37 -21 108 -102z" />
    <glyph glyph-name="trademark" unicode="&#x2122;" horiz-adv-x="794" 
d="M367 717l-21 -300h118q0 10 -1.5 31.5t-2.5 32.5q-2 46 -4 69l46 -110h68q7 18 21 52q7 17 21 53l-8 -128h117l-10 300h-106q-5 -10 -16 -31t-17 -32q-6 -13 -18.5 -35t-15.5 -29l-64 127h-107zM73 717v-79h91l-14 -221h119l-15 221h92v79h-273z" />
    <glyph glyph-name="Omega" unicode="&#x2126;" horiz-adv-x="836" 
d="M763 147h-119q52 50 76 93q35 59 35 154q0 152 -94 247q-95 96 -243 96q-150 0 -243.5 -96.5t-93.5 -251.5q0 -91 36 -150q25 -42 75 -92h-119v-147h315v142q-88 29 -131 96v-1q-43 68 -43 157q0 129 56 188q56 62 148 62q95 0 149.5 -63.5t54.5 -186.5
q0 -91 -43.5 -157.5t-130.5 -94.5v-142h315v147z" />
    <glyph glyph-name="partialdiff" unicode="&#x2202;" horiz-adv-x="574" 
d="M266 405q-82 0 -137.5 -65t-55.5 -160q0 -82 51.5 -136.5t128.5 -54.5q108 0 178 109q69 101 69 263q0 127 -53.5 203t-143.5 76q-27 0 -49 -6q-30 -8 -55.5 -29.5t-25.5 -55.5q0 -25 10 -32q8 -7 37 -7t41 29q5 7 76 11q47 -1 47 -101q0 -44 -6 -92q-38 48 -112 48z
M331 263q0 -70 -33 -119q-31 -43 -75 -43q-66 0 -66 75q0 74 32 120q31 43 76 43q32 0 49 -19.5t17 -56.5z" />
    <glyph glyph-name="Delta" unicode="&#x2206;" horiz-adv-x="830" 
d="M579 172h-329q27 68 42 110q5 13 19 49t22 55q8 20 22.5 57.5t17.5 46.5q19 52 42 108zM73 0h684l-278 708h-127z" />
    <glyph glyph-name="product" unicode="&#x220f;" horiz-adv-x="747" 
d="M73 -179h146v757h309v-757h145v887h-600v-887z" />
    <glyph glyph-name="summation" unicode="&#x2211;" horiz-adv-x="782" 
d="M87 708v-89q65 -57 199 -173q32 -28 98 -86t100 -87l-411 -320v-132h635v160h-423l382 293q-5 4 -77.5 67t-110.5 96q-89 77 -189 165h407v106h-610z" />
    <glyph glyph-name="minus" unicode="&#x2212;" horiz-adv-x="767" 
d="M73 254h621v114h-621v-114z" />
    <glyph glyph-name="uni2215" unicode="&#x2215;" horiz-adv-x="709" 
d="M73 -13h116l447 742h-116z" />
    <glyph glyph-name="middot.001" unicode="&#x2219;" horiz-adv-x="307" 
d="M73 266h160v186h-160v-186z" />
    <glyph glyph-name="radical" unicode="&#x221a;" horiz-adv-x="754" 
d="M342 193l-106 293l-163 -56l23 -72l57 20l143 -397h57l270 732h58v80h-117z" />
    <glyph glyph-name="infinity" unicode="&#x221e;" horiz-adv-x="760" 
d="M424 306l4 9l-2 4q-2 2 -2 4v-17zM485 406h-1q26 25 56 25q32 0 54 -25.5t22 -63.5q0 -41 -24.5 -66t-61.5 -25q-62 0 -102 64q28 61 57 91zM336 320l-4 -8l4 -8v16zM283 246q-32 -10 -62 -10q-33 0 -54.5 25.5t-21.5 63.5q0 41 23.5 66t61.5 25q30 0 55 -34
q29 -40 47 -70q-29 -59 -49 -66zM443 133q39 -30 88 -30q71 0 114 56v-1q42 54 42 140q0 83 -48 140t-117 57q-88 0 -148 -103q-61 101 -145 101q-70 0 -113 -55.5t-43 -141.5q0 -83 47.5 -139t117.5 -56q84 0 147 101q31 -47 58 -69z" />
    <glyph glyph-name="integral" unicode="&#x222b;" horiz-adv-x="625" 
d="M210 -46q-18 35 -60 35q-36 0 -56.5 -19t-20.5 -53q0 -38 30 -63q29 -23 71 -23q102 0 148 105q46 99 53 320l3 107q0 20 1 30q1 105 10 179q6 64 18 81q3 -17 6 -23q16 -45 67 -45q34 0 53 19t19 53q0 38 -28 62t-72 24q-104 0 -152 -112q-46 -105 -50 -343l-1 -75
q-5 -140 -11 -198q-7 -76 -19 -93q-3 22 -9 32z" />
    <glyph glyph-name="approxequal" unicode="&#x2248;" horiz-adv-x="767" 
d="M694 211v130q-62 -50 -103 -71q-40 -22 -78 -22q-41 0 -107 25q-4 2 -10 4q0 2 -3 2l-4 2q-71 27 -122 32q-51 0 -94 -18q-47 -18 -100 -58v-130q111 95 181 95q38 0 107 -32h2q2 -1 3 -1q4 -2 5 -2q6 -3 7 -3q73 -29 124 -29q45 0 93 18q43 19 99 58zM694 389v129
q-62 -50 -103 -71q-43 -22 -78 -22q-38 0 -107 26l-10 4l-7 3q-66 27 -122 33q-47 0 -94 -18q-47 -20 -100 -58v-130q110 94 181 94q41 0 107 -31q1 -1 2 -1q2 -1 3 -1t5 -2q6 -3 7 -3q74 -28 124 -28q49 0 93 18q43 17 99 58z" />
    <glyph glyph-name="notequal" unicode="&#x2260;" horiz-adv-x="767" 
d="M73 347h269l-60 -73h-209v-113h115l-65 -81l85 -70l30 36l63 78q10 13 30 37h363v113h-270q5 6 18 22q2 3 6.5 8t6.5 8q3 4 12.5 15.5t16.5 19.5h210v113h-118l67 82l-85 70l-123 -152h-362v-113z" />
    <glyph glyph-name="lessequal" unicode="&#x2264;" horiz-adv-x="767" 
d="M694 585l-621 -177v-105l621 -178v119l-390 111l390 113v117zM73 0h621v114h-621v-114z" />
    <glyph glyph-name="greaterequal" unicode="&#x2265;" horiz-adv-x="767" 
d="M463 355l-390 -111v-119l621 178v105l-621 177v-117zM73 114v-114h621v114h-621z" />
    <glyph glyph-name="lozenge" unicode="&#x25ca;" horiz-adv-x="643" 
d="M476 290l-155 -227l-154 227l154 328zM73 288l248 -530l248 530l-248 526z" />
    <glyph glyph-name="c6459" horiz-adv-x="454" 
d="M251 590h129v129h-129v-129zM73 590h130v129h-130v-129z" />
    <glyph glyph-name="c6460" horiz-adv-x="396" 
d="M73 575h115l135 157h-133z" />
    <glyph glyph-name="c6461" horiz-adv-x="484" 
d="M205 626l26 -15q28 -13 41 -17t34 -4q47 0 75 37q27 34 30 99h-94v-21q0 -24 -15 -24q-8 0 -24 9l-26 14q-20 11 -40 18q-15 4 -35 4q-47 0 -75 -37q-29 -35 -29 -99h94v21q0 25 16 25q5 0 22 -10z" />
    <glyph glyph-name="c6462" horiz-adv-x="396" 
d="M73 732l136 -157h114l-116 157h-134z" />
    <glyph glyph-name="c6463" horiz-adv-x="500" 
d="M73 575h109q4 5 9.5 11t12.5 13.5t11 11.5q24 26 35 37l68 -73h109l-126 158h-103z" />
    <glyph glyph-name="c6466" horiz-adv-x="500" 
d="M301 575l126 158h-109l-33 -36q-24 -26 -35 -37l-68 73h-109l125 -158h103z" />
    <glyph glyph-name="c6467" horiz-adv-x="499" 
d="M262 475h-86l86 117v-117zM73 468v-79h189v-85h102v85h62v86h-62v246h-103z" />
    <glyph glyph-name="c6468" horiz-adv-x="471" 
d="M161 733h-88q12 -147 162 -147q151 0 163 147h-88q-15 -51 -75 -51q-62 0 -74 51z" />
    <glyph glyph-name="c6469" horiz-adv-x="276" 
d="M73 590h130v130h-130v-130z" />
  </font>
</defs>
</svg>
